<svg id="Layer_1" xmlns="http://www.w3.org/2000/svg" viewBox="0 0 62.5 61.8"><style>.st1,.st2{fill:none;stroke:#204ecf;stroke-width:.5;stroke-linecap:round;stroke-linejoin:round;stroke-miterlimit:10}.st2{fill:#fff}</style><path class="st2" d="M.7 59v.5c0 1.1.9 2 2 2h57c1.1 0 2-.9 2-2V59"/><path class="st1" d="M55.6 57.6H6.9c-1.7 0-3-1.3-3-3V17.8c0-1.7 1.3-3 3-3h48.8c1.7 0 3 1.3 3 3v36.8c-.1 1.7-1.4 3-3.1 3z"/><path opacity=".1" fill="#204ecf" d="M5.9 18.8h50.8v33.8H5.9z"/><path class="st1" d="M5.9 18.8h50.8v33.8H5.9z"/><path class="st2" d="M61.6 58.6l-2.1-1.8c-.5-.5-1.2-.7-1.9-.7H5c-.7 0-1.4.3-1.9.7L1 58.6c-.4.3-.1.9.3.9h60c.4 0 .6-.6.3-.9z"/><g><path class="st1" d="M9.9 44.4h27.2M9.9 48.4h13.6M9.9 40.4h20.4M9.9 26.8h6.8"/></g></svg>