<svg id="Layer_1" xmlns="http://www.w3.org/2000/svg" viewBox="0 0 62.5 61.8"><style>.st1{fill:none;stroke:#204ecf;stroke-width:.5;stroke-linecap:round;stroke-linejoin:round;stroke-miterlimit:10}</style><path opacity=".1" fill="#204ecf" d="M2.9 11.7h56.8v32.8H2.9z"/><path class="st1" d="M58.6 53.4H3.9c-1.7 0-3-1.3-3-3V10.7c0-1.7 1.3-3 3-3h54.8c1.7 0 3 1.3 3 3v39.8c-.1 1.6-1.4 2.9-3.1 2.9z"/><path class="st1" d="M2.9 11.7h56.8v32.8H2.9z"/><path class="st1" d="M2.9 11.7h56.8v32.8H2.9zM.9 48.4h60.7M39.9 61.5H22.6c1.3-1.3 2.2-3 2.5-4.9l.5-3.2h11.2l.5 3.2c.4 1.9 1.3 3.6 2.6 4.9z"/><g><path class="st1" d="M6.9 23.7h27.2M6.9 27.7h13.6M6.9 19.7h20.4M6.9 36.4h6.8"/></g></svg>
