<?xml version="1.0" encoding="UTF-8"?>
<svg width="24px" height="24px" viewBox="0 0 24 24" version="1.1" xmlns="http://www.w3.org/2000/svg" xmlns:xlink="http://www.w3.org/1999/xlink">
    <!-- Generator: Sketch 54.1 (76490) - https://sketchapp.com -->
    <title>24x24/alarm</title>
    <desc>Created with Sketch.</desc>
    <g id="24x24/alarm" stroke="none" stroke-width="1" fill="none" fill-rule="evenodd">
        <g id="alarm-bell-1" transform="translate(2.000000, 0.000000)" fill="#FFFFFF" fill-rule="nonzero">
            <path d="M1.5,11.5 C1.5,6.80557963 5.30557963,3 10,3 C14.6944204,3 18.5,6.80557963 18.5,11.5 L18.5,18 C18.5,18.5522847 18.9477153,19 19.5,19 L19.5,20 L0.5,20 L0.5,19 C1.05228475,19 1.5,18.5522847 1.5,18 L1.5,11.5 Z M19.5,19 C20.1666667,19 20.1666667,20 19.5,20 C18.7597176,20 18.1133738,19.5978014 17.7675644,19 L19.5,19 Z M17.5,18 L17.5,11.5 C17.5,7.35786438 14.1421356,4 10,4 C5.85786438,4 2.5,7.35786438 2.5,11.5 L2.5,18 C2.5,18.3642871 2.40260571,18.7058266 2.23243561,19 L17.7675644,19 C17.5973943,18.7058266 17.5,18.3642871 17.5,18 Z M0.5,20 C-0.166666667,20 -0.166666667,19 0.5,19 L2.23243561,19 C1.88662619,19.5978014 1.24028236,20 0.5,20 Z" id="Shape"></path>
            <path d="M9.5,0.501 L9.5,3.501 C9.5,3.77714237 9.72385763,4.001 10,4.001 C10.2761424,4.001 10.5,3.77714237 10.5,3.501 L10.5,0.501 C10.5,0.224857625 10.2761424,0.001 10,0.001 C9.72385763,0.001 9.5,0.224857625 9.5,0.501 Z" id="Shape"></path>
            <path d="M11.96,21.4005013 C11.770723,22.3326308 10.9511526,23.0025063 10,23.0025063 C9.04884736,23.0025063 8.22927699,22.3326308 8.04,21.4005013 C7.98504836,21.1298817 7.72112078,20.9550484 7.45050126,21.01 C7.17988173,21.0649516 7.00504836,21.3288792 7.06,21.5994987 C7.34391548,22.9976931 8.57327103,24.0025063 10,24.0025063 C11.426729,24.0025063 12.6560845,22.9976931 12.94,21.5994987 C12.9949516,21.3288792 12.8201183,21.0649516 12.5494987,21.01 C12.2788792,20.9550484 12.0149516,21.1298817 11.96,21.4005013 Z" id="Shape"></path>
        </g>
    </g>
</svg>