<?xml version="1.0" encoding="UTF-8"?>
<svg width="20px" height="24px" viewBox="0 0 20 24" version="1.1" xmlns="http://www.w3.org/2000/svg" xmlns:xlink="http://www.w3.org/1999/xlink">
    <!-- Generator: Sketch 54.1 (76490) - https://sketchapp.com -->
    <title>alarm</title>
    <desc>Created with Sketch.</desc>
    <g id="alarm" stroke="none" stroke-width="1" fill="none" fill-rule="evenodd">
        <path d="M2.17105263,11.5 C2.17105263,7.2192038 5.67677437,3.75 10,3.75 C14.3232256,3.75 17.8289474,7.2192038 17.8289474,11.5 L17.8289474,17.59375 C17.8289474,18.2317399 18.3526629,18.75 19,18.75 L19,19.25 L1,19.25 L1,18.75 C1.64733711,18.75 2.17105263,18.2317399 2.17105263,17.59375 L2.17105263,11.5 Z M19,18.75 C19.3333333,18.75 19.3333333,19.25 19,19.25 C18.5311371,19.25 18.1071304,19.0585231 17.80354,18.75 L19,18.75 Z M17.3289474,17.59375 L17.3289474,11.5 C17.3289474,7.49652495 14.0482485,4.25 10,4.25 C5.95175153,4.25 2.67105263,7.49652495 2.67105263,11.5 L2.67105263,17.59375 C2.67105263,18.0437582 2.49007138,18.4516181 2.19646001,18.75 L17.80354,18.75 C17.5099286,18.4516181 17.3289474,18.0437582 17.3289474,17.59375 Z M1,19.25 C0.666666667,19.25 0.666666667,18.75 1,18.75 L2.19646001,18.75 C1.89286958,19.0585231 1.46886294,19.25 1,19.25 Z" id="Shape" fill="#D8D9DC" fill-rule="nonzero"></path>
        <path d="M9.75,1 L9.75,4 C9.75,4.13807119 9.86192881,4.25 10,4.25 C10.1380712,4.25 10.25,4.13807119 10.25,4 L10.25,1 C10.25,0.861928813 10.1380712,0.75 10,0.75 C9.86192881,0.75 9.75,0.861928813 9.75,1 Z" id="Path" fill="#D8D9DC" fill-rule="nonzero"></path>
        <path d="M11.7533737,20.9590675 C11.5789899,22.0097626 10.8387525,22.75 10,22.75 C9.16124746,22.75 8.42101005,22.0097626 8.24662629,20.9590675 C8.22401987,20.8228595 8.0952754,20.7307673 7.95906746,20.7533737 C7.82285952,20.7759801 7.73076729,20.9047246 7.75337371,21.0409325 C7.96526951,22.3176448 8.89762469,23.25 10,23.25 C11.1023753,23.25 12.0347305,22.3176448 12.2466263,21.0409325 C12.2692327,20.9047246 12.1771405,20.7759801 12.0409325,20.7533737 C11.9047246,20.7307673 11.7759801,20.8228595 11.7533737,20.9590675 Z" id="Path" fill="#D8D9DC" fill-rule="nonzero"></path>
    </g>
</svg>