<?xml version="1.0" encoding="UTF-8"?>
<svg width="16px" height="16px" viewBox="0 0 16 16" version="1.1" xmlns="http://www.w3.org/2000/svg" xmlns:xlink="http://www.w3.org/1999/xlink">
    <!-- Generator: sketchtool 54.1 (76490) - https://sketchapp.com -->
    <title>6a5dfbbc-6188-454b-9324-8876b18cff3a@1.00x</title>
    <desc>Created with sketchtool.</desc>
    <defs>
        <path d="M0,13 L16,13 L16,16 L0,16 L0,13 Z M1,14 L1,15 L15,15 L15,14 L1,14 Z M0,3 L8,0 L16,3 L16,5 L0,5 L0,3 Z M1,3.65939616 L1,4 L15,4 L15,3.65939616 L8,1.08796759 L1,3.65939616 Z M3,6 L4,6 L4,12 L3,12 L3,6 Z M6,6 L7,6 L7,12 L6,12 L6,6 Z M9,6 L10,6 L10,12 L9,12 L9,6 Z M12,6 L13,6 L13,12 L12,12 L12,6 Z" id="path-1"></path>
    </defs>
    <g id="Symbols" stroke="none" stroke-width="1" fill="none" fill-rule="evenodd">
        <g id="Icons-/-Billing-/-16-/-Bank-Wire">
            <mask id="mask-2" fill="white">
                <use xlink:href="#path-1"></use>
            </mask>
            <use id="Combined-Shape" fill="#000000" fill-rule="nonzero" xlink:href="#path-1"></use>
            <g id="Colors-/-Black" mask="url(#mask-2)" fill="#000000">
                <rect id="Rectangle" x="0" y="0" width="16" height="16"></rect>
            </g>
        </g>
    </g>
</svg>