<?xml version="1.0" encoding="UTF-8"?>
<svg width="16px" height="16px" viewBox="0 0 16 16" version="1.1" xmlns="http://www.w3.org/2000/svg" xmlns:xlink="http://www.w3.org/1999/xlink">
    <!-- Generator: sketchtool 54.1 (76490) - https://sketchapp.com -->
    <title>ad8f8595-f409-47a8-9b4a-65d56bc13822@1.00x</title>
    <desc>Created with sketchtool.</desc>
    <defs>
        <path d="M8,1.04127999 L8,0 L9,0 L9,1.07308142 C9.0717329,1.08258014 9.14359091,1.09365965 9.21553724,1.10634573 C11.9350088,1.58586193 13.7508513,4.17915386 13.2713351,6.89862538 L12.3162807,12.3150079 C12.2779177,12.5325754 12.5027703,12.8556663 12.7181232,12.8936389 L12.5444751,13.8784466 L1.71802133,11.9694507 L1.88753529,10.9839319 C2.11358893,11.0218385 2.4290209,10.80074 2.46820321,10.5785261 L3.42325759,5.16214361 C3.83042197,2.85299967 5.76161063,1.19536879 8,1.04127999 Z M11.331473,12.1413597 L12.2865274,6.7249772 C12.6701403,4.54939999 11.2174663,2.47476644 9.04188907,2.09115348 C6.86631185,1.70754052 4.7916783,3.16021457 4.40806534,5.33579178 L3.45301096,10.7521743 C3.42315279,10.9215084 3.3591813,11.0818835 3.26935083,11.2275654 L11.3427399,12.6511217 C11.3074683,12.4829009 11.3017202,12.310096 11.331473,12.1413597 Z M5.97330318,13.6131759 L6.95811093,13.7868241 C6.86220769,14.3307184 7.22537621,14.8493768 7.76927051,14.94528 C8.31316481,15.0411833 8.8318232,14.6780147 8.92772644,14.1341204 L9.91253419,14.3077686 C9.72072771,15.3955572 8.68341094,16.1218943 7.59562233,15.9300878 C6.50783372,15.7382813 5.7814967,14.7009645 5.97330318,13.6131759 Z M1.25126242,3.70047203 L2.09444809,4.23809451 C1.60461801,5.00632447 1.2681749,5.86668392 1.10634573,6.78446276 C0.944516558,7.70224159 0.966409405,8.62578534 1.16394899,9.51521711 L0.187735925,9.73203051 C-0.038180295,8.71483154 -0.0632181047,7.65861838 0.121537976,6.61081458 C0.306294057,5.56301078 0.691068079,4.5790585 1.25126242,3.70047203 Z M14.7487376,12.299528 L13.9055519,11.7619055 C14.395382,10.9936755 14.7318251,10.1333161 14.8936543,9.21553724 C15.0554834,8.29775841 15.0335906,7.37421466 14.836051,6.48478289 L15.8122641,6.26796949 C16.0381803,7.28516846 16.0632181,8.34138162 15.878462,9.38918542 C15.6937059,10.4369892 15.3089319,11.4209415 14.7487376,12.299528 Z" id="path-1"></path>
    </defs>
    <g id="Symbols" stroke="none" stroke-width="1" fill="none" fill-rule="evenodd">
        <g id="Icons-/-Contact-Interview-/-16-/-Calendar-Reminder">
            <mask id="mask-2" fill="white">
                <use xlink:href="#path-1"></use>
            </mask>
            <use id="Combined-Shape" fill="#000000" fill-rule="nonzero" xlink:href="#path-1"></use>
            <g id="Colors-/-Black" mask="url(#mask-2)" fill="#000000">
                <rect id="Rectangle" x="0" y="0" width="16" height="16"></rect>
            </g>
        </g>
    </g>
</svg>