<?xml version="1.0" encoding="UTF-8"?>
<svg width="24px" height="24px" viewBox="0 0 24 24" version="1.1" xmlns="http://www.w3.org/2000/svg" xmlns:xlink="http://www.w3.org/1999/xlink">
    <!-- Generator: Sketch 54.1 (76490) - https://sketchapp.com -->
    <title>cerificate</title>
    <desc>Created with Sketch.</desc>
    <g id="cerificate" stroke="none" stroke-width="1" fill="none" fill-rule="evenodd">
        <path d="M4.00896057,19.7867384 L11.3225806,19.7867384 C11.4759931,19.7867384 11.6003584,19.9111037 11.6003584,20.0645161 C11.6003584,20.2179286 11.4759931,20.3422939 11.3225806,20.3422939 L3.7311828,20.3422939 C3.57777037,20.3422939 3.45340502,20.2179286 3.45340502,20.0645161 L3.45340502,3.66666667 C3.45340502,3.51325424 3.57777037,3.38888889 3.7311828,3.38888889 L16.0268817,3.38888889 C16.1802942,3.38888889 16.3046595,3.51325424 16.3046595,3.66666667 L16.3046595,5.08602151 C16.3046595,5.23943394 16.1802942,5.36379928 16.0268817,5.36379928 C15.8734693,5.36379928 15.7491039,5.23943394 15.7491039,5.08602151 L15.7491039,3.94444444 L4.00896057,3.94444444 L4.00896057,19.7867384 Z" id="Shape" fill="#D8D9DC" fill-rule="nonzero"></path>
        <path d="M16.0322581,16.234767 C13.6132089,16.234767 11.6523297,14.2713179 11.6523297,11.8494624 C11.6523297,9.42760686 13.6132089,7.46415771 16.0322581,7.46415771 C18.4513072,7.46415771 20.4121864,9.42760686 20.4121864,11.8494624 C20.4121864,14.2713179 18.4513072,16.234767 16.0322581,16.234767 Z M16.0322581,15.6792115 C18.1443193,15.6792115 19.8566308,13.9646558 19.8566308,11.8494624 C19.8566308,9.73426895 18.1443193,8.01971326 16.0322581,8.01971326 C13.9201968,8.01971326 12.2078853,9.73426895 12.2078853,11.8494624 C12.2078853,13.9646558 13.9201968,15.6792115 16.0322581,15.6792115 Z" id="Oval" fill="#D8D9DC" fill-rule="nonzero"></path>
        <path d="M17.8028674,15.4086022 C17.8028674,15.2551897 17.9272327,15.1308244 18.0806452,15.1308244 C18.2340576,15.1308244 18.3584229,15.2551897 18.3584229,15.4086022 L18.3584229,20.0645161 C18.3584229,20.2736656 18.1360173,20.4077914 17.951032,20.3102007 L16.0320884,19.2978446 L14.1078421,20.3103407 C13.9228682,20.4076699 13.7007168,20.2735336 13.7007168,20.0645161 L13.7007168,15.4086022 C13.7007168,15.2551897 13.8250822,15.1308244 13.9784946,15.1308244 C14.1319071,15.1308244 14.2562724,15.2551897 14.2562724,15.4086022 L14.2562724,19.6044712 L15.9029106,18.7380464 C15.9839739,18.6953927 16.0808541,18.695445 16.1618712,18.7381864 L17.8028674,19.6039088 L17.8028674,15.4086022 Z" id="Shape" fill="#D8D9DC" fill-rule="nonzero"></path>
    </g>
</svg>