<?xml version="1.0" encoding="UTF-8"?>
<svg width="24px" height="24px" viewBox="0 0 24 24" version="1.1" xmlns="http://www.w3.org/2000/svg" xmlns:xlink="http://www.w3.org/1999/xlink">
    <!-- Generator: Sketch 54.1 (76490) - https://sketchapp.com -->
    <title>24x24/cerificate</title>
    <desc>Created with Sketch.</desc>
    <g id="24x24/cerificate" stroke="none" stroke-width="1" fill="none" fill-rule="evenodd">
        <g id="Group" transform="translate(4.000000, 3.000000)" fill="#FFFFFF" fill-rule="nonzero">
            <path d="M0.25,16.25 L0.25,0.25 L12.25,0.25 L12.25,2 C12.25,2.13807119 12.3619288,2.25 12.5,2.25 C12.6380712,2.25 12.75,2.13807119 12.75,2 L12.75,-0.25 L-0.25,-0.25 L-0.25,16.75 L8,16.75 C8.13807119,16.75 8.25,16.6380712 8.25,16.5 C8.25,16.3619288 8.13807119,16.25 8,16.25 L0.25,16.25 Z" id="Path-3"></path>
            <path d="M12.5,12.75 C14.8472102,12.75 16.75,10.8472102 16.75,8.5 C16.75,6.15278981 14.8472102,4.25 12.5,4.25 C10.1527898,4.25 8.25,6.15278981 8.25,8.5 C8.25,10.8472102 10.1527898,12.75 12.5,12.75 Z M12.5,12.25 C10.4289322,12.25 8.75,10.5710678 8.75,8.5 C8.75,6.42893219 10.4289322,4.75 12.5,4.75 C14.5710678,4.75 16.25,6.42893219 16.25,8.5 C16.25,10.5710678 14.5710678,12.25 12.5,12.25 Z" id="Oval"></path>
            <path d="M14.3785893,16.7185393 C14.5452221,16.8111131 14.75,16.6906211 14.75,16.5 L14.75,12 C14.75,11.8619288 14.6380712,11.75 14.5,11.75 C14.3619288,11.75 14.25,11.8619288 14.25,12 L14.25,16.0751214 L12.6214107,15.1703496 C12.5459051,15.128402 12.4540949,15.128402 12.3785893,15.1703496 L10.75,16.0751214 L10.75,12 C10.75,11.8619288 10.6380712,11.75 10.5,11.75 C10.3619288,11.75 10.25,11.8619288 10.25,12 L10.25,16.5 C10.25,16.6906211 10.4547779,16.8111131 10.6214107,16.7185393 L12.5,15.6748786 L14.3785893,16.7185393 Z" id="Path-4"></path>
        </g>
    </g>
</svg>