<?xml version="1.0" encoding="UTF-8"?>
<svg width="24px" height="24px" viewBox="0 0 24 24" version="1.1" xmlns="http://www.w3.org/2000/svg" xmlns:xlink="http://www.w3.org/1999/xlink">
    <!-- Generator: Sketch 54.1 (76490) - https://sketchapp.com -->
    <title>24x24/clock</title>
    <desc>Created with Sketch.</desc>
    <g id="24x24/clock" stroke="none" stroke-width="1" fill="none" fill-rule="evenodd">
        <g id="Group" transform="translate(3.000000, 3.000000)" fill="#FFFFFF" fill-rule="nonzero">
            <path d="M9,18.25 C14.1086339,18.25 18.25,14.1086339 18.25,9 C18.25,3.89136606 14.1086339,-0.25 9,-0.25 C3.89136606,-0.25 -0.25,3.89136606 -0.25,9 C-0.25,14.1086339 3.89136606,18.25 9,18.25 Z M9,17.75 C4.16750844,17.75 0.25,13.8324916 0.25,9 C0.25,4.16750844 4.16750844,0.25 9,0.25 C13.8324916,0.25 17.75,4.16750844 17.75,9 C17.75,13.8324916 13.8324916,17.75 9,17.75 Z" id="Oval"></path>
            <polygon id="Path-5" points="9.25 10.25 9.25 5.25 8.75 5.25 8.75 10.75 13.25 10.75 13.25 10.25"></polygon>
        </g>
    </g>
</svg>