<?xml version="1.0" encoding="UTF-8" standalone="no"?><!DOCTYPE svg PUBLIC "-//W3C//DTD SVG 1.1//EN" "http://www.w3.org/Graphics/SVG/1.1/DTD/svg11.dtd"><svg width="100%" height="100%" viewBox="0 0 16 16" version="1.1" xmlns="http://www.w3.org/2000/svg" xmlns:xlink="http://www.w3.org/1999/xlink" xml:space="preserve" xmlns:serif="http://www.serif.com/" style="fill-rule:evenodd;clip-rule:evenodd;stroke-linejoin:round;stroke-miterlimit:1.41421;"><g id="Group"><path id="Oval" d="M8,14.88c3.8,0 6.88,-3.08 6.88,-6.88c0,-3.8 -3.08,-6.88 -6.88,-6.88c-3.8,0 -6.88,3.08 -6.88,6.88c0,3.8 3.08,6.88 6.88,6.88Zm0,-0.8c-3.358,0 -6.08,-2.722 -6.08,-6.08c0,-3.358 2.722,-6.08 6.08,-6.08c3.358,0 6.08,2.722 6.08,6.08c0,3.358 -2.722,6.08 -6.08,6.08Z" style="fill-rule:nonzero;"/><path id="Oval1" serif:id="Oval" d="M8,10.32c1.281,0 2.32,-1.039 2.32,-2.32c0,-1.281 -1.039,-2.32 -2.32,-2.32c-1.281,0 -2.32,1.039 -2.32,2.32c0,1.281 1.039,2.32 2.32,2.32Zm0,-0.8c-0.839,0 -1.52,-0.681 -1.52,-1.52c0,-0.839 0.681,-1.52 1.52,-1.52c0.839,0 1.52,0.681 1.52,1.52c0,0.839 -0.681,1.52 -1.52,1.52Z" style="fill-rule:nonzero;"/><path id="Shape" d="M7.6,0l0.8,0l0,1.52l-0.8,0l0,-1.52Zm0,14.48l0.8,0l0,1.52l-0.8,0l0,-1.52Zm8.4,-6.88l0,0.8l-1.52,0l0,-0.8l1.52,0Zm-14.48,0l0,0.8l-1.52,0l0,-0.8l1.52,0Z" style="fill-rule:nonzero;"/></g></svg>
