<?xml version="1.0" encoding="UTF-8"?>
<svg width="24px" height="24px" viewBox="0 0 24 24" version="1.1" xmlns="http://www.w3.org/2000/svg" xmlns:xlink="http://www.w3.org/1999/xlink">
    <!-- Generator: sketchtool 54.1 (76490) - https://sketchapp.com -->
    <title>7e6a52eb-1998-493a-994b-06623b613e5c@1.00x</title>
    <desc>Created with sketchtool.</desc>
    <defs>
        <path d="M12,24 C5.385,24 0,18.615 0,12 C0,5.385 5.385,0 12,0 C18.615,0 24,5.385 24,12 C24,18.615 18.615,24 12,24 Z M22.12,13.642 C21.77,13.532 18.95,12.689 15.736,13.204 C17.076,16.888 17.623,19.888 17.728,20.512 C20.028,18.957 21.664,16.492 22.123,13.642 L22.12,13.642 Z M16.005,21.45 C15.852,20.55 15.255,17.418 13.815,13.68 L13.749,13.7 C7.959,15.715 5.889,19.725 5.709,20.1 C7.439,21.458 9.629,22.266 11.999,22.266 C13.419,22.266 14.769,21.976 15.999,21.452 L16.005,21.45 Z M4.385,18.87 C4.617,18.47 7.43,13.815 12.717,12.105 C12.852,12.06 12.987,12.021 13.122,11.985 C12.862,11.4 12.582,10.818 12.29,10.245 C7.17,11.775 2.206,11.71 1.756,11.7 L1.752,12.012 C1.752,14.645 2.75,17.049 4.386,18.867 L4.385,18.87 Z M1.965,9.915 C2.425,9.923 6.648,9.941 11.442,8.667 C9.744,5.649 7.912,3.109 7.642,2.739 C4.774,4.089 2.632,6.729 1.966,9.909 L1.965,9.915 Z M9.6,2.052 C9.882,2.432 11.745,4.966 13.422,8.052 C17.067,6.687 18.612,4.612 18.795,4.35 C16.985,2.74 14.605,1.764 12,1.764 C11.175,1.764 10.37,1.864 9.6,2.049 L9.6,2.052 Z M19.935,5.535 C19.717,5.825 18,8.028 14.211,9.575 C14.451,10.065 14.681,10.56 14.891,11.061 C14.971,11.241 15.041,11.421 15.111,11.591 C18.521,11.161 21.911,11.851 22.251,11.921 C22.231,9.501 21.371,7.281 19.941,5.541 L19.935,5.535 Z" id="path-1"></path>
    </defs>
    <g id="Symbols" stroke="none" stroke-width="1" fill="none" fill-rule="evenodd">
        <g id="Icons-/-Social-Media-/-24-/-Dribbble">
            <mask id="mask-2" fill="white">
                <use xlink:href="#path-1"></use>
            </mask>
            <use id="Shape" fill="#000000" fill-rule="nonzero" xlink:href="#path-1"></use>
            <g id="Colors-/-Black" mask="url(#mask-2)" fill="#000000">
                <rect id="Rectangle" x="0" y="0" width="24" height="24"></rect>
            </g>
        </g>
    </g>
</svg>