<svg xmlns="http://www.w3.org/2000/svg" width="16" height="16" viewBox="0 0 16 16">
  <g fill="#455065" transform="translate(5 2)">
    <path d="M3.42874646,0.714577438 L5.54565127,4.24275212 C5.68772535,4.47954226 5.61094282,4.78667238 5.37415269,4.92874646 C5.29644499,4.97537108 5.20752678,5 5.11690481,5 L0.883095189,5 C0.606952815,5 0.383095189,4.77614237 0.383095189,4.5 C0.383095189,4.40937803 0.407724106,4.32045982 0.454348727,4.24275212 L2.57125354,0.714577438 C2.71332762,0.477787305 3.02045774,0.401004773 3.25724788,0.543078853 C3.32762268,0.585303734 3.38652158,0.644202636 3.42874646,0.714577438 Z"/>
    <path d="M3.42874646,7.24282769 L5.54565127,10.7710023 C5.68772535,11.0077925 5.61094282,11.3149226 5.37415269,11.4569967 C5.29644499,11.5036213 5.20752678,11.5282502 5.11690481,11.5282502 L0.883095189,11.5282502 C0.606952815,11.5282502 0.383095189,11.3043926 0.383095189,11.0282502 C0.383095189,10.9376282 0.407724106,10.84871 0.454348727,10.7710023 L2.57125354,7.24282769 C2.71332762,7.00603756 3.02045774,6.92925502 3.25724788,7.0713291 C3.32762268,7.11355398 3.38652158,7.17245289 3.42874646,7.24282769 Z" transform="matrix(1 0 0 -1 0 18.528)"/>
  </g>
</svg>
