<?xml version="1.0" encoding="UTF-8"?>
<svg width="24px" height="24px" viewBox="0 0 24 24" version="1.1" xmlns="http://www.w3.org/2000/svg" xmlns:xlink="http://www.w3.org/1999/xlink">
    <!-- Generator: Sketch 54.1 (76490) - https://sketchapp.com -->
    <title>education</title>
    <desc>Created with Sketch.</desc>
    <g id="education" stroke="none" stroke-width="1" fill="none" fill-rule="evenodd">
        <path d="M12.0163999,12.7002549 L20.8945001,7.72478723 L12.0163996,2.74154521 L3.10720281,7.72478705 L12.0163999,12.7002549 Z M11.8642972,13.3311699 L2.3142972,7.99783657 C2.10087111,7.87864574 2.10076903,7.57159751 2.31411582,7.4522648 L11.8641158,2.11059813 C11.9590509,2.05749742 12.0747682,2.05758369 12.169624,2.11082589 L21.6862907,7.45249256 C21.8990955,7.57193905 21.8989934,7.87830456 21.6861091,7.99760927 L12.1694424,13.3309426 C12.0746803,13.3840492 11.9591383,13.3841353 11.8642972,13.3311699 Z" id="Shape" fill="#D8D9DC" fill-rule="nonzero"></path>
        <path d="M20.3875,15.3333333 C20.3875,15.5059223 20.2196068,15.6458333 20.0125,15.6458333 C19.8053932,15.6458333 19.6375,15.5059223 19.6375,15.3333333 L19.6375,12.075 C19.6375,11.902411 19.8053932,11.7625 20.0125,11.7625 C20.2196068,11.7625 20.3875,11.902411 20.3875,12.075 L20.3875,15.3333333 Z" id="Shape" fill="#D8D9DC" fill-rule="nonzero"></path>
        <path d="M4.32916667,15.1491409 L12.1763526,19.4932647 C12.3273483,19.5768544 12.3819917,19.7670235 12.298402,19.9180193 C12.2148122,20.069015 12.0246431,20.1236584 11.8736474,20.0400686 L3.86531406,15.6067353 C3.76587628,15.5516875 3.70416667,15.4469913 3.70416667,15.3333333 L3.70416667,12.075 C3.70416667,11.902411 3.84407768,11.7625 4.01666667,11.7625 C4.18925565,11.7625 4.32916667,11.902411 4.32916667,12.075 L4.32916667,15.1491409 Z" id="Shape" fill="#D8D9DC" fill-rule="nonzero"></path>
        <path d="M11.8616734,7.90468795 C11.7118084,7.81908752 11.6597116,7.62820506 11.745312,7.47834004 C11.8309125,7.32847502 12.0217949,7.27637828 12.17166,7.36197871 L17.0299933,10.1369787 C17.1273887,10.1926094 17.1875,10.2961699 17.1875,10.4083333 L17.1875,18.325 C17.1875,18.497589 17.047589,18.6375 16.875,18.6375 C16.702411,18.6375 16.5625,18.497589 16.5625,18.325 L16.5625,10.5897227 L11.8616734,7.90468795 Z" id="Shape" fill="#D8D9DC" fill-rule="nonzero"></path>
        <path d="M16.5964856,18.183275 C16.7123532,17.955575 17.0376468,17.955575 17.1535144,18.183275 L18.8285144,21.4749416 C18.9343081,21.6828447 18.7832723,21.9291667 18.55,21.9291667 L15.2,21.9291667 C14.9667277,21.9291667 14.8156919,21.6828447 14.9214856,21.4749416 L16.5964856,18.183275 Z M15.7096517,21.3041667 L18.0403483,21.3041667 L16.875,19.0140543 L15.7096517,21.3041667 Z" id="Shape" fill="#D8D9DC" fill-rule="nonzero"></path>
    </g>
</svg>