<?xml version="1.0" encoding="UTF-8"?>
<svg width="24px" height="24px" viewBox="0 0 24 24" version="1.1" xmlns="http://www.w3.org/2000/svg" xmlns:xlink="http://www.w3.org/1999/xlink">
    <!-- Generator: Sketch 54.1 (76490) - https://sketchapp.com -->
    <title>24x24/education</title>
    <desc>Created with Sketch.</desc>
    <g id="24x24/education" stroke="none" stroke-width="1" fill="none" fill-rule="evenodd">
        <g id="Group" transform="translate(2.000000, 2.000000)" fill="#FFFFFF" fill-rule="nonzero">
            <path d="M10.1388873,11.2764207 C10.0630776,11.318906 9.97064399,11.3189749 9.89477109,11.2766026 L0.344771094,5.94326926 C0.174030224,5.84791659 0.173948561,5.60227801 0.344625993,5.50681184 L9.89462599,0.165145171 C9.97057409,0.122664604 10.0631479,0.122733619 10.1390325,0.16532738 L19.6556992,5.50699405 C19.825943,5.60255124 19.8258614,5.84764365 19.655554,5.94308741 L10.1388873,11.2764207 Z M19.0222667,5.72482978 L10.016453,0.669902836 L0.979095583,5.72482964 L10.0164533,10.7718706 L19.0222667,5.72482978 Z" id="Shape"></path>
            <path d="M18.2,13.3333333 L18.2,10.075 C18.2,9.93692881 18.0880712,9.825 17.95,9.825 C17.8119288,9.825 17.7,9.93692881 17.7,10.075 L17.7,13.3333333 C17.7,13.4714045 17.8119288,13.5833333 17.95,13.5833333 C18.0880712,13.5833333 18.2,13.4714045 18.2,13.3333333 Z" id="Shape"></path>
            <path d="M2.26666667,10.075 C2.26666667,9.93692881 2.15473785,9.825 2.01666667,9.825 C1.87859548,9.825 1.76666667,9.93692881 1.76666667,10.075 L1.76666667,13.3333333 C1.76666667,13.4242597 1.81603436,13.5080167 1.89558458,13.5520549 L9.90391792,17.9853882 C10.0247145,18.05226 10.1768498,18.0085453 10.2437216,17.8877487 C10.3105934,17.7669522 10.2668787,17.6148169 10.1460821,17.5479451 L2.26666667,13.1859794 L2.26666667,10.075 Z" id="Shape"></path>
            <path d="M14.625,16.325 C14.625,16.4630712 14.7369288,16.575 14.875,16.575 C15.0130712,16.575 15.125,16.4630712 15.125,16.325 L15.125,8.40833333 C15.125,8.31860261 15.0769109,8.23575415 14.9989946,8.19124964 L10.1406613,5.41624964 C10.0207693,5.34776929 9.86806332,5.38944669 9.79958297,5.5093387 C9.73110263,5.62923072 9.77278002,5.78193668 9.89267203,5.85041703 L14.625,8.55344484 L14.625,16.325 Z" id="Shape"></path>
            <path d="M14.6521885,16.21162 L12.9771885,19.5032866 C12.8925535,19.6696091 13.0133821,19.8666667 13.2,19.8666667 L16.55,19.8666667 C16.7366179,19.8666667 16.8574465,19.6696091 16.7728115,19.5032866 L15.0978115,16.21162 C15.0051175,16.02946 14.7448825,16.02946 14.6521885,16.21162 Z M16.1422787,19.3666667 L13.6077213,19.3666667 L14.875,16.8762434 L16.1422787,19.3666667 Z" id="Shape"></path>
        </g>
    </g>
</svg>