<?xml version="1.0" encoding="UTF-8"?>
<svg width="24px" height="24px" viewBox="0 0 24 24" version="1.1" xmlns="http://www.w3.org/2000/svg" xmlns:xlink="http://www.w3.org/1999/xlink">
    <!-- Generator: Sketch 54.1 (76490) - https://sketchapp.com -->
    <title>exclamation</title>
    <desc>Created with Sketch.</desc>
    <g id="exclamation" stroke="none" stroke-width="1" fill="none" fill-rule="evenodd">
        <path d="M12.2502056,14 L12.2502056,7 C12.2502056,6.44771525 11.8024904,6 11.2502056,6 C10.6979209,6 10.2502056,6.44771525 10.2502056,7 L10.2502056,14 C10.2502056,14.5522847 10.6979209,15 11.2502056,15 C11.8024904,15 12.2502056,14.5522847 12.2502056,14 Z" id="Path" fill="#D8D9DC" fill-rule="nonzero"></path>
        <path d="M11.2455681,16.0000056 C11.2422065,15.9999922 11.238841,15.9999955 11.2354718,16.0000155 C10.6876587,16.0052813 10.2452056,16.4509704 10.2452056,16.9999975 C10.2452056,17.5522847 10.6929209,18 11.2452056,17.9999975 L11.2502056,18 C10.8219549,17.9855787 10.5068836,17.6692161 10.4946864,17.2760046 C10.4874451,17.0797023 10.561488,16.8831076 10.7003829,16.7361441 C10.8392779,16.5891806 11.0313831,16.5041663 11.233557,16.5001931 C11.6572744,16.5013317 11.9853798,16.8190622 11.9995778,17.2195724 C12.0077008,17.417464 11.9335438,17.6156105 11.7937161,17.7635609 C11.6538884,17.9115113 11.4602404,17.9967271 11.2566939,17.99988 C11.8089124,17.9913261 12.2496396,17.5367302 12.2410857,16.9845117 C12.2327547,16.4466877 11.8013323,16.0146183 11.2686956,16.0003609 L11.2455681,16.0000056 Z M11.235451,16.0000466 C11.2322238,16.0000347 11.2289722,16.0000695 11.2257173,16.00012 C10.8900678,16.0053192 10.5707409,16.1458405 10.3401641,16.3898118 C10.1095874,16.633783 9.98730195,16.9605279 10.0010438,17.2959363 C10.0246997,17.9636713 10.5762335,18.4977652 11.2498963,18.4999945 C11.6069506,18.4932411 11.9244083,18.3527533 12.1539349,18.1098932 C12.3834615,17.8670331 12.505819,17.5421564 12.493529,17.2082216 C12.4732655,16.5544318 11.9447724,16.0237727 11.285298,16.0006159 L11.2686956,16.0003609 C11.2610072,16.0001551 11.2532977,16.0000363 11.2455681,16.0000056 C11.2419504,16 11.2386988,16.0000156 11.235451,16.0000466 Z" id="Shape" fill="#D8D9DC" fill-rule="nonzero"></path>
    </g>
</svg>