<?xml version="1.0" encoding="UTF-8"?>
<svg width="16px" height="16px" viewBox="0 0 16 16" version="1.1" xmlns="http://www.w3.org/2000/svg" xmlns:xlink="http://www.w3.org/1999/xlink">
    <!-- Generator: Sketch 54.1 (76490) - https://sketchapp.com -->
    <title>16x16/exclamation</title>
    <desc>Created with Sketch.</desc>
    <g id="16x16/exclamation" stroke="none" stroke-width="1" fill="none" fill-rule="evenodd">
        <g id="Group" fill="#FFFFFF" fill-rule="nonzero">
            <path d="M7.29411765,4 L7.29411765,9.17647059 C7.29411765,9.696268 7.71549671,10.1176471 8.23529412,10.1176471 C8.75509153,10.1176471 9.17647059,9.696268 9.17647059,9.17647059 L9.17647059,4 C9.17647059,3.48020259 8.75509153,3.05882353 8.23529412,3.05882353 C7.71549671,3.05882353 7.29411765,3.48020259 7.29411765,4 Z" id="Path-7"></path>
            <path d="M8.23529412,12.9411765 C8.75509153,12.9411765 9.17647059,12.5197974 9.17647059,12 C9.17647059,11.4802026 8.75509153,11.0588235 8.23529412,11.0588235 C7.71549671,11.0588235 7.29411765,11.4802026 7.29411765,12 C7.29411765,12.5197974 7.71549671,12.9411765 8.23529412,12.9411765 Z" id="Oval"></path>
            <path d="M7.76470588,15.5294118 C12.0530345,15.5294118 15.5294118,12.0530345 15.5294118,7.76470588 C15.5294118,3.47637724 12.0530345,0 7.76470588,0 C3.47637724,0 0,3.47637724 0,7.76470588 C0,12.0530345 3.47637724,15.5294118 7.76470588,15.5294118 Z M7.76470588,15.0588235 C3.73627594,15.0588235 0.470588235,11.7931358 0.470588235,7.76470588 C0.470588235,3.73627594 3.73627594,0.470588235 7.76470588,0.470588235 C11.7931358,0.470588235 15.0588235,3.73627594 15.0588235,7.76470588 C15.0588235,11.7931358 11.7931358,15.0588235 7.76470588,15.0588235 Z" id="Oval"></path>
        </g>
    </g>
</svg>