<?xml version="1.0" encoding="UTF-8"?>
<svg width="24px" height="24px" viewBox="0 0 24 24" version="1.1" xmlns="http://www.w3.org/2000/svg" xmlns:xlink="http://www.w3.org/1999/xlink">
    <!-- Generator: Sketch 54.1 (76490) - https://sketchapp.com -->
    <title>work-experience</title>
    <desc>Created with Sketch.</desc>
    <g id="work-experience" stroke="none" stroke-width="1" fill="none" fill-rule="evenodd">
        <path d="M9.20833333,23.0375 C9.03574435,23.0375 8.89583333,22.8696068 8.89583333,22.6625 C8.89583333,22.4553932 9.03574435,22.2875 9.20833333,22.2875 L22.625,22.2875 C22.797589,22.2875 22.9375,22.4553932 22.9375,22.6625 C22.9375,22.8696068 22.797589,23.0375 22.625,23.0375 L9.20833333,23.0375 Z" id="Shape" fill="#D8D9DC" fill-rule="nonzero"></path>
        <path d="M9.52083333,19.4041667 L22.3125,19.4041667 L22.3125,13.2875 L9.52083333,13.2875 L9.52083333,19.4041667 Z M9.20833333,12.6625 L22.625,12.6625 C22.797589,12.6625 22.9375,12.802411 22.9375,12.975 L22.9375,19.7166667 C22.9375,19.8892557 22.797589,20.0291667 22.625,20.0291667 L9.20833333,20.0291667 C9.03574435,20.0291667 8.89583333,19.8892557 8.89583333,19.7166667 L8.89583333,12.975 C8.89583333,12.802411 9.03574435,12.6625 9.20833333,12.6625 Z" id="Rectangle-path" fill="#D8D9DC" fill-rule="nonzero"></path>
        <path d="M18.0583333,10.1625 C18.2309223,10.1625 18.3708333,10.3303932 18.3708333,10.5375 C18.3708333,10.7446068 18.2309223,10.9125 18.0583333,10.9125 L13.775,10.9125 C13.602411,10.9125 13.4625,10.7446068 13.4625,10.5375 C13.4625,10.3303932 13.602411,10.1625 13.775,10.1625 L18.0583333,10.1625 Z" id="Shape" fill="#D8D9DC" fill-rule="nonzero"></path>
        <path d="M11,5.0375 C10.827411,5.0375 10.6875,4.89758898 10.6875,4.725 C10.6875,4.55241102 10.827411,4.4125 11,4.4125 L16.4583333,4.4125 C16.6309223,4.4125 16.7708333,4.55241102 16.7708333,4.725 L16.7708333,7.975 C16.7708333,8.14758898 16.6309223,8.2875 16.4583333,8.2875 C16.2857443,8.2875 16.1458333,8.14758898 16.1458333,7.975 L16.1458333,5.0375 L11,5.0375 Z" id="Shape" fill="#D8D9DC" fill-rule="nonzero"></path>
        <path d="M3.35416667,14.0458333 L6.70833333,14.0458333 C6.88092232,14.0458333 7.02083333,14.1857443 7.02083333,14.3583333 C7.02083333,14.5309223 6.88092232,14.6708333 6.70833333,14.6708333 L3.04166667,14.6708333 C2.86907768,14.6708333 2.72916667,14.5309223 2.72916667,14.3583333 L2.72916667,4.725 C2.72916667,4.55241102 2.86907768,4.4125 3.04166667,4.4125 L8.5,4.4125 C8.67258898,4.4125 8.8125,4.55241102 8.8125,4.725 C8.8125,4.89758898 8.67258898,5.0375 8.5,5.0375 L3.35416667,5.0375 L3.35416667,14.0458333 Z" id="Shape" fill="#D8D9DC" fill-rule="nonzero"></path>
        <path d="M8.8125,3.37083333 L8.8125,6.07916667 L10.6875,6.07916667 L10.6875,3.37083333 L8.8125,3.37083333 Z M8.5,2.74583333 L11,2.74583333 C11.172589,2.74583333 11.3125,2.88574435 11.3125,3.05833333 L11.3125,6.39166667 C11.3125,6.56425565 11.172589,6.70416667 11,6.70416667 L8.5,6.70416667 C8.32741102,6.70416667 8.1875,6.56425565 8.1875,6.39166667 L8.1875,3.05833333 C8.1875,2.88574435 8.32741102,2.74583333 8.5,2.74583333 Z" id="Rectangle-path" fill="#D8D9DC" fill-rule="nonzero"></path>
    </g>
</svg>