<?xml version="1.0" encoding="UTF-8"?>
<svg width="24px" height="24px" viewBox="0 0 24 24" version="1.1" xmlns="http://www.w3.org/2000/svg" xmlns:xlink="http://www.w3.org/1999/xlink">
    <!-- Generator: Sketch 54.1 (76490) - https://sketchapp.com -->
    <title>24x24/work-experience</title>
    <desc>Created with Sketch.</desc>
    <g id="24x24/work-experience" stroke="none" stroke-width="1" fill="none" fill-rule="evenodd">
        <g id="Group" transform="translate(3.000000, 2.000000)" fill="#FFFFFF" fill-rule="nonzero">
            <path d="M6.05625,19.226 L18.8020833,19.226 C18.9401545,19.226 19.0520833,19.1140712 19.0520833,18.976 C19.0520833,18.8379288 18.9401545,18.726 18.8020833,18.726 L6.05625,18.726 C5.91817881,18.726 5.80625,18.8379288 5.80625,18.976 C5.80625,19.1140712 5.91817881,19.226 6.05625,19.226 Z" id="Shape"></path>
            <path d="M5.80625,9.736 C5.80625,9.59792881 5.91817881,9.486 6.05625,9.486 L18.8020833,9.486 C18.9401545,9.486 19.0520833,9.59792881 19.0520833,9.736 L19.0520833,16.208 C19.0520833,16.3460712 18.9401545,16.458 18.8020833,16.458 L6.05625,16.458 C5.91817881,16.458 5.80625,16.3460712 5.80625,16.208 L5.80625,9.736 Z M6.30625,9.986 L6.30625,15.958 L18.5520833,15.958 L18.5520833,9.986 L6.30625,9.986 Z" id="Rectangle-path"></path>
            <path d="M14.46375,7.086 L10.3945833,7.086 C10.2565121,7.086 10.1445833,7.19792881 10.1445833,7.336 C10.1445833,7.47407119 10.2565121,7.586 10.3945833,7.586 L14.46375,7.586 C14.6018212,7.586 14.71375,7.47407119 14.71375,7.336 C14.71375,7.19792881 14.6018212,7.086 14.46375,7.086 Z" id="Shape"></path>
            <path d="M12.69375,2.066 L12.69375,4.936 C12.69375,5.07407119 12.8056788,5.186 12.94375,5.186 C13.0818212,5.186 13.19375,5.07407119 13.19375,4.936 L13.19375,1.816 C13.19375,1.67792881 13.0818212,1.566 12.94375,1.566 L7.75833333,1.566 C7.62026215,1.566 7.50833333,1.67792881 7.50833333,1.816 C7.50833333,1.95407119 7.62026215,2.066 7.75833333,2.066 L12.69375,2.066 Z" id="Shape"></path>
            <path d="M0.447916667,10.814 L0.447916667,2.066 L5.38333333,2.066 C5.52140452,2.066 5.63333333,1.95407119 5.63333333,1.816 C5.63333333,1.67792881 5.52140452,1.566 5.38333333,1.566 L0.197916667,1.566 C0.0598454792,1.566 -0.0520833333,1.67792881 -0.0520833333,1.816 L-0.0520833333,11.064 C-0.0520833333,11.2020712 0.0598454792,11.314 0.197916667,11.314 L3.68125,11.314 C3.81932119,11.314 3.93125,11.2020712 3.93125,11.064 C3.93125,10.9259288 3.81932119,10.814 3.68125,10.814 L0.447916667,10.814 Z" id="Shape"></path>
            <path d="M5.13333333,0.216 C5.13333333,0.0779288125 5.24526215,-0.034 5.38333333,-0.034 L7.75833333,-0.034 C7.89640452,-0.034 8.00833333,0.0779288125 8.00833333,0.216 L8.00833333,3.416 C8.00833333,3.55407119 7.89640452,3.666 7.75833333,3.666 L5.38333333,3.666 C5.24526215,3.666 5.13333333,3.55407119 5.13333333,3.416 L5.13333333,0.216 Z M5.63333333,3.166 L7.50833333,3.166 L7.50833333,0.466 L5.63333333,0.466 L5.63333333,3.166 Z" id="Rectangle-path"></path>
        </g>
    </g>
</svg>