<?xml version="1.0" encoding="UTF-8"?>
<svg width="24px" height="24px" viewBox="0 0 24 24" version="1.1" xmlns="http://www.w3.org/2000/svg" xmlns:xlink="http://www.w3.org/1999/xlink">
    <!-- Generator: sketchtool 54.1 (76490) - https://sketchapp.com -->
    <title>a3ad9f86-ee29-433a-b7eb-1a0e7f4488c3@1.00x</title>
    <desc>Created with sketchtool.</desc>
    <defs>
        <path d="M17,6 L17,8 L16,8 L16,3 L17,3 L17,5 L24,5 L24,6 L17,6 Z M0,5 L14,5 L14,6 L0,6 L0,5 Z M13,18 L13,20 L12,20 L12,15 L13,15 L13,17 L24,17 L24,18 L13,18 Z M0,17 L10,17 L10,18 L0,18 L0,17 Z M7,12 L0,12 L0,11 L7,11 L7,9 L8,9 L8,14 L7,14 L7,12 Z M24,11 L24,12 L10,12 L10,11 L24,11 Z" id="path-1"></path>
    </defs>
    <g id="Symbols" stroke="none" stroke-width="1" fill="none" fill-rule="evenodd">
        <g id="Icons-/-General-/-24-/-Filter">
            <mask id="mask-2" fill="white">
                <use xlink:href="#path-1"></use>
            </mask>
            <use id="Shape" fill="#000000" xlink:href="#path-1"></use>
            <g id="Colors-/-Black" mask="url(#mask-2)" fill="#000000">
                <rect id="Rectangle" x="0" y="0" width="24" height="24"></rect>
            </g>
        </g>
    </g>
</svg>