<?xml version="1.0" encoding="UTF-8"?>
<svg width="16px" height="16px" viewBox="0 0 16 16" version="1.1" xmlns="http://www.w3.org/2000/svg" xmlns:xlink="http://www.w3.org/1999/xlink">
    <!-- Generator: sketchtool 54.1 (76490) - https://sketchapp.com -->
    <title>064782e2-3ee7-4187-8954-d8a045a8ea09@1.00x</title>
    <desc>Created with sketchtool.</desc>
    <defs>
        <path d="M12,3 L12,4 L11,4 L11,1 L12,1 L12,2 L16,2 L16,3 L12,3 Z M0,2 L9,2 L9,3 L0,3 L0,2 Z M9,13 L9,14 L8,14 L8,11 L9,11 L9,12 L16,12 L16,13 L9,13 Z M0,12 L6,12 L6,13 L0,13 L0,12 Z M4,8 L0,8 L0,7 L4,7 L4,6 L5,6 L5,9 L4,9 L4,8 Z M16,7 L16,8 L7,8 L7,7 L16,7 Z" id="path-1"></path>
    </defs>
    <g id="Symbols" stroke="none" stroke-width="1" fill="none" fill-rule="evenodd">
        <g id="Icons-/-General-/-16-/-Filter">
            <mask id="mask-2" fill="white">
                <use xlink:href="#path-1"></use>
            </mask>
            <use id="Shape" fill="#000000" xlink:href="#path-1"></use>
            <g id="Colors-/-Black" mask="url(#mask-2)" fill="#000000">
                <rect id="Rectangle" x="0" y="0" width="16" height="16"></rect>
            </g>
        </g>
    </g>
</svg>