<?xml version="1.0" encoding="UTF-8"?>
<svg width="24px" height="24px" viewBox="0 0 24 24" version="1.1" xmlns="http://www.w3.org/2000/svg" xmlns:xlink="http://www.w3.org/1999/xlink">
    <!-- Generator: sketchtool 54.1 (76490) - https://sketchapp.com -->
    <title>311f4c42-6c05-4f5a-ab29-859a3546ea79@1.00x</title>
    <desc>Created with sketchtool.</desc>
    <defs>
        <path d="M2.01293206,12 C2.2356047,16.2942915 5.30994704,19.8341909 9.37848835,20.7622276 C8.02208014,19.0671774 7.08130728,15.7973352 7.00501219,12 L2.01293206,12 Z M2.01293206,11 L7.00501219,11 C7.08130728,7.20266477 8.02208014,3.93282258 9.37848835,2.23777241 C5.30994704,3.16580911 2.2356047,6.70570855 2.01293206,11 Z M20.9870679,11 C20.7643953,6.70570855 17.690053,3.16580911 13.6215116,2.23777241 C14.9779199,3.93282258 15.9186927,7.20266477 15.9949878,11 L20.9870679,11 Z M20.9870679,12 L15.9949878,12 C15.9186927,15.7973352 14.9779199,19.0671774 13.6215116,20.7622276 C17.690053,19.8341909 20.7643953,16.2942915 20.9870679,12 Z M8.00543798,12 C8.11654395,17.1002697 9.9097531,21 11.5,21 C13.0902469,21 14.883456,17.1002697 14.994562,12 L8.00543798,12 Z M8.00543798,11 L14.994562,11 C14.883456,5.89973032 13.0902469,2 11.5,2 C9.9097531,2 8.11654395,5.89973032 8.00543798,11 Z M11.5,22 C5.70101013,22 1,17.2989899 1,11.5 C1,5.70101013 5.70101013,1 11.5,1 C17.2989899,1 22,5.70101013 22,11.5 C22,17.2989899 17.2989899,22 11.5,22 Z" id="path-1"></path>
    </defs>
    <g id="Symbols" stroke="none" stroke-width="1" fill="none" fill-rule="evenodd">
        <g id="Icons-/-General-/-24-/-Globe">
            <mask id="mask-2" fill="white">
                <use xlink:href="#path-1"></use>
            </mask>
            <use id="Combined-Shape" fill="#000000" fill-rule="nonzero" xlink:href="#path-1"></use>
            <g id="Colors-/-Black" mask="url(#mask-2)" fill="#000000">
                <rect id="Rectangle" x="0" y="0" width="24" height="24"></rect>
            </g>
        </g>
    </g>
</svg>