<?xml version="1.0" encoding="UTF-8"?>
<svg width="16px" height="16px" viewBox="0 0 16 16" version="1.1" xmlns="http://www.w3.org/2000/svg" xmlns:xlink="http://www.w3.org/1999/xlink">
    <!-- Generator: Sketch 54.1 (76490) - https://sketchapp.com -->
    <title>16x16/globe</title>
    <desc>Created with Sketch.</desc>
    <g id="16x16/globe" stroke="none" stroke-width="1" fill="none" fill-rule="evenodd">
        <g id="Group" fill="#FFFFFF" fill-rule="nonzero">
            <path d="M7.98,16 C12.3546792,16 15.9,12.4177007 15.9,8 C15.9,3.58229935 12.3546792,0 7.98,0 C3.60532077,0 0.06,3.58229935 0.06,8 C0.06,12.4177007 3.60532077,16 7.98,16 Z M7.98,15.5 C3.88263116,15.5 0.56,12.142713 0.56,8 C0.56,3.85728703 3.88263116,0.5 7.98,0.5 C12.0773688,0.5 15.4,3.85728703 15.4,8 C15.4,12.142713 12.0773688,15.5 7.98,15.5 Z" id="Oval"></path>
            <path d="M7.98,16 C10.2812606,16 12.06,12.4007231 12.06,8 C12.06,3.59927687 10.2812606,0 7.98,0 C5.67873941,0 3.9,3.59927687 3.9,8 C3.9,12.4007231 5.67873941,16 7.98,16 Z M7.98,15.5 C6.05075941,15.5 4.4,12.1596905 4.4,8 C4.4,3.84030951 6.05075941,0.5 7.98,0.5 C9.90924059,0.5 11.56,3.84030951 11.56,8 C11.56,12.1596905 9.90924059,15.5 7.98,15.5 Z" id="Oval"></path>
            <path d="M0.32,8.25 L15.65,8.25 C15.7880712,8.25 15.9,8.13807119 15.9,8 C15.9,7.86192881 15.7880712,7.75 15.65,7.75 L0.32,7.75 C0.181928813,7.75 0.07,7.86192881 0.07,8 C0.07,8.13807119 0.181928813,8.25 0.32,8.25 Z" id="Shape"></path>
        </g>
    </g>
</svg>