<?xml version="1.0" encoding="UTF-8"?>
<svg width="24px" height="24px" viewBox="0 0 24 24" version="1.1" xmlns="http://www.w3.org/2000/svg" xmlns:xlink="http://www.w3.org/1999/xlink">
    <!-- Generator: Sketch 54.1 (76490) - https://sketchapp.com -->
    <title>globe</title>
    <desc>Created with Sketch.</desc>
    <g id="globe" stroke="none" stroke-width="1" fill="none" fill-rule="evenodd">
        <path d="M11.98,20 C16.3546792,20 19.9,16.4177007 19.9,12 C19.9,7.58229935 16.3546792,4 11.98,4 C7.60532077,4 4.06,7.58229935 4.06,12 C4.06,16.4177007 7.60532077,20 11.98,20 Z M11.98,19.5 C7.88263116,19.5 4.56,16.142713 4.56,12 C4.56,7.85728703 7.88263116,4.5 11.98,4.5 C16.0773688,4.5 19.4,7.85728703 19.4,12 C19.4,16.142713 16.0773688,19.5 11.98,19.5 Z" id="Oval" fill="#D8D9DC" fill-rule="nonzero"></path>
        <path d="M11.98,20 C14.2812606,20 16.06,16.4007231 16.06,12 C16.06,7.59927687 14.2812606,4 11.98,4 C9.67873941,4 7.9,7.59927687 7.9,12 C7.9,16.4007231 9.67873941,20 11.98,20 Z M11.98,19.5 C10.0507594,19.5 8.4,16.1596905 8.4,12 C8.4,7.84030951 10.0507594,4.5 11.98,4.5 C13.9092406,4.5 15.56,7.84030951 15.56,12 C15.56,16.1596905 13.9092406,19.5 11.98,19.5 Z" id="Oval" fill="#D8D9DC" fill-rule="nonzero"></path>
    </g>
</svg>