<?xml version="1.0" encoding="UTF-8"?>
<svg width="24px" height="24px" viewBox="0 0 24 24" version="1.1" xmlns="http://www.w3.org/2000/svg" xmlns:xlink="http://www.w3.org/1999/xlink">
    <!-- Generator: Sketch 54.1 (76490) - https://sketchapp.com -->
    <title>info</title>
    <desc>Created with Sketch.</desc>
    <g id="info" stroke="none" stroke-width="1" fill="none" fill-rule="evenodd">
        <path d="M24,12 C24,18.625 18.625,24 12,24 C5.375,24 0,18.625 0,12 C0,5.375 5.375,0 12,0 C18.625,0 24,5.375 24,12 Z M16,19.5 L16,17 C16,16.71875 15.78125,16.5 15.5,16.5 L14,16.5 L14,8.5 C14,8.21875 13.78125,8 13.5,8 L8.5,8 C8.21875,8 8,8.21875 8,8.5 L8,11 C8,11.28125 8.21875,11.5 8.5,11.5 L10,11.5 L10,16.5 L8.5,16.5 C8.21875,16.5 8,16.71875 8,17 L8,19.5 C8,19.78125 8.21875,20 8.5,20 L15.5,20 C15.78125,20 16,19.78125 16,19.5 Z M14,5.5 L14,3 C14,2.71875 13.78125,2.5 13.5,2.5 L10.5,2.5 C10.21875,2.5 10,2.71875 10,3 L10,5.5 C10,5.78125 10.21875,6 10.5,6 L13.5,6 C13.78125,6 14,5.78125 14,5.5 Z" id="Combined-Shape" fill="#D8D9DC"></path>
    </g>
</svg>