<?xml version="1.0" encoding="UTF-8"?>
<svg width="24px" height="24px" viewBox="0 0 24 24" version="1.1" xmlns="http://www.w3.org/2000/svg" xmlns:xlink="http://www.w3.org/1999/xlink">
    <!-- Generator: Sketch 54.1 (76490) - https://sketchapp.com -->
    <title>internet</title>
    <desc>Created with Sketch.</desc>
    <g id="internet" stroke="none" stroke-width="1" fill="none" fill-rule="evenodd">
        <path d="M17.4254464,5.01026786 C17.3071071,4.79673214 16.916625,4.37614286 16.6766786,4.29642857 C16.356375,4.24708929 16.5482143,4.53283929 16.5482143,4.65535714 C16.4655536,4.71733929 16.3370893,4.78682143 16.2748929,4.86964286 C16.2374464,4.90178571 16.3661786,5.19658929 16.614375,5.101875 C16.8625714,5.00716071 16.7195893,5.19825 16.8910179,5.57678571 C17.0624464,5.95532143 17.4056786,5.962875 17.560125,5.84823214 C17.7559286,5.70294643 17.5331786,5.20473214 17.4254464,5.01026786 L17.4254464,5.01026786 Z M18.4225893,7.425 C18.4215893,7.431 18.4185893,7.436 18.4175893,7.442 C18.4175893,7.454 18.4195893,7.454 18.4225893,7.425 L18.4225893,7.425 Z M21.9970148,9.01289683 C22.2574575,9.01289683 20.8250231,8.61289683 21.9970148,9.01289683 L21.9970148,9.01289683 L21.9970148,9.01289683 Z M12,0 C5.37321429,0 0,5.37321429 0,12 C0,18.6268393 5.37321429,24 12,24 C18.6268393,24 24,18.6268393 24,12 C24,5.37321429 18.6268393,0 12,0 L12,0 Z M7.57494643,21.2905714 C7.2795,21.1227321 7.07276786,20.8855714 6.98775,20.4372321 C6.77630357,19.3225179 6.97151786,18.7193571 7.95,18.0669643 C8.41092857,17.7596786 8.48689286,17.3881071 8.85535714,17.0196429 C8.945625,16.905 9.18808929,16.4638929 9.34821429,16.4410714 C9.54305357,16.3993393 10.082625,16.3056964 10.1892857,16.0928571 C10.3923214,15.8171786 10.8389464,14.6251071 11.0357143,14.5070357 C11.3569821,14.2967679 11.8081607,13.6520357 11.4803571,13.2695357 C11.1042321,12.8065179 10.5804107,12.7999286 10.0928571,12.5569821 C9.66348214,12.3422679 9.47282143,11.3633571 9.14464286,11.0247857 C8.5065,10.3746429 7.53755357,9.99626786 6.73392857,9.59442857 C6.29914286,9.42032143 6.3405,9.36642857 6,9.70692857 C5.56275,10.1441786 4.92358929,9.59619643 4.85892857,9.14442857 C4.85410714,8.99432143 4.68235714,8.16857143 4.78392857,8.10514286 C5.74585714,7.50380357 4.33778571,7.64228571 4.22142857,7.36585714 C3.93455357,6.56266071 4.91828571,5.92692857 5.58214286,5.8605 C6.32598214,5.76739286 6.48128571,7.03344643 6.76607143,6.92657143 C6.903,6.85821429 6.90353571,6.26260714 6.92142857,6.13371429 C6.98930357,5.70358929 7.11364286,5.63694643 7.53214286,5.48148214 C8.01953571,5.30046429 8.39266071,5.07342857 8.90892857,4.98728571 C9.49853571,4.816125 9.99733929,4.90516071 10.4517857,4.52657143 C10.6600714,4.37041071 10.8109286,4.61121429 11.0089286,4.65514286 C11.4374464,4.74080357 11.5285714,4.0605 11.5285714,3.80335714 C11.52675,3.55344643 11.5963393,3.34103571 11.2767857,3.07478571 C10.8586071,2.74966071 10.257375,3.02823214 9.92142857,3.36407143 C9.51567857,3.74094643 9.04516071,3.71496429 9.18214286,3.06407143 C9.21610714,2.82658929 9.72905357,2.55048214 9.93214286,2.42121429 C10.1303571,2.30217857 10.2484286,2.55632143 10.4892857,2.49621429 C10.8417321,2.41783929 10.97325,2.749875 11.3892857,2.75335714 C11.5624821,2.71419643 12.1819286,2.38473214 11.85075,1.71589286 C11.9005179,1.71541071 11.9501786,1.71428571 12,1.71428571 C12.099375,1.71428571 12.1985893,1.71610714 12.2975893,1.71889286 C12.4478571,2.19466071 11.9780357,2.59976786 12.2142857,3.19821429 C12.6851786,4.34866071 13.071,3.35967857 13.5375,2.82321429 C13.690125,2.67058929 13.7856964,2.70476786 14.0357143,2.65714286 C14.1908571,2.63126786 14.4136607,2.16053571 14.4853393,2.01525 C15.559875,2.28075 16.5811071,2.71848214 17.5157143,3.314625 C17.1167679,3.35705357 17.0149286,3.23983929 17.0210357,3.70982143 C17.0232857,3.88751786 17.0369464,4.42333929 17.3035714,4.46785714 C17.7469821,4.52008929 17.6668393,4.83385714 18.0830893,4.88839286 C18.4818214,4.94067857 18.2339464,5.29301786 18.3965357,5.64107143 C18.5783036,6.18894643 17.3355,6.35367857 17.0946429,6.43392857 C16.3639286,6.67789286 17.4342857,7.74160714 17.9089286,7.62857143 C18.0598393,7.59085714 18.5633036,7.52667857 18.5982321,7.357125 C18.5976429,7.33982143 18.499875,6.76719643 18.5517857,6.70178571 C18.6339107,6.59817857 18.8262321,6.54396429 19.1290714,6.71544643 C19.8455357,7.12114286 20.2083214,8.09223214 21.052125,8.28482143 C21.1670893,8.31101786 21.3660536,8.27678571 21.5071607,8.39373214 C21.6266786,8.55525 21.9314464,8.84458929 21.56775,8.84458929 C21.0846964,8.73728571 20.8295357,8.89060714 20.4321429,8.58348214 C20.017875,8.26328571 19.7601964,8.00003571 19.2133929,7.990125 C18.7425,7.98160714 18.3198214,7.78553571 17.8345714,7.86423214 C17.5640357,7.90810714 17.2968214,8.01482143 17.0357143,8.09458929 C16.788375,8.17698214 16.7405357,8.61771429 16.4892857,8.66780357 C15.4464107,8.91321429 15.6717321,9.909 15.4835893,10.6988571 C15.4112143,11.0021786 15.1608214,11.8240179 15.4339821,12.096375 C15.9225536,12.5706964 16.4937857,13.22325 17.2112679,13.3265357 C17.5973036,13.3820893 18.4409464,13.0813929 18.7017857,13.4731607 C18.81225,13.6930179 19.1007321,13.3108393 19.1785714,13.5053571 C19.3748036,14.094 18.9501964,14.4796071 18.9462321,15.034875 C18.9403393,15.8493214 19.4379107,16.1368393 18.7714286,16.8642321 C18.0406071,17.5931786 18.5393036,18.5135893 18.1339286,19.3820893 C17.9173929,19.8287143 17.8763571,20.4478393 17.5515,20.6558571 C16.837875,21.1129286 16.0675714,21.4808036 15.26325,21.7478571 C13.8368036,22.2213214 12.3085179,22.3731429 10.8159107,22.2008571 C10.03275,22.1104286 9.26014286,21.9299464 8.51876786,21.6616607 C8.31685714,21.5886429 8.12876786,21.5274643 7.95776786,21.4632321 C7.82908929,21.4081607 7.701375,21.3508929 7.57494643,21.2905714 L7.57494643,21.2905714 Z M5.34101786,19.8390536 C5.31594643,19.8177857 5.29092857,19.7964107 5.26607143,19.774875 C5.08157143,19.6145893 4.90167857,19.4473929 4.72714286,19.2728571 C4.54564286,19.0913571 4.37175,18.9042321 4.20567857,18.7119107 C4.20380357,18.7097143 4.20192857,18.7075179 4.20005357,18.7053214 C4.16592857,18.6657857 4.13271429,18.6257143 4.09923214,18.5856429 C1.33039286,15.2395179 0.924589286,10.3395 3.24642857,6.59464286 C3.57203571,6.92025 3.02673214,7.56021429 3.64821429,7.9875 C3.92271429,8.18067857 4.18505357,8.10316071 4.13035714,8.45892857 C4.07716071,8.80441071 4.41723214,8.79830357 4.46785714,9.10178571 C4.62010714,9.767625 5.49680357,10.1004643 4.99821429,10.8482143 C4.50975,11.5245536 4.08792857,12.280125 4.45714286,13.1410714 C4.57789286,13.455 4.881375,13.7763214 5.11189286,14.0112857 C5.53044643,14.4380357 5.50708929,14.1820714 5.50708929,14.7214286 C5.49873214,14.9556964 5.78892857,15.1980536 5.758875,15.3482143 C5.70525,15.777375 5.60330357,16.2016071 5.54994643,16.6285714 C5.45394643,18.16275 5.54303571,19.6640357 6.69101786,20.8125 C6.26410714,20.5550357 5.853375,20.2634464 5.46058929,19.9398214 C5.42051786,19.9066607 5.38071429,19.8729107 5.34101786,19.8390536 L5.34101786,19.8390536 Z" id="Mask" fill="#D8D9DC"></path>
    </g>
</svg>