<?xml version="1.0" encoding="UTF-8"?>
<svg width="16px" height="16px" viewBox="0 0 16 16" version="1.1" xmlns="http://www.w3.org/2000/svg" xmlns:xlink="http://www.w3.org/1999/xlink">
    <!-- Generator: sketchtool 54.1 (76490) - https://sketchapp.com -->
    <title>e7a2bb18-93a8-4d83-a0e8-274597bf769e@1.00x</title>
    <desc>Created with sketchtool.</desc>
    <defs>
        <path d="M6,7 L6,8 L1,8 L1,11 L6,11 L6,12 L0,12 L0,3 L4,3 L4,1 L8,1 L8,3 L12,3 L12,5 L11,5 L11,4 L8,4 L4,4 L1,4 L1,7 L6,7 Z M5,3 L7,3 L7,2 L5,2 L5,3 Z M11.5,10.7928932 L13.5,8.79289322 L14.2071068,9.5 L12.2071068,11.5 L11.5,12.2071068 L9.79289322,10.5 L10.5,9.79289322 L11.5,10.7928932 Z M11.5,15 C9.01471863,15 7,12.9852814 7,10.5 C7,8.01471863 9.01471863,6 11.5,6 C13.9852814,6 16,8.01471863 16,10.5 C16,12.9852814 13.9852814,15 11.5,15 Z M11.5,14 C13.4329966,14 15,12.4329966 15,10.5 C15,8.56700338 13.4329966,7 11.5,7 C9.56700338,7 8,8.56700338 8,10.5 C8,12.4329966 9.56700338,14 11.5,14 Z" id="path-1"></path>
    </defs>
    <g id="Symbols" stroke="none" stroke-width="1" fill="none" fill-rule="evenodd">
        <g id="Icons-/-Notifications-/-16-/-Job-Change">
            <mask id="mask-2" fill="white">
                <use xlink:href="#path-1"></use>
            </mask>
            <use id="Combined-Shape" fill="#000000" fill-rule="nonzero" xlink:href="#path-1"></use>
            <g id="Colors-/-Black" mask="url(#mask-2)" fill="#000000">
                <rect id="Rectangle" x="0" y="0" width="16" height="16"></rect>
            </g>
        </g>
    </g>
</svg>