<?xml version="1.0" encoding="UTF-8"?>
<svg width="16px" height="16px" viewBox="0 0 16 16" version="1.1" xmlns="http://www.w3.org/2000/svg" xmlns:xlink="http://www.w3.org/1999/xlink">
    <!-- Generator: Sketch 49.3 (51167) - http://www.bohemiancoding.com/sketch -->
    <title>Untitled 3</title>
    <desc>Created with Sketch.</desc>
    <defs></defs>
    <g id="Page-1" stroke="none" stroke-width="1" fill="none" fill-rule="evenodd">
        <g id="kr-pending-icon-16px" stroke="#000000">
            <path d="M7.9,8 C6.8,8 5.8,7.1 5.8,5.9 C5.8,4.7 6.7,3.8 7.9,3.8 C9.1,3.8 10,4.7 10,5.9 C10.1,7.1 9.1,8 7.9,8 Z" id="Shape"></path>
            <path d="M8,15.5 C3.9,15.5 0.5,12.2 0.5,8 C0.5,3.9 3.8,0.5 8,0.5 C12.1,0.5 15.5,3.8 15.5,8 C15.5,12.1 12.1,15.5 8,15.5 Z" id="Shape" stroke-dasharray="2"></path>
            <path d="M4.2,12.1 C4.2,10.7 5,9.4 6.3,8.8 C7.4,8.2 8.7,8.2 9.8,8.8 C11.1,9.4 11.9,10.8 11.9,12.1" id="Shape"></path>
        </g>
    </g>
</svg>