<?xml version="1.0" encoding="UTF-8"?>
<svg width="16px" height="16px" viewBox="0 0 16 16" version="1.1" xmlns="http://www.w3.org/2000/svg" xmlns:xlink="http://www.w3.org/1999/xlink">
    <!-- Generator: Sketch 48.2 (47327) - http://www.bohemiancoding.com/sketch -->
    <title>Shape</title>
    <desc>Created with Sketch.</desc>
    <defs></defs>
    <g id="Page-1" stroke="none" stroke-width="1" fill="none" fill-rule="evenodd">
        <g id="kr-pending-icon-16px" fill="#000000" fill-rule="nonzero">
            <path d="M10 8.4237c-.2-.1994-.4-.1994-.6-.299.2-.0998.3-.2992.5-.3988.5-.4985.7-1.0966.6-1.7944 0-1.4954-1.1-2.592-2.6-2.592s-2.6 1.0966-2.6 2.592c0 .8972.5 1.7944 1.3 2.1931-.2.0997-.4.1994-.5.1994-1.5.6978-2.4 2.1931-2.4 3.7881h1c0-1.1962.7-2.2928 1.8-2.891.9-.4984 2.1-.4984 3.1 0 1.1.4985 1.8 1.6948 1.8 2.7914h1c0-1.4954-1-2.9907-2.4-3.5888zM7.9 4.3364c.9 0 1.6.6979 1.6 1.595 0 .4985-.2.7976-.4.997-.3.3987-.7.598-1.2.598-.8 0-1.6-.598-1.6-1.595 0-.8971.7-1.595 1.6-1.595zm-1.3 10.567l-.2.997c.5 0 1.1.0996 1.6.0996s1.1-.0997 1.6-.1994l-.2-.9969c-.9.1994-1.9.1994-2.8.0997zm2.8-13.757l.2-.9969c-1-.1993-2.2-.1993-3.2 0l.2.997c.9-.0998 1.9-.0998 2.8 0zM.2 6.43C.1 6.9283 0 7.5265 0 8.025c0 .4985.1 1.0966.2 1.595l1-.1993C1 8.922 1 8.5234 1 8.0249c0-.4984 0-.8972.1-1.3956l-.9-.1994zm15.6 0l-1 .1994c.2.3987.2.8972.2 1.3956 0 .4985 0 .8972-.1 1.3957l1 .1993c0-.4984.1-1.0965.1-1.595 0-.5981-.1-1.0966-.2-1.595zM2.2 11.9128l-.8.5981c.3.3988.6.8972 1 1.1963.4.3987.8.6978 1.2.9968l.6-.7975c-.4-.299-.8-.598-1.2-.8972-.3-.3987-.6-.7975-.8-1.0965zm10.2-10.567l-.5.7975c.4.1994.7.4984 1.1.8972.3.299.6.6978.9 1.0966l.8-.5982c-.3-.3987-.6-.8972-1-1.1962-.4-.299-.9-.6978-1.3-.997zM3 3.1402c.3-.299.7-.5981 1.1-.8972l-.5-.8972c-.5.299-.9.6978-1.3.9969-.3.3987-.7.7975-1 1.296l.8.598c.3-.3987.6-.7974.9-1.0965zm9.9 9.8691c-.3.2991-.7.5982-1.1.8972l.6.7975c.4-.299.9-.598 1.2-.9968.4-.3988.7-.7975 1-1.1963l-.8-.4984c-.2.1993-.5.598-.9.9968z" id="Shape"></path>
        </g>
    </g>
</svg>
