<?xml version="1.0" encoding="UTF-8"?>
<svg width="24px" height="24px" viewBox="0 0 24 24" version="1.1" xmlns="http://www.w3.org/2000/svg" xmlns:xlink="http://www.w3.org/1999/xlink">
    <!-- Generator: Sketch 48.2 (47327) - http://www.bohemiancoding.com/sketch -->
    <title>kr-pending-icon-24px</title>
    <desc>Created with Sketch.</desc>
    <defs></defs>
    <g id="Page-1" stroke="none" stroke-width="1" fill="none" fill-rule="evenodd">
        <g id="kr-pending-icon-24px" fill="#000000" fill-rule="nonzero">
            <path d="M13.8095 1L14 .1837c-1.3333-.245-2.6667-.245-4 0L10.1905 1c1.1428-.2449 2.4762-.2449 3.619 0zm-3.619 22L10 23.8333c.6667.0834 1.3333.1667 2 .1667.6667 0 1.3333-.0833 2-.1667L13.8095 23c-1.1428.25-2.4762.25-3.619 0zm13.6428-13L23 10.1905c.0833.5714.1667 1.238.1667 1.8095 0 .5714-.0834 1.2381-.1667 1.8095l.8333.1905c.0834-.6667.1667-1.3333.1667-2 0-.6667-.0833-1.3333-.1667-2zM.1667 10C.0833 10.6667 0 11.3333 0 12c0 .6667.0833 1.3333.1667 2L1 13.8095C.9167 13.2381.8333 12.5715.8333 12c0-.5714.0834-1.2381.1667-1.8095L.1667 10zm18.519-8L18 2.9143l1.7143 1.3714c.5714.5714 1.0286 1.1429 1.3714 1.7143L22 5.3143c-.4571-.5714-.9143-1.2572-1.4857-1.8286C19.9429 2.9143 19.257 2.4571 18.6857 2zM2.9143 18L2 18.5143c.4571.4286.9143.9428 1.4857 1.3714S4.6286 20.743 5.3143 21L6 20.3143l-1.7143-1.0286c-.4571-.4286-1.0286-.8571-1.3714-1.2857zm16.8 1.2857c-.5714.4286-1.1429.7714-1.7143 1.0286l.6857.6857c.6857-.3429 1.2572-.6857 1.8286-1.1143.5714-.4286 1.1428-.8571 1.4857-1.3714L21.0857 18c-.3428.4286-.9143.8571-1.3714 1.2857zm-15.4286-15C4.8571 3.7143 5.4286 3.2571 6 2.9143L5.3143 2c-.5714.4571-1.2572.9143-1.8286 1.4857C2.9143 4.0571 2.343 4.6286 2 5.3143L2.9143 6c.3428-.5714.9143-1.1429 1.3714-1.7143zm10.6074 7.9069c-.2809-.1037-.5617-.3111-.8425-.4148-.2809-.1037-.468-.1037-.749-.2074.281-.1037.5617-.3111.8426-.6223.8425-.7259 1.3105-1.8666 1.3105-3.0074 0-1.1407-.468-2.2814-1.3105-3.0074C13.5825 4.3111 12.8336 4 11.9912 4h-.1873c-.7489 0-1.4978.3111-2.0595.726-.936.7259-1.4977 1.9703-1.4977 3.2147 0 1.2445.5616 2.489 1.4977 3.2149.2809.2074.4681.311.749.5185-.2809.1037-.4681.1037-.6553.2074l-.5617.311C7.2169 13.2297 6 15.4076 6 18h.9361c0-2.1778 1.0297-3.9407 2.8083-4.874.1873-.1038.3745-.2075.4681-.3112.5617-.2074 1.1233-.3111 1.685-.4148.5617 0 1.1233.1037 1.685.3111.2808.1037.468.2074.7489.3111 1.5914.9334 2.7147 2.8 2.7147 4.8741h.9361c.1873-2.3852-1.1233-4.6667-3.0891-5.7037zm-2.8084-1.3482c-.6552 0-1.1233-.2074-1.5914-.5185C9.8381 9.8074 9.37 8.8741 9.37 7.9407c0-.9333.3744-1.763 1.1233-2.3851.468-.3112.9362-.5186 1.4042-.5186h.0936c.5617 0 1.1234.2074 1.5914.726.5617.5185.9361 1.3481.9361 2.1777 0 .9334-.3744 1.6593-.936 2.2815-.3745.4148-.9362.6222-1.4979.6222z" id="Shape"></path>
        </g>
    </g>
</svg>
