<?xml version="1.0" encoding="UTF-8"?>
<svg width="16px" height="16px" viewBox="0 0 16 16" version="1.1" xmlns="http://www.w3.org/2000/svg" xmlns:xlink="http://www.w3.org/1999/xlink">
    <!-- Generator: Sketch 49.3 (51167) - http://www.bohemiancoding.com/sketch -->
    <title>Untitled 2</title>
    <desc>Created with Sketch.</desc>
    <defs></defs>
    <g id="Page-1" stroke="none" stroke-width="1" fill="none" fill-rule="evenodd">
        <g id="kr-ownership-icon" stroke="#000000">
            <path d="M8,15.5 C3.9,15.5 0.5,12.1 0.5,8 C0.5,3.9 3.9,0.5 8,0.5 C12.1,0.5 15.5,3.9 15.5,8 C15.5,12.2 12.1,15.5 8,15.5 Z" id="Shape"></path>
            <path d="M4.2,12.1 C4.2,10.7 5,9.4 6.3,8.7 C7.4,8.1 8.7,8.1 9.8,8.7 C11.1,9.3 11.9,10.7 11.9,12.1" id="Shape"></path>
            <path d="M8,8.2 C6.8,8.2 5.9,7.2 5.9,6.1 C5.9,4.9 6.9,4 8,4 C9.2,4 10.1,5 10.1,6.1 C10.1,7.2 9.2,8.2 8,8.2 Z" id="Shape"></path>
        </g>
    </g>
</svg>