<?xml version="1.0" encoding="UTF-8"?>
<svg width="16px" height="16px" viewBox="0 0 16 16" version="1.1" xmlns="http://www.w3.org/2000/svg" xmlns:xlink="http://www.w3.org/1999/xlink">
    <!-- Generator: sketchtool 55.2 (78181) - https://sketchapp.com -->
    <title>e1823f44-4334-4acd-98cc-f2fa2a765d27@1.00x</title>
    <desc>Created with sketchtool.</desc>
    <defs>
        <path d="M3.20710678,8.5 L6.20710678,11.5 L5.5,12.2071068 L2.5,9.20710678 L1.79289322,8.5 L5.5,4.79289322 L6.20710678,5.5 L3.20710678,8.5 Z M13.5,7.79289322 L14.2071068,8.5 L10.5,12.2071068 L9.79289322,11.5 L12.7928932,8.5 L9.79289322,5.5 L10.5,4.79289322 L13.5,7.79289322 Z M-2.27373675e-13,2 L1,2 L1,15 L-2.27373675e-13,15 L-2.27373675e-13,2 Z M15,2 L16,2 L16,15 L15,15 L15,2 Z" id="path-1"></path>
    </defs>
    <g id="Symbols" stroke="none" stroke-width="1" fill="none" fill-rule="evenodd">
        <g id="Icons-/-General-/-16-/-Length">
            <mask id="mask-2" fill="white">
                <use xlink:href="#path-1"></use>
            </mask>
            <use id="Combined-Shape" fill="#000000" xlink:href="#path-1"></use>
            <g id="Colors-/-Black" mask="url(#mask-2)" fill="#000000">
                <rect id="Rectangle" x="0" y="0" width="16" height="16"></rect>
            </g>
        </g>
    </g>
</svg>