<svg xmlns="http://www.w3.org/2000/svg" width="24" height="24" viewBox="0 0 24 24">
  <path fill="#D8D9DC" fill-rule="evenodd" d="M22.0715175,0 L2.04967659,0 C0.956099143,0 0,0.7875 0,1.86875 L0,21.9375 C0,23.025 0.956099143,23.99375 2.04967659,23.99375 L22.0652685,23.99375 C23.1650949,23.99375 23.9899648,23.01875 23.9899648,21.9375 L23.9899648,1.86875 C23.9962138,0.7875 23.1650949,0 22.0715175,0 L22.0715175,0 Z M7.43632667,20 L3.99936896,20 L3.99936896,9.3125 L7.43632667,9.3125 L7.43632667,20 L7.43632667,20 Z M5.83657908,7.6875 L5.81158302,7.6875 C4.71175656,7.6875 3.99936896,6.86875 3.99936896,5.84375 C3.99936896,4.8 4.7305036,4 5.85532612,4 C6.98014864,4 7.66754018,4.79375 7.69253624,5.84375 C7.69253624,6.86875 6.98014864,7.6875 5.83657908,7.6875 L5.83657908,7.6875 Z M19.9968448,20 L16.5598871,20 L16.5598871,14.15625 C16.5598871,12.75625 16.059966,11.8 14.8164122,11.8 C13.8665621,11.8 13.3041508,12.44375 13.0541903,13.06875 C12.960455,13.29375 12.935459,13.6 12.935459,13.9125 L12.935459,20 L9.49850129,20 L9.49850129,9.3125 L12.935459,9.3125 L12.935459,10.8 C13.4353801,10.0875 14.2165069,9.0625 16.0349699,9.0625 C18.290864,9.0625 19.9968448,10.55 19.9968448,13.75625 L19.9968448,20 L19.9968448,20 Z"/>
</svg>
