<?xml version="1.0" encoding="UTF-8"?>
<svg width="16px" height="16px" viewBox="0 0 16 16" version="1.1" xmlns="http://www.w3.org/2000/svg" xmlns:xlink="http://www.w3.org/1999/xlink">
    <!-- Generator: Sketch 54.1 (76490) - https://sketchapp.com -->
    <title>16x16/location</title>
    <desc>Created with Sketch.</desc>
    <g id="16x16/location" stroke="none" stroke-width="1" fill="none" fill-rule="evenodd">
        <g id="Group" transform="translate(2.000000, 0.000000)" fill="#FFFFFF" fill-rule="nonzero">
            <g id="Group-2">
                <path d="M12.1223529,6.06117647 C12.1223529,7.01157727 11.6592815,8.18279532 10.8200676,9.53556909 C10.3616856,10.2744596 9.79999649,11.0520038 9.15768898,11.8530723 C8.51626206,12.6530426 7.82954753,13.4336118 7.14284999,14.1635746 C6.90248851,14.41908 6.67922734,14.6500819 6.47874268,14.8526487 C6.35813468,14.9745093 6.27168758,15.0600347 6.22508194,15.105285 C6.13373317,15.1939775 5.98840583,15.1939171 5.89713079,15.1051488 C5.85053092,15.0598287 5.76408964,14.9741741 5.64348754,14.8521386 C5.4430098,14.6492781 5.21975561,14.4179643 4.97940115,14.1621428 C4.29272234,13.4312754 3.60602619,12.6499506 2.96461746,11.8494849 C2.326812,11.0535161 1.76844957,10.2809577 1.31178575,9.54670972 C0.466577416,8.18773961 0,7.01261195 0,6.06117647 C0,2.71240359 2.71240359,0 6.06117647,0 C9.40994935,0 12.1223529,2.71240359 12.1223529,6.06117647 Z M6.14427203,14.521616 C6.34204104,14.3217931 6.56254826,14.0936406 6.80009119,13.8411313 C7.47883483,13.1196235 8.15756147,12.3481339 8.79054631,11.5586924 C9.42180772,10.7714003 9.97272195,10.0087716 10.4201788,9.28749197 C11.2171674,8.00278337 11.6517647,6.90358334 11.6517647,6.06117647 C11.6517647,2.97230229 9.15005065,0.470588235 6.06117647,0.470588235 C2.97230229,0.470588235 0.470588235,2.97230229 0.470588235,6.06117647 C0.470588235,6.9042315 0.908592863,8.00739538 1.711391,9.29817616 C2.15724806,10.0150484 2.70495907,10.7728693 3.33185313,11.555221 C3.96485616,12.3451965 4.64360119,13.1174746 5.32236355,13.839916 C5.55991351,14.0927526 5.7804277,14.3212274 5.97820364,14.521354 C6.00811372,14.5516196 6.03584511,14.5795677 6.06130583,14.6051341 C6.08672904,14.5796437 6.11441494,14.5517832 6.14427203,14.521616 Z" id="Shape"></path>
                <path d="M6.06117647,7.52 C6.99681181,7.52 7.75529412,6.76151769 7.75529412,5.82588235 C7.75529412,4.89024701 6.99681181,4.13176471 6.06117647,4.13176471 C5.12554113,4.13176471 4.36705882,4.89024701 4.36705882,5.82588235 C4.36705882,6.76151769 5.12554113,7.52 6.06117647,7.52 Z M6.06117647,7.04941176 C5.38543984,7.04941176 4.83764706,6.50161899 4.83764706,5.82588235 C4.83764706,5.15014572 5.38543984,4.60235294 6.06117647,4.60235294 C6.73691311,4.60235294 7.28470588,5.15014572 7.28470588,5.82588235 C7.28470588,6.50161899 6.73691311,7.04941176 6.06117647,7.04941176 Z" id="Oval"></path>
            </g>
        </g>
    </g>
</svg>