<?xml version="1.0" encoding="UTF-8"?>
<svg width="24px" height="24px" viewBox="0 0 24 24" version="1.1" xmlns="http://www.w3.org/2000/svg" xmlns:xlink="http://www.w3.org/1999/xlink">
    <!-- Generator: Sketch 54.1 (76490) - https://sketchapp.com -->
    <title>location</title>
    <desc>Created with Sketch.</desc>
    <g id="location" stroke="none" stroke-width="1" fill="none" fill-rule="evenodd">
        <path d="M18.63,10.19 C18.63,11.1998009 18.1379866,12.44422 17.2463218,13.8815422 C16.7592909,14.6666133 16.1624963,15.4927541 15.4800445,16.3438893 C14.7985284,17.1938577 14.0688942,18.0232125 13.3392781,18.798798 C13.083894,19.0702725 12.8466791,19.3157121 12.6336641,19.5309393 C12.5055181,19.6604161 12.4136681,19.7512868 12.3641496,19.7993654 C12.2670915,19.8936011 12.1126812,19.8935369 12.0157015,19.7992206 C11.9661891,19.751068 11.8743452,19.66006 11.7462055,19.5303973 C11.5331979,19.314858 11.2959903,19.0690871 11.0406137,18.7972767 C10.3110175,18.0207301 9.58140283,17.1905725 8.89990605,16.3400777 C8.22223775,15.4943608 7.62897767,14.6735175 7.14377236,13.8933791 C6.2457385,12.4494733 5.75,11.2009002 5.75,10.19 C5.75,6.63192881 8.63192881,3.75 12.19,3.75 C15.7480712,3.75 18.63,6.63192881 18.63,10.19 Z M12.278289,19.179217 C12.4884186,18.9669051 12.7227075,18.7244931 12.9750969,18.456202 C13.696262,17.6896 14.4174091,16.8698923 15.0899555,16.0311107 C15.7606707,15.1946128 16.3460171,14.3843199 16.82144,13.6179602 C17.6682404,12.2529573 18.13,11.0850573 18.13,10.19 C18.13,6.90807119 15.4719288,4.25 12.19,4.25 C8.90807119,4.25 6.25,6.90807119 6.25,10.19 C6.25,11.085746 6.71537992,12.2578576 7.56835293,13.6293122 C8.04207606,14.390989 8.62401901,15.1961737 9.29009395,16.0274223 C9.96265967,16.8667713 10.6838263,17.6873167 11.4050113,18.4549108 C11.6574081,18.7235496 11.8917044,18.9663041 12.1018414,19.1789387 C12.1336208,19.2110959 12.1630854,19.2407907 12.1901374,19.2679549 C12.2171496,19.2408715 12.2465659,19.2112696 12.278289,19.179217 Z" id="Shape" fill="#D8D9DC" fill-rule="nonzero"></path>
        <path d="M12.19,11.74 C13.1841125,11.74 13.99,10.9341125 13.99,9.94 C13.99,8.94588745 13.1841125,8.14 12.19,8.14 C11.1958875,8.14 10.39,8.94588745 10.39,9.94 C10.39,10.9341125 11.1958875,11.74 12.19,11.74 Z M12.19,11.24 C11.4720298,11.24 10.89,10.6579702 10.89,9.94 C10.89,9.22202983 11.4720298,8.64 12.19,8.64 C12.9079702,8.64 13.49,9.22202983 13.49,9.94 C13.49,10.6579702 12.9079702,11.24 12.19,11.24 Z" id="Oval" fill="#D8D9DC" fill-rule="nonzero"></path>
    </g>
</svg>