<?xml version="1.0" encoding="UTF-8"?>
<svg width="16px" height="16px" viewBox="0 0 16 16" version="1.1" xmlns="http://www.w3.org/2000/svg" xmlns:xlink="http://www.w3.org/1999/xlink">
    <!-- Generator: Sketch 54.1 (76490) - https://sketchapp.com -->
    <title>16x16/message</title>
    <desc>Created with Sketch.</desc>
    <g id="16x16/message" stroke="none" stroke-width="1" fill="none" fill-rule="evenodd">
        <g id="message" fill="#D8D9DC" fill-rule="nonzero">
            <path d="M0.25,12.28 C0.111928813,12.28 -1.77635684e-15,12.1680712 -1.77635684e-15,12.03 L-1.77635684e-15,0.25 C-1.77635684e-15,0.111928813 0.111928813,5.32907052e-15 0.25,5.32907052e-15 L15.67,5.32907052e-15 C15.8080712,5.32907052e-15 15.92,0.111928813 15.92,0.25 L15.92,15.75 C15.92,15.9540561 15.6887313,16.0721615 15.523426,15.9525242 L10.4490242,12.28 L0.25,12.28 Z M15.42,0.5 L0.5,0.5 L0.5,11.78 L10.53,11.78 L10.676574,11.8274758 L15.42,15.2604611 L15.42,0.5 Z" id="Shape"></path>
            <path d="M3.25,5.38 L12.67,5.38 C12.8080712,5.38 12.92,5.26807119 12.92,5.13 C12.92,4.99192881 12.8080712,4.88 12.67,4.88 L3.25,4.88 C3.11192881,4.88 3,4.99192881 3,5.13 C3,5.26807119 3.11192881,5.38 3.25,5.38 Z" id="Path"></path>
            <path d="M3.25,7.38 L7.96,7.38 C8.09807119,7.38 8.21,7.26807119 8.21,7.13 C8.21,6.99192881 8.09807119,6.88 7.96,6.88 L3.25,6.88 C3.11192881,6.88 3,6.99192881 3,7.13 C3,7.26807119 3.11192881,7.38 3.25,7.38 Z" id="Path"></path>
        </g>
    </g>
</svg>