<?xml version="1.0" encoding="UTF-8"?>
<svg width="24px" height="24px" viewBox="0 0 24 24" version="1.1" xmlns="http://www.w3.org/2000/svg" xmlns:xlink="http://www.w3.org/1999/xlink">
    <!-- Generator: Sketch 54.1 (76490) - https://sketchapp.com -->
    <title>message</title>
    <desc>Created with Sketch.</desc>
    <g id="message" stroke="none" stroke-width="1" fill="none" fill-rule="evenodd">
        <path d="M4.27,16.34 C4.13192881,16.34 4.02,16.2280712 4.02,16.09 L4.02,4.31 C4.02,4.17192881 4.13192881,4.06 4.27,4.06 L19.69,4.06 C19.8280712,4.06 19.94,4.17192881 19.94,4.31 L19.94,19.81 C19.94,20.0140561 19.7087313,20.1321615 19.543426,20.0125242 L14.4690242,16.34 L4.27,16.34 Z M19.44,4.56 L4.52,4.56 L4.52,15.84 L14.55,15.84 L14.696574,15.8874758 L19.44,19.3204611 L19.44,4.56 Z" id="Shape" fill="#D8D9DC" fill-rule="nonzero"></path>
        <path d="M7.27,9.44 L16.69,9.44 C16.8280712,9.44 16.94,9.32807119 16.94,9.19 C16.94,9.05192881 16.8280712,8.94 16.69,8.94 L7.27,8.94 C7.13192881,8.94 7.02,9.05192881 7.02,9.19 C7.02,9.32807119 7.13192881,9.44 7.27,9.44 Z" id="Path" fill="#D8D9DC" fill-rule="nonzero"></path>
        <path d="M7.27,11.44 L11.98,11.44 C12.1180712,11.44 12.23,11.3280712 12.23,11.19 C12.23,11.0519288 12.1180712,10.94 11.98,10.94 L7.27,10.94 C7.13192881,10.94 7.02,11.0519288 7.02,11.19 C7.02,11.3280712 7.13192881,11.44 7.27,11.44 Z" id="Path" fill="#D8D9DC" fill-rule="nonzero"></path>
    </g>
</svg>