<?xml version="1.0" encoding="UTF-8"?>
<svg width="16px" height="16px" viewBox="0 0 16 16" version="1.1" xmlns="http://www.w3.org/2000/svg" xmlns:xlink="http://www.w3.org/1999/xlink">
    <!-- Generator: sketchtool 54.1 (76490) - https://sketchapp.com -->
    <title>09792d4a-176e-4102-a910-3b216c6d54a7@1.00x</title>
    <desc>Created with sketchtool.</desc>
    <defs>
        <path d="M7,15 L7,12.9775785 C4.19674999,12.7249641 2,10.3690213 2,7.5 L3,7.5 C3,9.98528137 5.01471863,12 7.5,12 C9.98528137,12 12,9.98528137 12,7.5 L13,7.5 C13,10.3690213 10.80325,12.7249641 8,12.9775785 L8,15 L11,15 L11,16 L4,16 L4,15 L7,15 Z M7.5,0 C9.43299662,-3.55085719e-16 11,1.56700338 11,3.5 L11,7.5 C11,9.43299662 9.43299662,11 7.5,11 C5.56700338,11 4,9.43299662 4,7.5 L4,3.5 C4,1.56700338 5.56700338,3.55085719e-16 7.5,0 Z M7.5,1 C6.11928813,1 5,2.11928813 5,3.5 L5,7.5 C5,8.88071187 6.11928813,10 7.5,10 C8.88071187,10 10,8.88071187 10,7.5 L10,3.5 C10,2.11928813 8.88071187,1 7.5,1 Z" id="path-1"></path>
    </defs>
    <g id="Symbols" stroke="none" stroke-width="1" fill="none" fill-rule="evenodd">
        <g id="Icons-/-Video-Call-/-16-/-Microphone-On">
            <mask id="mask-2" fill="white">
                <use xlink:href="#path-1"></use>
            </mask>
            <use id="Combined-Shape" fill="#000000" fill-rule="nonzero" xlink:href="#path-1"></use>
            <g id="Colors-/-Black" mask="url(#mask-2)" fill="#000000">
                <rect id="Rectangle" x="0" y="0" width="16" height="16"></rect>
            </g>
        </g>
    </g>
</svg>