<?xml version="1.0" encoding="UTF-8"?>
<svg width="16px" height="16px" viewBox="0 0 16 16" version="1.1" xmlns="http://www.w3.org/2000/svg" xmlns:xlink="http://www.w3.org/1999/xlink">
    <!-- Generator: sketchtool 54.1 (76490) - https://sketchapp.com -->
    <title>10f3f764-9105-4eba-9d09-4d92a173e712@1.00x</title>
    <desc>Created with sketchtool.</desc>
    <defs>
        <path d="M10.87456,10.3995197 C10.3392323,9.941003 10,9.26011747 10,8.5 C10,7.11928813 11.1192881,6 12.5,6 C13.8807119,6 15,7.11928813 15,8.5 C15,9.26012062 14.6607649,9.94100864 14.1254333,10.3995254 C15.2398969,10.9849903 16,12.1537294 16,13.5 L16,14 L15,14 L15,13.5 C15,12.1192881 13.8807119,11 12.5,11 C11.8274883,11 11.1983726,11.2660935 10.732233,11.732233 L10.0251263,11.0251263 C10.2771104,10.7731421 10.5635854,10.5627808 10.87456,10.3995197 Z M2.95263221,9.43703415 C1.78319981,8.73892704 1,7.46092658 1,6 C1,3.790861 2.790861,2 5,2 C7.209139,2 9,3.790861 9,6 C9,7.46092658 8.21680019,8.73892704 7.04736779,9.43703415 C8.78793409,10.2192193 10,11.9680631 10,14 L9,14 C9,11.790861 7.209139,10 5,10 C2.790861,10 1,11.790861 1,14 L-7.10542736e-15,14 C-7.10542736e-15,11.9680631 1.21206591,10.2192193 2.95263221,9.43703415 Z M5,9 C6.65685425,9 8,7.65685425 8,6 C8,4.34314575 6.65685425,3 5,3 C3.34314575,3 2,4.34314575 2,6 C2,7.65685425 3.34314575,9 5,9 Z M12.5,10 C13.3284271,10 14,9.32842712 14,8.5 C14,7.67157288 13.3284271,7 12.5,7 C11.6715729,7 11,7.67157288 11,8.5 C11,9.32842712 11.6715729,10 12.5,10 Z" id="path-1"></path>
    </defs>
    <g id="Symbols" stroke="none" stroke-width="1" fill="none" fill-rule="evenodd">
        <g id="Icons-/-Video-Call-/-16-/-Participants">
            <mask id="mask-2" fill="white">
                <use xlink:href="#path-1"></use>
            </mask>
            <use id="Combined-Shape" fill="#000000" fill-rule="nonzero" xlink:href="#path-1"></use>
            <g id="Colors-/-Black" mask="url(#mask-2)" fill="#000000">
                <rect id="Rectangle" x="0" y="0" width="16" height="16"></rect>
            </g>
        </g>
    </g>
</svg>