<?xml version="1.0" encoding="UTF-8"?>
<svg width="16px" height="16px" viewBox="0 0 16 16" version="1.1" xmlns="http://www.w3.org/2000/svg" xmlns:xlink="http://www.w3.org/1999/xlink">
    <!-- Generator: Sketch 54.1 (76490) - https://sketchapp.com -->
    <title>16x16/phone</title>
    <desc>Created with Sketch.</desc>
    <g id="16x16/phone" stroke="none" stroke-width="1" fill="none" fill-rule="evenodd">
        <path d="M13.8482988,14.8506873 L15.2338672,13.4632882 C15.5886625,13.108024 15.5886625,12.533693 15.2338672,12.1784289 L12.904542,9.85263291 C12.5498152,9.49743706 11.9756734,9.49743706 11.6206959,9.85288364 L10.4656688,11.0094369 L10.0778233,10.7261641 C8.04281344,9.25666525 6.2531242,7.46626137 4.77539624,5.42351657 L4.49163202,5.03396933 L5.64705385,3.87702081 C6.00184919,3.52175667 6.00184919,2.94742565 5.64705385,2.5921615 L3.31772869,0.266365551 C2.96300191,-0.0888302952 2.38886008,-0.0888302952 2.03388254,0.266616286 L0.6483142,1.65401542 C0.0136012719,2.28956702 -0.175739269,3.24384032 0.172368682,4.07447025 C2.29588309,9.15624232 6.34259351,13.2012723 11.4304544,15.3274287 C12.2602406,15.6759947 13.2135203,15.4863045 13.8482988,14.8506873 Z M0.633609776,3.8814506 C0.363961075,3.23803409 0.510473859,2.49961199 1.00210094,2.00733531 L2.38766928,0.619936173 C2.54733141,0.460063076 2.80453058,0.460063076 2.96419271,0.619936173 L5.29351787,2.94573212 C5.45311143,3.10553693 5.45311143,3.36364539 5.29326711,3.52370092 L3.9868741,4.83182011 C3.89993713,4.91887195 3.8892581,5.05623636 3.9616966,5.15567843 L4.37076915,5.71724474 C5.87919081,7.80242146 7.70680073,9.63076116 9.78401368,11.1307306 L10.3437439,11.5395484 C10.4432919,11.6122559 10.5809801,11.6015473 10.6680896,11.5143227 L11.9744826,10.2062035 C12.1341447,10.0463304 12.3913439,10.0463304 12.551006,10.2062035 L14.8803312,12.5319995 C15.0399247,12.6918043 15.0399247,12.9499127 14.8800804,13.1099683 L13.4945121,14.4973674 C13.0030086,14.9895203 12.2659429,15.1361507 11.6239203,14.8663745 C6.65681936,12.7907503 2.70652918,8.84214367 0.633609776,3.8814506 Z" id="Shape" fill="#FFFFFF" fill-rule="nonzero"></path>
    </g>
</svg>