<?xml version="1.0" encoding="UTF-8"?>
<svg width="24px" height="24px" viewBox="0 0 24 24" version="1.1" xmlns="http://www.w3.org/2000/svg" xmlns:xlink="http://www.w3.org/1999/xlink">
    <!-- Generator: Sketch 54.1 (76490) - https://sketchapp.com -->
    <title>phone</title>
    <desc>Created with Sketch.</desc>
    <g id="phone" stroke="none" stroke-width="1" fill="none" fill-rule="evenodd">
        <path d="M10.0269537,10.4145821 L11.0888708,9.35266504 C11.4853174,8.95621843 11.4853174,8.30878157 11.0888708,7.91233496 L8.09887082,4.92233496 C7.70242421,4.52588835 7.05498734,4.52588835 6.65854073,4.92233496 L5.29854073,6.28233496 C4.63683502,6.94404067 4.44074938,7.93799203 4.80853914,8.80407761 C6.8983072,13.8093449 10.8843562,17.7980872 15.8991262,19.8935083 C16.7605149,20.2524205 17.7519977,20.0595382 18.4088708,19.402665 L19.7688708,18.042665 C20.1653174,17.6462184 20.1653174,16.9987816 19.7688708,16.602335 L16.7788708,13.612335 C16.3824242,13.2158883 15.7349873,13.2158883 15.3385407,13.612335 L14.2733346,14.6775411 C12.6233251,13.5389203 11.1743594,12.0899387 10.0269537,10.4145821 Z M5.49975527,8.51301905 C5.25093547,7.9270709 5.38277992,7.25875594 5.82887082,6.81266504 L7.18887082,5.45266504 C7.29242421,5.34911165 7.46498734,5.34911165 7.56854073,5.45266504 L10.5585407,8.44266504 C10.6620941,8.54621843 10.6620941,8.71878157 10.5585407,8.82233496 L9.27854073,10.102335 C9.15274909,10.2281266 9.13264966,10.4249886 9.23042437,10.5736062 C10.5032509,12.5083025 12.1564678,14.1667019 14.0956932,15.4595189 L14.1560007,15.4929102 C14.3003714,15.5650956 14.4747357,15.5368001 14.5888708,15.422665 L15.8688708,14.142665 C15.9724242,14.0391117 16.1449873,14.0391117 16.2485407,14.142665 L19.2385407,17.132665 C19.3420941,17.2362184 19.3420941,17.4087816 19.2385407,17.512335 L17.8785407,18.872335 C17.43728,19.3135956 16.7694313,19.443554 16.188111,19.2014188 C11.3555878,17.1820957 7.51435685,13.3382355 5.49975527,8.51301905 Z" id="Shape" fill="#D8D9DC" fill-rule="nonzero"></path>
    </g>
</svg>