<?xml version="1.0" encoding="UTF-8"?>
<svg width="16px" height="16px" viewBox="0 0 16 16" version="1.1" xmlns="http://www.w3.org/2000/svg" xmlns:xlink="http://www.w3.org/1999/xlink">
    <!-- Generator: sketchtool 55.2 (78181) - https://sketchapp.com -->
    <title>59c47922-92c9-451c-9125-c34a7dadb7ca@1.00x</title>
    <desc>Created with sketchtool.</desc>
    <defs>
        <path d="M7.10542736e-14,0 L7,0 L7,7 L7.10542736e-14,7 L7.10542736e-14,0 Z M1,1 L1,6 L6,6 L6,1 L1,1 Z M9,0 L16,0 L16,7 L9,7 L9,0 Z M10,1 L10,6 L15,6 L15,1 L10,1 Z M7.10542736e-14,9 L7,9 L7,16 L7.10542736e-14,16 L7.10542736e-14,9 Z M1,15 L6,15 L6,10 L1,10 L1,15 Z M9,9 L16,9 L16,16 L9,16 L9,9 Z M10,15 L15,15 L15,10 L10,10 L10,15 Z" id="path-1"></path>
    </defs>
    <g id="Symbols" stroke="none" stroke-width="1" fill="none" fill-rule="evenodd">
        <g id="Icons-/-Resume-Builder-/-16-/-Portfolio-Designer">
            <mask id="mask-2" fill="white">
                <use xlink:href="#path-1"></use>
            </mask>
            <use id="Combined-Shape" fill="#000000" fill-rule="nonzero" xlink:href="#path-1"></use>
            <g id="Colors-/-Black" mask="url(#mask-2)" fill="#000000">
                <rect id="Rectangle" x="0" y="0" width="16" height="16"></rect>
            </g>
        </g>
    </g>
</svg>