<?xml version="1.0" encoding="UTF-8"?>
<svg width="24px" height="24px" viewBox="0 0 24 24" version="1.1" xmlns="http://www.w3.org/2000/svg" xmlns:xlink="http://www.w3.org/1999/xlink">
    <!-- Generator: Sketch 54.1 (76490) - https://sketchapp.com -->
    <title>24x24/portfolio</title>
    <desc>Created with Sketch.</desc>
    <g id="24x24/portfolio" stroke="none" stroke-width="1" fill="none" fill-rule="evenodd">
        <g id="Group" transform="translate(2.000000, 2.000000)" fill="#FFFFFF" fill-rule="nonzero">
            <path d="M-0.0416666667,0.225 C-0.0416666667,0.0869288125 0.0702621459,-0.025 0.208333333,-0.025 L7.69166667,-0.025 C7.82973785,-0.025 7.94166667,0.0869288125 7.94166667,0.225 L7.94166667,7.70833333 C7.94166667,7.84640452 7.82973785,7.95833333 7.69166667,7.95833333 L0.208333333,7.95833333 C0.0702621459,7.95833333 -0.0416666667,7.84640452 -0.0416666667,7.70833333 L-0.0416666667,0.225 Z M0.458333333,0.475 L0.458333333,7.45833333 L7.44166667,7.45833333 L7.44166667,0.475 L0.458333333,0.475 Z" id="Rectangle-path"></path>
            <path d="M-0.0416666667,12.2916667 C-0.0416666667,12.1535955 0.0702621459,12.0416667 0.208333333,12.0416667 L7.69166667,12.0416667 C7.82973785,12.0416667 7.94166667,12.1535955 7.94166667,12.2916667 L7.94166667,19.775 C7.94166667,19.9130712 7.82973785,20.025 7.69166667,20.025 L0.208333333,20.025 C0.0702621459,20.025 -0.0416666667,19.9130712 -0.0416666667,19.775 L-0.0416666667,12.2916667 Z M0.458333333,19.525 L7.44166667,19.525 L7.44166667,12.5416667 L0.458333333,12.5416667 L0.458333333,19.525 Z" id="Rectangle-path"></path>
            <path d="M12.0583333,12.2916667 C12.0583333,12.1535955 12.1702621,12.0416667 12.3083333,12.0416667 L19.7916667,12.0416667 C19.9297379,12.0416667 20.0416667,12.1535955 20.0416667,12.2916667 L20.0416667,19.775 C20.0416667,19.9130712 19.9297379,20.025 19.7916667,20.025 L12.3083333,20.025 C12.1702621,20.025 12.0583333,19.9130712 12.0583333,19.775 L12.0583333,12.2916667 Z M12.5583333,19.525 L19.5416667,19.525 L19.5416667,12.5416667 L12.5583333,12.5416667 L12.5583333,19.525 Z" id="Rectangle-path"></path>
            <path d="M12.0583333,0.225 C12.0583333,0.0869288125 12.1702621,-0.025 12.3083333,-0.025 L19.7916667,-0.025 C19.9297379,-0.025 20.0416667,0.0869288125 20.0416667,0.225 L20.0416667,7.70833333 C20.0416667,7.84640452 19.9297379,7.95833333 19.7916667,7.95833333 L12.3083333,7.95833333 C12.1702621,7.95833333 12.0583333,7.84640452 12.0583333,7.70833333 L12.0583333,0.225 Z M12.5583333,0.475 L12.5583333,7.45833333 L19.5416667,7.45833333 L19.5416667,0.475 L12.5583333,0.475 Z" id="Rectangle-path"></path>
        </g>
    </g>
</svg>