<?xml version="1.0" encoding="UTF-8"?>
<svg width="24px" height="24px" viewBox="0 0 24 24" version="1.1" xmlns="http://www.w3.org/2000/svg" xmlns:xlink="http://www.w3.org/1999/xlink">
    <!-- Generator: Sketch 54.1 (76490) - https://sketchapp.com -->
    <title>portfolio</title>
    <desc>Created with Sketch.</desc>
    <g id="portfolio" stroke="none" stroke-width="1" fill="none" fill-rule="evenodd">
        <path d="M2.52083333,2.5375 L2.52083333,9.39583333 L9.37916667,9.39583333 L9.37916667,2.5375 L2.52083333,2.5375 Z M2.20833333,1.9125 L9.69166667,1.9125 C9.86425565,1.9125 10.0041667,2.05241102 10.0041667,2.225 L10.0041667,9.70833333 C10.0041667,9.88092232 9.86425565,10.0208333 9.69166667,10.0208333 L2.20833333,10.0208333 C2.03574435,10.0208333 1.89583333,9.88092232 1.89583333,9.70833333 L1.89583333,2.225 C1.89583333,2.05241102 2.03574435,1.9125 2.20833333,1.9125 Z" id="Rectangle-path" fill="#D8D9DC" fill-rule="nonzero"></path>
        <path d="M2.52083333,14.6041667 L2.52083333,21.4625 L9.37916667,21.4625 L9.37916667,14.6041667 L2.52083333,14.6041667 Z M2.20833333,13.9791667 L9.69166667,13.9791667 C9.86425565,13.9791667 10.0041667,14.1190777 10.0041667,14.2916667 L10.0041667,21.775 C10.0041667,21.947589 9.86425565,22.0875 9.69166667,22.0875 L2.20833333,22.0875 C2.03574435,22.0875 1.89583333,21.947589 1.89583333,21.775 L1.89583333,14.2916667 C1.89583333,14.1190777 2.03574435,13.9791667 2.20833333,13.9791667 Z" id="Rectangle-path" fill="#D8D9DC" fill-rule="nonzero"></path>
        <path d="M14.6208333,14.6041667 L14.6208333,21.4625 L21.4791667,21.4625 L21.4791667,14.6041667 L14.6208333,14.6041667 Z M14.3083333,13.9791667 L21.7916667,13.9791667 C21.9642557,13.9791667 22.1041667,14.1190777 22.1041667,14.2916667 L22.1041667,21.775 C22.1041667,21.947589 21.9642557,22.0875 21.7916667,22.0875 L14.3083333,22.0875 C14.1357443,22.0875 13.9958333,21.947589 13.9958333,21.775 L13.9958333,14.2916667 C13.9958333,14.1190777 14.1357443,13.9791667 14.3083333,13.9791667 Z" id="Rectangle-path" fill="#D8D9DC" fill-rule="nonzero"></path>
        <path d="M14.6208333,2.5375 L14.6208333,9.39583333 L21.4791667,9.39583333 L21.4791667,2.5375 L14.6208333,2.5375 Z M14.3083333,1.9125 L21.7916667,1.9125 C21.9642557,1.9125 22.1041667,2.05241102 22.1041667,2.225 L22.1041667,9.70833333 C22.1041667,9.88092232 21.9642557,10.0208333 21.7916667,10.0208333 L14.3083333,10.0208333 C14.1357443,10.0208333 13.9958333,9.88092232 13.9958333,9.70833333 L13.9958333,2.225 C13.9958333,2.05241102 14.1357443,1.9125 14.3083333,1.9125 Z" id="Rectangle-path" fill="#D8D9DC" fill-rule="nonzero"></path>
    </g>
</svg>