<?xml version="1.0" encoding="UTF-8"?>
<svg width="24px" height="24px" viewBox="0 0 24 24" version="1.1" xmlns="http://www.w3.org/2000/svg" xmlns:xlink="http://www.w3.org/1999/xlink">
    <!-- Generator: sketchtool 54.1 (76490) - https://sketchapp.com -->
    <title>1fa18bba-45b6-4ba2-8f79-634240ce6bb8@1.00x</title>
    <desc>Created with sketchtool.</desc>
    <defs>
        <path d="M9.23499152,14.4327132 C6.74405105,13.3605949 5,10.8839699 5,8 C5,4.13400675 8.13400675,1 12,1 C15.8659932,1 19,4.13400675 19,8 C19,10.8839699 17.2559489,13.3605949 14.7650085,14.4327132 C18.3827909,15.5994364 21,18.9940772 21,23 L20,23 C20,18.581722 16.418278,15 12,15 C7.581722,15 4,18.581722 4,23 L3,23 C3,18.9940772 5.61720907,15.5994364 9.23499152,14.4327132 Z M12,14 C15.3137085,14 18,11.3137085 18,8 C18,4.6862915 15.3137085,2 12,2 C8.6862915,2 6,4.6862915 6,8 C6,11.3137085 8.6862915,14 12,14 Z" id="path-1"></path>
    </defs>
    <g id="Symbols" stroke="none" stroke-width="1" fill="none" fill-rule="evenodd">
        <g id="Icons-/-General-/-24-/-Profile">
            <mask id="mask-2" fill="white">
                <use xlink:href="#path-1"></use>
            </mask>
            <use id="Combined-Shape" fill="#000000" fill-rule="nonzero" xlink:href="#path-1"></use>
            <g id="Colors-/-Black" mask="url(#mask-2)" fill="#000000">
                <rect id="Rectangle" x="0" y="0" width="24" height="24"></rect>
            </g>
        </g>
    </g>
</svg>