<?xml version="1.0" encoding="UTF-8"?>
<svg width="24px" height="24px" viewBox="0 0 24 24" version="1.1" xmlns="http://www.w3.org/2000/svg" xmlns:xlink="http://www.w3.org/1999/xlink">
    <!-- Generator: Sketch 54.1 (76490) - https://sketchapp.com -->
    <title>profile</title>
    <desc>Created with Sketch.</desc>
    <g id="profile" stroke="none" stroke-width="1" fill="none" fill-rule="evenodd">
        <path d="M11.2781695,13.442459 C11.2363106,13.609895 11.0666435,13.7116952 10.8992076,13.6698362 C10.7317717,13.6279772 10.6299715,13.4583102 10.6718305,13.2908743 C11.0241163,11.8817309 12.2766911,10.8958333 13.725,10.8958333 L15.7583333,10.8958333 C17.1710828,10.8958333 18.4043186,11.8368459 18.7843445,13.1993778 C18.8307118,13.3656217 18.7335327,13.5379772 18.5672888,13.5843445 C18.401045,13.6307118 18.2286895,13.5335327 18.1823222,13.3672888 C17.8774935,12.2743665 16.8899571,11.5208333 15.7583333,11.5208333 L13.725,11.5208333 C12.5644974,11.5208333 11.5611414,12.3105716 11.2781695,13.442459 Z" id="Shape" fill="#D8D9DC" fill-rule="nonzero"></path>
        <path d="M14.6833333,6.04583333 C13.7484865,6.04583333 12.9875,6.81336126 12.9875,7.75833333 C12.9875,8.7033054 13.7484865,9.47083333 14.6833333,9.47083333 C15.6181802,9.47083333 16.3791667,8.7033054 16.3791667,7.75833333 C16.3791667,6.81336126 15.6181802,6.04583333 14.6833333,6.04583333 Z M14.6833333,5.42083333 C15.9645613,5.42083333 17.0041667,6.46937513 17.0041667,7.75833333 C17.0041667,9.04729154 15.9645613,10.0958333 14.6833333,10.0958333 C13.4021054,10.0958333 12.3625,9.04729154 12.3625,7.75833333 C12.3625,6.46937513 13.4021054,5.42083333 14.6833333,5.42083333 Z" id="Shape" fill="#D8D9DC" fill-rule="nonzero"></path>
        <path d="M7.17916667,3.3125 L7.17916667,22.2375 L22.2708333,22.2375 L22.2708333,3.3125 L7.17916667,3.3125 Z M6.86666667,2.6875 L22.5833333,2.6875 C22.7559223,2.6875 22.8958333,2.82741102 22.8958333,3 L22.8958333,22.55 C22.8958333,22.722589 22.7559223,22.8625 22.5833333,22.8625 L6.86666667,22.8625 C6.69407768,22.8625 6.55416667,22.722589 6.55416667,22.55 L6.55416667,3 C6.55416667,2.82741102 6.69407768,2.6875 6.86666667,2.6875 Z" id="Rectangle-path" fill="#D8D9DC" fill-rule="nonzero"></path>
        <path d="M3.3125,20.5708333 L4.36666667,20.5708333 C4.53925565,20.5708333 4.67916667,20.7107443 4.67916667,20.8833333 C4.67916667,21.0559223 4.53925565,21.1958333 4.36666667,21.1958333 L3,21.1958333 C2.82741102,21.1958333 2.6875,21.0559223 2.6875,20.8833333 L2.6875,4.66666667 C2.6875,4.49407768 2.82741102,4.35416667 3,4.35416667 L4.36666667,4.35416667 C4.53925565,4.35416667 4.67916667,4.49407768 4.67916667,4.66666667 C4.67916667,4.83925565 4.53925565,4.97916667 4.36666667,4.97916667 L3.3125,4.97916667 L3.3125,20.5708333 Z" id="Shape" fill="#D8D9DC" fill-rule="nonzero"></path>
        <path d="M10.975,17.1041667 C10.802411,17.1041667 10.6625,16.9362734 10.6625,16.7291667 C10.6625,16.5220599 10.802411,16.3541667 10.975,16.3541667 L18.475,16.3541667 C18.647589,16.3541667 18.7875,16.5220599 18.7875,16.7291667 C18.7875,16.9362734 18.647589,17.1041667 18.475,17.1041667 L10.975,17.1041667 Z" id="Shape" fill="#D8D9DC" fill-rule="nonzero"></path>
        <path d="M10.975,20.4375 C10.802411,20.4375 10.6625,20.2696068 10.6625,20.0625 C10.6625,19.8553932 10.802411,19.6875 10.975,19.6875 L14.675,19.6875 C14.847589,19.6875 14.9875,19.8553932 14.9875,20.0625 C14.9875,20.2696068 14.847589,20.4375 14.675,20.4375 L10.975,20.4375 Z" id="Shape" fill="#D8D9DC" fill-rule="nonzero"></path>
    </g>
</svg>