<?xml version="1.0" encoding="UTF-8"?>
<svg width="24px" height="24px" viewBox="0 0 24 24" version="1.1" xmlns="http://www.w3.org/2000/svg" xmlns:xlink="http://www.w3.org/1999/xlink">
    <!-- Generator: Sketch 54.1 (76490) - https://sketchapp.com -->
    <title>24x24/profile</title>
    <desc>Created with Sketch.</desc>
    <g id="24x24/profile" stroke="none" stroke-width="1" fill="none" fill-rule="evenodd">
        <g id="Group" transform="translate(1.000000, 1.000000)" fill="#FFFFFF" fill-rule="nonzero">
            <path d="M9.00128563,11.1818839 C9.30707032,9.95874512 10.3917465,9.105 11.64625,9.105 L13.78125,9.105 C15.0045957,9.105 16.0722213,9.91964478 16.4016911,11.1009144 C16.4387849,11.2339095 16.5766693,11.3116528 16.7096644,11.2745589 C16.8426595,11.2374651 16.9204028,11.0995807 16.8833089,10.9665856 C16.4936814,9.56962825 15.2294962,8.605 13.78125,8.605 L11.64625,8.605 C10.1615015,8.605 8.87745026,9.61567255 8.51621437,11.0606161 C8.48272719,11.1945648 8.56416737,11.3302984 8.69811609,11.3637856 C8.83206482,11.3972728 8.96779844,11.3158326 9.00128563,11.1818839 Z" id="Shape"></path>
            <path d="M12.6525,2.85625 C13.9544917,2.85625 15.01125,3.92209215 15.01125,5.2325 C15.01125,6.54290785 13.9544917,7.60875 12.6525,7.60875 C11.3505083,7.60875 10.29375,6.54290785 10.29375,5.2325 C10.29375,3.92209215 11.3505083,2.85625 12.6525,2.85625 Z M12.6525,3.35625 C11.6276132,3.35625 10.79375,4.19728106 10.79375,5.2325 C10.79375,6.26771894 11.6276132,7.10875 12.6525,7.10875 C13.6773868,7.10875 14.51125,6.26771894 14.51125,5.2325 C14.51125,4.19728106 13.6773868,3.35625 12.6525,3.35625 Z" id="Shape"></path>
            <path d="M4.195,0.23625 C4.195,0.0981788125 4.30692881,-0.01375 4.445,-0.01375 L20.9475,-0.01375 C21.0855712,-0.01375 21.1975,0.0981788125 21.1975,0.23625 L21.1975,20.76375 C21.1975,20.9018212 21.0855712,21.01375 20.9475,21.01375 L4.445,21.01375 C4.30692881,21.01375 4.195,20.9018212 4.195,20.76375 L4.195,0.23625 Z M4.695,0.48625 L4.695,20.51375 L20.6975,20.51375 L20.6975,0.48625 L4.695,0.48625 Z" id="Rectangle-path"></path>
            <path d="M0.635,18.76375 L0.635,2.23625 L1.82,2.23625 C1.95807119,2.23625 2.07,2.12432119 2.07,1.98625 C2.07,1.84817881 1.95807119,1.73625 1.82,1.73625 L0.385,1.73625 C0.246928813,1.73625 0.135,1.84817881 0.135,1.98625 L0.135,19.01375 C0.135,19.1518212 0.246928813,19.26375 0.385,19.26375 L1.82,19.26375 C1.95807119,19.26375 2.07,19.1518212 2.07,19.01375 C2.07,18.8756788 1.95807119,18.76375 1.82,18.76375 L0.635,18.76375 Z" id="Shape"></path>
            <path d="M8.75875,14.83625 L16.63375,14.83625 C16.7718212,14.83625 16.88375,14.7243212 16.88375,14.58625 C16.88375,14.4481788 16.7718212,14.33625 16.63375,14.33625 L8.75875,14.33625 C8.62067881,14.33625 8.50875,14.4481788 8.50875,14.58625 C8.50875,14.7243212 8.62067881,14.83625 8.75875,14.83625 Z" id="Shape"></path>
            <path d="M8.75875,16.58625 L16.63375,16.58625 C16.7718212,16.58625 16.88375,16.4743212 16.88375,16.33625 C16.88375,16.1981788 16.7718212,16.08625 16.63375,16.08625 L8.75875,16.08625 C8.62067881,16.08625 8.50875,16.1981788 8.50875,16.33625 C8.50875,16.4743212 8.62067881,16.58625 8.75875,16.58625 Z" id="Shape"></path>
            <path d="M8.75875,18.33625 L12.64375,18.33625 C12.7818212,18.33625 12.89375,18.2243212 12.89375,18.08625 C12.89375,17.9481788 12.7818212,17.83625 12.64375,17.83625 L8.75875,17.83625 C8.62067881,17.83625 8.50875,17.9481788 8.50875,18.08625 C8.50875,18.2243212 8.62067881,18.33625 8.75875,18.33625 Z" id="Shape"></path>
        </g>
    </g>
</svg>