<?xml version="1.0" encoding="UTF-8"?>
<svg width="24px" height="24px" viewBox="0 0 24 24" version="1.1" xmlns="http://www.w3.org/2000/svg" xmlns:xlink="http://www.w3.org/1999/xlink">
    <!-- Generator: sketchtool 54.1 (76490) - https://sketchapp.com -->
    <title>9fa686eb-05b2-40f4-9f7d-9b0a47b807c6@1.00x</title>
    <desc>Created with sketchtool.</desc>
    <defs>
        <path d="M2.70710678,5 L22,5 L23,5 L23,12 L22,12 L22,6 L2.70710678,6 L6.20710678,9.5 L5.5,10.2071068 L1.5,6.20710678 L0.792893219,5.5 L5.5,0.792893219 L6.20710678,1.5 L2.70710678,5 Z M21.2928932,19 L2,19 L1,19 L1,12 L2,12 L2,18 L21.2928932,18 L17.7928932,14.5 L18.5,13.7928932 L22.5,17.7928932 L23.2071068,18.5 L18.5,23.2071068 L17.7928932,22.5 L21.2928932,19 Z" id="path-1"></path>
    </defs>
    <g id="Symbols" stroke="none" stroke-width="1" fill="none" fill-rule="evenodd">
        <g id="Icons-/-General-/-24-/-Rotate">
            <mask id="mask-2" fill="white">
                <use xlink:href="#path-1"></use>
            </mask>
            <use id="Combined-Shape" fill="#000000" xlink:href="#path-1"></use>
            <g id="Colors-/-Black" mask="url(#mask-2)" fill="#000000">
                <rect id="Rectangle" x="0" y="0" width="24" height="24"></rect>
            </g>
        </g>
    </g>
</svg>