<?xml version="1.0" encoding="UTF-8"?>
<svg width="16px" height="16px" viewBox="0 0 16 16" version="1.1" xmlns="http://www.w3.org/2000/svg" xmlns:xlink="http://www.w3.org/1999/xlink">
    <!-- Generator: sketchtool 54.1 (76490) - https://sketchapp.com -->
    <title>0b49af78-8662-4355-936d-87b349779a04@1.00x</title>
    <desc>Created with sketchtool.</desc>
    <defs>
        <path d="M2.70710678,3 L14,3 L15,3 L15,8 L14,8 L14,4 L2.70710678,4 L4.20710678,5.5 L3.5,6.20710678 L1.5,4.20710678 L0.792893219,3.5 L3.5,0.792893219 L4.20710678,1.5 L2.70710678,3 Z M13.2928932,13 L2,13 L1,13 L1,8 L2,8 L2,12 L13.2928932,12 L11.7928932,10.5 L12.5,9.79289322 L14.5,11.7928932 L15.2071068,12.5 L12.5,15.2071068 L11.7928932,14.5 L13.2928932,13 Z" id="path-1"></path>
    </defs>
    <g id="Symbols" stroke="none" stroke-width="1" fill="none" fill-rule="evenodd">
        <g id="Icons-/-General-/-16-/-Rotate">
            <mask id="mask-2" fill="white">
                <use xlink:href="#path-1"></use>
            </mask>
            <use id="Combined-Shape" fill="#000000" xlink:href="#path-1"></use>
            <g id="Colors-/-Black" mask="url(#mask-2)" fill="#000000">
                <rect id="Rectangle" x="0" y="0" width="16" height="16"></rect>
            </g>
        </g>
    </g>
</svg>