<?xml version="1.0" encoding="UTF-8"?>
<svg width="16px" height="16px" viewBox="0 0 16 16" version="1.1" xmlns="http://www.w3.org/2000/svg" xmlns:xlink="http://www.w3.org/1999/xlink">
    <!-- Generator: sketchtool 54.1 (76490) - https://sketchapp.com -->
    <title>e41ca180-b81e-4777-870b-9c2774009943@1.00x</title>
    <desc>Created with sketchtool.</desc>
    <defs>
        <path d="M3.5,5.79289322 L4.14644661,5.14644661 L4.85355339,5.85355339 L3.5,7.20710678 L0.792893219,4.5 L4.5,0.792893219 L6.85355339,3.14644661 L6.14644661,3.85355339 L4.5,2.20710678 L2.20710678,4.5 L3.5,5.79289322 Z M11.5,13.7928932 L13.7928932,11.5 L12.1464466,9.85355339 L12.8535534,9.14644661 L15.2071068,11.5 L11.5,15.2071068 L8.79289322,12.5 L10.1464466,11.1464466 L10.8535534,11.8535534 L10.2071068,12.5 L11.5,13.7928932 Z M9.5,4.20710678 L2,11.7071068 L2,14 L4.29289322,14 L11.7928932,6.5 L9.5,4.20710678 Z M10.2071068,3.5 L12.5,5.79289322 L13.7928932,4.5 L11.5,2.20710678 L10.2071068,3.5 Z M1,11.2928932 L11.5,0.792893219 L15.2071068,4.5 L4.70710678,15 L1,15 L1,11.2928932 Z" id="path-1"></path>
    </defs>
    <g id="Symbols" stroke="none" stroke-width="1" fill="none" fill-rule="evenodd">
        <g id="Icons-/-Resume-Builder-/-16-/-Skills">
            <mask id="mask-2" fill="white">
                <use xlink:href="#path-1"></use>
            </mask>
            <use id="Combined-Shape" fill="#000000" fill-rule="nonzero" xlink:href="#path-1"></use>
            <g id="Colors-/-Black" mask="url(#mask-2)" fill="#000000">
                <rect id="Rectangle" x="0" y="0" width="16" height="16"></rect>
            </g>
        </g>
    </g>
</svg>