<?xml version="1.0" encoding="UTF-8"?>
<svg width="24px" height="24px" viewBox="0 0 24 24" version="1.1" xmlns="http://www.w3.org/2000/svg" xmlns:xlink="http://www.w3.org/1999/xlink">
    <!-- Generator: Sketch 54.1 (76490) - https://sketchapp.com -->
    <title>skills</title>
    <desc>Created with Sketch.</desc>
    <g id="skills" stroke="none" stroke-width="1" fill="none" fill-rule="evenodd">
        <path d="M17.8621593,14.8374342 C17.7402328,14.7152831 17.7404148,14.5174191 17.8625658,14.3954926 C17.9847169,14.2735661 18.1825809,14.2737481 18.3045074,14.3958992 L22.8295074,18.9292325 C22.9513546,19.0513041 22.9512637,19.2490114 22.8293042,19.3709709 L19.3709709,22.8293042 C19.2490114,22.9512637 19.0513041,22.9513546 18.9292325,22.8295074 L14.3958992,18.3045074 C14.2737481,18.1825809 14.2735661,17.9847169 14.3954926,17.8625658 C14.5174191,17.7404148 14.7152831,17.7402328 14.8374342,17.8621593 L19.1497968,22.1665948 L22.1665948,19.1497968 L17.8621593,14.8374342 Z" id="Shape" fill="#D8D9DC" fill-rule="nonzero"></path>
        <path d="M3.50007188,6.51686986 L7.80450739,10.8292325 C7.92643391,10.9513836 7.92625188,11.1492475 7.80410082,11.2711741 C7.68194976,11.3931006 7.48408579,11.3929186 7.36215927,11.2707675 L2.83715927,6.73743416 C2.71531206,6.61536255 2.715403,6.41765526 2.83736246,6.2956958 L6.2956958,2.83736246 C6.41765526,2.715403 6.61536255,2.71531206 6.73743416,2.83715927 L11.2707675,7.36215927 C11.3929186,7.48408579 11.3931006,7.68194976 11.2711741,7.80410082 C11.1492475,7.92625188 10.9513836,7.92643391 10.8292325,7.80450739 L6.51686986,3.50007188 L3.50007188,6.51686986 Z" id="Shape" fill="#D8D9DC" fill-rule="nonzero"></path>
        <path d="M5.9543042,9.42097087 C5.83226536,9.54300971 5.63440131,9.54300971 5.51236246,9.42097087 C5.39032362,9.29893203 5.39032362,9.10106797 5.51236246,8.97902913 L7.2456958,7.2456958 C7.36773464,7.12365696 7.56559869,7.12365696 7.68763754,7.2456958 C7.80967638,7.36773464 7.80967638,7.56559869 7.68763754,7.68763754 L5.9543042,9.42097087 Z" id="Shape" fill="#D8D9DC" fill-rule="nonzero"></path>
        <path d="M7.8043042,11.2709709 C7.68226536,11.3930097 7.48440131,11.3930097 7.36236246,11.2709709 C7.24032362,11.148932 7.24032362,10.951068 7.36236246,10.8290291 L8.22902913,9.96236246 C8.35106797,9.84032362 8.54893203,9.84032362 8.67097087,9.96236246 C8.79300971,10.0844013 8.79300971,10.2822654 8.67097087,10.4043042 L7.8043042,11.2709709 Z" id="Shape" fill="#D8D9DC" fill-rule="nonzero"></path>
        <path d="M16.6871044,20.1465027 C16.5647719,20.2682471 16.3669084,20.2677703 16.245164,20.1454378 C16.1234196,20.0231052 16.1238963,19.8252417 16.2462289,19.7034973 L17.9795622,17.9784973 C18.1018948,17.8567529 18.2997583,17.8572297 18.4215027,17.9795622 C18.5432471,18.1018948 18.5427703,18.2997583 18.4204378,18.4215027 L16.6871044,20.1465027 Z" id="Shape" fill="#D8D9DC" fill-rule="nonzero"></path>
        <path d="M14.8376375,18.3043042 C14.7155987,18.426343 14.5177346,18.426343 14.3956958,18.3043042 C14.273657,18.1822654 14.273657,17.9844013 14.3956958,17.8623625 L15.2623625,16.9956958 C15.3844013,16.873657 15.5822654,16.873657 15.7043042,16.9956958 C15.826343,17.1177346 15.826343,17.3155987 15.7043042,17.4376375 L14.8376375,18.3043042 Z" id="Shape" fill="#D8D9DC" fill-rule="nonzero"></path>
        <path d="M4.4125,17.4833333 C4.4125,17.4004532 4.44542401,17.3209676 4.50402913,17.2623625 L17.2623625,4.50402913 C17.3844013,4.38199029 17.5822654,4.38199029 17.7043042,4.50402913 L21.1626375,7.96236246 C21.2846764,8.08440131 21.2846764,8.28226536 21.1626375,8.4043042 L8.4043042,21.1626375 C8.34569908,21.2212427 8.26621349,21.2541667 8.18333333,21.2541667 L4.725,21.2541667 C4.55241102,21.2541667 4.4125,21.1142557 4.4125,20.9416667 L4.4125,17.4833333 Z M5.0375,17.6127751 L5.0375,20.6291667 L8.0538916,20.6291667 L20.4997249,8.18333333 L17.4833333,5.16694174 L5.0375,17.6127751 Z" id="Shape" fill="#D8D9DC" fill-rule="nonzero"></path>
        <path d="M6.67097087,19.4293042 C6.54893203,19.551343 6.35106797,19.551343 6.22902913,19.4293042 C6.10699029,19.3072654 6.10699029,19.1094013 6.22902913,18.9873625 L17.3206958,7.8956958 C17.4427346,7.77365696 17.6405987,7.77365696 17.7626375,7.8956958 C17.8846764,8.01773464 17.8846764,8.21559869 17.7626375,8.33763754 L6.67097087,19.4293042 Z" id="Shape" fill="#D8D9DC" fill-rule="nonzero"></path>
    </g>
</svg>