<?xml version="1.0" encoding="UTF-8"?>
<svg width="24px" height="24px" viewBox="0 0 24 24" version="1.1" xmlns="http://www.w3.org/2000/svg" xmlns:xlink="http://www.w3.org/1999/xlink">
    <!-- Generator: Sketch 54.1 (76490) - https://sketchapp.com -->
    <title>24x24/skills</title>
    <desc>Created with Sketch.</desc>
    <g id="24x24/skills" stroke="none" stroke-width="1" fill="none" fill-rule="evenodd">
        <g id="Group" transform="translate(1.000000, 1.000000)" fill="#FFFFFF" fill-rule="nonzero">
            <path d="M17.9481708,21.3991092 L13.1382807,16.5980608 C13.0405598,16.5005195 12.8822686,16.5006652 12.7847274,16.598386 C12.6871862,16.6961069 12.6873318,16.854398 12.7850527,16.9519392 L17.7717193,21.9294392 C17.8693766,22.026917 18.0275425,22.0268443 18.12511,21.9292767 L21.9292767,18.12511 C22.0268443,18.0275425 22.026917,17.8693766 21.9294392,17.7717193 L16.9519392,12.7850527 C16.854398,12.6873318 16.6961069,12.6871862 16.598386,12.7847274 C16.5006652,12.8822686 16.5005195,13.0405598 16.5980608,13.1382807 L21.3991092,17.9481708 L17.9481708,21.3991092 Z" id="Shape"></path>
            <path d="M0.600890837,4.05182922 L4.05182922,0.600890837 L8.86171934,5.40193925 C8.95944019,5.49948046 9.11773137,5.49933484 9.21527258,5.40161399 C9.3128138,5.30389314 9.31266817,5.14560197 9.21494733,5.04806075 L4.22828066,0.0705607515 C4.13062337,-0.0269170175 3.97245754,-0.0268442641 3.87488997,0.0707233047 L0.0707233047,3.87488997 C-0.0268442641,3.97245754 -0.0269170175,4.13062337 0.0705607515,4.22828066 L5.04806075,9.21494733 C5.14560197,9.31266817 5.30389314,9.3128138 5.40161399,9.21527258 C5.49933484,9.11773137 5.49948046,8.95944019 5.40193925,8.86171934 L0.600890837,4.05182922 Z" id="Shape"></path>
            <path d="M3.3667767,7.18011003 L5.27344336,5.27344336 C5.37107443,5.17581229 5.37107443,5.01752104 5.27344336,4.91988997 C5.17581229,4.8222589 5.01752104,4.8222589 4.91988997,4.91988997 L3.0132233,6.82655664 C2.91559223,6.92418771 2.91559223,7.08247896 3.0132233,7.18011003 C3.11085438,7.2777411 3.26914562,7.2777411 3.3667767,7.18011003 Z" id="Shape"></path>
            <path d="M5.4017767,9.21511003 L6.35511003,8.2617767 C6.4527411,8.16414562 6.4527411,8.00585438 6.35511003,7.9082233 C6.25747896,7.81059223 6.09918771,7.81059223 6.00155664,7.9082233 L5.0482233,8.86155664 C4.95059223,8.95918771 4.95059223,9.11747896 5.0482233,9.21511003 C5.14585438,9.3127411 5.30414562,9.3127411 5.4017767,9.21511003 Z" id="Shape"></path>
            <path d="M15.1730169,18.9780355 L17.0796835,17.0805355 C17.1775496,16.9831399 17.177931,16.8248492 17.0805355,16.7269831 C16.9831399,16.6291171 16.8248492,16.6287356 16.7269831,16.7261312 L14.8203165,18.6236312 C14.7224504,18.7210267 14.722069,18.8793175 14.8194645,18.9771835 C14.9168601,19.0750496 15.0751508,19.075431 15.1730169,18.9780355 Z" id="Shape"></path>
            <path d="M13.1384434,16.9517767 L14.0917767,15.9984434 C14.1894078,15.9008123 14.1894078,15.742521 14.0917767,15.64489 C13.9941456,15.5472589 13.8358544,15.5472589 13.7382233,15.64489 L12.78489,16.5982233 C12.6872589,16.6958544 12.6872589,16.8541456 12.78489,16.9517767 C12.882521,17.0494078 13.0408123,17.0494078 13.1384434,16.9517767 Z" id="Shape"></path>
            <path d="M1.83083333,16.115 L1.83083333,19.9191667 C1.83083333,20.0572379 1.94276215,20.1691667 2.08083333,20.1691667 L5.885,20.1691667 L6.0617767,20.0959434 L20.0959434,6.0617767 C20.1935744,5.96414562 20.1935744,5.80585438 20.0959434,5.7082233 L16.2917767,1.90405664 C16.1941456,1.80642557 16.0358544,1.80642557 15.9382233,1.90405664 L1.90405664,15.9382233 L1.83083333,16.115 Z M16.115,2.43438672 L19.5656133,5.885 L5.78144661,19.6691667 L2.33083333,19.6691667 L2.33083333,16.2185534 L16.115,2.43438672 Z" id="Shape"></path>
            <path d="M4.15511003,18.1892767 L16.3559434,5.98844336 C16.4535744,5.89081229 16.4535744,5.73252104 16.3559434,5.63488997 C16.2583123,5.5372589 16.100021,5.5372589 16.00239,5.63488997 L3.80155664,17.8357233 C3.70392557,17.9333544 3.70392557,18.0916456 3.80155664,18.1892767 C3.89918771,18.2869078 4.05747896,18.2869078 4.15511003,18.1892767 Z" id="Shape"></path>
        </g>
    </g>
</svg>