<?xml version="1.0" encoding="UTF-8"?>
<svg width="24px" height="24px" viewBox="0 0 24 24" version="1.1" xmlns="http://www.w3.org/2000/svg" xmlns:xlink="http://www.w3.org/1999/xlink">
    <!-- Generator: Sketch 54.1 (76490) - https://sketchapp.com -->
    <title>skype</title>
    <desc>Created with Sketch.</desc>
    <g id="skype" stroke="none" stroke-width="1" fill="none" fill-rule="evenodd">
        <path d="M15.3558645,19.1054686 C14.4075505,19.5058678 13.2887421,19.705 12.01,19.705 C10.500486,19.705 9.19614794,19.4287247 8.16076994,18.8893958 C7.41558608,18.4839281 6.8054036,17.9388318 6.3487314,17.2591336 C5.86911469,16.5452855 5.625,15.8677986 5.625,15.19 C5.625,14.701793 5.81127667,14.2736835 6.16969916,13.9400584 C6.52257323,13.599787 6.97701934,13.425 7.5,13.425 C7.95035708,13.425 8.34695468,13.562662 8.64006915,13.831917 C8.93109802,14.0744411 9.16412484,14.4139122 9.35467939,14.8622803 C9.51943777,15.2467165 9.70372168,15.5732956 9.90133395,15.8367897 C10.0586053,16.049106 10.2972743,16.233815 10.6240496,16.3927868 C10.9357904,16.5444445 11.3810833,16.625 11.95,16.625 C12.733353,16.625 13.3456652,16.4624589 13.7978091,16.1408075 C14.2115979,15.8568348 14.395,15.5481381 14.395,15.17 C14.395,14.8644521 14.3078008,14.6481308 14.1196992,14.4599416 C13.8856744,14.2342749 13.577707,14.0622379 13.1759849,13.9372472 C12.7591796,13.8042242 12.1959584,13.6651019 11.3304824,13.4764723 C10.1778059,13.2263632 9.27709615,12.9579066 8.57944617,12.6434509 C7.7837784,12.2946651 7.1399722,11.8254504 6.67513062,11.2416831 C6.1791742,10.6104658 5.935,9.84742145 5.935,8.94 C5.935,8.08894422 6.20133361,7.29844339 6.71239761,6.63183817 C7.21520417,5.97600353 7.94106718,5.4739028 8.86787634,5.12904653 C9.7611997,4.79273656 10.814795,4.625 12.01,4.625 C12.9809877,4.625 13.8213537,4.73529804 14.5169889,4.96371557 C15.2636079,5.20887404 15.8556164,5.50225878 16.3242606,5.8771742 C16.8021967,6.25952305 17.1677003,6.67449334 17.4201767,7.12221257 C17.6596971,7.56703621 17.785,8.02745157 17.785,8.48 C17.785,8.9496009 17.6057322,9.37216068 17.2597755,9.73047294 C16.9068256,10.0960283 16.4584181,10.285 15.94,10.285 C15.4743414,10.285 15.0980868,10.1670219 14.8084491,9.9168417 C14.5787074,9.72337498 14.3544622,9.42161292 14.1074072,8.98322541 C13.8852006,8.55658877 13.6013869,8.20639924 13.2867942,7.96366657 C13.0362763,7.76472587 12.5435856,7.655 11.81,7.655 C11.1496127,7.655 10.6200172,7.78684023 10.2446274,8.03424928 C9.9206612,8.24520404 9.785,8.46095438 9.785,8.71 C9.785,8.86435361 9.82164279,8.97710065 9.89808298,9.06993085 C10.0109127,9.20532657 10.170315,9.32733821 10.3926189,9.44709205 C10.6239607,9.56704704 10.8656982,9.6601936 11.1397234,9.73850277 C11.4812898,9.83272798 11.9613235,9.95210146 12.5394778,10.0835191 C13.3952588,10.2691101 14.1642527,10.4728171 14.8354326,10.6932083 C15.552518,10.9252065 16.1792628,11.2093662 16.6850458,11.5360236 C17.2337418,11.8943556 17.6741864,12.363216 17.9555912,12.8939479 C18.2692841,13.4429105 18.425,14.1158257 18.4247611,14.9033843 C18.3916556,15.8303364 18.1210462,16.6669351 17.6066804,17.3958064 C17.0971197,18.1219893 16.3339018,18.6970606 15.3558645,19.1054686 Z M16.9930034,16.9646442 C17.4222326,16.3565668 17.6472198,15.6611518 17.675,14.89 C17.675,14.2391743 17.5487715,13.6936868 17.2987441,13.2557684 C17.0728938,12.8301274 16.7203702,12.4548604 16.276553,12.1650148 C15.831306,11.8774595 15.2631442,11.6198607 14.6030111,11.4062844 C13.9566196,11.1940365 13.2123159,10.9968699 12.3768921,10.8156748 C11.7845192,10.6810446 11.2935425,10.5589499 10.9369796,10.4605715 C10.6137755,10.3682275 10.3257332,10.2572387 10.0422126,10.1101767 C9.73608663,9.94533962 9.50198498,9.76615071 9.32052616,9.54839022 C9.1266168,9.31292885 9.035,9.03103101 9.035,8.71 C9.035,8.18711791 9.31203868,7.74652627 9.83363249,7.40689067 C10.341526,7.0721427 11.0129297,6.905 11.81,6.905 C12.6975909,6.905 13.3397723,7.04801856 13.7490513,7.37308165 C14.1490765,7.68167251 14.5018515,8.11695142 14.7666169,8.62575455 C14.9675615,8.98197447 15.1430088,9.21807019 15.2951075,9.34619137 C15.4402185,9.47151453 15.6426857,9.535 15.94,9.535 C16.2556497,9.535 16.5091047,9.42818685 16.7202245,9.20952706 C16.9342678,8.98783932 17.035,8.7503991 17.035,8.48 C17.035,8.15673448 16.9426064,7.81724167 16.7633831,7.48424545 C16.5639243,7.13065947 16.261884,6.78774152 15.8557394,6.4628258 C15.465372,6.15053192 14.951013,5.89562833 14.2830111,5.67628443 C13.6706718,5.47521781 12.9071076,5.375 12.01,5.375 C10.900205,5.375 9.9351365,5.52864275 9.13077514,5.83145819 C8.32811225,6.13012346 7.71915015,6.5513604 7.30760239,7.08816183 C6.89725966,7.62339147 6.685,8.2533962 6.685,8.94 C6.685,9.68507855 6.87677672,10.2843808 7.26335505,10.7764025 C7.64619833,11.2571824 8.19112967,11.6543357 8.88408694,11.9581196 C9.52936748,12.2489503 10.3837241,12.5035914 11.4898561,12.7436013 C12.377328,12.9370247 12.9586935,13.0806289 13.4014,13.2219287 C13.9067512,13.3791491 14.3170457,13.6083481 14.645165,13.924835 C14.9806408,14.2603107 15.145,14.6680479 15.145,15.17 C15.145,15.8110698 14.8291967,16.34262 14.2274081,16.7555466 C13.6414268,17.1724948 12.8785648,17.375 11.95,17.375 C11.2764167,17.375 10.7227296,17.2748355 10.2959504,17.0672132 C9.86729644,16.8586788 9.53369657,16.6005015 9.3,16.285 C9.06618217,15.9732429 8.85266749,15.5948625 8.66487591,15.1566777 C8.51739056,14.8096534 8.35108019,14.5673741 8.14660326,14.3964328 C7.98639478,14.249575 7.77154769,14.175 7.5,14.175 C7.16698066,14.175 6.9000808,14.2776538 6.68553195,14.4844602 C6.47475431,14.6807015 6.375,14.9099614 6.375,15.19 C6.375,15.7038868 6.56888328,16.2419673 6.9712686,16.8408664 C7.35913522,17.4181563 7.87806917,17.8817373 8.51322541,18.2274072 C9.42764446,18.7036671 10.6142256,18.955 12.01,18.955 C13.1937579,18.955 14.2142713,18.7733629 15.0654993,18.4139588 C15.9208836,18.0567653 16.5700586,17.5675656 16.9930034,16.9646442 Z" id="Shape" fill="#D8D9DC" fill-rule="nonzero"></path>
    </g>
</svg>