<?xml version="1.0" encoding="UTF-8"?>
<svg width="16px" height="16px" viewBox="0 0 16 16" version="1.1" xmlns="http://www.w3.org/2000/svg" xmlns:xlink="http://www.w3.org/1999/xlink">
    <!-- Generator: Sketch 54.1 (76490) - https://sketchapp.com -->
    <title>16x16/skype</title>
    <desc>Created with Sketch.</desc>
    <g id="16x16/skype" stroke="none" stroke-width="1" fill="none" fill-rule="evenodd">
        <path d="M11.8959719,15.6542553 C10.9079835,16.0662864 9.73041749,16.2726034 8.38838742,16.2726034 C6.79637637,16.2726034 5.43272499,15.9881568 4.36044037,15.4311251 C3.59213142,15.0238806 2.95499576,14.462155 2.47487678,13.7652795 C1.98121815,13.0487518 1.72739664,12.3472939 1.72739664,11.659292 C1.72739664,11.1785783 1.91196148,10.7616236 2.27034081,10.438753 C2.61911544,10.1101613 3.07675935,9.93978602 3.60045916,9.93978602 C4.04724961,9.93978602 4.43212954,10.0717425 4.72960162,10.3346036 C5.02373436,10.5790732 5.26275929,10.9218894 5.45136589,11.3658009 C5.6286469,11.7782433 5.83160634,12.1311882 6.04882121,12.4086445 C6.23714116,12.6526001 6.51296357,12.8650036 6.86484008,13.032666 C7.21141455,13.197802 7.70947919,13.2849188 8.33459047,13.2849188 C9.19364721,13.2849188 9.87551367,13.1089511 10.3718615,12.7624453 C10.8440386,12.4362197 11.0611669,12.0772593 11.0611669,11.6460177 C11.0611669,11.2936519 10.9556123,11.0344678 10.7299107,10.8223089 C10.4685252,10.5760493 10.1164025,10.3826338 9.67710155,10.2463516 C9.21748257,10.0992246 8.58354817,9.94516008 7.69986575,9.76227877 C6.50980728,9.51058254 5.54280333,9.22492611 4.7983177,8.89686424 C3.97045573,8.54466766 3.30517154,8.06454927 2.82333967,7.46309642 C2.31368999,6.83072596 2.06362755,6.05452482 2.06362755,5.12831858 C2.06362755,4.26143941 2.33724965,3.45854709 2.86057862,2.78419716 C3.37975931,2.11519262 4.13690024,1.59564487 5.09325999,1.24861775 C6.0317429,0.902991466 7.14105433,0.727396638 8.38838742,0.727396638 C9.40071038,0.727396638 10.2829111,0.840969869 11.0125702,1.07196789 C11.7680747,1.31114811 12.3961236,1.61935732 12.898487,2.00500326 C13.400961,2.39073402 13.7804597,2.81523941 14.033273,3.27025659 C14.280717,3.71561013 14.4038148,4.17214429 14.4038148,4.63716814 C14.4038148,5.09500166 14.2270173,5.50745226 13.8831447,5.86228032 C13.5340324,6.22251499 13.0859614,6.4097715 12.5711,6.4097715 C12.1027853,6.4097715 11.7318259,6.29560029 11.4524542,6.05228734 C11.215783,5.84983972 10.9819141,5.53966508 10.7435494,5.1105693 C10.4913271,4.63757889 10.1802865,4.25853322 9.83629965,4.00384629 C9.53607304,3.77337337 8.97847664,3.64870956 8.18664887,3.64870956 C7.46077806,3.64870956 6.87774636,3.79334129 6.45048253,4.0704553 C6.07215023,4.31207502 5.90389726,4.57375308 5.90389726,4.87610619 C5.90389726,5.05913773 5.95349212,5.20598744 6.05230469,5.32125581 C6.18606575,5.47528097 6.37209035,5.61585389 6.61723872,5.74899525 C6.86526325,5.87722335 7.13736207,5.97909106 7.43421762,6.05901571 L7.70199629,6.12835952 C7.85898058,6.16885113 7.92940474,6.18686583 8.03968537,6.21462534 C8.33116028,6.28799452 8.62106803,6.35782334 8.92842175,6.42787188 C9.80076931,6.61050891 10.6189203,6.82336755 11.360862,7.0582581 C12.084244,7.28302795 12.7422317,7.5798109 13.2951683,7.92449971 C13.8588201,8.28111623 14.3079255,8.75344782 14.6099729,9.30720973 C14.9303044,9.86768546 15.0897259,10.5507201 15.0894373,11.353249 C15.045746,12.3019563 14.7630699,13.1567677 14.2324302,13.9011998 C13.7061968,14.6449924 12.9145234,15.2353815 11.8959719,15.6542553 Z M13.7876101,13.5859448 C14.2566045,12.9281428 14.505825,12.1746361 14.5445192,11.340708 C14.5445192,10.6406516 14.4067482,10.0503778 14.1339907,9.57303333 C13.8743591,9.0971308 13.4900934,8.69299224 13.0052097,8.38620422 C12.4942873,8.0677128 11.8788874,7.79013893 11.1976963,7.57847459 C10.4720873,7.34875879 9.67155057,7.14048285 8.81202006,6.96048627 C8.49576474,6.88845337 8.2018932,6.8176698 7.9065991,6.74333926 C7.79505848,6.7152626 7.72375422,6.69702276 7.56552202,6.65620907 L7.2953881,6.58624227 C6.95985014,6.49592196 6.65160002,6.38052002 6.36198998,6.23072981 C6.05843696,6.0659468 5.82129537,5.88674638 5.63952212,5.67742698 C5.45098513,5.45750814 5.35869054,5.1842251 5.35869054,4.87610619 C5.35869054,4.37154056 5.63222305,3.94612484 6.15541572,3.61199891 C6.67741474,3.27343188 7.36242361,3.10350283 8.18664887,3.10350283 C9.08745674,3.10350283 9.752504,3.25218982 10.1644869,3.56850646 C10.5737815,3.87148541 10.936202,4.31314455 11.2223825,4.84990261 C11.4295241,5.22271921 11.6259515,5.48323599 11.8086837,5.63955847 C11.9806994,5.78936331 12.2250403,5.86456478 12.5711,5.86456478 C12.9393098,5.86456478 13.2458579,5.73645312 13.4916286,5.48285242 C13.7395224,5.22706101 13.8586081,4.94924613 13.8586081,4.63716814 C13.8586081,4.26671331 13.7599857,3.90095119 13.5566881,3.53505314 C13.3418347,3.14835673 13.0121919,2.77961996 12.5664947,2.43747461 C12.1184554,2.09353131 11.5466601,1.81292808 10.8480161,1.59174893 C10.1766358,1.37920102 9.34861917,1.27260336 8.38838742,1.27260336 C7.2021998,1.27260336 6.15612746,1.43818797 5.28045502,1.76067897 C4.41519775,2.07465141 3.74382154,2.53534767 3.29129924,3.11845771 C2.84235922,3.69695171 2.60883428,4.38218652 2.60883428,5.12831858 C2.60883428,5.93489419 2.81986619,6.58994345 3.24834284,7.12159672 C3.67134305,7.64961055 4.26312141,8.07668169 5.01495321,8.39655707 C5.72337093,8.70870221 6.65636479,8.98431194 7.81151812,9.22862841 C8.71133539,9.4148462 9.36134964,9.57281854 9.84097425,9.72636119 C10.3531878,9.88524912 10.7780974,10.1186453 11.1035522,10.425267 C11.4418752,10.7432892 11.6063736,11.1472071 11.6063736,11.6460177 C11.6063736,12.2700858 11.2924295,12.7891037 10.6828615,13.2102484 C10.086766,13.6263938 9.29731543,13.8301255 8.33459047,13.8301255 C7.63495194,13.8301255 7.05990199,13.7295432 6.63032101,13.5248562 C6.20462605,13.3220208 5.86068762,13.0571629 5.61838719,12.7432689 C5.37170818,12.4281886 5.14546463,12.0347529 4.9500222,11.5800521 C4.79300681,11.2105 4.60354935,10.9387748 4.37490873,10.7485802 C4.17578585,10.5727346 3.91986766,10.4849927 3.60045916,10.4849927 C3.21180029,10.4849927 2.88862944,10.6053053 2.63976693,10.8396748 C2.39195916,11.0629917 2.27260336,11.3326311 2.27260336,11.659292 C2.27260336,12.2270424 2.48879101,12.8244959 2.92384384,13.4559594 C3.35369235,14.079869 3.92414479,14.5828039 4.61377441,14.9483549 C5.60010213,15.4607238 6.87854525,15.7273966 8.38838742,15.7273966 C9.66223388,15.7273966 10.7691854,15.5334517 11.687362,15.1505387 C12.6166306,14.7683787 13.3248936,14.2401355 13.7876101,13.5859448 Z" id="Shape" fill="#FFFFFF" fill-rule="nonzero"></path>
    </g>
</svg>