<?xml version="1.0" encoding="UTF-8"?>
<svg width="24px" height="24px" viewBox="0 0 24 24" version="1.1" xmlns="http://www.w3.org/2000/svg" xmlns:xlink="http://www.w3.org/1999/xlink">
    <!-- Generator: sketchtool 57.1 (101010) - https://sketch.com -->
    <title>76c26895-1a11-4930-ae44-787d0fbebcce@1.00x</title>
    <desc>Created with sketchtool.</desc>
    <defs>
        <path d="M12.4432776,1.07650028 L13.5059377,1.43456842 C14.7512534,1.85418323 15.4670263,3.17225273 15.1486551,4.45957222 L14.2047989,8.26829033 L16.7965643,7.79290245 C19.1949516,7.3520947 21.4927336,8.9601485 21.928804,11.3845911 C22.023732,11.9123668 22.023732,12.4531215 21.928804,12.9808972 L21.0053427,18.1151114 C20.496555,20.9438443 18.0593336,23 15.2151236,23 L12.7702943,23 C10.3221008,23.0009538 8.8699562,22.505197 6.41386035,21.5127185 L2.47128678,21.5127185 C1.65871753,21.5127185 1,20.8468449 1,20.0254481 L1,11.1018259 C1,10.2804291 1.65871753,9.61455548 2.47128678,9.61455548 L6.0759394,9.61427002 L10.7005812,1.7495561 C11.0485406,1.13401203 11.7779333,0.852309475 12.4432776,1.07650028 Z M11.562595,2.25644101 L7,10.015 L7,20.67 L7.14096172,20.7269425 C9.6617881,21.7301691 10.8125499,22.0007627 12.7702943,22.0000016 L15.2151236,22.0000016 C17.5734778,22.0000016 19.5977028,20.2922714 20.0211361,17.9380879 L20.9445974,12.8038737 C21.0184675,12.3931743 21.0184675,11.972314 20.9445974,11.5616147 C20.6061568,9.67996961 18.8288186,8.43613727 16.9769769,8.77649347 L12.8615441,9.5313561 L13.2341593,8.02775161 L14.177902,4.2194921 C14.3717909,3.43551114 13.9371333,2.63510502 13.1866231,2.38221719 L12.1239631,2.02414905 C11.9143274,1.95351135 11.6836403,2.04260618 11.562595,2.25644101 Z M6,20.512 L6,10.614 L2.47128678,10.6145555 C2.21343543,10.6145555 2,10.8303096 2,11.1018259 L2,20.0254481 C2,20.2969644 2.21343543,20.5127185 2.47128678,20.5127185 L6,20.512 Z" id="path-1"></path>
    </defs>
    <g id="Symbols" stroke="none" stroke-width="1" fill="none" fill-rule="evenodd">
        <g id="Icons-/-General-/-24-/-Thumbs-Up">
            <mask id="mask-2" fill="white">
                <use xlink:href="#path-1"></use>
            </mask>
            <use id="Combined-Shape" fill="#455065" fill-rule="nonzero" xlink:href="#path-1"></use>
            <g id="Colors-/-305-Dark-Grey" mask="url(#mask-2)" fill="#455065">
                <rect id="Rectangle" x="0" y="0" width="24" height="24"></rect>
            </g>
        </g>
    </g>
</svg>