<?xml version="1.0" encoding="UTF-8"?>
<svg width="16px" height="16px" viewBox="0 0 16 16" version="1.1" xmlns="http://www.w3.org/2000/svg" xmlns:xlink="http://www.w3.org/1999/xlink">
    <!-- Generator: sketchtool 57.1 (101010) - https://sketch.com -->
    <title>5e097604-0b52-4919-bf05-4c4888eb0a7e@1.00x</title>
    <desc>Created with sketchtool.</desc>
    <defs>
        <path d="M7.00322004,1 C8.66720116,0.999356829 10.3338678,1.33269016 12.00322,2.00000563 L14.00322,2.00000563 C14.5555048,2.00000563 15.00322,2.44772088 15.00322,3.00000563 L15.00322,9.00000563 C15.00322,9.55229038 14.5555048,10.0000056 14.00322,10.0000056 L11.55322,10.0001976 L8.40995668,15.2882165 C8.17345666,15.7020915 7.67770509,15.8915006 7.22548577,15.7407609 L6.50322004,15.5000056 C5.6568074,15.2178681 5.17031291,14.3316341 5.38670253,13.4660757 L6.02822004,10.9051976 L4.26665631,11.2248354 C2.63652727,11.5212225 1.07477737,10.440011 0.77839027,8.80988198 C0.71386991,8.45502 0.71386991,8.09143133 0.77839027,7.73656935 L1.40604581,4.28446388 C1.75185723,2.38250109 3.40838087,1 5.34152545,1 L7.00322004,1 Z M12,9 L14.00322,9.00000563 L14.00322,3.00000563 L11.999,2.99999907 L12,9 Z M7.00322004,2.00000007 L5.34152545,2.00000007 C3.89166858,2.00000007 2.64927456,3.03687569 2.38991572,4.46334932 L1.76226018,7.91545479 C1.71924661,8.15202944 1.71924661,8.39442189 1.76226018,8.63099654 C1.95985158,9.71774924 3.00101818,10.4385569 4.08812043,10.240902 L7.3749313,9.64450626 L6.99824674,11.1481959 L6.35684503,13.7086113 C6.26718908,14.0672351 6.46875663,14.4344253 6.8194478,14.5513223 L7.54171353,14.7920776 L7.55035195,14.7772569 L10.9842804,9.00024214 L11,9 L10.9997243,2.69283252 C9.66013824,2.22956948 8.32927196,1.99948758 7.00322004,2.00000007 Z" id="path-1"></path>
    </defs>
    <g id="Symbols" stroke="none" stroke-width="1" fill="none" fill-rule="evenodd">
        <g id="Icons-/-General-/-16-/-Thumbs-Down">
            <mask id="mask-2" fill="white">
                <use xlink:href="#path-1"></use>
            </mask>
            <use id="Combined-Shape" fill="#455065" fill-rule="nonzero" xlink:href="#path-1"></use>
            <g id="Colors-/-305-Dark-Grey" mask="url(#mask-2)" fill="#455065">
                <rect id="Rectangle" x="0" y="0" width="16" height="16"></rect>
            </g>
        </g>
    </g>
</svg>