<?xml version="1.0" encoding="UTF-8"?>
<svg width="16px" height="16px" viewBox="0 0 16 16" version="1.1" xmlns="http://www.w3.org/2000/svg" xmlns:xlink="http://www.w3.org/1999/xlink">
    <!-- Generator: Sketch 54.1 (76490) - https://sketchapp.com -->
    <title>16x16/time</title>
    <desc>Created with Sketch.</desc>
    <g id="16x16/time" stroke="none" stroke-width="1" fill="none" fill-rule="evenodd">
        <g id="time" fill="#FFFFFF" fill-rule="nonzero">
            <path d="M8,16 C12.4189059,16 16,12.4176634 16,8 C16,3.58233656 12.4189059,0 8,0 C3.58109409,0 0,3.58233656 0,8 C0,12.4176634 3.58109409,16 8,16 Z M8,15.4677755 C3.87925226,15.4677755 0.537589248,12.1249531 0.537589248,8 C0.537589248,3.87504694 3.87925226,0.532224532 8,0.532224532 C12.1207477,0.532224532 15.4624108,3.87504694 15.4624108,8 C15.4624108,12.1249531 12.1207477,15.4677755 8,15.4677755 Z" id="Oval"></path>
            <path d="M7.85960645,7.93751135 L11.4396064,4.31751135 C11.5431661,4.2127946 11.5422281,4.04395321 11.4375113,3.94039355 C11.3327946,3.83683389 11.1639532,3.8377719 11.0603936,3.94248865 L7.48039355,7.56248865 C7.37683389,7.6672054 7.3777719,7.83604679 7.48248865,7.93960645 C7.5872054,8.04316611 7.75604679,8.0422281 7.85960645,7.93751135 Z" id="Shape"></path>
        </g>
    </g>
</svg>