<?xml version="1.0" encoding="UTF-8"?>
<svg width="24px" height="24px" viewBox="0 0 24 24" version="1.1" xmlns="http://www.w3.org/2000/svg" xmlns:xlink="http://www.w3.org/1999/xlink">
    <!-- Generator: Sketch 54.1 (76490) - https://sketchapp.com -->
    <title>time</title>
    <desc>Created with Sketch.</desc>
    <g id="time" stroke="none" stroke-width="1" fill="none" fill-rule="evenodd">
        <path d="M11.98,20 C16.3546792,20 19.9,16.4177007 19.9,12 C19.9,7.58229935 16.3546792,4 11.98,4 C7.60532077,4 4.06,7.58229935 4.06,12 C4.06,16.4177007 7.60532077,20 11.98,20 Z M11.98,19.5 C7.88263116,19.5 4.56,16.142713 4.56,12 C4.56,7.85728703 7.88263116,4.5 11.98,4.5 C16.0773688,4.5 19.4,7.85728703 19.4,12 C19.4,16.142713 16.0773688,19.5 11.98,19.5 Z" id="Oval" fill="#D8D9DC" fill-rule="nonzero"></path>
        <path d="M12.157756,12.1757919 L15.737756,8.55579189 C15.8348432,8.45761994 15.8339638,8.29933113 15.7357919,8.20224396 C15.6376199,8.10515678 15.4793311,8.10603616 15.382244,8.20420811 L11.802244,11.8242081 C11.7051568,11.9223801 11.7060362,12.0806689 11.8042081,12.177756 C11.9023801,12.2748432 12.0606689,12.2739638 12.157756,12.1757919 Z" id="Path" fill="#D8D9DC" fill-rule="nonzero"></path>
    </g>
</svg>