<?xml version="1.0" encoding="UTF-8"?>
<svg width="24px" height="24px" viewBox="0 0 24 24" version="1.1" xmlns="http://www.w3.org/2000/svg" xmlns:xlink="http://www.w3.org/1999/xlink">
    <!-- Generator: Sketch 54.1 (76490) - https://sketchapp.com -->
    <title>trash</title>
    <desc>Created with Sketch.</desc>
    <g id="trash" stroke="none" stroke-width="1" fill="none" fill-rule="evenodd">
        <path d="M9.6,5.3 L13.488,5.3 C13.6536854,5.3 13.788,5.16568542 13.788,5 C13.788,4.83431458 13.6536854,4.7 13.488,4.7 L9.6,4.7 C9.43431458,4.7 9.3,4.83431458 9.3,5 C9.3,5.16568542 9.43431458,5.3 9.6,5.3 Z" id="Path" fill="#D8D9DC" fill-rule="nonzero"></path>
        <path d="M10.392,15.4533333 L10.392,10.25 C10.392,10.0843146 10.2576854,9.95 10.092,9.95 C9.92631458,9.95 9.792,10.0843146 9.792,10.25 L9.792,15.4533333 C9.792,15.6190188 9.92631458,15.7533333 10.092,15.7533333 C10.2576854,15.7533333 10.392,15.6190188 10.392,15.4533333 Z" id="Path" fill="#D8D9DC" fill-rule="nonzero"></path>
        <path d="M13.296,15.4533333 L13.296,10.25 C13.296,10.0843146 13.1616854,9.95 12.996,9.95 C12.8303146,9.95 12.696,10.0843146 12.696,10.25 L12.696,15.4533333 C12.696,15.6190188 12.8303146,15.7533333 12.996,15.7533333 C13.1616854,15.7533333 13.296,15.6190188 13.296,15.4533333 Z" id="Path" fill="#D8D9DC" fill-rule="nonzero"></path>
        <path d="M6,7.63333333 L17.088,7.63333333 C17.2536854,7.63333333 17.388,7.49901876 17.388,7.33333333 C17.388,7.16764791 17.2536854,7.03333333 17.088,7.03333333 L6,7.03333333 C5.83431458,7.03333333 5.7,7.16764791 5.7,7.33333333 C5.7,7.49901876 5.83431458,7.63333333 6,7.63333333 Z" id="Path" fill="#D8D9DC" fill-rule="nonzero"></path>
        <path d="M15.588,18.07 L7.5,18.07 L7.5,7.33333333 C7.5,7.16764791 7.36568542,7.03333333 7.2,7.03333333 C7.03431458,7.03333333 6.9,7.16764791 6.9,7.33333333 L6.9,18.37 C6.9,18.5356854 7.03431458,18.67 7.2,18.67 L15.888,18.67 C16.0536854,18.67 16.188,18.5356854 16.188,18.37 L16.188,7.33333333 C16.188,7.16764791 16.0536854,7.03333333 15.888,7.03333333 C15.7223146,7.03333333 15.588,7.16764791 15.588,7.33333333 L15.588,18.07 Z" id="Path" fill="#D8D9DC" fill-rule="nonzero"></path>
    </g>
</svg>