<?xml version="1.0" encoding="UTF-8"?>
<svg width="16px" height="16px" viewBox="0 0 16 16" version="1.1" xmlns="http://www.w3.org/2000/svg" xmlns:xlink="http://www.w3.org/1999/xlink">
    <!-- Generator: Sketch 54.1 (76490) - https://sketchapp.com -->
    <title>16x16/trash</title>
    <desc>Created with Sketch.</desc>
    <g id="16x16/trash" stroke="none" stroke-width="1" fill="none" fill-rule="evenodd">
        <g id="Group" transform="translate(2.000000, 0.000000)" fill="#FFFFFF" fill-rule="nonzero">
            <path d="M4.394,0.693333333 L8.606,0.693333333 C8.79009492,0.693333333 8.93933333,0.544094917 8.93933333,0.36 C8.93933333,0.175905083 8.79009492,0.0266666667 8.606,0.0266666667 L4.394,0.0266666667 C4.20990508,0.0266666667 4.06066667,0.175905083 4.06066667,0.36 C4.06066667,0.544094917 4.20990508,0.693333333 4.394,0.693333333 Z" id="Shape"></path>
            <path d="M5.26033333,12.3066667 L5.26033333,6.36 C5.26033333,6.17590508 5.11109492,6.02666667 4.927,6.02666667 C4.74290508,6.02666667 4.59366667,6.17590508 4.59366667,6.36 L4.59366667,12.3066667 C4.59366667,12.4907616 4.74290508,12.64 4.927,12.64 C5.11109492,12.64 5.26033333,12.4907616 5.26033333,12.3066667 Z" id="Shape"></path>
            <path d="M8.40633333,12.3066667 L8.40633333,6.36 C8.40633333,6.17590508 8.25709492,6.02666667 8.073,6.02666667 C7.88890508,6.02666667 7.73966667,6.17590508 7.73966667,6.36 L7.73966667,12.3066667 C7.73966667,12.4907616 7.88890508,12.64 8.073,12.64 C8.25709492,12.64 8.40633333,12.4907616 8.40633333,12.3066667 Z" id="Shape"></path>
            <path d="M0.494,3.36 L12.506,3.36 C12.6900949,3.36 12.8393333,3.21076158 12.8393333,3.02666667 C12.8393333,2.84257175 12.6900949,2.69333333 12.506,2.69333333 L0.494,2.69333333 C0.309905083,2.69333333 0.160666667,2.84257175 0.160666667,3.02666667 C0.160666667,3.21076158 0.309905083,3.36 0.494,3.36 Z" id="Shape"></path>
            <path d="M10.8726667,15.3066667 L2.12733333,15.3066667 L2.12733333,3.02666667 C2.12733333,2.84257175 1.97809492,2.69333333 1.794,2.69333333 C1.60990508,2.69333333 1.46066667,2.84257175 1.46066667,3.02666667 L1.46066667,15.64 C1.46066667,15.8240949 1.60990508,15.9733333 1.794,15.9733333 L11.206,15.9733333 C11.3900949,15.9733333 11.5393333,15.8240949 11.5393333,15.64 L11.5393333,3.02666667 C11.5393333,2.84257175 11.3900949,2.69333333 11.206,2.69333333 C11.0219051,2.69333333 10.8726667,2.84257175 10.8726667,3.02666667 L10.8726667,15.3066667 Z" id="Shape"></path>
        </g>
    </g>
</svg>