<?xml version="1.0" encoding="UTF-8"?>
<svg width="24px" height="24px" viewBox="0 0 24 24" version="1.1" xmlns="http://www.w3.org/2000/svg" xmlns:xlink="http://www.w3.org/1999/xlink">
    <!-- Generator: sketchtool 54.1 (76490) - https://sketchapp.com -->
    <title>bd97053d-ed86-49b2-9d9d-68c8a1e5b23c@1.00x</title>
    <desc>Created with sketchtool.</desc>
    <defs>
        <path d="M19,13 L18,13 L18,2 L2,2 L2,22 L13,22 L13,23 L1,23 L1,1 L19,1 L19,13 Z M4,7 L16,7 L16,8 L4,8 L4,7 Z M4,10 L16,10 L16,11 L4,11 L4,10 Z M4,13 L9,13 L9,14 L4,14 L4,13 Z M19,16.7071068 L19,23 L18,23 L18,16.7071068 L15.5,19.2071068 L14.7928932,18.5 L18.5,14.7928932 L19.2071068,15.5 L22.2071068,18.5 L21.5,19.2071068 L19,16.7071068 Z" id="path-1"></path>
    </defs>
    <g id="Symbols" stroke="none" stroke-width="1" fill="none" fill-rule="evenodd">
        <g id="Icons-/-General-/-24-/-Upload-Document">
            <mask id="mask-2" fill="white">
                <use xlink:href="#path-1"></use>
            </mask>
            <use id="Combined-Shape" fill="#000000" fill-rule="nonzero" xlink:href="#path-1"></use>
            <g id="Colors-/-Black" mask="url(#mask-2)" fill="#000000">
                <rect id="Rectangle" x="0" y="0" width="24" height="24"></rect>
            </g>
        </g>
    </g>
</svg>