<?xml version="1.0" encoding="UTF-8"?>
<svg width="16px" height="16px" viewBox="0 0 16 16" version="1.1" xmlns="http://www.w3.org/2000/svg" xmlns:xlink="http://www.w3.org/1999/xlink">
    <!-- Generator: Sketch 54.1 (76490) - https://sketchapp.com -->
    <title>16x16/upload </title>
    <desc>Created with Sketch.</desc>
    <g id="16x16/upload-" stroke="none" stroke-width="1" fill="none" fill-rule="evenodd">
        <g id="Group" transform="translate(1.000000, 0.000000)" fill="#FFFFFF" fill-rule="nonzero">
            <g id="Group-2" transform="translate(-1.000000, 0.000000)">
                <path d="M0.474074074,14.7847901 L0.474074074,0.474074074 L12.2563951,0.474074074 L12.2563951,7.67051852 C12.2563951,7.80143046 12.3625202,7.90755556 12.4934321,7.90755556 C12.624344,7.90755556 12.7304691,7.80143046 12.7304691,7.67051852 L12.7304691,0.237037037 C12.7304691,0.106125096 12.624344,2.13162821e-14 12.4934321,2.13162821e-14 L0.237037037,2.13162821e-14 C0.106125096,2.13162821e-14 -1.15463195e-14,0.106125096 -1.15463195e-14,0.237037037 L-1.15463195e-14,15.0218272 C-1.15463195e-14,15.1527391 0.106125096,15.2588642 0.237037037,15.2588642 L7.6262716,15.2588642 C7.75718355,15.2588642 7.86330864,15.1527391 7.86330864,15.0218272 C7.86330864,14.8909152 7.75718355,14.7847901 7.6262716,14.7847901 L0.474074074,14.7847901 Z" id="Shape"></path>
                <path d="M9.96503704,4.4562963 L2.7654321,4.4562963 C2.63452016,4.4562963 2.52839506,4.57568703 2.52839506,4.72296296 C2.52839506,4.8702389 2.63452016,4.98962963 2.7654321,4.98962963 L9.96503704,4.98962963 C10.095949,4.98962963 10.2020741,4.8702389 10.2020741,4.72296296 C10.2020741,4.57568703 10.095949,4.4562963 9.96503704,4.4562963 Z" id="Shape"></path>
                <path d="M9.96503704,6.98469136 L2.7654321,6.98469136 C2.63452016,6.98469136 2.52839506,7.10408209 2.52839506,7.25135802 C2.52839506,7.39863396 2.63452016,7.51802469 2.7654321,7.51802469 L9.96503704,7.51802469 C10.095949,7.51802469 10.2020741,7.39863396 10.2020741,7.25135802 C10.2020741,7.10408209 10.095949,6.98469136 9.96503704,6.98469136 Z" id="Shape"></path>
                <path d="M6.36207407,9.51308642 L2.7654321,9.51308642 C2.63452016,9.51308642 2.52839506,9.63247715 2.52839506,9.77975309 C2.52839506,9.92702902 2.63452016,10.0464198 2.7654321,10.0464198 L6.36207407,10.0464198 C6.49298601,10.0464198 6.59911111,9.92702902 6.59911111,9.77975309 C6.59911111,9.63247715 6.49298601,9.51308642 6.36207407,9.51308642 Z" id="Shape"></path>
                <path d="M10.391808,12.5596981 C10.2992393,12.4671294 10.1491558,12.4671294 10.056587,12.5596981 C9.96401831,12.6522669 9.96401831,12.8023504 10.056587,12.8949191 L12.3953525,15.2336846 C12.4878329,15.326165 12.637742,15.3262661 12.7303471,15.2339106 L15.0754335,12.8951452 C15.1681271,12.8027015 15.1683296,12.6526181 15.0758859,12.5599245 C14.9834422,12.4672309 14.8333588,12.4670284 14.7406652,12.5594721 L12.563189,14.7310791 L10.391808,12.5596981 Z" id="Shape"></path>
                <path d="M12.8592593,15.0660741 L12.8592593,10.1167407 C12.8592593,9.9858288 12.7398685,9.8797037 12.5925926,9.8797037 C12.4453167,9.8797037 12.3259259,9.9858288 12.3259259,10.1167407 L12.3259259,15.0660741 C12.3259259,15.196986 12.4453167,15.3031111 12.5925926,15.3031111 C12.7398685,15.3031111 12.8592593,15.196986 12.8592593,15.0660741 Z" id="Shape"></path>
            </g>
        </g>
    </g>
</svg>