<?xml version="1.0" encoding="UTF-8"?>
<svg width="24px" height="24px" viewBox="0 0 24 24" version="1.1" xmlns="http://www.w3.org/2000/svg" xmlns:xlink="http://www.w3.org/1999/xlink">
    <!-- Generator: Sketch 54.1 (76490) - https://sketchapp.com -->
    <title>upload</title>
    <desc>Created with Sketch.</desc>
    <g id="upload" stroke="none" stroke-width="1" fill="none" fill-rule="evenodd">
        <path d="M4.375,4.375 L16.53,4.375 C16.7371068,4.375 16.905,4.20710678 16.905,4 C16.905,3.79289322 16.7371068,3.625 16.53,3.625 L4,3.625 C3.79289322,3.625 3.625,3.79289322 3.625,4 L3.625,19.15 C3.625,19.3571068 3.79289322,19.525 4,19.525 L11.56,19.525 C11.7671068,19.525 11.935,19.3571068 11.935,19.15 C11.935,18.9428932 11.7671068,18.775 11.56,18.775 L4.375,18.775 L4.375,4.375 Z" id="Path" fill="#D8D9DC" fill-rule="nonzero"></path>
        <path d="M13.95,9.185 L6.59,9.185 C6.38289322,9.185 6.215,9.35289322 6.215,9.56 C6.215,9.76710678 6.38289322,9.935 6.59,9.935 L13.95,9.935 C14.1571068,9.935 14.325,9.76710678 14.325,9.56 C14.325,9.35289322 14.1571068,9.185 13.95,9.185 Z" id="Path" fill="#D8D9DC" fill-rule="nonzero"></path>
        <path d="M10.26,12.375 L6.59,12.375 C6.38289322,12.375 6.215,12.5428932 6.215,12.75 C6.215,12.9571068 6.38289322,13.125 6.59,13.125 L10.26,13.125 C10.4671068,13.125 10.635,12.9571068 10.635,12.75 C10.635,12.5428932 10.4671068,12.375 10.26,12.375 Z" id="Path" fill="#D8D9DC" fill-rule="nonzero"></path>
        <path d="M14.475165,16.534835 C14.3287184,16.3883883 14.0912816,16.3883883 13.944835,16.534835 C13.7983883,16.6812816 13.7983883,16.9187184 13.944835,17.065165 L16.334835,19.455165 C16.4810654,19.6013955 16.7180755,19.6016429 16.8646109,19.455718 L19.2646109,17.065718 C19.4113629,16.9195775 19.4118586,16.6821411 19.265718,16.5353891 C19.1195775,16.3886371 18.8821411,16.3881414 18.7353891,16.534282 L16.600553,18.6602229 L14.475165,16.534835 Z" id="Path" fill="#D8D9DC" fill-rule="nonzero"></path>
        <path d="M16.975,19.19 L16.975,9.56 C16.975,9.35289322 16.8071068,9.185 16.6,9.185 C16.3928932,9.185 16.225,9.35289322 16.225,9.56 L16.225,19.19 C16.225,19.3971068 16.3928932,19.565 16.6,19.565 C16.8071068,19.565 16.975,19.3971068 16.975,19.19 Z" id="Path" fill="#D8D9DC" fill-rule="nonzero"></path>
    </g>
</svg>