<?xml version="1.0" encoding="UTF-8"?>
<svg width="16px" height="16px" viewBox="0 0 16 16" version="1.1" xmlns="http://www.w3.org/2000/svg" xmlns:xlink="http://www.w3.org/1999/xlink">
    <!-- Generator: sketchtool 54.1 (76490) - https://sketchapp.com -->
    <title>5592cd0c-aa5a-440c-896e-34bad7ddb6a1@1.00x</title>
    <desc>Created with sketchtool.</desc>
    <defs>
        <path d="M1,15 L8,15 L8,16 L0,16 L0,0 L13,0 L13,8 L12,8 L12,1 L1,1 L1,15 Z M13,11.7071068 L13,16 L12,16 L12,11.7071068 L10.5,13.2071068 L9.79289322,12.5 L12.5,9.79289322 L13.2071068,10.5 L15.2071068,12.5 L14.5,13.2071068 L13,11.7071068 Z M3,4 L10,4 L10,5 L3,5 L3,4 Z M3,6 L10,6 L10,7 L3,7 L3,6 Z M3,8 L6,8 L6,9 L3,9 L3,8 Z" id="path-1"></path>
    </defs>
    <g id="Symbols" stroke="none" stroke-width="1" fill="none" fill-rule="evenodd">
        <g id="Icons-/-General-/-16-/-Upload-Document">
            <mask id="mask-2" fill="white">
                <use xlink:href="#path-1"></use>
            </mask>
            <use id="Combined-Shape" fill="#000000" fill-rule="nonzero" xlink:href="#path-1"></use>
            <g id="Colors-/-Black" mask="url(#mask-2)" fill="#000000">
                <rect id="Rectangle" x="0" y="0" width="16" height="16"></rect>
            </g>
        </g>
    </g>
</svg>