<?xml version="1.0" encoding="UTF-8"?>
<svg width="21px" height="30px" viewBox="0 0 21 30" version="1.1" xmlns="http://www.w3.org/2000/svg" xmlns:xlink="http://www.w3.org/1999/xlink">
    <!-- Generator: Sketch 61 (89581) - https://sketch.com -->
    <title>Combined Shape</title>
    <desc>Created with Sketch.</desc>
    <g id="Symbols" stroke="none" stroke-width="1" fill="none" fill-rule="evenodd">
        <g id="Logo-/-Emblem-/-Gray" fill="#262D3D">
            <path d="M8.18458735,0 L14.9476699,6.83823529 L15.0242124,6.91061581 L15.0242124,6.91061581 L15.100755,6.98713235 L21,12.9485294 L11.4048425,22.5992647 L15.8005728,27.0441176 L12.8591513,30 L6.13980734,23.2058824 L6.02157641,23.0914522 L6.02157641,23.0914522 L5.89924499,22.96875 L0,17.0073529 L9.56235355,7.38970588 L5.20489456,2.98897059 L8.18458735,0 Z M12.2194741,10.7150735 C12.1465764,10.7334559 12.0812722,10.7671569 11.9729382,10.8672386 L11.9023692,10.9356618 L6.44051028,16.4338235 C6.28195782,16.5882353 6.24368654,16.6599265 6.21634991,16.7481618 C6.18901328,16.8363971 6.18901328,16.9246324 6.21634991,17.0128676 C6.23457433,17.0863971 6.26798577,17.1522672 6.36720761,17.26154 L6.43504296,17.3327206 L8.16818537,19.0863971 C8.3212705,19.2463235 8.39234574,19.2849265 8.47982296,19.3125 C8.56730018,19.3400735 8.6547774,19.3400735 8.74225462,19.3125 C8.8105962,19.2941176 8.87514102,19.2604167 8.98651248,19.160335 L9.05935954,19.0919118 L14.5212184,13.59375 C14.6797709,13.4393382 14.7180422,13.3676471 14.7453788,13.2794118 C14.7727154,13.1911765 14.7727154,13.1029412 14.7453788,13.0147059 C14.7271544,12.9411765 14.6937429,12.8753064 14.5945211,12.7660335 L14.5266858,12.6948529 L12.7935433,10.9411765 C12.6404582,10.78125 12.569383,10.7426471 12.4819058,10.7150735 C12.3944285,10.6875 12.3069513,10.6875 12.2194741,10.7150735 Z M19.4144754,0.0165441176 C19.7971882,0.0165441176 20.1252278,0.154411765 20.3985941,0.430147059 C20.6719604,0.705882353 20.8086436,1.03676471 20.8086436,1.42279412 C20.8086436,1.81433824 20.6719604,2.13970588 20.3985941,2.40992647 C20.1252278,2.68566176 19.7971882,2.81801471 19.4144754,2.81801471 C19.0317626,2.81801471 18.703723,2.68566176 18.435824,2.40992647 C18.1624577,2.13970588 18.0312419,1.81433824 18.0312419,1.42279412 C18.0312419,1.03676471 18.1624577,0.705882353 18.435824,0.430147059 C18.7091903,0.154411765 19.0372299,0.0165441176 19.4144754,0.0165441176 Z M19.4199427,0.242647059 C19.0973705,0.242647059 18.8240042,0.358455882 18.5998438,0.590073529 C18.3756834,0.816176471 18.2608696,1.09191176 18.2608696,1.42279412 C18.2608696,1.74816176 18.3702161,2.02941176 18.5943765,2.25551471 C18.8185368,2.48161765 19.0919032,2.59742647 19.4199427,2.59742647 C19.742515,2.59742647 20.0158813,2.48161765 20.2400417,2.25551471 C20.464202,2.02389706 20.5790159,1.74816176 20.5790159,1.42279412 C20.5790159,1.09742647 20.464202,0.816176471 20.2400417,0.590073529 C20.0158813,0.358455882 19.742515,0.242647059 19.4199427,0.242647059 Z M19.5128873,0.65625 C19.8190575,0.65625 19.9994793,0.838235294 19.9994793,1.09191176 C19.9994793,1.30698529 19.8409268,1.46691176 19.6277011,1.51102941 L20.0049466,2.18933824 L19.7479823,2.18933824 L19.3762041,1.52205882 L19.1247071,1.52205882 L19.1247071,2.18933824 L18.8950794,2.18933824 L18.8950794,0.65625 L19.5128873,0.65625 Z M19.4800833,0.854779412 L19.1247071,0.860294118 L19.1247071,1.32352941 L19.4800833,1.32352941 C19.6769071,1.32352941 19.7753189,1.24632353 19.7753189,1.09191176 C19.7753189,0.931985294 19.6769071,0.854779412 19.4800833,0.854779412 Z" id="Combined-Shape"></path>
        </g>
    </g>
</svg>