<?xml version="1.0" encoding="UTF-8"?>
<svg width="24px" height="24px" viewBox="0 0 24 24" version="1.1" xmlns="http://www.w3.org/2000/svg" xmlns:xlink="http://www.w3.org/1999/xlink">
    <!-- Generator: sketchtool 54.1 (76490) - https://sketchapp.com -->
    <title>c6605467-fe8d-45b9-a44e-ec69c7938cf1@1.00x</title>
    <desc>Created with sketchtool.</desc>
    <defs>
        <path d="M12,2.03689894 L12,0 L13,0 L13,2.10489041 C13.1364633,2.12224977 13.2732025,2.14297072 13.41013,2.16711472 C18.0332315,2.98229226 21.1201639,7.39088855 20.3049863,12.0139901 L19.002625,19.4000483 C18.9067218,19.9439426 19.2698903,20.462601 19.8137846,20.5585042 L19.6401364,21.543312 L0.928789103,18.2439966 L1.10243728,17.2591888 C1.64633158,17.3550921 2.16498997,16.9919236 2.26089321,16.4480293 L3.56325454,9.06197111 C4.29494062,4.91237314 7.92165626,2.00038638 12,2.03689894 Z M18.0178173,19.2264001 L19.3201786,11.8403419 C20.0394529,7.76113467 17.3156891,3.87119677 13.2364818,3.15192247 C9.1572745,2.43264817 5.2673366,5.15641201 4.5480623,9.23561928 L3.24570096,16.6216774 C3.18244317,16.9804302 3.02722081,17.2998686 2.8085533,17.5600231 L18.1076686,20.2576699 C17.9911664,19.938416 17.9545595,19.5851529 18.0178173,19.2264001 Z M9.53158661,21.0524039 L9.6184107,20.56 L10.6032185,20.7336482 L10.5163944,21.2260521 C10.3725395,22.0418935 10.9172923,22.8198811 11.7331337,22.963736 C12.5489752,23.1075908 13.3269628,22.562838 13.4708176,21.7469966 L13.5576417,21.2545927 L14.5424495,21.4282409 L14.4556254,21.9206448 C14.2158673,23.2803805 12.9192213,24.1883018 11.5594856,23.9485437 C10.1997498,23.7087856 9.29182851,22.4121396 9.53158661,21.0524039 Z M1.87678522,5.57908891 L2.71997089,6.1167114 C1.9501343,7.3240924 1.42136662,8.67626832 1.16711472,10.1182025 C0.912862813,11.5601367 0.947270501,13.0116157 1.25773163,14.4094823 L0.281518569,14.6262957 C-0.057319199,13.1006618 -0.0948718504,11.5165135 0.182306964,9.94455434 C0.459485778,8.37259517 1.03658437,6.89682643 1.87678522,5.57908891 Z M22.1232148,18.477576 L21.2800291,17.9399535 C22.0498657,16.7325725 22.5786334,15.3803966 22.8328853,13.9384624 C23.0871372,12.4965282 23.0527295,11.0450493 22.7422684,9.64718266 L23.7184814,9.43036926 C24.0573192,10.9560031 24.0948719,12.5401514 23.817693,14.1121106 C23.5405142,15.6840698 22.9634156,17.1598385 22.1232148,18.477576 Z" id="path-1"></path>
    </defs>
    <g id="Symbols" stroke="none" stroke-width="1" fill="none" fill-rule="evenodd">
        <g id="Icons-/-Contact-Interview-/-24-/-Calendar-Reminder">
            <mask id="mask-2" fill="white">
                <use xlink:href="#path-1"></use>
            </mask>
            <use id="Combined-Shape" fill="#000000" fill-rule="nonzero" xlink:href="#path-1"></use>
            <g id="Colors-/-Black" mask="url(#mask-2)" fill="#000000">
                <rect id="Rectangle" x="0" y="0" width="24" height="24"></rect>
            </g>
        </g>
    </g>
</svg>