<svg fill="none" xmlns="http://www.w3.org/2000/svg" viewBox="0 0 16 16">
  <g clip-path="url(#a)">
    <path fill-rule="evenodd" clip-rule="evenodd" d="M15.5 2H11v1h4v10H1V7H0v7h16V2h-.5Zm-12.34865.1416-2.569996 2.5-.368396.35836.368357.3584 2.590005 2.52.69735-.71672-2.22164-2.1616 2.2016-2.14164-.69728-.7168Zm7.08015 2.85844L8.02203 2.85908l.69589-.71816 2.57998 2.5.3705.35904-.3704.35907-2.60004 2.52-.69597-.71806 2.22951-2.16093ZM5.99029 7.59806l1-5-.98058-.19612-1 5 .98058.19612Z" fill="#455065"/>
  </g>
  <defs>
    <clipPath id="a">
      <path fill="#fff" d="M0 0h16v16H0z"/>
    </clipPath>
  </defs>
</svg>
