<svg width="16" height="16" viewBox="0 0 16 16" xmlns="http://www.w3.org/2000/svg"><title>  Combined Shape</title><g fill="none"><path d="M0.6 11.7C3.5 7 7.3 6.8 11.8 9 13 9.6 14.4 10.3 15.1 10.6 15.3 10.7 15.4 11 15.3 11.2L15.3 11.2 13.7 14.8C13.6 15 13.3 15.2 13 15L13 15 9.8 13.5C7.4 12.4 6.1 12.1 4.7 14.3 4.6 14.6 4.4 14.9 4.3 15.1 4.1 15.3 3.8 15.4 3.6 15.3L3.6 15.3 0.2 13.2C0 13.1-0.1 12.8 0.1 12.5 0.2 12.3 0.4 12 0.6 11.7ZM11.7 0.2C11.9 0 12.2-0.1 12.4 0.1L12.4 0.1 15.8 2.1C16 2.3 16.1 2.6 15.9 2.8 15.8 3 15.6 3.4 15.4 3.6 12.5 8.3 8.7 8.5 4.2 6.3 3 5.7 1.6 5.1 0.9 4.8 0.7 4.6 0.6 4.3 0.7 4.1L0.7 4.1 2.3 0.5C2.4 0.3 2.7 0.2 3 0.3L3 0.3 6.2 1.8C8.6 3 9.9 3.2 11.3 1.1 11.4 0.8 11.6 0.5 11.7 0.2Z"/></g></svg>