<svg fill="none" xmlns="http://www.w3.org/2000/svg" viewBox="0 0 16 16">
  <path fill-rule="evenodd" clip-rule="evenodd" d="M15.6025 3.65816c-.062.1024-.1236.20415-.1826.30039-2.8998 4.71235-6.69052 4.85746-11.16101 2.6935C3.01906 6.05378 1.64176 5.40459.949291 5.07872.827862 5.02314.73313 4.92207.68551 4.79731c-.047621-.12477-.044318-.26325.009197-.3856L2.27058.84753c.02746-.062354.06714-.118565.11671-.165303.04957-.046738.10802-.083052.17188-.106792.06386-.023739.13183-.034422.1999-.031414.06806.003008.13483.019645.19634.048925L6.22682 2.14591c2.37782 1.13544 3.69656 1.40021 5.00768-.76375.1324-.21944.257-.428542.3656-.610744.0439-.073575.0851-.142763.1232-.206474.0349-.060522.0819-.113218.138-.154809.0561-.04159.1202-.071187.1882-.086947.0681-.01576.1387-.017348.2074-.004664.0687.012685.134.039369.192.078394l3.3096 2.036674c.1134.07009.1948.1819.2267.31138.0319.12949.0117.26632-.0562.38109-.1015.16051-.2147.34737-.3265.5321ZM.39752 12.3471c.062003-.1024.123609-.2042.182625-.3004C3.47986 7.32926 7.27062 7.18924 11.7309 9.35575c1.2399.59827 2.6172 1.24745 3.3096 1.57335.1215.0556.2162.1566.2638.2814.0476.1248.0443.2632-.0092.3856l-1.5759 3.5642c-.0274.0623-.0671.1185-.1167.1653-.0495.0467-.108.083-.1719.1068-.0638.0237-.1318.0344-.1998.0314-.0681-.003-.1349-.0197-.1964-.0489l-3.28159-1.5606c-2.37781-1.1355-3.69656-1.4003-5.00767.7637-.13234.2194-.25694.4284-.36552.6106-.04389.0736-.08517.1429-.12328.2066-.03453.0581-.08028.1088-.13459.149-.05431.0402-.11609.0693-.18173.0854-.06564.0161-.13383.019-.2006.0085-.06676-.0106-.13077-.0343-.18828-.0698L.241548 13.5717c-.11345-.0701-.1948733-.1819-.2267688-.3114-.0318955-.1295-.01171742-.2663.0561974-.3811.1015504-.1605.2146924-.3474.3265434-.5321Z" fill="#455065"/>
</svg>
