<svg fill="none" xmlns="http://www.w3.org/2000/svg" viewBox="0 0 24 24">
  <path fill-rule="evenodd" clip-rule="evenodd" d="M22.4534 6.03386c-.0853.14079-.17.28067-.2511.41299-3.9871 6.47945-9.1994 6.67905-15.34633 3.70355-1.70476-.82261-3.59855-1.71525-4.55069-2.16332-.16697-.07642-.29722-.21538-.3627-.38694-.06548-.17155-.06094-.36196.01264-.5302L4.12205 2.1692c.03775-.08574.09232-.16303.16048-.22729.06816-.06427.14852-.1142.23633-.14684s.18127-.04733.27486-.0432c.09359.00414.18539.02702.26998.06728l4.49818 2.13532c3.26952 1.56124 5.08282 1.92529 6.88552-1.05016.182-.30168.3534-.58916.5027-.83966.0603-.10121.1171-.19638.1694-.28401.048-.08322.1126-.15567.1898-.21286.0771-.05719.1653-.09788.2588-.11955.0936-.02167.1906-.02386.2851-.00642.0945.01744.1843.05414.264.10779l4.5507 2.80043c.156.09638.2679.25011.3118.42815.0438.17805.0161.36619-.0773.52399-.1396.22073-.2952.47768-.449.73169ZM1.54658 17.9809c.08526-.1408.16997-.2808.25112-.4131 3.98711-6.4865 9.1994-6.679 15.3323-3.7001 1.7048.8227 3.5986 1.7153 4.5507 2.1634.167.0764.2972.2154.3627.3869.0655.1716.061.362-.0126.5302l-2.1669 4.9008c-.0377.0857-.0923.163-.1604.2273-.0682.0642-.1485.1142-.2364.1468-.0878.0326-.1812.0473-.2748.0432-.0936-.0041-.1854-.027-.27-.0673l-4.5122-2.1458c-3.2695-1.5612-5.08276-1.9253-6.88553 1.0501-.18201.3017-.35337.5892-.50269.8397-.06032.1012-.11704.1964-.16941.284-.04748.0799-.11039.1496-.18507.2049-.07467.0553-.15961.0952-.24987.1174-.09025.0221-.18402.0261-.27582.0116-.0918-.0144-.17981-.047-.25889-.0958l-4.55069-2.8005c-.156-.0963-.26795-.2501-.31181-.4281-.043855-.1781-.01611-.3662.07727-.524.13963-.2207.2952-.4776.44899-.7316Z" fill="#455065"/>
</svg>
