<?xml version="1.0" encoding="UTF-8"?>
<svg width="16px" height="16px" viewBox="0 0 16 16" version="1.1" xmlns="http://www.w3.org/2000/svg" xmlns:xlink="http://www.w3.org/1999/xlink">
    <title>Icons / Interface Essential / 16 / Eye</title>
    <defs>
        <path d="M8,3 C10.9455187,3 13.6121853,4.66666667 16,8 C13.6121853,11.3333333 10.9455187,13 8,13 C5.05448133,13 2.38781467,11.3333333 0,8 C2.38781467,4.66666667 5.05448133,3 8,3 Z M8,4 C5.6714845,4 3.50666197,5.20748186 1.48248816,7.70277468 L1.247,8 L1.25815759,8.01466685 C3.27194459,10.6054633 5.42552681,11.9054736 7.74194852,11.9950269 L8,12 C10.3285155,12 12.493338,10.7925181 14.5175118,8.29722532 L14.752,8 L14.7418424,7.98533315 C12.7280554,5.39453674 10.5744732,4.09452643 8.25805148,4.00497314 L8,4 Z M8,5 C9.65685425,5 11,6.34314575 11,8 C11,9.65685425 9.65685425,11 8,11 C6.34314575,11 5,9.65685425 5,8 C5,6.34314575 6.34314575,5 8,5 Z M8,6 C6.8954305,6 6,6.8954305 6,8 C6,9.1045695 6.8954305,10 8,10 C9.1045695,10 10,9.1045695 10,8 C10,6.8954305 9.1045695,6 8,6 Z" id="path-1"></path>
    </defs>
    <g id="Icons-/-Interface-Essential-/-16-/-Eye" stroke="none" stroke-width="1" fill="none" fill-rule="evenodd">
        <mask id="mask-2" fill="white">
            <use xlink:href="#path-1"></use>
        </mask>
        <use id="Combined-Shape" fill="#979797" fill-rule="nonzero" xlink:href="#path-1"></use>
        <g id="Colors-/-305-Dark-Gray" mask="url(#mask-2)" fill="#455065">
            <rect id="Rectangle" x="0" y="0" width="16" height="16"></rect>
        </g>
    </g>
</svg>