<?xml version="1.0" encoding="UTF-8"?>
<svg width="16px" height="16px" viewBox="0 0 16 16" version="1.1" xmlns="http://www.w3.org/2000/svg" xmlns:xlink="http://www.w3.org/1999/xlink">
    <title>150e0ec7-6d71-43eb-841b-91cc12c7ec68@1.00x</title>
    <defs>
        <path d="M14.5,0.792893219 L15.2071068,1.5 L1.5,15.2071068 L0.792893219,14.5 L14.5,0.792893219 Z M13.1809205,4.94099491 C14.1602348,5.72385218 15.099928,6.74352054 16,8 C13.6121853,11.3333333 10.9455187,13 8,13 C7.15470301,13 6.33237114,12.86274 5.5330044,12.5882201 L6.33614659,11.7862494 C6.79802152,11.907287 7.26655576,11.9766481 7.74194852,11.9950269 L8,12 C10.3285155,12 12.493338,10.7925181 14.5175118,8.29722532 L14.752,8 L14.7418424,7.98533315 C14.0033485,7.03523889 13.2460545,6.25873319 12.4688239,5.65185443 L13.1809205,4.94099491 Z M8,3 C8.84529699,3 9.66762886,3.13725995 10.4669956,3.41177985 L9.66485602,4.21401346 C9.20265653,4.09281337 8.73378822,4.02336521 8.25805148,4.00497314 L8,4 C5.6714845,4 3.50666197,5.20748186 1.48248816,7.70277468 L1.247,8 L1.25815759,8.01466685 C1.99696767,8.96516783 2.75459391,9.74193159 3.53217424,10.3489249 L2.82008122,11.0598058 C1.84040597,10.2768431 0.900378902,9.25690785 0,8 C2.38781467,4.66666667 5.05448133,3 8,3 Z M10.8986025,7.22374857 C10.9647414,7.47134504 11,7.73155497 11,8 C11,9.65685425 9.65685425,11 8,11 C7.73155497,11 7.47134504,10.9647414 7.22374857,10.8986025 L8.126,9.995 L8.14926234,9.99451426 C9.14245,9.92123958 9.93393663,9.12265295 9.99607002,8.12640659 L10.8986025,7.22374857 Z M8,5 C8.26880584,5 8.52935444,5.03535346 8.77724974,5.10166433 L7.874,6.004 L7.85073766,6.00548574 C6.85727219,6.07878091 6.06562059,6.87779387 6.00387801,7.87442947 L5.10166433,8.77724974 C5.03535346,8.52935444 5,8.26880584 5,8 C5,6.34314575 6.34314575,5 8,5 Z" id="path-1"></path>
    </defs>
    <g id="Symbols" stroke="none" stroke-width="1" fill="none" fill-rule="evenodd">
        <g id="Icons-/-Interface-Essential-/-16-/-Eye-Hide">
            <mask id="mask-2" fill="white">
                <use xlink:href="#path-1"></use>
            </mask>
            <use id="Combined-Shape" fill="#979797" fill-rule="nonzero" xlink:href="#path-1"></use>
            <g id="Colors-/-305-Dark-Gray" mask="url(#mask-2)" fill="#455065">
                <rect id="Rectangle" x="0" y="0" width="16" height="16"></rect>
            </g>
        </g>
    </g>
</svg>