<?xml version="1.0" encoding="UTF-8"?>
<svg width="16px" height="16px" viewBox="0 0 16 16" version="1.1" xmlns="http://www.w3.org/2000/svg" xmlns:xlink="http://www.w3.org/1999/xlink">
    <title>Icons / Misc / 16 / Function</title>
    <defs>
        <path d="M7.5,1 C8.88071187,1 10,2.11928813 10,3.5 C10,4.70932545 9.14133817,5.71809967 8.00043449,5.94990271 L8,8 L13,8 L13,11 L15,11 L15,16 L10,16 L10,11 L12,11 L12,9 L3,9 L3,11 L5,11 L5,16 L0,16 L0,11 L2,11 L2,8 L7,8 L7.00057405,5.9501074 C5.91127922,5.72925936 5.07903957,4.8001946 5.00531768,3.66437569 L5,3.5 C5,2.11928813 6.11928813,1 7.5,1 Z M14,12 L11,12 L11,15 L14,15 L14,12 Z M4,12 L1,12 L1,15 L4,15 L4,12 Z M7.5,2 C6.67157288,2 6,2.67157288 6,3.5 C6,4.32842712 6.67157288,5 7.5,5 C8.32842712,5 9,4.32842712 9,3.5 C9,2.67157288 8.32842712,2 7.5,2 Z" id="path-1"></path>
    </defs>
    <g id="Icons" stroke="none" stroke-width="1" fill="none" fill-rule="evenodd">
        <g transform="translate(-873.000000, -1834.000000)" id="Misc">
            <g transform="translate(100.000000, 1767.000000)">
                <g id="16" transform="translate(93.000000, 65.000000)">
                    <g id="Group" transform="translate(680.000000, 1.000000)">
                        <mask id="mask-2" fill="white">
                            <use xlink:href="#path-1"></use>
                        </mask>
                        <use id="Combined-Shape" fill="#262D3D" fill-rule="nonzero" xlink:href="#path-1"></use>
                        <g mask="url(#mask-2)" fill="#455065" id="Colors-/-307-Gray-Dark">
                            <g>
                                <rect id="Rectangle" x="0" y="0" width="16" height="16"></rect>
                            </g>
                        </g>
                    </g>
                </g>
            </g>
        </g>
    </g>
</svg>