<svg fill="none" xmlns="http://www.w3.org/2000/svg" viewBox="0 0 16 16">
  <path fill-rule="evenodd" clip-rule="evenodd" d="M8 0C6.52724 0 5.33333 1.19391 5.33333 2.66667c0 1.29011.91614 2.36624 2.13334 2.61332v2.18668H2.13333v3.20003H0V16h5.33333v-5.3333H3.2V8.53333H12.8v2.13337h-2.1333V16H16v-5.3333h-2.1333V7.46667H8.53333V5.27999c1.2172-.24708 2.13337-1.32321 2.13337-2.61332C10.6667 1.19391 9.47276 0 8 0Zm.00002 4.26667c.88366 0 1.6-.71635 1.6-1.6 0-.88366-.71634-1.6-1.6-1.6-.88366 0-1.6.71634-1.6 1.6 0 .88365.71634 1.6 1.6 1.6ZM1.06667 11.7333h3.2v3.2h-3.2v-3.2Zm10.66663 0h3.2v3.2h-3.2v-3.2Z" fill="#455065"/>
</svg>
