<?xml version="1.0" encoding="UTF-8"?>
<svg width="16px" height="16px" viewBox="0 0 16 16" version="1.1" xmlns="http://www.w3.org/2000/svg" xmlns:xlink="http://www.w3.org/1999/xlink">
    <title>116E5865-A94D-4805-9A8E-C5D6DE151B36@1x</title>
    <defs>
        <path d="M7.5,1 C8.88071187,1 10,2.11928813 10,3.5 C10,4.70932545 9.14133817,5.71809967 8.00043449,5.94990271 L8,8 L13,8 L13,11 L15,11 L15,16 L10,16 L10,11 L12,11 L12,9 L3,9 L3,11 L5,11 L5,16 L0,16 L0,11 L2,11 L2,8 L7,8 L7.00057405,5.9501074 C5.85916789,5.7186941 5,4.70968176 5,3.5 C5,2.11928813 6.11928813,1 7.5,1 Z M14,12 L11,12 L11,15 L14,15 L14,12 Z M4,12 L1,12 L1,15 L4,15 L4,12 Z M7.5,2 C6.67157288,2 6,2.67157288 6,3.5 C6,4.32842712 6.67157288,5 7.5,5 C8.32842712,5 9,4.32842712 9,3.5 C9,2.67157288 8.32842712,2 7.5,2 Z" id="path-1"></path>
    </defs>
    <g id="Symbols" stroke="none" stroke-width="1" fill="none" fill-rule="evenodd">
        <g id="Icons-/-Misc-/-16-/-Function">
            <mask id="mask-2" fill="white">
                <use xlink:href="#path-1"></use>
            </mask>
            <use id="Combined-Shape" fill="#262D3D" fill-rule="nonzero" xlink:href="#path-1"></use>
            <g id="Group" mask="url(#mask-2)" fill="#455065">
                <g id="Colors-/-307-Gray-Dark">
                    <rect id="Rectangle" x="0" y="0" width="16" height="16"></rect>
                </g>
            </g>
        </g>
    </g>
</svg>