<svg fill="none" xmlns="http://www.w3.org/2000/svg" viewBox="0 0 24 24">
  <path fill-rule="evenodd" clip-rule="evenodd" d="M12 0C9.98296 0 8.34783 1.63513 8.34783 3.65217c0 1.8399 1.36054 3.36203 3.13047 3.61519v4.21094H3.13043v5.2174H0V24h7.30435v-7.3043H4.17391v-4.174H19.8261v4.174h-3.1304V24H24v-7.3043h-3.1304v-5.2174h-8.3479V7.26736c1.7699-.25316 3.1305-1.77529 3.1305-3.61519C15.6522 1.63513 14.017 0 12 0Zm0 6.26087c1.4407 0 2.6087-1.16795 2.6087-2.6087 0-1.44074-1.168-2.60869-2.6087-2.60869-1.4408 0-2.60871 1.16795-2.60871 2.60869 0 1.44075 1.16791 2.6087 2.60871 2.6087ZM6.26087 22.9566v-5.2174H1.04348v5.2174h5.21739Zm16.69563 0v-5.2174h-5.2174v5.2174h5.2174Z" fill="#455065"/>
</svg>
