<svg width="24" height="24" viewBox="0 0 24 24" fill="none" xmlns="http://www.w3.org/2000/svg">
<g clip-path="url(#clip0_2460_15)">
<path fill-rule="evenodd" clip-rule="evenodd" d="M0.5 0H0V0.5V10.5V11H0.5H13.5H14V10.5V0.5V0H13.5H0.5ZM1 10V1H13V10H1ZM17.5 0H17V0.5V10.5V11H17.5H23.5H24V10.5V0.5V0H23.5H17.5ZM18 10V1H23V10H18ZM24 24H23.5H10.5H10V23.5V14.5V14H10.5H23.5H24V14.5V23.5V24ZM23 23V15H11V23H23ZM6.5 24H7V23.5V14.5V14H6.5H0.5H0V14.5V23.5V24H0.5H6.5ZM6 15V23H1V15H6Z" fill="#455065"/>
</g>
<defs>
<clipPath id="clip0_2460_15">
<rect width="24" height="24" fill="white"/>
</clipPath>
</defs>
</svg>
