<svg width="24" height="24" viewBox="0 0 24 24" fill="none" xmlns="http://www.w3.org/2000/svg">
<path fill-rule="evenodd" clip-rule="evenodd" d="M0 2H24V21H0V2ZM1 3V17.5657L6.46409 13.923L10.3809 15.8814L18.4417 6.81299L23 10.4596V3H1ZM1 20V18.7676L6.53593 15.0769L10.6191 17.1185L18.5583 8.18694L23 11.7403V20H1ZM6 9C6 7.89543 6.89543 7 8 7C9.10457 7 10 7.89543 10 9C10 10.1046 9.10457 11 8 11C6.89543 11 6 10.1046 6 9ZM8 6C6.34315 6 5 7.34315 5 9C5 10.6569 6.34315 12 8 12C9.65685 12 11 10.6569 11 9C11 7.34315 9.65685 6 8 6Z" fill="#455065"/>
</svg>
