
<svg width="24px" height="24px" viewBox="0 0 24 24" version="1.1" xmlns="http://www.w3.org/2000/svg" xmlns:xlink="http://www.w3.org/1999/xlink">
    <defs>
        <path d="M4,15 C1.790861,15 0,13.209139 0,11 L0,9 C0,6.790861 1.790861,5 4,5 L13,5 C15.209139,5 17,6.790861 17,9 L20,9 C22.209139,9 24,10.790861 24,13 L24,15 C24,17.209139 22.209139,19 20,19 L11,19 C8.790861,19 7,17.209139 7,15 L4,15 Z M20,10 L17,10 L17,11 C17,13.209139 15.209139,15 13,15 L8,15 C8,16.6568542 9.34314575,18 11,18 L20,18 C21.6568542,18 23,16.6568542 23,15 L23,13 C23,11.3431458 21.6568542,10 20,10 Z M13,6 L4,6 C2.34314575,6 1,7.34314575 1,9 L1,11 C1,12.6568542 2.34314575,14 4,14 L7,14 L7,13 C7,10.790861 8.790861,9 11,9 L16,9 C16,7.34314575 14.6568542,6 13,6 Z M16,10 L11,10 C9.34314575,10 8,11.3431458 8,13 L8,14 L13,14 C14.6568542,14 16,12.6568542 16,11 L16,10 Z" id="path-1"></path>
    </defs>
    <g id="Skills-Connections" stroke="none" stroke-width="1" fill="none" fill-rule="evenodd">
        <g id="9.0-–-Skill-Connections-/-Business-rules-validation" transform="translate(-60.000000, -590.000000)">
            <rect fill="#FFFFFF" x="0" y="0" width="1440" height="1269"></rect>
            <g id="Icons-/-Interface-Essential-/-24-/-Link" transform="translate(60.000000, 585.000000)">
                <mask id="mask-2" fill="white">
                    <use xlink:href="#path-1"></use>
                </mask>
                <use id="Combined-Shape" fill="#000000" fill-rule="nonzero" xlink:href="#path-1"></use>
                <g id="Colors-/-305-Dark-Grey" mask="url(#mask-2)" fill="#455065" fill-rule="evenodd">
                    <rect id="Rectangle" x="0" y="0" width="24" height="24"></rect>
                </g>
            </g>
        </g>
    </g>
</svg>
