<?xml version="1.0" encoding="UTF-8"?>
<svg width="16px" height="16px" viewBox="0 0 16 16" version="1.1" xmlns="http://www.w3.org/2000/svg" xmlns:xlink="http://www.w3.org/1999/xlink">
    <title>461076C6-94E9-4260-AEA9-A2DBB8BF67A4@1x</title>
    <defs>
        <path d="M2.752,11.938 C3.256,11.938 3.647,12.037 3.925,12.235 C4.203,12.433 4.342,12.7 4.342,13.036 C4.342,13.264 4.257,13.461 4.087,13.627 C3.917,13.793 3.71,13.896 3.466,13.936 C3.706,13.96 3.923,14.057 4.117,14.227 C4.311,14.397 4.408,14.616 4.408,14.884 C4.408,15.236 4.256,15.522 3.952,15.742 C3.648,15.962 3.248,16.072 2.752,16.072 C2.384,16.072 2.057,16.014 1.771,15.898 C1.485,15.782 1.26,15.63 1.096,15.442 L1.096,15.442 L1.618,14.74 L1.7261875,14.836 C1.8405625,14.926 1.9735,14.998 2.125,15.052 C2.327,15.124 2.522,15.16 2.71,15.16 C2.926,15.16 3.092,15.124 3.208,15.052 C3.324,14.98 3.382,14.886 3.382,14.77 C3.382,14.654 3.329,14.569 3.223,14.515 C3.117,14.461 2.932,14.434 2.668,14.434 L2.668,14.434 L2.428,14.4344898 C2.25657143,14.4353061 2.15657143,14.4371429 2.128,14.44 L2.128,14.44 L2.128,13.522 L2.15812245,13.5235918 C2.23404082,13.5265306 2.404,13.528 2.668,13.528 C3.1,13.528 3.316,13.424 3.316,13.216 C3.316,13.096 3.254,13.005 3.13,12.943 C3.006,12.881 2.844,12.85 2.644,12.85 C2.268,12.85 1.936,12.978 1.648,13.234 L1.648,13.234 L1.15,12.586 L1.2697,12.46288 C1.6423,12.11296 2.1364,11.938 2.752,11.938 Z M15,14 L15,15 L6,15 L6,14 L15,14 Z M2.752,5.938 C3.228,5.938 3.617,6.06 3.919,6.304 C4.221,6.548 4.372,6.87 4.372,7.27 C4.372,7.57 4.26,7.862 4.036,8.146 C3.812,8.43 3.446,8.748 2.938,9.1 L2.938,9.1 L4.402,9.1 L4.402,10 L1.264,10 L1.264,9.196 L1.46318935,9.052 C2.23701183,8.49076923 2.73561538,8.10676923 2.959,7.9 C3.201,7.676 3.322,7.466 3.322,7.27 C3.322,7.138 3.269,7.035 3.163,6.961 C3.057,6.887 2.926,6.85 2.77,6.85 C2.37,6.85 2.014,6.996 1.702,7.288 L1.702,7.288 L1.132,6.604 L1.25944,6.47644 C1.43608,6.31548 1.6396,6.191 1.87,6.103 C2.158,5.993 2.452,5.938 2.752,5.938 Z M15,8 L15,9 L6,9 L6,8 L15,8 Z M3.322,-0.002 L3.322,4 L2.29,4 L2.29,1.318 L1.618,1.996 L1.03,1.378 L2.428,-0.002 L3.322,-0.002 Z M15,2 L15,3 L6,3 L6,2 L15,2 Z" id="path-1"></path>
    </defs>
    <g id="Symbols" stroke="none" stroke-width="1" fill="none" fill-rule="evenodd">
        <g id="Icons-/-Interface-Essential-/-16-/-List-Ordered">
            <mask id="mask-2" fill="white">
                <use xlink:href="#path-1"></use>
            </mask>
            <use id="Combined-Shape" fill="#000000" fill-rule="nonzero" xlink:href="#path-1"></use>
            <g id="Group" mask="url(#mask-2)" fill="#455065">
                <g id="Colors-/-307-Gray-Dark">
                    <rect id="Rectangle" x="0" y="0" width="16" height="16"></rect>
                </g>
            </g>
        </g>
    </g>
</svg>