<?xml version="1.0" encoding="UTF-8"?>
<svg width="16px" height="16px" viewBox="0 0 16 16" version="1.1" xmlns="http://www.w3.org/2000/svg" xmlns:xlink="http://www.w3.org/1999/xlink">
    <title>E1CCAAF9-835E-402B-AECC-2108205D0BC9@1x</title>
    <defs>
        <path d="M2.5,13 C3.32842712,13 4,13.6715729 4,14.5 C4,15.3284271 3.32842712,16 2.5,16 C1.67157288,16 1,15.3284271 1,14.5 C1,13.6715729 1.67157288,13 2.5,13 Z M2.5,14 C2.22385763,14 2,14.2238576 2,14.5 C2,14.7761424 2.22385763,15 2.5,15 C2.77614237,15 3,14.7761424 3,14.5 C3,14.2238576 2.77614237,14 2.5,14 Z M15,14 L15,15 L6,15 L6,14 L15,14 Z M2.5,7 C3.32842712,7 4,7.67157288 4,8.5 C4,9.32842712 3.32842712,10 2.5,10 C1.67157288,10 1,9.32842712 1,8.5 C1,7.67157288 1.67157288,7 2.5,7 Z M2.5,8 C2.22385763,8 2,8.22385763 2,8.5 C2,8.77614237 2.22385763,9 2.5,9 C2.77614237,9 3,8.77614237 3,8.5 C3,8.22385763 2.77614237,8 2.5,8 Z M15,8 L15,9 L6,9 L6,8 L15,8 Z M2.5,1 C3.32842712,1 4,1.67157288 4,2.5 C4,3.32842712 3.32842712,4 2.5,4 C1.67157288,4 1,3.32842712 1,2.5 C1,1.67157288 1.67157288,1 2.5,1 Z M2.5,2 C2.22385763,2 2,2.22385763 2,2.5 C2,2.77614237 2.22385763,3 2.5,3 C2.77614237,3 3,2.77614237 3,2.5 C3,2.22385763 2.77614237,2 2.5,2 Z M15,2 L15,3 L6,3 L6,2 L15,2 Z" id="path-1"></path>
    </defs>
    <g id="Symbols" stroke="none" stroke-width="1" fill="none" fill-rule="evenodd">
        <g id="Icons-/-Interface-Essential-/-16-/-List-Unordered">
            <mask id="mask-2" fill="white">
                <use xlink:href="#path-1"></use>
            </mask>
            <use id="Combined-Shape" fill="#979797" fill-rule="nonzero" xlink:href="#path-1"></use>
            <g id="Group" mask="url(#mask-2)" fill="#455065">
                <g id="Colors-/-307-Gray-Dark">
                    <rect id="Rectangle" x="0" y="0" width="16" height="16"></rect>
                </g>
            </g>
        </g>
    </g>
</svg>