<?xml version="1.0" encoding="UTF-8"?>
<svg width="109px" height="30px" viewBox="0 0 109 30" version="1.1" xmlns="http://www.w3.org/2000/svg" xmlns:xlink="http://www.w3.org/1999/xlink">
    <!-- Generator: sketchtool 63.1 (101010) - https://sketch.com -->
    <title>b496fdca-b2f9-44c9-8240-07dc0c2a3bdd@1.00x</title>
    <desc>Created with sketchtool.</desc>
    <g id="Symbols" stroke="none" stroke-width="1" fill="none" fill-rule="evenodd">
        <g id="Logo-/-Default-/-Main-Colors">
            <path d="M8.06474893,0 L14.7288067,6.66427804 C14.7772921,6.70727338 14.8257776,6.75564314 14.8796503,6.80938732 L14.8796503,6.80938732 L20.6925188,12.6245073 L11.2378532,22.0297384 L15.5692214,26.3615192 L12.6708681,29.2422071 L6.04990852,22.6209244 C5.97448668,22.551057 5.89367758,22.4704407 5.81286847,22.3898244 L5.81286847,22.3898244 L0,16.5800788 L9.42234194,7.21246865 L5.12868469,2.91830885 L8.06474893,0 Z M12.2829843,10.4424937 C12.196788,10.4156216 12.1105916,10.4156216 12.0243952,10.4424937 C11.9381988,10.4639914 11.862777,10.5069867 11.7119333,10.6574704 L11.7119333,10.6574704 L6.33004676,16.015765 C6.17381582,16.1716231 6.1361049,16.2414905 6.10916853,16.3274812 C6.08223216,16.4134719 6.08223216,16.4994626 6.10916853,16.5854532 C6.1361049,16.6714439 6.17920309,16.7466858 6.33004676,16.8971695 L6.33004676,16.8971695 L8.03781256,18.6062343 C8.1940435,18.7620924 8.26407806,18.7997134 8.35027445,18.8265855 C8.43647083,18.8534575 8.52266721,18.8534575 8.60886359,18.8265855 C8.69505997,18.7997134 8.77048181,18.7620924 8.9159382,18.6116087 L8.9159382,18.6116087 L14.2978248,13.2533142 C14.4540557,13.0974561 14.4917666,13.0275887 14.518703,12.941598 C14.5456394,12.8556073 14.5456394,12.7696166 14.518703,12.6836259 C14.4971539,12.5976353 14.4540557,12.5223934 14.303212,12.3719097 L14.303212,12.3719097 L12.5954462,10.6628449 C12.4392153,10.5069867 12.3691807,10.4693658 12.2829843,10.4424937 Z" id="Shape" fill="#204ECF"></path>
            <path d="M63.5325011,7.40973312 C65.6909169,7.40973312 67.5286985,8.24175824 68.9989238,9.85871272 C70.4847898,11.4285714 71.2355431,13.5792779 71.2277832,16.255887 C71.2199024,18.877551 70.4535084,21.1616954 68.936361,22.7786499 C67.4348544,24.3877551 65.5188693,25.2040816 63.2353279,25.2040816 C61.2616212,25.1966061 59.4794332,24.4914156 58.2940945,23.2783645 L58.1208208,23.0926217 L58.1051801,30 L54.2028268,29.9921507 L54.2028268,29.7017268 L54.2497489,7.60596546 L58.1286411,7.61381476 L58.1208208,10.3061224 C59.3955374,8.86970173 61.4522887,7.40973312 63.5325011,7.40973312 Z M88.5263309,7.46467818 C90.7551299,7.46467818 92.2957383,7.96703297 93.4766107,8.94034537 C94.6058688,9.87990581 95.2128451,11.549117 95.2640783,13.3086489 L95.2675445,13.5871272 L95.2440092,24.9843014 L91.2947338,24.9843014 L91.2946116,24.5052492 C91.294245,24.0188383 91.2927787,23.5125589 91.2869135,23.0062794 C90.1451428,24.5918367 88.5497919,25.3610675 86.4226575,25.3610675 C84.7334625,25.3610675 83.3101593,24.8508634 82.2622327,23.9010989 C81.2064859,22.9356358 80.6434209,21.6169545 80.6511608,20.0784929 C80.6664682,17.1895398 82.7057666,15.1935797 86.2782345,14.5615881 L86.5712441,14.5133438 L91.3103745,13.7676609 L91.3103745,13.3908948 C91.3103745,12.5902669 91.0757641,11.6248038 90.6065433,11.2323391 C90.1216817,10.8241758 89.542976,10.4788069 88.5263309,10.4788069 C85.7406772,10.4788069 85.1725181,12.5344391 85.1415068,13.5668223 L85.1401205,13.6577708 L81.636605,13.7048666 C81.636605,12.1821036 82.3404362,10.2119309 83.7715598,8.97174254 C84.9124104,7.98180811 86.5797409,7.52030224 88.1932825,7.46943281 L88.4950495,7.46467818 L88.5263309,7.46467818 Z M73.2219113,3.00627943 L77.1086239,3.01412873 L77.1008036,7.66875981 L80.713804,7.67660911 L80.7059836,10.9183673 L77.0929832,10.9105181 L77.0773425,19.6467818 C77.0773425,20.6043956 77.2806715,21.2323391 77.6951499,21.5306122 C78.1330894,21.844584 79.024609,21.5541601 79.024609,21.5541601 L79.024609,21.5541601 L79.3765246,24.9529042 C79.3765246,24.9529042 78.1487301,25.266876 77.3666954,25.266876 C76.3500502,25.266876 75.489812,25.0078493 74.8172622,24.4976452 C73.7380542,23.6813187 73.1828096,22.244898 73.1906299,20.2354788 L73.1906299,20.2354788 L73.2062706,10.9105181 L69.9451858,7.65306122 L73.214091,7.66091052 L73.2219113,3.00627943 Z M50.2613718,9.96075353 C51.3796814,11.122449 52.7169608,13.1711146 52.7091746,16.3579278 C52.7013201,19.544741 51.3640408,21.5855573 50.2457311,22.7394035 C48.712943,24.3092622 46.6327307,25.2119309 44.5368776,25.2119309 C44.4508538,25.2119309 44.36483,25.2119309 44.2788061,25.2040816 C42.0343665,25.1962323 40.0558186,24.3956044 38.397905,22.8257457 C36.732171,21.2401884 35.8875735,19.0580848 35.8875735,16.3186813 C35.8875735,13.5792779 36.7399914,11.3971743 38.4135457,9.81946625 C40.063639,8.25745683 42.0421868,7.46467818 44.2866265,7.46467818 C46.5076051,7.40188383 48.6738413,8.31240188 50.2613718,9.96075353 Z M41.2523318,2.76295133 L41.2523318,6.61695447 L33.7291577,6.62480377 L33.7447984,25 L29.6860382,24.9921507 L29.6860382,24.6389325 L29.7173196,6.61695447 L22.0455589,6.61695447 L22.0533793,2.76295133 L41.2523318,2.76295133 Z M97.1443536,3.02197802 L100.647869,3.02982732 L100.647869,3.12401884 L100.608767,24.9764521 L97.1130722,24.9686028 L97.1130722,24.866562 L97.1443536,3.02197802 Z M106.364543,19.7095761 C107.084015,19.7095761 107.717463,19.9686028 108.225786,20.4866562 C108.741929,21.0047096 109,21.6248038 109,22.3547881 C109,23.0926217 108.741929,23.7048666 108.225786,24.2072214 C107.709643,24.7252747 107.091835,24.9764521 106.364543,24.9764521 C105.637251,24.9764521 105.019443,24.7252747 104.518941,24.2072214 C104.010618,23.7048666 103.752547,23.0926217 103.752547,22.3547881 C103.752547,21.6326531 104.002798,21.0047096 104.518941,20.4866562 C105.035084,19.9686028 105.652891,19.7095761 106.364543,19.7095761 Z M106.380184,20.1412873 C105.770197,20.1412873 105.254054,20.3610675 104.831755,20.7927786 C104.401636,21.2166405 104.190486,21.7346939 104.190486,22.3547881 C104.190486,22.967033 104.393815,23.4929356 104.823935,23.9324961 C105.246233,24.3563579 105.762376,24.5761381 106.380184,24.5761381 C106.990171,24.5761381 107.506314,24.3563579 107.928612,23.9324961 C108.350911,23.5007849 108.569881,22.9827316 108.569881,22.3547881 C108.569881,21.7346939 108.350911,21.2166405 107.928612,20.7927786 C107.506314,20.3610675 106.990171,20.1412873 106.380184,20.1412873 Z M106.552231,20.9105181 C107.130937,20.9105181 107.475032,21.255887 107.475032,21.7268446 C107.475032,22.1271586 107.177859,22.433281 106.771201,22.5117739 L107.482853,23.7833595 L106.997991,23.7833595 L106.997991,23.7912088 L106.29416,22.5353218 L105.817119,22.5353218 L105.817119,23.7912088 L105.387,23.7912088 L105.387,20.9105181 L106.552231,20.9105181 Z M106.489669,21.2951334 L105.817119,21.2951334 L105.817119,22.1742543 L106.489669,22.1742543 C106.865045,22.1742543 107.044913,22.032967 107.044913,21.7425432 C107.044913,21.44427 106.857225,21.2951334 106.489669,21.2951334 Z M91.3103745,16.899529 L87.4158416,17.5588697 C85.5154972,17.8806907 84.631798,18.6263736 84.6239279,19.9058085 C84.6164951,21.0845676 85.4533187,21.8683396 86.7511776,21.9411347 L86.9309801,21.9466248 L86.9466207,21.9466248 C89.4328395,21.9466248 91.2020422,20.0027739 91.3055994,17.1826238 L91.3103745,16.9387755 L91.3103745,16.899529 Z M44.2631654,10.9340659 C42.9571675,10.9340659 41.8232171,11.4364207 40.9082365,12.433281 C40.0088965,13.4144427 39.5474961,14.7252747 39.5474961,16.3343799 C39.5474961,17.9434851 40.0088965,19.2543171 40.9004161,20.2354788 C41.8153968,21.2401884 42.9493471,21.7425432 44.2553451,21.7503925 C45.5848041,21.7503925 46.7265748,21.2480377 47.6415555,20.2511774 C48.5643564,19.2464678 49.0257569,17.9356358 49.0335773,16.3500785 C49.0413976,14.7566719 48.5721768,13.4458399 47.6493758,12.4489796 C46.7343952,11.44427 45.5926245,10.9340659 44.2631654,10.9340659 Z M62.6018798,11.0518053 L62.5862391,11.0518053 C61.2802411,11.0518053 60.1932128,11.5306122 59.2704118,12.5196232 C58.3554312,13.477237 57.8940307,14.7252747 57.8862104,16.2323391 C57.8862104,17.755102 58.3397905,19.1208791 59.2625915,20.1177394 C60.2010331,21.0832025 61.2880614,21.5620094 62.5862391,21.5620094 C63.9078777,21.5620094 65.0183671,21.0753532 65.9098866,20.1255887 C66.840508,19.1365777 67.2862678,17.7708006 67.2940881,16.2480377 C67.3019085,14.733124 66.8326876,13.4850863 65.9255273,12.5353218 C65.0418281,11.5541601 63.9235184,11.0518053 62.6018798,11.0518053 Z" id="Combined-Shape" fill="#262D3D"></path>
        </g>
    </g>
</svg>
