<?xml version="1.0" encoding="UTF-8"?>
<svg width="16px" height="16px" viewBox="0 0 16 16" version="1.1" xmlns="http://www.w3.org/2000/svg" xmlns:xlink="http://www.w3.org/1999/xlink">
    <title>Icons / Misc / 16 / Multi</title>
    <defs>
        <path d="M9,7 L1,7 L1,15 L9,15 L9,7 Z M10,12 L12,12 L12,4 L4,4 L4,6 L10,6 L10,12 Z M15,1 L7,1 L7,3 L13,3 L13,9 L15,9 L15,1 Z M10,16 L0,16 L0,6 L3,6 L3,3 L6,3 L6,0 L16,0 L16,10 L13,10 L13,13 L10,13 L10,16 Z" id="path-1"></path>
    </defs>
    <g id="Icons" stroke="none" stroke-width="1" fill="none" fill-rule="evenodd">
        <g transform="translate(-433.000000, -1833.000000)" id="Misc">
            <g transform="translate(100.000000, 1767.000000)">
                <g id="16" transform="translate(93.000000, 66.000000)">
                    <g id="Icons-/-Misc-/-16-/-Multi" transform="translate(240.000000, 0.000000)">
                        <mask id="mask-2" fill="white">
                            <use xlink:href="#path-1"></use>
                        </mask>
                        <use id="Combined-Shape" fill="#979797" fill-rule="nonzero" xlink:href="#path-1"></use>
                        <g id="Colors-/-305-Dark-Gray" mask="url(#mask-2)" fill="#455065" fill-rule="evenodd">
                            <rect id="Rectangle" x="0" y="0" width="16" height="16"></rect>
                        </g>
                    </g>
                </g>
            </g>
        </g>
    </g>
</svg>