<?xml version="1.0" encoding="UTF-8"?>
<svg width="24px" height="24px" viewBox="0 0 24 24" version="1.1" xmlns="http://www.w3.org/2000/svg" xmlns:xlink="http://www.w3.org/1999/xlink">
    <title>Icons / Misc / 24 / Multi</title>
    <defs>
        <path d="M14,10 L2,10 L2,22 L14,22 L14,10 Z M15,18 L18,18 L18,6 L6,6 L6,9 L15,9 L15,18 Z M22,2 L10,2 L10,5 L19,5 L19,14 L22,14 L22,2 Z M15,23 L1,23 L1,9 L5,9 L5,5 L9,5 L9,1 L23,1 L23,15 L19,15 L19,19 L15,19 L15,23 Z" id="path-1"></path>
    </defs>
    <g id="Icons-/-Misc-/-24-/-Multi" stroke="none" stroke-width="1" fill="none" fill-rule="evenodd">
        <mask id="mask-2" fill="white">
            <use xlink:href="#path-1"></use>
        </mask>
        <use id="Combined-Shape" fill="#979797" fill-rule="nonzero" xlink:href="#path-1"></use>
        <g id="Colors-/-305-Dark-Gray" mask="url(#mask-2)" fill="#455065">
            <rect id="Rectangle" x="0" y="0" width="24" height="24"></rect>
        </g>
    </g>
</svg>