<?xml version="1.0" encoding="UTF-8"?>
<svg width="24px" height="24px" viewBox="0 0 24 24" version="1.1" xmlns="http://www.w3.org/2000/svg" xmlns:xlink="http://www.w3.org/1999/xlink">
    <title>Icons / Misc / 24 / Multi</title>
    <defs>
        <path d="M6,11 L11.1961524,14 L11.1961524,20 L6,23 L0.803847577,20 L0.803847577,14 L6,11 Z M18,11 L23.1961524,14 L23.1961524,20 L18,23 L12.8038476,20 L12.8038476,14 L18,11 Z M6,12.155 L1.803,14.577 L1.803,19.422 L6,21.844 L10.196,19.422 L10.196,14.577 L6,12.155 Z M18,12.155 L13.803,14.577 L13.803,19.422 L18,21.844 L22.196,19.422 L22.196,14.577 L18,12.155 Z M12,0 L17.1961524,3 L17.1961524,9 L12,12 L6.80384758,9 L6.80384758,3 L12,0 Z M12,1.155 L7.803,3.577 L7.803,8.422 L12,10.844 L16.196,8.422 L16.196,3.577 L12,1.155 Z" id="path-1"></path>
    </defs>
    <g id="Icons-/-Misc-/-24-/-Multi" stroke="none" stroke-width="1" fill="none" fill-rule="evenodd">
        <mask id="mask-2" fill="white">
            <use xlink:href="#path-1"></use>
        </mask>
        <use id="Combined-Shape" fill="#979797" fill-rule="nonzero" xlink:href="#path-1"></use>
        <g id="Colors-/-305-Dark-Gray" mask="url(#mask-2)" fill="#455065">
            <rect id="Rectangle" x="0" y="0" width="24" height="24"></rect>
        </g>
    </g>
</svg>