<?xml version="1.0" encoding="UTF-8"?>
<svg width="24px" height="24px" viewBox="0 0 24 24" version="1.1" xmlns="http://www.w3.org/2000/svg" xmlns:xlink="http://www.w3.org/1999/xlink">
    <title>39C644D7-9DC0-495C-8D5F-9D59A4B28065@1x</title>
    <defs>
        <path d="M23,1 L23,23 L1,23 L1,1 L23,1 Z M22,2 L2,2 L2,22 L22,22 L22,2 Z M17,19 L17,20 L16,20 L16,19 L17,19 Z M9.62132034,13.6715729 L10.3284271,14.3786797 L8.20710678,16.5 L10.3284271,18.6213203 L9.62132034,19.3284271 L7.5,17.2071068 L5.37867966,19.3284271 L4.67157288,18.6213203 L6.79289322,16.5 L4.67157288,14.3786797 L5.37867966,13.6715729 L7.5,15.7928932 L9.62132034,13.6715729 Z M20,16 L20,17 L13,17 L13,16 L20,16 Z M17,13 L17,14 L16,14 L16,13 L17,13 Z M8,4 L8,7 L11,7 L11,8 L8,8 L8,11 L7,11 L7,8 L4,8 L4,7 L7,7 L7,4 L8,4 Z M20,7 L20,8 L13,8 L13,7 L20,7 Z" id="path-1"></path>
    </defs>
    <g id="Symbols" stroke="none" stroke-width="1" fill="none" fill-rule="evenodd">
        <g id="Icons-/-Misc-/-24-/-Numerical-Analysis">
            <mask id="mask-2" fill="white">
                <use xlink:href="#path-1"></use>
            </mask>
            <use id="Combined-Shape" fill="#979797" fill-rule="nonzero" xlink:href="#path-1"></use>
            <g id="Group" mask="url(#mask-2)" fill="#455065">
                <g id="Colors-/-307-Gray-Dark">
                    <rect id="Rectangle" x="0" y="0" width="24" height="24"></rect>
                </g>
            </g>
        </g>
    </g>
</svg>