<svg fill="none" xmlns="http://www.w3.org/2000/svg" viewBox="0 0 24 24">
  <path fill-rule="evenodd" clip-rule="evenodd" d="M22 11.5c0 .1676-.0039.3343-.0117.5h-1.0012c.0086-.1656.0129-.3323.0129-.5C21 6.25329 16.7467 2 11.5 2 6.25329 2 2 6.25329 2 11.5c0 5.2467 4.25329 9.5 9.5 9.5.1677 0 .3344-.0043.5-.0129v1.0012c-.1657.0078-.3324.0117-.5.0117C5.70101 22 1 17.299 1 11.5 1 5.70101 5.70101 1 11.5 1 17.299 1 22 5.70101 22 11.5ZM12 11v1H6v-1h5V4h1v7Zm3.278 8v-.721h-2.072l.4225-.3267c1.0057-.8007 1.6215-1.4896 1.6215-2.2493 0-.931-.791-1.442-1.694-1.442-.651 0-1.309.252-1.722.749l.476.539c.294-.336.714-.56 1.26-.56.427 0 .847.224.847.714 0 .672-.707 1.281-2.52 2.653V19h3.381Zm2.59.084c1.309 0 1.869-1.239 1.869-2.415s-.56-2.408-1.869-2.408-1.869 1.232-1.869 2.408.56 2.415 1.869 2.415Zm-1.036-2.415c0 .889.273 1.687 1.036 1.687s1.036-.798 1.036-1.687-.273-1.68-1.036-1.68-1.036.791-1.036 1.68ZM23.524 19h-.735v-2.128c0-.525-.273-.686-.686-.686-.371 0-.693.224-.868.455V19H20.5v-4.669h.735v1.75c.224-.266.665-.546 1.197-.546.728 0 1.092.378 1.092 1.071V19Z" fill="#455065"/>
</svg>
