<svg fill="none" xmlns="http://www.w3.org/2000/svg" viewBox="0 0 16 16">
  <path fill-rule="evenodd" clip-rule="evenodd" d="M15 7.5c0 .16801-.0055.33474-.0164.5h-1.0025c.0125-.16502.0189-.33176.0189-.5C14 3.91015 11.0899 1 7.5 1 3.91015 1 1 3.91015 1 7.5 1 11.0899 3.91015 14 7.5 14c.16824 0 .33498-.0064.5-.0189v1.0025c-.16526.0109-.33199.0164-.5.0164C3.35786 15 0 11.6421 0 7.5 0 3.35786 3.35786 0 7.5 0 11.6421 0 15 3.35786 15 7.5ZM8 7v1H4V7h3V2h1v5Zm1.77 6v-.515H8.29l.33984-.2638C9.32562 11.6622 9.75 11.178 9.75 10.645c0-.665-.565-1.03-1.21-1.03-.465 0-.935.18-1.23.535l.34.385c.21-.24.51-.4.9-.4.305 0 .605.16.605.51 0 .48-.505.915-1.8 1.895V13H9.77Zm1.85.06c.935 0 1.335-.885 1.335-1.725 0-.84-.4-1.72-1.335-1.72-.935 0-1.335.88-1.335 1.72s.4 1.725 1.335 1.725Zm-.74-1.725c0 .635.195 1.205.74 1.205.545 0 .74-.57.74-1.205 0-.635-.195-1.2-.74-1.2-.545 0-.74.565-.74 1.2ZM15.66 13h-.525v-1.52c0-.375-.195-.49-.49-.49-.265 0-.495.16-.62.325V13H13.5V9.665h.525v1.25c.16-.19.475-.39.855-.39.52 0 .78.27.78.765V13Z" fill="#455065"/>
</svg>
