<?xml version="1.0" encoding="UTF-8"?>
<svg width="24px" height="24px" viewBox="0 0 24 24" version="1.1" xmlns="http://www.w3.org/2000/svg" xmlns:xlink="http://www.w3.org/1999/xlink">
    <title>5cb218a8-0198-4958-a86a-126e05f95775@1.00x</title>
    <defs>
        <path d="M22.0822191,10.0434844 C23.1825417,10.5067804 23.917074,11.5716654 23.9920457,12.777007 L23.9983835,12.9791187 L23.9999993,15.5045617 C24.0004966,16.2810395 23.4259199,16.917746 22.6903622,16.9895131 L22.5506597,16.9962452 L18.4284493,16.9994679 C17.6741584,16.9989572 17.0553188,16.4080361 16.9846843,15.6512572 L16.9779654,15.5075211 L16.9767938,13.6767313 L16.0263811,13.5278852 C13.3478091,13.1453935 10.635957,13.1449467 7.96683791,13.5278209 L7.02248043,13.675744 L7.0236511,15.5050938 C7.024148,16.2815716 6.44957131,16.9182781 5.7140136,16.9900452 L5.57431113,16.9967773 L1.45210074,17 C0.697809848,16.9994893 0.0789701891,16.4085681 0.00833572091,15.6517893 L0.00161680772,15.5080532 L-6.74638537e-07,12.9826102 C-0.000823256603,11.6950952 0.751876926,10.5361266 1.91314714,10.0482009 C8.37671612,7.31881523 15.6266704,7.31729146 22.0822191,10.0434844 Z M2.74733411,10.7864422 L2.30215827,10.9694339 C1.56781939,11.2779794 1.06942612,11.988655 1.00669996,12.8054306 L0.999999795,12.98197 L1.0016166,15.5074133 C1.00177518,15.7552099 1.16591205,15.9515536 1.37221622,15.992242 L1.45131896,16 L5.57498898,15.9967776 C5.7901128,15.9969234 5.97743366,15.8287788 6.01627955,15.5958968 L6.02365131,15.5057337 L6.02193474,12.8233436 L7.18794077,12.636478 C9.94192068,12.1793728 12.7478656,12.1183163 15.5376329,12.4551364 L16.1811072,12.5399278 L17.9762464,12.8210683 L17.9779652,15.5068812 C17.9781238,15.7546778 18.1422606,15.9510215 18.3485648,15.9917099 L18.4276675,15.9994682 L22.5513376,15.9962455 C22.7664614,15.9963913 22.9537824,15.8282466 22.9926284,15.5953648 L22.9999998,15.5052018 L22.9983838,12.9797587 C22.9978141,12.0896723 22.4804312,11.2961821 21.6931845,10.9647075 C15.6340635,8.40592692 8.84838215,8.34651507 2.74733411,10.7864422 Z" id="path-1"></path>
    </defs>
    <g id="Symbols" stroke="none" stroke-width="1" fill="none" fill-rule="evenodd">
        <g id="Icons-/-Communication-/-24-/-Call-End">
            <mask id="mask-2" fill="white">
                <use xlink:href="#path-1"></use>
            </mask>
            <use id="Path" fill="#979797" fill-rule="nonzero" xlink:href="#path-1"></use>
            <g id="Colors-/-305-Dark-Gray" mask="url(#mask-2)" fill="#455065">
                <rect id="Rectangle" x="0" y="0" width="24" height="24"></rect>
            </g>
        </g>
    </g>
</svg>