<?xml version="1.0" encoding="UTF-8"?>
<svg width="16px" height="16px" viewBox="0 0 16 16" version="1.1" xmlns="http://www.w3.org/2000/svg" xmlns:xlink="http://www.w3.org/1999/xlink">
    <title>3DF10515-26E2-46E4-9292-10DAC9FD5149@1x</title>
    <defs>
        <path d="M8,1 L8,8 L15,8 L15,8.5 C15,12.6421356 11.6421356,16 7.5,16 C3.35786438,16 0,12.6421356 0,8.5 C0,4.43908272 3.22747441,1.13198248 7.25726895,1.00385357 L7.5,1 L8,1 Z M7,2.019 L6.80692952,2.03651458 C3.54294222,2.38247565 1,5.14426984 1,8.5 C1,12.0898509 3.91014913,15 7.5,15 C10.7758318,15 13.4856736,12.5767087 13.9346899,9.42496157 L13.9634854,9.19307048 L13.98,9 L7,9 L7,2.019 Z M9.5,0 C13.0118106,0 15.8731506,2.78499621 15.995897,6.26686587 L16,6.5 L16,7 L9,7 L9,0 L9.5,0 Z M9.999,1.023 L9.999,6 L14.976,6 L14.9611881,5.84319425 C14.6715364,3.40914238 12.7922724,1.46286589 10.3908006,1.07176928 L10.1568058,1.03881193 L9.999,1.023 Z" id="path-1"></path>
    </defs>
    <g id="Symbols" stroke="none" stroke-width="1" fill="none" fill-rule="evenodd">
        <g id="Icons-/-Documents-/-16-/-Pie-Chart">
            <mask id="mask-2" fill="white">
                <use xlink:href="#path-1"></use>
            </mask>
            <use id="Combined-Shape" fill="#979797" fill-rule="nonzero" xlink:href="#path-1"></use>
            <g id="Group" mask="url(#mask-2)" fill="#455065">
                <g id="Colors-/-307-Gray-Dark">
                    <rect id="Rectangle" x="0" y="0" width="16" height="16"></rect>
                </g>
            </g>
        </g>
    </g>
</svg>