<?xml version="1.0" encoding="iso-8859-1"?>
<!-- Generator: Adobe Illustrator 19.0.0, SVG Export Plug-In . SVG Version: 6.00 Build 0)  -->
<svg version="1.1" id="Layer_1" xmlns="http://www.w3.org/2000/svg" xmlns:xlink="http://www.w3.org/1999/xlink" x="0px" y="0px"
	 viewBox="0 0 512 512" style="enable-background:new 0 0 512 512;" xml:space="preserve">
<path style="fill:#F6A230;" d="M156.663,290.735l99.217,203.89L448.613,98.557c-128.49-45.303-266.385-41.985-385.468,0
	l84.644,173.941"/>
<path style="fill:#C66500;" d="M475.801,43.154c-13.591-3.706-29.279-0.727-42.828-4.481c-14.487-4.015-27.1-15.875-41.835-18.889
	c-14.71-3.008-30.968,2.944-45.892,0.938c-14.863-1.996-28.968-12.035-44.013-13.036c-14.946-0.99-30.26,7.09-45.353,7.09h0.211
	c-15.093,0-30.407-8.081-45.353-7.09c-15.045,1.001-29.15,11.04-44.013,13.036c-14.924,2.006-31.183-3.945-45.892-0.938
	c-14.736,3.014-27.348,14.873-41.836,18.889c-13.547,3.754-29.237,0.774-42.827,4.481l26.965,55.409l0.011-0.008
	c119.084-41.985,256.978-45.303,385.468,0L475.801,43.154z"/>
<g>
	<circle style="fill:#D53349;" cx="186.444" cy="153.661" r="46.631"/>
	<circle style="fill:#D53349;" cx="255.874" cy="323.866" r="35.432"/>
</g>
<path style="fill:#FFE285;" d="M286.552,179.256l-19.005,19.004c-9.793,9.794-9.793,25.673,0,35.466
	c5.468,5.467,14.333,5.467,19.801-0.001l5.115-5.116l19.359,19.358l24.436-24.438L316.9,204.174l5.116-5.117
	c5.468-5.467,5.469-14.332,0-19.8C312.223,169.463,296.345,169.463,286.552,179.256z"/>
<g>
	<path style="fill:#53180F;" d="M324.836,93.529c-24.842-3.211-48.617-4.909-68.755-4.909v15.206
		c19.497,0,42.598,1.654,66.805,4.785L324.836,93.529z"/>
	<path style="fill:#53180F;" d="M486.682,38.242l-8.88-2.422c-7.658-2.089-15.536-2.291-23.157-2.486
		c-7.068-0.182-13.744-0.353-19.641-1.987c-5.907-1.637-11.722-4.929-17.88-8.414c-7.608-4.306-15.475-8.759-24.463-10.596
		c-3.358-0.687-6.933-1.021-10.929-1.021c-5.302,0-10.577,0.59-15.677,1.159c-4.909,0.549-9.546,1.067-14.015,1.067
		c-2.114,0-4.004-0.116-5.783-0.356c-6.055-0.813-12.26-3.282-18.828-5.898c-8.122-3.234-16.522-6.578-25.693-7.187
		C300.726,0.034,299.684,0,298.638,0c-7.987,0-15.698,1.935-23.154,3.807c-6.863,1.722-13.346,3.349-19.499,3.368
		c-6.153-0.018-12.636-1.645-19.499-3.368C229.029,1.935,221.318,0,213.331,0c-1.045,0-2.087,0.033-3.099,0.101
		c-9.169,0.61-17.569,3.954-25.692,7.188c-6.568,2.615-12.773,5.086-18.83,5.898c-1.777,0.239-3.669,0.356-5.782,0.356
		c-4.469,0-9.105-0.518-14.015-1.067c-5.1-0.569-10.373-1.159-15.676-1.159c-3.996,0-7.572,0.334-10.929,1.021
		c-8.989,1.839-16.855,6.29-24.463,10.596c-6.157,3.485-11.973,6.777-17.879,8.414c-5.897,1.634-12.573,1.804-19.641,1.987
		c-7.62,0.195-15.499,0.397-23.157,2.486l-8.85,2.414l30.979,63.658l3.894,7.971l0,0l80.76,165.962l13.673-6.654L73.742,102.957
		c0.229-0.077,0.459-0.152,0.689-0.23c3.285-1.098,6.579-2.17,9.884-3.207c0.205-0.064,0.41-0.126,0.614-0.191
		c7.013-2.192,14.066-4.249,21.159-6.165c0.061-0.016,0.122-0.033,0.182-0.05c3.503-0.946,7.016-1.853,10.538-2.731
		c0.183-0.047,0.367-0.093,0.55-0.139c3.458-0.859,6.925-1.682,10.399-2.475c0.234-0.054,0.468-0.107,0.703-0.161
		c3.458-0.784,6.925-1.536,10.399-2.256c0.236-0.05,0.473-0.099,0.71-0.147c3.491-0.72,6.992-1.406,10.499-2.06
		c0.201-0.036,0.401-0.074,0.602-0.11c3.558-0.659,7.123-1.286,10.697-1.878c0.121-0.02,0.242-0.04,0.363-0.06
		c18.482-3.047,37.163-5.191,55.997-6.427c0.159-0.01,0.318-0.021,0.477-0.031c3.568-0.232,7.143-0.427,10.722-0.592
		c0.31-0.015,0.619-0.029,0.929-0.044c3.47-0.155,6.946-0.277,10.425-0.371c0.419-0.011,0.836-0.021,1.255-0.032
		c3.401-0.084,6.806-0.139,10.215-0.164c0.809-0.006,1.619-0.01,2.428-0.012c1.033-0.004,2.065-0.006,3.096-0.004
		c0.978,0.002,1.956,0.009,2.934,0.016c1.039,0.007,2.079,0.015,3.117,0.027c0.962,0.012,1.923,0.028,2.884,0.046
		c1.052,0.018,2.103,0.035,3.155,0.06c0.952,0.021,1.904,0.049,2.855,0.075c1.053,0.028,2.106,0.058,3.158,0.092
		c0.957,0.031,1.914,0.068,2.871,0.105c1.043,0.04,2.087,0.079,3.129,0.124c0.969,0.043,1.936,0.09,2.904,0.137
		c1.027,0.05,2.054,0.099,3.081,0.153c0.991,0.054,1.981,0.113,2.971,0.171c1.001,0.06,2.002,0.116,3.003,0.18
		c1.025,0.065,2.049,0.139,3.072,0.21c0.962,0.067,1.924,0.131,2.885,0.202c1.069,0.079,2.138,0.166,3.205,0.252
		c0.917,0.073,1.835,0.144,2.751,0.222c1.121,0.095,2.241,0.199,3.362,0.3c0.86,0.078,1.719,0.152,2.579,0.234
		c1.208,0.116,2.416,0.239,3.623,0.362c0.768,0.078,1.537,0.152,2.304,0.233c1.335,0.142,2.668,0.292,4,0.443
		c0.641,0.072,1.281,0.141,1.921,0.215c1.509,0.175,3.018,0.361,4.525,0.549c0.464,0.058,0.93,0.11,1.394,0.17
		c1.857,0.235,3.714,0.482,5.569,0.735c0.112,0.016,0.223,0.029,0.335,0.046c7.974,1.096,15.917,2.36,23.823,3.791
		c0.075,0.013,0.15,0.027,0.225,0.042c1.884,0.342,3.765,0.692,5.643,1.052c0.273,0.053,0.544,0.107,0.816,0.16
		c1.679,0.324,3.355,0.655,5.031,0.993c0.409,0.082,0.817,0.169,1.225,0.253c1.538,0.316,3.074,0.634,4.608,0.961
		c0.498,0.106,0.993,0.218,1.491,0.325c1.444,0.313,2.887,0.626,4.329,0.951c0.562,0.126,1.121,0.257,1.683,0.385
		c1.373,0.313,2.745,0.628,4.117,0.952c0.618,0.144,1.235,0.296,1.853,0.444c1.311,0.313,2.62,0.629,3.929,0.952
		c0.668,0.164,1.335,0.335,2.003,0.503c1.253,0.314,2.506,0.63,3.756,0.953c0.711,0.183,1.419,0.371,2.129,0.558
		c1.209,0.317,2.419,0.636,3.626,0.961c0.738,0.198,1.475,0.401,2.213,0.604c1.173,0.32,2.346,0.644,3.517,0.972
		c0.772,0.217,1.544,0.439,2.316,0.658c1.131,0.322,2.263,0.647,3.391,0.976c0.803,0.235,1.604,0.473,2.406,0.712
		c1.097,0.325,2.195,0.653,3.291,0.985c0.826,0.25,1.652,0.506,2.479,0.761c1.065,0.328,2.132,0.659,3.195,0.993
		c0.848,0.268,1.697,0.538,2.544,0.811c1.04,0.333,2.08,0.667,3.118,1.007c0.866,0.283,1.73,0.57,2.595,0.857
		c0.602,0.2,1.204,0.402,1.806,0.605l-6.621,13.604c-24.815-8.12-54.46-15.04-86.27-20.105l-2.391,15.016
		c30.186,4.807,58.295,11.302,81.943,18.896l-168.8,346.879l-92.38-189.841l-13.673,6.653L255.879,512l199.575-410.128
		L486.682,38.242z M57.715,48.535c7.676-0.197,15.612-0.401,23.313-2.534c7.707-2.136,14.622-6.05,21.309-9.834
		c6.883-3.896,13.384-7.576,20.019-8.933c2.344-0.479,4.922-0.712,7.883-0.712c4.455,0,9.085,0.518,13.987,1.065
		c5.107,0.571,10.389,1.162,15.705,1.162c2.799,0,5.352-0.16,7.807-0.49c7.914-1.063,15.293-4,22.43-6.842
		c7.353-2.928,14.298-5.692,21.074-6.144c0.676-0.045,1.38-0.067,2.091-0.067c6.108,0,12.59,1.626,19.452,3.349
		c7.428,1.864,15.108,3.791,23.095,3.825h0.211c7.988-0.033,15.668-1.962,23.095-3.825c6.863-1.722,13.345-3.349,19.452-3.349
		c0.712,0,1.415,0.023,2.089,0.067c6.78,0.451,13.725,3.217,21.077,6.144c7.137,2.841,14.515,5.778,22.428,6.842
		c2.456,0.329,5.011,0.49,7.809,0.49c5.316,0,10.596-0.59,15.703-1.162c4.902-0.547,9.533-1.065,13.988-1.065
		c2.961,0,5.54,0.232,7.883,0.712c6.635,1.357,13.137,5.037,20.02,8.933c6.687,3.784,13.601,7.698,21.309,9.834
		c7.699,2.133,15.636,2.338,23.312,2.534c3.52,0.09,6.941,0.177,10.218,0.444l-19.725,40.193c-1.551-0.527-3.105-1.042-4.66-1.555
		c-0.32-0.105-0.64-0.216-0.96-0.32c-1.959-0.644-3.921-1.275-5.886-1.897c-0.468-0.148-0.939-0.291-1.408-0.438
		c-1.49-0.468-2.98-0.934-4.475-1.389c-0.686-0.21-1.376-0.412-2.062-0.618c-1.281-0.385-2.563-0.771-3.846-1.148
		c-0.754-0.222-1.51-0.437-2.266-0.655c-1.22-0.353-2.438-0.705-3.66-1.049c-0.795-0.224-1.591-0.442-2.385-0.661
		c-1.184-0.328-2.367-0.656-3.552-0.976c-0.818-0.222-1.637-0.438-2.455-0.655c-1.17-0.311-2.34-0.619-3.511-0.924
		c-0.825-0.214-1.652-0.423-2.48-0.634c-1.166-0.296-2.333-0.591-3.5-0.881c-0.833-0.206-1.667-0.409-2.5-0.611
		c-1.168-0.284-2.337-0.566-3.508-0.842c-0.829-0.196-1.658-0.389-2.489-0.581c-1.18-0.274-2.36-0.544-3.542-0.81
		c-0.819-0.185-1.638-0.367-2.458-0.548c-1.203-0.266-2.408-0.527-3.612-0.784c-0.799-0.171-1.598-0.341-2.397-0.509
		c-1.23-0.257-2.461-0.511-3.693-0.76c-0.779-0.158-1.557-0.316-2.337-0.47c-1.262-0.25-2.525-0.496-3.789-0.738
		c-0.75-0.145-1.5-0.289-2.25-0.43c-1.303-0.243-2.607-0.483-3.911-0.718c-0.717-0.129-1.431-0.261-2.148-0.386
		c-1.362-0.24-2.727-0.474-4.091-0.706c-0.657-0.11-1.313-0.224-1.97-0.333c-1.458-0.242-2.918-0.475-4.377-0.706
		c-0.567-0.09-1.132-0.182-1.699-0.271c-1.607-0.249-3.214-0.489-4.822-0.725c-0.424-0.062-0.846-0.127-1.27-0.189
		c-1.902-0.275-3.806-0.538-5.711-0.794c-0.131-0.018-0.26-0.036-0.39-0.055c-8.298-1.108-16.63-2.04-24.991-2.794
		c-0.297-0.026-0.594-0.051-0.89-0.077c-1.762-0.155-3.524-0.306-5.288-0.446c-0.456-0.038-0.913-0.069-1.37-0.105
		c-1.606-0.124-3.211-0.244-4.819-0.356c-0.551-0.039-1.105-0.072-1.657-0.109c-1.511-0.1-3.024-0.197-4.538-0.285
		c-0.62-0.036-1.242-0.069-1.862-0.104c-1.445-0.08-2.89-0.157-4.336-0.227c-0.677-0.033-1.354-0.063-2.03-0.093
		c-1.389-0.062-2.777-0.121-4.166-0.173c-0.727-0.027-1.454-0.053-2.181-0.077c-1.339-0.046-2.679-0.088-4.02-0.125
		c-0.77-0.021-1.541-0.04-2.311-0.059c-1.294-0.029-2.587-0.057-3.882-0.078c-0.818-0.015-1.636-0.026-2.454-0.038
		c-1.238-0.016-2.476-0.027-3.715-0.035c-0.875-0.006-1.751-0.011-2.627-0.013c-0.486-0.002-0.97-0.008-1.456-0.008
		c-0.692,0-1.383,0.008-2.074,0.01c-0.568,0.002-1.135-0.002-1.703,0.002c-0.366,0.002-0.731,0.01-1.097,0.013
		c-1.126,0.009-2.253,0.022-3.379,0.039c-0.879,0.012-1.757,0.024-2.635,0.04c-1.239,0.021-2.476,0.051-3.713,0.08
		c-0.769,0.018-1.54,0.036-2.309,0.059c-1.341,0.038-2.681,0.081-4.02,0.128c-0.67,0.022-1.341,0.046-2.011,0.07
		c-1.434,0.056-2.868,0.117-4.3,0.182c-0.579,0.025-1.159,0.051-1.737,0.078c-1.526,0.073-3.05,0.154-4.574,0.239
		c-0.487,0.026-0.974,0.053-1.461,0.081c-1.614,0.094-3.226,0.196-4.838,0.303c-0.4,0.026-0.8,0.052-1.199,0.079
		c-1.702,0.116-3.403,0.241-5.102,0.372c-0.309,0.023-0.619,0.047-0.93,0.07c-1.784,0.141-3.567,0.29-5.349,0.446
		c-0.229,0.02-0.458,0.039-0.687,0.059c-1.86,0.166-3.719,0.341-5.576,0.524c-0.153,0.015-0.307,0.028-0.46,0.045
		c-1.933,0.191-3.863,0.393-5.793,0.604c-0.079,0.008-0.159,0.016-0.238,0.024c-2.004,0.22-4.006,0.449-6.006,0.689
		c-0.007,0.001-0.014,0.002-0.021,0.003c-30.336,3.638-60.218,9.61-89.469,17.894c-0.076,0.021-0.152,0.044-0.228,0.065
		c-1.848,0.525-3.693,1.057-5.536,1.6c-0.519,0.152-1.035,0.311-1.554,0.465c-1.4,0.416-2.801,0.832-4.198,1.26
		c-0.739,0.226-1.476,0.459-2.215,0.688c-1.175,0.364-2.35,0.727-3.523,1.099c-0.847,0.269-1.692,0.544-2.538,0.818
		c-1.065,0.343-2.132,0.683-3.196,1.034c-0.9,0.295-1.798,0.6-2.698,0.9c-0.899,0.3-1.8,0.596-2.7,0.901L47.46,48.982
		C50.75,48.714,54.182,48.625,57.715,48.535z"/>
	<path style="fill:#53180F;" d="M186.446,99.429c-29.905,0-54.234,24.329-54.234,54.234s24.329,54.234,54.234,54.234
		s54.234-24.329,54.234-54.234S216.351,99.429,186.446,99.429z M186.446,192.692c-21.52,0-39.028-17.508-39.028-39.028
		s17.508-39.028,39.028-39.028s39.028,17.509,39.028,39.028S207.967,192.692,186.446,192.692z"/>
	<path style="fill:#53180F;" d="M212.845,323.864c0,23.729,19.305,43.035,43.035,43.035s43.035-19.305,43.035-43.035
		s-19.305-43.035-43.035-43.035C232.15,280.83,212.845,300.135,212.845,323.864z M255.879,296.036
		c15.345,0,27.829,12.484,27.829,27.829s-12.484,27.829-27.829,27.829s-27.829-12.484-27.829-27.829
		C228.051,308.521,240.535,296.036,255.879,296.036z"/>
	<path style="fill:#53180F;" d="M262.171,239.104c4.08,4.079,9.505,6.326,15.275,6.326c5.647,0,10.965-2.152,15.014-6.069
		l19.361,19.36l35.188-35.191l-19.36-19.359c8.165-8.443,8.078-21.954-0.257-30.29c-6.173-6.174-14.38-9.573-23.108-9.573
		c-8.729,0-16.936,3.4-23.109,9.572l-19.006,19.005C249.429,205.627,249.429,226.361,262.171,239.104z M272.922,203.637
		l19.005-19.004c3.301-3.302,7.689-5.119,12.356-5.119s9.056,1.818,12.355,5.119c2.495,2.494,2.495,6.554,0,9.049l-10.492,10.494
		l19.358,19.355l-13.685,13.686l-19.359-19.358l-10.491,10.492c-1.208,1.208-2.815,1.874-4.525,1.874
		c-1.709,0-3.316-0.665-4.523-1.872C266.109,221.538,266.109,210.451,272.922,203.637z"/>
</g>
<g>
</g>
<g>
</g>
<g>
</g>
<g>
</g>
<g>
</g>
<g>
</g>
<g>
</g>
<g>
</g>
<g>
</g>
<g>
</g>
<g>
</g>
<g>
</g>
<g>
</g>
<g>
</g>
<g>
</g>
</svg>
