<svg fill="none" xmlns="http://www.w3.org/2000/svg" viewBox="0 0 16 16">
  <path fill-rule="evenodd" clip-rule="evenodd" d="M4 1C2.34315 1 1 2.34315 1 4s1.34315 3 3 3 3-1.34315 3-3-1.34315-3-3-3Zm0 1c1.10457 0 2 .89543 2 2s-.89543 2-2 2-2-.89543-2-2 .89543-2 2-2Zm8-1c-1.6569 0-3 1.34315-3 3s1.3431 3 3 3 3-1.34315 3-3-1.3431-3-3-3Zm0 1c1.1046 0 2 .89543 2 2s-.8954 2-2 2-2-.89543-2-2 .8954-2 2-2ZM1 12c0-1.6569 1.34315-3 3-3s3 1.3431 3 3-1.34315 3-3 3-3-1.3431-3-3Zm5 0c0-1.1046-.89543-2-2-2s-2 .8954-2 2 .89543 2 2 2 2-.8954 2-2Zm6-3c-1.6569 0-3 1.3431-3 3s1.3431 3 3 3 3-1.3431 3-3-1.3431-3-3-3Zm0 1c1.1046 0 2 .8954 2 2s-.8954 2-2 2-2-.8954-2-2 .8954-2 2-2Z" fill="#455065"/>
</svg>
