<svg fill="none" xmlns="http://www.w3.org/2000/svg" viewBox="0 0 24 24">
  <path fill-rule="evenodd" clip-rule="evenodd" d="M6 1C3.23858 1 1 3.23858 1 6s2.23858 5 5 5 5-2.23858 5-5-2.23858-5-5-5Zm0 1c2.20914 0 4 1.79086 4 4s-1.79086 4-4 4-4-1.79086-4-4 1.79086-4 4-4Zm12-1c-2.7614 0-5 2.23858-5 5s2.2386 5 5 5 5-2.23858 5-5-2.2386-5-5-5Zm0 1c2.2091 0 4 1.79086 4 4s-1.7909 4-4 4c-2.2091 0-4-1.79086-4-4s1.7909-4 4-4ZM1 18c0-2.7614 2.23858-5 5-5s5 2.2386 5 5-2.23858 5-5 5-5-2.2386-5-5Zm9 0c0-2.2091-1.79086-4-4-4s-4 1.7909-4 4c0 2.2091 1.79086 4 4 4s4-1.7909 4-4Zm8-5c-2.7614 0-5 2.2386-5 5s2.2386 5 5 5 5-2.2386 5-5-2.2386-5-5-5Zm0 1c2.2091 0 4 1.7909 4 4 0 2.2091-1.7909 4-4 4-2.2091 0-4-1.7909-4-4 0-2.2091 1.7909-4 4-4Z" fill="#455065"/>
</svg>
