<?xml version="1.0" encoding="UTF-8"?>
<svg width="24px" height="24px" viewBox="0 0 24 24" version="1.1" xmlns="http://www.w3.org/2000/svg" xmlns:xlink="http://www.w3.org/1999/xlink">
    <!-- Generator: Sketch 63.1 (92452) - https://sketch.com -->
    <title>Icons / People / 24 / Referrals</title>
    <desc>Created with Sketch.</desc>
    <defs>
        <path d="M2.89425121,16.1393537 C4.23079554,19.0747748 6.94503379,21.2505048 10.2108173,21.8403949 L10.0326978,22.8245786 C6.44013414,22.1759379 3.45424067,19.7826973 1.98386588,16.5537054 L2.89425121,16.1393537 Z M17.5,9 C19.9852814,9 22,11.0147186 22,13.5 C22,15.1992675 21.0581391,16.6785516 19.6679883,17.4442813 C21.5632527,18.2572223 22.9096884,20.1059957 22.9956328,22.2787929 L23,22.5 L22,22.5 C22,20.0147186 19.9852814,18 17.5,18 C15.0857267,18 13.1155109,19.9012365 13.004898,22.2881643 L13,22.5 L12,22.5 C12,20.231858 13.3729464,18.2843848 15.3331064,17.4433131 C13.942316,16.6792663 13,15.199678 13,13.5 C13,11.0147186 15.0147186,9 17.5,9 Z M17.5,10 C15.5670034,10 14,11.5670034 14,13.5 C14,15.4329966 15.5670034,17 17.5,17 C19.4329966,17 21,15.4329966 21,13.5 C21,11.5670034 19.4329966,10 17.5,10 Z M6.5,1 C8.98528137,1 11,3.01471863 11,5.5 C11,7.19926753 10.0581391,8.67855165 8.66798826,9.44428126 C10.5632527,10.2572223 11.9096884,12.1059957 11.9956328,14.2787929 L12,14.5 L11,14.5 C11,12.0147186 8.98528137,10 6.5,10 C4.08572667,10 2.11551091,11.9012365 2.00489799,14.2881643 L2,14.5 L1,14.5 C1,12.231858 2.37294636,10.2843848 4.33310642,9.44331312 C2.942316,8.67926626 2,7.19967798 2,5.5 C2,3.01471863 4.01471863,1 6.5,1 Z M12,1 C17.0731233,1 21.3441308,4.43426608 22.615009,9.1047847 L21.6503854,9.36937295 C20.4955098,5.12273993 16.6124324,2 12,2 L12,1 Z M6.5,2 C4.56700338,2 3,3.56700338 3,5.5 C3,7.43299662 4.56700338,9 6.5,9 C8.43299662,9 10,7.43299662 10,5.5 C10,3.56700338 8.43299662,2 6.5,2 Z" id="path-1"></path>
    </defs>
    <g id="Icons-/-People-/-24-/-Referrals" stroke="none" stroke-width="1" fill="none" fill-rule="evenodd">
        <mask id="mask-2" fill="white">
            <use xlink:href="#path-1"></use>
        </mask>
        <use id="Combined-Shape" fill="#455065" fill-rule="nonzero" xlink:href="#path-1"></use>
        <g id="Colors-/-307-Gray-Dark" mask="url(#mask-2)" fill="#455065">
            <rect id="Rectangle" x="0" y="0" width="24" height="24"></rect>
        </g>
    </g>
</svg>