<?xml version="1.0" encoding="UTF-8"?>
<svg width="24px" height="24px" viewBox="0 0 24 24" version="1.1"
  xmlns="http://www.w3.org/2000/svg"
  xmlns:xlink="http://www.w3.org/1999/xlink">
  <defs>
    <style>.cls-1{fill:#204ecf;}</style>
  </defs>
  <title>SQL Developer</title>
  <path class="cls-1" d="M38.9345,16.6125A1.6659,1.6659,0,0,1,39,17c0,2.8379-7.803,6-19,6S1,19.8379,1,17a1.6659,1.6659,0,0,1,.0655-.3875,7.4249,7.4249,0,0,1-.7911-.7207A2.68,2.68,0,0,0,0,17v6c0,3.866,8.9543,7,20,7s20-3.134,20-7V17a2.68,2.68,0,0,0-.2744-1.1082A7.4249,7.4249,0,0,1,38.9345,16.6125ZM39,23c0,2.8379-7.803,6-19,6S1,25.8379,1,23V19.178C3.6179,21.9767,11.1288,24,20,24s16.3821-2.0233,19-4.822Z"/>
  <path class="cls-1" d="M38.9345,26.6125A1.6659,1.6659,0,0,1,39,27c0,2.8379-7.803,6-19,6S1,29.8379,1,27a1.6659,1.6659,0,0,1,.0655-.3875,7.4249,7.4249,0,0,1-.7911-.7207A2.68,2.68,0,0,0,0,27v6c0,3.866,8.9543,7,20,7s20-3.134,20-7V27a2.68,2.68,0,0,0-.2744-1.1082A7.4249,7.4249,0,0,1,38.9345,26.6125ZM39,33c0,2.8379-7.803,6-19,6S1,35.8379,1,33V29.178C3.6179,31.9767,11.1288,34,20,34s16.3821-2.0233,19-4.822Z"/>
  <path class="cls-1" d="M20,0C8.9543,0,0,3.134,0,7v6c0,3.866,8.9543,7,20,7s20-3.134,20-7V7C40,3.134,31.0457,0,20,0Zm0,19C8.803,19,1,15.8379,1,13V9.178C3.6179,11.9767,11.1288,14,20,14s16.3821-2.0233,19-4.822V13C39,15.8379,31.197,19,20,19ZM1,7C1,4.162,8.803,1,20,1S39,4.162,39,7s-7.803,6-19,6S1,9.8379,1,7Z"/>
</svg>