<?xml version="1.0" encoding="UTF-8"?>
<svg width="24px" height="24px" viewBox="0 0 24 24" version="1.1" xmlns="http://www.w3.org/2000/svg" xmlns:xlink="http://www.w3.org/1999/xlink">
    <title>9C213348-FB63-4E97-8117-DA10E5FA520D@1x</title>
    <defs>
        <path d="M18,0 C20.209139,0 22,1.790861 22,4 C22,5.4279908 21.2517157,6.68121044 20.125867,7.38893919 C22.3238484,8.22053913 23.904916,10.3074888 23.9958615,12.7750617 L24,13 L23,13 C23,10.2385763 20.7614237,8 18,8 C15.3112453,8 13.1181819,10.1223067 13.0046195,12.7831104 L13,13 L12.987,13 L14.0572484,15.1684405 L17.6548142,15.6911974 C17.9280866,15.7309062 18.1174274,15.9846277 18.0777186,16.2579001 C18.0619063,16.3667186 18.0106627,16.4672898 17.9319209,16.5440441 L15.3286978,19.0815595 L15.9432354,22.6645887 C15.9899159,22.9367569 15.807122,23.1952349 15.5349538,23.2419154 C15.426575,23.2605038 15.3150909,23.2428464 15.2177607,23.1916769 L12,21.5 L8.78223931,23.1916769 C8.53781702,23.3201773 8.23550344,23.2262041 8.10700304,22.9817818 C8.0558335,22.8844515 8.03817616,22.7729675 8.05676459,22.6645887 L8.67130219,19.0815595 L6.06807911,16.5440441 C5.87033732,16.3512935 5.86629117,16.0347369 6.05904178,15.8369951 C6.13579608,15.7582533 6.23636728,15.7070097 6.3451858,15.6911974 L9.94275162,15.1684405 L11.012,13 L11,13 C11,10.2385763 8.76142375,8 6,8 C3.3112453,8 1.11818189,10.1223067 1.00461951,12.7831104 L1,13 L0,13 C0,10.4348884 1.60967082,8.24573552 3.87400718,7.38754671 C2.74828426,6.68121044 2,5.4279908 2,4 C2,1.790861 3.790861,0 6,0 C8.209139,0 10,1.790861 10,4 C10,5.4279908 9.25171574,6.68121044 8.12586696,7.38893919 C9.98226364,8.09107772 11.3985673,9.68908149 11.8487569,11.6554112 C11.9444117,11.6226465 12.0502952,11.6209348 12.1513378,11.6531565 C12.6019158,9.68853646 14.0180529,8.09095774 15.8740072,7.38754671 C14.7482843,6.68121044 14,5.4279908 14,4 C14,1.790861 15.790861,0 18,0 Z M12,13.26 L10.6068171,16.0824483 L7.492,16.534 L9.74578276,18.7324396 L9.213,21.834 L12,20.3702243 L14.786,21.834 L14.2542172,18.7324396 L16.507,16.534 L13.3931829,16.0824483 L12,13.26 Z M6,1 C4.34314575,1 3,2.34314575 3,4 C3,5.65685425 4.34314575,7 6,7 C7.65685425,7 9,5.65685425 9,4 C9,2.34314575 7.65685425,1 6,1 Z M18,1 C16.3431458,1 15,2.34314575 15,4 C15,5.65685425 16.3431458,7 18,7 C19.6568542,7 21,5.65685425 21,4 C21,2.34314575 19.6568542,1 18,1 Z" id="path-1"></path>
    </defs>
    <g id="Symbols" stroke="none" stroke-width="1" fill="none" fill-rule="evenodd">
        <g id="Icons-/-People-/-24-/-Special-Group">
            <mask id="mask-2" fill="white">
                <use xlink:href="#path-1"></use>
            </mask>
            <use id="Combined-Shape" fill="#979797" fill-rule="nonzero" xlink:href="#path-1"></use>
            <g id="Group" mask="url(#mask-2)" fill="#455065">
                <g id="Colors-/-307-Gray-Dark">
                    <rect id="Rectangle" x="0" y="0" width="24" height="24"></rect>
                </g>
            </g>
        </g>
    </g>
</svg>