<?xml version="1.0" encoding="UTF-8"?>
<svg width="16px" height="16px" viewBox="0 0 16 16" version="1.1"
  xmlns="http://www.w3.org/2000/svg"
  xmlns:xlink="http://www.w3.org/1999/xlink">
  <defs>
    <style>.cls-1{fill:none;stroke:#204ecf;stroke-linecap:round;stroke-linejoin:round;}</style>
  </defs>
  <title>RPA</title>
  <path class="cls-1" d="M39.5,20V17.007l-3.55-1.0144a16.3424,16.3424,0,0,0-1.838-4.4366L35.905,8.3277,31.6722,4.0951,28.444,5.8885a16.3361,16.3361,0,0,0-4.4366-1.838L22.9929.5H17.007L15.9925,4.0505a16.3354,16.3354,0,0,0-4.4365,1.838L8.3278,4.0951,4.095,8.3277,5.8885,11.556a16.3329,16.3329,0,0,0-1.838,4.4366L.5,17.007V20"/>
  <path class="cls-1" d="M9.275,20a10.725,10.725,0,0,1,21.45,0"/>
  <circle class="cls-1" cx="20" cy="37.5" r="2"/>
  <circle class="cls-1" cx="11" cy="35.5" r="2"/>
  <circle class="cls-1" cx="29" cy="35.5" r="2"/>
  <circle class="cls-1" cx="4.5" cy="29.5" r="2"/>
  <circle class="cls-1" cx="35.5" cy="29.5" r="2"/>
  <line class="cls-1" x1="20" y1="35.5" x2="20" y2="20.7249"/>
  <polyline class="cls-1" points="11 33.5 11 28.5 15.081 24.419 15.081 20.725"/>
  <polyline class="cls-1" points="29 33.5 29 28.5 24.919 24.419 24.919 20.725"/>
  <polyline class="cls-1" points="35.5 27.5 35.5 22 33.5 20"/>
  <polyline class="cls-1" points="4.5 27.5 4.5 22 6.5 20"/>
</svg>