<?xml version="1.0" encoding="UTF-8"?>
<svg width="16px" height="16px" viewBox="0 0 16 16" version="1.1" xmlns="http://www.w3.org/2000/svg" xmlns:xlink="http://www.w3.org/1999/xlink">
    <title>AE4FC2A4-B660-4858-9781-EAA633C783EF@1x</title>
    <defs>
        <path d="M12,0 C13.6568542,0 15,1.34314575 15,3 C15,3.99194437 14.5185744,4.87144576 13.77663,5.41759748 C15.0383783,6.04192844 15.9220752,7.31458438 15.9951047,8.80035966 L16,9 L15,9 C15,7.34314575 13.6568542,6 12,6 C10.4023191,6 9.09633912,7.24891996 9.00509269,8.82372721 L9,9 L8.987,9 L9.46946313,9.97745751 L11.7527012,10.3092314 C12.0259736,10.3489402 12.2153143,10.6026617 12.1756055,10.8759341 C12.1597933,10.9847526 12.1085497,11.0853238 12.0298079,11.1620781 L10.3776413,12.7725425 L10.7676649,15.0465547 C10.8143454,15.3187229 10.6315515,15.5772009 10.3593833,15.6238814 C10.2510045,15.6424698 10.1395204,15.6248125 10.0421902,15.5736429 L8,14.5 L5.95780982,15.5736429 C5.71338752,15.7021433 5.41107394,15.6081701 5.28257354,15.3637478 C5.23140401,15.2664175 5.21374667,15.1549335 5.23233509,15.0465547 L5.62235871,12.7725425 L3.97019214,11.1620781 C3.77245036,10.9693275 3.7684042,10.6527709 3.96115481,10.4550291 C4.03790911,10.3762873 4.13848032,10.3250437 4.24729883,10.3092314 L6.53053687,9.97745751 L7.012,9 L7,9 C7,7.34314575 5.65685425,6 4,6 C2.40231912,6 1.09633912,7.24891996 1.00509269,8.82372721 L1,9 L0,9 C0,7.4292161 0.905417065,6.06990369 2.22282885,5.41548511 C1.48142558,4.87144576 1,3.99194437 1,3 C1,1.34314575 2.34314575,0 4,0 C5.65685425,0 7,1.34314575 7,3 C7,3.99194437 6.51857442,4.87144576 5.77662998,5.41759748 C6.70745851,5.87756012 7.43239382,6.69127919 7.77804746,7.68277652 C7.91112345,7.61512411 8.07527474,7.60934838 8.22128286,7.68140769 C8.56769259,6.6912096 9.29254117,5.87760147 10.2228289,5.41548511 C9.48142558,4.87144576 9,3.99194437 9,3 C9,1.34314575 10.3431458,0 12,0 Z M8,9.26 L7.19460238,10.8914653 L5.394,11.153 L6.69683928,12.4234226 L6.388,14.217 L8,13.3702243 L9.611,14.217 L9.30316072,12.4234226 L10.605,11.153 L8.80539762,10.8914653 L8,9.26 Z M4,1 C2.8954305,1 2,1.8954305 2,3 C2,4.1045695 2.8954305,5 4,5 C5.1045695,5 6,4.1045695 6,3 C6,1.8954305 5.1045695,1 4,1 Z M12,1 C10.8954305,1 10,1.8954305 10,3 C10,4.1045695 10.8954305,5 12,5 C13.1045695,5 14,4.1045695 14,3 C14,1.8954305 13.1045695,1 12,1 Z" id="path-1"></path>
    </defs>
    <g id="Symbols" stroke="none" stroke-width="1" fill="none" fill-rule="evenodd">
        <g id="Icons-/-People-/-16-/-Special-Group">
            <mask id="mask-2" fill="white">
                <use xlink:href="#path-1"></use>
            </mask>
            <use id="Combined-Shape" fill="#979797" fill-rule="nonzero" xlink:href="#path-1"></use>
            <g id="Group" mask="url(#mask-2)" fill="#455065">
                <g id="Colors-/-307-Gray-Dark">
                    <rect id="Rectangle" x="0" y="0" width="16" height="16"></rect>
                </g>
            </g>
        </g>
    </g>
</svg>