<?xml version="1.0" encoding="UTF-8"?>
<svg width="24px" height="24px" viewBox="0 0 24 24" version="1.1"
  xmlns="http://www.w3.org/2000/svg"
  xmlns:xlink="http://www.w3.org/1999/xlink">
  <defs>
    <style>.cls-1{fill:none;stroke:#204ecf;stroke-linecap:round;stroke-linejoin:round;}</style>
  </defs>
  <title>Project Manager</title>
  <polyline class="cls-1" points="13.498 30.5 0.498 30.5 0.498 6.5 6.498 0.5 30.498 0.5 30.498 13.5"/>
  <path class="cls-1" d="M39.5917,29.01V25.1731l-2.276-.65a10.47,10.47,0,0,0-1.1782-2.8439l1.15-2.0694-2.7133-2.7133-2.0694,1.15a10.4672,10.4672,0,0,0-2.8439-1.1782l-.65-2.276H25.1731l-.65,2.276a10.4659,10.4659,0,0,0-2.8439,1.1782l-2.0694-1.15L16.8962,19.61l1.15,2.0694a10.4706,10.4706,0,0,0-1.1783,2.8439l-2.2759.65V29.01l2.2759.65a10.4706,10.4706,0,0,0,1.1783,2.8439l-1.15,2.0694L19.61,37.2872l2.0694-1.15a10.4691,10.4691,0,0,0,2.8439,1.1782l.65,2.276H29.01l.65-2.276a10.47,10.47,0,0,0,2.8439-1.1782l2.0694,1.15,2.7133-2.7133-1.15-2.0694a10.47,10.47,0,0,0,1.1782-2.8439Z"/>
  <circle class="cls-1" cx="27.0917" cy="27.0917" r="6.875"/>
  <polygon class="cls-1" points="6.498 6.5 0.498 6.5 6.498 0.5 6.498 6.5"/>
</svg>