<?xml version="1.0" encoding="UTF-8"?>
<svg width="16px" height="16px" viewBox="0 0 16 16" version="1.1"
  xmlns="http://www.w3.org/2000/svg"
  xmlns:xlink="http://www.w3.org/1999/xlink">
  <defs>
    <style>.cls-1{fill:none;stroke:#204ecf;stroke-linecap:round;stroke-linejoin:round;}</style>
  </defs>
  <title>Developer</title>
  <path class="cls-1" d="M39.5,31.5H.5v1a2,2,0,0,0,2,2h35a2,2,0,0,0,2-2Z"/>
  <path class="cls-1" d="M3.5,29.5V7.5a2,2,0,0,1,2-2h29a2,2,0,0,1,2,2v22"/>
  <rect class="cls-1" x="6.5" y="8.5" width="27" height="20"/>
  <line class="cls-1" x1="18" y1="23.5" x2="22" y2="13.5"/>
  <polyline class="cls-1" points="16.5 16 12.5 18.5 16.5 21"/>
  <polyline class="cls-1" points="23.5 16 27.5 18.5 23.5 21"/>
</svg>