<?xml version="1.0" encoding="UTF-8"?>
<svg width="16px" height="16px" viewBox="0 0 16 16" version="1.1"
  xmlns="http://www.w3.org/2000/svg"
  xmlns:xlink="http://www.w3.org/1999/xlink">
  <defs>
    <style>.cls-1{fill:none;stroke:#204ecf;stroke-linecap:round;stroke-linejoin:round;}</style>
  </defs>
  <title>Grupal Developer</title>
  <path class="cls-1" d="M18.9821,24.647a6.1552,6.1552,0,1,0,6.1537,6.1547A6.1548,6.1548,0,0,0,18.9821,24.647Z"/>
  <path class="cls-1" d="M32.1576,18.024a8.1279,8.1279,0,0,1-5.5228,5.4487A10.5915,10.5915,0,0,1,25.0361,39.5,17.7977,17.7977,0,0,0,36.1932,29.4969c2.5993-6.3922.179-11.2048-3.8847-15.5674"/>
  <path class="cls-1" d="M19.6845,15.6815a4.7085,4.7085,0,1,0,4.7088-4.7079A4.7089,4.7089,0,0,0,19.6845,15.6815Z"/>
  <path class="cls-1" d="M8.3807,30.8017A10.6,10.6,0,0,1,17.7167,20.28,8.1011,8.1011,0,0,1,25.4824,7.6492,61.865,61.865,0,0,1,18.0938.5C19.1609,11.615,7.97,7.5768,3.833,17.8191a16.1917,16.1917,0,0,0,7.04,19.8091"/>
</svg>