<?xml version="1.0" encoding="UTF-8"?>
<svg width="24px" height="24px" viewBox="0 0 24 24" version="1.1"
  xmlns="http://www.w3.org/2000/svg"
  xmlns:xlink="http://www.w3.org/1999/xlink">
  <defs>
    <style>.cls-1{fill:none;stroke:#204ecf;stroke-linecap:round;stroke-linejoin:round;}</style>
  </defs>
  <title>AR-VR</title>
  <path class="cls-1" d="M36.5,29.9362H25.4678a2.7427,2.7427,0,0,1-2.282-1.2213L21.313,25.9057a1.578,1.578,0,0,0-2.626,0l-1.8728,2.8092a2.7427,2.7427,0,0,1-2.282,1.2213H3.5a3,3,0,0,1-3-3v-10a3,3,0,0,1,3-3h33a3,3,0,0,1,3,3v10A3,3,0,0,1,36.5,29.9362Z"/>
  <polyline class="cls-1" points="16.19 21 16.19 24.243 14.394 26.936 3.5 26.936 3.5 16.936 36.5 16.936 36.5 26.936 25.606 26.936 23.809 24.242 23.809 21"/>
  <polyline class="cls-1" points="38.5 12.936 35.5 10.064 4.5 10.064 1.5 12.936"/>
  <line class="cls-1" x1="20" y1="0.5" x2="20" y2="8.0638"/>
  <line class="cls-1" x1="20" y1="29.4362" x2="20" y2="39.5"/>
</svg>