<svg xmlns="http://www.w3.org/2000/svg" viewBox="0 0 24 24" xmlns:xlink="http://www.w3.org/1999/xlink"><defs><style>.cls-1{fill:#262d3d;}.cls-2{fill:none;}</style></defs><g id="Layer_2" data-name="Layer 2"><g id="Icons"><path class="cls-1" d="M20.10254,7.3877a4,4,0,1,0-4.20508,0,6.01459,6.01459,0,0,0-3.71728,4.17919.54933.54933,0,0,0-.36036,0A6.01459,6.01459,0,0,0,8.10254,7.3877a4,4,0,1,0-4.20508,0A6.00453,6.00453,0,0,0,0,13H1a4.99594,4.99594,0,0,1,9.99121-.08594L9.84033,15.24634l-3.82666.55591a.5005.5005,0,0,0-.27734.853l2.769,2.699-.65381,3.81128a.50022.50022,0,0,0,.72559.5271L12,21.89331l3.42285,1.79932a.50022.50022,0,0,0,.72559-.5271l-.65381-3.81128,2.769-2.699a.5005.5005,0,0,0-.27734-.853l-3.82666-.55591-1.15088-2.33228A4.99594,4.99594,0,0,1,23,13h1A6.00453,6.00453,0,0,0,20.10254,7.3877ZM3,4A3,3,0,1,1,6,7,3.00328,3.00328,0,0,1,3,4ZM13.37939,15.92456a.49939.49939,0,0,0,.37647.27368l3.084.448L14.6084,18.82153a.49951.49951,0,0,0-.144.44263l.52685,3.07178-2.75879-1.4502a.49948.49948,0,0,0-.46484,0l-2.75879,1.4502.52685-3.07178a.49951.49951,0,0,0-.144-.44263L7.16016,16.64624l3.084-.448a.49939.49939,0,0,0,.37647-.27368L12,13.12988ZM15,4a3,3,0,1,1,3,3A3.00328,3.00328,0,0,1,15,4Z"/><rect class="cls-2" width="24" height="24"/></g></g></svg>