<?xml version="1.0" encoding="UTF-8"?>
<svg width="24px" height="24px" viewBox="0 0 24 24" version="1.1"
  xmlns="http://www.w3.org/2000/svg"
  xmlns:xlink="http://www.w3.org/1999/xlink">
  <defs>
    <style>.cls-1{fill:none;stroke:#204ecf;stroke-linecap:round;stroke-linejoin:round;}</style>
  </defs>
  <title>WordPress Developer</title>
  <path class="cls-1" d="M5.0011,20a15.0029,15.0029,0,0,0,8.4541,13.5L6.3,13.8949A14.9437,14.9437,0,0,0,5.0011,20Z"/>
  <path class="cls-1" d="M30.1278,19.2427a7.8971,7.8971,0,0,0-1.2371-4.137,7.0212,7.0212,0,0,1-1.4731-3.5176,2.5975,2.5975,0,0,1,2.5189-2.6624c.0665,0,.13.0082.1944.0119A14.9971,14.9971,0,0,0,7.4683,11.7611c.352.01.6836.018.9654.018,1.5689,0,3.9976-.19,3.9976-.19a.62.62,0,0,1,.0962,1.2356s-.8126.0956-1.7168.143l5.4625,16.2479"/>
  <path class="cls-1" d="M19.5559,19.37l-2.3371-6.4033c-.8078-.0474-1.573-.143-1.573-.143a.62.62,0,0,1,.0948-1.2356s2.4772.19,3.9511.19c1.5687,0,3.9977-.19,3.9977-.19a.62.62,0,0,1,.0962,1.2356s-.8143.0956-1.7169.143L27.49,29.0916"/>
  <path class="cls-1" d="M20.2646,21.3117,15.764,34.39a15.0072,15.0072,0,0,0,9.2187-.2392,1.3155,1.3155,0,0,1-.1068-.2067Z"/>
  <path class="cls-1" d="M33.1635,12.8029a11.4929,11.4929,0,0,1,.1011,1.5424,14.15,14.15,0,0,1-1.1406,5.3729L27.5421,32.9657a15.0028,15.0028,0,0,0,5.6214-20.1628Z"/>
  <circle class="cls-1" cx="20.0011" cy="20.0003" r="19.5"/>
</svg>