<svg xmlns="http://www.w3.org/2000/svg" viewBox="0 0 16 16" xmlns:xlink="http://www.w3.org/1999/xlink"><defs><style>.cls-1{fill:#262d3d;}.cls-2{fill:none;}</style></defs><g id="Layer_2" data-name="Layer 2"><g id="Icons"><path class="cls-1" d="M13.75391,5.42285a3,3,0,1,0-3.50782,0,4.002,4.002,0,0,0-1.978,2.17139H7.73193a4.002,4.002,0,0,0-1.978-2.17139,3,3,0,1,0-3.50782,0A3.99149,3.99149,0,0,0,0,9H1a2.99617,2.99617,0,0,1,5.99121-.08594l-.542,1.09766-2.46387.35815a.50014.50014,0,0,0-.27734.853l1.7832,1.738-.4209,2.45459a.5.5,0,0,0,.72559.5271L8,14.78369l2.2041,1.15894a.5.5,0,0,0,.72559-.5271l-.4209-2.45459,1.7832-1.738a.50014.50014,0,0,0-.27734-.853l-2.46387-.35815-.542-1.09766A2.99617,2.99617,0,0,1,15,9h1A3.99149,3.99149,0,0,0,13.75391,5.42285ZM2,3A2,2,0,1,1,4,5,2.00245,2.00245,0,0,1,2,3Zm8.86865,8.21387L9.62256,12.42822a.50085.50085,0,0,0-.144.44263L9.773,14.58594l-1.54053-.80982a.49948.49948,0,0,0-.46484,0l-1.54053.80982.29443-1.71509a.50085.50085,0,0,0-.144-.44263L5.13135,11.21387l1.72217-.25025A.5002.5002,0,0,0,7.23,10.68994L8,9.12964l.77,1.5603a.5002.5002,0,0,0,.37646.27368ZM10,3a2,2,0,1,1,2,2A2.00245,2.00245,0,0,1,10,3Z"/><rect class="cls-2" width="16" height="16"/></g></g></svg>