<?xml version="1.0" encoding="UTF-8"?>
<svg width="16px" height="16px" viewBox="0 0 16 16" version="1.1"
  xmlns="http://www.w3.org/2000/svg"
  xmlns:xlink="http://www.w3.org/1999/xlink">
  <defs>
    <style>.cls-1{fill:none;stroke:#204ecf;stroke-linecap:round;stroke-linejoin:round;}</style>
  </defs>
  <title>Salesforce Developer</title>
  <path class="cls-1" d="M16.6456,9.0547a7.0088,7.0088,0,0,1,5.0723-2.1778,7.0822,7.0822,0,0,1,6.171,3.6581,8.5278,8.5278,0,0,1,3.4877-.7413,8.6992,8.6992,0,0,1,0,17.3978,8.5611,8.5611,0,0,1-1.6985-.1693,6.3037,6.3037,0,0,1-8.26,2.5943,7.192,7.192,0,0,1-13.37-.3253,6.5981,6.5981,0,0,1-1.372.143A6.76,6.76,0,0,1,3.3385,16.845a7.7681,7.7681,0,0,1,13.3071-7.79"/>
  <line class="cls-1" x1="10.9461" y1="19" x2="29.0539" y2="19"/>
</svg>