<?xml version="1.0" encoding="UTF-8"?>
<svg width="16px" height="16px" viewBox="0 0 16 16" version="1.1" xmlns="http://www.w3.org/2000/svg" xmlns:xlink="http://www.w3.org/1999/xlink">
    <title>Icons / Misc / 16 / Subfunction</title>
    <defs>
        <path d="M10,1 L10,6 L8,6 L8,8 L13,8 L13.0004345,11.0500973 C14.1413382,11.2819003 15,12.2906746 15,13.5 C15,14.8807119 13.8807119,16 12.5,16 C11.1192881,16 10,14.8807119 10,13.5 C10,12.2903182 10.8591679,11.2813059 12.000574,11.0498926 L12,9 L3,9 L3,11 L5,11 L5,16 L0,16 L0,11 L2,11 L2,8 L7,8 L7,6 L5,6 L5,1 L10,1 Z M4,12 L1,12 L1,15 L4,15 L4,12 Z M12.5,12 C11.6715729,12 11,12.6715729 11,13.5 C11,14.3284271 11.6715729,15 12.5,15 C13.3284271,15 14,14.3284271 14,13.5 C14,12.6715729 13.3284271,12 12.5,12 Z M9,2 L6,2 L6,5 L9,5 L9,2 Z" id="path-1"></path>
    </defs>
    <g id="Icons" stroke="none" stroke-width="1" fill="none" fill-rule="evenodd">
        <g transform="translate(-925.000000, -1833.000000)" id="Misc">
            <g transform="translate(100.000000, 1767.000000)">
                <g id="16" transform="translate(93.000000, 65.000000)">
                    <g id="Group" transform="translate(732.000000, 0.000000)">
                        <mask id="mask-2" fill="white">
                            <use xlink:href="#path-1"></use>
                        </mask>
                        <use id="Combined-Shape" fill="#262D3D" fill-rule="nonzero" xlink:href="#path-1"></use>
                        <g mask="url(#mask-2)" fill="#455065" id="Colors-/-307-Gray-Dark">
                            <g>
                                <rect id="Rectangle" x="0" y="0" width="16" height="16"></rect>
                            </g>
                        </g>
                    </g>
                </g>
            </g>
        </g>
    </g>
</svg>