<svg fill="none" xmlns="http://www.w3.org/2000/svg" viewBox="0 0 16 16">
  <path fill-rule="evenodd" clip-rule="evenodd" d="M5.33333 0h5.33337v5.33333H8.53333v2.13334h5.33337V10.72C15.0839 10.9671 16 12.0432 16 13.3333 16 14.8061 14.8061 16 13.3333 16c-1.4727 0-2.6666-1.1939-2.6666-2.6667 0-1.2901.9161-2.3662 2.1333-2.6133V8.53333H3.2v2.13337h2.13333V16H0v-5.3333h2.13333V7.46667h5.33334V5.33333H5.33333V0Zm7.98377 11.7333c-.8762.0088-1.5837.7217-1.5837 1.6 0 .8836.7163 1.6 1.6 1.6.8836 0 1.6-.7164 1.6-1.6 0-.8783-.7076-1.5912-1.5838-1.6h-.0325Zm-11.18377 0H1.06667v3.2h3.2v-3.2H2.13333Zm5.33334-7.46663H9.59996v-3.2h-3.2v3.2h1.06671Z" fill="#455065"/>
</svg>
