<svg fill="none" xmlns="http://www.w3.org/2000/svg" viewBox="0 0 24 24">
  <path fill-rule="evenodd" clip-rule="evenodd" d="M8.34783 0h7.30437v7.30435h-3.1305v4.17395h8.3479v5.2543C22.6395 16.9858 24 18.5079 24 20.3478 24 22.3649 22.3649 24 20.3478 24c-2.017 0-3.6521-1.6351-3.6521-3.6522 0-1.8399 1.3605-3.362 3.1304-3.6152v-4.2109H4.17391v4.174h3.13044V24H0v-7.3043h3.13043v-5.2174h8.34787V7.30435H8.34783V0Zm3.13047 6.26087H14.6087V1.04348H9.39135v5.21739h2.08695ZM6.26087 22.9566v-5.2174H1.04348v5.2174h5.21739Zm14.08693-5.2174c1.4407 0 2.6087 1.168 2.6087 2.6087 0 1.4408-1.168 2.6087-2.6087 2.6087-1.4407 0-2.6087-1.1679-2.6087-2.6087 0-1.4407 1.168-2.6087 2.6087-2.6087Z" fill="#455065"/>
</svg>
