<svg width="16" height="16" viewBox="0 0 16 16" fill="none" xmlns="http://www.w3.org/2000/svg">
<path fill-rule="evenodd" clip-rule="evenodd" d="M13.9959 5.77506C13.8776 2.56557 11.2384 0 8 0C4.68629 0 2 2.68629 2 6H1C0.447715 6 0 6.44772 0 7V10C0 10.5523 0.447715 11 1 11H4V6H3L3.00462 5.78311C3.11818 3.12231 5.31124 1 8 1C10.7614 1 13 3.23858 13 6H12V11H13V13.5L12.9919 13.5899C12.9496 13.8231 12.7455 14 12.5 14H10.9146C10.7087 13.4174 10.1531 13 9.5 13H8.5C7.67157 13 7 13.6716 7 14.5C7 15.3284 7.67157 16 8.5 16H9.5C10.1531 16 10.7087 15.5826 10.9146 15H12.5L12.6445 14.9931C13.4051 14.9204 14 14.2797 14 13.5V11H15C15.5523 11 16 10.5523 16 10V7C16 6.44772 15.5523 6 15 6H14L13.9959 5.77506ZM10 14.5C10 14.2545 9.82312 14.0504 9.58988 14.0081L9.5 14H8.5C8.22386 14 8 14.2239 8 14.5C8 14.7455 8.17688 14.9496 8.41012 14.9919L8.5 15H9.5C9.77614 15 10 14.7761 10 14.5ZM3 7V10H1V7H3ZM13 10V7H15V10H13Z" fill="#455065"/>
</svg>
