<svg width="24" height="24" viewBox="0 0 24 24" fill="none" xmlns="http://www.w3.org/2000/svg">
<path fill-rule="evenodd" clip-rule="evenodd" d="M12 0C16.8818 0 20.8558 3.88681 20.9962 8.73464L21 9H23C23.5523 9 24 9.44771 24 10V16C24 16.5523 23.5523 17 23 17H21V20.5C21 21.2797 20.4051 21.9204 19.6445 21.9931L19.5 22H15.9146C15.7087 22.5826 15.1531 23 14.5 23H12.5C11.6716 23 11 22.3284 11 21.5C11 20.6716 11.6716 20 12.5 20H14.5C15.1531 20 15.7087 20.4174 15.9146 21H19.5C19.7455 21 19.9496 20.8231 19.9919 20.5899L20 20.5V17H19V9H20C20 4.58172 16.4183 1 12 1C7.66509 1 4.13546 4.44784 4.00381 8.75082L4 9H5V17H1C0.447715 17 0 16.5523 0 16V10C0 9.44771 0.447715 9 1 9H3C3 4.02944 7.02944 0 12 0ZM4 10V16H1V10H4ZM20 16V10H23V16H20ZM14.5 21H12.5C12.2239 21 12 21.2239 12 21.5C12 21.7455 12.1769 21.9496 12.4101 21.9919L12.5 22H14.5C14.7761 22 15 21.7761 15 21.5C15 21.2545 14.8231 21.0504 14.5899 21.0081L14.5 21Z" fill="#455065"/>
</svg>
