<?xml version="1.0" encoding="UTF-8"?>
<svg width="24px" height="24px" viewBox="0 0 24 24" version="1.1" xmlns="http://www.w3.org/2000/svg" xmlns:xlink="http://www.w3.org/1999/xlink">
    <!-- Generator: sketchtool 54.1 (76490) - https://sketchapp.com -->
    <title>94bd303d-1f9a-4b70-b58e-e97cccbbf1f4@1.00x</title>
    <desc>Created with sketchtool.</desc>
    <defs>
        <path d="M2,0 L22,0 L22,24 L2,24 L2,0 Z M3,1 L3,23 L21,23 L21,1 L3,1 Z M6,5 L18,5 L18,6 L6,6 L6,5 Z M6,8 L18,8 L18,9 L6,9 L6,8 Z M6,11 L13,11 L13,12 L6,12 L6,11 Z M6,18 L10,18 L10,19 L6,19 L6,18 Z" id="path-1"></path>
    </defs>
    <g id="Symbols" stroke="none" stroke-width="1" fill="none" fill-rule="evenodd">
        <g id="Icons-/-Notifications-/-24-/-Terms">
            <mask id="mask-2" fill="white">
                <use xlink:href="#path-1"></use>
            </mask>
            <use id="Combined-Shape" fill="#000000" fill-rule="nonzero" xlink:href="#path-1"></use>
            <g id="Colors-/-Black" mask="url(#mask-2)" fill="#000000">
                <rect id="Rectangle" x="0" y="0" width="16" height="16"></rect>
            </g>
        </g>
    </g>
</svg>