<svg xmlns="http://www.w3.org/2000/svg" xmlns:xlink="http://www.w3.org/1999/xlink" viewBox="0 0 16 16">
  <defs>
    <path d="M16 12a4 4 0 01-7 2.647V16H8v-3h3v1H9.764a3 3 0 005.23-1.825l.006-.175h1zM7.5 0a7.5 7.5 0 017.484 7H13.98a6.5 6.5 0 10-6.98 6.981v1.003A7.5 7.5 0 017.5 0zM16 8v3h-3v-1h1.236a3 3 0 00-5.231 1.824L9 12H8a4 4 0 017.002-2.645L15 8h1zM8 2v6H4V7h3V2h1z" id="a"/>
  </defs>
  <g fill="none" fill-rule="evenodd">
    <mask id="b" fill="#fff">
      <use xlink:href="#a"/>
    </mask>
    <use fill="#000" xlink:href="#a"/>
    <g mask="url(#b)" fill="#455065">
      <path d="M0 0h16v16H0z"/>
    </g>
  </g>
</svg>
