<svg fill="none" xmlns="http://www.w3.org/2000/svg" viewBox="0 0 24 24">
  <path fill-rule="evenodd" clip-rule="evenodd" d="M12 23c6.0751 0 11-4.9249 11-11 0-6.07513-4.9249-11-11-11C5.92487 1 1 5.92487 1 12c0 6.0751 4.92487 11 11 11Zm-7.41583-4.2913C2.9782 16.9346 2 14.5815 2 12 2 6.47715 6.47715 2 12 2c2.5815 0 4.9346.9782 6.7087 2.58417L4.58417 18.7087Zm.70711.7071C7.06541 21.0218 9.41847 22 12 22c5.5228 0 10-4.4772 10-10 0-2.58153-.9782-4.93459-2.5842-6.70872L5.29128 19.4158Z" fill="#455065"/>
</svg>
