<?xml version="1.0" encoding="UTF-8"?>
<svg width="16px" height="16px" viewBox="0 0 16 16" version="1.1" xmlns="http://www.w3.org/2000/svg" xmlns:xlink="http://www.w3.org/1999/xlink">
    <title>Icons / Interface Essential / 16 / Unlink</title>
    <defs>
        <path d="M13.5,1.79289322 L14.2071068,2.5 L2.5,14.2071068 L1.79289322,13.5 L13.5,1.79289322 Z M13,6 C14.6568542,6 16,7.34314575 16,9 L16,10 C16,11.6568542 14.6568542,13 13,13 L8,13 C7.20263889,13 6.47793316,12.6889253 5.94062209,12.1815153 L6.6480438,11.4738591 C7.00402983,11.8005757 7.47872589,12 8,12 L13,12 C14.1045695,12 15,11.1045695 15,10 L15,9 C15,7.8954305 14.1045695,7 13,7 L11.121,7 L12.121,6 L13,6 Z M8,3 C8.79785422,3 9.52296317,3.31145953 10.0603746,3.8194263 L9.3519562,4.52614094 C8.99597017,4.19942431 8.52127411,4 8,4 L3,4 C1.8954305,4 1,4.8954305 1,6 L1,7 C1,8.1045695 1.8954305,9 3,9 L4.878,9 L3.878,10 L3,10 C1.34314575,10 0,8.65685425 0,7 L0,6 C0,4.34314575 1.34314575,3 3,3 L8,3 Z M10.996,7.12589322 L11,7 C11,8.61482771 9.72412856,9.93165968 8.1254573,9.99742427 L10.996,7.12589322 Z M7.87425499,6.00258757 L5.004,8.874 L5.00509269,8.82372721 C5.09393338,7.29044031 6.33429828,6.06608295 7.87425499,6.00258757 Z" id="path-1"></path>
    </defs>
    <g id="Icons-/-Interface-Essential-/-16-/-Unlink" stroke="none" stroke-width="1" fill="none" fill-rule="evenodd">
        <mask id="mask-2" fill="white">
            <use xlink:href="#path-1"></use>
        </mask>
        <use id="Combined-Shape" fill="#979797" fill-rule="nonzero" xlink:href="#path-1"></use>
        <g id="Colors-/-305-Dark-Gray" mask="url(#mask-2)" fill="#455065">
            <rect id="Rectangle" x="0" y="0" width="16" height="16"></rect>
        </g>
    </g>
</svg>