<svg fill="none" xmlns="http://www.w3.org/2000/svg" viewBox="0 0 16 16">
  <path fill-rule="evenodd" clip-rule="evenodd" d="M13.6036 2.325C12.1071.825 10.1143 0 7.99643 0 3.625 0 .0678571 3.55714.0678571 7.92857c0 1.39643.3642859 2.76073 1.0571429 3.96433L0 16l4.20357-1.1036c1.15714.6322 2.46072.9643 3.78929.9643h.00357C12.3643 15.8607 16 12.3036 16 7.93214c0-2.11785-.9-4.10714-2.3964-5.60714Zm-5.60717 12.2c-1.18572 0-2.34643-.3179-3.35714-.9179L4.4 13.4643l-2.49286.6536.66429-2.4322-.15714-.25c-.66072-1.05-1.00715-2.2607-1.00715-3.50713 0-3.63214 2.95715-6.58928 6.59286-6.58928 1.76071 0 3.4143.68571 4.6571 1.93214 1.2429 1.24643 2.0072 2.9 2.0036 4.66071 0 3.63576-3.0321 6.59286-6.66427 6.59286Zm2.26067-5.57857c.1822.06428 1.1572.54286 1.3536.64286.0322.01579.0626.03033.0912.04401.1462.06984.245.11703.2838.1917.05.08214.05.4786-.1143.9429-.1643.4642-.9535.8857-1.3357.9428-.62856.0929-1.12141.0464-2.37856-.4964-1.85243-.8015-3.10406-2.59094-3.34825-2.94006-.01804-.02579-.03058-.04372-.03746-.05281-.0025-.00343-.00542-.00741-.00873-.01191-.12411-.1692-.79841-1.0884-.79841-2.03809 0-.91086.44572-1.38846.65288-1.61042.01459-.01563.02799-.03.03997-.04315.18215-.19643.39643-.24643.52857-.24643.13215 0 .26429 0 .37858.00714.01472.00087.03008.00084.04599.00081.11524-.0002.25921-.00045.40043.33848.04853.1171.11732.28469.19145.46529.17682.43081.38404.93568.41927 1.00614.05.1.08214.21428.01786.34642-.16837.33673-.34239.51876-.46582.64788-.15411.1612-.22936.23992-.11633.43427.76786 1.31785 1.53215 1.775 2.69643 2.35714.19643.1.31429.08214.42857-.05.11786-.13571.49643-.57857.62857-.77857.13215-.2.26429-.16786.44639-.1Z" fill="#455065"/>
</svg>
