<svg fill="none" xmlns="http://www.w3.org/2000/svg" viewBox="0 0 24 24">
  <path fill-rule="evenodd" clip-rule="evenodd" d="M20.4054 3.4875C18.1607 1.2375 15.1714 0 11.9946 0 5.4375 0 .101786 5.33571.101786 11.8929c0 2.0946.546428 4.141 1.585714 5.9464L0 24l6.30536-1.6554c1.73571.9483 3.69107 1.4465 5.68394 1.4465h.0053C18.5464 23.7911 24 18.4554 24 11.8982c0-3.17677-1.35-6.1607-3.5946-8.4107Zm-8.4108 18.3c-1.7785 0-3.5196-.4768-5.03567-1.3768L6.6 20.1964l-3.73929.9804.99643-3.6482-.23571-.375c-.99107-1.575-1.51072-3.3911-1.51072-5.2607 0-5.44826 4.43572-9.88397 9.88929-9.88397 2.6411 0 5.1214 1.02857 6.9857 2.89821 1.8643 1.86965 3.0107 4.35 3.0054 6.99106 0 5.4536-4.5482 9.8893-9.9965 9.8893Zm3.3911-8.3679c.2732.0965 1.7357.8143 2.0304.9643.0482.0237.0939.0455.1368.066.2193.1048.3674.1756.4257.2876.075.1232.075.7179-.1715 1.4143-.2464.6964-1.4303 1.3286-2.0035 1.4143-.9429.1393-1.6822.0696-3.5679-.7447-2.77863-1.2022-4.65607-3.8864-5.02236-4.41-.02706-.0387-.04588-.0656-.0562-.0793-.00375-.0051-.00813-.0111-.01309-.0178-.18618-.2538-1.19762-1.6326-1.19762-3.05716 0-1.36629.66859-2.08268.97932-2.41563.02188-.02345.04199-.04499.05996-.06472.27322-.29465.59465-.36965.79286-.36965.19822 0 .39643 0 .56786.01072.02209.0013.04513.00126.06899.00121.17286-.0003.38882-.00068.60065.50772.07279.17564.17597.42702.28716.69792.26523.6462.57607 1.40353.62891 1.50922.07496.15.12326.32143.02679.51964-.25255.50513-.51357.77813-.69872.97183-.23116.2418-.34405.3599-.1745.6514 1.15179 1.9768 2.29819 2.6625 4.04469 3.5357.2946.15.4714.1232.6428-.075.1768-.2036.7447-.8679.9429-1.1679.1982-.3.3964-.2517.6696-.15Z" fill="#455065"/>
</svg>
