<?xml version="1.0" encoding="UTF-8"?>
<svg width="16px" height="16px" viewBox="0 0 16 16" version="1.1" xmlns="http://www.w3.org/2000/svg" xmlns:xlink="http://www.w3.org/1999/xlink">
    <!-- Generator: sketchtool 54.1 (76490) - https://sketchapp.com -->
    <title>b0ef9501-7570-43a8-913b-37cad4452fa6@1.00x</title>
    <desc>Created with sketchtool.</desc>
    <defs>
        <path d="M12,7 L12,6 L14.5,6 C15.3284271,6 16,6.67157288 16,7.5 L16,13.5 C16,14.3284271 15.3284271,15 14.5,15 L1.5,15 C0.671572875,15 1.66533454e-16,14.3284271 0,13.5 L0,7.5 C-8.32667268e-17,6.67157288 0.671572875,6 1.5,6 L3,6 L3,7 L1.5,7 C1.22385763,7 1,7.22385763 1,7.5 L1,13.5 C1,13.7761424 1.22385763,14 1.5,14 L14.5,14 C14.7761424,14 15,13.7761424 15,13.5 L15,7.5 C15,7.22385763 14.7761424,7 14.5,7 L12,7 Z M9,10 L14,10 L14,11 L9,11 L9,10 Z M7,12 L14,12 L14,13 L7,13 L7,12 Z M8.5,4.20710678 L3,9.70710678 L3,11 L4.29289322,11 L9.79289322,5.5 L8.5,4.20710678 Z M9.20710678,3.5 L10.5,4.79289322 L11.7928932,3.5 L10.5,2.20710678 L9.20710678,3.5 Z M2,9.29289322 L10.5,0.792893219 L13.2071068,3.5 L4.70710678,12 L2,12 L2,9.29289322 Z" id="path-1"></path>
    </defs>
    <g id="Symbols" stroke="none" stroke-width="1" fill="none" fill-rule="evenodd">
        <g id="Icons-/-Billing-/-16-/-ACH">
            <mask id="mask-2" fill="white">
                <use xlink:href="#path-1"></use>
            </mask>
            <use id="Combined-Shape" fill="#000000" fill-rule="nonzero" xlink:href="#path-1"></use>
            <g id="Colors-/-Black" mask="url(#mask-2)" fill="#000000">
                <rect id="Rectangle" x="0" y="0" width="16" height="16"></rect>
            </g>
        </g>
    </g>
</svg>