<svg width="24" height="24" fill="none" xmlns="http://www.w3.org/2000/svg">
  <g clip-path="url(#a)">
    <path fill-rule="evenodd" clip-rule="evenodd" d="m15.5 1.79297.3536.35355 4 4 .3535.35356-.3535.35355L7.85355 18.8536l-.14644.1465H3V14.293l.14645-.1465L15.1464 2.14652l.3536-.35355ZM4 14.7072v3.2929h3.29289l9.00001-9L13 5.70721 4 14.7072Zm9.7071-9.7071L17 8.29299l1.7929-1.79291L15.5 3.20718 13.7071 5.0001ZM1.64 9.00008c-.35386 0-.64.28614-.64.64V20.3701c0 .3538.28614.64.64.64h20.72c.3539 0 .64-.2862.64-.64V9.64008c0-.35386-.2861-.64-.64-.64H20v-1h2.36c.9061 0 1.64.73385 1.64 1.64V20.3701c0 .9061-.7339 1.64-1.64 1.64H1.64c-.906142 0-1.64-.7339-1.64-1.64V9.64008c0-.90615.733857-1.64 1.64-1.64H6v1H1.64ZM21 16.0001h-7v-1h7v1Zm-10 3h10v-1H11v1Z" fill="#455065"/>
  </g>
  <defs>
    <clipPath id="a">
      <path fill="#fff" d="M0 0h24v24H0z"/>
    </clipPath>
  </defs>
</svg>