<?xml version="1.0" encoding="UTF-8"?>
<svg width="32px" height="32px" viewBox="0 0 32 32" version="1.1" xmlns="http://www.w3.org/2000/svg" xmlns:xlink="http://www.w3.org/1999/xlink">
    <!-- Generator: sketchtool 54.1 (76490) - https://sketchapp.com -->
    <title>77503f08-0b50-47f0-9e35-cf4969cd0233@1.00x</title>
    <desc>Created with sketchtool.</desc>
    <defs>
        <path d="M25,12 L25,11 L30,11 C31.1045695,11 32,11.8954305 32,13 L32,27 C32,28.1045695 31.1045695,29 30,29 L2,29 C0.8954305,29 1.48029737e-16,28.1045695 0,27 L0,13 C-1.48029737e-16,11.8954305 0.8954305,11 2,11 L8,11 L8,12 L2,12 C1.44771525,12 1,12.4477153 1,13 L1,27 C1,27.5522847 1.44771525,28 2,28 L30,28 C30.5522847,28 31,27.5522847 31,27 L31,13 C31,12.4477153 30.5522847,12 30,12 L25,12 Z M14,24 L28,24 L28,25 L14,25 L14,24 Z M18,20 L28,20 L28,21 L18,21 L18,20 Z M17.5,6.20710678 L5,18.7071068 L5,23 L9.29289322,23 L21.7928932,10.5 L17.5,6.20710678 Z M18.2071068,5.5 L22.5,9.79289322 L24.7928932,7.5 L20.5,3.20710678 L18.2071068,5.5 Z M4,18.2928932 L20.5,1.79289322 L26.2071068,7.5 L9.70710678,24 L4,24 L4,18.2928932 Z" id="path-1"></path>
    </defs>
    <g id="Symbols" stroke="none" stroke-width="1" fill="none" fill-rule="evenodd">
        <g id="Icons-/-Billing-/-32-/-ACH">
            <mask id="mask-2" fill="white">
                <use xlink:href="#path-1"></use>
            </mask>
            <use id="Combined-Shape" fill="#000000" fill-rule="nonzero" xlink:href="#path-1"></use>
            <g id="Colors-/-Black" mask="url(#mask-2)" fill="#000000">
                <rect id="Rectangle" x="0" y="0" width="32" height="32"></rect>
            </g>
        </g>
    </g>
</svg>