<?xml version="1.0" encoding="UTF-8"?>
<svg width="24px" height="24px" viewBox="0 0 24 24" version="1.1" xmlns="http://www.w3.org/2000/svg" xmlns:xlink="http://www.w3.org/1999/xlink">
    <!-- Generator: sketchtool 54.1 (76490) - https://sketchapp.com -->
    <title>d1fde896-ce1e-4f90-85a5-362c1664f74f@1.00x</title>
    <desc>Created with sketchtool.</desc>
    <defs>
        <path d="M11.5,17 C8.46243388,17 6,14.5375661 6,11.5 C6,8.46243388 8.46243388,6 11.5,6 C14.5375661,6 17,8.46243388 17,11.5 C17,14.5375661 14.5375661,17 11.5,17 Z M11.5,16 C13.9852814,16 16,13.9852814 16,11.5 C16,9.01471863 13.9852814,7 11.5,7 C9.01471863,7 7,9.01471863 7,11.5 C7,13.9852814 9.01471863,16 11.5,16 Z M11,0 L12,0 L12,4 L11,4 L11,0 Z M19.2781746,3.01471863 L19.9852814,3.72182541 L17.1568542,6.55025253 L16.4497475,5.84314575 L19.2781746,3.01471863 Z M23,11 L23,12 L19,12 L19,11 L23,11 Z M19.9852814,19.2781746 L19.2781746,19.9852814 L16.4497475,17.1568542 L17.1568542,16.4497475 L19.9852814,19.2781746 Z M12,23 L11,23 L11,19 L12,19 L12,23 Z M3.72182541,19.9852814 L3.01471863,19.2781746 L5.84314575,16.4497475 L6.55025253,17.1568542 L3.72182541,19.9852814 Z M-2.22044605e-16,12 L-4.05741625e-16,11 L4,11 L4,12 L-2.22044605e-16,12 Z M3.01471863,3.72182541 L3.72182541,3.01471863 L6.55025253,5.84314575 L5.84314575,6.55025253 L3.01471863,3.72182541 Z" id="path-1"></path>
    </defs>
    <g id="Symbols" stroke="none" stroke-width="1" fill="none" fill-rule="evenodd">
        <g id="Icons-/-Top-Scheduler-/-24-/-Afternoon">
            <mask id="mask-2" fill="white">
                <use xlink:href="#path-1"></use>
            </mask>
            <use id="Combined-Shape" fill="#000000" fill-rule="nonzero" xlink:href="#path-1"></use>
            <g id="Colors-/-Black" mask="url(#mask-2)" fill="#000000">
                <rect id="Rectangle" x="0" y="0" width="24" height="24"></rect>
            </g>
        </g>
    </g>
</svg>