<?xml version="1.0" encoding="UTF-8"?>
<svg width="32px" height="32px" viewBox="0 0 32 32" version="1.1" xmlns="http://www.w3.org/2000/svg" xmlns:xlink="http://www.w3.org/1999/xlink">
    <!-- Generator: sketchtool 54.1 (76490) - https://sketchapp.com -->
    <title>e3b3a3f9-bea3-453c-9283-b2fbfc674fdf@1.00x</title>
    <desc>Created with sketchtool.</desc>
    <defs>
        <path d="M2,26 L30,26 L30,30 L2,30 L2,26 Z M3,27 L3,29 L29,29 L29,27 L3,27 Z M2,8 L16,2 L30,8 L30,11 L2,11 L2,8 Z M3,8.65939616 L3,10 L29,10 L29,8.65939616 L16,3.08796759 L3,8.65939616 Z M4,12 L10,12 L10,25 L4,25 L4,12 Z M5,13 L5,24 L9,24 L9,13 L5,13 Z M13,12 L19,12 L19,25 L13,25 L13,12 Z M14,13 L14,24 L18,24 L18,13 L14,13 Z M22,12 L28,12 L28,25 L22,25 L22,12 Z M23,13 L23,24 L27,24 L27,13 L23,13 Z" id="path-1"></path>
    </defs>
    <g id="Symbols" stroke="none" stroke-width="1" fill="none" fill-rule="evenodd">
        <g id="Icons-/-Billing-/-32-/-Bank-Wire">
            <mask id="mask-2" fill="white">
                <use xlink:href="#path-1"></use>
            </mask>
            <use id="Combined-Shape" fill="#000000" fill-rule="nonzero" xlink:href="#path-1"></use>
            <g id="Colors-/-Black" mask="url(#mask-2)" fill="#000000">
                <rect id="Rectangle" x="0" y="0" width="32" height="32"></rect>
            </g>
        </g>
    </g>
</svg>