<?xml version="1.0" encoding="UTF-8"?>
<svg width="16px" height="16px" viewBox="0 0 16 16" version="1.1" xmlns="http://www.w3.org/2000/svg" xmlns:xlink="http://www.w3.org/1999/xlink">
    <!-- Generator: sketchtool 54.1 (76490) - https://sketchapp.com -->
    <title>11f79004-ee6a-4620-9d90-6c56defa57f7@1.00x</title>
    <desc>Created with sketchtool.</desc>
    <defs>
        <path d="M3,2 L3,1 L4,1 L4,2 L12,2 L12,1 L13,1 L13,2 L16,2 L16,15 L0,15 L0,2 L3,2 Z M3,3 L1,3 L1,5 L15,5 L15,3 L13,3 L13,4 L12,4 L12,3 L4,3 L4,4 L3,4 L3,3 Z M15,6 L1,6 L1,14 L15,14 L15,6 Z" id="path-1"></path>
    </defs>
    <g id="Symbols" stroke="none" stroke-width="1" fill="none" fill-rule="evenodd">
        <g id="Icons-/-Contact-Interview-/-16-/-Calendar">
            <mask id="mask-2" fill="white">
                <use xlink:href="#path-1"></use>
            </mask>
            <use id="Combined-Shape" fill="#000000" fill-rule="nonzero" xlink:href="#path-1"></use>
            <g id="Colors-/-Black" mask="url(#mask-2)" fill="#000000">
                <rect id="Rectangle" x="0" y="0" width="16" height="16"></rect>
            </g>
        </g>
    </g>
</svg>