<svg viewBox="0 0 24 24" width="24" height="24" xmlns="http://www.w3.org/2000/svg" xmlns:xlink="http://www.w3.org/1999/xlink">
  <defs>
    <path d="M7 21v2H6v-2h1zm4-2v4h-1v-4h1zm4-3v7h-1v-7h1zm4-3v10h-1V13h1zm4-11.309V23h-1V8.809L15.382 5.5 23 1.691zM6.5 1a4.5 4.5 0 012.168 8.444 5.5 5.5 0 013.328 4.835L12 14.5h-1a4.5 4.5 0 00-8.995-.212L2 14.5H1a5.501 5.501 0 013.333-5.057A4.5 4.5 0 016.5 1zm0 1a3.5 3.5 0 100 7 3.5 3.5 0 000-7zM22 3.309L17.618 5.5 22 7.691V3.309z" id="a"/>
  </defs>
  <g fill="none" fill-rule="evenodd">
    <path fill="#FFF" d="M-386-253h1440v2230H-386z"/>
    <g transform="translate(-1 -1)">
      <mask id="b" fill="#fff">
        <use xlink:href="#a"/>
      </mask>
      <use fill="#455065" fill-rule="nonzero" xlink:href="#a"/>
      <g mask="url(#b)" fill="#455065">
        <path d="M0 0h24v24H0z"/>
      </g>
    </g>
  </g>
</svg>
