<?xml version="1.0" encoding="UTF-8"?>
<svg width="24px" height="24px" viewBox="0 0 24 24" version="1.1" xmlns="http://www.w3.org/2000/svg" xmlns:xlink="http://www.w3.org/1999/xlink">
    <title>Icons / Misc / 24 / Component</title>
    <defs>
        <path d="M17,23 L17,24 L7,24 L7,23 L17,23 Z M20,4 L20,20 L4,20 L4,4 L20,4 Z M19,5 L5,5 L5,19 L19,19 L19,5 Z M1,7 L1,17 L0,17 L0,7 L1,7 Z M24,7 L24,17 L23,17 L23,7 L24,7 Z M17,0 L17,1 L7,1 L7,0 L17,0 Z" id="path-1"></path>
    </defs>
    <g id="Icons-/-Misc-/-24-/-Component" stroke="none" stroke-width="1" fill="none" fill-rule="evenodd">
        <mask id="mask-2" fill="white">
            <use xlink:href="#path-1"></use>
        </mask>
        <use id="Combined-Shape" fill="#979797" fill-rule="nonzero" xlink:href="#path-1"></use>
        <g id="Colors-/-305-Dark-Gray" mask="url(#mask-2)" fill="#455065">
            <rect id="Rectangle" x="0" y="0" width="24" height="24"></rect>
        </g>
    </g>
</svg>