<?xml version="1.0" encoding="UTF-8"?>
<svg width="16px" height="16px" viewBox="0 0 16 16" version="1.1" xmlns="http://www.w3.org/2000/svg" xmlns:xlink="http://www.w3.org/1999/xlink">
    <title>Icons / Misc / 16 / Component</title>
    <defs>
        <path d="M11,15 L11,16 L5,16 L5,15 L11,15 Z M13,3 L13,13 L3,13 L3,3 L13,3 Z M12,4 L4,4 L4,12 L12,12 L12,4 Z M1,5 L1,11 L0,11 L0,5 L1,5 Z M16,5 L16,11 L15,11 L15,5 L16,5 Z M11,0 L11,1 L5,1 L5,0 L11,0 Z" id="path-1"></path>
    </defs>
    <g id="Icons-/-Misc-/-16-/-Component" stroke="none" stroke-width="1" fill="none" fill-rule="evenodd">
        <mask id="mask-2" fill="white">
            <use xlink:href="#path-1"></use>
        </mask>
        <use id="Combined-Shape" fill="#979797" fill-rule="nonzero" xlink:href="#path-1"></use>
        <g id="Colors-/-305-Dark-Gray" mask="url(#mask-2)" fill="#455065">
            <rect id="Rectangle" x="0" y="0" width="16" height="16"></rect>
        </g>
    </g>
</svg>