<?xml version="1.0" encoding="UTF-8"?>
<svg width="24px" height="24px" viewBox="0 0 24 24" version="1.1" xmlns="http://www.w3.org/2000/svg" xmlns:xlink="http://www.w3.org/1999/xlink">
    <title>1b383547-312a-46a2-a419-ddc085a7a4c3@1.00x</title>
    <defs>
        <path d="M12,19 C13.1045695,19 14,19.8954305 14,21 C14,22.1045695 13.1045695,23 12,23 C10.8954305,23 10,22.1045695 10,21 C10,19.8954305 10.8954305,19 12,19 Z M12,20 C11.4477153,20 11,20.4477153 11,21 C11,21.5522847 11.4477153,22 12,22 C12.5522847,22 13,21.5522847 13,21 C13,20.4477153 12.5522847,20 12,20 Z M5,13 C6.1045695,13 7,13.8954305 7,15 C7,16.1045695 6.1045695,17 5,17 C3.8954305,17 3,16.1045695 3,15 C3,13.8954305 3.8954305,13 5,13 Z M12,13 C13.1045695,13 14,13.8954305 14,15 C14,16.1045695 13.1045695,17 12,17 C10.8954305,17 10,16.1045695 10,15 C10,13.8954305 10.8954305,13 12,13 Z M19,13 C20.1045695,13 21,13.8954305 21,15 C21,16.1045695 20.1045695,17 19,17 C17.8954305,17 17,16.1045695 17,15 C17,13.8954305 17.8954305,13 19,13 Z M5,14 C4.44771525,14 4,14.4477153 4,15 C4,15.5522847 4.44771525,16 5,16 C5.55228475,16 6,15.5522847 6,15 C6,14.4477153 5.55228475,14 5,14 Z M12,14 C11.4477153,14 11,14.4477153 11,15 C11,15.5522847 11.4477153,16 12,16 C12.5522847,16 13,15.5522847 13,15 C13,14.4477153 12.5522847,14 12,14 Z M19,14 C18.4477153,14 18,14.4477153 18,15 C18,15.5522847 18.4477153,16 19,16 C19.5522847,16 20,15.5522847 20,15 C20,14.4477153 19.5522847,14 19,14 Z M5,7 C6.1045695,7 7,7.8954305 7,9 C7,10.1045695 6.1045695,11 5,11 C3.8954305,11 3,10.1045695 3,9 C3,7.8954305 3.8954305,7 5,7 Z M12,7 C13.1045695,7 14,7.8954305 14,9 C14,10.1045695 13.1045695,11 12,11 C10.8954305,11 10,10.1045695 10,9 C10,7.8954305 10.8954305,7 12,7 Z M19,7 C20.1045695,7 21,7.8954305 21,9 C21,10.1045695 20.1045695,11 19,11 C17.8954305,11 17,10.1045695 17,9 C17,7.8954305 17.8954305,7 19,7 Z M5,8 C4.44771525,8 4,8.44771525 4,9 C4,9.55228475 4.44771525,10 5,10 C5.55228475,10 6,9.55228475 6,9 C6,8.44771525 5.55228475,8 5,8 Z M12,8 C11.4477153,8 11,8.44771525 11,9 C11,9.55228475 11.4477153,10 12,10 C12.5522847,10 13,9.55228475 13,9 C13,8.44771525 12.5522847,8 12,8 Z M19,8 C18.4477153,8 18,8.44771525 18,9 C18,9.55228475 18.4477153,10 19,10 C19.5522847,10 20,9.55228475 20,9 C20,8.44771525 19.5522847,8 19,8 Z M5,1 C6.1045695,1 7,1.8954305 7,3 C7,4.1045695 6.1045695,5 5,5 C3.8954305,5 3,4.1045695 3,3 C3,1.8954305 3.8954305,1 5,1 Z M12,1 C13.1045695,1 14,1.8954305 14,3 C14,4.1045695 13.1045695,5 12,5 C10.8954305,5 10,4.1045695 10,3 C10,1.8954305 10.8954305,1 12,1 Z M19,1 C20.1045695,1 21,1.8954305 21,3 C21,4.1045695 20.1045695,5 19,5 C17.8954305,5 17,4.1045695 17,3 C17,1.8954305 17.8954305,1 19,1 Z M5,2 C4.44771525,2 4,2.44771525 4,3 C4,3.55228475 4.44771525,4 5,4 C5.55228475,4 6,3.55228475 6,3 C6,2.44771525 5.55228475,2 5,2 Z M12,2 C11.4477153,2 11,2.44771525 11,3 C11,3.55228475 11.4477153,4 12,4 C12.5522847,4 13,3.55228475 13,3 C13,2.44771525 12.5522847,2 12,2 Z M19,2 C18.4477153,2 18,2.44771525 18,3 C18,3.55228475 18.4477153,4 19,4 C19.5522847,4 20,3.55228475 20,3 C20,2.44771525 19.5522847,2 19,2 Z" id="path-1"></path>
    </defs>
    <g id="Symbols" stroke="none" stroke-width="1" fill="none" fill-rule="evenodd">
        <g id="Icons-/-Interface-Essential-/-24-/-Keypad">
            <mask id="mask-2" fill="white">
                <use xlink:href="#path-1"></use>
            </mask>
            <use id="Combined-Shape" fill="#979797" fill-rule="nonzero" xlink:href="#path-1"></use>
            <g id="Colors-/-305-Dark-Gray" mask="url(#mask-2)" fill="#455065">
                <rect id="Rectangle" x="0" y="0" width="24" height="24"></rect>
            </g>
        </g>
    </g>
</svg>