<?xml version="1.0" encoding="UTF-8"?>
<svg width="16px" height="16px" viewBox="0 0 16 16" version="1.1" xmlns="http://www.w3.org/2000/svg" xmlns:xlink="http://www.w3.org/1999/xlink">
    <!-- Generator: sketchtool 54.1 (76490) - https://sketchapp.com -->
    <title>5fb4c52c-1dcd-4298-8b18-39fbd50c01a0@1.00x</title>
    <desc>Created with sketchtool.</desc>
    <defs>
        <path d="M15.1173333,0 L0.882666667,0 C0.395333333,0 0,0.395333333 0,0.882666667 L0,15.1173333 C0,15.6053333 0.395333333,16 0.882666667,16 L8.54533333,16 L8.54533333,9.804 L6.45933333,9.804 L6.45933333,7.39 L8.54533333,7.39 L8.54533333,5.60666667 C8.54533333,3.54066667 9.808,2.41666667 11.6513333,2.41666667 C12.5346667,2.41666667 13.294,2.48133333 13.5153333,2.51066667 L13.5153333,4.67066667 L12.2346667,4.67066667 C11.2346667,4.67066667 11.04,5.15133333 11.04,5.85133333 L11.04,7.392 L13.4293333,7.392 L13.1193333,9.812 L11.04,9.812 L11.04,16 L15.1166667,16 C15.6053333,16 16,15.6053333 16,15.1173333 L16,0.882666667 C16,0.395333333 15.6053333,0 15.1173333,0" id="path-1"></path>
    </defs>
    <g id="Symbols" stroke="none" stroke-width="1" fill="none" fill-rule="evenodd">
        <g id="Icons-/-Social-Media-/-16-/-Facebook">
            <mask id="mask-2" fill="white">
                <use xlink:href="#path-1"></use>
            </mask>
            <use id="Path" fill="#000000" fill-rule="nonzero" xlink:href="#path-1"></use>
            <g id="Colors-/-Black" mask="url(#mask-2)" fill="#000000">
                <rect id="Rectangle" x="0" y="0" width="16" height="16"></rect>
            </g>
        </g>
    </g>
</svg>