<?xml version="1.0" encoding="UTF-8"?>
<svg width="16px" height="16px" viewBox="0 0 16 16" version="1.1" xmlns="http://www.w3.org/2000/svg" xmlns:xlink="http://www.w3.org/1999/xlink">
    <!-- Generator: sketchtool 54.1 (76490) - https://sketchapp.com -->
    <title>ae83f356-416a-433a-9a1e-60337caa5782@1.00x</title>
    <desc>Created with sketchtool.</desc>
    <defs>
        <path d="M1.01894482,8 C1.22291974,10.6813637 3.05374654,12.907988 5.52657413,13.6950218 C4.66504216,12.4324006 4.08033041,10.3660489 4.0076544,8 L1.01894482,8 Z M1.01894482,7 L4.0076544,7 C4.08033041,4.63395106 4.66504216,2.56759938 5.52657413,1.30497818 C3.05374654,2.09201196 1.22291974,4.31863626 1.01894482,7 Z M13.9810552,7 C13.7770803,4.31863626 11.9462535,2.09201196 9.47342587,1.30497818 C10.3349578,2.56759938 10.9196696,4.63395106 10.9923456,7 L13.9810552,7 Z M13.9810552,8 L10.9923456,8 C10.9196696,10.3660489 10.3349578,12.4324006 9.47342587,13.6950218 C11.9462535,12.907988 13.7770803,10.6813637 13.9810552,8 Z M5.00830927,8 C5.12198857,11.4119287 6.381303,14 7.5,14 C8.618697,14 9.87801143,11.4119287 9.99169073,8 L5.00830927,8 Z M5.00830927,7 L9.99169073,7 C9.87801143,3.58807128 8.618697,1 7.5,1 C6.381303,1 5.12198857,3.58807128 5.00830927,7 Z M7.5,15 C3.35786438,15 1.13686838e-13,11.6421356 1.13686838e-13,7.5 C1.13686838e-13,3.35786438 3.35786438,0 7.5,0 C11.6421356,0 15,3.35786438 15,7.5 C15,11.6421356 11.6421356,15 7.5,15 Z" id="path-1"></path>
    </defs>
    <g id="Symbols" stroke="none" stroke-width="1" fill="none" fill-rule="evenodd">
        <g id="Icons-/-General-/-16-/-Globe">
            <mask id="mask-2" fill="white">
                <use xlink:href="#path-1"></use>
            </mask>
            <use id="Combined-Shape" fill="#000000" fill-rule="nonzero" xlink:href="#path-1"></use>
            <g id="Colors-/-Black" mask="url(#mask-2)" fill="#000000">
                <rect id="Rectangle" x="0" y="0" width="16" height="16"></rect>
            </g>
        </g>
    </g>
</svg>