<svg width="16" height="16" viewBox="0 0 16 16" fill="none" xmlns="http://www.w3.org/2000/svg">
<g clip-path="url(#clip0_2460_14)">
<path fill-rule="evenodd" clip-rule="evenodd" d="M0.5 0H0V0.5V6.5V7H0.5H8.5H9V6.5V0.5V0H8.5H0.5ZM1 6V1H8V6H1ZM11.5 0H11V0.5V6.5V7H11.5H15.5H16V6.5V0.5V0H15.5H11.5ZM12 6V1H15V6H12ZM16 16H15.5H7.5H7V15.5V9.5V9H7.5H15.5H16V9.5V15.5V16ZM15 15V10H8V15H15ZM4.5 16H5V15.5V9.5V9H4.5H0.5H0V9.5V15.5V16H0.5H4.5ZM4 10V15H1V10H4Z" fill="#455065"/>
</g>
<defs>
<clipPath id="clip0_2460_14">
<rect width="16" height="16" fill="white"/>
</clipPath>
</defs>
</svg>
