<?xml version="1.0" encoding="UTF-8"?>
<svg width="16px" height="16px" viewBox="0 0 16 16" version="1.1" xmlns="http://www.w3.org/2000/svg" xmlns:xlink="http://www.w3.org/1999/xlink">
    <!-- Generator: sketchtool 55.2 (78181) - https://sketchapp.com -->
    <title>5ede04bc-2178-4dee-a309-b147cbcd401c@1.00x</title>
    <desc>Created with sketchtool.</desc>
    <defs>
        <path d="M6,12 L2,16 L2,12 L0,12 L0,0 L16,0 L16,12 L6,12 Z M3,13.5857864 L5.58578644,11 L15,11 L15,1 L1,1 L1,11 L3,11 L3,13.5857864 Z M11.039,9 L9.842,9 L9.401,7.848 L6.647,7.848 L6.206,9 L5.009,9 L7.367,2.997 L8.681,2.997 L11.039,9 Z M9.104,6.921 L8.024,4.059 L6.944,6.921 L9.104,6.921 Z" id="path-1"></path>
    </defs>
    <g id="Symbols" stroke="none" stroke-width="1" fill="none" fill-rule="evenodd">
        <g id="Icons-/-General-/-16-/-Language">
            <mask id="mask-2" fill="white">
                <use xlink:href="#path-1"></use>
            </mask>
            <use id="Combined-Shape" fill="#000000" fill-rule="nonzero" xlink:href="#path-1"></use>
            <g id="Colors-/-Black" mask="url(#mask-2)" fill="#000000">
                <rect id="Rectangle" x="0" y="0" width="16" height="16"></rect>
            </g>
        </g>
    </g>
</svg>