<?xml version="1.0" encoding="UTF-8"?>
<svg width="16px" height="16px" viewBox="0 0 16 16" version="1.1" xmlns="http://www.w3.org/2000/svg" xmlns:xlink="http://www.w3.org/1999/xlink">
    <!-- Generator: sketchtool 54.1 (76490) - https://sketchapp.com -->
    <title>38565b95-6d54-4910-bdab-4d2e4d416682@1.00x</title>
    <desc>Created with sketchtool.</desc>
    <defs>
        <path d="M11,0 L15,4 L15,16 L1,16 L1,0 L11,0 Z M10.5857864,1 L2,1 L2,15 L14,15 L14,4.41421356 L10.5857864,1 Z M8,11 L8,7 L6,7 L6,6 L9,6 L9,7 L9,11 L11,11 L11,12 L6,12 L6,11 L8,11 Z M7,4 L9,4 L9,5 L7,5 L7,4 Z" id="path-1"></path>
    </defs>
    <g id="Symbols" stroke="none" stroke-width="1" fill="none" fill-rule="evenodd">
        <g id="Icons-/-Navigation-/-16-/-Legal-Info">
            <mask id="mask-2" fill="white">
                <use xlink:href="#path-1"></use>
            </mask>
            <use id="Combined-Shape" fill="#000000" fill-rule="nonzero" xlink:href="#path-1"></use>
            <g id="Colors-/-Black" mask="url(#mask-2)" fill="#000000">
                <rect id="Rectangle" x="0" y="0" width="16" height="16"></rect>
            </g>
        </g>
    </g>
</svg>