<svg width="24" height="24" viewBox="0 0 24 24" fill="none" xmlns="http://www.w3.org/2000/svg">
  <path d="M4.04403 18.2611c.588 0 1.04417.1155 1.3685.3465.32434.231.4865.5425.4865.9345 0 .266-.09916.4958-.2975.6895-.19833.1936-.43983.3138-.7245.3605.28.028.53317.1411.7595.3395.22634.1983.3395.4538.3395.7665 0 .4106-.17733.7443-.532 1.001-.35466.2566-.82133.385-1.4.385-.42933 0-.81083-.0677-1.1445-.203-.33366-.1354-.59616-.3127-.7875-.532l.609-.819.09982.0907c.13926.115.30315.2061.49168.2733.23567.084.46317.126.6825.126.252 0 .44567-.042.581-.126.13534-.084.203-.1937.203-.329 0-.1354-.06183-.2345-.1855-.2975-.12366-.063-.3395-.0945-.6475-.0945l-.13234.0001-.21875.0008c-.15677.0011-.24974.0031-.27891.0061v-1.071l.03515.0018c.05904.0023.16685.0038.32343.0046l.27142.0006.14364-.0037c.40824-.0218.61236-.1419.61236-.3603 0-.14-.07233-.2462-.217-.3185-.14466-.0724-.33366-.1085-.567-.1085-.43866 0-.826.1493-1.162.448l-.581-.756.12652-.1313c.4362-.4165 1.01703-.6247 1.74248-.6247ZM23 20.0001v1H9.00003v-1H23Zm-18.95597-9.739c.55534 0 1.00917.1423 1.3615.427.35234.2846.5285.6603.5285 1.127 0 .35-.13066.6906-.392 1.022-.26133.3313-.68833.7023-1.281 1.113h1.708v1.05h-3.661v-.938l.21624-.1563c.91201-.6612 1.4991-1.1131 1.76126-1.3557.28234-.2614.4235-.5064.4235-.735 0-.154-.06183-.2742-.1855-.3605-.12366-.0864-.2765-.1295-.4585-.1295-.46666 0-.882.1703-1.246.511l-.665-.798.14868-.1489c.20608-.1878.44352-.333.71232-.4356.336-.1284.679-.1925 1.029-.1925ZM23 12.0001v1H9.00003v-1H23ZM4.70903 2.33105v4.669h-1.204v-3.129l-.784.791-.686-.721 1.631-1.61h1.043ZM23 4.00005v1H9.00003v-1H23Z" fill="#455065"/>
</svg>
