<?xml version="1.0" encoding="UTF-8"?>
<svg width="16px" height="16px" viewBox="0 0 16 16" version="1.1" xmlns="http://www.w3.org/2000/svg" xmlns:xlink="http://www.w3.org/1999/xlink">
    <!-- Generator: sketchtool 55.2 (78181) - https://sketchapp.com -->
    <title>94d4c2d2-ab6d-46b3-a269-5fd123cf52a2@1.00x</title>
    <desc>Created with sketchtool.</desc>
    <defs>
        <path d="M4,7 L4,4 C4,1.790861 5.790861,0 8,0 C10.209139,0 12,1.790861 12,4 L12,7 L14,7 L14,16 L2,16 L2,7 L4,7 Z M5,7 L11,7 L11,4 C11,2.34314575 9.65685425,1 8,1 C6.34314575,1 5,2.34314575 5,4 L5,7 Z M4,8 L3,8 L3,15 L13,15 L13,8 L12,8 L4,8 Z" id="path-1"></path>
    </defs>
    <g id="Symbols" stroke="none" stroke-width="1" fill="none" fill-rule="evenodd">
        <g id="Icons-/-General-/-16-/-Lock">
            <mask id="mask-2" fill="white">
                <use xlink:href="#path-1"></use>
            </mask>
            <use id="Combined-Shape" fill="#000000" fill-rule="nonzero" xlink:href="#path-1"></use>
            <g id="Colors-/-Black" mask="url(#mask-2)" fill="#000000">
                <rect id="Rectangle" x="0" y="0" width="16" height="16"></rect>
            </g>
        </g>
    </g>
</svg>