<?xml version="1.0" encoding="UTF-8"?>
<svg width="21px" height="30px" viewBox="0 0 21 30" version="1.1" xmlns="http://www.w3.org/2000/svg" xmlns:xlink="http://www.w3.org/1999/xlink">
    <!-- Generator: sketchtool 63.1 (101010) - https://sketch.com -->
    <title>0ab57c0f-b616-40f7-91ee-0b8997ea75e3@1.00x</title>
    <desc>Created with sketchtool.</desc>
    <g id="Symbols" stroke="none" stroke-width="1" fill="none" fill-rule="evenodd">
        <g id="Logo-/-Emblem-/-Blue" fill="#204ECF">
            <path d="M8.18503937,0 L21,12.9583333 L11.3887795,22.6041667 L15.7913386,27.0416667 L12.8562992,30 L0,17 L9.56988189,7.375 L5.20866142,2.97916667 L8.18503937,0 Z M12.1948819,10.7083333 C12.1287402,10.725 12.0625984,10.7683333 11.9647087,10.8596667 L11.8848425,10.9375 L6.42814961,16.4375 C6.26279528,16.5833333 6.22145669,16.6666667 6.2007874,16.75 C6.18011811,16.8541667 6.18011811,16.9375 6.2007874,17.0208333 C6.21732283,17.0875 6.26031496,17.1541667 6.35092913,17.2528333 L6.42814961,17.3333333 L8.16437008,19.0833333 C8.30905512,19.25 8.39173228,19.2916667 8.47440945,19.3125 C8.57775591,19.3333333 8.66043307,19.3333333 8.74311024,19.3125 C8.81200787,19.2951389 8.88090551,19.2633102 8.98568734,19.1567323 L9.05314961,19.0833333 L14.5098425,13.5833333 C14.6751969,13.4375 14.7165354,13.3541667 14.7372047,13.2708333 C14.757874,13.1666667 14.757874,13.0833333 14.7372047,13 C14.7206693,12.9333333 14.6776772,12.8666667 14.587063,12.768 L14.5098425,12.6875 L12.773622,10.9375 C12.628937,10.7708333 12.5462598,10.7291667 12.4635827,10.7083333 C12.3602362,10.6875 12.2775591,10.6875 12.1948819,10.7083333 Z M18.3129921,0 C19.0570866,0 19.6978346,0.270833333 20.2145669,0.791666667 C20.7312992,1.3125 21,1.95833333 21,2.70833333 C21,3.45833333 20.7312992,4.08333333 20.2145669,4.60416667 C19.6978346,5.125 19.0570866,5.39583333 18.3129921,5.39583333 C17.5688976,5.39583333 16.9488189,5.14583333 16.4320866,4.60416667 C15.9153543,4.08333333 15.6466535,3.45833333 15.6466535,2.70833333 C15.6466535,1.95833333 15.894685,1.33333333 16.4320866,0.791666667 C16.9488189,0.270833333 17.5895669,0 18.3129921,0 Z M18.3336614,0.4375 C17.7135827,0.4375 17.1761811,0.666666667 16.7627953,1.10416667 C16.3287402,1.54166667 16.101378,2.0625 16.101378,2.70833333 C16.101378,3.33333333 16.3080709,3.875 16.742126,4.3125 C17.1761811,4.75 17.6929134,4.97916667 18.3336614,4.97916667 C18.9537402,4.97916667 19.4911417,4.75 19.9045276,4.3125 C20.3385827,3.875 20.5659449,3.33333333 20.5659449,2.70833333 C20.5659449,2.0625 20.3385827,1.54166667 19.9045276,1.10416667 C19.4704724,0.666666667 18.9537402,0.4375 18.3336614,0.4375 Z M18.519685,1.22916667 C19.1190945,1.22916667 19.4498031,1.58333333 19.4498031,2.0625 C19.4498031,2.47916667 19.1397638,2.79166667 18.726378,2.875 L19.4498031,4.1875 L18.9537402,4.1875 L18.230315,2.89583333 L17.7549213,2.89583333 L17.7549213,4.1875 L17.3208661,4.1875 L17.3208661,1.22916667 L18.519685,1.22916667 Z M18.4370079,1.625 L17.7549213,1.625 L17.7549213,2.52083333 L18.4370079,2.52083333 C18.8090551,2.52083333 19.015748,2.375 19.015748,2.08333333 C19.015748,1.77083333 18.8297244,1.625 18.4370079,1.625 Z" id="Combined-Shape"></path>
        </g>
    </g>
</svg>
