<svg width="16" height="16" viewBox="0 0 16 16" fill="none" xmlns="http://www.w3.org/2000/svg">
  <path fill-rule="evenodd" clip-rule="evenodd" d="M11 1h4v4h-1V2.72254L8.00252 8.72003 1.285 2.00251l.70711-.7071 6.00973 6.00973L13.3082 2H11V1ZM1.27543 11.3655c4.30904-1.81963 9.14237-1.82064 13.44607-.0032.7227.3043 1.2086.9979 1.2707 1.7867l.0067.1704L16 15.0031c.0003.5107-.3725.9307-.8534.9878l-.1128.0066-2.7482.0022c-.4961-.0004-.9043-.3838-.9604-.8786l-.0066-.1161-.0007-1.2205-.222-.0359c-1.88479-.3111-3.79877-.3374-5.68198-.0778l-.73226.113.00078 1.2196c.00033.5107-.37253.9307-.85345.9878l-.11278.0067L.968074 16c-.496126-.0003-.904354-.3838-.96042356-.8786l-.00656749-.116L4.5e-7 13.3217C-.0005487 12.4634.50125 11.6907 1.27543 11.3655Zm13.05697.9181c-3.9242-1.6572-8.31445-1.7097-12.27352-.1575l-.39444.1606c-.36016.1513-.61047.4955-.65671.8982L1 13.3211 1.001 15l2.681-.003-.00089-2.0656 1.05627-.1692c1.97549-.3279 3.98975-.3552 5.97682-.0825l.5413.0817 1.0618.1716.0007 2.066L15 14.997l-.0011-1.6769c-.0002-.4145-.2154-.7859-.5505-.979l-.116-.0575Z" fill="#455065"/>
</svg>
