<?xml version="1.0" encoding="UTF-8"?>
<svg width="24px" height="24px" viewBox="0 0 24 24" version="1.1" xmlns="http://www.w3.org/2000/svg" xmlns:xlink="http://www.w3.org/1999/xlink">
    <!-- Generator: sketchtool 54.1 (76490) - https://sketchapp.com -->
    <title>25f814c0-6b93-458e-8dc1-fab29fe8eb55@1.00x</title>
    <desc>Created with sketchtool.</desc>
    <defs>
        <path d="M20,4 L20,1 L21,1 L21,4 L24,4 L24,5 L21,5 L21,8 L20,8 L20,5 L17,5 L17,4 L20,4 Z M6.23499152,14.4327132 C3.74405105,13.3605949 2,10.8839699 2,8 C2,4.13400675 5.13400675,1 9,1 C12.8659932,1 16,4.13400675 16,8 C16,10.8839699 14.2559489,13.3605949 11.7650085,14.4327132 C15.3827909,15.5994364 18,18.9940772 18,23 L17,23 C17,18.581722 13.418278,15 9,15 C4.581722,15 1,18.581722 1,23 L0,23 C0,18.9940772 2.61720907,15.5994364 6.23499152,14.4327132 Z M9,14 C12.3137085,14 15,11.3137085 15,8 C15,4.6862915 12.3137085,2 9,2 C5.6862915,2 3,4.6862915 3,8 C3,11.3137085 5.6862915,14 9,14 Z" id="path-1"></path>
    </defs>
    <g id="Symbols" stroke="none" stroke-width="1" fill="none" fill-rule="evenodd">
        <g id="Icons-/-Notifications-/-24-/-New-Candidate">
            <mask id="mask-2" fill="white">
                <use xlink:href="#path-1"></use>
            </mask>
            <use id="Combined-Shape" fill="#000000" fill-rule="nonzero" xlink:href="#path-1"></use>
            <g id="Colors-/-Black" mask="url(#mask-2)" fill="#000000">
                <rect id="Rectangle" x="0" y="0" width="24" height="24"></rect>
            </g>
        </g>
    </g>
</svg>