<?xml version="1.0" encoding="UTF-8"?>
<svg width="24px" height="24px" viewBox="0 0 24 24" version="1.1" xmlns="http://www.w3.org/2000/svg" xmlns:xlink="http://www.w3.org/1999/xlink">
    <!-- Generator: sketchtool 54.1 (76490) - https://sketchapp.com -->
    <title>c231d4a6-7b6a-42e0-9f4c-50694cd6a47b@1.00x</title>
    <desc>Created with sketchtool.</desc>
    <defs>
        <path d="M20,13 L20,12 L21,12 L21,13 L22,13 L22,14 L21,14 L21,15 L20,15 L20,14 L19,14 L19,13 L20,13 Z M18,6 L18,4 L19,4 L19,6 L21,6 L21,7 L19,7 L19,9 L18,9 L18,7 L16,7 L16,6 L18,6 Z M9,9 C9,13.8743201 12.8749078,17.843607 17.712353,17.9954904 C16.0642668,19.8393559 13.6676749,21 11,21 C6.02943725,21 2,16.9705627 2,12 C2,7.02943725 6.02943725,3 11,3 C11.0962426,3 11.1921325,3.00151067 11.287647,3.00450958 C9.86492581,4.59623853 9,6.69711214 9,9 Z M3,12 C3,16.418278 6.581722,20 11,20 C12.6069647,20 14.1360668,19.5242439 15.4261001,18.6658039 C11.1433363,17.5289142 8,13.6239205 8,9 C8,7.29116002 8.43085974,5.6480966 9.22657107,4.1972513 C5.66174019,5.0040518 3,8.19118453 3,12 Z" id="path-1"></path>
    </defs>
    <g id="Symbols" stroke="none" stroke-width="1" fill="none" fill-rule="evenodd">
        <g id="Icons-/-Top-Scheduler-/-24-/-Night">
            <mask id="mask-2" fill="white">
                <use xlink:href="#path-1"></use>
            </mask>
            <use id="Combined-Shape" fill="#000000" xlink:href="#path-1"></use>
            <g id="Colors-/-Black" mask="url(#mask-2)" fill="#000000">
                <rect id="Rectangle" x="0" y="0" width="24" height="24"></rect>
            </g>
        </g>
    </g>
</svg>