<?xml version="1.0" encoding="UTF-8"?>
<svg width="24px" height="24px" viewBox="0 0 24 24" version="1.1" xmlns="http://www.w3.org/2000/svg" xmlns:xlink="http://www.w3.org/1999/xlink">
    <!-- Generator: sketchtool 54.1 (76490) - https://sketchapp.com -->
    <title>bc0bcc34-2355-434c-b300-187e556ad916@1.00x</title>
    <desc>Created with sketchtool.</desc>
    <defs>
        <path d="M20.6284614,22.0062832 C19.6571778,22.9788464 18.1978488,23.2692893 16.9278398,22.7359341 C9.84875733,19.7775863 4.21829369,14.1494232 1.26376319,7.07897828 C0.731104258,5.80799127 1.02089206,4.34747122 1.99199544,3.37508858 L3.89715501,1.46741928 C4.51952948,0.844224929 5.52687423,0.844224929 6.14855911,1.46672976 L9.35173122,4.66503639 C9.97360465,5.28772903 9.97360465,6.29483481 9.35173122,6.91752746 L7.9706085,8.30046957 L8.18848652,8.59956926 C10.1989301,11.3787052 12.6336864,13.8144239 15.4035676,15.8145782 L15.6990084,16.0303601 L17.0790448,14.6485057 C17.7014193,14.0253114 18.708764,14.0253114 19.3304489,14.6478162 L22.533621,17.8461229 C23.1554944,18.4688155 23.1554944,19.4759213 22.533621,20.0986139 L20.6284614,22.0062832 Z M17.3150423,21.8139394 C18.2083567,22.1890973 19.2353725,21.986062 19.9208894,21.299642 L21.8260489,19.3919727 C22.0580185,19.1596976 22.0580185,18.7850391 21.8270519,18.5537669 L18.6228763,15.3544568 C18.3917825,15.1230583 18.0183213,15.1231373 17.7866169,15.3551469 L15.801118,17.3432613 L15.1092006,16.8379038 L14.8181377,16.6253013 C11.9630303,14.5636044 9.45205926,12.0524017 7.38020183,9.18836113 L6.65914932,8.19851101 L8.64415915,6.21088627 C8.87612867,5.97861117 8.87612867,5.60395268 8.64516208,5.37268041 L5.44098648,2.17337039 C5.20989271,1.94197182 4.83643147,1.94205084 4.60472708,2.17406046 L2.6995675,4.08172976 C2.01380741,4.76839323 1.81095649,5.79745475 2.18644527,6.69341664 C5.0395905,13.5212379 10.4771356,18.9563772 17.3150423,21.8139394 Z" id="path-1"></path>
    </defs>
    <g id="Symbols" stroke="none" stroke-width="1" fill="none" fill-rule="evenodd">
        <g id="Icons-/-Contact-Interview-/-24-/-Phone">
            <mask id="mask-2" fill="white">
                <use xlink:href="#path-1"></use>
            </mask>
            <use id="Path" fill="#000000" fill-rule="nonzero" xlink:href="#path-1"></use>
            <g id="Colors-/-Black" mask="url(#mask-2)" fill="#000000">
                <rect id="Rectangle" x="0" y="0" width="24" height="24"></rect>
            </g>
        </g>
    </g>
</svg>