<?xml version="1.0" encoding="UTF-8"?>
<svg width="16px" height="16px" viewBox="0 0 16 16" version="1.1" xmlns="http://www.w3.org/2000/svg" xmlns:xlink="http://www.w3.org/1999/xlink">
    <title>cc1edd67-493f-4168-b508-de49c62a35c5@1.00x</title>
    <defs>
        <path d="M14.7214726,6.36234002 C15.444154,6.66663047 15.9301481,7.36018549 15.9921833,8.14904416 L15.9989191,8.3194369 L15.9999995,10.0030696 C16.0003276,10.5137899 15.6274733,10.9338075 15.1465542,10.9909135 L15.0337753,10.9975257 L12.2856356,10.9996685 C11.7895098,10.9993316 11.3812815,10.6158594 11.325212,10.1210679 L11.3186445,10.0050329 L11.3178611,8.78450349 L11.0959237,8.74863794 C9.21111421,8.43748821 7.29712391,8.41119834 5.41391452,8.67077506 L4.68165356,8.78383164 L4.68243638,10.0034011 C4.6827642,10.5141214 4.30990993,10.934139 3.82899083,10.991245 L3.71621186,10.9978572 L0.968072166,11 C0.471946411,10.9996631 0.0637181425,10.6161909 0.00764863785,10.1213994 L0.00108114317,10.0053644 L-4.52489887e-07,8.32173172 C-0.000550501397,7.46338631 0.501248018,6.6907397 1.27542737,6.36545672 C5.58446894,4.54587075 10.4177708,4.54486484 14.7214726,6.36234002 Z M2.05887457,7.12611484 L1.66443803,7.28668997 C1.30427734,7.43801841 1.05397194,7.78219147 1.00772755,8.18487787 L0.999999794,8.32108957 L1.001,10 L3.682,9.997 L3.68110622,7.93143011 L4.73738193,7.76215324 C6.7128665,7.43426563 8.72712665,7.40703323 10.714239,7.67965889 L11.2554562,7.76144525 L12.3173148,7.93304385 L12.318,9.999 L14.9999998,9.997 L14.9989193,8.32007878 C14.9986533,7.90564791 14.7834719,7.53422995 14.4484266,7.34113648 L14.3324358,7.28356222 C10.4082349,5.6263522 6.01794622,5.57385543 2.05887457,7.12611484 Z" id="path-1"></path>
    </defs>
    <g id="Symbols" stroke="none" stroke-width="1" fill="none" fill-rule="evenodd">
        <g id="Icons-/-Communication-/-16-/-Call-End">
            <mask id="mask-2" fill="white">
                <use xlink:href="#path-1"></use>
            </mask>
            <use id="Path" fill="#979797" fill-rule="nonzero" xlink:href="#path-1"></use>
            <g id="Group" mask="url(#mask-2)">
                <g transform="translate(0.000000, 0.000063)" id="Colors-/-305-Dark-Gray">
                    <rect id="Rectangle" fill="#455065" x="0" y="0" width="16" height="16"></rect>
                </g>
            </g>
        </g>
    </g>
</svg>