<?xml version="1.0" encoding="UTF-8"?>
<svg width="24px" height="24px" viewBox="0 0 24 24" version="1.1" xmlns="http://www.w3.org/2000/svg" xmlns:xlink="http://www.w3.org/1999/xlink">
    <title>B51C2B85-57BD-4937-89FF-9916AAAE86D6@1x</title>
    <defs>
        <path d="M6,13 C8.76142375,13 11,15.2385763 11,18 C11,20.7614237 8.76142375,23 6,23 C3.23857625,23 1,20.7614237 1,18 C1,15.2385763 3.23857625,13 6,13 Z M18,13 C20.7614237,13 23,15.2385763 23,18 C23,20.7614237 20.7614237,23 18,23 C15.2385763,23 13,20.7614237 13,18 C13,15.2385763 15.2385763,13 18,13 Z M6,14 C3.790861,14 2,15.790861 2,18 C2,20.209139 3.790861,22 6,22 C8.209139,22 10,20.209139 10,18 C10,15.790861 8.209139,14 6,14 Z M18,14 C15.790861,14 14,15.790861 14,18 C14,20.209139 15.790861,22 18,22 C20.209139,22 22,20.209139 22,18 C22,15.790861 20.209139,14 18,14 Z M6,1 C8.76142375,1 11,3.23857625 11,6 C11,8.76142375 8.76142375,11 6,11 C3.23857625,11 1,8.76142375 1,6 C1,3.23857625 3.23857625,1 6,1 Z M18,1 C20.7614237,1 23,3.23857625 23,6 C23,8.76142375 20.7614237,11 18,11 C15.2385763,11 13,8.76142375 13,6 C13,3.23857625 15.2385763,1 18,1 Z M6,2 C3.790861,2 2,3.790861 2,6 C2,8.209139 3.790861,10 6,10 C8.209139,10 10,8.209139 10,6 C10,3.790861 8.209139,2 6,2 Z M18,2 C15.790861,2 14,3.790861 14,6 C14,8.209139 15.790861,10 18,10 C20.209139,10 22,8.209139 22,6 C22,3.790861 20.209139,2 18,2 Z" id="path-1"></path>
    </defs>
    <g id="Symbols" stroke="none" stroke-width="1" fill="none" fill-rule="evenodd">
        <g id="Icons-/-Misc-/-24-/-Pod">
            <mask id="mask-2" fill="white">
                <use xlink:href="#path-1"></use>
            </mask>
            <use id="Combined-Shape" fill="#262D3D" fill-rule="nonzero" xlink:href="#path-1"></use>
            <g id="Group" mask="url(#mask-2)" fill="#455065">
                <g id="Colors-/-307-Gray-Dark">
                    <rect id="Rectangle" x="0" y="0" width="24" height="24"></rect>
                </g>
            </g>
        </g>
    </g>
</svg>