<svg fill="none" xmlns="http://www.w3.org/2000/svg" viewBox="0 0 16 16">
  <path fill-rule="evenodd" clip-rule="evenodd" d="M.100098 0H3.1001v1h-2v2H.100098V0ZM12.1001 0h3v3h-1V1h-2V0Zm-11 12H.100098v3H3.1001v-1h-2v-2Zm13 2v-2h1v3h-3v-1h2ZM1.17591 7.5c.05569.09045.12969.2046.22276.33599.24829.35053.62989.82039 1.15854 1.29031C3.61032 10.0624 5.24643 11 7.60003 11c2.35361 0 3.98967-.9376 5.04287-1.8737.5286-.46992.9102-.93978 1.1585-1.29031.0931-.13139.1671-.24554.2228-.33599-.0557-.09045-.1297-.2046-.2228-.33599-.2483-.35053-.6299-.82039-1.1585-1.29031C11.5897 4.93761 9.95364 4 7.60003 4c-2.3536 0-3.98971.93761-5.04282 1.8737-.52865.46992-.91025.93978-1.15854 1.29031-.09307.13139-.16707.24554-.22276.33599ZM14.6 7.5c.4472-.22361.4471-.22384.447-.22409L14.6 7.5Zm.447-.22409-.001-.002-.002-.00394-.0063-.01218c-.0052-.00999-.0124-.02369-.0217-.04085-.0186-.03433-.0455-.08254-.0809-.14266-.0708-.12018-.176-.28828-.3177-.48829-.2829-.39947-.7138-.92961-1.3102-1.45969C12.1103 4.06239 10.2464 3 7.60003 3 4.95364 3 3.08975 4.06239 1.89285 5.1263 1.29651 5.65638.865605 6.18652.582645 6.58599c-.141672.20001-.24686.36811-.317678.48829-.035427.06012-.062306.10833-.080899.14266-.009298.01716-.016529.03086-.021725.04085l-.006274.01218-.002001.00394-.000718.00143c-.000125.00024-.000531.00105.446683.22466l-.447214-.22361L.0410156 7.5l.1118004.2236c-.000044-.00013.000883-.00059.055944-.02808.055946-.02793.167781-.08377.391273-.19552l-.447214.22361.000531.00106.000718.00142.002001.00394.006274.01218c.005196.00999.012427.02369.021725.04085.018593.03433.045472.08254.080899.14266.070818.12018.176006.28828.317678.48829.28296.39947.713865.92961 1.310205 1.45969C3.08975 10.9376 4.95364 12 7.60003 12c2.64637 0 4.51027-1.0624 5.70717-2.1263.5964-.53008 1.0273-1.06022 1.3102-1.45969.1417-.20001.2469-.36811.3177-.48829.0354-.06012.0623-.10833.0809-.14266.0093-.01716.0165-.03086.0217-.04085l.0063-.01218.002-.00394.0007-.00142c.0001-.00025.0005-.00106-.4467-.22467l.4472.22361L15.159 7.5l-.112-.22409ZM7.6001 6c-.82843 0-1.5.67157-1.5 1.5s.67157 1.5 1.5 1.5c.82842 0 1.5-.67157 1.5-1.5S8.42852 6 7.6001 6Zm-2.5 1.5c0-1.38071 1.11929-2.5 2.5-2.5s2.5 1.11929 2.5 2.5-1.11929 2.5-2.5 2.5-2.5-1.11929-2.5-2.5Z" fill="#455065"/>
</svg>
