<?xml version="1.0" encoding="UTF-8"?>
<svg width="16px" height="16px" viewBox="0 0 16 16" version="1.1" xmlns="http://www.w3.org/2000/svg" xmlns:xlink="http://www.w3.org/1999/xlink">
    <!-- Generator: sketchtool 54.1 (76490) - https://sketchapp.com -->
    <title>780f85a0-e574-435e-8f8d-a387e9140616@1.00x</title>
    <desc>Created with sketchtool.</desc>
    <defs>
        <path d="M5.63854385,9.40832133 C4.06796975,8.56522884 3,6.90733327 3,5 C3,2.23857625 5.23857625,0 8,0 C10.7614237,0 13,2.23857625 13,5 C13,6.90733327 11.9320303,8.56522884 10.3614561,9.40832133 C13.065538,10.3771683 15,12.9626752 15,16 L14,16 C14,12.6862915 11.3137085,10 8,10 C4.6862915,10 2,12.6862915 2,16 L1,16 C1,12.9626752 2.934462,10.3771683 5.63854385,9.40832133 Z M8,9 C10.209139,9 12,7.209139 12,5 C12,2.790861 10.209139,1 8,1 C5.790861,1 4,2.790861 4,5 C4,7.209139 5.790861,9 8,9 Z" id="path-1"></path>
    </defs>
    <g id="Symbols" stroke="none" stroke-width="1" fill="none" fill-rule="evenodd">
        <g id="Icons-/-General-/-16-/-Profile">
            <mask id="mask-2" fill="white">
                <use xlink:href="#path-1"></use>
            </mask>
            <use id="Combined-Shape" fill="#000000" fill-rule="nonzero" xlink:href="#path-1"></use>
            <g id="Colors-/-Black" mask="url(#mask-2)" fill="#000000">
                <rect id="Rectangle" x="0" y="0" width="16" height="16"></rect>
            </g>
        </g>
    </g>
</svg>