<?xml version="1.0" encoding="UTF-8"?>
<svg width="16px" height="16px" viewBox="0 0 16 16" version="1.1" xmlns="http://www.w3.org/2000/svg" xmlns:xlink="http://www.w3.org/1999/xlink">
    <!-- Generator: Sketch 63.1 (92452) - https://sketch.com -->
    <title>Icons / People / 16 / Referrals</title>
    <desc>Created with Sketch.</desc>
    <defs>
        <path d="M12,7 C13.6568542,7 15,8.34314575 15,10 C15,10.9919444 14.5185744,11.8714458 13.77663,12.4175975 C15.0383783,13.0419284 15.9220752,14.3145844 15.9951047,15.8003597 L16,16 L15,16 C15,14.3431458 13.6568542,13 12,13 C10.4023191,13 9.09633912,14.24892 9.00509269,15.8237272 L9,16 L8,16 C8,14.4292161 8.90541707,13.0699037 10.2228289,12.4154851 C9.48142558,11.8714458 9,10.9919444 9,10 C9,8.34314575 10.3431458,7 12,7 Z M1.44403599,10.4588412 C2.24522545,12.594046 4.05963389,14.2338079 6.30169919,14.7925645 L6.05920434,15.7629607 C3.49700662,15.1244644 1.42348137,13.2506947 0.507703093,10.8107261 L1.44403599,10.4588412 Z M12,8 C10.8954305,8 10,8.8954305 10,10 C10,11.1045695 10.8954305,12 12,12 C13.1045695,12 14,11.1045695 14,10 C14,8.8954305 13.1045695,8 12,8 Z M4,0 C5.65685425,0 7,1.34314575 7,3 C7,3.99194437 6.51857442,4.87144576 5.77662998,5.41759748 C7.03837833,6.04192844 7.92207519,7.31458438 7.99510469,8.80035966 L8,9 L7,9 C7,7.34314575 5.65685425,6 4,6 C2.40231912,6 1.09633912,7.24891996 1.00509269,8.82372721 L1,9 L0,9 C0,7.4292161 0.905417065,6.06990369 2.22282885,5.41548511 C1.48142558,4.87144576 1,3.99194437 1,3 C1,1.34314575 2.34314575,0 4,0 Z M8,3.01980663e-14 C12.0824017,3.01980663e-14 15.4506025,3.0578577 15.9391097,7.00808048 L14.9467029,7.13192414 C14.519194,3.67555 11.5720511,1 8,1 L8,3.01980663e-14 Z M4,1 C2.8954305,1 2,1.8954305 2,3 C2,4.1045695 2.8954305,5 4,5 C5.1045695,5 6,4.1045695 6,3 C6,1.8954305 5.1045695,1 4,1 Z" id="path-1"></path>
    </defs>
    <g id="Icons-/-People-/-16-/-Referrals" stroke="none" stroke-width="1" fill="none" fill-rule="evenodd">
        <mask id="mask-2" fill="white">
            <use xlink:href="#path-1"></use>
        </mask>
        <use id="Combined-Shape" fill="#455065" xlink:href="#path-1"></use>
        <g id="Colors-/-307-Gray-Dark" mask="url(#mask-2)" fill="#455065">
            <rect id="Rectangle" x="0" y="0" width="16" height="16"></rect>
        </g>
    </g>
</svg>