<?xml version="1.0" encoding="UTF-8"?>
<svg width="24px" height="24px" viewBox="0 0 24 24" version="1.1" xmlns="http://www.w3.org/2000/svg" xmlns:xlink="http://www.w3.org/1999/xlink">
    <title>b9e50c96-1c6a-4315-a4e2-4634fa1c079d@1.00x</title>
    <defs>
        <path d="M7.5,8.5 L6.5,8.5 L6.49998152,5.51857288 C4.62121694,7.11278865 3.5,9.46102455 3.5,12 C3.5,16.6944204 7.30557963,20.5 12,20.5 C16.6944204,20.5 20.5,16.6944204 20.5,12 C20.5,7.39093272 16.831547,3.63867855 12.2551603,3.5037566 L12,3.5 L12,2.5 C17.2467051,2.5 21.5,6.75329488 21.5,12 C21.5,17.2467051 17.2467051,21.5 12,21.5 C6.75329488,21.5 2.5,17.2467051 2.5,12 C2.5,9.02332364 3.87988686,6.27999002 6.16847875,4.49970984 L2.5,4.5 L2.5,3.5 L7.5,3.5 L7.5,8.5 Z" id="path-1"></path>
    </defs>
    <g id="Symbols" stroke="none" stroke-width="1" fill="none" fill-rule="evenodd">
        <g id="Icons-/-Arrows-/-24-/-Reset">
            <mask id="mask-2" fill="white">
                <use xlink:href="#path-1"></use>
            </mask>
            <use id="Combined-Shape" fill="#979797" fill-rule="nonzero" xlink:href="#path-1"></use>
            <g id="Group" mask="url(#mask-2)" fill="#455065">
                <g id="Colors-/-305-Dark-Gray">
                    <rect id="Rectangle" x="0" y="0" width="24" height="24"></rect>
                </g>
            </g>
        </g>
    </g>
</svg>