<?xml version="1.0" encoding="UTF-8"?>
<svg width="16px" height="16px" viewBox="0 0 16 16" version="1.1" xmlns="http://www.w3.org/2000/svg" xmlns:xlink="http://www.w3.org/1999/xlink">
    <title>6B8DE409-4F5B-459E-97A8-37A01D8B62F9@1x</title>
    <defs>
        <path d="M13,7 L12.9998164,8.07198171 C13.8183365,8.15264622 14.4983946,8.4553171 15.04,8.98 L14.37,9.85 C13.9902349,9.47023486 13.5336955,9.23279505 13.0003739,9.13767738 L12.999,10.862 L13.111667,10.8916667 C13.2961111,10.9427777 13.4805546,11.0005552 13.665,11.065 C13.9416681,11.1616672 14.1933322,11.2799993 14.42,11.42 C14.6466678,11.5600007 14.831666,11.7533321 14.975,12 C15.1183341,12.2466679 15.19,12.5399983 15.19,12.88 C15.19,13.480003 14.9733355,13.9733314 14.54,14.36 C14.1755959,14.6851606 13.6626943,14.8736007 13.0012835,14.9253239 L13,16 L12,16 L11.9985126,14.9037132 C11.1373875,14.7971565 10.4378882,14.4559206 9.9,13.88 L10.55,12.98 C10.9649144,13.4238619 11.447907,13.7071134 11.9989859,13.8297581 L11.9997884,11.8714077 C11.828528,11.8242914 11.6569322,11.7738223 11.485,11.72 C11.1016648,11.5999994 10.776668,11.3966681 10.51,11.11 C10.243332,10.8233319 10.11,10.4533356 10.11,10 C10.11,9.4399972 10.3349978,8.97500185 10.785,8.605 C11.116397,8.33251802 11.5210049,8.16037005 11.9988306,8.08855389 L12,7 L13,7 Z M4,0 L4,1 L12,1 L12,0 L13,0 L13,1 L16,1 L16,7 L15,7 L15,5 L1,5 L1,13 L8,13 L8,14 L0,14 L0,1 L3,1 L3,0 L4,0 Z M13.0010153,12.1303551 L13.0000985,13.8799734 C13.2808576,13.8443022 13.5024901,13.7609781 13.665,13.63 C13.8883345,13.4499991 14,13.2366679 14,12.99 C14,12.7366654 13.866668,12.5350008 13.6,12.385 C13.4247978,12.2864488 13.2251372,12.2015675 13.0010153,12.1303551 Z M11.9987708,9.13968266 C11.8507092,9.17704671 11.722786,9.23548571 11.615,9.315 C11.4116657,9.46500075 11.31,9.6666654 11.31,9.92 C11.31,10.0866675 11.381666,10.2266661 11.525,10.34 C11.6506385,10.4393421 11.8082887,10.5220359 11.9979543,10.5880833 L11.9987708,9.13968266 Z M3,2 L1,2 L1,4 L15,4 L15,2 L13,2 L13,3 L12,3 L12,2 L4,2 L4,3 L3,3 L3,2 Z" id="path-1"></path>
    </defs>
    <g id="Symbols" stroke="none" stroke-width="1" fill="none" fill-rule="evenodd">
        <g id="Icons-/-Finance-/-16-/-Scheduled-Payment">
            <mask id="mask-2" fill="white">
                <use xlink:href="#path-1"></use>
            </mask>
            <use id="Combined-Shape" fill="#000000" fill-rule="nonzero" xlink:href="#path-1"></use>
            <g id="Group" mask="url(#mask-2)" fill="#455065">
                <g id="Colors-/-307-Gray-Dark">
                    <rect id="Rectangle" x="0" y="0" width="16" height="16"></rect>
                </g>
            </g>
        </g>
    </g>
</svg>
