<?xml version="1.0" encoding="UTF-8"?>
<svg width="16px" height="16px" viewBox="0 0 16 16" version="1.1" xmlns="http://www.w3.org/2000/svg" xmlns:xlink="http://www.w3.org/1999/xlink">
    <!-- Generator: sketchtool 54.1 (76490) - https://sketchapp.com -->
    <title>8643fb2f-c67b-4944-9f56-7c2d1234ea1c@1.00x</title>
    <desc>Created with sketchtool.</desc>
    <defs>
        <path d="M15.3531641,9.79567055 C16.3805012,11.3758933 16.1713685,13.4745403 14.8165097,14.8230383 C13.4533586,16.1797896 11.3283145,16.3811358 9.73879439,15.3354696 C7.18880105,15.9222423 4.50739505,15.1566889 2.65606586,13.2989478 C0.80525933,11.4417311 0.0572024782,8.7669858 0.665825834,6.23326735 C-0.383016645,4.64980755 -0.179655502,2.53370781 1.1834903,1.17696172 C2.54634774,-0.179497356 4.67076997,-0.381049007 6.26017833,0.663854828 C8.80736944,0.0672747517 11.4913041,0.821986067 13.3499205,2.67187661 C15.2245144,4.53766962 15.9804852,7.23985366 15.3531641,9.79567055 Z M14.1309076,9.81914502 L14.3780824,9.57313072 C14.9289169,7.3527523 14.2742548,5.002769 12.6444795,3.3806452 C10.9826901,1.72665758 8.5597948,1.08095909 6.28940251,1.687327 L6.05538975,1.74982626 L5.86129016,1.60493501 C4.65149966,0.701851942 2.95804384,0.82163712 1.88893136,1.88573031 C0.820973914,2.9486739 0.700882528,4.63055458 1.60690168,5.83290866 L1.75471457,6.02906724 L1.68980431,6.26595011 C1.07185651,8.52108288 1.7101151,10.9330561 3.36439397,12.5930644 C5.01940504,14.2538075 7.43967083,14.9093353 9.71255525,14.3121544 L9.94561119,14.2509209 L10.1387098,14.395065 C11.3485003,15.2981481 13.0419562,15.1783629 14.1110686,14.1142697 C15.1790261,13.0513261 15.2991175,11.3694454 14.3930983,10.1670913 L14.1309076,9.81914502 Z M4.55934246,10.3362641 L4.32307792,9.89560657 L5.204393,9.42307749 L5.44065754,9.86373503 C5.81240006,10.5570729 6.58222441,11.000593 7.43,10.9999993 L9.125,10.9999993 C9.89180609,10.9999993 10.5,10.4323518 10.5,9.74999964 C10.5,9.06764753 9.89180609,8.5 9.125,8.5 L6.875,8.5 C6.25222588,8.5 5.65310332,8.26837967 5.2080157,7.85296464 C4.75607492,7.43115334 4.5,6.85414854 4.5,6.25000036 C4.5,4.99935624 5.57073828,4.00000072 6.875,4.00000072 L8.56964978,4.00000084 C9.77976809,3.99915323 10.8916212,4.63972689 11.4406575,5.66373589 L11.6769221,6.10439343 L10.795607,6.57692251 L10.5593425,6.13626497 C10.1875999,5.44292714 9.41777559,4.99940703 8.57,5.00000072 L6.875,5.00000072 C6.10819391,5.00000072 5.5,5.56764825 5.5,6.25000036 C5.5,6.5741097 5.63901323,6.88734341 5.89033387,7.1219093 C6.14850767,7.36287146 6.50321229,7.5 6.875,7.5 L9.125,7.5 C10.4292617,7.5 11.5,8.49935552 11.5,9.74999964 C11.5,11.0006438 10.4292617,11.9999993 9.125,11.9999993 L7.43035022,11.9999992 C6.22023191,12.0008468 5.10837884,11.3602731 4.55934246,10.3362641 Z" id="path-1"></path>
    </defs>
    <g id="Symbols" stroke="none" stroke-width="1" fill="none" fill-rule="evenodd">
        <g id="Icons-/-Contact-Interview-/-16-/-Skype">
            <mask id="mask-2" fill="white">
                <use xlink:href="#path-1"></use>
            </mask>
            <use id="Combined-Shape" fill="#000000" fill-rule="nonzero" xlink:href="#path-1"></use>
            <g id="Colors-/-Black" mask="url(#mask-2)" fill="#000000">
                <rect id="Rectangle" x="0" y="0" width="16" height="16"></rect>
            </g>
        </g>
    </g>
</svg>