<svg width="24" height="24" viewBox="0 0 24 24" fill="none" xmlns="http://www.w3.org/2000/svg">
  <path fill-rule="evenodd" clip-rule="evenodd" d="M20.4853 3.51473c-.5558-.55577-1.1647-1.05618-1.8178-1.49337l-.5563.83098.3544.24743c.4658.33904.9048.7143 1.3126 1.12206C21.8281 6.27174 23 9.04246 23 12c0 2.9576-1.1719 5.7283-3.2218 7.7782-.5097.5097-1.0682.9686-1.667 1.3695l.5563.831.3865-.2699c.508-.3697.9867-.7789 1.4313-1.2235C22.7209 18.2497 24 15.2255 24 12c0-3.22548-1.2791-6.24969-3.5147-8.48527Zm-2.8284 2.82842c-.3705-.37047-.7764-.70404-1.2118-.99547l-.5563.83098.2809.1982c.276.20498.5367.4301.78.6734C18.2544 8.35487 19 10.1178 19 12s-.7456 3.6451-2.0503 4.9498c-.3244.3244-.6798.6164-1.0609.8716l.5563.8309.3209-.2264c.3152-.2341.613-.4912.8909-.769C19.1471 16.1666 20 14.1502 20 12c0-2.15017-.8529-4.16656-2.3431-5.65685Zm-3.4342 2.33084c.2177.14569.4206.31242.6057.49759C15.5734 9.91656 16 10.9251 16 12s-.4266 2.0835-1.1716 2.8284c-.1234.1235-.2547.2387-.3931.345l-.2126.1526-.5563-.831c.1634-.1093.3158-.2346.4549-.3737C14.6806 13.562 15 12.8069 15 12c0-.8069-.3194-1.562-.8787-2.12131-.0927-.09274-.1914-.17931-.2952-.25913l-.1597-.11459.5563-.83098ZM11 3.00001V21l-5-5H0V8.00001h6l5-5Zm-1 2.414-3.58579 3.586H1V15h5.41421L10 18.585V5.41401Z" fill="#455065"/>
</svg>
