<?xml version="1.0" encoding="UTF-8"?>
<svg width="16px" height="16px" viewBox="0 0 16 16" version="1.1" xmlns="http://www.w3.org/2000/svg" xmlns:xlink="http://www.w3.org/1999/xlink">
    <title>Icons / Audio and Video / 16 / Sound On</title>
    <defs>
        <path d="M12.4451191,1.34766921 C12.8804549,1.63910432 13.2863853,1.97267682 13.6568542,2.34314575 C15.1471383,3.83342983 16,5.84982129 16,8 C16,10.1501787 15.1471383,12.1665702 13.6568542,13.6568542 C13.3790026,13.9347059 13.0812038,14.1918034 12.7660128,14.4259356 L12.4451191,14.6523308 L11.8888193,13.8213491 C12.2699117,13.5662272 12.6253412,13.2741537 12.9497475,12.9497475 C14.2543543,11.6451407 15,9.88223615 15,8 C15,6.11776385 14.2543543,4.35485933 12.9497475,3.05025253 C12.7064428,2.80694784 12.4456875,2.58183035 12.169743,2.37684857 L11.8888193,2.17865086 L12.4451191,1.34766921 Z M7,2 L7,14 L4,11 L0,11 L0,5 L4,5 L7,2 Z M10.7783314,3.8424052 C11.0503816,4.02452889 11.30404,4.23297221 11.5355339,4.46446609 C12.4668398,5.395772 13,6.65630426 13,8 C13,9.34369574 12.4668398,10.604228 11.5355339,11.5355339 C11.3619135,11.7091543 11.1758255,11.8698088 10.9788616,12.0161182 L10.7783314,12.1575948 L10.2220316,11.3266132 C10.4398384,11.1808026 10.6429959,11.0138583 10.8284271,10.8284271 C11.5740557,10.0827985 12,9.07575318 12,8 C12,6.92424682 11.5740557,5.9172015 10.8284271,5.17157288 C10.7048063,5.04795206 10.5733071,4.93254768 10.4348413,4.82614394 L10.2220316,4.67338684 L10.7783314,3.8424052 Z M6,4.414 L4.41421356,6 L1,6 L1,10 L4.41421356,10 L6,11.585 L6,4.414 Z M9.11154375,6.33714119 C9.22030823,6.40995346 9.32169471,6.49326759 9.41421356,6.58578644 C9.78654129,6.95811417 10,7.46278724 10,8 C10,8.53721276 9.78654129,9.04188583 9.41421356,9.41421356 C9.35253433,9.4758928 9.28691393,9.53348104 9.21779373,9.58659397 L9.11154375,9.66285881 L8.55524392,8.83187717 C8.60976508,8.79537803 8.6606506,8.75356297 8.70710678,8.70710678 C8.89375723,8.52045634 9,8.26927021 9,8 C9,7.73072979 8.89375723,7.47954366 8.70710678,7.29289322 L8.63419972,7.22677413 L8.55524392,7.16812283 L9.11154375,6.33714119 Z" id="path-1"></path>
    </defs>
    <g id="Page-1" stroke="none" stroke-width="1" fill="none" fill-rule="evenodd">
        <g id="Extension-tools---Messges---Playing" transform="translate(-1391.000000, -276.000000)">
            <g id="Group-5" transform="translate(1169.000000, 72.000000)">
                <g id="Right-side-bar" transform="translate(32.000000, 32.000000)">
                    <g id="Icons-/-Audio-and-Video-/-16-/-Sound-On" transform="translate(190.000000, 171.000000)">
                        <mask id="mask-2" fill="white">
                            <use xlink:href="#path-1"></use>
                        </mask>
                        <use id="Combined-Shape" fill="#979797" fill-rule="nonzero" xlink:href="#path-1"></use>
                        <g id="Colors-/-305-Dark-Gray" mask="url(#mask-2)" fill="#455065" fill-rule="evenodd">
                            <rect id="Rectangle" x="0" y="0" width="16" height="16"></rect>
                        </g>
                    </g>
                </g>
            </g>
        </g>
    </g>
</svg>