<?xml version="1.0" encoding="UTF-8"?>
<svg width="16px" height="16px" viewBox="0 0 16 16" version="1.1" xmlns="http://www.w3.org/2000/svg" xmlns:xlink="http://www.w3.org/1999/xlink">
    <title>Icons / Audio and Video / 16 / Sound On</title>
    <defs>
        <path d="M7,2 L7,14 L4,11 L0,11 L0,5 L4,5 L7,2 Z M6,4.414 L4.41421356,6 L1,6 L1,10 L4.41421356,10 L6,11.585 L6,4.414 Z M13.5,5.79289322 L14.2071068,6.5 L12.707,8 L14.2071068,9.5 L13.5,10.2071068 L12,8.707 L10.5,10.2071068 L9.79289322,9.5 L11.293,8 L9.79289322,6.5 L10.5,5.79289322 L12,7.293 L13.5,5.79289322 Z" id="path-1"></path>
    </defs>
    <g id="Page-1" stroke="none" stroke-width="1" fill="none" fill-rule="evenodd">
        <g id="Extension-tools---Messges---No-sound" transform="translate(-1391.000000, -277.000000)">
            <g id="Group-5" transform="translate(1169.000000, 72.000000)">
                <g id="Right-side-bar" transform="translate(32.000000, 32.000000)">
                    <g id="Icons-/-Audio-and-Video-/-16-/-Sound-Off" transform="translate(190.000000, 171.000000)">
                        <mask id="mask-2" fill="white">
                            <use xlink:href="#path-1"></use>
                        </mask>
                        <use id="Combined-Shape" fill="#979797" fill-rule="nonzero" xlink:href="#path-1"></use>
                        <g id="Colors-/-305-Dark-Gray" mask="url(#mask-2)" fill="#455065" fill-rule="evenodd">
                            <rect id="Rectangle" x="0" y="0" width="16" height="16"></rect>
                        </g>
                    </g>
                </g>
            </g>
        </g>
    </g>
</svg>