<?xml version="1.0" encoding="UTF-8"?>
<svg width="16px" height="16px" viewBox="0 0 16 16" version="1.1" xmlns="http://www.w3.org/2000/svg" xmlns:xlink="http://www.w3.org/1999/xlink">
    <!-- Generator: sketchtool 55.2 (78181) - https://sketchapp.com -->
    <title>8ca084b0-fc68-45ac-8de4-6d175e5c588d@1.00x</title>
    <desc>Created with sketchtool.</desc>
    <defs>
        <path d="M3.5,3.79289322 L6.5,0.792893219 L7.20710678,1.5 L4.20710678,4.5 L3.5,5.20710678 L1.79289322,3.5 L2.5,2.79289322 L3.5,3.79289322 Z M3,1 L3,2 L1,2 L1,6 L5,6 L5,5 L6,5 L6,7 L0,7 L0,1 L3,1 Z M0,9 L6,9 L6,15 L0,15 L0,9 Z M1,10 L1,14 L5,14 L5,10 L1,10 Z M8,3 L16,3 L16,4 L8,4 L8,3 Z M8,11 L16,11 L16,12 L8,12 L8,11 Z" id="path-1"></path>
    </defs>
    <g id="Symbols" stroke="none" stroke-width="1" fill="none" fill-rule="evenodd">
        <g id="Icons-/-General-/-16-/-Tasks">
            <mask id="mask-2" fill="white">
                <use xlink:href="#path-1"></use>
            </mask>
            <use id="Combined-Shape" fill="#000000" fill-rule="nonzero" xlink:href="#path-1"></use>
            <g id="Colors-/-Black" mask="url(#mask-2)" fill="#000000">
                <rect id="Rectangle" x="0" y="0" width="16" height="16"></rect>
            </g>
        </g>
    </g>
</svg>