<?xml version="1.0" encoding="UTF-8"?>
<svg width="16px" height="16px" viewBox="0 0 16 16" version="1.1" xmlns="http://www.w3.org/2000/svg" xmlns:xlink="http://www.w3.org/1999/xlink">
    <!-- Generator: sketchtool 54.1 (76490) - https://sketchapp.com -->
    <title>47c15185-6a7a-414f-8e1b-dae8226d31ba@1.00x</title>
    <desc>Created with sketchtool.</desc>
    <defs>
        <path d="M2,4 L3,4 L3,16 L2,16 L2,4 Z M2,15 L14,15 L14,16 L2,16 L2,15 Z M6,2 L6,0 L10,0 L10,2 L15,2 L15,3 L1,3 L1,2 L6,2 Z M7,2 L9,2 L9,1 L7,1 L7,2 Z M13,4 L14,4 L14,16 L13,16 L13,4 Z M6,7 L7,7 L7,12 L6,12 L6,7 Z M9,7 L10,7 L10,12 L9,12 L9,7 Z" id="path-1"></path>
    </defs>
    <g id="Symbols" stroke="none" stroke-width="1" fill="none" fill-rule="evenodd">
        <g id="Icons-/-General-/-16-/-Trash">
            <mask id="mask-2" fill="white">
                <use xlink:href="#path-1"></use>
            </mask>
            <use id="Combined-Shape" fill="#000000" fill-rule="nonzero" xlink:href="#path-1"></use>
            <g id="Colors-/-Black" mask="url(#mask-2)" fill="#000000">
                <rect id="Rectangle" x="0" y="0" width="16" height="16"></rect>
            </g>
        </g>
    </g>
</svg>