<?xml version="1.0" encoding="UTF-8"?>
<svg width="16px" height="16px" viewBox="0 0 16 16" version="1.1" xmlns="http://www.w3.org/2000/svg" xmlns:xlink="http://www.w3.org/1999/xlink">
    <!-- Generator: sketchtool 55.2 (78181) - https://sketchapp.com -->
    <title>b07b6481-df3b-4ab9-a3e3-95ef64564eb3@1.00x</title>
    <desc>Created with sketchtool.</desc>
    <defs>
        <path d="M15,2 L10,2 L10,14 L15,14 L15,2 Z M16,2 L16,15 L9,15 L9,1 L16,1 L16,2 Z M0,3 L7,3 L7,4 L0,4 L0,3 Z M0,6 L7,6 L7,7 L0,7 L0,6 Z M0,9 L7,9 L7,10 L0,10 L0,9 Z M0,12 L7,12 L7,13 L0,13 L0,12 Z" id="path-1"></path>
    </defs>
    <g id="Symbols" stroke="none" stroke-width="1" fill="none" fill-rule="evenodd">
        <g id="Icons-/-Top-Team-/-16-/-UI-Guidelines">
            <mask id="mask-2" fill="white">
                <use xlink:href="#path-1"></use>
            </mask>
            <use id="Combined-Shape" fill="#D8D8D8" xlink:href="#path-1"></use>
            <g id="Colors-/-13-Dark-Grey" mask="url(#mask-2)" fill="#455065">
                <rect id="Rectangle" x="0" y="0" width="16" height="16"></rect>
            </g>
        </g>
    </g>
</svg>
