<?xml version="1.0" encoding="UTF-8"?>
<svg width="16px" height="16px" viewBox="0 0 16 16" version="1.1" xmlns="http://www.w3.org/2000/svg" xmlns:xlink="http://www.w3.org/1999/xlink">
    <!-- Generator: sketchtool 59.1 (101010) - https://sketch.com -->
    <title>e8b47bd6-6136-4ec6-8ef2-fe2e191ce364@1.00x</title>
    <desc>Created with sketchtool.</desc>
    <defs>
        <path d="M13.6035714,2.325 C12.1071429,0.825 10.1142857,0 7.99642857,0 C3.625,0 0.0678571429,3.55714286 0.0678571429,7.92857143 C0.0678571429,9.325 0.432142857,10.6892857 1.125,11.8928571 L0,16 L4.20357143,14.8964286 C5.36071429,15.5285714 6.66428571,15.8607143 7.99285714,15.8607143 L7.99642857,15.8607143 C12.3642857,15.8607143 16,12.3035714 16,7.93214286 C16,5.81428571 15.1,3.825 13.6035714,2.325 Z M7.99642857,14.525 C6.81071429,14.525 5.65,14.2071429 4.63928571,13.6071429 L4.4,13.4642857 L1.90714286,14.1178571 L2.57142857,11.6857143 L2.41428571,11.4357143 C1.75357143,10.3857143 1.40714286,9.175 1.40714286,7.92857143 C1.40714286,4.29642857 4.36428571,1.33928571 8,1.33928571 C9.76071429,1.33928571 11.4142857,2.025 12.6571429,3.27142857 C13.9,4.51785714 14.6642857,6.17142857 14.6607267,7.93214286 C14.6607267,11.5678571 11.6285714,14.525 7.99642857,14.525 Z M11.6107143,9.58928571 C11.4142857,9.48928571 10.4392857,9.01071429 10.2571429,8.94642857 C10.075,8.87857143 9.94285714,8.84642857 9.81071429,9.04642857 C9.67857143,9.24642857 9.3,9.68928571 9.18214286,9.825 C9.06785714,9.95714286 8.95,9.975 8.75357143,9.875 C7.58928571,9.29285714 6.825,8.83571429 6.05714286,7.51785714 C5.85357143,7.16785714 6.26071429,7.19285714 6.63928571,6.43571429 C6.70357143,6.30357143 6.67142857,6.18928571 6.62142857,6.08928571 C6.57142857,5.98928571 6.175,5.01428571 6.01071429,4.61785714 C5.85,4.23214286 5.68571429,4.28571429 5.56428571,4.27857143 C5.45,4.27142857 5.31785714,4.27142857 5.18571429,4.27142857 C5.05357143,4.27142857 4.83928571,4.32142857 4.65714286,4.51785714 C4.475,4.71785714 3.96428571,5.19642857 3.96428571,6.17142857 C3.96428571,7.14642857 4.675,8.08928571 4.77142857,8.22142857 C4.87142857,8.35357143 6.16785714,10.3535714 8.15714286,11.2142857 C9.41428571,11.7571429 9.90714286,11.8035714 10.5357143,11.7107143 C10.9178571,11.6535714 11.7071429,11.2321429 11.8714286,10.7678571 C12.0357143,10.3035714 12.0357143,9.90714286 11.9857143,9.825 C11.9392857,9.73571429 11.8071429,9.68571429 11.6107143,9.58928571 Z" id="path-1"></path>
    </defs>
    <g id="Symbols" stroke="none" stroke-width="1" fill="none" fill-rule="evenodd">
        <g id="Icons-/-Social-Media-/-16-/-WhatsApp">
            <mask id="mask-2" fill="white">
                <use xlink:href="#path-1"></use>
            </mask>
            <use id="Shape" fill="#000000" fill-rule="nonzero" xlink:href="#path-1"></use>
            <g id="Colors-/-305-Dark-Grey" mask="url(#mask-2)" fill="#455065">
                <rect id="Rectangle" x="0" y="0" width="16" height="16"></rect>
            </g>
        </g>
    </g>
</svg>