<?xml version="1.0" encoding="UTF-8"?>
<svg width="24px" height="24px" viewBox="0 0 24 24" version="1.1" xmlns="http://www.w3.org/2000/svg" xmlns:xlink="http://www.w3.org/1999/xlink">
    <!-- Generator: sketchtool 59.1 (101010) - https://sketch.com -->
    <title>c6b26a84-ea2c-4ebc-acec-88cfd180ce82@1.00x</title>
    <desc>Created with sketchtool.</desc>
    <defs>
        <path d="M20.4053571,3.4875 C18.1607143,1.2375 15.1714286,0 11.9946429,0 C5.4375,0 0.101785714,5.33571429 0.101785714,11.8928571 C0.101785714,13.9875 0.648214286,16.0339286 1.6875,17.8392857 L0,24 L6.30535714,22.3446429 C8.04107143,23.2928571 9.99642857,23.7910714 11.9892857,23.7910714 L11.9946429,23.7910714 C18.5464286,23.7910714 24,18.4553571 24,11.8982143 C24,8.72142857 22.65,5.7375 20.4053571,3.4875 Z M11.9946429,21.7875 C10.2160714,21.7875 8.475,21.3107143 6.95892857,20.4107143 L6.6,20.1964286 L2.86071429,21.1767857 L3.85714286,17.5285714 L3.62142857,17.1535714 C2.63035714,15.5785714 2.11071429,13.7625 2.11071429,11.8928571 C2.11071429,6.44464286 6.54642857,2.00892857 12,2.00892857 C14.6410714,2.00892857 17.1214286,3.0375 18.9857143,4.90714286 C20.85,6.77678571 21.9964286,9.25714286 21.9910901,11.8982143 C21.9910901,17.3517857 17.4428571,21.7875 11.9946429,21.7875 Z M17.4160714,14.3839286 C17.1214286,14.2339286 15.6589286,13.5160714 15.3857143,13.4196429 C15.1125,13.3178571 14.9142857,13.2696429 14.7160714,13.5696429 C14.5178571,13.8696429 13.95,14.5339286 13.7732143,14.7375 C13.6017857,14.9357143 13.425,14.9625 13.1303571,14.8125 C11.3839286,13.9392857 10.2375,13.2535714 9.08571429,11.2767857 C8.78035714,10.7517857 9.39107143,10.7892857 9.95892857,9.65357143 C10.0553571,9.45535714 10.0071429,9.28392857 9.93214286,9.13392857 C9.85714286,8.98392857 9.2625,7.52142857 9.01607143,6.92678571 C8.775,6.34821429 8.52857143,6.42857143 8.34642857,6.41785714 C8.175,6.40714286 7.97678571,6.40714286 7.77857143,6.40714286 C7.58035714,6.40714286 7.25892857,6.48214286 6.98571429,6.77678571 C6.7125,7.07678571 5.94642857,7.79464286 5.94642857,9.25714286 C5.94642857,10.7196429 7.0125,12.1339286 7.15714286,12.3321429 C7.30714286,12.5303571 9.25178571,15.5303571 12.2357143,16.8214286 C14.1214286,17.6357143 14.8607143,17.7053571 15.8035714,17.5660714 C16.3767857,17.4803571 17.5607143,16.8482143 17.8071429,16.1517857 C18.0535714,15.4553571 18.0535714,14.8607143 17.9785714,14.7375 C17.9089286,14.6035714 17.7107143,14.5285714 17.4160714,14.3839286 Z" id="path-1"></path>
    </defs>
    <g id="Symbols" stroke="none" stroke-width="1" fill="none" fill-rule="evenodd">
        <g id="Icons-/-Social-Media-/-24-/-WhatsApp">
            <mask id="mask-2" fill="white">
                <use xlink:href="#path-1"></use>
            </mask>
            <use id="Shape" fill="#000000" fill-rule="nonzero" xlink:href="#path-1"></use>
            <g id="Colors-/-305-Dark-Grey" mask="url(#mask-2)" fill="#455065">
                <rect id="Rectangle" x="0" y="0" width="24" height="24"></rect>
            </g>
        </g>
    </g>
</svg>