<?xml version="1.0" encoding="UTF-8"?>
<svg width="16px" height="16px" viewBox="0 0 16 16" version="1.1" xmlns="http://www.w3.org/2000/svg" xmlns:xlink="http://www.w3.org/1999/xlink">
    <title>1735CC1B-BB6E-423F-9AC4-E5C62B5F574E@1x</title>
    <defs>
        <path d="M15,0 L15,16 L1,16 L1,0 L15,0 Z M14,1 L2,1 L2,15 L14,15 L14,1 Z M8,12 L8,13 L4,13 L4,12 L8,12 Z M11,10 L11,11 L4,11 L4,10 L11,10 Z M7,3 L9,8 L8,8 L7.6,7 L5.4,7 L5,8 L4,8 L6,3 L7,3 Z M6.5,4.25 L5.8,6 L7.2,6 L6.5,4.25 Z" id="path-1"></path>
    </defs>
    <g id="Symbols" stroke="none" stroke-width="1" fill="none" fill-rule="evenodd">
        <g id="Icons-/-Documents-/-16-/-White-Paper">
            <mask id="mask-2" fill="white">
                <use xlink:href="#path-1"></use>
            </mask>
            <use id="Combined-Shape" fill="#000000" fill-rule="nonzero" xlink:href="#path-1"></use>
            <g id="Group" mask="url(#mask-2)" fill="#455065">
                <g id="Colors-/-307-Gray-Dark">
                    <rect id="Rectangle" x="0" y="0" width="16" height="16"></rect>
                </g>
            </g>
        </g>
    </g>
</svg>