<?xml version="1.0" encoding="UTF-8"?>
<svg width="24px" height="24px" viewBox="0 0 24 24" version="1.1" xmlns="http://www.w3.org/2000/svg" xmlns:xlink="http://www.w3.org/1999/xlink">
    <title>850C4BD2-B482-49A5-8B28-58B2EEBC749E@1x</title>
    <defs>
        <path d="M22,0 L22,24 L2,24 L2,0 L22,0 Z M21,1 L3,1 L3,23 L21,23 L21,1 Z M12,18 L12,19 L6,19 L6,18 L12,18 Z M16,15 L16,16 L6,16 L6,15 L16,15 Z M10,4 L13,12 L12,12 L11.25,10 L7.75,10 L7,12 L6,12 L9,4 L10,4 Z M9.5,5.333 L8.125,9 L10.875,9 L9.5,5.333 Z" id="path-1"></path>
    </defs>
    <g id="Symbols" stroke="none" stroke-width="1" fill="none" fill-rule="evenodd">
        <g id="Icons-/-Documents-/-24-/-White-Paper">
            <mask id="mask-2" fill="white">
                <use xlink:href="#path-1"></use>
            </mask>
            <use id="Combined-Shape" fill="#000000" fill-rule="nonzero" xlink:href="#path-1"></use>
            <g id="Group" mask="url(#mask-2)" fill="#455065">
                <g id="Colors-/-307-Gray-Dark">
                    <rect id="Rectangle" x="0" y="0" width="24" height="24"></rect>
                </g>
            </g>
        </g>
    </g>
</svg>