<svg width="64" height="64" viewBox="0 0 64 64" fill="none" xmlns="http://www.w3.org/2000/svg">
<g clip-path="url(#clip0_3_11)">
<path opacity="0.15" d="M38.0812 47.9741H25.9188V55.0426H38.0812V47.9741Z" fill="#183A9E"/>
<path opacity="0.15" d="M43.817 17.415L32 24.237V37.882L43.817 31.06V17.415Z" fill="#183A9E"/>
<path d="M61.3271 48.4741H2.67236C1.96384 48.4733 1.28457 48.1915 0.78357 47.6906C0.282573 47.1896 0.000772907 46.5103 0 45.8018L0 2.67236C0.000772907 1.96384 0.282573 1.28457 0.78357 0.78357C1.28457 0.282573 1.96384 0.000772907 2.67236 0L61.3271 0C62.0357 0.000754174 62.7151 0.282532 63.2161 0.783519C63.7172 1.28451 63.9991 1.96379 64 2.67236V45.8018C63.9991 46.5103 63.7172 47.1896 63.2161 47.6906C62.7151 48.1916 62.0357 48.4734 61.3271 48.4741V48.4741ZM2.67236 1C2.22896 1.00043 1.80384 1.17677 1.4903 1.4903C1.17677 1.80384 1.00043 2.22896 1 2.67236V45.8018C1.00043 46.2452 1.17677 46.6703 1.4903 46.9838C1.80384 47.2974 2.22896 47.4737 2.67236 47.4741H61.3271C61.7706 47.4738 62.1959 47.2975 62.5095 46.984C62.8231 46.6704 62.9995 46.2452 63 45.8018V2.67236C62.9995 2.22888 62.8231 1.8037 62.5095 1.49015C62.1959 1.17661 61.7706 1.00033 61.3271 1H2.67236Z" fill="#204ECF"/>
<path d="M38.5811 47.9741H37.5811V59.6011H38.5811V47.9741Z" fill="#204ECF"/>
<path d="M26.4189 47.9741H25.4189V59.6011H26.4189V47.9741Z" fill="#204ECF"/>
<path d="M47.6191 63H16.3813V64H47.6191V63Z" fill="#204ECF"/>
<path d="M32 38.4595L19.6831 31.3481V17.126L32 10.0147L44.3169 17.126V31.3481L32 38.4595ZM20.6831 30.771L32 37.3052L43.3169 30.771V17.7031L32 11.169L20.6831 17.7031V30.771Z" fill="#204ECF"/>
<path d="M32 24.814L19.933 17.848L20.433 16.981L32 23.66L43.567 16.981L44.067 17.848L32 24.814Z" fill="#204ECF"/>
<path d="M32.5 24.2368H31.5V37.8823H32.5V24.2368Z" fill="#204ECF"/>
</g>
<defs>
<clipPath id="clip0_3_11">
<rect width="64.0001" height="64.0001" fill="white"/>
</clipPath>
</defs>
</svg>
