<svg width="64" height="64" viewBox="0 0 64 64" fill="none" xmlns="http://www.w3.org/2000/svg">
<path opacity="0.15" d="M28.2697 52.351H60.6887C61.7745 52.351 62.6276 51.4979 62.6276 50.4121V54.7553C62.6276 55.5697 61.5031 56.2289 60.6887 56.2289H29.6657L28.2697 52.351Z" fill="#183A9E"/>
<path opacity="0.15" d="M3.1799 52.3511H10.6642L9.22938 56.229H3.29623C2.48188 56.229 1.3573 55.5697 1.3573 54.7554V50.9551C1.58997 51.7694 2.32677 52.3511 3.1799 52.3511Z" fill="#183A9E"/>
<path opacity="0.15" d="M6.01074 10.1211C5.81685 10.4313 5.42906 10.664 5.04128 10.664C4.65349 10.664 4.2657 10.4313 4.07181 10.1211C3.83914 10.3538 3.68402 10.7028 3.68402 11.0518C3.68402 11.7886 4.30448 12.409 5.04128 12.409C5.77807 12.409 6.39853 11.7886 6.39853 11.0518C6.39853 10.7028 6.24341 10.3538 6.01074 10.1211Z" fill="#183A9E"/>
<path opacity="0.15" d="M10.2764 10.1211C10.0825 10.4313 9.69469 10.664 9.3069 10.664C8.91911 10.664 8.53133 10.4313 8.33743 10.1211C8.10476 10.3538 7.94965 10.7028 7.94965 11.0518C7.94965 11.7886 8.57011 12.409 9.3069 12.409C10.0437 12.409 10.6642 11.7886 10.6642 11.0518C10.6642 10.7028 10.509 10.3538 10.2764 10.1211Z" fill="#183A9E"/>
<path opacity="0.15" d="M14.5421 10.1211C14.3482 10.4313 13.9604 10.664 13.5726 10.664C13.1848 10.664 12.797 10.4313 12.6031 10.1211C12.3704 10.3538 12.2153 10.7028 12.2153 11.0518C12.2153 11.7886 12.8358 12.409 13.5726 12.409C14.3094 12.409 14.9298 11.7886 14.9298 11.0518C14.9298 10.7028 14.7747 10.3538 14.5421 10.1211Z" fill="#183A9E"/>
<path opacity="0.15" d="M41.0666 17.8384L35.8703 23.0347V30.868L41.0666 36.0644H48.8999L54.0963 30.868V23.0347L48.8999 17.8384H41.0666Z" fill="#183A9E"/>
<path opacity="0.15" d="M27.2615 49.249H13.7665L12.797 53.2044L28.6963 53.1269L27.2615 49.249Z" fill="#183A9E"/>
<path opacity="0.15" d="M24.1204 40.7178H15.9769L14.9686 44.5956H25.5552L24.1204 40.7178Z" fill="#183A9E"/>
<path opacity="0.15" d="M20.9018 31.9922H18.1873L17.179 36.064H22.4141L20.9018 31.9922Z" fill="#183A9E"/>
<path opacity="0.15" d="M10.5866 61.852H31.8761L30.4025 57.7803H11.6336L10.5866 61.852Z" fill="#183A9E"/>
<path fill-rule="evenodd" clip-rule="evenodd" d="M29.5882 55.5352H42.8505V56.5352H29.5882V55.5352Z" fill="#204ECF"/>
<path fill-rule="evenodd" clip-rule="evenodd" d="M3.10233 6.51074C2.29266 6.51074 1.66339 7.14002 1.66339 7.94968V54.0963C1.66339 54.906 2.29266 55.5353 3.10233 55.5353H7.36798V56.5353H3.10233C1.74038 56.5353 0.663391 55.4583 0.663391 54.0963V7.94968C0.663391 6.58773 1.74038 5.51074 3.10233 5.51074H60.8826C62.2445 5.51074 63.3215 6.58773 63.3215 7.94968V54.0963C63.3215 55.4583 62.2445 56.5353 60.8826 56.5353H45.1772V55.5353H60.8826C61.6922 55.5353 62.3215 54.906 62.3215 54.0963V7.94968C62.3215 7.14002 61.6922 6.51074 60.8826 6.51074H3.10233Z" fill="#204ECF"/>
<path fill-rule="evenodd" clip-rule="evenodd" d="M5.04129 8.8374C4.67493 8.8374 4.37793 9.1344 4.37793 9.50076C4.37793 9.86713 4.67493 10.1641 5.04129 10.1641C5.40765 10.1641 5.70465 9.86713 5.70465 9.50076C5.70465 9.1344 5.40765 8.8374 5.04129 8.8374ZM3.37793 9.50076C3.37793 8.58211 4.12264 7.8374 5.04129 7.8374C5.95994 7.8374 6.70465 8.58211 6.70465 9.50076C6.70465 10.4194 5.95994 11.1641 5.04129 11.1641C4.12264 11.1641 3.37793 10.4194 3.37793 9.50076Z" fill="#204ECF"/>
<path fill-rule="evenodd" clip-rule="evenodd" d="M9.30692 8.8374C8.94055 8.8374 8.64355 9.1344 8.64355 9.50076C8.64355 9.86713 8.94055 10.1641 9.30692 10.1641C9.67328 10.1641 9.97028 9.86713 9.97028 9.50076C9.97028 9.1344 9.67328 8.8374 9.30692 8.8374ZM7.64355 9.50076C7.64355 8.58211 8.38827 7.8374 9.30692 7.8374C10.2256 7.8374 10.9703 8.58211 10.9703 9.50076C10.9703 10.4194 10.2256 11.1641 9.30692 11.1641C8.38827 11.1641 7.64355 10.4194 7.64355 9.50076Z" fill="#204ECF"/>
<path fill-rule="evenodd" clip-rule="evenodd" d="M13.5726 8.8374C13.2062 8.8374 12.9092 9.1344 12.9092 9.50076C12.9092 9.86713 13.2062 10.1641 13.5726 10.1641C13.939 10.1641 14.236 9.86713 14.236 9.50076C14.236 9.1344 13.939 8.8374 13.5726 8.8374ZM11.9092 9.50076C11.9092 8.58211 12.654 7.8374 13.5726 7.8374C14.4913 7.8374 15.236 8.58211 15.236 9.50076C15.236 10.4194 14.4913 11.1641 13.5726 11.1641C12.654 11.1641 11.9092 10.4194 11.9092 9.50076Z" fill="#204ECF"/>
<path fill-rule="evenodd" clip-rule="evenodd" d="M5.23517 61.3521H34.1253V62.3521H5.23517V61.3521Z" fill="#204ECF"/>
<path fill-rule="evenodd" clip-rule="evenodd" d="M17.8383 31.4922H21.2507L32.3455 61.6793L31.4068 62.0243L20.5528 32.4922H18.5362L7.6822 62.0243L6.74359 61.6793L17.8383 31.4922Z" fill="#204ECF"/>
<path fill-rule="evenodd" clip-rule="evenodd" d="M40.1228 15.5933H49.8439L56.3414 22.0907V31.8118L49.8439 38.3093H40.1228L33.6253 31.8118V22.0907L40.1228 15.5933ZM40.537 16.5933L34.6253 22.505V31.3976L40.537 37.3093H49.4297L55.3414 31.3976V22.505L49.4297 16.5933H40.537Z" fill="#204ECF"/>
<path fill-rule="evenodd" clip-rule="evenodd" d="M40.0079 23.3491H41.2177V28.0026H41.6871V29.0026H41.2177V30.2476H40.2177V29.0026H37.8909V28.0065L40.0079 23.3491ZM40.2177 28.0026V25.3043L38.9912 28.0026H40.2177Z" fill="#204ECF"/>
<path fill-rule="evenodd" clip-rule="evenodd" d="M50.4782 23.3491H51.6879V28.0026H52.1574V29.0026H51.6879V30.2476H50.6879V29.0026H48.3612V28.0065L50.4782 23.3491ZM50.6879 28.0026V25.3043L49.4614 28.0026H50.6879Z" fill="#204ECF"/>
<path fill-rule="evenodd" clip-rule="evenodd" d="M45.1772 24.3491C44.4839 24.3491 43.9322 24.9008 43.9322 25.5942V28.3087C43.9322 29.002 44.4839 29.5537 45.1772 29.5537C45.8706 29.5537 46.4223 29.002 46.4223 28.3087V25.5942C46.4223 24.9008 45.8706 24.3491 45.1772 24.3491ZM42.9322 25.5942C42.9322 24.3486 43.9316 23.3491 45.1772 23.3491C46.4228 23.3491 47.4223 24.3486 47.4223 25.5942V28.3087C47.4223 29.5543 46.4228 30.5537 45.1772 30.5537C43.9316 30.5537 42.9322 29.5543 42.9322 28.3087V25.5942Z" fill="#204ECF"/>
<path fill-rule="evenodd" clip-rule="evenodd" d="M44.4833 61.6579V38.0029H45.4833V61.6579H44.4833Z" fill="#204ECF"/>
<path fill-rule="evenodd" clip-rule="evenodd" d="M38.3909 61.3521H51.5757V62.3521H38.3909V61.3521Z" fill="#204ECF"/>
</svg>
