<svg width="64" height="64" viewBox="0 0 64 64" fill="none" xmlns="http://www.w3.org/2000/svg">
<path opacity="0.3" d="M28.2697 52.351H60.6887C61.7745 52.351 62.6276 51.4979 62.6276 50.4121V54.7553C62.6276 55.5697 61.5031 56.2289 60.6887 56.2289H29.6657L28.2697 52.351Z" fill="#231F20"/>
<path opacity="0.3" d="M3.1799 52.3511H10.6642L9.22938 56.229H3.29623C2.48188 56.229 1.3573 55.5697 1.3573 54.7554V50.9551C1.58997 51.7694 2.32677 52.3511 3.1799 52.3511Z" fill="#231F20"/>
<path opacity="0.3" d="M6.01074 10.1211C5.81685 10.4313 5.42906 10.664 5.04128 10.664C4.65349 10.664 4.2657 10.4313 4.07181 10.1211C3.83914 10.3538 3.68402 10.7028 3.68402 11.0518C3.68402 11.7886 4.30448 12.409 5.04128 12.409C5.77807 12.409 6.39853 11.7886 6.39853 11.0518C6.39853 10.7028 6.24341 10.3538 6.01074 10.1211Z" fill="#231F20"/>
<path opacity="0.3" d="M10.2764 10.1211C10.0825 10.4313 9.69469 10.664 9.3069 10.664C8.91911 10.664 8.53133 10.4313 8.33743 10.1211C8.10476 10.3538 7.94965 10.7028 7.94965 11.0518C7.94965 11.7886 8.57011 12.409 9.3069 12.409C10.0437 12.409 10.6642 11.7886 10.6642 11.0518C10.6642 10.7028 10.509 10.3538 10.2764 10.1211Z" fill="#231F20"/>
<path opacity="0.3" d="M14.5421 10.1211C14.3482 10.4313 13.9604 10.664 13.5726 10.664C13.1848 10.664 12.797 10.4313 12.6031 10.1211C12.3704 10.3538 12.2153 10.7028 12.2153 11.0518C12.2153 11.7886 12.8358 12.409 13.5726 12.409C14.3094 12.409 14.9298 11.7886 14.9298 11.0518C14.9298 10.7028 14.7747 10.3538 14.5421 10.1211Z" fill="#231F20"/>
<path opacity="0.3" d="M41.3975 18.3198L36.2 23.5173V31.3523L41.3975 36.5498H49.2325L54.43 31.3523V23.5173L49.2325 18.3198H41.3975Z" fill="#231F20"/>
<path opacity="0.3" d="M27.2615 49.249H13.7665L12.797 53.2044L28.6963 53.1269L27.2615 49.249Z" fill="#231F20"/>
<path opacity="0.3" d="M24.1203 40.7178H15.9768L14.9686 44.5956H25.5552L24.1203 40.7178Z" fill="#231F20"/>
<path opacity="0.3" d="M20.9017 31.9922H18.1872L17.179 36.064H22.4141L20.9017 31.9922Z" fill="#231F20"/>
<path opacity="0.3" d="M10.5866 61.852H31.8761L30.4025 57.7803H11.6336L10.5866 61.852Z" fill="#231F20"/>
<path fill-rule="evenodd" clip-rule="evenodd" d="M29.9248 56.0244H43.1871V57.0244H29.9248V56.0244Z" fill="white"/>
<path fill-rule="evenodd" clip-rule="evenodd" d="M3.43893 7C2.62927 7 2 7.62927 2 8.43893V54.5856C2 55.3952 2.62927 56.0245 3.43893 56.0245H7.70459V57.0245H3.43893C2.07699 57.0245 1 55.9475 1 54.5856V8.43893C1 7.07699 2.07699 6 3.43893 6H61.2192C62.5811 6 63.6581 7.07699 63.6581 8.43893V54.5856C63.6581 55.9475 62.5811 57.0245 61.2192 57.0245H45.5138V56.0245H61.2192C62.0289 56.0245 62.6581 55.3952 62.6581 54.5856V8.43893C62.6581 7.62927 62.0289 7 61.2192 7H3.43893Z" fill="white"/>
<path fill-rule="evenodd" clip-rule="evenodd" d="M5.04123 8.8374C4.67487 8.8374 4.37787 9.1344 4.37787 9.50076C4.37787 9.86713 4.67487 10.1641 5.04123 10.1641C5.40759 10.1641 5.70459 9.86713 5.70459 9.50076C5.70459 9.1344 5.40759 8.8374 5.04123 8.8374ZM3.37787 9.50076C3.37787 8.58211 4.12258 7.8374 5.04123 7.8374C5.95988 7.8374 6.70459 8.58211 6.70459 9.50076C6.70459 10.4194 5.95988 11.1641 5.04123 11.1641C4.12258 11.1641 3.37787 10.4194 3.37787 9.50076Z" fill="white"/>
<path fill-rule="evenodd" clip-rule="evenodd" d="M9.30692 8.8374C8.94055 8.8374 8.64355 9.1344 8.64355 9.50076C8.64355 9.86713 8.94055 10.1641 9.30692 10.1641C9.67328 10.1641 9.97028 9.86713 9.97028 9.50076C9.97028 9.1344 9.67328 8.8374 9.30692 8.8374ZM7.64355 9.50076C7.64355 8.58211 8.38827 7.8374 9.30692 7.8374C10.2256 7.8374 10.9703 8.58211 10.9703 9.50076C10.9703 10.4194 10.2256 11.1641 9.30692 11.1641C8.38827 11.1641 7.64355 10.4194 7.64355 9.50076Z" fill="white"/>
<path fill-rule="evenodd" clip-rule="evenodd" d="M13.5725 8.8374C13.2062 8.8374 12.9092 9.1344 12.9092 9.50076C12.9092 9.86713 13.2062 10.1641 13.5725 10.1641C13.9389 10.1641 14.2359 9.86713 14.2359 9.50076C14.2359 9.1344 13.9389 8.8374 13.5725 8.8374ZM11.9092 9.50076C11.9092 8.58211 12.6539 7.8374 13.5725 7.8374C14.4912 7.8374 15.2359 8.58211 15.2359 9.50076C15.2359 10.4194 14.4912 11.1641 13.5725 11.1641C12.6539 11.1641 11.9092 10.4194 11.9092 9.50076Z" fill="white"/>
<path fill-rule="evenodd" clip-rule="evenodd" d="M5.23517 61.3521H34.1253V62.3521H5.23517V61.3521Z" fill="white"/>
<path fill-rule="evenodd" clip-rule="evenodd" d="M18.1749 31.9814H21.5873L32.6821 62.1686L31.7435 62.5135L20.8895 32.9814H18.8728L8.01881 62.5135L7.0802 62.1686L18.1749 31.9814Z" fill="white"/>
<path fill-rule="evenodd" clip-rule="evenodd" d="M40.4594 16.0825H50.1805L56.678 22.58V32.3011L50.1805 38.7986H40.4594L33.9619 32.3011V22.58L40.4594 16.0825ZM40.8736 17.0825L34.9619 22.9942V31.8869L40.8736 37.7986H49.7663L55.678 31.8869V22.9942L49.7663 17.0825H40.8736Z" fill="white"/>
<path fill-rule="evenodd" clip-rule="evenodd" d="M40.0079 23.3491H41.2177V28.0026H41.6871V29.0026H41.2177V30.2476H40.2177V29.0026H37.8909V28.0065L40.0079 23.3491ZM40.2177 28.0026V25.3043L38.9912 28.0026H40.2177Z" fill="white"/>
<path fill-rule="evenodd" clip-rule="evenodd" d="M50.4782 23.3491H51.6879V28.0026H52.1574V29.0026H51.6879V30.2476H50.6879V29.0026H48.3612V28.0065L50.4782 23.3491ZM50.6879 28.0026V25.3043L49.4614 28.0026H50.6879Z" fill="white"/>
<path fill-rule="evenodd" clip-rule="evenodd" d="M45.1772 24.3491C44.4839 24.3491 43.9322 24.9008 43.9322 25.5942V28.3087C43.9322 29.002 44.4839 29.5537 45.1772 29.5537C45.8706 29.5537 46.4223 29.002 46.4223 28.3087V25.5942C46.4223 24.9008 45.8706 24.3491 45.1772 24.3491ZM42.9322 25.5942C42.9322 24.3486 43.9316 23.3491 45.1772 23.3491C46.4228 23.3491 47.4223 24.3486 47.4223 25.5942V28.3087C47.4223 29.5543 46.4228 30.5537 45.1772 30.5537C43.9316 30.5537 42.9322 29.5543 42.9322 28.3087V25.5942Z" fill="white"/>
<path fill-rule="evenodd" clip-rule="evenodd" d="M44.4833 61.6579V38.0029H45.4833V61.6579H44.4833Z" fill="white"/>
<path fill-rule="evenodd" clip-rule="evenodd" d="M38.3909 61.3521H51.5757V62.3521H38.3909V61.3521Z" fill="white"/>
</svg>
