<svg width="64" height="65" viewBox="0 0 64 65" fill="none" xmlns="http://www.w3.org/2000/svg">
<g clip-path="url(#clip0_3_120)">
<path opacity="0.3" d="M26.3751 0.5V11.9364C30.825 13.0827 34.7676 15.6759 37.5825 19.3079C40.3975 22.94 41.9251 27.4048 41.9251 32C41.9251 36.5952 40.3975 41.06 37.5825 44.6921C34.7676 48.3241 30.825 50.9173 26.3751 52.0636V57.3125H49.4376V6.68751L63.3326 0.59381L26.3751 0.5Z" fill="#231F20"/>
<path d="M64 57.313H63V1H26.875V11.936H25.875V0H64V57.313Z" fill="white"/>
<path d="M49.438 57.813H25.875V52.064H26.875V56.813H49.438V57.813Z" fill="white"/>
<path d="M48.9376 64.2661V6.36084L63.1319 0.13574C63.2209 0.0930019 63.3192 0.0731219 63.4179 0.0778971C63.5165 0.0826723 63.6124 0.111952 63.6969 0.16309C63.789 0.217306 63.8654 0.294581 63.9186 0.387305C63.9717 0.480029 63.9998 0.585003 64.0001 0.69189V57.6387L48.9376 64.2661ZM49.9376 7.01416V62.7339L63.0001 56.9863V1.2832L49.9376 7.01416ZM63.5777 1.02979L63.5084 1.06006C63.5323 1.05201 63.5555 1.04188 63.5777 1.02979V1.02979Z" fill="white"/>
<path d="M21.2125 53.2124C17.0171 53.2124 12.9159 51.9683 9.42752 49.6375C5.93916 47.3066 3.22032 43.9937 1.6148 40.1176C0.00928259 36.2416 -0.410794 31.9765 0.407691 27.8617C1.22618 23.7469 3.24646 19.9672 6.21307 17.0006C9.17968 14.034 12.9594 12.0137 17.0742 11.1952C21.189 10.3767 25.4541 10.7968 29.3301 12.4023C33.2062 14.0078 36.5191 16.7267 38.85 20.215C41.1808 23.7034 42.4249 27.8046 42.4249 32C42.4186 37.6239 40.1817 43.0158 36.205 46.9925C32.2283 50.9692 26.8365 53.2061 21.2125 53.2124V53.2124ZM21.2125 11.7876C17.2149 11.7876 13.307 12.973 9.98309 15.194C6.65918 17.415 4.06851 20.5717 2.53868 24.265C1.00885 27.9584 0.608577 32.0224 1.38848 35.9432C2.16838 39.8641 4.09342 43.4656 6.92018 46.2923C9.74693 49.1191 13.3484 51.0441 17.2693 51.824C21.1901 52.6039 25.2541 52.2037 28.9475 50.6738C32.6408 49.144 35.7975 46.5533 38.0185 43.2294C40.2395 39.9055 41.4249 35.9976 41.4249 32C41.4188 26.6412 39.2873 21.5037 35.4981 17.7144C31.7088 13.9252 26.5713 11.7937 21.2125 11.7876V11.7876Z" fill="white"/>
<path d="M26.7217 25.7841L14.9968 37.5089L15.7038 38.2159L27.4287 26.4911L26.7217 25.7841Z" fill="white"/>
<path d="M15.7037 25.7842L14.9967 26.4912L26.7218 38.2158L27.4288 37.5088L15.7037 25.7842Z" fill="white"/>
</g>
<defs>
<clipPath id="clip0_3_120">
<rect width="64.0001" height="64.2661" fill="white"/>
</clipPath>
</defs>
</svg>
