<svg width="64" height="64" viewBox="0 0 64 64" fill="none" xmlns="http://www.w3.org/2000/svg">
<g clip-path="url(#clip0_3_158)">
<path opacity="0.3" d="M37.225 57.944H26.775L24.725 63.5H39.275L37.225 57.944Z" fill="#231F20"/>
<path opacity="0.3" d="M15.4054 40.8384V57.9444H22.8865V22.3043C22.8514 29.2111 20.1747 35.8426 15.4054 40.8384V40.8384Z" fill="#231F20"/>
<path opacity="0.3" d="M48.5947 40.8384V57.9444H41.1136V22.3043C41.1487 29.2111 43.8255 35.8426 48.5947 40.8384V40.8384Z" fill="#231F20"/>
<path d="M40.5118 63.9999H23.4884L25.6783 58.5688H5.43124V58.0688C5.44415 55.1469 6.09669 52.2633 7.34303 49.6205C8.58938 46.9778 10.3993 44.64 12.6456 42.7714C15.6645 40.2774 18.1008 37.1528 19.7836 33.617C21.4664 30.0811 22.3547 26.2198 22.3863 22.3041V18.1537C22.3995 12.9846 23.6997 7.90018 26.1695 3.3593C26.7619 2.33771 27.6124 1.48971 28.6357 0.900216C29.6589 0.310726 30.8192 0.000442505 32.0001 0.000442505C33.181 0.000442505 34.3412 0.310726 35.3645 0.900216C36.3878 1.48971 37.2382 2.33771 37.8307 3.3593C40.3005 7.90018 41.6007 12.9846 41.6139 18.1537V22.3041C41.6455 26.2198 42.5338 30.0811 44.2166 33.617C45.8993 37.1528 48.3357 40.2774 51.3546 42.7714C53.6009 44.64 55.4108 46.9778 56.6571 49.6205C57.9035 52.2633 58.556 55.1469 58.5689 58.0688V58.5688H38.3219L40.5118 63.9999ZM24.9698 62.9999H39.0304L36.8404 57.5688H57.5621C57.4771 54.8782 56.8224 52.2363 55.6413 49.8174C54.4602 47.3985 52.7795 45.2576 50.7101 43.5361C47.5797 40.9483 45.0538 37.7066 43.3096 34.0387C41.5654 30.3708 40.6453 26.3655 40.6139 22.3041V18.1537C40.6009 13.1511 39.3423 8.23042 36.9518 3.83586C36.4452 2.97263 35.7217 2.25682 34.8532 1.75945C33.9846 1.26208 33.0011 1.00042 32.0001 1.00042C30.9992 1.00042 30.0157 1.26208 29.1471 1.75945C28.2785 2.25682 27.5551 2.97263 27.0485 3.83586C24.658 8.23041 23.3994 13.1511 23.3864 18.1537V22.3041C23.355 26.3655 22.4349 30.3708 20.6907 34.0387C18.9465 37.7066 16.4206 40.9483 13.2902 43.5361C11.2208 45.2576 9.54009 47.3985 8.35897 49.8174C7.17784 52.2363 6.52318 54.8782 6.43817 57.5688H27.1598L24.9698 62.9999Z" fill="white"/>
<path d="M37.2247 57.5688H26.7755V58.5688H37.2247V57.5688Z" fill="white"/>
<path d="M32.5001 44.0556H31.5001V58.0688H32.5001V44.0556Z" fill="white"/>
<path d="M23.3863 22.3041H22.3863V44.0556H23.3863V22.3041Z" fill="white"/>
<path d="M41.6139 22.3041H40.6139V44.0556H41.6139V22.3041Z" fill="white"/>
<path d="M35.9225 10.433H34.9225C34.9232 10.0488 34.8481 9.66818 34.7016 9.313C34.555 8.95782 34.3399 8.63502 34.0684 8.36308C33.797 8.09114 33.4746 7.8754 33.1197 7.72819C32.7648 7.58099 32.3843 7.50522 32.0001 7.50522C31.6159 7.50522 31.2354 7.58099 30.8805 7.72819C30.5256 7.8754 30.2032 8.09114 29.9318 8.36308C29.6603 8.63502 29.4452 8.95782 29.2986 9.313C29.1521 9.66818 29.077 10.0488 29.0777 10.433H28.0777C28.0769 9.91738 28.1778 9.40666 28.3745 8.93005C28.5713 8.45345 28.86 8.02031 29.2244 7.65542C29.5887 7.29053 30.0213 7.00105 30.4976 6.80354C30.9739 6.60603 31.4845 6.50437 32.0001 6.50437C32.5157 6.50437 33.0263 6.60603 33.5026 6.80354C33.9789 7.00105 34.4115 7.29053 34.7758 7.65542C35.1402 8.02031 35.4289 8.45345 35.6257 8.93005C35.8224 9.40666 35.9233 9.91738 35.9225 10.433V10.433Z" fill="white"/>
</g>
<defs>
<clipPath id="clip0_3_158">
<rect width="64" height="64" fill="white"/>
</clipPath>
</defs>
</svg>
