<svg width="64" height="64" viewBox="0 0 64 64" fill="none" xmlns="http://www.w3.org/2000/svg">
<g clip-path="url(#clip0_3_171)">
<path opacity="0.15" d="M32 13.4475C35.9177 13.4481 39.7347 14.6885 42.9044 16.9911C46.074 19.2937 48.4335 22.5404 49.6451 26.2661L56.8013 27.3435L61.9587 22.2633C59.9015 15.9378 55.8952 10.4257 50.5137 6.51639C45.1322 2.60706 38.6516 0.501093 32 0.500111L35.2369 6.9738L32 13.4475Z" fill="#183A9E"/>
<path opacity="0.15" d="M63.5 32.0001C63.5011 28.6937 62.9809 25.4077 61.9587 22.2633L56.8013 27.3435L49.6451 26.2661C50.8553 29.9917 50.8551 34.0048 49.6446 37.7303C48.434 41.4558 46.0752 44.7024 42.9062 47.0051L44.094 54.148L50.5133 57.4794C54.5376 54.561 57.8128 50.7302 60.0702 46.3012C62.3276 41.8722 63.503 36.9712 63.5 32.0001V32.0001Z" fill="#183A9E"/>
<path opacity="0.15" d="M42.9062 47.005C39.7384 49.3098 35.9218 50.5518 32.0042 50.5527C28.0866 50.5536 24.2695 49.3133 21.1007 47.0099L14.6746 50.3473L13.4902 57.4819C18.8699 61.3937 25.3506 63.5005 32.0022 63.5001C38.6537 63.4996 45.1342 61.3919 50.5133 57.4794L44.094 54.148L42.9062 47.005Z" fill="#183A9E"/>
<path d="M56.9746 27.8751L49.2656 26.7145L49.1699 26.4205C47.9979 22.7909 45.7037 19.6272 42.6179 17.3855C39.5321 15.1438 35.8141 13.9399 32 13.9474H31.1914L34.6787 6.97373L31.1914 0.000101474H32C38.7606 -0.0129501 45.3508 2.12104 50.8205 6.09447C56.2902 10.0679 60.357 15.6755 62.4346 22.109L62.5303 22.4025L56.9746 27.8751ZM50.0225 25.8175L56.6289 26.8116L61.3867 22.1251C59.3733 16.0948 55.5496 10.8319 50.4367 7.05351C45.3237 3.27515 39.1701 1.16508 32.8144 1.01084L35.7959 6.97373L32.8008 12.964C36.6334 13.1173 40.3299 14.4273 43.4038 16.7215C46.4777 19.0158 48.7852 22.1868 50.0225 25.8175V25.8175Z" fill="#204ECF"/>
<path d="M14.5791 27.1944L9.02344 21.7252L1.31244 22.8888L1.56244 22.1192C3.63792 15.6831 7.70426 10.0725 13.1748 6.09703C18.6454 2.12153 25.2375 -0.0134468 32 9.83882e-05H32.3086L35.7959 6.97373L32.3086 13.9474H32C28.1851 13.9395 24.4663 15.1438 21.3801 17.3864C18.2939 19.629 15.9999 22.7941 14.8291 26.4249L14.5791 27.1944ZM9.3691 20.6617L14.1406 25.3595C15.4705 21.7608 17.8588 18.6492 20.9912 16.4341C24.1236 14.219 27.8533 13.0043 31.6894 12.9498L34.6787 6.97373L31.6914 1.00156C25.3321 1.05187 19.1431 3.06228 13.9682 6.75869C8.79332 10.4551 4.8844 15.6576 2.77441 21.6568L9.3691 20.6617Z" fill="#204ECF"/>
<path d="M13.8506 58.3629L13.1963 57.8863C7.72913 53.9165 3.65898 48.3178 1.5691 41.8927C-0.520769 35.4675 -0.523088 28.5458 1.56248 22.1192L1.6582 21.8252L9.36914 20.6617L14.9248 26.131L14.8291 26.425C13.6521 30.0511 13.6534 33.9568 14.8328 37.5821C16.0122 41.2074 18.3092 44.3662 21.3945 46.6057L22.0488 47.0812L15.127 50.6759L13.8506 58.3629ZM2.41992 22.7218C0.51888 28.7843 0.526906 35.2846 2.44291 41.3424C4.35892 47.4002 8.09033 52.7228 13.1318 56.5895L14.2227 50.0187L20.1699 46.9298C17.1645 44.5496 14.9471 41.318 13.8078 37.6574C12.6685 33.9968 12.6603 30.0776 13.7842 26.4122L9.02344 21.7252L2.41992 22.7218Z" fill="#204ECF"/>
<path d="M50.5576 58.066L43.6416 54.4767L42.3623 46.7823L42.6123 46.6007C45.6958 44.36 47.991 41.2008 49.169 37.5758C50.347 33.9507 50.3473 30.0458 49.1699 26.4205L48.9209 25.6515L56.6289 26.8117L62.1846 21.3395L62.4346 22.109C64.5223 28.5359 64.5218 35.4588 62.4331 41.8854C60.3444 48.312 56.2748 53.9124 50.8076 57.8839L50.5576 58.066ZM44.5459 53.8194L50.4678 56.8927C55.572 53.1072 59.3894 47.8444 61.4029 41.8171C63.4164 35.7897 63.5287 29.2892 61.7246 23.1959L56.9746 27.8751L50.3525 26.878C51.3821 30.5703 51.2741 34.4873 50.0425 38.1173C48.8109 41.7472 46.5131 44.9213 43.4492 47.2247L44.5459 53.8194Z" fill="#204ECF"/>
<path d="M32 64.0001C25.2412 64.0151 18.6539 61.8733 13.1963 57.8863L12.9463 57.7047L14.2227 50.0187L21.1445 46.4235L21.3945 46.6056C24.478 48.8469 28.1922 50.0537 32.0042 50.0529C35.8162 50.052 39.5299 48.8435 42.6123 46.6007L43.2666 46.1242L44.5459 53.8195L51.4619 57.4083L50.8076 57.8839C45.3492 61.8725 38.7604 64.0151 32 64.0001V64.0001ZM14.0342 57.2579C19.2107 60.9433 25.3954 62.9476 31.7496 62.9991C38.1038 63.0505 44.3201 61.1466 49.5557 57.5455L43.6416 54.4767L42.543 47.8678C39.3507 49.9904 35.5919 51.1 31.7586 51.0513C27.9253 51.0026 24.196 49.7978 21.0586 47.5948L15.127 50.6759L14.0342 57.2579Z" fill="#204ECF"/>
</g>
<defs>
<clipPath id="clip0_3_171">
<rect width="64.0003" height="64.0001" fill="white"/>
</clipPath>
</defs>
</svg>
