<svg width="64" height="65" viewBox="0 0 64 64" fill="none" xmlns="http://www.w3.org/2000/svg">
<g clip-path="url(#clip0_6_39)">
<path opacity="0.15" d="M60.745 17.0589C60.745 20.2524 59.4764 23.3152 57.2183 25.5733C54.9601 27.8315 51.8973 29.1002 48.7038 29.1002C48.7038 25.9066 49.9724 22.8439 52.2306 20.5857C54.4888 18.3275 57.5515 17.0589 60.745 17.0589V17.0589Z" fill="#183A9E"/>
<path opacity="0.15" d="M60.745 31.0075C60.745 34.2011 59.4764 37.2638 57.2182 39.522C54.96 41.7802 51.8973 43.0488 48.7037 43.0488C48.7037 39.8553 49.9724 36.7925 52.2306 34.5344C54.4887 32.2762 57.5515 31.0075 60.745 31.0075V31.0075Z" fill="#183A9E"/>
<path opacity="0.15" d="M60.745 44.9562C60.745 48.1497 59.4764 51.2125 57.2183 53.4706C54.9601 55.7288 51.8973 56.9975 48.7038 56.9975C48.7038 53.8039 49.9724 50.7412 52.2306 48.483C54.4888 46.2248 57.5515 44.9562 60.745 44.9562V44.9562Z" fill="#183A9E"/>
<path opacity="0.15" d="M27.3378 44.9562C27.3378 48.1497 26.0691 51.2125 23.811 53.4706C21.5528 55.7288 18.4901 56.9975 15.2965 56.9975C15.2965 53.8039 16.5651 50.7412 18.8233 48.483C21.0815 46.2248 24.1442 44.9562 27.3378 44.9562V44.9562Z" fill="#183A9E"/>
<path opacity="0.15" d="M27.3377 31.0075C27.3377 34.2011 26.0691 37.2638 23.8109 39.522C21.5527 41.7802 18.49 43.0488 15.2964 43.0488C15.2965 39.8553 16.5651 36.7925 18.8233 34.5344C21.0814 32.2762 24.1442 31.0075 27.3377 31.0075V31.0075Z" fill="#183A9E"/>
<path opacity="0.15" d="M27.3378 17.0589C27.3378 20.2524 26.0691 23.3152 23.811 25.5733C21.5528 27.8315 18.4901 29.1002 15.2965 29.1002C15.2965 25.9066 16.5651 22.8439 18.8233 20.5857C21.0815 18.3275 24.1442 17.0589 27.3378 17.0589V17.0589Z" fill="#183A9E"/>
<path d="M49.2037 29.6001H48.7037C45.3788 29.5963 42.1912 28.2738 39.8401 25.9227C37.489 23.5717 36.1665 20.384 36.1627 17.0591V16.5591H36.6627C39.9876 16.5629 43.1753 17.8854 45.5264 20.2365C47.8774 22.5875 49.1999 25.7752 49.2037 29.1001V29.6001ZM37.1739 17.5703C37.3051 20.4504 38.5081 23.1774 40.5467 25.2161C42.5854 27.2547 45.3124 28.4577 48.1925 28.5889C48.0613 25.7088 46.8583 22.9818 44.8197 20.9431C42.781 18.9045 40.054 17.7015 37.1739 17.5703V17.5703Z" fill="#204ECF"/>
<path d="M48.7037 29.6001H48.2037V29.1001C48.2076 25.7751 49.5301 22.5874 51.8813 20.2363C54.2325 17.8852 57.4202 16.5628 60.7452 16.5591H61.2452V17.0591C61.2414 20.3841 59.9188 23.5718 57.5677 25.9229C55.2165 28.274 52.0287 29.5964 48.7037 29.6001ZM60.234 17.5703C57.3539 17.7015 54.6268 18.9045 52.5881 20.9431C50.5494 22.9817 49.3463 25.7087 49.215 28.5889C52.0952 28.4577 54.8222 27.2547 56.861 25.2161C58.8997 23.1775 60.1027 20.4504 60.234 17.5703V17.5703Z" fill="#204ECF"/>
<path d="M49.2037 43.5488H48.7037C45.3787 43.545 42.191 42.2224 39.8399 39.8713C37.4889 37.5201 36.1664 34.3323 36.1627 31.0073V30.5073H36.6627C39.9877 30.5111 43.1754 31.8337 45.5265 34.1849C47.8776 36.5361 49.2 39.7238 49.2037 43.0488V43.5488ZM37.1739 31.5186C37.3051 34.3987 38.5081 37.1258 40.5467 39.1645C42.5853 41.2032 45.3124 42.4063 48.1925 42.5376C48.0613 39.6574 46.8583 36.9303 44.8197 34.8916C42.7811 32.8529 40.0541 31.6498 37.1739 31.5186V31.5186Z" fill="#204ECF"/>
<path d="M48.7037 43.5488H48.2037V43.0488C48.2075 39.7238 49.53 36.5359 51.8812 34.1848C54.2323 31.8336 57.4202 30.511 60.7452 30.5073H61.2452V31.0073C61.2415 34.3324 59.919 37.5202 57.5678 39.8714C55.2166 42.2226 52.0288 43.5451 48.7037 43.5488V43.5488ZM60.234 31.5186C57.3539 31.6498 54.6268 32.8529 52.5881 34.8916C50.5494 36.9303 49.3463 39.6574 49.215 42.5376C52.0952 42.4063 54.8223 41.2032 56.861 39.1645C58.8997 37.1258 60.1027 34.3987 60.234 31.5186V31.5186Z" fill="#204ECF"/>
<path d="M49.2037 57.4976H48.7037C45.3787 57.4937 42.191 56.1712 39.8399 53.82C37.4889 51.4688 36.1664 48.281 36.1627 44.9561V44.4561H36.6627C39.9877 44.4599 43.1754 45.7825 45.5265 48.1336C47.8776 50.4848 49.2 53.6726 49.2037 56.9976V57.4976ZM37.1739 45.4673C37.3051 48.3474 38.5081 51.0745 40.5467 53.1132C42.5853 55.1519 45.3124 56.355 48.1925 56.4863C48.0613 53.6062 46.8583 50.8791 44.8197 48.8404C42.7811 46.8017 40.0541 45.5986 37.1739 45.4673V45.4673Z" fill="#204ECF"/>
<path d="M48.7037 57.4976H48.2037V56.9976C48.2075 53.6725 49.53 50.4847 51.8812 48.1335C54.2323 45.7823 57.4202 44.4598 60.7452 44.4561H61.2452V44.9561C61.2415 48.2811 59.919 51.4689 57.5678 53.8201C55.2166 56.1713 52.0288 57.4938 48.7037 57.4976ZM60.234 45.4673C57.3539 45.5986 54.6268 46.8016 52.5881 48.8403C50.5494 50.879 49.3463 53.6061 49.215 56.4863C52.0952 56.355 54.8223 55.1519 56.861 53.1132C58.8997 51.0745 60.1027 48.3475 60.234 45.4673V45.4673Z" fill="#204ECF"/>
<path d="M49.2037 56.9976H48.2037V63.707H49.2037V56.9976Z" fill="#204ECF"/>
<path d="M15.7965 57.4976H15.2965C11.9714 57.4938 8.7836 56.1713 6.43242 53.8201C4.08124 51.4689 2.75872 48.2811 2.755 44.9561V44.4561H3.255C6.58008 44.4598 9.7679 45.7823 12.1191 48.1335C14.4703 50.4847 15.7928 53.6725 15.7965 56.9976L15.7965 57.4976ZM3.76621 45.4673C3.89749 48.3475 5.10056 51.0745 7.13926 53.1132C9.17796 55.1519 11.905 56.355 14.7852 56.4863C14.6539 53.6061 13.4509 50.879 11.4122 48.8403C9.37347 46.8016 6.64638 45.5986 3.76621 45.4673V45.4673Z" fill="#204ECF"/>
<path d="M15.2965 57.4976H14.7965V56.9976C14.8002 53.6726 16.1227 50.4848 18.4737 48.1336C20.8248 45.7825 24.0125 44.4599 27.3375 44.4561H27.8375V44.9561C27.8338 48.281 26.5114 51.4688 24.1603 53.82C21.8092 56.1712 18.6215 57.4937 15.2965 57.4976ZM26.8263 45.4673C23.9462 45.5986 21.2191 46.8017 19.1805 48.8404C17.1419 50.8791 15.9389 53.6062 15.8077 56.4863C18.6879 56.355 21.4149 55.1519 23.4535 53.1132C25.4922 51.0745 26.6951 48.3474 26.8263 45.4673V45.4673Z" fill="#204ECF"/>
<path d="M15.7965 43.5488H15.2965C11.9714 43.5451 8.7836 42.2226 6.43242 39.8714C4.08124 37.5202 2.75872 34.3324 2.755 31.0073V30.5073H3.255C6.58008 30.511 9.7679 31.8336 12.1191 34.1847C14.4703 36.5359 15.7928 39.7238 15.7965 43.0488L15.7965 43.5488ZM3.76621 31.5186C3.89749 34.3987 5.10056 37.1258 7.13926 39.1645C9.17796 41.2032 11.905 42.4063 14.7852 42.5376C14.6539 39.6574 13.4509 36.9303 11.4122 34.8916C9.37347 32.8529 6.64638 31.6498 3.76621 31.5186V31.5186Z" fill="#204ECF"/>
<path d="M15.2965 43.5488H14.7965V43.0488C14.8002 39.7238 16.1227 36.5361 18.4737 34.1849C20.8248 31.8337 24.0125 30.5111 27.3375 30.5073H27.8375V31.0073C27.8338 34.3323 26.5114 37.5201 24.1603 39.8713C21.8092 42.2224 18.6215 43.545 15.2965 43.5488V43.5488ZM26.8263 31.5186C23.9462 31.6498 21.2191 32.8529 19.1805 34.8916C17.1419 36.9303 15.9389 39.6574 15.8077 42.5376C18.6879 42.4063 21.4149 41.2032 23.4535 39.1645C25.4922 37.1258 26.6951 34.3987 26.8263 31.5186V31.5186Z" fill="#204ECF"/>
<path d="M15.7965 29.6001H15.2965C11.9715 29.5964 8.78374 28.2739 6.43257 25.9229C4.0814 23.5718 2.75882 20.3841 2.755 17.0591V16.5591H3.255C6.58 16.5628 9.76776 17.8852 12.1189 20.2363C14.4701 22.5874 15.7927 25.7751 15.7965 29.1001L15.7965 29.6001ZM3.76621 17.5703C3.8975 20.4504 5.10058 23.1775 7.13929 25.2161C9.178 27.2547 11.9051 28.4577 14.7852 28.5889C14.6539 25.7087 13.4508 22.9817 11.4121 20.9431C9.37343 18.9045 6.64634 17.7015 3.76621 17.5703V17.5703Z" fill="#204ECF"/>
<path d="M15.2965 29.6001H14.7965V29.1001C14.8003 25.7752 16.1228 22.5875 18.4739 20.2365C20.8249 17.8854 24.0126 16.5629 27.3375 16.5591H27.8375V17.0591C27.8337 20.384 26.5112 23.5717 24.1601 25.9227C21.8091 28.2738 18.6214 29.5963 15.2965 29.6001V29.6001ZM26.8263 17.5703C23.9462 17.7015 21.2192 18.9045 19.1805 20.9431C17.1419 22.9818 15.9389 25.7088 15.8077 28.5889C18.6878 28.4577 21.4149 27.2547 23.4535 25.2161C25.4921 23.1774 26.6951 20.4504 26.8263 17.5703V17.5703Z" fill="#204ECF"/>
<path d="M15.2965 18.4429L14.943 18.0894C13.7784 16.9248 12.8546 15.5423 12.2243 14.0207C11.5941 12.4992 11.2697 10.8684 11.2697 9.22144C11.2697 7.5745 11.5941 5.9437 12.2243 4.42213C12.8546 2.90057 13.7784 1.51805 14.943 0.35352L15.2965 0L15.65 0.35352C17.9984 2.70731 19.3173 5.8965 19.3173 9.22144C19.3173 12.5464 17.9984 15.7356 15.65 18.0894L15.2965 18.4429ZM15.2965 1.42969C13.3495 3.55754 12.2697 6.33723 12.2697 9.22143C12.2697 12.1056 13.3495 14.8853 15.2965 17.0132C17.2402 14.8837 18.3178 12.1046 18.3178 9.22143C18.3178 6.33827 17.2402 3.5592 15.2965 1.42969V1.42969Z" fill="#204ECF"/>
<path d="M48.7037 18.4429L48.3502 18.0894C46.0018 15.7356 44.683 12.5464 44.683 9.22144C44.683 5.8965 46.0018 2.70731 48.3502 0.35352L48.7037 0L49.0573 0.35352C50.2218 1.51805 51.1456 2.90057 51.7759 4.42213C52.4062 5.9437 52.7306 7.5745 52.7306 9.22144C52.7306 10.8684 52.4062 12.4992 51.7759 14.0207C51.1456 15.5423 50.2218 16.9248 49.0573 18.0894L48.7037 18.4429ZM48.7037 1.42969C46.7601 3.5592 45.6825 6.33827 45.6825 9.22143C45.6825 12.1046 46.7601 14.8837 48.7037 17.0132C50.6508 14.8853 51.7306 12.1056 51.7306 9.22143C51.7306 6.33723 50.6508 3.55754 48.7037 1.42969V1.42969Z" fill="#204ECF"/>
<path d="M15.7965 56.9976H14.7965V63.707H15.7965V56.9976Z" fill="#204ECF"/>
</g>
<defs>
<clipPath id="clip0_6_39">
<rect width="64" height="64.2071" fill="white"/>
</clipPath>
</defs>
</svg>
