<svg width="64" height="65" viewBox="0 0 64 64" fill="none" xmlns="http://www.w3.org/2000/svg">
<g clip-path="url(#clip0_6_102)">
<path opacity="0.3" d="M60.745 17.266C60.745 20.4595 59.4764 23.5223 57.2183 25.7804C54.9601 28.0386 51.8973 29.3073 48.7038 29.3073C48.7038 26.1137 49.9724 23.051 52.2306 20.7928C54.4888 18.5346 57.5515 17.266 60.745 17.266V17.266Z" fill="#231F20"/>
<path opacity="0.3" d="M60.745 31.2146C60.745 34.4082 59.4764 37.4709 57.2182 39.7291C54.96 41.9873 51.8973 43.2559 48.7037 43.2559C48.7037 40.0624 49.9724 36.9996 52.2306 34.7415C54.4887 32.4833 57.5515 31.2146 60.745 31.2146V31.2146Z" fill="#231F20"/>
<path opacity="0.3" d="M60.745 45.1633C60.745 48.3568 59.4764 51.4196 57.2183 53.6777C54.9601 55.9359 51.8973 57.2046 48.7038 57.2046C48.7038 54.011 49.9724 50.9483 52.2306 48.6901C54.4888 46.4319 57.5515 45.1633 60.745 45.1633V45.1633Z" fill="#231F20"/>
<path opacity="0.3" d="M27.3378 45.1633C27.3378 48.3568 26.0691 51.4196 23.811 53.6777C21.5528 55.9359 18.4901 57.2046 15.2965 57.2046C15.2965 54.011 16.5651 50.9483 18.8233 48.6901C21.0815 46.4319 24.1442 45.1633 27.3378 45.1633V45.1633Z" fill="#231F20"/>
<path opacity="0.3" d="M27.3377 31.2146C27.3377 34.4082 26.0691 37.4709 23.8109 39.7291C21.5527 41.9873 18.49 43.2559 15.2964 43.2559C15.2965 40.0624 16.5651 36.9996 18.8233 34.7415C21.0814 32.4833 24.1442 31.2146 27.3377 31.2146V31.2146Z" fill="#231F20"/>
<path opacity="0.3" d="M27.3378 17.266C27.3378 20.4595 26.0691 23.5223 23.811 25.7804C21.5528 28.0386 18.4901 29.3073 15.2965 29.3073C15.2965 26.1137 16.5651 23.051 18.8233 20.7928C21.0815 18.5346 24.1442 17.266 27.3378 17.266V17.266Z" fill="#231F20"/>
<path d="M49.2037 29.8072H48.7037C45.3788 29.8034 42.1912 28.4809 39.8401 26.1298C37.489 23.7788 36.1665 20.5911 36.1627 17.2662V16.7662H36.6627C39.9876 16.77 43.1753 18.0925 45.5264 20.4436C47.8774 22.7946 49.1999 25.9823 49.2037 29.3072V29.8072ZM37.1739 17.7774C37.3051 20.6575 38.5081 23.3845 40.5467 25.4232C42.5854 27.4618 45.3124 28.6648 48.1925 28.796C48.0613 25.9159 46.8583 23.1889 44.8197 21.1502C42.781 19.1116 40.054 17.9086 37.1739 17.7774V17.7774Z" fill="white"/>
<path d="M48.7037 29.8072H48.2037V29.3072C48.2076 25.9822 49.5301 22.7945 51.8813 20.4434C54.2325 18.0924 57.4202 16.7699 60.7452 16.7662H61.2452V17.2662C61.2414 20.5912 59.9188 23.7789 57.5677 26.13C55.2165 28.4811 52.0287 29.8035 48.7037 29.8072ZM60.234 17.7774C57.3539 17.9086 54.6268 19.1116 52.5881 21.1502C50.5494 23.1888 49.3463 25.9159 49.215 28.796C52.0952 28.6648 54.8222 27.4618 56.861 25.4232C58.8997 23.3846 60.1027 20.6575 60.234 17.7774V17.7774Z" fill="white"/>
<path d="M49.2037 43.7559H48.7037C45.3787 43.7521 42.191 42.4295 39.8399 40.0784C37.4889 37.7272 36.1664 34.5394 36.1627 31.2144V30.7144H36.6627C39.9877 30.7183 43.1754 32.0408 45.5265 34.392C47.8776 36.7432 49.2 39.9309 49.2037 43.2559V43.7559ZM37.1739 31.7257C37.3051 34.6058 38.5081 37.3329 40.5467 39.3716C42.5853 41.4103 45.3124 42.6134 48.1925 42.7447C48.0613 39.8645 46.8583 37.1374 44.8197 35.0987C42.7811 33.06 40.0541 31.857 37.1739 31.7257V31.7257Z" fill="white"/>
<path d="M48.7037 43.7559H48.2037V43.2559C48.2075 39.9309 49.53 36.743 51.8812 34.3919C54.2323 32.0407 57.4202 30.7182 60.7452 30.7144H61.2452V31.2144C61.2415 34.5395 59.919 37.7273 57.5678 40.0785C55.2166 42.4297 52.0288 43.7522 48.7037 43.7559V43.7559ZM60.234 31.7257C57.3539 31.8569 54.6268 33.06 52.5881 35.0987C50.5494 37.1374 49.3463 39.8645 49.215 42.7447C52.0952 42.6134 54.8223 41.4103 56.861 39.3716C58.8997 37.3329 60.1027 34.6058 60.234 31.7257V31.7257Z" fill="white"/>
<path d="M49.2037 57.7047H48.7037C45.3787 57.7008 42.191 56.3783 39.8399 54.0271C37.4889 51.6759 36.1664 48.4882 36.1627 45.1632V44.6632H36.6627C39.9877 44.667 43.1754 45.9896 45.5265 48.3407C47.8776 50.6919 49.2 53.8797 49.2037 57.2047V57.7047ZM37.1739 45.6744C37.3051 48.5545 38.5081 51.2816 40.5467 53.3203C42.5853 55.359 45.3124 56.5621 48.1925 56.6934C48.0613 53.8133 46.8583 51.0862 44.8197 49.0475C42.7811 47.0088 40.0541 45.8057 37.1739 45.6744V45.6744Z" fill="white"/>
<path d="M48.7037 57.7047H48.2037V57.2047C48.2075 53.8796 49.53 50.6918 51.8812 48.3406C54.2323 45.9894 57.4202 44.6669 60.7452 44.6632H61.2452V45.1632C61.2415 48.4882 59.919 51.6761 57.5678 54.0272C55.2166 56.3784 52.0288 57.701 48.7037 57.7047ZM60.234 45.6744C57.3539 45.8057 54.6268 47.0087 52.5881 49.0474C50.5494 51.0861 49.3463 53.8132 49.215 56.6934C52.0952 56.5621 54.8223 55.3591 56.861 53.3204C58.8997 51.2817 60.1027 48.5546 60.234 45.6744V45.6744Z" fill="white"/>
<path d="M49.2037 57.2047H48.2037V63.9141H49.2037V57.2047Z" fill="white"/>
<path d="M15.7965 57.7047H15.2965C11.9714 57.7009 8.7836 56.3784 6.43242 54.0272C4.08124 51.676 2.75872 48.4882 2.755 45.1632V44.6632H3.255C6.58008 44.6669 9.7679 45.9894 12.1191 48.3406C14.4703 50.6918 15.7928 53.8796 15.7965 57.2047L15.7965 57.7047ZM3.76621 45.6744C3.89749 48.5546 5.10056 51.2817 7.13926 53.3204C9.17796 55.3591 11.905 56.5621 14.7852 56.6934C14.6539 53.8132 13.4509 51.0861 11.4122 49.0474C9.37347 47.0087 6.64638 45.8057 3.76621 45.6744V45.6744Z" fill="white"/>
<path d="M15.2965 57.7047H14.7965V57.2047C14.8002 53.8797 16.1227 50.6919 18.4737 48.3407C20.8248 45.9896 24.0125 44.667 27.3375 44.6632H27.8375V45.1632C27.8338 48.4882 26.5114 51.6759 24.1603 54.0271C21.8092 56.3783 18.6215 57.7008 15.2965 57.7047ZM26.8263 45.6744C23.9462 45.8057 21.2191 47.0088 19.1805 49.0475C17.1419 51.0862 15.9389 53.8133 15.8077 56.6934C18.6879 56.5621 21.4149 55.359 23.4535 53.3203C25.4922 51.2816 26.6951 48.5545 26.8263 45.6744V45.6744Z" fill="white"/>
<path d="M15.7965 43.7559H15.2965C11.9714 43.7522 8.7836 42.4297 6.43242 40.0785C4.08124 37.7273 2.75872 34.5395 2.755 31.2144V30.7144H3.255C6.58008 30.7182 9.7679 32.0407 12.1191 34.3919C14.4703 36.743 15.7928 39.9309 15.7965 43.2559L15.7965 43.7559ZM3.76621 31.7257C3.89749 34.6058 5.10056 37.3329 7.13926 39.3716C9.17796 41.4103 11.905 42.6134 14.7852 42.7447C14.6539 39.8645 13.4509 37.1374 11.4122 35.0987C9.37347 33.06 6.64638 31.8569 3.76621 31.7257V31.7257Z" fill="white"/>
<path d="M15.2965 43.7559H14.7965V43.2559C14.8002 39.9309 16.1227 36.7432 18.4737 34.392C20.8248 32.0408 24.0125 30.7183 27.3375 30.7144H27.8375V31.2144C27.8338 34.5394 26.5114 37.7272 24.1603 40.0784C21.8092 42.4295 18.6215 43.7521 15.2965 43.7559V43.7559ZM26.8263 31.7257C23.9462 31.857 21.2191 33.06 19.1805 35.0987C17.1419 37.1374 15.9389 39.8645 15.8077 42.7447C18.6879 42.6134 21.4149 41.4103 23.4535 39.3716C25.4922 37.3329 26.6951 34.6058 26.8263 31.7257V31.7257Z" fill="white"/>
<path d="M15.7965 29.8072H15.2965C11.9715 29.8035 8.78374 28.4811 6.43257 26.13C4.0814 23.7789 2.75882 20.5912 2.755 17.2662V16.7662H3.255C6.58 16.7699 9.76776 18.0923 12.1189 20.4434C14.4701 22.7945 15.7927 25.9822 15.7965 29.3072L15.7965 29.8072ZM3.76621 17.7774C3.8975 20.6575 5.10058 23.3846 7.13929 25.4232C9.178 27.4618 11.9051 28.6648 14.7852 28.796C14.6539 25.9159 13.4508 23.1888 11.4121 21.1502C9.37343 19.1116 6.64634 17.9086 3.76621 17.7774V17.7774Z" fill="white"/>
<path d="M15.2965 29.8072H14.7965V29.3072C14.8003 25.9823 16.1228 22.7946 18.4739 20.4436C20.8249 18.0925 24.0126 16.77 27.3375 16.7662H27.8375V17.2662C27.8337 20.5911 26.5112 23.7788 24.1601 26.1298C21.8091 28.4809 18.6214 29.8034 15.2965 29.8072V29.8072ZM26.8263 17.7774C23.9462 17.9086 21.2192 19.1116 19.1805 21.1502C17.1419 23.1889 15.9389 25.9159 15.8077 28.796C18.6878 28.6648 21.4149 27.4618 23.4535 25.4232C25.4921 23.3845 26.6951 20.6575 26.8263 17.7774V17.7774Z" fill="white"/>
<path d="M15.2965 18.65L14.943 18.2965C13.7784 17.1319 12.8546 15.7494 12.2243 14.2279C11.5941 12.7063 11.2697 11.0755 11.2697 9.42855C11.2697 7.78161 11.5941 6.1508 12.2243 4.62924C12.8546 3.10768 13.7784 1.72516 14.943 0.560628L15.2965 0.207108L15.65 0.560628C17.9984 2.91442 19.3173 6.10361 19.3173 9.42855C19.3173 12.7535 17.9984 15.9427 15.65 18.2965L15.2965 18.65ZM15.2965 1.6368C13.3495 3.76464 12.2697 6.54434 12.2697 9.42854C12.2697 12.3127 13.3495 15.0924 15.2965 17.2203C17.2402 15.0908 18.3178 12.3117 18.3178 9.42854C18.3178 6.54537 17.2402 3.76631 15.2965 1.6368V1.6368Z" fill="white"/>
<path d="M48.7037 18.65L48.3502 18.2965C46.0018 15.9427 44.683 12.7535 44.683 9.42855C44.683 6.10361 46.0018 2.91442 48.3502 0.560628L48.7037 0.207108L49.0573 0.560628C50.2218 1.72516 51.1456 3.10768 51.7759 4.62924C52.4062 6.1508 52.7306 7.78161 52.7306 9.42855C52.7306 11.0755 52.4062 12.7063 51.7759 14.2279C51.1456 15.7494 50.2218 17.1319 49.0573 18.2965L48.7037 18.65ZM48.7037 1.6368C46.7601 3.76631 45.6825 6.54537 45.6825 9.42854C45.6825 12.3117 46.7601 15.0908 48.7037 17.2203C50.6508 15.0924 51.7306 12.3127 51.7306 9.42854C51.7306 6.54434 50.6508 3.76464 48.7037 1.6368V1.6368Z" fill="white"/>
<path d="M15.7965 57.2047H14.7965V63.9141H15.7965V57.2047Z" fill="white"/>
</g>
<defs>
<clipPath id="clip0_6_102">
<rect width="64" height="64.2071" fill="white" transform="translate(0 0.207108)"/>
</clipPath>
</defs>
</svg>
