<svg width="64" height="64" viewBox="0 0 64 64" fill="none" xmlns="http://www.w3.org/2000/svg">
<g clip-path="url(#clip0_6_128)">
<path opacity="0.3" d="M31.999 53.8249C32.4608 53.8249 32.918 53.734 33.3447 53.5572C33.7713 53.3805 34.159 53.1215 34.4855 52.795C34.8121 52.4684 35.0711 52.0808 35.2478 51.6541C35.4245 51.2275 35.5155 50.7702 35.5155 50.3084L28.4825 50.3084C28.4825 50.7702 28.5734 51.2274 28.7501 51.6541C28.9269 52.0807 29.1859 52.4684 29.5124 52.7949C29.839 53.1215 30.2266 53.3805 30.6533 53.5572C31.0799 53.7339 31.5372 53.8249 31.999 53.8249V53.8249Z" fill="#231F20"/>
<path opacity="0.3" d="M45.9824 41.3189C45.5771 41.319 45.1758 41.2392 44.8014 41.0841C44.427 40.929 44.0867 40.7017 43.8001 40.4152C43.5136 40.1286 43.2862 39.7884 43.1311 39.414C42.976 39.0396 42.8962 38.6383 42.8962 38.233V26.5105C42.8962 25.5932 42.7155 24.6848 42.3645 23.8373C42.0135 22.9898 41.499 22.2197 40.8503 21.5711C40.2017 20.9224 39.4316 20.4078 38.5841 20.0568C37.7366 19.7057 36.8282 19.5251 35.9109 19.5251C35.9092 18.4887 35.4964 17.4953 34.7629 16.763C34.0295 16.0308 33.0354 15.6195 31.999 15.6195C30.9626 15.6195 29.9686 16.0308 29.2352 16.763C28.5017 17.4953 28.0889 18.4887 28.0872 19.5251C26.2346 19.5251 24.4578 20.2611 23.1479 21.5711C21.8379 22.8811 21.102 24.6579 21.102 26.5105V38.233C21.102 38.6383 21.0221 39.0396 20.867 39.414C20.7119 39.7884 20.4846 40.1286 20.198 40.4152C19.9114 40.7017 19.5712 40.929 19.1967 41.0841C18.8223 41.2392 18.421 41.319 18.0157 41.3189C17.1982 41.3204 16.4146 41.6462 15.837 42.2249C15.2594 42.8035 14.935 43.5876 14.935 44.4052C14.935 45.2228 15.2594 46.007 15.837 46.5856C16.4146 47.1642 17.1982 47.49 18.0157 47.4915H45.9824C46.8 47.49 47.5836 47.1642 48.1612 46.5856C48.7387 46.007 49.0631 45.2228 49.0631 44.4052C49.0631 43.5876 48.7387 42.8035 48.1612 42.2249C47.5836 41.6462 46.8 41.3204 45.9824 41.3189V41.3189ZM31.9992 38.2396C31.3548 38.2396 30.7248 38.0485 30.189 37.6905C29.6531 37.3325 29.2355 36.8236 28.9889 36.2282C28.7422 35.6328 28.6777 34.9777 28.8034 34.3456C28.9291 33.7136 29.2395 33.133 29.6951 32.6773C30.1508 32.2216 30.7314 31.9113 31.3635 31.7855C31.9955 31.6598 32.6507 31.7243 33.246 31.9709C33.8414 32.2175 34.3503 32.6352 34.7084 33.171C35.0664 33.7068 35.2575 34.3368 35.2575 34.9812C35.2575 35.4091 35.1733 35.8328 35.0095 36.2282C34.8458 36.6235 34.6058 36.9827 34.3032 37.2853C34.0007 37.5878 33.6415 37.8279 33.2461 37.9916C32.8508 38.1553 32.4271 38.2396 31.9992 38.2396V38.2396Z" fill="#231F20"/>
<path d="M31.999 63.6919C26.3206 63.6919 20.7698 62.008 16.0483 58.8533C11.3269 55.6986 7.64706 51.2146 5.47403 45.9684C3.30101 40.7223 2.73245 34.9496 3.84025 29.3803C4.94806 23.811 7.68246 18.6953 11.6977 14.6801C15.7129 10.6648 20.8286 7.93045 26.3979 6.82265C31.9672 5.71485 37.7399 6.28342 42.9861 8.45645C48.2322 10.6295 52.7162 14.3094 55.8709 19.0308C59.0256 23.7522 60.7095 29.3031 60.7095 34.9814C60.7009 42.5933 57.6733 49.8909 52.2909 55.2733C46.9085 60.6557 39.6109 63.6833 31.999 63.6919V63.6919ZM31.999 7.271C26.5184 7.271 21.1609 8.8962 16.6039 11.9411C12.047 14.9859 8.49525 19.3137 6.39791 24.3771C4.30058 29.4406 3.75182 35.0122 4.82104 40.3875C5.89025 45.7628 8.52942 50.7003 12.4048 54.5757C16.2802 58.4511 21.2177 61.0902 26.593 62.1595C31.9683 63.2287 37.5399 62.6799 42.6034 60.5826C47.6668 58.4852 51.9946 54.9335 55.0394 50.3765C58.0843 45.8196 59.7095 40.4621 59.7095 34.9814C59.7012 27.6347 56.7791 20.5912 51.5842 15.3963C46.3892 10.2014 39.3458 7.27924 31.999 7.271V7.271Z" fill="white"/>
<path d="M2.47899 17.4302C0.893775 15.8426 0.00376714 13.6906 0.00457819 11.4471C0.00538924 9.20357 0.896953 7.05218 2.48332 5.46575C4.06968 3.87933 6.22103 2.98767 8.46453 2.98677C10.708 2.98587 12.8601 3.87579 14.4477 5.46094L13.7407 6.16794C12.341 4.76829 10.4426 3.982 8.46321 3.98204C6.48376 3.98209 4.58541 4.76846 3.18577 6.16816C1.78612 7.56787 0.999829 9.46626 0.999871 11.4457C0.999914 13.4251 1.78628 15.3235 3.18599 16.7231L2.47899 17.4302Z" fill="white"/>
<path d="M61.522 17.4287L60.815 16.7217C61.5079 16.0286 62.0576 15.2057 62.4326 14.3002C62.8075 13.3946 63.0005 12.4241 63.0003 11.444C63.0002 10.4639 62.8071 9.49335 62.4319 8.58789C62.0567 7.68242 61.5069 6.85971 60.8137 6.16675C60.1206 5.47378 59.2978 4.92412 58.3922 4.54916C57.4866 4.17419 56.5161 3.98125 55.536 3.98137C54.5559 3.98149 53.5854 4.17465 52.6799 4.54983C51.7744 4.92501 50.9517 5.47487 50.2588 6.168L49.5518 5.461C51.1399 3.87893 53.2908 2.99154 55.5325 2.99356C57.7741 2.99559 59.9234 3.88686 61.5087 5.47179C63.0939 7.05673 63.9857 9.20584 63.9882 11.4475C63.9906 13.6892 63.1037 15.8403 61.522 17.4287V17.4287Z" fill="white"/>
<path d="M31.999 38.7398C31.2557 38.7398 30.529 38.5193 29.911 38.1064C29.2929 37.6934 28.8112 37.1064 28.5267 36.4197C28.2423 35.7329 28.1679 34.9773 28.3129 34.2482C28.4579 33.5192 28.8158 32.8495 29.3414 32.3239C29.8671 31.7983 30.5367 31.4404 31.2658 31.2953C31.9948 31.1503 32.7505 31.2248 33.4372 31.5092C34.124 31.7937 34.7109 32.2754 35.1239 32.8934C35.5369 33.5115 35.7573 34.2381 35.7573 34.9814C35.7561 35.9779 35.3598 36.9331 34.6552 37.6377C33.9507 38.3423 32.9954 38.7386 31.999 38.7398V38.7398ZM31.999 32.2231C31.4534 32.2231 30.9201 32.3849 30.4665 32.688C30.0129 32.9911 29.6594 33.4219 29.4506 33.9259C29.2419 34.4299 29.1872 34.9845 29.2937 35.5196C29.4001 36.0546 29.6628 36.5461 30.0485 36.9319C30.4343 37.3176 30.9258 37.5803 31.4609 37.6868C31.9959 37.7932 32.5505 37.7386 33.0545 37.5298C33.5585 37.321 33.9893 36.9675 34.2924 36.5139C34.5955 36.0603 34.7573 35.527 34.7573 34.9814C34.7565 34.2501 34.4656 33.549 33.9485 33.0319C33.4314 32.5148 32.7303 32.2239 31.999 32.2231V32.2231Z" fill="white"/>
<path d="M32.499 12.6587H31.499V31.7101H32.499V12.6587Z" fill="white"/>
<path d="M44.7681 34.4814H35.0861V35.4814H44.7681V34.4814Z" fill="white"/>
<path d="M10.6532 53.4312L0.167114 62.8178L0.834106 63.5629L11.3202 54.1763L10.6532 53.4312Z" fill="white"/>
<path d="M53.3458 53.4293L52.6786 54.1742L63.163 63.5644L63.8302 62.8194L53.3458 53.4293Z" fill="white"/>
</g>
<defs>
<clipPath id="clip0_6_128">
<rect width="64" height="64" fill="white"/>
</clipPath>
</defs>
</svg>
