<svg width="64" height="65" viewBox="0 0 64 65" fill="none" xmlns="http://www.w3.org/2000/svg">
<g clip-path="url(#clip0_6_79)">
<path opacity="0.15" d="M32 39.7016C36.8366 39.7016 40.7575 35.7807 40.7575 30.9441C40.7575 26.1074 36.8366 22.1865 32 22.1865C27.1633 22.1865 23.2424 26.1074 23.2424 30.9441C23.2424 35.7807 27.1633 39.7016 32 39.7016Z" fill="#183A9E"/>
<path d="M32 64.084L16.7978 56.8672C13.7972 55.4322 11.2624 53.1795 9.48489 50.3681C7.70742 47.5567 6.75946 44.3008 6.75 40.9746V2.84277H20.5625C22.8017 2.84378 25.0246 2.46299 27.1357 1.71677L32 0L36.8643 1.7168C38.9754 2.46302 41.1983 2.84381 43.4375 2.8428H57.25V40.9746C57.2405 44.3008 56.2926 47.5567 54.5151 50.3681C52.7376 53.1795 50.2028 55.4322 47.2021 56.8672L32 64.084ZM7.75 3.84277V40.9746C7.75898 44.1117 8.65307 47.1825 10.3295 49.8341C12.0059 52.4857 14.3965 54.6104 17.2266 55.9639L32 62.9766L46.7734 55.9639C49.6035 54.6104 51.9941 52.4857 53.6705 49.8341C55.3469 47.1825 56.241 44.1117 56.25 40.9746V3.84277H43.4375C41.0849 3.84383 38.7494 3.4439 36.5312 2.66016L32 1.06055L27.4688 2.66016C25.2506 3.4439 22.9151 3.84383 20.5625 3.84277H7.75Z" fill="#204ECF"/>
<path d="M32.5 18.0464H31.5V22.1865H32.5V18.0464Z" fill="#204ECF"/>
<path d="M32 18.5464C31.364 18.5464 30.7423 18.3579 30.2134 18.0046C29.6846 17.6513 29.2724 17.1491 29.029 16.5615C28.7856 15.9739 28.7219 15.3273 28.846 14.7035C28.97 14.0798 29.2763 13.5068 29.726 13.0571C30.1757 12.6073 30.7487 12.3011 31.3725 12.177C31.9963 12.0529 32.6428 12.1166 33.2304 12.36C33.818 12.6035 34.3202 13.0156 34.6735 13.5445C35.0268 14.0733 35.2154 14.695 35.2153 15.331C35.2144 16.1835 34.8753 17.0008 34.2725 17.6036C33.6697 18.2063 32.8525 18.5454 32 18.5464V18.5464ZM32 13.1152C31.5618 13.1152 31.1334 13.2451 30.7691 13.4885C30.4047 13.7319 30.1207 14.0779 29.9529 14.4827C29.7852 14.8875 29.7413 15.333 29.8267 15.7628C29.9121 16.1926 30.1231 16.5874 30.4329 16.8973C30.7428 17.2072 31.1375 17.4182 31.5673 17.5038C31.9971 17.5893 32.4425 17.5455 32.8474 17.3778C33.2523 17.2102 33.5983 16.9262 33.8418 16.5619C34.0853 16.1976 34.2153 15.7693 34.2153 15.331C34.2147 14.7436 33.9812 14.1805 33.5659 13.7651C33.1505 13.3497 32.5874 13.116 32 13.1152V13.1152Z" fill="#204ECF"/>
<path d="M32.5 39.7017H31.5V43.8418H32.5V39.7017Z" fill="#204ECF"/>
<path d="M32 49.773C31.364 49.773 30.7423 49.5845 30.2135 49.2312C29.6847 48.8779 29.2725 48.3757 29.029 47.7882C28.7856 47.2006 28.7219 46.5541 28.8459 45.9303C28.9699 45.3066 29.2762 44.7336 29.7258 44.2838C30.1755 43.8341 30.7484 43.5278 31.3722 43.4037C31.9959 43.2796 32.6425 43.3432 33.2301 43.5865C33.8177 43.8299 34.3199 44.242 34.6733 44.7707C35.0267 45.2995 35.2153 45.9212 35.2153 46.5572C35.2145 47.4097 34.8755 48.2271 34.2727 48.83C33.6699 49.4329 32.8526 49.772 32 49.773V49.773ZM32 44.3419C31.5618 44.3418 31.1334 44.4717 30.769 44.7151C30.4046 44.9586 30.1206 45.3046 29.9529 45.7094C29.7852 46.1143 29.7413 46.5598 29.8267 46.9896C29.9122 47.4194 30.1232 47.8142 30.4331 48.1241C30.743 48.434 31.1378 48.645 31.5676 48.7304C31.9974 48.8159 32.4429 48.772 32.8477 48.6043C33.2526 48.4366 33.5986 48.1526 33.8421 47.7882C34.0855 47.4238 34.2154 46.9954 34.2153 46.5572C34.2147 45.9698 33.9811 45.4067 33.5658 44.9914C33.1505 44.576 32.5874 44.3424 32 44.3418V44.3419Z" fill="#204ECF"/>
<path d="M40.7665 21.4706L37.839 24.3981L38.546 25.1051L41.4735 22.1776L40.7665 21.4706Z" fill="#204ECF"/>
<path d="M43.04 23.1177C42.2968 23.1169 41.5769 22.8585 41.0029 22.3865C40.4289 21.9145 40.0363 21.2581 39.8919 20.5291C39.7476 19.8001 39.8605 19.0436 40.2113 18.3885C40.5621 17.7334 41.1293 17.2202 41.8161 16.9363C42.5028 16.6524 43.2668 16.6154 43.9778 16.8316C44.6888 17.0478 45.3029 17.5038 45.7154 18.1219C46.1279 18.7401 46.3134 19.4821 46.2402 20.2217C46.167 20.9612 45.8396 21.6525 45.3139 22.1777C45.0154 22.4764 44.6609 22.7132 44.2707 22.8745C43.8804 23.0358 43.4622 23.1184 43.04 23.1177V23.1177ZM43.04 17.6894C42.5278 17.6899 42.0317 17.8679 41.636 18.1931C41.2404 18.5183 40.9697 18.9706 40.8702 19.473C40.7706 19.9754 40.8484 20.4968 41.0901 20.9483C41.3318 21.3998 41.7226 21.7535 42.1959 21.9492C42.6691 22.145 43.1956 22.1705 43.6856 22.0216C44.1757 21.8727 44.5989 21.5585 44.8832 21.1325C45.1676 20.7066 45.2954 20.1952 45.245 19.6855C45.1947 19.1759 44.9691 18.6994 44.6069 18.3374C44.4012 18.1316 44.1569 17.9683 43.888 17.8572C43.6191 17.746 43.3309 17.689 43.04 17.6894V17.6894Z" fill="#204ECF"/>
<path d="M25.454 36.7831L22.5265 39.7106L23.2335 40.4176L26.161 37.4901L25.454 36.7831Z" fill="#204ECF"/>
<path d="M20.96 45.1982C20.2164 45.1978 19.496 44.9396 18.9214 44.4676C18.3468 43.9956 17.9537 43.339 17.809 42.6096C17.6643 41.8802 17.777 41.1232 18.1278 40.4676C18.4787 39.812 19.046 39.2983 19.7331 39.0141C20.4202 38.7299 21.1846 38.6927 21.8961 38.9088C22.6076 39.125 23.2221 39.5812 23.6349 40.1997C24.0477 40.8181 24.2334 41.5606 24.1602 42.3006C24.087 43.0405 23.7594 43.7322 23.2334 44.2578C22.9351 44.5566 22.5807 44.7934 22.1905 44.9548C21.8004 45.1162 21.3822 45.1989 20.96 45.1982ZM20.96 39.7695C20.4476 39.7698 19.9512 39.9477 19.5553 40.2729C19.1594 40.5982 18.8886 41.0506 18.7889 41.5532C18.6892 42.0557 18.7668 42.5773 19.0085 43.029C19.2503 43.4808 19.6412 43.8347 20.1146 44.0306C20.5881 44.2264 21.1148 44.252 21.605 44.1031C22.0952 43.9541 22.5186 43.6398 22.8031 43.2137C23.0875 42.7875 23.2154 42.2759 23.165 41.7661C23.1145 41.2562 22.8888 40.7796 22.5264 40.4175C22.3208 40.2117 22.0766 40.0486 21.8078 39.9374C21.539 39.8262 21.2509 39.7692 20.96 39.7695V39.7695Z" fill="#204ECF"/>
<path d="M44.898 30.4438H40.7573V31.4438H44.898V30.4438Z" fill="#204ECF"/>
<path d="M47.6133 34.1597C46.9773 34.1597 46.3556 33.9712 45.8268 33.6179C45.2979 33.2646 44.8858 32.7624 44.6423 32.1749C44.3989 31.5873 44.3352 30.9408 44.4592 30.317C44.5832 29.6932 44.8894 29.1202 45.3391 28.6705C45.7888 28.2208 46.3617 27.9145 46.9855 27.7903C47.6092 27.6662 48.2558 27.7299 48.8434 27.9732C49.431 28.2165 49.9332 28.6286 50.2866 29.1574C50.6399 29.6862 50.8286 30.3079 50.8286 30.9438C50.8278 31.7964 50.4888 32.6138 49.886 33.2167C49.2832 33.8195 48.4658 34.1587 47.6133 34.1597V34.1597ZM47.6133 28.7285C47.1751 28.7285 46.7467 28.8584 46.3823 29.1018C46.0179 29.3452 45.7339 29.6913 45.5662 30.0961C45.3984 30.501 45.3545 30.9465 45.44 31.3763C45.5255 31.8061 45.7365 32.2009 46.0464 32.5107C46.3563 32.8206 46.7511 33.0316 47.1809 33.1171C47.6107 33.2026 48.0562 33.1587 48.461 32.991C48.8659 32.8233 49.2119 32.5392 49.4553 32.1749C49.6988 31.8105 49.8287 31.3821 49.8286 30.9438C49.828 30.3565 49.5944 29.7934 49.1791 29.3781C48.7638 28.9627 48.2006 28.7291 47.6133 28.7285V28.7285Z" fill="#204ECF"/>
<path d="M23.2427 30.4438H19.1021V31.4438H23.2427V30.4438Z" fill="#204ECF"/>
<path d="M16.3867 34.1597C15.7507 34.1597 15.129 33.9712 14.6002 33.6179C14.0713 33.2646 13.6592 32.7625 13.4157 32.1749C13.1723 31.5874 13.1086 30.9408 13.2326 30.317C13.3566 29.6933 13.6628 29.1203 14.1125 28.6705C14.5621 28.2208 15.1351 27.9145 15.7588 27.7903C16.3826 27.6662 17.0291 27.7299 17.6167 27.9732C18.2043 28.2165 18.7066 28.6286 19.0599 29.1574C19.4133 29.6862 19.602 30.3079 19.602 30.9439C19.6011 31.7964 19.2621 32.6138 18.6593 33.2166C18.0566 33.8195 17.2393 34.1587 16.3867 34.1597V34.1597ZM16.3867 28.7285C15.9485 28.7285 15.5201 28.8584 15.1557 29.1018C14.7913 29.3452 14.5073 29.6912 14.3396 30.0961C14.1718 30.5009 14.1279 30.9464 14.2134 31.3762C14.2989 31.8061 14.5099 32.2009 14.8197 32.5107C15.1296 32.8206 15.5244 33.0316 15.9542 33.1171C16.384 33.2026 16.8295 33.1587 17.2344 32.991C17.6392 32.8233 17.9853 32.5392 18.2287 32.1749C18.4721 31.8105 18.602 31.3821 18.602 30.9439C18.6014 30.3565 18.3678 29.7934 17.9525 29.3781C17.5372 28.9628 16.9741 28.7292 16.3867 28.7285Z" fill="#204ECF"/>
<path d="M38.5458 36.7832L37.8389 37.4903L40.7666 40.4175L41.4736 39.7104L38.5458 36.7832Z" fill="#204ECF"/>
<path d="M43.04 45.1982C42.2965 45.1977 41.5761 44.9394 41.0016 44.4674C40.4271 43.9953 40.0341 43.3386 39.8894 42.6092C39.7448 41.8799 39.8576 41.1229 40.2085 40.4674C40.5594 39.8118 41.1267 39.2982 41.8138 39.014C42.5009 38.7298 43.2653 38.6927 43.9768 38.9089C44.6882 39.1251 45.3027 39.5813 45.7155 40.1998C46.1283 40.8182 46.3139 41.5607 46.2407 42.3006C46.1675 43.0406 45.8399 43.7322 45.3139 44.2578C45.0156 44.5566 44.6611 44.7936 44.2708 44.9549C43.8806 45.1163 43.4623 45.199 43.04 45.1982V45.1982ZM43.0405 39.77C42.5283 39.7704 42.0321 39.9484 41.6364 40.2737C41.2407 40.599 40.97 41.0514 40.8705 41.5539C40.7709 42.0563 40.8487 42.5778 41.0905 43.0293C41.3323 43.4809 41.7232 43.8346 42.1966 44.0303C42.67 44.226 43.1966 44.2515 43.6866 44.1024C44.1767 43.9534 44.5999 43.639 44.8842 43.2129C45.1685 42.7868 45.2962 42.2753 45.2457 41.7656C45.1951 41.2559 44.9694 40.7794 44.6069 40.4175C44.4013 40.2118 44.1571 40.0487 43.8883 39.9376C43.6195 39.8264 43.3314 39.7695 43.0405 39.77V39.77Z" fill="#204ECF"/>
<path d="M23.2333 21.4707L22.5264 22.1778L25.4541 25.105L26.1611 24.3979L23.2333 21.4707Z" fill="#204ECF"/>
<path d="M20.9595 23.1177C20.5373 23.1184 20.1192 23.0357 19.729 22.8744C19.3389 22.7131 18.9845 22.4763 18.6861 22.1777V22.1777C18.1584 21.6516 17.8296 20.9587 17.7557 20.2172C17.6818 19.4757 17.8673 18.7316 18.2806 18.1116C18.694 17.4916 19.3096 17.0342 20.0225 16.8173C20.7353 16.6004 21.5014 16.6374 22.19 16.9221C22.8786 17.2068 23.4472 17.7216 23.7987 18.3786C24.1503 19.0356 24.2631 19.7942 24.118 20.525C23.9728 21.2559 23.5786 21.9138 23.0027 22.3866C22.4267 22.8594 21.7046 23.1177 20.9595 23.1177V23.1177ZM19.3931 21.4707C19.7555 21.8331 20.2324 22.0587 20.7425 22.1089C21.2526 22.1592 21.7644 22.031 22.1906 21.7462C22.6168 21.4615 22.9311 21.0378 23.0799 20.5473C23.2287 20.0568 23.2028 19.5298 23.0067 19.0563C22.8106 18.5827 22.4563 18.1918 22.0043 17.9501C21.5522 17.7085 21.0304 17.631 20.5277 17.731C20.0249 17.831 19.5724 18.1021 19.2472 18.4983C18.922 18.8945 18.7442 19.3912 18.7442 19.9038C18.7445 20.4914 18.9779 21.0549 19.3931 21.4707V21.4707Z" fill="#204ECF"/>
<path d="M32 40.2017C30.169 40.2017 28.3792 39.6588 26.8567 38.6416C25.3343 37.6244 24.1477 36.1786 23.447 34.487C22.7462 32.7955 22.5629 30.9341 22.92 29.1383C23.2772 27.3425 24.1588 25.6929 25.4535 24.3982C26.7482 23.1034 28.3977 22.2217 30.1935 21.8644C31.9892 21.5072 33.8506 21.6905 35.5423 22.3911C37.2339 23.0918 38.6797 24.2783 39.697 25.8007C40.7143 27.323 41.2573 29.1129 41.2573 30.9439C41.2547 33.3983 40.2785 35.7514 38.543 37.487C36.8075 39.2226 34.4544 40.1989 32 40.2017V40.2017ZM32 22.6865C30.3668 22.6865 28.7702 23.1707 27.4123 24.0781C26.0543 24.9854 24.9958 26.2751 24.3708 27.7839C23.7458 29.2928 23.5822 30.9532 23.9008 32.555C24.2195 34.1568 25.0059 35.6282 26.1608 36.7831C27.3156 37.9379 28.787 38.7244 30.3888 39.043C31.9907 39.3616 33.651 39.1981 35.1599 38.573C36.6688 37.948 37.9584 36.8896 38.8658 35.5316C39.7731 34.1736 40.2574 32.5771 40.2573 30.9439C40.2549 28.7546 39.3842 26.6557 37.8361 25.1077C36.2881 23.5597 34.1892 22.689 32 22.6865V22.6865Z" fill="#204ECF"/>
</g>
<defs>
<clipPath id="clip0_6_79">
<rect width="64" height="64.084" fill="white"/>
</clipPath>
</defs>
</svg>
