<svg width="64" height="64" viewBox="0 0 64 64" fill="none" xmlns="http://www.w3.org/2000/svg">
<g clip-path="url(#clip0_6_234)">
<path opacity="0.3" d="M19.8594 18.1836C20.8622 18.1836 21.8425 17.8862 22.6763 17.3291C23.5101 16.772 24.16 15.9801 24.5437 15.0537C24.9275 14.1272 25.0279 13.1077 24.8323 12.1242C24.6367 11.1407 24.1538 10.2372 23.4447 9.52814C22.7356 8.81904 21.8321 8.33615 20.8486 8.14051C19.8651 7.94488 18.8456 8.04529 17.9191 8.42906C16.9927 8.81282 16.2008 9.4627 15.6437 10.2965C15.0866 11.1303 14.7892 12.1106 14.7892 13.1134C14.7893 14.4581 15.3235 15.7477 16.2743 16.6985C17.2251 17.6493 18.5147 18.1835 19.8594 18.1836V18.1836Z" fill="#231F20"/>
<path opacity="0.3" d="M19.8593 20.1716C18.5149 20.1716 17.1837 20.4364 15.9417 20.9508C14.6997 21.4653 13.5712 22.2194 12.6206 23.17C11.67 24.1206 10.9159 25.2491 10.4015 26.4911C9.88704 27.7332 9.62226 29.0643 9.62227 30.4087H30.0964C30.0964 29.0643 29.8316 27.7331 29.3171 26.4911C28.8027 25.2491 28.0486 24.1206 27.098 23.1699C26.1474 22.2193 25.0189 21.4653 23.7768 20.9508C22.5348 20.4364 21.2036 20.1716 19.8593 20.1716V20.1716Z" fill="#231F20"/>
<path opacity="0.3" d="M57.107 40.019H32.205V34.772L33.72 33.375H57.107V40.019Z" fill="#231F20"/>
<path opacity="0.3" d="M57.1075 45.1368H32.2052V51.7802H57.1075V45.1368Z" fill="#231F20"/>
<path d="M19.8594 18.6837C18.7577 18.6837 17.6807 18.357 16.7647 17.7449C15.8486 17.1329 15.1347 16.2629 14.7131 15.2451C14.2915 14.2272 14.1811 13.1072 14.3961 12.0267C14.611 10.9461 15.1415 9.9536 15.9206 9.17457C16.6996 8.39555 17.6921 7.86503 18.7727 7.65009C19.8532 7.43516 20.9732 7.54547 21.991 7.96708C23.0089 8.38869 23.8789 9.10265 24.4909 10.0187C25.103 10.9347 25.4297 12.0117 25.4297 13.1134C25.428 14.5902 24.8405 16.006 23.7963 17.0503C22.752 18.0945 21.3362 18.682 19.8594 18.6837ZM19.8594 8.54307C18.9555 8.54307 18.0718 8.81111 17.3202 9.31331C16.5687 9.8155 15.9829 10.5293 15.6369 11.3644C15.291 12.1995 15.2005 13.1185 15.3769 14.005C15.5532 14.8916 15.9885 15.7059 16.6277 16.3451C17.2668 16.9843 18.0812 17.4195 18.9677 17.5959C19.8543 17.7722 20.7732 17.6817 21.6084 17.3358C22.4435 16.9899 23.1573 16.4041 23.6595 15.6525C24.1616 14.9009 24.4297 14.0173 24.4297 13.1134C24.4283 11.9017 23.9463 10.74 23.0895 9.88323C22.2327 9.02643 21.0711 8.54447 19.8594 8.54307V8.54307Z" fill="white"/>
<path d="M30.5967 30.4088H29.5967C29.5967 29.1301 29.3448 27.8639 28.8555 26.6826C28.3662 25.5012 27.6489 24.4278 26.7448 23.5236C25.8406 22.6195 24.7672 21.9022 23.5858 21.4129C22.4045 20.9236 21.1383 20.6717 19.8596 20.6717C18.5809 20.6717 17.3148 20.9236 16.1334 21.4129C14.9521 21.9022 13.8786 22.6195 12.9745 23.5236C12.0703 24.4278 11.3531 25.5012 10.8637 26.6826C10.3744 27.8639 10.1226 29.1301 10.1226 30.4088H9.12256C9.12256 27.5611 10.2538 24.8301 12.2674 22.8165C14.281 20.8029 17.012 19.6717 19.8596 19.6717C22.7073 19.6717 25.4383 20.8029 27.4519 22.8165C29.4655 24.8301 30.5967 27.5611 30.5967 30.4088V30.4088Z" fill="white"/>
<path d="M19.8594 39.7193C15.9315 39.7194 12.0919 38.5547 8.82593 36.3725C5.56 34.1904 3.0145 31.0887 1.51133 27.4599C0.00815821 23.831 -0.385178 19.8379 0.381062 15.9855C1.1473 12.1331 3.0387 8.59447 5.81609 5.81702C8.59347 3.03957 12.1321 1.14808 15.9845 0.381745C19.8369 -0.38459 23.83 0.0086478 27.4589 1.51173C31.0877 3.01481 34.1894 5.56023 36.3717 8.82611C38.5539 12.092 39.7187 15.9316 39.7188 19.8595C39.7129 25.1248 37.6187 30.1727 33.8956 33.8959C30.1726 37.619 25.1247 39.7134 19.8594 39.7193V39.7193ZM19.8594 1.00011C16.1293 1.00006 12.4829 2.10612 9.38144 4.17843C6.27996 6.25073 3.86264 9.1962 2.43516 12.6424C1.00769 16.0885 0.634188 19.8806 1.36188 23.539C2.08958 27.1974 3.88579 30.5579 6.52337 33.1955C9.16095 35.8331 12.5214 37.6293 16.1799 38.357C19.8383 39.0847 23.6304 38.7112 27.0765 37.2837C30.5227 35.8562 33.4681 33.4389 35.5404 30.3374C37.6127 27.2359 38.7188 23.5896 38.7188 19.8595C38.713 14.8594 36.7242 10.0658 33.1887 6.5302C29.6531 2.99462 24.8594 1.00582 19.8594 1.00011V1.00011Z" fill="white"/>
<path d="M64 64H25.313V38.285H26.313V63H63V26.313H38.285V25.313H64V64Z" fill="white"/>
<path d="M57.607 40.519H31.705V34.773H32.705V39.519H56.607V33.876H33.72V32.876H57.607V40.519Z" fill="white"/>
<path d="M57.6074 52.2804H31.7051V44.6368H57.6074V52.2804ZM32.7051 51.2804H56.6074V45.6368H32.7051V51.2804Z" fill="white"/>
<path d="M57.9849 57.234H47.79V58.234H57.9849V57.234Z" fill="white"/>
<path d="M25.813 54.774H9.22701V36.358H10.227V53.774H25.813V54.774Z" fill="white"/>
<path d="M54.774 25.813H53.774V10.226H36.356V9.22601H54.774V25.813Z" fill="white"/>
</g>
<defs>
<clipPath id="clip0_6_234">
<rect width="64.0001" height="64.0001" fill="white"/>
</clipPath>
</defs>
</svg>
