<svg width="64" height="65" viewBox="0 0 64 65" fill="none" xmlns="http://www.w3.org/2000/svg">
<g clip-path="url(#clip0_6_180)">
<path opacity="0.15" d="M19.8594 18.7104C20.8622 18.7104 21.8425 18.4131 22.6763 17.856C23.5101 17.2988 24.16 16.507 24.5437 15.5805C24.9275 14.654 25.0279 13.6346 24.8323 12.651C24.6367 11.6675 24.1538 10.7641 23.4447 10.055C22.7356 9.34588 21.8321 8.86299 20.8486 8.66735C19.8651 8.47172 18.8456 8.57213 17.9191 8.9559C16.9927 9.33966 16.2008 9.98954 15.6437 10.8234C15.0866 11.6572 14.7892 12.6375 14.7892 13.6403C14.7893 14.9849 15.3235 16.2745 16.2743 17.2253C17.2251 18.1762 18.5147 18.7103 19.8594 18.7104V18.7104Z" fill="#183A9E"/>
<path opacity="0.15" d="M19.8593 20.6984C18.5149 20.6984 17.1837 20.9632 15.9417 21.4777C14.6997 21.9922 13.5712 22.7462 12.6206 23.6968C11.67 24.6474 10.9159 25.776 10.4015 27.018C9.88704 28.26 9.62226 29.5912 9.62227 30.9355H30.0964C30.0964 29.5912 29.8316 28.26 29.3171 27.018C28.8027 25.7759 28.0486 24.6474 27.098 23.6968C26.1474 22.7462 25.0189 21.9921 23.7768 21.4777C22.5348 20.9632 21.2036 20.6984 19.8593 20.6984V20.6984Z" fill="#183A9E"/>
<path opacity="0.15" d="M57.107 40.5459H32.205V35.2989L33.72 33.9019H57.107V40.5459Z" fill="#183A9E"/>
<path opacity="0.15" d="M57.1075 45.6637H32.2052V52.3071H57.1075V45.6637Z" fill="#183A9E"/>
<path d="M19.8594 19.2105C18.7577 19.2105 17.6807 18.8839 16.7647 18.2718C15.8486 17.6597 15.1347 16.7897 14.7131 15.7719C14.2915 14.7541 14.1811 13.634 14.3961 12.5535C14.611 11.473 15.1415 10.4804 15.9206 9.70141C16.6996 8.92239 17.6921 8.39187 18.7727 8.17693C19.8532 7.962 20.9732 8.07231 21.991 8.49392C23.0089 8.91553 23.8789 9.62949 24.4909 10.5455C25.103 11.4616 25.4297 12.5385 25.4297 13.6402C25.428 15.117 24.8405 16.5329 23.7963 17.5771C22.752 18.6214 21.3362 19.2088 19.8594 19.2105ZM19.8594 9.06991C18.9555 9.06991 18.0718 9.33795 17.3202 9.84015C16.5687 10.3423 15.9829 11.0561 15.6369 11.8912C15.291 12.7264 15.2005 13.6453 15.3769 14.5319C15.5532 15.4184 15.9885 16.2328 16.6277 16.8719C17.2668 17.5111 18.0812 17.9464 18.9677 18.1227C19.8543 18.2991 20.7732 18.2086 21.6084 17.8627C22.4435 17.5167 23.1573 16.931 23.6595 16.1794C24.1616 15.4278 24.4297 14.5442 24.4297 13.6402C24.4283 12.4285 23.9463 11.2669 23.0895 10.4101C22.2327 9.55327 21.0711 9.07131 19.8594 9.06991V9.06991Z" fill="#204ECF"/>
<path d="M30.5967 30.9356H29.5967C29.5967 29.6569 29.3448 28.3908 28.8555 27.2094C28.3662 26.0281 27.6489 24.9547 26.7448 24.0505C25.8406 23.1463 24.7672 22.4291 23.5858 21.9398C22.4045 21.4504 21.1383 21.1986 19.8596 21.1986C18.5809 21.1986 17.3148 21.4504 16.1334 21.9398C14.9521 22.4291 13.8786 23.1463 12.9745 24.0505C12.0703 24.9547 11.3531 26.0281 10.8637 27.2094C10.3744 28.3908 10.1226 29.6569 10.1226 30.9356H9.12256C9.12256 28.088 10.2538 25.357 12.2674 23.3434C14.281 21.3298 17.012 20.1986 19.8596 20.1986C22.7073 20.1986 25.4383 21.3298 27.4519 23.3434C29.4655 25.357 30.5967 28.088 30.5967 30.9356V30.9356Z" fill="#204ECF"/>
<path d="M19.8594 40.2462C15.9315 40.2462 12.0919 39.0815 8.82593 36.8994C5.56 34.7172 3.0145 31.6156 1.51133 27.9867C0.00815821 24.3579 -0.385178 20.3648 0.381062 16.5124C1.1473 12.66 3.0387 9.12131 5.81609 6.34386C8.59347 3.56641 12.1321 1.67492 15.9845 0.908585C19.8369 0.14225 23.83 0.535488 27.4589 2.03857C31.0877 3.54165 34.1894 6.08707 36.3717 9.35295C38.5539 12.6188 39.7187 16.4585 39.7188 20.3863C39.7129 25.6516 37.6187 30.6996 33.8956 34.4227C30.1726 38.1459 25.1247 40.2402 19.8594 40.2462V40.2462ZM19.8594 1.52695C16.1293 1.5269 12.4829 2.63296 9.38144 4.70527C6.27996 6.77757 3.86264 9.72304 2.43516 13.1692C1.00769 16.6153 0.634188 20.4074 1.36188 24.0658C2.08958 27.7243 3.88579 31.0848 6.52337 33.7223C9.16095 36.3599 12.5214 38.1561 16.1799 38.8838C19.8383 39.6115 23.6304 39.238 27.0765 37.8105C30.5227 36.3831 33.4681 33.9657 35.5404 30.8643C37.6127 27.7628 38.7188 24.1164 38.7188 20.3863C38.713 15.3863 36.7242 10.5926 33.1887 7.05704C29.6531 3.52146 24.8594 1.53266 19.8594 1.52695V1.52695Z" fill="#204ECF"/>
<path d="M64 64.5269H25.313V38.8119H26.313V63.5269H63V26.8399H38.285V25.8399H64V64.5269Z" fill="#204ECF"/>
<path d="M57.607 41.0459H31.705V35.2999H32.705V40.0459H56.607V34.4029H33.72V33.4029H57.607V41.0459Z" fill="#204ECF"/>
<path d="M57.6074 52.8072H31.7051V45.1637H57.6074V52.8072ZM32.7051 51.8072H56.6074V46.1637H32.7051V51.8072Z" fill="#204ECF"/>
<path d="M57.9849 57.7608H47.79V58.7608H57.9849V57.7608Z" fill="#204ECF"/>
<path d="M25.813 55.3009H9.22701V36.8849H10.227V54.3009H25.813V55.3009Z" fill="#204ECF"/>
<path d="M54.774 26.3399H53.774V10.7529H36.356V9.75285H54.774V26.3399Z" fill="#204ECF"/>
</g>
<defs>
<clipPath id="clip0_6_180">
<rect width="64.0001" height="64.0001" fill="white" transform="translate(0 0.526855)"/>
</clipPath>
</defs>
</svg>
