<svg width="64" height="65" viewBox="0 0 64 64" fill="none" xmlns="http://www.w3.org/2000/svg">
<g clip-path="url(#clip0_6_168)">
<path opacity="0.15" d="M63.5001 51.0434H0.500111V58.5957H63.5001V51.0434Z" fill="#183A9E"/>
<path opacity="0.15" d="M43.4851 30.3801H20.5151V47.3393H43.4851V30.3801Z" fill="#183A9E"/>
<path d="M64.0001 59.0956H9.91821e-05V5.95793H64.0001V59.0956ZM1.0001 58.0956H63.0001V6.95793H1.0001V58.0956Z" fill="#204ECF"/>
<path d="M43.985 47.8393H20.0152V29.8799H43.985V47.8393ZM21.0153 46.8393H42.985V30.8799H21.0152L21.0153 46.8393Z" fill="#204ECF"/>
<path d="M40.8883 30.3799H39.8883V26.1025C39.8859 24.0119 39.0538 22.0078 37.5747 20.5304C36.0957 19.053 34.0906 18.2232 32.0001 18.2232C29.9096 18.2232 27.9045 19.053 26.4254 20.5304C24.9464 22.0078 24.1143 24.0119 24.1119 26.1025V30.3799H23.1119V26.1025C23.1144 23.7468 24.0519 21.4885 25.7185 19.8237C27.3851 18.1588 29.6444 17.2237 32.0001 17.2237C34.3558 17.2237 36.6151 18.1588 38.2817 19.8237C39.9482 21.4885 40.8858 23.7468 40.8883 26.1025V30.3799Z" fill="#204ECF"/>
<path d="M12.1574 14.1777C13.0894 14.1777 13.8449 13.4221 13.8449 12.4902C13.8449 11.5582 13.0894 10.8027 12.1574 10.8027C11.2255 10.8027 10.4699 11.5582 10.4699 12.4902C10.4699 13.4221 11.2255 14.1777 12.1574 14.1777Z" fill="#204ECF"/>
<path d="M6.53244 14.1777C7.46442 14.1777 8.21994 13.4221 8.21994 12.4902C8.21994 11.5582 7.46442 10.8027 6.53244 10.8027C5.60046 10.8027 4.84494 11.5582 4.84494 12.4902C4.84494 13.4221 5.60046 14.1777 6.53244 14.1777Z" fill="#204ECF"/>
<path d="M17.7824 14.1777C18.7144 14.1777 19.4699 13.4221 19.4699 12.4902C19.4699 11.5582 18.7144 10.8027 17.7824 10.8027C16.8505 10.8027 16.0949 11.5582 16.0949 12.4902C16.0949 13.4221 16.8505 14.1777 17.7824 14.1777Z" fill="#204ECF"/>
</g>
<defs>
<clipPath id="clip0_6_168">
<rect width="64.0001" height="64" fill="white" transform="translate(0 0.526855)"/>
</clipPath>
</defs>
</svg>
