<svg width="64" height="64" viewBox="0 0 64 64" fill="none" xmlns="http://www.w3.org/2000/svg">
<g clip-path="url(#clip0_6_222)">
<path opacity="0.3" d="M63.5001 50.5165H0.500111V58.0689H63.5001V50.5165Z" fill="#231F20"/>
<path opacity="0.3" d="M43.4851 29.8532H20.5151V46.8124H43.4851V29.8532Z" fill="#231F20"/>
<path d="M64.0001 58.5688H9.91821e-05V5.43109H64.0001V58.5688ZM1.0001 57.5688H63.0001V6.43109H1.0001V57.5688Z" fill="white"/>
<path d="M43.985 47.3124H20.0152V29.353H43.985V47.3124ZM21.0153 46.3124H42.985V30.353H21.0152L21.0153 46.3124Z" fill="white"/>
<path d="M40.8883 29.853H39.8883V25.5756C39.8859 23.4851 39.0538 21.481 37.5747 20.0035C36.0957 18.5261 34.0906 17.6963 32.0001 17.6963C29.9096 17.6963 27.9045 18.5261 26.4254 20.0035C24.9464 21.481 24.1143 23.4851 24.1119 25.5756V29.853H23.1119V25.5756C23.1144 23.2199 24.0519 20.9616 25.7185 19.2968C27.3851 17.632 29.6444 16.6968 32.0001 16.6968C34.3558 16.6968 36.6151 17.632 38.2817 19.2968C39.9482 20.9616 40.8858 23.2199 40.8883 25.5756V29.853Z" fill="white"/>
<path d="M12.1574 13.6508C13.0894 13.6508 13.8449 12.8953 13.8449 11.9633C13.8449 11.0313 13.0894 10.2758 12.1574 10.2758C11.2255 10.2758 10.4699 11.0313 10.4699 11.9633C10.4699 12.8953 11.2255 13.6508 12.1574 13.6508Z" fill="white"/>
<path d="M6.53244 13.6508C7.46442 13.6508 8.21994 12.8953 8.21994 11.9633C8.21994 11.0313 7.46442 10.2758 6.53244 10.2758C5.60046 10.2758 4.84494 11.0313 4.84494 11.9633C4.84494 12.8953 5.60046 13.6508 6.53244 13.6508Z" fill="white"/>
<path d="M17.7824 13.6508C18.7144 13.6508 19.4699 12.8953 19.4699 11.9633C19.4699 11.0313 18.7144 10.2758 17.7824 10.2758C16.8505 10.2758 16.0949 11.0313 16.0949 11.9633C16.0949 12.8953 16.8505 13.6508 17.7824 13.6508Z" fill="white"/>
</g>
<defs>
<clipPath id="clip0_6_222">
<rect width="64.0001" height="64" fill="white"/>
</clipPath>
</defs>
</svg>
