<svg width="64" height="64" viewBox="0 0 64 64" fill="none" xmlns="http://www.w3.org/2000/svg">
<g clip-path="url(#clip0_6_251)">
<path opacity="0.3" d="M21.5 17.75C24.5376 17.75 27 15.2876 27 12.25C27 9.21243 24.5376 6.75 21.5 6.75C18.4624 6.75 16 9.21243 16 12.25C16 15.2876 18.4624 17.75 21.5 17.75Z" fill="#231F20"/>
<path d="M21.5 18.75C20.2144 18.75 18.9577 18.3688 17.8888 17.6546C16.8199 16.9403 15.9868 15.9252 15.4948 14.7374C15.0028 13.5497 14.8741 12.2428 15.1249 10.9819C15.3757 9.72104 15.9948 8.56285 16.9038 7.65381C17.8129 6.74477 18.971 6.1257 20.2319 5.8749C21.4928 5.62409 22.7997 5.75282 23.9874 6.24479C25.1752 6.73676 26.1903 7.56988 26.9046 8.6388C27.6188 9.70772 28 10.9644 28 12.25C27.998 13.9733 27.3125 15.6254 26.094 16.844C24.8754 18.0625 23.2233 18.748 21.5 18.75V18.75ZM21.5 6.75C20.4122 6.75 19.3488 7.07257 18.4444 7.67692C17.5399 8.28127 16.8349 9.14025 16.4187 10.1452C16.0024 11.1502 15.8935 12.2561 16.1057 13.323C16.3179 14.3899 16.8417 15.3699 17.6109 16.1391C18.3801 16.9083 19.3601 17.4321 20.427 17.6443C21.4939 17.8565 22.5998 17.7476 23.6048 17.3313C24.6098 16.9151 25.4687 16.2101 26.0731 15.3056C26.6774 14.4012 27 13.3378 27 12.25C26.9983 10.7918 26.4183 9.3939 25.3872 8.36283C24.3561 7.33175 22.9582 6.75173 21.5 6.75V6.75Z" fill="white"/>
<path d="M41.353 48.903L34.717 42.268L35.424 41.561L41.353 47.489L49.849 38.994L50.556 39.701L41.353 48.903Z" fill="white"/>
<path d="M21.5 42.5C21.5 42.3308 21.5214 42.167 21.5254 41.9988L21.5 42C17.4455 42 13.482 40.7977 10.1108 38.5451C6.7396 36.2926 4.11206 33.0909 2.56046 29.345C1.00887 25.5991 0.602899 21.4773 1.3939 17.5007C2.18489 13.524 4.13733 9.8713 7.00431 7.00432C9.87128 4.13734 13.524 2.18491 17.5006 1.39391C21.4773 0.602914 25.5991 1.00888 29.345 2.56048C33.0909 4.11208 36.2926 6.73961 38.5451 10.1108C40.7977 13.482 42 17.4455 42 21.5L41.9987 21.5254C42.167 21.5215 42.3308 21.5 42.5 21.5C42.6683 21.5 42.8313 21.5213 42.9987 21.5254L43 21.5C43 17.2477 41.739 13.0909 39.3766 9.55525C37.0141 6.01959 33.6563 3.26388 29.7277 1.6366C25.7991 0.00931549 21.4761 -0.416456 17.3056 0.413126C13.135 1.24271 9.30403 3.29038 6.2972 6.29721C3.29037 9.30404 1.24269 13.135 0.413111 17.3056C-0.416471 21.4762 0.00930023 25.7991 1.63658 29.7277C3.26387 33.6563 6.01958 37.0142 9.55523 39.3766C13.0909 41.7391 17.2477 43 21.5 43L21.5253 42.9988C21.5213 42.8313 21.5 42.6685 21.5 42.5Z" fill="white"/>
<path d="M30.4659 25.3164C30.7388 25.1247 31.0192 24.9451 31.3014 24.7663C29.6955 22.725 27.493 21.2352 25.0006 20.5044C22.5081 19.7736 19.8499 19.8382 17.3959 20.6892C14.9419 21.5402 12.8144 23.1352 11.3095 25.2522C9.80464 27.3691 8.99734 29.9027 9.00001 32.5H10C9.99799 30.1177 10.7365 27.7938 12.1132 25.8497C13.49 23.9056 15.437 22.4374 17.6848 21.6485C19.9326 20.8595 22.37 20.7886 24.6598 21.4458C26.9497 22.1029 28.9786 23.4555 30.4659 25.3164Z" fill="white"/>
<path opacity="0.3" d="M30.4659 25.3164C28.9786 23.4555 26.9497 22.1029 24.6598 21.4458C22.37 20.7887 19.9326 20.8595 17.6848 21.6485C15.437 22.4375 13.49 23.9056 12.1132 25.8497C10.7365 27.7938 9.99799 30.1178 10 32.5H24.0375C25.5987 29.6425 27.7986 27.1841 30.4659 25.3164V25.3164Z" fill="#231F20"/>
<path d="M42.5 64C38.2477 64 34.0909 62.7391 30.5553 60.3766C27.0196 58.0142 24.2639 54.6563 22.6366 50.7277C21.0093 46.7991 20.5835 42.4762 21.4131 38.3056C22.2427 34.135 24.2904 30.304 27.2972 27.2972C30.304 24.2904 34.135 22.2427 38.3056 21.4131C42.4762 20.5835 46.7991 21.0093 50.7277 22.6366C54.6563 24.2639 58.0142 27.0196 60.3766 30.5553C62.7391 34.0909 64 38.2477 64 42.5C63.9936 48.2002 61.7264 53.6651 57.6957 57.6957C53.6651 61.7264 48.2002 63.9936 42.5 64V64ZM42.5 22C38.4455 22 34.482 23.2023 31.1108 25.4549C27.7396 27.7075 25.1121 30.9091 23.5605 34.655C22.0089 38.4009 21.6029 42.5228 22.3939 46.4994C23.1849 50.476 25.1373 54.1287 28.0043 56.9957C30.8713 59.8627 34.524 61.8151 38.5007 62.6061C42.4773 63.3971 46.5991 62.9911 50.345 61.4395C54.0909 59.8879 57.2926 57.2604 59.5451 53.8892C61.7977 50.518 63 46.5545 63 42.5C62.9939 37.065 60.8321 31.8543 56.9889 28.0111C53.1457 24.168 47.9351 22.0062 42.5 22V22Z" fill="white"/>
</g>
<defs>
<clipPath id="clip0_6_251">
<rect width="64" height="64" fill="white"/>
</clipPath>
</defs>
</svg>
