<svg width="64" height="64" viewBox="0 0 64 64" fill="none" xmlns="http://www.w3.org/2000/svg">
<g clip-path="url(#clip0_6_262)">
<path opacity="0.3" d="M34.2542 20.4669C37.2366 20.4669 39.6544 18.0492 39.6544 15.0668C39.6544 12.0843 37.2366 9.66663 34.2542 9.66663C31.2718 9.66663 28.8541 12.0843 28.8541 15.0668C28.8541 18.0492 31.2718 20.4669 34.2542 20.4669Z" fill="#231F20"/>
<path opacity="0.3" d="M21.3591 30.0568C24.3415 30.0568 26.7592 27.639 26.7592 24.6566C26.7592 21.6742 24.3415 19.2565 21.3591 19.2565C18.3767 19.2565 15.959 21.6742 15.959 24.6566C15.959 27.639 18.3767 30.0568 21.3591 30.0568Z" fill="#231F20"/>
<path opacity="0.3" d="M47.1494 30.0568C50.1318 30.0568 52.5495 27.639 52.5495 24.6566C52.5495 21.6742 50.1318 19.2565 47.1494 19.2565C44.167 19.2565 41.7492 21.6742 41.7492 24.6566C41.7492 27.639 44.167 30.0568 47.1494 30.0568Z" fill="#231F20"/>
<path d="M34.2539 20.9667C33.0869 20.9667 31.9462 20.6206 30.976 19.9722C30.0057 19.3239 29.2495 18.4024 28.803 17.3242C28.3565 16.2461 28.2397 15.0598 28.4674 13.9153C28.6951 12.7708 29.2571 11.7195 30.0823 10.8944C30.9074 10.0692 31.9588 9.50735 33.1033 9.27974C34.2478 9.05213 35.4342 9.16902 36.5122 9.61563C37.5903 10.0622 38.5118 10.8185 39.1601 11.7888C39.8083 12.7591 40.1543 13.8999 40.1543 15.0668C40.1526 16.6311 39.5304 18.1309 38.4242 19.237C37.318 20.3431 35.8182 20.9652 34.2539 20.9667ZM34.2539 10.1664C33.2847 10.1665 32.3374 10.4539 31.5316 10.9923C30.7258 11.5308 30.0978 12.2961 29.7269 13.1915C29.3561 14.0869 29.2591 15.0721 29.4481 16.0226C29.6372 16.9731 30.1039 17.8462 30.7892 18.5315C31.4745 19.2168 32.3476 19.6835 33.2981 19.8726C34.2486 20.0616 35.2338 19.9646 36.1292 19.5938C37.0246 19.2229 37.7899 18.5949 38.3284 17.7891C38.8668 16.9833 39.1542 16.036 39.1543 15.0668C39.1529 13.7676 38.6361 12.522 37.7174 11.6033C36.7987 10.6846 35.5531 10.1678 34.2539 10.1664Z" fill="white"/>
<path d="M21.3594 30.5566C20.1924 30.5567 19.0516 30.2108 18.0812 29.5625C17.1108 28.9143 16.3545 27.9929 15.9078 26.9148C15.4611 25.8366 15.3442 24.6503 15.5718 23.5057C15.7994 22.3611 16.3613 21.3098 17.1864 20.4845C18.0116 19.6593 19.0629 19.0973 20.2074 18.8697C21.352 18.642 22.5384 18.7588 23.6165 19.2054C24.6947 19.652 25.6162 20.4082 26.2645 21.3786C26.9128 22.3489 27.2588 23.4897 27.2588 24.6566C27.257 26.2208 26.635 27.7204 25.529 28.8264C24.423 29.9325 22.9235 30.5547 21.3594 30.5566V30.5566ZM21.3594 19.7563C20.3902 19.7561 19.4427 20.0434 18.6368 20.5817C17.8309 21.12 17.2027 21.8853 16.8317 22.7806C16.4607 23.676 16.3635 24.6613 16.5525 25.6118C16.7415 26.5624 17.2081 27.4356 17.8933 28.121C18.5786 28.8064 19.4517 29.2732 20.4022 29.4623C21.3528 29.6515 22.3381 29.5545 23.2335 29.1837C24.1289 28.8129 24.8943 28.1848 25.4328 27.379C25.9713 26.5732 26.2587 25.6258 26.2588 24.6566C26.2573 23.3576 25.7407 22.1122 24.8222 21.1935C23.9037 20.2748 22.6584 19.758 21.3594 19.7563V19.7563Z" fill="white"/>
<path d="M47.1494 30.5566C45.9825 30.5565 44.8417 30.2104 43.8715 29.5621C42.9012 28.9137 42.145 27.9922 41.6985 26.9141C41.252 25.8359 41.1352 24.6496 41.3629 23.5051C41.5906 22.3606 42.1526 21.3093 42.9778 20.4842C43.8029 19.6591 44.8543 19.0972 45.9988 18.8696C47.1433 18.642 48.3297 18.7589 49.4077 19.2055C50.4858 19.6521 51.4073 20.4084 52.0556 21.3787C52.7038 22.349 53.0498 23.4897 53.0498 24.6566C53.0481 26.221 52.4258 27.7207 51.3197 28.8268C50.2135 29.9329 48.7137 30.555 47.1494 30.5566V30.5566ZM47.1494 19.7563C46.1803 19.7563 45.2329 20.0437 44.4271 20.5822C43.6213 21.1206 42.9933 21.8859 42.6224 22.7813C42.2516 23.6767 42.1546 24.6619 42.3436 25.6124C42.5327 26.563 42.9994 27.4361 43.6847 28.1213C44.37 28.8066 45.2431 29.2733 46.1936 29.4624C47.1441 29.6515 48.1294 29.5545 49.0247 29.1836C49.9201 28.8128 50.6854 28.1847 51.2239 27.3789C51.7623 26.5731 52.0497 25.6258 52.0498 24.6566C52.0483 23.3574 51.5316 22.1118 50.6129 21.1932C49.6942 20.2745 48.4486 19.7577 47.1494 19.7563V19.7563Z" fill="white"/>
<path d="M34.7539 20.4667H33.7539V46.9091H34.7539V20.4667Z" fill="white"/>
<path d="M29.3541 46.909H28.3541V39.831L20.8591 35.176V30.057H21.8591V34.621L29.3541 39.276V46.909Z" fill="white"/>
<path d="M40.1541 46.909H39.1541V39.276L46.6491 34.621V30.057H47.6491V35.176L40.1541 39.831V46.909Z" fill="white"/>
<path d="M52.6133 63.9999H23.1601V57.6249H11.2314C10.2144 57.6238 9.23938 57.2193 8.52024 56.5002C7.80111 55.781 7.3966 54.806 7.39548 53.789V41.5702H2.73825L8.09079 21.1689C9.37971 15.2688 12.6154 9.97369 17.2774 6.13487C21.9395 2.29605 27.7572 0.136625 33.7949 0.00382303L33.8037 0.503823L33.7949 0.00382303C39.2202 -0.0898785 44.5466 1.46209 49.0724 4.45527C53.5983 7.44846 57.1112 11.7424 59.1485 16.7715C61.1858 21.8006 61.6518 27.3289 60.4852 32.6281C59.3186 37.9273 56.5741 42.7488 52.6133 46.4574V63.9999ZM24.1601 62.9999H51.6133V46.0204L51.7744 45.872C54.3991 43.4481 56.4947 40.508 57.9297 37.2361C59.3646 33.9642 60.108 30.4311 60.1133 26.8583C60.1248 20.479 57.7737 14.3214 53.5134 9.57324C49.253 4.82508 43.3853 1.82274 37.0421 1.14536C30.6989 0.46799 24.3295 2.16356 19.1626 5.90503C13.9956 9.64649 10.3973 15.1688 9.06149 21.4067L4.03512 40.5702H8.39548V53.789C8.39634 54.5409 8.6954 55.2617 9.22706 55.7934C9.75871 56.325 10.4795 56.6241 11.2314 56.6249H24.1601L24.1601 62.9999Z" fill="white"/>
</g>
<defs>
<clipPath id="clip0_6_262">
<rect width="64" height="64" fill="white"/>
</clipPath>
</defs>
</svg>
