<svg width="64" height="64" viewBox="0 0 64 64" fill="none" xmlns="http://www.w3.org/2000/svg">
<g clip-path="url(#clip0_6_208)">
<path opacity="0.15" d="M34.2541 20.4669C37.2365 20.4669 39.6542 18.0492 39.6542 15.0668C39.6542 12.0843 37.2365 9.66663 34.2541 9.66663C31.2717 9.66663 28.854 12.0843 28.854 15.0668C28.854 18.0492 31.2717 20.4669 34.2541 20.4669Z" fill="#183A9E"/>
<path opacity="0.15" d="M21.359 30.0568C24.3414 30.0568 26.7591 27.639 26.7591 24.6566C26.7591 21.6742 24.3414 19.2565 21.359 19.2565C18.3766 19.2565 15.9589 21.6742 15.9589 24.6566C15.9589 27.639 18.3766 30.0568 21.359 30.0568Z" fill="#183A9E"/>
<path opacity="0.15" d="M47.1492 30.0568C50.1317 30.0568 52.5494 27.639 52.5494 24.6566C52.5494 21.6742 50.1317 19.2565 47.1492 19.2565C44.1668 19.2565 41.7491 21.6742 41.7491 24.6566C41.7491 27.639 44.1668 30.0568 47.1492 30.0568Z" fill="#183A9E"/>
<path d="M34.2538 20.9667C33.0868 20.9667 31.9461 20.6206 30.9759 19.9722C30.0056 19.3239 29.2494 18.4024 28.8029 17.3242C28.3564 16.2461 28.2396 15.0598 28.4673 13.9153C28.695 12.7708 29.257 11.7195 30.0821 10.8944C30.9073 10.0692 31.9587 9.50735 33.1032 9.27974C34.2477 9.05213 35.434 9.16902 36.5121 9.61563C37.5902 10.0622 38.5117 10.8185 39.1599 11.7888C39.8082 12.7591 40.1542 13.8999 40.1542 15.0668C40.1525 16.6311 39.5303 18.1309 38.4241 19.237C37.3179 20.3431 35.8181 20.9652 34.2538 20.9667ZM34.2538 10.1664C33.2846 10.1665 32.3373 10.4539 31.5315 10.9923C30.7257 11.5308 30.0977 12.2961 29.7268 13.1915C29.356 14.0869 29.2589 15.0721 29.448 16.0226C29.6371 16.9731 30.1038 17.8462 30.7891 18.5315C31.4744 19.2168 32.3475 19.6835 33.298 19.8726C34.2485 20.0616 35.2337 19.9646 36.1291 19.5938C37.0245 19.2229 37.7898 18.5949 38.3282 17.7891C38.8667 16.9833 39.1541 16.036 39.1542 15.0668C39.1528 13.7676 38.636 12.522 37.7173 11.6033C36.7986 10.6846 35.553 10.1678 34.2538 10.1664Z" fill="#204ECF"/>
<path d="M21.3592 30.5566C20.1923 30.5567 19.0514 30.2108 18.0811 29.5625C17.1107 28.9143 16.3543 27.9929 15.9077 26.9148C15.461 25.8366 15.344 24.6503 15.5716 23.5057C15.7992 22.3611 16.3611 21.3098 17.1863 20.4845C18.0114 19.6593 19.0628 19.0973 20.2073 18.8697C21.3519 18.642 22.5382 18.7588 23.6164 19.2054C24.6945 19.652 25.616 20.4082 26.2644 21.3786C26.9127 22.3489 27.2587 23.4897 27.2586 24.6566C27.2569 26.2208 26.6348 27.7204 25.5289 28.8264C24.4229 29.9325 22.9234 30.5547 21.3592 30.5566V30.5566ZM21.3592 19.7563C20.3901 19.7561 19.4426 20.0434 18.6367 20.5817C17.8308 21.12 17.2026 21.8853 16.8316 22.7806C16.4606 23.676 16.3634 24.6613 16.5524 25.6118C16.7414 26.5624 17.208 27.4356 17.8932 28.121C18.5785 28.8064 19.4516 29.2732 20.4021 29.4623C21.3526 29.6515 22.3379 29.5545 23.2334 29.1837C24.1288 28.8129 24.8942 28.1848 25.4327 27.379C25.9712 26.5732 26.2586 25.6258 26.2586 24.6566C26.2572 23.3576 25.7406 22.1122 24.8221 21.1935C23.9036 20.2748 22.6583 19.758 21.3592 19.7563V19.7563Z" fill="#204ECF"/>
<path d="M47.1493 30.5566C45.9823 30.5565 44.8416 30.2104 43.8714 29.5621C42.9011 28.9137 42.1449 27.9922 41.6984 26.9141C41.2519 25.8359 41.1351 24.6496 41.3628 23.5051C41.5905 22.3606 42.1525 21.3093 42.9776 20.4842C43.8028 19.6591 44.8542 19.0972 45.9987 18.8696C47.1432 18.642 48.3295 18.7589 49.4076 19.2055C50.4857 19.6521 51.4072 20.4084 52.0554 21.3787C52.7037 22.349 53.0497 23.4897 53.0497 24.6566C53.0479 26.221 52.4257 27.7207 51.3195 28.8268C50.2134 29.9329 48.7136 30.555 47.1493 30.5566V30.5566ZM47.1493 19.7563C46.1801 19.7563 45.2328 20.0437 44.427 20.5822C43.6212 21.1206 42.9932 21.8859 42.6223 22.7813C42.2515 23.6767 42.1544 24.6619 42.3435 25.6124C42.5326 26.563 42.9993 27.4361 43.6846 28.1213C44.3699 28.8066 45.243 29.2733 46.1935 29.4624C47.144 29.6515 48.1292 29.5545 49.0246 29.1836C49.92 28.8128 50.6853 28.1847 51.2237 27.3789C51.7622 26.5731 52.0496 25.6258 52.0497 24.6566C52.0482 23.3574 51.5315 22.1118 50.6128 21.1932C49.6941 20.2745 48.4485 19.7577 47.1493 19.7563V19.7563Z" fill="#204ECF"/>
<path d="M34.7538 20.4667H33.7538V46.9091H34.7538V20.4667Z" fill="#204ECF"/>
<path d="M29.354 46.909H28.354V39.831L20.859 35.176V30.057H21.859V34.621L29.354 39.276V46.909Z" fill="#204ECF"/>
<path d="M40.154 46.909H39.154V39.276L46.649 34.621V30.057H47.649V35.176L40.154 39.831V46.909Z" fill="#204ECF"/>
<path d="M52.6131 63.9999H23.16V57.6249H11.2313C10.2143 57.6238 9.23925 57.2193 8.52012 56.5002C7.80098 55.781 7.39648 54.806 7.39536 53.789V41.5702H2.73813L8.09067 21.1689C9.37959 15.2688 12.6152 9.97369 17.2773 6.13487C21.9394 2.29605 27.7571 0.136625 33.7948 0.00382303L33.8036 0.503823L33.7948 0.00382303C39.22 -0.0898785 44.5464 1.46209 49.0723 4.45527C53.5981 7.44846 57.1111 11.7424 59.1484 16.7715C61.1857 21.8006 61.6517 27.3289 60.4851 32.6281C59.3185 37.9273 56.574 42.7488 52.6131 46.4574V63.9999ZM24.16 62.9999H51.6131V46.0204L51.7743 45.872C54.399 43.4481 56.4946 40.508 57.9296 37.2361C59.3645 33.9642 60.1079 30.4311 60.1131 26.8583C60.1247 20.479 57.7736 14.3214 53.5132 9.57324C49.2529 4.82508 43.3852 1.82274 37.042 1.14536C30.6987 0.46799 24.3294 2.16356 19.1624 5.90503C13.9955 9.64649 10.3971 15.1688 9.06137 21.4067L4.035 40.5702H8.39536V53.789C8.39622 54.5409 8.69528 55.2617 9.22693 55.7934C9.75859 56.325 10.4794 56.6241 11.2313 56.6249H24.16L24.16 62.9999Z" fill="#204ECF"/>
</g>
<defs>
<clipPath id="clip0_6_208">
<rect width="64" height="64" fill="white"/>
</clipPath>
</defs>
</svg>
