<svg width="65" height="64" viewBox="0 0 65 64" fill="none" xmlns="http://www.w3.org/2000/svg">
<g clip-path="url(#clip0_6_280)">
<path opacity="0.15" d="M31.9864 21.1336C29.8387 21.1337 27.7392 21.7707 25.9535 22.9641C24.1678 24.1574 22.776 25.8535 21.9542 27.8378C21.1324 29.8221 20.9175 32.0055 21.3366 34.112C21.7557 36.2184 22.79 38.1533 24.3087 39.672C25.8275 41.1906 27.7624 42.2248 29.8689 42.6437C31.9754 43.0627 34.1588 42.8476 36.1431 42.0256C38.1273 41.2037 39.8233 39.8118 41.0165 38.026C42.2097 36.2402 42.8466 34.1407 42.8466 31.9929C42.8466 30.5668 42.5656 29.1547 42.0198 27.8371C41.474 26.5195 40.6741 25.3224 39.6656 24.314C38.6571 23.3056 37.4599 22.5057 36.1423 21.96C34.8247 21.4143 33.4126 21.1335 31.9864 21.1336V21.1336ZM31.9864 38.5638C30.6869 38.5637 29.4165 38.1782 28.3359 37.4562C27.2554 36.7341 26.4133 35.7078 25.916 34.5071C25.4188 33.3064 25.2887 31.9852 25.5423 30.7106C25.7959 29.436 26.4218 28.2652 27.3408 27.3463C28.2597 26.4274 29.4306 25.8016 30.7052 25.5481C31.9798 25.2947 33.301 25.4248 34.5017 25.9222C35.7023 26.4195 36.7285 27.2618 37.4505 28.3424C38.1725 29.4229 38.5579 30.6934 38.5578 31.9929C38.5578 33.7357 37.8654 35.4071 36.633 36.6393C35.4006 37.8716 33.7292 38.5638 31.9864 38.5638V38.5638Z" fill="#183A9E"/>
<path d="M31.9864 39.0087C30.5989 39.0086 29.2425 38.5971 28.0889 37.8261C26.9352 37.0552 26.0361 35.9595 25.5052 34.6775C24.9742 33.3956 24.8354 31.985 25.1061 30.6241C25.3769 29.2632 26.0451 28.0132 27.0263 27.0321C28.0074 26.051 29.2575 25.3829 30.6184 25.1122C31.9793 24.8416 33.3899 24.9805 34.6718 25.5115C35.9537 26.0425 37.0493 26.9418 37.8202 28.0955C38.5911 29.2492 39.0025 30.6056 39.0025 31.9931C39.0004 33.8532 38.2605 35.6365 36.9452 36.9517C35.6298 38.2669 33.8465 39.0067 31.9864 39.0087V39.0087ZM31.9864 25.9775C30.7966 25.9776 29.6336 26.3304 28.6444 26.9915C27.6552 27.6526 26.8843 28.5921 26.429 29.6913C25.9738 30.7906 25.8547 32.0001 26.0869 33.167C26.3191 34.3339 26.892 35.4057 27.7334 36.247C28.5747 37.0882 29.6466 37.6611 30.8135 37.8932C31.9804 38.1252 33.1899 38.0061 34.2891 37.5508C35.3883 37.0954 36.3277 36.3244 36.9887 35.3351C37.6497 34.3459 38.0025 33.1828 38.0025 31.9931C38.0006 30.3981 37.3662 28.8691 36.2383 27.7413C35.1105 26.6135 33.5814 25.9792 31.9864 25.9775V25.9775Z" fill="#204ECF"/>
<path d="M32.0001 63.996C27.095 63.9925 22.2564 62.8616 17.8579 60.6908C13.4594 58.5199 9.6187 55.3672 6.63239 51.476L7.42633 50.8676C11.5607 56.2926 17.384 60.1863 23.9771 61.934C31.9161 64.0545 40.372 62.9392 47.4898 58.8329C54.6075 54.7265 59.8057 47.9644 61.9439 40.0302C63.7308 33.4478 63.2745 26.4577 60.647 20.1635L61.5709 19.7807C64.2832 26.2782 64.7543 33.494 62.9097 40.289C61.0763 47.0867 57.0559 53.0917 51.4692 57.3765C45.8826 61.6613 39.0406 63.9875 32.0001 63.996Z" fill="#204ECF"/>
<path d="M2.44491 44.2192C-0.267459 37.7217 -0.738538 30.5059 1.10604 23.7109C3.313 15.5205 8.67879 8.54014 16.0261 4.3012C23.3735 0.062264 32.1023 -1.089 40.2975 1.1C47.1037 2.90413 53.1153 6.92355 57.3834 12.5239L56.5894 13.1323C52.4551 7.7072 46.6318 3.81353 40.0387 2.06584C32.0997 -0.0545332 23.6438 1.06079 16.5261 5.16713C9.40839 9.27347 4.21018 16.0355 2.07186 23.9697C0.284966 30.5521 0.74127 37.5421 3.36874 43.8364L2.44491 44.2192Z" fill="#204ECF"/>
<path d="M37.7174 53.3344L34.8854 48.728C32.9768 49.0563 31.0261 49.0554 29.1178 48.7255L26.2848 53.3344L25.92 53.2299C23.5094 52.541 21.2342 51.4455 19.1924 49.9907L18.8834 49.7704L20.7237 44.6728C19.2796 43.3885 18.0659 41.8665 17.1353 40.1728L11.7549 40.8325L11.6094 40.4819C10.645 38.168 10.083 35.7063 9.94782 33.2031L9.92682 32.8241L15.0694 31.081C15.1705 29.1538 15.6023 27.2584 16.3458 25.4775L12.4713 21.6787L12.6544 21.3461C13.8624 19.1495 15.4368 17.1753 17.3096 15.5087L17.5928 15.2563L22.1592 18.1879C23.7299 17.0646 25.4822 16.2199 27.3394 15.6909L27.8941 10.2959L28.2681 10.2319C30.7389 9.80705 33.2641 9.80705 35.7349 10.2319L36.1089 10.2959L36.6626 15.6865C38.5229 16.2143 40.2781 17.059 41.8511 18.1836L46.4097 15.2563L46.6929 15.5088C48.5656 17.1754 50.14 19.1496 51.3482 21.3462L51.5313 21.6787L47.667 25.4673C48.4144 27.2526 48.8481 29.1535 48.9488 31.0864L54.0752 32.8242L54.0542 33.2031C53.9192 35.7063 53.3574 38.168 52.3931 40.4819L52.2476 40.8325L46.8819 40.1748C45.9486 41.8724 44.731 43.3975 43.2823 44.6836L45.1187 49.7705L44.8096 49.9907C42.7679 51.4456 40.4927 52.5412 38.0821 53.2299L37.7174 53.3344ZM20.0831 49.393C21.8474 50.6028 23.7861 51.5362 25.8321 52.1611L28.6265 47.6157L28.9659 47.6816C30.9712 48.0702 33.0325 48.0709 35.0381 47.6836L35.3775 47.6186L38.17 52.1611C40.2162 51.5363 42.155 50.6029 43.9195 49.393L42.108 44.3754L42.3712 44.1508C43.9264 42.8259 45.2127 41.2147 46.1602 39.4047L46.3209 39.0981L51.6124 39.747C52.3995 37.7578 52.8782 35.66 53.0318 33.5263L47.9757 31.8124L47.9644 31.4667C47.8998 29.4269 47.4417 27.4187 46.6153 25.5527L46.4747 25.2358L50.2867 21.4985C49.222 19.6429 47.8804 17.9606 46.3082 16.5097L41.8121 19.3969L41.5347 19.1899C39.9006 17.9703 38.0461 17.0782 36.0733 16.5625L35.7383 16.4746L35.1924 11.1567C33.0775 10.833 30.9255 10.833 28.8106 11.1567L28.2637 16.478L27.9293 16.5659C25.9595 17.0836 24.108 17.9762 22.4761 19.1948L22.1983 19.4018L17.6944 16.5097C16.122 17.9604 14.7804 19.6427 13.7159 21.4985L17.5377 25.2456L17.398 25.5625C16.5752 27.4242 16.1187 29.427 16.0533 31.4614L16.0421 31.8071L10.9703 33.5263C11.1238 35.6601 11.6027 37.7579 12.3902 39.747L17.6964 39.0961L17.857 39.4028C18.8021 41.2091 20.0847 42.8175 21.6353 44.141L21.8975 44.3656L20.0831 49.393Z" fill="#204ECF"/>
<path d="M57.499 13.343H48.734V12.343H56.499V4.58H57.499V13.343Z" fill="#204ECF"/>
<path d="M7.52899 59.435H6.52899V50.672H15.293V51.672H7.52899V59.435Z" fill="#204ECF"/>
</g>
<defs>
<clipPath id="clip0_6_280">
<rect width="64.0158" height="64" fill="white"/>
</clipPath>
</defs>
</svg>
