<svg width="64" height="64" viewBox="0 0 64 64" fill="none" xmlns="http://www.w3.org/2000/svg">
<g clip-path="url(#clip0_6_360)">
<path opacity="0.3" d="M60.211 23.7362H3.78906L11.2877 10.3324C12.0691 8.93561 13.2088 7.77248 14.5895 6.96288C15.9701 6.15327 17.5416 5.72647 19.1421 5.72647H44.858C46.4585 5.72647 48.03 6.15327 49.4107 6.96288C50.7913 7.77248 51.931 8.93561 52.7124 10.3324L60.211 23.7362Z" fill="#231F20"/>
<path opacity="0.3" d="M49.7188 49.276H63.5V54.8983C63.5 55.7934 63.1444 56.6518 62.5115 57.2847C61.8785 57.9177 61.0201 58.2733 60.125 58.2733H53.0938C52.1986 58.2733 51.3402 57.9177 50.7073 57.2847C50.0743 56.6518 49.7188 55.7934 49.7188 54.8983V49.276Z" fill="#231F20"/>
<path opacity="0.3" d="M13.7188 33.6726H50.2813V37.4994C50.2813 38.0018 50.1823 38.4994 49.99 38.9636C49.7977 39.4278 49.5159 39.8496 49.1606 40.2049C48.8053 40.5602 48.3835 40.8421 47.9192 41.0344C47.455 41.2266 46.9575 41.3256 46.455 41.3256H17.545C16.5302 41.3256 15.557 40.9225 14.8394 40.2049C14.1219 39.4874 13.7188 38.5142 13.7188 37.4994V33.6726H13.7188Z" fill="#231F20"/>
<g opacity="0.3">
<path opacity="0.3" d="M0.5 49.276H14.2813V54.8983C14.2813 55.7934 13.9257 56.6518 13.2928 57.2847C12.6598 57.9177 11.8014 58.2733 10.9063 58.2733H3.875C2.9799 58.2733 2.12147 57.9177 1.48853 57.2848C0.855598 56.6518 0.500013 55.7934 0.5 54.8983V49.276Z" fill="#231F20"/>
</g>
<path d="M59.7744 23.9804L52.2759 10.5765C51.5372 9.25794 50.4607 8.1599 49.1569 7.39535C47.8532 6.6308 46.3693 6.22733 44.8579 6.22644H19.1421C17.6307 6.22733 16.1468 6.6308 14.8431 7.39535C13.5393 8.1599 12.4628 9.25794 11.7241 10.5765L4.2256 23.9804L3.3526 23.4921L10.8511 10.0883C11.6767 8.61454 12.88 7.38734 14.3372 6.53285C15.7944 5.67836 17.4529 5.22744 19.1421 5.22644H44.8579C46.5472 5.22744 48.2056 5.67837 49.6628 6.53285C51.12 7.38734 52.3233 8.61454 53.1489 10.0883L60.6474 23.4921L59.7744 23.9804Z" fill="white"/>
<path d="M64 49.7763H0V27.1113C0.00114872 26.0839 0.409775 25.099 1.13623 24.3725C1.86268 23.646 2.84764 23.2374 3.875 23.2363H60.125C61.1524 23.2374 62.1373 23.646 62.8638 24.3725C63.5902 25.0989 63.9988 26.0839 64 27.1112V49.7763ZM1 48.7763H63V27.1113C62.9992 26.349 62.696 25.6182 62.1571 25.0792C61.6181 24.5402 60.8873 24.2371 60.125 24.2363H3.875C3.11275 24.2371 2.38195 24.5402 1.84296 25.0792C1.30397 25.6182 1.0008 26.349 1 27.1112V48.7763Z" fill="white"/>
<path d="M10.9063 58.7733H3.875C2.84764 58.7722 1.86269 58.3635 1.13623 57.6371C0.409779 56.9106 0.00115136 55.9257 0 54.8983L0 48.7762H14.7813V54.8983C14.7801 55.9257 14.3715 56.9106 13.645 57.6371C12.9186 58.3635 11.9336 58.7722 10.9063 58.7733V58.7733ZM1 49.7762V54.8983C1.00079 55.6606 1.30395 56.3914 1.84295 56.9304C2.38194 57.4694 3.11275 57.7725 3.875 57.7733H10.9062C11.6685 57.7725 12.3993 57.4694 12.9383 56.9304C13.4773 56.3914 13.7805 55.6606 13.7812 54.8983V49.7762H1Z" fill="white"/>
<path d="M60.125 58.7733H53.0938C52.0664 58.7722 51.0814 58.3635 50.355 57.6371C49.6285 56.9106 49.2199 55.9257 49.2188 54.8983V48.7762H64V54.8983C63.9988 55.9257 63.5902 56.9106 62.8637 57.6371C62.1373 58.3635 61.1523 58.7722 60.125 58.7733V58.7733ZM50.2187 49.7762V54.8983C50.2195 55.6606 50.5227 56.3914 51.0617 56.9304C51.6007 57.4694 52.3315 57.7725 53.0937 57.7733H60.125C60.8872 57.7725 61.618 57.4694 62.157 56.9304C62.696 56.3914 62.9992 55.6606 63 54.8983V49.7762H50.2187Z" fill="white"/>
<path d="M46.4551 41.8256H17.5449C16.398 41.8242 15.2984 41.368 14.4874 40.5569C13.6763 39.7459 13.2201 38.6463 13.2188 37.4994V33.1727H50.7812V37.4994C50.7799 38.6463 50.3237 39.7459 49.5126 40.5569C48.7016 41.368 47.602 41.8242 46.4551 41.8256V41.8256ZM14.2188 34.1727V37.4994C14.2198 38.3812 14.5705 39.2267 15.1941 39.8502C15.8176 40.4738 16.6631 40.8245 17.5449 40.8256H46.4551C47.3369 40.8245 48.1824 40.4738 48.8059 39.8502C49.4295 39.2267 49.7802 38.3812 49.7812 37.4994V34.1727H14.2188Z" fill="white"/>
<path d="M14.2188 33.6132H13.2188C13.2177 32.747 12.8732 31.9166 12.2607 31.3041C11.6482 30.6917 10.8178 30.3471 9.95168 30.3461H0.5V29.3461H9.95168C11.083 29.3473 12.1676 29.7973 12.9676 30.5972C13.7676 31.3972 14.2175 32.4818 14.2188 33.6132Z" fill="white"/>
<path d="M13.7188 37.9989H4.26711C3.13578 37.9977 2.05114 37.5477 1.25117 36.7477C0.451192 35.9478 0.0012282 34.8631 0 33.7318H1C1.00105 34.598 1.3456 35.4284 1.95807 36.0408C2.57054 36.6533 3.40093 36.9979 4.26709 36.9989H13.7188L13.7188 37.9989Z" fill="white"/>
<path d="M50.7812 33.6132H49.7812C49.7825 32.4818 50.2324 31.3972 51.0324 30.5972C51.8324 29.7973 52.917 29.3473 54.0483 29.3461H63.5V30.3461H54.0483C53.1822 30.3471 52.3518 30.6917 51.7393 31.3041C51.1268 31.9166 50.7823 32.747 50.7812 33.6132V33.6132Z" fill="white"/>
<path d="M59.7329 37.9989H50.2812V36.9989H59.7329C60.5991 36.9978 61.4295 36.6533 62.0419 36.0408C62.6544 35.4284 62.9989 34.598 63 33.7318H64C63.9988 34.8631 63.5488 35.9478 62.7488 36.7477C61.9489 37.5477 60.8642 37.9977 59.7329 37.9989V37.9989Z" fill="white"/>
</g>
<defs>
<clipPath id="clip0_6_360">
<rect width="64" height="64" fill="white"/>
</clipPath>
</defs>
</svg>
