<svg width="65" height="65" viewBox="0 0 65 65" fill="none" xmlns="http://www.w3.org/2000/svg">
<g clip-path="url(#clip0_6_349)">
<path opacity="0.3" d="M31.9864 21.6069C29.8387 21.6071 27.7392 22.2441 25.9535 23.4374C24.1678 24.6308 22.776 26.3268 21.9542 28.3111C21.1324 30.2955 20.9175 32.4789 21.3366 34.5854C21.7557 36.6918 22.79 38.6267 24.3087 40.1453C25.8275 41.664 27.7624 42.6982 29.8689 43.1171C31.9754 43.5361 34.1588 43.321 36.1431 42.499C38.1273 41.6771 39.8233 40.2852 41.0165 38.4994C42.2097 36.7136 42.8466 34.6141 42.8466 32.4663C42.8466 31.0402 42.5656 29.628 42.0198 28.3105C41.474 26.9929 40.6741 25.7958 39.6656 24.7874C38.6571 23.779 37.4599 22.9791 36.1423 22.4334C34.8247 21.8877 33.4126 21.6069 31.9864 21.6069V21.6069ZM31.9864 39.0372C30.6869 39.0371 29.4165 38.6516 28.3359 37.9295C27.2554 37.2074 26.4133 36.1812 25.916 34.9805C25.4188 33.7798 25.2887 32.4586 25.5423 31.184C25.7959 29.9094 26.4218 28.7386 27.3408 27.8197C28.2597 26.9008 29.4306 26.275 30.7052 26.0215C31.9798 25.768 33.301 25.8982 34.5017 26.3956C35.7023 26.8929 36.7285 27.7351 37.4505 28.8157C38.1725 29.8963 38.5579 31.1667 38.5578 32.4663C38.5578 34.2091 37.8654 35.8804 36.633 37.1127C35.4006 38.345 33.7292 39.0372 31.9864 39.0372V39.0372Z" fill="#231F20"/>
<path d="M31.9864 39.4821C30.5989 39.482 29.2425 39.0705 28.0889 38.2995C26.9352 37.5286 26.0361 36.4328 25.5052 35.1509C24.9742 33.869 24.8354 32.4584 25.1061 31.0975C25.3769 29.7366 26.0451 28.4866 27.0263 27.5055C28.0074 26.5244 29.2575 25.8563 30.6184 25.5856C31.9793 25.3149 33.3899 25.4539 34.6718 25.9849C35.9537 26.5159 37.0493 27.4151 37.8202 28.5689C38.5911 29.7226 39.0025 31.0789 39.0025 32.4665C39.0004 34.3266 38.2605 36.1098 36.9452 37.4251C35.6298 38.7403 33.8465 39.4801 31.9864 39.4821V39.4821ZM31.9864 26.4509C30.7966 26.4509 29.6336 26.8038 28.6444 27.4649C27.6552 28.126 26.8843 29.0655 26.429 30.1647C25.9738 31.264 25.8547 32.4735 26.0869 33.6404C26.3191 34.8073 26.892 35.8791 27.7334 36.7203C28.5747 37.5616 29.6466 38.1345 30.8135 38.3666C31.9804 38.5986 33.1899 38.4795 34.2891 38.0242C35.3883 37.5688 36.3277 36.7978 36.9887 35.8085C37.6497 34.8193 38.0025 33.6562 38.0025 32.4665C38.0006 30.8715 37.3662 29.3424 36.2383 28.2147C35.1105 27.0869 33.5814 26.4526 31.9864 26.4509V26.4509Z" fill="white"/>
<path d="M32.0001 64.4694C27.095 64.4659 22.2564 63.335 17.8579 61.1642C13.4594 58.9933 9.6187 55.8406 6.63239 51.9494L7.42633 51.341C11.5607 56.766 17.384 60.6597 23.9771 62.4074C31.9161 64.5279 40.372 63.4126 47.4898 59.3063C54.6075 55.1999 59.8057 48.4378 61.9439 40.5036C63.7308 33.9212 63.2745 26.9311 60.647 20.6369L61.5709 20.2541C64.2832 26.7516 64.7543 33.9674 62.9097 40.7624C61.0763 47.5601 57.0559 53.5651 51.4692 57.8499C45.8826 62.1347 39.0406 64.461 32.0001 64.4694Z" fill="white"/>
<path d="M2.44491 44.6926C-0.267459 38.1951 -0.738538 30.9792 1.10604 24.1842C3.313 15.9939 8.67879 9.01352 16.0261 4.77459C23.3735 0.535653 32.1023 -0.615611 40.2975 1.57339C47.1037 3.37751 53.1153 7.39694 57.3834 12.9972L56.5894 13.6056C52.4551 8.18059 46.6318 4.28692 40.0387 2.53923C32.0997 0.418855 23.6438 1.53418 16.5261 5.64052C9.40839 9.74686 4.21018 16.5089 2.07186 24.443C0.284966 31.0254 0.74127 38.0155 3.36874 44.3097L2.44491 44.6926Z" fill="white"/>
<path d="M37.7174 53.8078L34.8854 49.2013C32.9768 49.5296 31.0261 49.5288 29.1178 49.1989L26.2848 53.8078L25.92 53.7033C23.5094 53.0144 21.2342 51.9189 19.1924 50.464L18.8834 50.2438L20.7237 45.1462C19.2796 43.8619 18.0659 42.3399 17.1353 40.6462L11.7549 41.3058L11.6094 40.9552C10.645 38.6413 10.083 36.1796 9.94782 33.6764L9.92682 33.2975L15.0694 31.5544C15.1705 29.6272 15.6023 27.7317 16.3458 25.9509L12.4713 22.152L12.6544 21.8195C13.8624 19.6228 15.4368 17.6486 17.3096 15.9821L17.5928 15.7297L22.1592 18.6613C23.7299 17.5379 25.4822 16.6933 27.3394 16.1642L27.8941 10.7692L28.2681 10.7052C30.7389 10.2804 33.2641 10.2804 35.7349 10.7052L36.1089 10.7692L36.6626 16.1599C38.5229 16.6877 40.2781 17.5324 41.8511 18.6569L46.4097 15.7297L46.6929 15.9821C48.5656 17.6488 50.14 19.6229 51.3482 21.8195L51.5313 22.1521L47.667 25.9406C48.4144 27.726 48.8481 29.6269 48.9488 31.5598L54.0752 33.2976L54.0542 33.6765C53.9192 36.1796 53.3574 38.6413 52.3931 40.9553L52.2476 41.3059L46.8819 40.6481C45.9486 42.3458 44.731 43.8708 43.2823 45.1569L45.1187 50.2438L44.8096 50.4641C42.7679 51.919 40.4927 53.0145 38.0821 53.7033L37.7174 53.8078ZM20.0831 49.8664C21.8474 51.0762 23.7861 52.0096 25.8321 52.6344L28.6265 48.089L28.9659 48.155C30.9712 48.5436 33.0325 48.5442 35.0381 48.157L35.3775 48.092L38.17 52.6344C40.2162 52.0097 42.155 51.0763 43.9195 49.8664L42.108 44.8488L42.3712 44.6242C43.9264 43.2993 45.2127 41.6881 46.1602 39.8781L46.3209 39.5714L51.6124 40.2204C52.3995 38.2312 52.8782 36.1334 53.0318 33.9997L47.9757 32.2858L47.9644 31.9401C47.8998 29.9003 47.4417 27.8921 46.6153 26.026L46.4747 25.7091L50.2867 21.9718C49.222 20.1162 47.8804 18.434 46.3082 16.9831L41.8121 19.8703L41.5347 19.6633C39.9006 18.4437 38.0461 17.5515 36.0733 17.0358L35.7383 16.9479L35.1924 11.6301C33.0775 11.3063 30.9255 11.3063 28.8106 11.6301L28.2637 16.9514L27.9293 17.0393C25.9595 17.5569 24.108 18.4495 22.4761 19.6682L22.1983 19.8752L17.6944 16.9831C16.122 18.4338 14.7804 20.1161 13.7159 21.9719L17.5377 25.7189L17.398 26.0358C16.5752 27.8976 16.1187 29.9003 16.0533 31.9347L16.0421 32.2804L10.9703 33.9997C11.1238 36.1335 11.6027 38.2313 12.3902 40.2204L17.6964 39.5695L17.857 39.8761C18.8021 41.6824 20.0847 43.2909 21.6353 44.6144L21.8975 44.839L20.0831 49.8664Z" fill="white"/>
<path d="M57.499 13.8164H48.734V12.8164H56.499V5.05338H57.499V13.8164Z" fill="white"/>
<path d="M7.52899 59.9084H6.52899V51.1454H15.293V52.1454H7.52899V59.9084Z" fill="white"/>
</g>
<defs>
<clipPath id="clip0_6_349">
<rect width="64.0158" height="64" fill="white" transform="translate(0 0.473389)"/>
</clipPath>
</defs>
</svg>
