<svg width="64" height="65" viewBox="0 0 64 65" fill="none" xmlns="http://www.w3.org/2000/svg">
<g clip-path="url(#clip0_6_378)">
<path opacity="0.3" d="M16.25 44.6074L24.673 42.6474V23.4244L16.25 29.3044V44.6074Z" fill="#231F20"/>
<path opacity="0.3" d="M16.25 63.9734H24.673V54.1064L16.25 59.9864V63.9734Z" fill="#231F20"/>
<path opacity="0.3" d="M39.327 23.4244V42.6474L47.75 44.6074V29.3044L39.327 23.4244Z" fill="#231F20"/>
<path opacity="0.3" d="M39.327 63.9734H47.75V59.9864L39.327 54.1064V63.9734Z" fill="#231F20"/>
<path d="M48.25 64.4734H15.75V59.7263L24.1733 53.8459V43.2771L0 48.9021V40.0388L24.1733 23.1638V8.30005C24.1733 6.22429 24.9979 4.23355 26.4657 2.76576C27.9335 1.29798 29.9242 0.473389 32 0.473389C34.0758 0.473389 36.0665 1.29798 37.5343 2.76576C39.0021 4.23355 39.8267 6.22429 39.8267 8.30005V23.1638L64 40.0388V48.9021L39.8267 43.2771V53.8459L48.25 59.7263V64.4734ZM16.75 63.4734H47.25V60.2478L38.8267 54.3674V42.0174L63 47.6424V40.5604L38.8267 23.6854V8.30005C38.8267 6.48951 38.1074 4.75312 36.8272 3.47287C35.5469 2.19262 33.8105 1.47339 32 1.47339C30.1895 1.47339 28.4531 2.19262 27.1728 3.47287C25.8926 4.75312 25.1733 6.48951 25.1733 8.30005V23.6853L1 40.5603V47.6423L25.1733 42.0173V54.3674L16.75 60.2478V63.4734Z" fill="white"/>
<path d="M39.8267 23.4246H38.8267V42.6472H39.8267V23.4246Z" fill="white"/>
<path d="M25.1733 23.4246H24.1733V42.6472H25.1733V23.4246Z" fill="white"/>
<path d="M25.1733 54.1067H24.1733V63.9734H25.1733V54.1067Z" fill="white"/>
<path d="M39.8267 54.1067H38.8267V63.9734H39.8267V54.1067Z" fill="white"/>
<path d="M32.5 54.1067H31.5V63.9734H32.5V54.1067Z" fill="white"/>
</g>
<defs>
<clipPath id="clip0_6_378">
<rect width="64" height="64.0001" fill="white" transform="translate(0 0.473389)"/>
</clipPath>
</defs>
</svg>
