<svg width="64" height="64" viewBox="0 0 64 64" fill="none" xmlns="http://www.w3.org/2000/svg">
<g clip-path="url(#clip0_6_309)">
<path opacity="0.15" d="M16.25 44.134L24.673 42.174V22.951L16.25 28.831V44.134Z" fill="#183A9E"/>
<path opacity="0.15" d="M16.25 63.5H24.673V53.633L16.25 59.513V63.5Z" fill="#183A9E"/>
<path opacity="0.15" d="M39.327 22.951V42.174L47.75 44.134V28.831L39.327 22.951Z" fill="#183A9E"/>
<path opacity="0.15" d="M39.327 63.5H47.75V59.513L39.327 53.633V63.5Z" fill="#183A9E"/>
<path d="M48.25 64H15.75V59.2529L24.1733 53.3726V42.8037L0 48.4287V39.5654L24.1733 22.6904V7.82666C24.1733 5.7509 24.9979 3.76016 26.4657 2.29238C27.9335 0.824592 29.9242 0 32 0C34.0758 0 36.0665 0.824592 37.5343 2.29238C39.0021 3.76016 39.8267 5.7509 39.8267 7.82666V22.6904L64 39.5654V48.4287L39.8267 42.8037V53.3726L48.25 59.2529V64ZM16.75 63H47.25V59.7744L38.8267 53.894V41.544L63 47.169V40.087L38.8267 23.212V7.82666C38.8267 6.01612 38.1074 4.27973 36.8272 2.99948C35.5469 1.71924 33.8105 1 32 1C30.1895 1 28.4531 1.71924 27.1728 2.99948C25.8926 4.27973 25.1733 6.01612 25.1733 7.82666V23.2119L1 40.0869V47.1689L25.1733 41.5439V53.894L16.75 59.7744V63Z" fill="#204ECF"/>
<path d="M39.8267 22.9512H38.8267V42.1738H39.8267V22.9512Z" fill="#204ECF"/>
<path d="M25.1733 22.9512H24.1733V42.1738H25.1733V22.9512Z" fill="#204ECF"/>
<path d="M25.1733 53.6333H24.1733V63.5H25.1733V53.6333Z" fill="#204ECF"/>
<path d="M39.8267 53.6333H38.8267V63.5H39.8267V53.6333Z" fill="#204ECF"/>
<path d="M32.5 53.6333H31.5V63.5H32.5V53.6333Z" fill="#204ECF"/>
</g>
<defs>
<clipPath id="clip0_6_309">
<rect width="64" height="64.0001" fill="white"/>
</clipPath>
</defs>
</svg>
