<svg width="64" height="65" viewBox="0 0 64 64" fill="none" xmlns="http://www.w3.org/2000/svg">
<g clip-path="url(#clip0_8_428)">
<path opacity="0.15" d="M63.5 17.5079H0.50008V25.9093H63.5V17.5079Z" fill="#183A9E"/>
<path opacity="0.15" d="M11.8121 47.7207H4.8449V55.4984H11.8121V47.7207Z" fill="#183A9E"/>
<path opacity="0.15" d="M11.8121 25.9081H4.8449V31.5146H11.8121V25.9081Z" fill="#183A9E"/>
<path opacity="0.15" d="M27.5931 47.7207H20.6259V55.4984H27.5931V47.7207Z" fill="#183A9E"/>
<path opacity="0.15" d="M27.5931 25.9081H20.6259V31.5146H27.5931V25.9081Z" fill="#183A9E"/>
<path opacity="0.15" d="M43.3742 47.7207H36.407V55.4984H43.3742V47.7207Z" fill="#183A9E"/>
<path opacity="0.15" d="M43.3742 25.9081H36.407V31.5146H43.3742V25.9081Z" fill="#183A9E"/>
<path opacity="0.15" d="M59.1552 47.7207H52.188V55.4984H59.1552V47.7207Z" fill="#183A9E"/>
<path opacity="0.15" d="M59.1552 25.9081H52.188V31.5146H59.1552V25.9081Z" fill="#183A9E"/>
<path d="M64.0001 26.4092H6.10352e-05V16.7856L32.0001 0L64.0001 16.7856V26.4092ZM1.00006 25.4092H63.0001V17.3902L32.0001 1.12895L1.00006 17.3902V25.4092Z" fill="#204ECF"/>
<path d="M64.0001 64.0644H6.10352e-05V54.9985H64.0001V64.0644ZM1.00006 63.0644H63.0001V55.9985H1.00006V63.0644Z" fill="#204ECF"/>
<path d="M12.3121 55.9985H4.34478V25.4082H12.3121V55.9985ZM5.34478 54.9985H11.3121V26.4082H5.34478V54.9985Z" fill="#204ECF"/>
<path d="M28.0933 55.9985H20.126V25.4082H28.0933L28.0933 55.9985ZM21.126 54.9985H27.0933V26.4082H21.126L21.126 54.9985Z" fill="#204ECF"/>
<path d="M43.8741 55.9985H35.9068V25.4082H43.8741V55.9985ZM36.9068 54.9985H42.8741V26.4082H36.9068V54.9985Z" fill="#204ECF"/>
<path d="M59.6553 55.9985H51.688V25.4082H59.6553L59.6553 55.9985ZM52.688 54.9985H58.6553V26.4082H52.688V54.9985Z" fill="#204ECF"/>
<path d="M34.1602 19.8784H29.8399C29.0427 19.8776 28.2784 19.5605 27.7147 18.9968C27.1509 18.4331 26.8339 17.6688 26.8331 16.8716H27.8331C27.8337 17.4036 28.0454 17.9137 28.4216 18.2899C28.7978 18.6661 29.3079 18.8778 29.8399 18.8784H34.1602C34.4241 18.879 34.6856 18.8275 34.9296 18.7269C35.1736 18.6264 35.3953 18.4786 35.5822 18.2922C35.769 18.1058 35.9172 17.8844 36.0183 17.6406C36.1195 17.3968 36.1715 17.1355 36.1715 16.8716C36.1715 16.6077 36.1195 16.3463 36.0183 16.1026C35.9172 15.8588 35.769 15.6374 35.5822 15.4509C35.3953 15.2645 35.1736 15.1168 34.9296 15.0162C34.6856 14.9156 34.4241 14.8642 34.1602 14.8647H29.8399C29.0424 14.8647 28.2775 14.5479 27.7136 13.984C27.1496 13.4201 26.8328 12.6552 26.8328 11.8577C26.8328 11.0601 27.1496 10.2953 27.7136 9.73134C28.2775 9.1674 29.0424 8.85059 29.8399 8.85059H34.1602C34.9574 8.85141 35.7217 9.16846 36.2855 9.73217C36.8492 10.2959 37.1662 11.0602 37.167 11.8574H36.167C36.1664 11.3254 35.9548 10.8153 35.5785 10.4391C35.2023 10.0629 34.6923 9.85123 34.1602 9.85059H29.8399C29.3076 9.85059 28.7971 10.062 28.4207 10.4384C28.0443 10.8148 27.8328 11.3254 27.8328 11.8577C27.8328 12.39 28.0443 12.9005 28.4207 13.2769C28.7971 13.6533 29.3076 13.8647 29.8399 13.8647H34.1602C34.5555 13.864 34.9471 13.9413 35.3126 14.0921C35.678 14.2428 36.0101 14.4642 36.2899 14.7435C36.5697 15.0228 36.7917 15.3545 36.9431 15.7196C37.0946 16.0848 37.1725 16.4763 37.1725 16.8716C37.1725 17.2669 37.0946 17.6584 36.9431 18.0235C36.7917 18.3887 36.5697 18.7204 36.2899 18.9997C36.0101 19.279 35.678 19.5003 35.3126 19.6511C34.9471 19.8019 34.5555 19.8791 34.1602 19.8784Z" fill="#204ECF"/>
<path d="M32.5001 6.30469H31.5001V22.4243H32.5001V6.30469Z" fill="#204ECF"/>
</g>
<defs>
<clipPath id="clip0_8_428">
<rect width="64.0001" height="64.0646" fill="white"/>
</clipPath>
</defs>
</svg>
