<svg width="64" height="65" viewBox="0 0 64 64" fill="none" xmlns="http://www.w3.org/2000/svg">
<g clip-path="url(#clip0_8_495)">
<path opacity="0.3" d="M63.5 17.9813H0.50008V26.3827H63.5V17.9813Z" fill="#231F20"/>
<path opacity="0.3" d="M11.8121 48.1941H4.8449V55.9718H11.8121V48.1941Z" fill="#231F20"/>
<path opacity="0.3" d="M11.8121 26.3815H4.8449V31.988H11.8121V26.3815Z" fill="#231F20"/>
<path opacity="0.3" d="M27.5931 48.1941H20.6259V55.9718H27.5931V48.1941Z" fill="#231F20"/>
<path opacity="0.3" d="M27.5931 26.3815H20.6259V31.988H27.5931V26.3815Z" fill="#231F20"/>
<path opacity="0.3" d="M43.3742 48.1941H36.407V55.9718H43.3742V48.1941Z" fill="#231F20"/>
<path opacity="0.3" d="M43.3742 26.3815H36.407V31.988H43.3742V26.3815Z" fill="#231F20"/>
<path opacity="0.3" d="M59.1552 48.1941H52.188V55.9718H59.1552V48.1941Z" fill="#231F20"/>
<path opacity="0.3" d="M59.1552 26.3815H52.188V31.988H59.1552V26.3815Z" fill="#231F20"/>
<path d="M64.0001 26.8826H6.10352e-05V17.259L32.0001 0.473389L64.0001 17.259V26.8826ZM1.00006 25.8826H63.0001V17.8636L32.0001 1.60234L1.00006 17.8636V25.8826Z" fill="white"/>
<path d="M64.0001 64.5378H6.10352e-05V55.4719H64.0001V64.5378ZM1.00006 63.5378H63.0001V56.4719H1.00006V63.5378Z" fill="white"/>
<path d="M12.3121 56.4719H4.34478V25.8816H12.3121V56.4719ZM5.34478 55.4719H11.3121V26.8816H5.34478V55.4719Z" fill="white"/>
<path d="M28.0933 56.4719H20.126V25.8816H28.0933L28.0933 56.4719ZM21.126 55.4719H27.0933V26.8816H21.126L21.126 55.4719Z" fill="white"/>
<path d="M43.8741 56.4719H35.9068V25.8816H43.8741V56.4719ZM36.9068 55.4719H42.8741V26.8816H36.9068V55.4719Z" fill="white"/>
<path d="M59.6553 56.4719H51.688V25.8816H59.6553L59.6553 56.4719ZM52.688 55.4719H58.6553V26.8816H52.688V55.4719Z" fill="white"/>
<path d="M34.1602 20.3518H29.8399C29.0427 20.351 28.2784 20.0339 27.7147 19.4702C27.1509 18.9065 26.8339 18.1422 26.8331 17.345H27.8331C27.8337 17.877 28.0454 18.3871 28.4216 18.7633C28.7978 19.1395 29.3079 19.3512 29.8399 19.3518H34.1602C34.4241 19.3524 34.6856 19.3009 34.9296 19.2003C35.1736 19.0997 35.3953 18.952 35.5822 18.7656C35.769 18.5792 35.9172 18.3578 36.0183 18.114C36.1195 17.8702 36.1715 17.6089 36.1715 17.345C36.1715 17.0811 36.1195 16.8197 36.0183 16.576C35.9172 16.3322 35.769 16.1107 35.5822 15.9243C35.3953 15.7379 35.1736 15.5902 34.9296 15.4896C34.6856 15.389 34.4241 15.3375 34.1602 15.3381H29.8399C29.0424 15.3381 28.2775 15.0213 27.7136 14.4574C27.1496 13.8934 26.8328 13.1286 26.8328 12.3311C26.8328 11.5335 27.1496 10.7687 27.7136 10.2047C28.2775 9.64079 29.0424 9.32397 29.8399 9.32397H34.1602C34.9574 9.3248 35.7217 9.64185 36.2855 10.2056C36.8492 10.7693 37.1662 11.5336 37.167 12.3308H36.167C36.1664 11.7988 35.9548 11.2887 35.5785 10.9125C35.2023 10.5363 34.6923 10.3246 34.1602 10.324H29.8399C29.3076 10.324 28.7971 10.5354 28.4207 10.9118C28.0443 11.2882 27.8328 11.7987 27.8328 12.3311C27.8328 12.8634 28.0443 13.3739 28.4207 13.7503C28.7971 14.1267 29.3076 14.3381 29.8399 14.3381H34.1602C34.5555 14.3374 34.9471 14.4147 35.3126 14.5654C35.678 14.7162 36.0101 14.9376 36.2899 15.2169C36.5697 15.4962 36.7917 15.8279 36.9431 16.193C37.0946 16.5582 37.1725 16.9496 37.1725 17.345C37.1725 17.7403 37.0946 18.1317 36.9431 18.4969C36.7917 18.8621 36.5697 19.1938 36.2899 19.4731C36.0101 19.7523 35.678 19.9737 35.3126 20.1245C34.9471 20.2753 34.5555 20.3525 34.1602 20.3518Z" fill="white"/>
<path d="M32.5001 6.77808H31.5001V22.8977H32.5001V6.77808Z" fill="white"/>
</g>
<defs>
<clipPath id="clip0_8_495">
<rect width="64.0001" height="64.0646" fill="white" transform="translate(0 0.473389)"/>
</clipPath>
</defs>
</svg>
