<svg width="64" height="64" viewBox="0 0 64 64" fill="none" xmlns="http://www.w3.org/2000/svg">
<g clip-path="url(#clip0_6_323)">
<path opacity="0.15" d="M11.812 47.6562H4.84485V55.434H11.812V47.6562Z" fill="#183A9E"/>
<path opacity="0.15" d="M11.812 30.9745H4.84485V36.581H11.812V30.9745Z" fill="#183A9E"/>
<path opacity="0.15" d="M27.5931 47.6562H20.6259V55.434H27.5931V47.6562Z" fill="#183A9E"/>
<path opacity="0.15" d="M27.5931 30.9745H20.6259V36.581H27.5931V30.9745Z" fill="#183A9E"/>
<path opacity="0.15" d="M43.3741 47.6562H36.4069V55.434H43.3741V47.6562Z" fill="#183A9E"/>
<path opacity="0.15" d="M43.3741 30.9745H36.4069V36.581H43.3741V30.9745Z" fill="#183A9E"/>
<path opacity="0.15" d="M59.1552 47.6562H52.188V55.434H59.1552V47.6562Z" fill="#183A9E"/>
<path opacity="0.15" d="M59.1552 30.9745H52.188V36.581H59.1552V30.9745Z" fill="#183A9E"/>
<path d="M5.34473 30.9746H4.34473V55.4341H5.34473V30.9746Z" fill="#204ECF"/>
<path d="M12.312 30.9746H11.312V55.4341H12.312V30.9746Z" fill="#204ECF"/>
<path d="M21.126 30.9746H20.126V55.4341H21.126V30.9746Z" fill="#204ECF"/>
<path d="M28.0933 30.9746H27.0933V55.4341H28.0933V30.9746Z" fill="#204ECF"/>
<path d="M36.9067 30.9746H35.9067V55.4341H36.9067V30.9746Z" fill="#204ECF"/>
<path d="M43.874 30.9746H42.874V55.4341H43.874V30.9746Z" fill="#204ECF"/>
<path d="M52.688 30.9746H51.688V55.4341H52.688V30.9746Z" fill="#204ECF"/>
<path d="M59.6553 30.9746H58.6553V55.4341H59.6553V30.9746Z" fill="#204ECF"/>
<path d="M64 64H0V54.9341H64V64ZM1 63H63V55.9341H1V63Z" fill="#204ECF"/>
<path d="M64 31.475H0V21.331L18.251 11.757L18.716 12.643L1 21.935V30.475H63V21.935L45.284 12.643L45.749 11.757L64 21.331V31.475Z" fill="#204ECF"/>
<path d="M34.3955 20.2178H29.6045C28.7347 20.2168 27.9008 19.8709 27.2857 19.2558C26.6706 18.6408 26.3247 17.8068 26.3237 16.937H27.3237C27.3243 17.5417 27.5648 18.1215 27.9924 18.5491C28.42 18.9767 28.9998 19.2172 29.6045 19.2178H34.3955C34.6958 19.219 34.9933 19.161 35.2711 19.0469C35.5489 18.9329 35.8014 18.7651 36.0142 18.5532C36.227 18.3413 36.3958 18.0895 36.511 17.8122C36.6262 17.5349 36.6855 17.2376 36.6855 16.9373C36.6855 16.637 36.6262 16.3397 36.511 16.0623C36.3958 15.785 36.227 15.5332 36.0142 15.3213C35.8014 15.1094 35.5489 14.9417 35.2711 14.8276C34.9933 14.7136 34.6958 14.6555 34.3955 14.6568H29.6045C29.1727 14.6583 28.7449 14.5745 28.3456 14.4104C27.9462 14.2462 27.5832 14.0048 27.2774 13.7C26.9716 13.3952 26.7289 13.0331 26.5633 12.6343C26.3977 12.2356 26.3125 11.808 26.3125 11.3763C26.3125 10.9445 26.3977 10.517 26.5633 10.1182C26.7289 9.71947 26.9716 9.35732 27.2774 9.05254C27.5832 8.74777 27.9462 8.50637 28.3456 8.34219C28.7449 8.178 29.1727 8.09426 29.6045 8.09577H34.3955C35.2652 8.0967 36.0991 8.44257 36.7141 9.05752C37.3292 9.67247 37.6752 10.5063 37.6763 11.376H36.6763C36.6755 10.7714 36.435 10.1917 36.0074 9.76422C35.5798 9.33672 35.0001 9.0963 34.3955 9.09571H29.6045C29.3042 9.09445 29.0066 9.15251 28.7288 9.26655C28.4511 9.38059 28.1985 9.54838 27.9858 9.76026C27.773 9.97215 27.6041 10.224 27.4889 10.5013C27.3737 10.7786 27.3144 11.0759 27.3144 11.3762C27.3144 11.6765 27.3737 11.9738 27.4889 12.2511C27.6041 12.5284 27.773 12.7803 27.9858 12.9922C28.1985 13.204 28.4511 13.3718 28.7288 13.4859C29.0066 13.5999 29.3042 13.658 29.6045 13.6567H34.3955C34.8273 13.6552 35.2551 13.7389 35.6544 13.9031C36.0537 14.0673 36.4167 14.3087 36.7226 14.6135C37.0284 14.9183 37.2711 15.2804 37.4367 15.6792C37.6022 16.0779 37.6875 16.5054 37.6875 16.9372C37.6875 17.369 37.6022 17.7965 37.4367 18.1953C37.2711 18.594 37.0284 18.9562 36.7226 19.2609C36.4167 19.5657 36.0537 19.8071 35.6544 19.9713C35.2551 20.1355 34.8273 20.2192 34.3955 20.2177V20.2178Z" fill="#204ECF"/>
<path d="M32.5 5.20703H31.5V23.1064H32.5V5.20703Z" fill="#204ECF"/>
<path d="M46.5908 25.1655H17.4092V26.1655H46.5908V25.1655Z" fill="#204ECF"/>
<path d="M39.601 26.0869L39.063 25.2441C41.4656 23.7154 43.3073 21.4483 44.3115 18.7835C45.3157 16.1187 45.4282 13.2 44.6321 10.4658C43.836 7.7316 42.1742 5.32951 39.8964 3.62035C37.6186 1.91118 34.8477 0.987207 32 0.987207C29.1522 0.987207 26.3813 1.91118 24.1035 3.62035C21.8257 5.32951 20.1639 7.7316 19.3678 10.4658C18.5717 13.2 18.6842 16.1187 19.6884 18.7835C20.6926 21.4483 22.5344 23.7154 24.937 25.2441L24.3989 26.0869C21.8139 24.4417 19.8325 22.0023 18.7522 19.135C17.672 16.2677 17.5511 13.1273 18.4079 10.1854C19.2646 7.24354 21.0527 4.65907 23.5036 2.82013C25.9545 0.981197 28.9359 -0.0129242 32 -0.0129242C35.064 -0.0129242 38.0454 0.981197 40.4963 2.82013C42.9472 4.65907 44.7353 7.24354 45.592 10.1854C46.4488 13.1273 46.3279 16.2677 45.2477 19.135C44.1674 22.0023 42.186 24.4417 39.601 26.0869H39.601Z" fill="#204ECF"/>
</g>
<defs>
<clipPath id="clip0_6_323">
<rect width="64.0001" height="64" fill="white"/>
</clipPath>
</defs>
</svg>
