<svg width="64" height="65" viewBox="0 0 64 65" fill="none" xmlns="http://www.w3.org/2000/svg">
<g clip-path="url(#clip0_6_392)">
<path opacity="0.3" d="M11.812 48.1296H4.84485V55.9073H11.812V48.1296Z" fill="#231F20"/>
<path opacity="0.3" d="M11.812 31.4479H4.84485V37.0543H11.812V31.4479Z" fill="#231F20"/>
<path opacity="0.3" d="M27.5931 48.1296H20.6259V55.9073H27.5931V48.1296Z" fill="#231F20"/>
<path opacity="0.3" d="M27.5931 31.4479H20.6259V37.0543H27.5931V31.4479Z" fill="#231F20"/>
<path opacity="0.3" d="M43.3741 48.1296H36.4069V55.9073H43.3741V48.1296Z" fill="#231F20"/>
<path opacity="0.3" d="M43.3741 31.4479H36.4069V37.0543H43.3741V31.4479Z" fill="#231F20"/>
<path opacity="0.3" d="M59.1552 48.1296H52.188V55.9073H59.1552V48.1296Z" fill="#231F20"/>
<path opacity="0.3" d="M59.1552 31.4479H52.188V37.0543H59.1552V31.4479Z" fill="#231F20"/>
<path d="M5.34473 31.448H4.34473V55.9075H5.34473V31.448Z" fill="white"/>
<path d="M12.312 31.448H11.312V55.9075H12.312V31.448Z" fill="white"/>
<path d="M21.126 31.448H20.126V55.9075H21.126V31.448Z" fill="white"/>
<path d="M28.0933 31.448H27.0933V55.9075H28.0933V31.448Z" fill="white"/>
<path d="M36.9067 31.448H35.9067V55.9075H36.9067V31.448Z" fill="white"/>
<path d="M43.874 31.448H42.874V55.9075H43.874V31.448Z" fill="white"/>
<path d="M52.688 31.448H51.688V55.9075H52.688V31.448Z" fill="white"/>
<path d="M59.6553 31.448H58.6553V55.9075H59.6553V31.448Z" fill="white"/>
<path d="M64 64.4734H0V55.4074H64V64.4734ZM1 63.4734H63V56.4074H1V63.4734Z" fill="white"/>
<path d="M64 31.9484H0V21.8044L18.251 12.2304L18.716 13.1164L1 22.4084V30.9484H63V22.4084L45.284 13.1164L45.749 12.2304L64 21.8044V31.9484Z" fill="white"/>
<path d="M34.3955 20.6912H29.6045C28.7347 20.6902 27.9008 20.3442 27.2857 19.7292C26.6706 19.1141 26.3247 18.2802 26.3237 17.4104H27.3237C27.3243 18.0151 27.5648 18.5948 27.9924 19.0224C28.42 19.45 28.9998 19.6905 29.6045 19.6911H34.3955C34.6958 19.6924 34.9933 19.6343 35.2711 19.5203C35.5489 19.4063 35.8014 19.2385 36.0142 19.0266C36.227 18.8147 36.3958 18.5629 36.511 18.2856C36.6262 18.0083 36.6855 17.7109 36.6855 17.4106C36.6855 17.1104 36.6262 16.813 36.511 16.5357C36.3958 16.2584 36.227 16.0066 36.0142 15.7947C35.8014 15.5828 35.5489 15.415 35.2711 15.301C34.9933 15.1869 34.6958 15.1289 34.3955 15.1301H29.6045C29.1727 15.1316 28.7449 15.0479 28.3456 14.8837C27.9462 14.7195 27.5832 14.4781 27.2774 14.1734C26.9716 13.8686 26.7289 13.5064 26.5633 13.1077C26.3977 12.7089 26.3125 12.2814 26.3125 11.8496C26.3125 11.4179 26.3977 10.9904 26.5633 10.5916C26.7289 10.1928 26.9716 9.83069 27.2774 9.52592C27.5832 9.22115 27.9462 8.97974 28.3456 8.81556C28.7449 8.65137 29.1727 8.56763 29.6045 8.56914H34.3955C35.2652 8.57007 36.0991 8.91595 36.7141 9.5309C37.3292 10.1458 37.6752 10.9796 37.6763 11.8494H36.6763C36.6755 11.2447 36.435 10.6651 36.0074 10.2376C35.5798 9.8101 35.0001 9.56968 34.3955 9.56908H29.6045C29.3042 9.56782 29.0066 9.62588 28.7288 9.73993C28.4511 9.85397 28.1985 10.0217 27.9858 10.2336C27.773 10.4455 27.6041 10.6974 27.4889 10.9747C27.3737 11.252 27.3144 11.5493 27.3144 11.8496C27.3144 12.1499 27.3737 12.4472 27.4889 12.7245C27.6041 13.0018 27.773 13.2536 27.9858 13.4655C28.1985 13.6774 28.4511 13.8452 28.7288 13.9592C29.0066 14.0733 29.3042 14.1313 29.6045 14.1301H34.3955C34.8273 14.1286 35.2551 14.2123 35.6544 14.3765C36.0537 14.5407 36.4167 14.7821 36.7226 15.0869C37.0284 15.3916 37.2711 15.7538 37.4367 16.1525C37.6022 16.5513 37.6875 16.9788 37.6875 17.4106C37.6875 17.8424 37.6022 18.2699 37.4367 18.6686C37.2711 19.0674 37.0284 19.4295 36.7226 19.7343C36.4167 20.0391 36.0537 20.2805 35.6544 20.4447C35.2551 20.6089 34.8273 20.6926 34.3955 20.6911V20.6912Z" fill="white"/>
<path d="M32.5 5.68042H31.5V23.5798H32.5V5.68042Z" fill="white"/>
<path d="M46.5908 25.6389H17.4092V26.6389H46.5908V25.6389Z" fill="white"/>
<path d="M39.601 26.5603L39.063 25.7175C41.4656 24.1887 43.3073 21.9217 44.3115 19.2569C45.3157 16.5921 45.4282 13.6734 44.6321 10.9392C43.836 8.20497 42.1742 5.80289 39.8964 4.09372C37.6186 2.38455 34.8477 1.46058 32 1.46058C29.1522 1.46058 26.3813 2.38455 24.1035 4.09372C21.8257 5.80289 20.1639 8.20497 19.3678 10.9392C18.5717 13.6734 18.6842 16.5921 19.6884 19.2569C20.6926 21.9217 22.5344 24.1887 24.937 25.7175L24.3989 26.5603C21.8139 24.9151 19.8325 22.4757 18.7522 19.6084C17.672 16.741 17.5511 13.6006 18.4079 10.6588C19.2646 7.71692 21.0527 5.13244 23.5036 3.29351C25.9545 1.45457 28.9359 0.460449 32 0.460449C35.064 0.460449 38.0454 1.45457 40.4963 3.29351C42.9472 5.13244 44.7353 7.71692 45.592 10.6588C46.4488 13.6006 46.3279 16.741 45.2477 19.6084C44.1674 22.4757 42.186 24.9151 39.601 26.5603H39.601Z" fill="white"/>
</g>
<defs>
<clipPath id="clip0_6_392">
<rect width="64.0001" height="64" fill="white" transform="translate(0 0.473389)"/>
</clipPath>
</defs>
</svg>
