<svg width="64" height="64" viewBox="0 0 64 64" fill="none" xmlns="http://www.w3.org/2000/svg">
<g clip-path="url(#clip0_8_449)">
<path opacity="0.15" d="M63.5 43.7508H0.500023V53.375H63.5V43.7508Z" fill="#183A9E"/>
<path opacity="0.15" d="M40.1584 0.500031H23.8416V5.00003H40.1584V0.500031Z" fill="#183A9E"/>
<path opacity="0.15" d="M22.4978 37.7583L13.865 37.7758L13.8772 43.7962L22.51 43.7787L22.4978 37.7583Z" fill="#183A9E"/>
<path opacity="0.15" d="M36.2947 30.0225L27.6619 30.04L27.6897 43.7683L36.3225 43.7508L36.2947 30.0225Z" fill="#183A9E"/>
<path opacity="0.15" d="M50.076 14.5788L41.4432 14.5963L41.5022 43.7403L50.135 43.7228L50.076 14.5788Z" fill="#183A9E"/>
<path d="M13.3779 44.2974L13.3643 37.2769L22.9971 37.2573L23.0107 44.2778L13.3779 44.2974ZM14.3662 38.2749L14.376 43.2954L22.0088 43.2798L21.999 38.2593L14.3662 38.2749Z" fill="#204ECF"/>
<path d="M27.1904 44.269L27.1611 29.541L36.794 29.5215L36.8232 44.25L27.1904 44.269ZM28.1631 30.539L28.1885 43.267L35.8213 43.2519L35.7959 30.5234L28.1631 30.539Z" fill="#204ECF"/>
<path d="M41.0029 44.2412L40.9424 14.0972L50.5752 14.0777L50.6357 44.2217L41.0029 44.2412ZM41.9443 15.0952L42.001 43.2393L49.6338 43.2236L49.5772 15.0796L41.9443 15.0952Z" fill="#204ECF"/>
<path d="M64 53.875H0V4.5H64V53.875ZM1 52.875H63V5.5H1V52.875Z" fill="#204ECF"/>
<path d="M32.5 53.375H31.5V63.5H32.5V53.375Z" fill="#204ECF"/>
<path d="M19.8771 53.093L13.0252 63.198L13.8534 63.7595L20.7052 53.6545L19.8771 53.093Z" fill="#204ECF"/>
<path d="M44.121 53.0941L43.2931 53.6559L50.1485 63.7585L50.9765 63.1966L44.121 53.0941Z" fill="#204ECF"/>
<path d="M40.658 5H39.658V1H24.342V5H23.342V0H40.658V5Z" fill="#204ECF"/>
</g>
<defs>
<clipPath id="clip0_8_449">
<rect width="64" height="64" fill="white"/>
</clipPath>
</defs>
</svg>
