<svg width="64" height="65" viewBox="0 0 64 65" fill="none" xmlns="http://www.w3.org/2000/svg">
<g clip-path="url(#clip0_8_516)">
<path opacity="0.3" d="M63.5 44.2242H0.500023V53.8484H63.5V44.2242Z" fill="#231F20"/>
<path opacity="0.3" d="M40.1584 0.973419H23.8416V5.47342H40.1584V0.973419Z" fill="#231F20"/>
<path opacity="0.3" d="M22.4978 38.2317L13.865 38.2492L13.8772 44.2696L22.51 44.2521L22.4978 38.2317Z" fill="#231F20"/>
<path opacity="0.3" d="M36.2947 30.4959L27.6619 30.5134L27.6897 44.2416L36.3225 44.2242L36.2947 30.4959Z" fill="#231F20"/>
<path opacity="0.3" d="M50.076 15.0522L41.4432 15.0696L41.5022 44.2137L50.135 44.1962L50.076 15.0522Z" fill="#231F20"/>
<path d="M13.3779 44.7708L13.3643 37.7503L22.9971 37.7307L23.0107 44.7512L13.3779 44.7708ZM14.3662 38.7483L14.376 43.7688L22.0088 43.7532L21.999 38.7327L14.3662 38.7483Z" fill="white"/>
<path d="M27.1904 44.7424L27.1611 30.0144L36.794 29.9949L36.8232 44.7234L27.1904 44.7424ZM28.1631 31.0124L28.1885 43.7404L35.8213 43.7253L35.7959 30.9969L28.1631 31.0124Z" fill="white"/>
<path d="M41.0029 44.7146L40.9424 14.5706L50.5752 14.5511L50.6357 44.6951L41.0029 44.7146ZM41.9443 15.5686L42.001 43.7126L49.6338 43.697L49.5772 15.553L41.9443 15.5686Z" fill="white"/>
<path d="M64 54.3484H0V4.97339H64V54.3484ZM1 53.3484H63V5.97339H1V53.3484Z" fill="white"/>
<path d="M32.5 53.8484H31.5V63.9734H32.5V53.8484Z" fill="white"/>
<path d="M19.8771 53.5664L13.0252 63.6714L13.8534 64.2329L20.7052 54.1279L19.8771 53.5664Z" fill="white"/>
<path d="M44.121 53.5675L43.2931 54.1293L50.1485 64.2318L50.9765 63.67L44.121 53.5675Z" fill="white"/>
<path d="M40.658 5.47339H39.658V1.47339H24.342V5.47339H23.342V0.473389H40.658V5.47339Z" fill="white"/>
</g>
<defs>
<clipPath id="clip0_8_516">
<rect width="64" height="64" fill="white" transform="translate(0 0.473389)"/>
</clipPath>
</defs>
</svg>
