<svg width="64" height="65" viewBox="0 0 64 64" fill="none" xmlns="http://www.w3.org/2000/svg">
<g clip-path="url(#clip0_8_533)">
<path opacity="0.3" d="M32 30.2715C37.9158 30.2715 42.7115 25.4758 42.7115 19.5599C42.7115 13.6441 37.9158 8.84842 32 8.84842C26.0842 8.84842 21.2885 13.6441 21.2885 19.5599C21.2885 25.4758 26.0842 30.2715 32 30.2715Z" fill="#231F20"/>
<path opacity="0.3" d="M32 34.4714C26.2642 34.4714 20.7632 36.75 16.7074 40.8059C12.6516 44.8618 10.3731 50.3627 10.3731 56.0986H53.6272C53.6273 53.2585 53.0679 50.4462 51.981 47.8222C50.8941 45.1983 49.3011 42.8141 47.2928 40.8058C45.2845 38.7975 42.9003 37.2045 40.2764 36.1176C37.6525 35.0308 34.8401 34.4714 32 34.4714Z" fill="#231F20"/>
<path d="M1 8.84839H0V0.473389H8.375V1.47339H1V8.84839Z" fill="white"/>
<path d="M64 8.84839H63V1.47339H55.625V0.473389H64V8.84839Z" fill="white"/>
<path d="M64 64.4734H55.625V63.4734H63V56.0984H64V64.4734Z" fill="white"/>
<path d="M8.375 64.4734H0V56.0984H1V63.4734H8.375V64.4734Z" fill="white"/>
<path d="M32 30.7713C29.7826 30.7713 27.615 30.1137 25.7713 28.8818C23.9276 27.6499 22.4906 25.8989 21.642 23.8503C20.7934 21.8016 20.5714 19.5474 21.004 17.3726C21.4366 15.1978 22.5044 13.2001 24.0723 11.6321C25.6403 10.0642 27.638 8.99641 29.8128 8.56382C31.9876 8.13122 34.2418 8.35325 36.2904 9.20182C38.3391 10.0504 40.0901 11.4874 41.322 13.3311C42.5539 15.1748 43.2114 17.3424 43.2114 19.5598C43.2081 22.5323 42.0258 25.382 39.924 27.4838C37.8222 29.5857 34.9724 30.7679 32 30.7713V30.7713ZM32 9.3484C29.9804 9.3484 28.0061 9.94729 26.3268 11.0693C24.6476 12.1914 23.3388 13.7862 22.5659 15.6521C21.793 17.518 21.5908 19.5712 21.9848 21.552C22.3788 23.5328 23.3513 25.3523 24.7794 26.7804C26.2075 28.2085 28.027 29.181 30.0079 29.5751C31.9887 29.9691 34.0419 29.7668 35.9078 28.994C37.7736 28.2211 39.3685 26.9123 40.4905 25.233C41.6125 23.5537 42.2114 21.5795 42.2114 19.5598C42.2083 16.8526 41.1315 14.2571 39.2171 12.3427C37.3028 10.4284 34.7073 9.35154 32 9.3484Z" fill="white"/>
<path d="M54.127 56.0984H53.127C53.1148 50.5031 50.8836 45.1412 46.9228 41.1891C42.9621 37.2369 37.5953 35.0174 32.0001 35.0174C26.4048 35.0174 21.038 37.2369 17.0773 41.1891C13.1165 45.1412 10.8853 50.5031 10.8731 56.0984H9.87311C9.88557 50.2381 12.2223 44.6221 16.3705 40.4827C20.5188 36.3432 26.1398 34.0184 32.0001 34.0184C37.8604 34.0184 43.4813 36.3432 47.6296 40.4827C51.7778 44.6221 54.1145 50.2381 54.127 56.0984V56.0984Z" fill="white"/>
<path d="M63.5 20.8088H0.5V21.8088H63.5V20.8088Z" fill="white"/>
</g>
<defs>
<clipPath id="clip0_8_533">
<rect width="64" height="64" fill="white" transform="translate(0 0.473389)"/>
</clipPath>
</defs>
</svg>
