<svg width="64" height="64" viewBox="0 0 64 64" fill="none" xmlns="http://www.w3.org/2000/svg">
<g clip-path="url(#clip0_8_466)">
<path opacity="0.15" d="M32 29.7981C37.9158 29.7981 42.7115 25.0024 42.7115 19.0866C42.7115 13.1707 37.9158 8.37503 32 8.37503C26.0842 8.37503 21.2885 13.1707 21.2885 19.0866C21.2885 25.0024 26.0842 29.7981 32 29.7981Z" fill="#183A9E"/>
<path opacity="0.15" d="M32 33.998C26.2642 33.998 20.7632 36.2766 16.7074 40.3325C12.6516 44.3884 10.3731 49.8894 10.3731 55.6252H53.6272C53.6273 52.7851 53.0679 49.9728 51.981 47.3488C50.8941 44.7249 49.3011 42.3407 47.2928 40.3324C45.2845 38.3242 42.9003 36.7311 40.2764 35.6442C37.6525 34.5574 34.8401 33.998 32 33.998Z" fill="#183A9E"/>
<path d="M1 8.375H0V0H8.375V1H1V8.375Z" fill="#204ECF"/>
<path d="M64 8.375H63V1H55.625V0H64V8.375Z" fill="#204ECF"/>
<path d="M64 64H55.625V63H63V55.625H64V64Z" fill="#204ECF"/>
<path d="M8.375 64H0V55.625H1V63H8.375V64Z" fill="#204ECF"/>
<path d="M32 30.2979C29.7826 30.2979 27.615 29.6403 25.7713 28.4084C23.9276 27.1765 22.4906 25.4255 21.642 23.3769C20.7934 21.3282 20.5714 19.074 21.004 16.8992C21.4366 14.7244 22.5044 12.7267 24.0723 11.1588C25.6403 9.59081 27.638 8.52302 29.8128 8.09043C31.9876 7.65783 34.2418 7.87986 36.2904 8.72843C38.3391 9.577 40.0901 11.014 41.322 12.8577C42.5539 14.7014 43.2114 16.869 43.2114 19.0864C43.2081 22.0589 42.0258 24.9086 39.924 27.0104C37.8222 29.1123 34.9724 30.2945 32 30.2979V30.2979ZM32 8.87502C29.9804 8.87502 28.0061 9.4739 26.3268 10.596C24.6476 11.718 23.3388 13.3128 22.5659 15.1787C21.793 17.0446 21.5908 19.0978 21.9848 21.0786C22.3788 23.0594 23.3513 24.8789 24.7794 26.307C26.2075 27.7351 28.027 28.7077 30.0079 29.1017C31.9887 29.4957 34.0419 29.2935 35.9078 28.5206C37.7736 27.7477 39.3685 26.4389 40.4905 24.7596C41.6125 23.0804 42.2114 21.1061 42.2114 19.0864C42.2083 16.3792 41.1315 13.7837 39.2171 11.8693C37.3028 9.95501 34.7073 8.87815 32 8.87502Z" fill="#204ECF"/>
<path d="M54.127 55.625H53.127C53.1148 50.0298 50.8836 44.6678 46.9228 40.7157C42.9621 36.7635 37.5953 34.544 32.0001 34.544C26.4048 34.544 21.038 36.7635 17.0773 40.7157C13.1165 44.6678 10.8853 50.0298 10.8731 55.625H9.87311C9.88557 49.7647 12.2223 44.1487 16.3705 40.0093C20.5188 35.8698 26.1398 33.545 32.0001 33.545C37.8604 33.545 43.4813 35.8698 47.6296 40.0093C51.7778 44.1487 54.1145 49.7647 54.127 55.625V55.625Z" fill="#204ECF"/>
<path d="M63.5 20.3354H0.5V21.3354H63.5V20.3354Z" fill="#204ECF"/>
</g>
<defs>
<clipPath id="clip0_8_466">
<rect width="64" height="64" fill="white"/>
</clipPath>
</defs>
</svg>
