<svg width="64" height="64" viewBox="0 0 64 64" fill="none" xmlns="http://www.w3.org/2000/svg">
<g clip-path="url(#clip0_8_479)">
<path opacity="0.15" d="M63.5 11.1172H42.2656V21.7344H63.5V11.1172Z" fill="#183A9E"/>
<path opacity="0.15" d="M21.7344 11.1172H0.500031V21.7344H21.7344V11.1172Z" fill="#183A9E"/>
<path opacity="0.15" d="M63.5 52.8828H42.2656V63.5H63.5V52.8828Z" fill="#183A9E"/>
<path opacity="0.15" d="M21.7344 52.8828H0.500031V63.5H21.7344V52.8828Z" fill="#183A9E"/>
<path d="M22.2344 22.2344H0V0H22.2344V22.2344ZM1 21.2344H21.2344V1H1V21.2344Z" fill="#204ECF"/>
<path d="M64 22.2344H41.7656V0H64V22.2344ZM42.7656 21.2344H63V1H42.7656V21.2344Z" fill="#204ECF"/>
<path d="M11.6172 21.7344H10.6172V42.2656H11.6172V21.7344Z" fill="#204ECF"/>
<path d="M42.2656 52.3828H21.7344V53.3828H42.2656V52.3828Z" fill="#204ECF"/>
<path d="M53.3828 21.7344H52.3828V42.2656H53.3828V21.7344Z" fill="#204ECF"/>
<path d="M42.2656 10.6172H21.7344V11.6172H42.2656V10.6172Z" fill="#204ECF"/>
<path d="M22.2344 64H0V41.7656H22.2344V64ZM1 63H21.2344V42.7656H1V63Z" fill="#204ECF"/>
<path d="M64 64H41.7656V41.7656H64V64ZM42.7656 63H63V42.7656H42.7656V63Z" fill="#204ECF"/>
</g>
<defs>
<clipPath id="clip0_8_479">
<rect width="64" height="64" fill="white"/>
</clipPath>
</defs>
</svg>
