<svg width="64" height="64" viewBox="0 0 64 64" fill="none" xmlns="http://www.w3.org/2000/svg">
<g clip-path="url(#clip0_1153_775)">
<path opacity="0.3" fill-rule="evenodd" clip-rule="evenodd" d="M46.35 34.1C46.55 32.71 46.55 31.29 46.35 29.9L43.01 29.45C42.73 28.24 42.25 27.08 41.59 26.02L43.63 23.34C42.79 22.21 41.79 21.21 40.66 20.37L37.98 22.41C36.92 21.75 35.76 21.27 34.55 20.99L34.1 17.65C32.71 17.45 31.29 17.45 29.9 17.65L29.45 20.99C28.24 21.27 27.08 21.75 26.02 22.41L23.34 20.37C22.21 21.21 21.21 22.21 20.37 23.34L22.41 26.02C21.75 27.08 21.27 28.24 20.99 29.45L17.65 29.9C17.45 31.29 17.45 32.71 17.65 34.1L20.99 34.55C21.27 35.76 21.75 36.92 22.41 37.98L20.37 40.66C21.21 41.79 22.21 42.79 23.34 43.63L26.02 41.59C27.08 42.25 28.23 42.73 29.44 43.01L29.89 46.35C31.28 46.55 32.7 46.55 34.09 46.35L34.54 43.01C35.75 42.73 36.91 42.25 37.97 41.59L40.65 43.63C41.78 42.79 42.78 41.79 43.62 40.66L41.58 37.98C42.24 36.92 42.72 35.76 43 34.55L46.34 34.1H46.35ZM26.5 38C26.5 34.96 28.96 32.5 32 32.5C30.07 32.5 28.5 30.93 28.5 29C28.5 27.07 30.07 25.5 32 25.5C33.93 25.5 35.5 27.07 35.5 29C35.5 30.93 33.93 32.5 32 32.5C35.04 32.5 37.5 34.96 37.5 38H26.5Z" fill="black"/>
<path fill-rule="evenodd" clip-rule="evenodd" d="M34.1 17.65C32.71 17.45 31.29 17.45 29.9 17.65L29.45 20.99C28.24 21.27 27.08 21.75 26.02 22.41L23.34 20.37C22.21 21.21 21.21 22.21 20.37 23.34L22.41 26.02C21.75 27.08 21.27 28.24 20.99 29.45L17.65 29.9C17.45 31.29 17.45 32.71 17.65 34.1L20.99 34.55C21.27 35.76 21.75 36.92 22.41 37.98L20.37 40.66C21.21 41.79 22.21 42.79 23.34 43.63L26.02 41.59C27.08 42.25 28.23 42.73 29.44 43.01L29.89 46.35C31.28 46.55 32.7 46.55 34.09 46.35L34.54 43.01C35.75 42.73 36.91 42.25 37.97 41.59L40.65 43.63C41.78 42.79 42.78 41.79 43.62 40.66L41.58 37.98C42.24 36.92 42.72 35.76 43 34.55L46.34 34.1C46.54 32.71 46.54 31.29 46.34 29.9L43 29.45C42.72 28.24 42.24 27.08 41.58 26.02L43.62 23.34C42.78 22.21 41.78 21.21 40.65 20.37L37.97 22.41C36.91 21.75 35.75 21.27 34.54 20.99L34.09 17.65H34.1Z" stroke="white" stroke-miterlimit="10"/>
<path d="M32 32.5C33.933 32.5 35.5 30.933 35.5 29C35.5 27.067 33.933 25.5 32 25.5C30.067 25.5 28.5 27.067 28.5 29C28.5 30.933 30.067 32.5 32 32.5Z" stroke="white" stroke-miterlimit="10"/>
<path d="M26.5 38C26.5 34.96 28.96 32.5 32 32.5C35.04 32.5 37.5 34.96 37.5 38" stroke="white" stroke-miterlimit="10"/>
<path opacity="0.3" d="M18.5 6.49997V17.5L9.5 22.5V11.5L18.5 6.49997Z" fill="black"/>
<path fill-rule="evenodd" clip-rule="evenodd" d="M18.5 17.5V6.5L9.5 1.5L0.5 6.5V17.5L9.5 22.5L18.5 17.5Z" stroke="white" stroke-miterlimit="10"/>
<path d="M19 9.49997H46" stroke="white" stroke-miterlimit="10"/>
<path d="M19 54.5H46" stroke="white" stroke-miterlimit="10"/>
<path d="M0.5 6.49997L9.5 11.5L18.5 6.49997" stroke="white" stroke-miterlimit="10"/>
<path d="M9.5 11V47" stroke="white" stroke-miterlimit="10"/>
<path opacity="0.3" d="M18.5 46.5V57.5L9.5 62.5V51.5L18.5 46.5Z" fill="black"/>
<path fill-rule="evenodd" clip-rule="evenodd" d="M18.5 57.5V46.5L9.5 41.5L0.5 46.5V57.5L9.5 62.5L18.5 57.5Z" stroke="white" stroke-miterlimit="10"/>
<path d="M0.5 46.5L9.5 51.5L18.5 46.5" stroke="white" stroke-miterlimit="10"/>
<path d="M9.5 51V62" stroke="white" stroke-miterlimit="10"/>
<path opacity="0.3" d="M63.5 6.49997V17.5L54.5 22.5V11.5L63.5 6.49997Z" fill="black"/>
<path fill-rule="evenodd" clip-rule="evenodd" d="M63.5 17.5V6.5L54.5 1.5L45.5 6.5V17.5L54.5 22.5L63.5 17.5Z" stroke="white" stroke-miterlimit="10"/>
<path d="M45.5 6.49997L54.5 11.5L63.5 6.49997" stroke="white" stroke-miterlimit="10"/>
<path d="M54.5 11V47" stroke="white" stroke-miterlimit="10"/>
<path opacity="0.3" d="M63.5 46.5V57.5L54.5 62.5V51.5L63.5 46.5Z" fill="black"/>
<path fill-rule="evenodd" clip-rule="evenodd" d="M63.5 57.5V46.5L54.5 41.5L45.5 46.5V57.5L54.5 62.5L63.5 57.5Z" stroke="white" stroke-miterlimit="10"/>
<path d="M45.5 46.5L54.5 51.5L63.5 46.5" stroke="white" stroke-miterlimit="10"/>
<path d="M54.5 51V62" stroke="white" stroke-miterlimit="10"/>
</g>
<defs>
<clipPath id="clip0_1153_775">
<rect width="64" height="64" fill="white"/>
</clipPath>
</defs>
</svg>
