<svg width="64" height="64" viewBox="0 0 64 64" fill="none" xmlns="http://www.w3.org/2000/svg">
<g clip-path="url(#clip0_1187_1213)">
<path opacity="0.3" d="M14 16.5C18.1421 16.5 21.5 13.1421 21.5 9C21.5 4.85786 18.1421 1.5 14 1.5C9.85786 1.5 6.5 4.85786 6.5 9C6.5 13.1421 9.85786 16.5 14 16.5Z" fill="black"/>
<path opacity="0.3" d="M14 19.5C7.1 19.5 1.5 25.1 1.5 32H26.5C26.5 25.1 20.9 19.5 14 19.5Z" fill="black"/>
<path opacity="0.3" d="M12.8 55.7002L55.7 12.8002C55.03 11.9702 54.32 11.1802 53.57 10.4302L10.43 53.5702C11.18 54.3202 11.97 55.0302 12.8 55.7002Z" fill="black"/>
<path d="M14 16.5C18.1421 16.5 21.5 13.1421 21.5 9C21.5 4.85786 18.1421 1.5 14 1.5C9.85786 1.5 6.5 4.85786 6.5 9C6.5 13.1421 9.85786 16.5 14 16.5Z" stroke="white" stroke-miterlimit="10"/>
<path d="M50 47.5C54.1421 47.5 57.5 44.1421 57.5 40C57.5 35.8579 54.1421 32.5 50 32.5C45.8579 32.5 42.5 35.8579 42.5 40C42.5 44.1421 45.8579 47.5 50 47.5Z" stroke="white" stroke-miterlimit="10"/>
<path d="M5.25 58.75L58.75 5.25" stroke="white" stroke-miterlimit="10"/>
<path d="M8.27 51.16C4.04 45.92 1.5 39.26 1.5 32C1.5 24.74 7.1 19.5 14 19.5C20.9 19.5 26.5 25.1 26.5 32" stroke="white" stroke-miterlimit="10"/>
<path d="M10.43 53.57C15.95 59.09 23.57 62.5 32 62.5H37.51C37.77 55.83 43.26 50.5 50 50.5C56.74 50.5 62.5 56.1 62.5 63" stroke="white" stroke-miterlimit="10"/>
<path d="M53.57 10.4302C59.09 15.9502 62.5 23.5702 62.5 32.0002" stroke="white" stroke-miterlimit="10"/>
<path d="M32 1.5C39.22 1.5 45.86 4.01 51.09 8.21" stroke="white" stroke-miterlimit="10"/>
</g>
<defs>
<clipPath id="clip0_1187_1213">
<rect width="64" height="64" fill="white"/>
</clipPath>
</defs>
</svg>
