<svg width="64" height="64" viewBox="0 0 64 64" fill="none" xmlns="http://www.w3.org/2000/svg">
<g clip-path="url(#clip0_8_603)">
<path opacity="0.15" d="M57.2271 12.8366V46.8452H38.1331C36.5065 46.8453 34.9464 47.4915 33.7962 48.6418C32.646 49.792 31.9999 51.352 31.9999 52.9787C31.9999 51.352 31.3537 49.792 30.2035 48.6418C29.0533 47.4915 27.4933 46.8453 25.8666 46.8452H6.773V12.8366H0.5V54.0649H26.4115C27.0317 54.9756 27.8651 55.7209 28.8391 56.236C29.8131 56.751 30.8982 57.0203 32 57.0203C33.1018 57.0203 34.187 56.751 35.161 56.236C36.135 55.7209 36.9683 54.9756 37.5885 54.0649H63.5V12.8366H57.2271Z" fill="#183A9E"/>
<g opacity="0.15">
<path opacity="0.15" d="M32.0139 12.8366H31.9861C31.9903 12.9288 31.9999 13.0196 31.9999 13.1128C31.9999 13.0196 32.0098 12.9288 32.0139 12.8366Z" fill="#204ECF"/>
</g>
<path d="M32.5 52.9789H31.5C31.4984 51.4853 30.9044 50.0533 29.8483 48.9971C28.7922 47.9409 27.3603 47.3468 25.8667 47.3451H6.27301V6.47937H25.8667C27.1805 6.48074 28.4644 6.87158 29.5561 7.60251C30.6478 8.33344 31.4983 9.37162 32 10.5858C32.5018 9.37162 33.3522 8.33343 34.4439 7.60251C35.5356 6.87158 36.8195 6.48073 38.1333 6.47937H57.7271V47.3451H38.1333C36.6397 47.3468 35.2078 47.9409 34.1517 48.9971C33.0956 50.0533 32.5016 51.4853 32.5 52.9789V52.9789ZM7.27301 46.3451H25.8667C27.1806 46.3465 28.4645 46.7374 29.5562 47.4684C30.6479 48.1994 31.4984 49.2377 32 50.452C32.5017 49.2377 33.3521 48.1994 34.4438 47.4683C35.5355 46.7373 36.8195 46.3464 38.1333 46.345H56.7271V7.47937H38.1333C36.6398 7.48098 35.2079 8.075 34.1518 9.1311C33.0956 10.1872 32.5016 11.6191 32.5 13.1127H31.5C31.4984 11.6191 30.9044 10.1872 29.8483 9.1311C28.7922 8.075 27.3603 7.48098 25.8667 7.47937H7.27301V46.3451Z" fill="#204ECF"/>
<path d="M32.5 13.1127H31.5V52.9789H32.5V13.1127Z" fill="#204ECF"/>
<path d="M32 57.5204C30.862 57.5202 29.74 57.2527 28.7245 56.7393C27.7089 56.2259 26.8282 55.4811 26.1533 54.5648H0V12.3368H6.773V13.3368H1V53.5648H26.6758L26.8247 53.7831C27.399 54.6265 28.1707 55.3168 29.0727 55.7939C29.9747 56.271 30.9796 56.5203 32 56.5203C33.0204 56.5203 34.0253 56.271 34.9273 55.7939C35.8293 55.3168 36.601 54.6265 37.1753 53.7831L37.3242 53.5648H63V13.3368H57.227V12.3368H64V54.5648H37.8467C37.1718 55.481 36.2911 56.2259 35.2755 56.7393C34.26 57.2527 33.138 57.5202 32 57.5204V57.5204Z" fill="#204ECF"/>
</g>
<defs>
<clipPath id="clip0_8_603">
<rect width="64" height="64" fill="white"/>
</clipPath>
</defs>
</svg>
