<svg width="64" height="65" viewBox="0 0 64 65" fill="none" xmlns="http://www.w3.org/2000/svg">
<g clip-path="url(#clip0_8_654)">
<path opacity="0.3" d="M57.2271 13.3746V47.3832H38.1331C36.5065 47.3833 34.9464 48.0295 33.7962 49.1797C32.646 50.3299 31.9999 51.89 31.9999 53.5166C31.9999 51.89 31.3537 50.3299 30.2035 49.1797C29.0533 48.0295 27.4933 47.3833 25.8666 47.3832H6.773V13.3746H0.5V54.6028H26.4115C27.0317 55.5135 27.8651 56.2588 28.8391 56.7739C29.8131 57.289 30.8982 57.5583 32 57.5583C33.1018 57.5583 34.187 57.289 35.161 56.7739C36.135 56.2588 36.9683 55.5135 37.5885 54.6028H63.5V13.3746H57.2271Z" fill="#231F20"/>
<g opacity="0.15">
<path opacity="0.15" d="M32.0139 13.3746H31.9861C31.9903 13.4668 31.9999 13.5576 31.9999 13.6507C31.9999 13.5576 32.0098 13.4668 32.0139 13.3746Z" fill="white"/>
</g>
<path d="M32.5 53.5168H31.5C31.4984 52.0232 30.9044 50.5913 29.8483 49.5351C28.7922 48.4789 27.3603 47.8848 25.8667 47.8831H6.27301V7.01733H25.8667C27.1805 7.0187 28.4644 7.40955 29.5561 8.14047C30.6478 8.8714 31.4983 9.90958 32 11.1238C32.5018 9.90958 33.3522 8.8714 34.4439 8.14047C35.5356 7.40954 36.8195 7.0187 38.1333 7.01733H57.7271V47.8831H38.1333C36.6397 47.8848 35.2078 48.4789 34.1517 49.5351C33.0956 50.5913 32.5016 52.0232 32.5 53.5168V53.5168ZM7.27301 46.8831H25.8667C27.1806 46.8844 28.4645 47.2753 29.5562 48.0063C30.6479 48.7373 31.4984 49.7756 32 50.99C32.5017 49.7756 33.3521 48.7373 34.4438 48.0063C35.5355 47.2753 36.8195 46.8844 38.1333 46.883H56.7271V8.01733H38.1333C36.6398 8.01894 35.2079 8.61296 34.1518 9.66906C33.0956 10.7252 32.5016 12.1571 32.5 13.6506H31.5C31.4984 12.1571 30.9044 10.7252 29.8483 9.66907C28.7922 8.61297 27.3603 8.01894 25.8667 8.01733H7.27301V46.8831Z" fill="white"/>
<path d="M32.5 13.6506H31.5V53.5168H32.5V13.6506Z" fill="white"/>
<path d="M32 58.0584C30.862 58.0582 29.74 57.7906 28.7245 57.2773C27.7089 56.7639 26.8282 56.019 26.1533 55.1028H0V12.8748H6.773V13.8748H1V54.1028H26.6758L26.8247 54.321C27.399 55.1645 28.1707 55.8548 29.0727 56.3318C29.9747 56.8089 30.9796 57.0583 32 57.0583C33.0204 57.0583 34.0253 56.8089 34.9273 56.3318C35.8293 55.8548 36.601 55.1645 37.1753 54.321L37.3242 54.1028H63V13.8748H57.227V12.8748H64V55.1028H37.8467C37.1718 56.019 36.2911 56.7639 35.2755 57.2773C34.26 57.7906 33.138 58.0582 32 58.0584V58.0584Z" fill="white"/>
</g>
<defs>
<clipPath id="clip0_8_654">
<rect width="64" height="64" fill="white" transform="translate(0 0.537964)"/>
</clipPath>
</defs>
</svg>
