<svg fill="none" xmlns="http://www.w3.org/2000/svg" viewBox="0 0 64 64">
  <g clip-path="url(#a)">
    <path opacity=".3" d="M62.4 61.5999H1.60002c-.663996 0-1.199996-.536-1.199996-1.2v2c0 .664.536 1.2 1.199996 1.2H62.4c.664 0 1.2-.536 1.2-1.2v-2c0 .664-.536 1.2-1.2 1.2ZM63.8 22.6001l-8-8H8.20001l-7.999998 8" fill="#231F20"/>
    <path d="M32.2 0v3.6M22.352 2.67578l1.928 3.136M15.356 9.67188l3.136 1.92802M48.644 9.67188l-3.136 1.92802M41.648 2.67578l-1.928 3.136M8.20001 14.7998v6.4M55.8 14.7998v6.4M62 22.6001H2.00001m61.79999 0v40c0 .664-.536 1.2-1.2 1.2H1.40001c-.663998 0-1.199998-.536-1.199998-1.2v-40l7.999998-8H55.8l8 8Z" stroke="#fff"/>
    <path opacity=".3" d="M39 33.4002H25c-.884 0-1.6-.716-1.6-1.6 0-.884.716-1.6 1.6-1.6h14c.884 0 1.6.716 1.6 1.6 0 .884-.716 1.6-1.6 1.6Z" fill="#231F20"/>
    <path d="M39 33.4002H25c-.884 0-1.6-.716-1.6-1.6 0-.884.716-1.6 1.6-1.6h14c.884 0 1.6.716 1.6 1.6 0 .884-.716 1.6-1.6 1.6Z" stroke="#fff"/>
  </g>
  <defs>
    <clipPath id="a">
      <path fill="#fff" d="M0 0h64v64H0z"/>
    </clipPath>
  </defs>
</svg>