<svg width="64" height="64" viewBox="0 0 64 64" fill="none" xmlns="http://www.w3.org/2000/svg">
<g clip-path="url(#clip0_1329_492)">
<path opacity="0.3" d="M62.4 61.5999H1.60002C0.936024 61.5999 0.400024 61.0639 0.400024 60.3999V62.3999C0.400024 63.0639 0.936024 63.5999 1.60002 63.5999H62.4C63.064 63.5999 63.6 63.0639 63.6 62.3999V60.3999C63.6 61.0639 63.064 61.5999 62.4 61.5999Z" fill="#231F20"/>
<path opacity="0.3" d="M63.8 22.6001L55.8 14.6001H8.20001L0.200012 22.6001" fill="#231F20"/>
<path d="M32.2 0V3.6" stroke="white"/>
<path d="M22.352 2.67578L24.28 5.81178" stroke="white"/>
<path d="M15.356 9.67188L18.492 11.5999" stroke="white"/>
<path d="M48.644 9.67188L45.508 11.5999" stroke="white"/>
<path d="M41.648 2.67578L39.72 5.81178" stroke="white"/>
<path d="M8.20001 14.7998V21.1998" stroke="white"/>
<path d="M55.8 14.7998V21.1998" stroke="white"/>
<path d="M62 22.6001H2.00001M63.8 22.6001V62.6001C63.8 63.2641 63.264 63.8001 62.6 63.8001H1.40001C0.736012 63.8001 0.200012 63.2641 0.200012 62.6001V22.6001L8.20001 14.6001H55.8L63.8 22.6001Z" stroke="white"/>
<path opacity="0.3" d="M39 33.4002H25C24.116 33.4002 23.4 32.6842 23.4 31.8002C23.4 30.9162 24.116 30.2002 25 30.2002H39C39.884 30.2002 40.6 30.9162 40.6 31.8002C40.6 32.6842 39.884 33.4002 39 33.4002Z" fill="#231F20"/>
<path d="M39 33.4002H25C24.116 33.4002 23.4 32.6842 23.4 31.8002C23.4 30.9162 24.116 30.2002 25 30.2002H39C39.884 30.2002 40.6 30.9162 40.6 31.8002C40.6 32.6842 39.884 33.4002 39 33.4002Z" stroke="white"/>
</g>
<defs>
<clipPath id="clip0_1329_492">
<rect width="64" height="64" fill="white"/>
</clipPath>
</defs>
</svg>
