<svg width="64" height="64" viewBox="0 0 64 64" fill="none" xmlns="http://www.w3.org/2000/svg">
<g clip-path="url(#clip0_8_633)">
<path opacity="0.15" d="M32 8.62592C31.9853 7.56412 32.1817 6.50998 32.5778 5.52474C32.974 4.5395 33.562 3.6428 34.3076 2.88673C35.0533 2.13067 35.9417 1.53031 36.9214 1.12054C37.9011 0.71077 38.9524 0.499756 40.0143 0.499756C41.0762 0.499756 42.1275 0.71077 43.1072 1.12054C44.0868 1.53031 44.9753 2.13067 45.7209 2.88673C46.4666 3.6428 47.0546 4.5395 47.4507 5.52474C47.8469 6.50998 48.0433 7.56412 48.0286 8.62592C48.0286 8.84138 48.013 9.05273 47.9967 9.26392C48.4655 9.19757 48.9382 9.16252 49.4116 9.159C52.2857 9.17899 55.0341 10.3398 57.0524 12.3861C59.0706 14.4325 60.1933 17.1967 60.1736 20.0708C60.1719 21.2668 59.9754 22.4545 59.5917 23.5873C61.0394 24.8058 62.1474 26.3778 62.8084 28.1507C63.4694 29.9236 63.6609 31.8374 63.3643 33.7061C63.0676 35.5749 62.293 37.3352 61.1155 38.8163C59.938 40.2975 58.3976 41.449 56.6438 42.1593C57.4636 43.7303 57.891 45.4763 57.8893 47.2483C57.9063 50.0489 56.8383 52.7472 54.9094 54.7776C52.9804 56.8079 50.3402 58.0126 47.5425 58.1389C46.9165 59.9329 45.6721 61.4454 44.0322 62.4051C42.3924 63.3649 40.4643 63.7092 38.5936 63.3764C36.7229 63.0437 35.0319 62.0555 33.8236 60.5891C32.6153 59.1227 31.9688 57.2739 32 55.3741V8.62592Z" fill="#183A9E"/>
<path d="M23.9853 64C22.2857 63.9896 20.6278 63.4722 19.224 62.5139C17.8201 61.5556 16.7343 60.2002 16.1055 58.6211C13.238 58.4153 10.5566 57.1248 8.6069 55.0121C6.6572 52.8994 5.58567 50.1233 5.61033 47.2485C5.61143 45.5789 5.9746 43.9293 6.67478 42.4135C4.94519 41.6162 3.4411 40.4011 2.29801 38.8778C1.15492 37.3544 0.408721 35.5707 0.126637 33.6871C-0.155447 31.8036 0.0354422 29.8795 0.68211 28.0881C1.32878 26.2967 2.41091 24.6943 3.83103 23.4253C3.49781 22.3382 3.32766 21.2078 3.32615 20.0708C3.30998 17.0651 4.48665 14.1756 6.59804 12.0363C8.70944 9.89701 11.5832 8.68249 14.5889 8.65918C14.8701 8.65918 15.1592 8.67285 15.4726 8.70118C15.4716 8.67579 15.4716 8.65089 15.4716 8.62599C15.4571 7.49864 15.6666 6.37963 16.0879 5.33388C16.5092 4.28812 17.1341 3.33646 17.9261 2.53411C18.7182 1.73176 19.6617 1.09469 20.7019 0.659875C21.7422 0.225062 22.8584 0.00115901 23.9858 0.00115967C25.1133 0.00116033 26.2295 0.225064 27.2697 0.659879C28.3099 1.09469 29.2534 1.73176 30.0455 2.53412C30.8376 3.33647 31.4624 4.28813 31.8837 5.33388C32.3051 6.37964 32.5145 7.49865 32.5 8.626V55.374C32.5121 57.6462 31.6225 59.8305 30.0263 61.4476C28.43 63.0647 26.2575 63.9826 23.9853 64V64ZM14.5889 9.65918C11.8483 9.68207 9.22864 10.7911 7.30469 12.743C5.38074 14.6948 4.30956 17.3302 4.32615 20.0708C4.32841 21.2126 4.51608 22.3465 4.88182 23.4282L4.99119 23.7515L4.72947 23.9707C3.34823 25.1335 2.29094 26.6335 1.66015 28.3252C1.02936 30.017 0.846478 31.843 1.12925 33.6263C1.41203 35.4095 2.15086 37.0894 3.27408 38.503C4.39729 39.9166 5.86677 41.0159 7.53998 41.6943L8.05658 41.8984L7.79974 42.3906C6.98975 43.9378 6.5813 45.6636 6.61188 47.4097C6.64246 49.1558 7.11108 50.8663 7.97475 52.3841C8.83842 53.902 10.0695 55.1786 11.5549 56.0969C13.0404 57.0151 14.7327 57.5456 16.4765 57.6396L16.8144 57.6528L16.9277 57.9707C17.514 59.6538 18.681 61.0729 20.2192 61.9733C21.7573 62.8737 23.566 63.1965 25.3207 62.8839C27.0754 62.5712 28.6612 61.6435 29.7937 60.2672C30.9261 58.8909 31.5311 57.1561 31.5 55.374V8.626C31.5149 7.62977 31.3315 6.64053 30.9606 5.71581C30.5897 4.7911 30.0385 3.94938 29.3393 3.23961C28.6401 2.52985 27.8067 1.96621 26.8876 1.58149C25.9686 1.19677 24.9822 0.998643 23.9858 0.998643C22.9895 0.998643 22.0031 1.19677 21.084 1.58149C20.165 1.96621 19.3316 2.52985 18.6323 3.23961C17.9331 3.94938 17.382 4.7911 17.0111 5.71581C16.6401 6.64053 16.4568 7.62977 16.4717 8.626C16.4717 8.82912 16.4873 9.02834 16.5019 9.22756L16.5469 9.84133L15.9365 9.75979C15.4901 9.69589 15.0398 9.66228 14.5889 9.65918V9.65918Z" fill="#204ECF"/>
<path d="M24.3438 27.4785L24 26.5391C26.2068 25.7137 28.1083 24.2328 29.449 22.2952C30.7896 20.3577 31.5054 18.0563 31.5 15.7002H32.5C32.5048 18.2612 31.726 20.7623 30.268 22.8678C28.81 24.9732 26.7427 26.5821 24.3438 27.4785Z" fill="#204ECF"/>
<path d="M7.79492 42.3882L6.9082 41.9263C8.20427 39.4206 10.3909 37.4905 13.0381 36.5156L13.3818 37.4541C10.969 38.3439 8.97619 40.1039 7.79492 42.3882V42.3882Z" fill="#204ECF"/>
<path d="M40.0146 64C37.7425 63.9826 35.57 63.0647 33.9737 61.4476C32.3775 59.8305 31.4878 57.6462 31.5 55.374V8.62601C31.4853 7.49859 31.6947 6.37949 32.116 5.33365C32.5373 4.28781 33.1621 3.33606 33.9542 2.53362C34.7463 1.73119 35.6898 1.09405 36.7301 0.659189C37.7704 0.224326 38.8866 0.000396729 40.0141 0.000396729C41.1417 0.000396729 42.2579 0.224326 43.2982 0.659189C44.3385 1.09405 45.282 1.73119 46.0741 2.53362C46.8662 3.33606 47.491 4.28781 47.9123 5.33365C48.3336 6.37949 48.543 7.49859 48.5283 8.62601C48.5283 8.65091 48.5283 8.67581 48.5273 8.7012C48.8408 8.67288 49.1298 8.6592 49.4111 8.6592C52.4168 8.6825 55.2905 9.89701 57.4019 12.0363C59.5133 14.1756 60.69 17.0651 60.6738 20.0708C60.6723 21.2078 60.5022 22.3382 60.1689 23.4253C61.5891 24.6943 62.6712 26.2967 63.3179 28.0881C63.9646 29.8795 64.1554 31.8036 63.8734 33.6872C63.5913 35.5707 62.8451 37.3545 61.702 38.8778C60.5589 40.4012 59.0548 41.6162 57.3252 42.4136C58.0254 43.9293 58.3885 45.5789 58.3896 47.2486C58.4143 50.1233 57.3428 52.8995 55.3931 55.0122C53.4434 57.1248 50.762 58.4153 47.8945 58.6211C47.2657 60.2002 46.1798 61.5556 44.776 62.5139C43.3722 63.4722 41.7143 63.9896 40.0146 64ZM40.0146 1.00001C38.0076 1.01713 36.0893 1.82963 34.6805 3.25926C33.2718 4.6889 32.4876 6.61894 32.5 8.62601V55.374C32.4689 57.156 33.0739 58.8908 34.2063 60.2671C35.3388 61.6434 36.9246 62.5711 38.6793 62.8838C40.4339 63.1964 42.2426 62.8736 43.7808 61.9732C45.3189 61.0728 46.4859 59.6538 47.0723 57.9707L47.1855 57.6528L47.5234 57.6397C49.2673 57.5456 50.9596 57.0151 52.445 56.0969C53.9305 55.1786 55.1615 53.902 56.0252 52.3841C56.8888 50.8663 57.3575 49.1558 57.3881 47.4097C57.4186 45.6636 57.0102 43.9378 56.2002 42.3907L55.9433 41.8985L56.4599 41.6944C58.1332 41.016 59.6027 39.9166 60.7259 38.503C61.8491 37.0894 62.5879 35.4095 62.8707 33.6263C63.1535 31.8431 62.9706 30.017 62.3398 28.3253C61.709 26.6335 60.6517 25.1335 59.2705 23.9707L59.0088 23.7515L59.1181 23.4282C59.4839 22.3465 59.6716 21.2126 59.6738 20.0708C59.6904 17.3302 58.6192 14.6948 56.6953 12.743C54.7713 10.7911 52.1517 9.68208 49.4111 9.65919C48.9601 9.66228 48.5099 9.69588 48.0635 9.75978L47.4531 9.84132L47.498 9.22755C47.5127 9.02833 47.5283 8.82911 47.5283 8.62599C47.5408 6.61908 46.7567 4.68916 45.3481 3.25954C43.9396 1.82992 42.0215 1.01734 40.0146 1.00001V1.00001Z" fill="#204ECF"/>
<path d="M39.6563 27.4785C37.2573 26.5821 35.19 24.9732 33.732 22.8678C32.274 20.7623 31.4952 18.2612 31.5 15.7002H32.5C32.4947 18.0563 33.2104 20.3577 34.5511 22.2952C35.8917 24.2328 37.7932 25.7137 40 26.5391L39.6563 27.4785Z" fill="#204ECF"/>
<path d="M56.2051 42.3882C55.0238 40.1039 53.031 38.3439 50.6182 37.4541L50.9619 36.5156C53.6091 37.4905 55.7957 39.4206 57.0918 41.9263L56.2051 42.3882Z" fill="#204ECF"/>
</g>
<defs>
<clipPath id="clip0_8_633">
<rect width="64.0002" height="64.0001" fill="white"/>
</clipPath>
</defs>
</svg>
