<svg width="64" height="65" viewBox="0 0 64 65" fill="none" xmlns="http://www.w3.org/2000/svg">
<g clip-path="url(#clip0_8_664)">
<path opacity="0.3" d="M32 9.16389C31.9853 8.10209 32.1817 7.04794 32.5778 6.0627C32.974 5.07746 33.562 4.18076 34.3076 3.4247C35.0533 2.66863 35.9417 2.06827 36.9214 1.6585C37.9011 1.24873 38.9524 1.03772 40.0143 1.03772C41.0762 1.03772 42.1275 1.24873 43.1072 1.6585C44.0868 2.06827 44.9753 2.66863 45.7209 3.4247C46.4666 4.18076 47.0546 5.07746 47.4507 6.0627C47.8469 7.04794 48.0433 8.10209 48.0286 9.16389C48.0286 9.37935 48.013 9.5907 47.9967 9.80189C48.4655 9.73554 48.9382 9.70049 49.4116 9.69697C52.2857 9.71695 55.0341 10.8778 57.0524 12.9241C59.0706 14.9704 60.1933 17.7346 60.1736 20.6087C60.1719 21.8047 59.9754 22.9925 59.5917 24.1253C61.0394 25.3438 62.1474 26.9157 62.8084 28.6887C63.4694 30.4616 63.6609 32.3753 63.3643 34.2441C63.0676 36.1128 62.293 37.8732 61.1155 39.3543C59.938 40.8354 58.3976 41.987 56.6438 42.6973C57.4636 44.2682 57.891 46.0143 57.8893 47.7863C57.9063 50.5868 56.8383 53.2852 54.9094 55.3155C52.9804 57.3459 50.3402 58.5506 47.5425 58.6769C46.9165 60.4709 45.6721 61.9833 44.0322 62.9431C42.3924 63.9028 40.4643 64.2472 38.5936 63.9144C36.7229 63.5816 35.0319 62.5935 33.8236 61.1271C32.6153 59.6607 31.9688 57.8119 32 55.912V41.538H41V23.538H32V9.16389Z" fill="#231F20"/>
<path opacity="0.3" d="M32 36.8828C34.3996 36.8828 36.3448 34.9375 36.3448 32.538C36.3448 30.1384 34.3996 28.1931 32 28.1931C29.6004 28.1931 27.6552 30.1384 27.6552 32.538C27.6552 34.9375 29.6004 36.8828 32 36.8828Z" fill="#231F20"/>
<path d="M23.9853 64.538C22.2857 64.5276 20.6278 64.0101 19.224 63.0519C17.8201 62.0936 16.7343 60.7381 16.1055 59.1591C13.238 58.9533 10.5566 57.6628 8.6069 55.5501C6.6572 53.4374 5.58567 50.6613 5.61033 47.7865C5.61143 46.1168 5.9746 44.4673 6.67478 42.9515C4.94519 42.1542 3.4411 40.9391 2.29801 39.4158C1.15492 37.8924 0.408721 36.1086 0.126637 34.2251C-0.155447 32.3416 0.0354422 30.4175 0.68211 28.6261C1.32878 26.8347 2.41091 25.2323 3.83103 23.9633C3.49781 22.8762 3.32766 21.7457 3.32615 20.6088C3.30998 17.603 4.48665 14.7136 6.59804 12.5743C8.70944 10.435 11.5832 9.22045 14.5889 9.19715C14.8701 9.19715 15.1592 9.21082 15.4726 9.23915C15.4716 9.21376 15.4716 9.18886 15.4716 9.16396C15.4571 8.03661 15.6666 6.91759 16.0879 5.87184C16.5092 4.82609 17.1341 3.87443 17.9261 3.07207C18.7182 2.26972 19.6617 1.63265 20.7019 1.19784C21.7422 0.763025 22.8584 0.539123 23.9858 0.539124C25.1133 0.539124 26.2295 0.763028 27.2697 1.19784C28.3099 1.63266 29.2534 2.26973 30.0455 3.07208C30.8376 3.87443 31.4624 4.8261 31.8837 5.87185C32.3051 6.9176 32.5145 8.03662 32.5 9.16397H31.5C31.5149 8.16774 31.3315 7.17849 30.9606 6.25378C30.5897 5.32906 30.0385 4.48734 29.3393 3.77757C28.6401 3.06781 27.8067 2.50417 26.8876 2.11945C25.9686 1.73473 24.9822 1.53661 23.9858 1.53661C22.9895 1.53661 22.0031 1.73473 21.084 2.11945C20.165 2.50417 19.3316 3.06781 18.6323 3.77757C17.9331 4.48734 17.382 5.32906 17.0111 6.25378C16.6401 7.17849 16.4568 8.16774 16.4717 9.16397C16.4717 9.36709 16.4873 9.56631 16.5019 9.76553L16.5469 10.3793L15.9365 10.2978C15.4901 10.2339 15.0398 10.2003 14.5889 10.1972C11.8483 10.2201 9.22865 11.3291 7.3047 13.2809C5.38075 15.2328 4.30957 17.8681 4.32615 20.6088C4.32841 21.7506 4.51608 22.8845 4.88182 23.9662L4.99119 24.2894L4.72947 24.5087C3.34823 25.6714 2.29094 27.1715 1.66015 28.8632C1.02936 30.5549 0.846478 32.381 1.12925 34.1642C1.41203 35.9475 2.15086 37.6274 3.27408 39.041C4.39729 40.4546 5.86677 41.5539 7.53998 42.2323L8.05658 42.4364L7.79974 42.9286C6.98975 44.4758 6.5813 46.2016 6.61188 47.9477C6.64246 49.6938 7.11108 51.4042 7.97475 52.9221C8.83842 54.4399 10.0695 55.7166 11.5549 56.6348C13.0404 57.5531 14.7327 58.0836 16.4765 58.1776L16.8144 58.1908L16.9277 58.5086C17.514 60.1917 18.681 61.6108 20.2192 62.5112C21.7573 63.4117 23.566 63.7345 25.3207 63.4218C27.0754 63.1092 28.6612 62.1814 29.7937 60.8051C30.9261 59.4288 31.5311 57.694 31.5 55.912H32.5C32.5121 58.1842 31.6225 60.3684 30.0263 61.9855C28.43 63.6027 26.2575 64.5206 23.9853 64.538V64.538Z" fill="white"/>
<path d="M40.0146 64.538C37.7425 64.5206 35.57 63.6027 33.9737 61.9855C32.3775 60.3684 31.4878 58.1842 31.5 55.912V41.538H32.5V55.912C32.4689 57.694 33.0739 59.4288 34.2063 60.8051C35.3388 62.1814 36.9246 63.1091 38.6793 63.4217C40.4339 63.7344 42.2426 63.4116 43.7808 62.5112C45.3189 61.6108 46.4859 60.1917 47.0723 58.5087L47.1855 58.1908L47.5234 58.1776C49.2673 58.0836 50.9596 57.5531 52.445 56.6348C53.9305 55.7166 55.1615 54.44 56.0252 52.9221C56.8888 51.4042 57.3575 49.6938 57.3881 47.9477C57.4186 46.2016 57.0102 44.4758 56.2002 42.9286L55.9433 42.4364L56.4599 42.2323C58.1332 41.5539 59.6027 40.4546 60.7259 39.041C61.8491 37.6274 62.5879 35.9475 62.8707 34.1643C63.1535 32.381 62.9706 30.555 62.3398 28.8632C61.709 27.1715 60.6517 25.6715 59.2705 24.5087L59.0088 24.2894L59.1181 23.9662C59.4839 22.8845 59.6716 21.7506 59.6738 20.6088C59.6904 17.8681 58.6192 15.2328 56.6953 13.2809C54.7713 11.3291 52.1517 10.22 49.4111 10.1971C48.9601 10.2002 48.5099 10.2338 48.0635 10.2977L47.4531 10.3793L47.498 9.76551C47.5127 9.56629 47.5283 9.36707 47.5283 9.16395C47.5432 8.16772 47.3598 7.17848 46.9889 6.25376C46.618 5.32905 46.0669 4.48733 45.3676 3.77756C44.6684 3.0678 43.835 2.50416 42.9159 2.11944C41.9969 1.73472 41.0105 1.5366 40.0141 1.5366C39.0178 1.5366 38.0314 1.73473 37.1123 2.11945C36.1933 2.50417 35.3599 3.06781 34.6607 3.77758C33.9614 4.48734 33.4103 5.32907 33.0394 6.25378C32.6684 7.1785 32.4851 8.16774 32.5 9.16397H31.5C31.4853 8.03656 31.6947 6.91746 32.116 5.87162C32.5373 4.82578 33.1621 3.87402 33.9542 3.07159C34.7463 2.26915 35.6898 1.63202 36.7301 1.19715C37.7704 0.76229 38.8866 0.538361 40.0141 0.538361C41.1417 0.538361 42.2579 0.76229 43.2982 1.19715C44.3385 1.63202 45.282 2.26915 46.0741 3.07159C46.8662 3.87402 47.491 4.82578 47.9123 5.87162C48.3336 6.91746 48.543 8.03656 48.5283 9.16397C48.5283 9.18887 48.5283 9.21377 48.5273 9.23916C48.8408 9.21084 49.1298 9.19716 49.4111 9.19716C52.4168 9.22046 55.2905 10.435 57.4019 12.5743C59.5133 14.7136 60.69 17.603 60.6738 20.6088C60.6723 21.7457 60.5022 22.8762 60.1689 23.9633C61.5891 25.2323 62.6712 26.8347 63.3179 28.6261C63.9646 30.4175 64.1554 32.3416 63.8734 34.2251C63.5913 36.1087 62.8451 37.8924 61.702 39.4158C60.5589 40.9391 59.0548 42.1542 57.3252 42.9515C58.0254 44.4673 58.3885 46.1169 58.3896 47.7865C58.4143 50.6613 57.3428 53.4374 55.3931 55.5501C53.4434 57.6628 50.762 58.9533 47.8945 59.1591C47.2657 60.7381 46.1798 62.0936 44.776 63.0519C43.3722 64.0101 41.7143 64.5276 40.0146 64.538Z" fill="white"/>
<path d="M32.5 14.9374H31.5V23.538H32.5V14.9374Z" fill="white"/>
<path d="M41.5 42.038H22.5V23.038H41.5V42.038ZM23.5 41.038H40.5V24.038H23.5V41.038Z" fill="white"/>
<path d="M23 32.038H14.3994V33.038H23V32.038Z" fill="white"/>
<path d="M49.6006 32.038H41V33.038H49.6006V32.038Z" fill="white"/>
<path d="M49.6006 23.038H41V24.038H49.6006V23.038Z" fill="white"/>
<path d="M49.6006 41.038H41V42.038H49.6006V41.038Z" fill="white"/>
<path d="M23 41.038H14.3994V42.038H23V41.038Z" fill="white"/>
<path d="M23 23.038H14.3994V24.038H23V23.038Z" fill="white"/>
<path d="M23.5 14.9374H22.5V23.538H23.5V14.9374Z" fill="white"/>
<path d="M41.5 14.9374H40.5V23.538H41.5V14.9374Z" fill="white"/>
<path d="M23.5 41.538H22.5V50.1386H23.5V41.538Z" fill="white"/>
<path d="M41.5 41.538H40.5V50.1386H41.5V41.538Z" fill="white"/>
</g>
<defs>
<clipPath id="clip0_8_664">
<rect width="64.0002" height="64.0001" fill="white" transform="translate(0 0.537964)"/>
</clipPath>
</defs>
</svg>
