<svg width="64" height="64" viewBox="0 0 64 64" fill="none" xmlns="http://www.w3.org/2000/svg">
<g clip-path="url(#clip0_8_644)">
<path opacity="0.15" d="M0.5 21.4095V63.5H63.5V21.4095H0.5ZM37.8675 50.8527H26.1325V41.9303H37.8675V50.8527Z" fill="#183A9E"/>
<path d="M64 64H0V11.6748H64V64ZM1 63H63V12.6748H1V63Z" fill="#204ECF"/>
<path d="M44.9688 12.1748H43.9688V3.875C43.968 3.11275 43.6648 2.38194 43.1258 1.84295C42.5868 1.30395 41.856 1.00079 41.0938 1H22.9062C22.144 1.00079 21.4132 1.30395 20.8742 1.84295C20.3352 2.38194 20.032 3.11275 20.0312 3.875V12.1748H19.0312V3.875C19.0324 2.84764 19.441 1.86268 20.1675 1.13623C20.8939 0.409775 21.8789 0.00114872 22.9062 0L41.0938 0C42.1211 0.00114872 43.1061 0.409775 43.8325 1.13623C44.559 1.86268 44.9676 2.84764 44.9688 3.875V12.1748Z" fill="#204ECF"/>
<path d="M38.3677 51.353H25.6323V41.4302H38.3677V51.353ZM26.6323 50.353H37.3677V42.4302H26.6323V50.353Z" fill="#204ECF"/>
<path d="M26.1323 46.8916H3.875C2.84764 46.8905 1.86268 46.4818 1.13623 45.7554C0.409775 45.0289 0.00114872 44.044 0 43.0166L0 39.6416H1V43.0166C1.00079 43.7789 1.30395 44.5097 1.84295 45.0487C2.38194 45.5877 3.11275 45.8908 3.875 45.8916H26.1323V46.8916Z" fill="#204ECF"/>
<path d="M60.125 46.8916H37.8677V45.8916H60.125C60.8872 45.8908 61.6181 45.5877 62.1571 45.0487C62.696 44.5097 62.9992 43.7789 63 43.0166V39.6416H64V43.0166C63.9988 44.044 63.5902 45.0289 62.8638 45.7554C62.1373 46.4818 61.1524 46.8905 60.125 46.8916V46.8916Z" fill="#204ECF"/>
</g>
<defs>
<clipPath id="clip0_8_644">
<rect width="64" height="64" fill="white"/>
</clipPath>
</defs>
</svg>
