<svg width="64" height="65" viewBox="0 0 64 64" fill="none" xmlns="http://www.w3.org/2000/svg">
<g clip-path="url(#clip0_8_695)">
<path opacity="0.3" d="M0.5 21.9474V64.038H63.5V21.9474H0.5ZM37.8675 51.3907H26.1325V42.4683H37.8675V51.3907Z" fill="#231F20"/>
<path d="M64 64.538H0V12.2128H64V64.538ZM1 63.538H63V13.2128H1V63.538Z" fill="white"/>
<path d="M44.9688 12.7128H43.9688V4.41296C43.968 3.65071 43.6648 2.9199 43.1258 2.38091C42.5868 1.84191 41.856 1.53876 41.0938 1.53796H22.9062C22.144 1.53876 21.4132 1.84191 20.8742 2.38091C20.3352 2.9199 20.032 3.65071 20.0312 4.41296V12.7128H19.0312V4.41296C19.0324 3.3856 19.441 2.40065 20.1675 1.67419C20.8939 0.947739 21.8789 0.539113 22.9062 0.537964L41.0938 0.537964C42.1211 0.539113 43.1061 0.947739 43.8325 1.67419C44.559 2.40065 44.9676 3.3856 44.9688 4.41296V12.7128Z" fill="white"/>
<path d="M38.3677 51.891H25.6323V41.9681H38.3677V51.891ZM26.6323 50.891H37.3677V42.9681H26.6323V50.891Z" fill="white"/>
<path d="M26.1323 47.4296H3.875C2.84764 47.4284 1.86268 47.0198 1.13623 46.2933C0.409775 45.5669 0.00114872 44.5819 0 43.5546L0 40.1796H1V43.5546C1.00079 44.3168 1.30395 45.0476 1.84295 45.5866C2.38194 46.1256 3.11275 46.4288 3.875 46.4296H26.1323V47.4296Z" fill="white"/>
<path d="M60.125 47.4296H37.8677V46.4296H60.125C60.8872 46.4288 61.6181 46.1256 62.1571 45.5866C62.696 45.0476 62.9992 44.3168 63 43.5546V40.1796H64V43.5546C63.9988 44.5819 63.5902 45.5669 62.8638 46.2933C62.1373 47.0198 61.1524 47.4284 60.125 47.4296V47.4296Z" fill="white"/>
</g>
<defs>
<clipPath id="clip0_8_695">
<rect width="64" height="64" fill="white" transform="translate(0 0.537964)"/>
</clipPath>
</defs>
</svg>
