<svg width="64" height="64" viewBox="0 0 64 64" fill="none" xmlns="http://www.w3.org/2000/svg">
<g clip-path="url(#clip0_1183_857)">
<path opacity="0.15" d="M37.91 34.23C37.68 33.59 37.34 33.02 36.9 32.5C36.46 31.99 35.91 31.54 35.26 31.17C34.61 30.8 33.86 30.52 33.01 30.36L30.39 29.83C29.7 29.68 29.19 29.4 28.85 29C28.51 28.6 28.35 28.12 28.35 27.58C28.35 27.24 28.42 26.92 28.56 26.63C28.7 26.33 28.9 26.06 29.16 25.83C29.42 25.6 29.72 25.41 30.09 25.27C30.45 25.13 30.85 25.06 31.3 25.06C31.9 25.06 32.41 25.15 32.82 25.34C33.23 25.53 33.57 25.76 33.84 26.04C34.1 26.32 34.3 26.63 34.44 26.95C34.57 27.28 34.67 27.58 34.72 27.86L38 26.79C37.89 26.23 37.7 25.64 37.4 25.03C37.11 24.42 36.7 23.86 36.17 23.36C35.64 22.85 34.97 22.44 34.17 22.11C33.82 21.97 33.43 21.86 33.01 21.78V19H30.01V21.74C29.58 21.82 29.16 21.94 28.75 22.1C27.96 22.42 27.26 22.86 26.66 23.42C26.06 23.98 25.59 24.64 25.24 25.4C24.9 26.16 24.72 26.98 24.72 27.86C24.72 29.38 25.17 30.63 26.06 31.61C26.95 32.59 28.15 33.24 29.65 33.56L32.27 34.12C33.01 34.27 33.58 34.56 33.97 34.98C34.36 35.4 34.55 35.9 34.55 36.48C34.55 37.19 34.29 37.78 33.77 38.24C33.25 38.7 32.49 38.93 31.51 38.93C30.84 38.93 30.26 38.83 29.76 38.62C29.27 38.41 28.85 38.14 28.52 37.79C28.18 37.44 27.92 37.05 27.74 36.6C27.55 36.15 27.44 35.68 27.41 35.2L24.02 36.15C24.09 36.86 24.28 37.59 24.6 38.33C24.92 39.07 25.38 39.74 25.99 40.34C26.6 40.94 27.35 41.43 28.25 41.81C28.77 42.03 29.37 42.18 30.01 42.28V45.01H33.01V42.26C33.5 42.17 33.96 42.04 34.38 41.86C35.22 41.5 35.93 41.04 36.5 40.47C37.07 39.9 37.51 39.24 37.81 38.5C38.11 37.76 38.26 37.01 38.26 36.24C38.26 35.55 38.15 34.88 37.92 34.25L37.91 34.23Z" fill="#183A9C"/>
<path opacity="0.15" d="M12 59H1V64H12V59Z" fill="#183A9C"/>
<path opacity="0.15" d="M62.96 59H51.96V64H62.96V59Z" fill="#183A9C"/>
<path opacity="0.15" d="M29 55H18V64H29V55Z" fill="#183A9C"/>
<path opacity="0.15" d="M46 55H35V64H46V55Z" fill="#183A9C"/>
<path d="M12.5 64V35.5H0.5V64" stroke="#204ECD" stroke-miterlimit="10"/>
<path d="M29.5 16V0.5H17.5V64" stroke="#204ECD" stroke-miterlimit="10"/>
<path d="M29.5 64V48" stroke="#204ECD" stroke-miterlimit="10"/>
<path d="M34.5 48V64" stroke="#204ECD" stroke-miterlimit="10"/>
<path d="M46.5 64V0.5H34.5V16" stroke="#204ECD" stroke-miterlimit="10"/>
<path d="M63.46 64V35.5H51.46V64" stroke="#204ECD" stroke-miterlimit="10"/>
<path d="M38.41 33.73C38.18 33.09 37.84 32.52 37.4 32C36.96 31.49 36.41 31.04 35.76 30.67C35.11 30.3 34.36 30.02 33.51 29.86L30.89 29.33C30.2 29.18 29.69 28.9 29.35 28.5C29.01 28.1 28.85 27.62 28.85 27.08C28.85 26.74 28.92 26.42 29.06 26.13C29.2 25.83 29.4 25.56 29.66 25.33C29.92 25.1 30.22 24.91 30.59 24.77C30.95 24.63 31.35 24.56 31.8 24.56C32.4 24.56 32.91 24.65 33.32 24.84C33.73 25.03 34.07 25.26 34.34 25.54C34.6 25.82 34.8 26.13 34.94 26.45C35.07 26.78 35.17 27.08 35.22 27.36L38.5 26.29C38.39 25.73 38.2 25.14 37.9 24.53C37.61 23.92 37.2 23.36 36.67 22.86C36.14 22.35 35.47 21.94 34.67 21.61C34.32 21.47 33.93 21.36 33.51 21.28V18.5H30.51V21.24C30.08 21.32 29.66 21.44 29.25 21.6C28.46 21.92 27.76 22.36 27.16 22.92C26.56 23.48 26.09 24.14 25.74 24.9C25.4 25.66 25.22 26.48 25.22 27.36C25.22 28.88 25.67 30.13 26.56 31.11C27.45 32.09 28.65 32.74 30.15 33.06L32.77 33.62C33.51 33.77 34.08 34.06 34.47 34.48C34.86 34.9 35.05 35.4 35.05 35.98C35.05 36.69 34.79 37.28 34.27 37.74C33.75 38.2 32.99 38.43 32.01 38.43C31.34 38.43 30.76 38.33 30.26 38.12C29.77 37.91 29.35 37.64 29.02 37.29C28.68 36.94 28.42 36.55 28.24 36.1C28.05 35.65 27.94 35.18 27.91 34.7L24.52 35.65C24.59 36.36 24.78 37.09 25.1 37.83C25.42 38.57 25.88 39.24 26.49 39.84C27.1 40.44 27.85 40.93 28.75 41.31C29.27 41.53 29.87 41.68 30.51 41.78V44.51H33.51V41.76C34 41.67 34.46 41.54 34.88 41.36C35.72 41 36.43 40.54 37 39.97C37.57 39.4 38.01 38.74 38.31 38C38.61 37.26 38.76 36.51 38.76 35.74C38.76 35.05 38.65 34.38 38.42 33.75L38.41 33.73Z" stroke="#204ECD" stroke-miterlimit="10"/>
</g>
<defs>
<clipPath id="clip0_1183_857">
<rect width="64" height="64" fill="white"/>
</clipPath>
</defs>
</svg>
