<svg width="64" height="64" viewBox="0 0 64 64" fill="none" xmlns="http://www.w3.org/2000/svg">
<g clip-path="url(#clip0_8_829)">
<path opacity="0.3" d="M54.5751 54.2738H0.500111V63.5H54.5751V54.2738Z" fill="#231F20"/>
<path opacity="0.3" d="M54.5751 36.4625H0.500111V45.475H54.5751V36.4625Z" fill="#231F20"/>
<path opacity="0.3" d="M36.5501 18.525H0.500111V27.45H36.5501V18.525Z" fill="#231F20"/>
<path opacity="0.3" d="M63.5001 9.42499H45.4751V18.525H63.5001V9.42499Z" fill="#231F20"/>
<path d="M19.025 64H9.91821e-05V44.9751H19.025V64ZM1.0001 63H18.025V45.9751H1.0001V63Z" fill="white"/>
<path d="M37.0499 64H18.025V44.9751H37.0499V64ZM19.025 63H36.0499V45.9751H19.025V63Z" fill="white"/>
<path d="M55.0753 64H36.0499V44.9751H55.0753V64ZM37.0499 63H54.0753V45.9751H37.0499V63Z" fill="white"/>
<path d="M19.025 45.9751H9.91821e-05V26.9502H19.025V45.9751ZM1.0001 44.9751H18.025V27.9502H1.0001V44.9751Z" fill="white"/>
<path d="M37.0499 45.9751H18.025V26.9502H37.0499V45.9751ZM19.025 44.9751H36.0499V27.9502H19.025V44.9751Z" fill="white"/>
<path d="M55.0753 45.9751H36.0499V26.9502H55.0753V45.9751ZM37.0499 44.9751H54.0753V27.9502H37.0499V44.9751Z" fill="white"/>
<path d="M19.025 27.9502H9.91821e-05V8.9248H19.025V27.9502ZM1.0001 26.9502H18.025V9.9248H1.0001V26.9502Z" fill="white"/>
<path d="M37.0499 27.9502H18.025V8.9248H37.0499V27.9502ZM19.025 26.9502H36.0499V9.9248H19.025V26.9502Z" fill="white"/>
<path d="M64.0001 19.0249H44.9752V0H64.0001V19.0249ZM45.9752 18.0249H63.0001V1H45.9752V18.0249Z" fill="white"/>
</g>
<defs>
<clipPath id="clip0_8_829">
<rect width="64.0001" height="64.0001" fill="white"/>
</clipPath>
</defs>
</svg>
