<svg width="64" height="64" viewBox="0 0 64 64" fill="none" xmlns="http://www.w3.org/2000/svg">
<g clip-path="url(#clip0_8_746)">
<path opacity="0.15" d="M29.1405 22.0009H21.4119V29.7295H29.1405V22.0009Z" fill="#183A9E"/>
<path opacity="0.15" d="M42.5879 22.0009H34.8592V29.7295H42.5879V22.0009Z" fill="#183A9E"/>
<path opacity="0.15" d="M56.0352 22.0009H48.3066V29.7295H56.0352V22.0009Z" fill="#183A9E"/>
<path opacity="0.15" d="M15.6932 35.4482H7.96457V43.1768H15.6932V35.4482Z" fill="#183A9E"/>
<path opacity="0.15" d="M29.1405 35.4482H21.4119V43.1768H29.1405V35.4482Z" fill="#183A9E"/>
<path opacity="0.15" d="M42.5879 35.4482H34.8592V43.1768H42.5879V35.4482Z" fill="#183A9E"/>
<path opacity="0.15" d="M56.0352 35.4482H48.3066V43.1768H56.0352V35.4482Z" fill="#183A9E"/>
<path opacity="0.15" d="M15.6932 48.8955H7.96457V56.6241H15.6932V48.8955Z" fill="#183A9E"/>
<path opacity="0.15" d="M29.1405 48.8955H21.4119V56.6241H29.1405V48.8955Z" fill="#183A9E"/>
<path opacity="0.15" d="M42.5879 48.8955H34.8592V56.6241H42.5879V48.8955Z" fill="#183A9E"/>
<path d="M60.6874 64H3.31238C2.43414 63.9991 1.59214 63.6498 0.97113 63.0287C0.350121 62.4077 0.000822913 61.5657 -0.00012207 60.6875L-0.00012207 8C0.000822913 7.12176 0.350121 6.27976 0.97113 5.65875C1.59214 5.03774 2.43414 4.68844 3.31238 4.6875H60.6874C61.5656 4.68844 62.4076 5.03774 63.0286 5.65875C63.6496 6.27976 63.9989 7.12176 63.9999 8V60.6875C63.9989 61.5657 63.6496 62.4077 63.0286 63.0287C62.4076 63.6498 61.5656 63.9991 60.6874 64ZM3.31238 5.6875C2.6993 5.68827 2.11155 5.93215 1.67804 6.36566C1.24453 6.79917 1.00065 7.38692 0.999878 8V60.6875C1.00065 61.3006 1.24453 61.8883 1.67804 62.3218C2.11155 62.7554 2.6993 62.9992 3.31238 63H60.6874C61.3005 62.9992 61.8882 62.7554 62.3217 62.3218C62.7552 61.8883 62.9991 61.3006 62.9999 60.6875V8C62.9991 7.38692 62.7552 6.79917 62.3217 6.36566C61.8882 5.93215 61.3005 5.68827 60.6874 5.6875H3.31238Z" fill="#204ECF"/>
<path d="M63.4999 14.5864H0.499878V15.5864H63.4999V14.5864Z" fill="#204ECF"/>
<path d="M43.0878 43.6768H34.3593V34.9482H43.0878V43.6768ZM35.3593 42.6768H42.0878V35.9482H35.3593V42.6768Z" fill="#204ECF"/>
<path d="M16.1635 0H15.1635V10.375H16.1635V0Z" fill="#204ECF"/>
<path d="M48.8358 0H47.8358V10.375H48.8358V0Z" fill="#204ECF"/>
</g>
<defs>
<clipPath id="clip0_8_746">
<rect width="64" height="64" fill="white"/>
</clipPath>
</defs>
</svg>
