<svg width="64" height="64" viewBox="0 0 64 64" fill="none" xmlns="http://www.w3.org/2000/svg">
<path d="M6.97588 54.7833C1.57829 44.3737 1.19275 6.97607 1.19275 6.97607H56.7108C56.7108 6.97607 56.7108 44.3737 62.1084 54.7833H6.97588Z" stroke="white" stroke-miterlimit="10"/>
<path d="M1.19275 6.97607V62.4941H56.7108V54.7833" stroke="white" stroke-miterlimit="10"/>
<path opacity="0.3" d="M6.97592 54.783C3.08194 47.3035 1.80966 22.1661 1.38556 12.9517V58.4456H56.5181V54.783H6.97592Z" fill="#231F20"/>
<path opacity="0.3" d="M42.253 27.6023L29.1446 40.7107L21.0482 32.6144L23.3615 30.3011L29.1446 36.0842L39.9398 25.2891L42.253 27.6023Z" fill="#231F20"/>
<path d="M42.253 27.6023L29.1446 40.7107L21.0482 32.6144L23.3615 30.3011L29.1446 36.0842L39.9398 25.2891L42.253 27.6023Z" stroke="white" stroke-miterlimit="10"/>
<path d="M6.20483 5.43384C6.59038 2.88926 7.86267 1.19287 9.67471 1.19287C11.7952 1.19287 13.5301 3.776 13.5301 6.976C13.5301 10.176 11.7952 12.7591 9.67471 12.7591" stroke="white" stroke-miterlimit="10"/>
<path d="M18.9277 5.43384C19.3133 2.88926 20.5856 1.19287 22.3976 1.19287C24.5181 1.19287 26.253 3.776 26.253 6.976C26.253 10.176 24.5181 12.7591 22.3976 12.7591" stroke="white" stroke-miterlimit="10"/>
<path d="M31.6506 5.43384C32.0361 2.88926 33.3084 1.19287 35.1205 1.19287C37.2409 1.19287 38.9759 3.776 38.9759 6.976C38.9759 10.176 37.2409 12.7591 35.1205 12.7591" stroke="white" stroke-miterlimit="10"/>
<path d="M43.988 5.43384C44.3735 2.88926 45.6458 1.19287 47.4579 1.19287C49.5783 1.19287 51.3133 3.776 51.3133 6.976C51.3133 10.176 49.5783 12.7591 47.4579 12.7591" stroke="white" stroke-miterlimit="10"/>
</svg>
