<svg width="64" height="64" viewBox="0 0 64 64" fill="none" xmlns="http://www.w3.org/2000/svg">
<g clip-path="url(#clip0_8_846)">
<path opacity="0.3" d="M29.1406 22.0009H21.412V29.7295H29.1406V22.0009Z" fill="#231F20"/>
<path opacity="0.3" d="M42.588 22.0009H34.8593V29.7295H42.588V22.0009Z" fill="#231F20"/>
<path opacity="0.3" d="M56.0353 22.0009H48.3067V29.7295H56.0353V22.0009Z" fill="#231F20"/>
<path opacity="0.3" d="M15.6933 35.4482H7.96469V43.1768H15.6933V35.4482Z" fill="#231F20"/>
<path opacity="0.3" d="M29.1406 35.4482H21.412V43.1768H29.1406V35.4482Z" fill="#231F20"/>
<path opacity="0.3" d="M42.588 35.4482H34.8593V43.1768H42.588V35.4482Z" fill="#231F20"/>
<path opacity="0.3" d="M56.0353 35.4482H48.3067V43.1768H56.0353V35.4482Z" fill="#231F20"/>
<path opacity="0.3" d="M15.6933 48.8955H7.96469V56.6241H15.6933V48.8955Z" fill="#231F20"/>
<path opacity="0.3" d="M29.1406 48.8955H21.412V56.6241H29.1406V48.8955Z" fill="#231F20"/>
<path opacity="0.3" d="M42.588 48.8955H34.8593V56.6241H42.588V48.8955Z" fill="#231F20"/>
<path d="M60.6875 64H3.3125C2.43426 63.9991 1.59226 63.6498 0.971253 63.0287C0.350243 62.4077 0.000944983 61.5657 0 60.6875L0 8C0.000944983 7.12176 0.350243 6.27976 0.971253 5.65875C1.59226 5.03774 2.43426 4.68844 3.3125 4.6875H60.6875C61.5657 4.68844 62.4077 5.03774 63.0287 5.65875C63.6498 6.27976 63.9991 7.12176 64 8V60.6875C63.9991 61.5657 63.6498 62.4077 63.0287 63.0287C62.4077 63.6498 61.5657 63.9991 60.6875 64ZM3.3125 5.6875C2.69942 5.68827 2.11167 5.93215 1.67816 6.36566C1.24465 6.79917 1.00077 7.38692 1 8V60.6875C1.00077 61.3006 1.24465 61.8883 1.67816 62.3218C2.11167 62.7554 2.69942 62.9992 3.3125 63H60.6875C61.3006 62.9992 61.8883 62.7554 62.3218 62.3218C62.7554 61.8883 62.9992 61.3006 63 60.6875V8C62.9992 7.38692 62.7554 6.79917 62.3218 6.36566C61.8883 5.93215 61.3006 5.68827 60.6875 5.6875H3.3125Z" fill="white"/>
<path d="M63.5 14.5864H0.5V15.5864H63.5V14.5864Z" fill="white"/>
<path d="M43.0879 43.6768H34.3594V34.9482H43.0879V43.6768ZM35.3594 42.6768H42.0879V35.9482H35.3594V42.6768Z" fill="white"/>
<path d="M16.1636 0H15.1636V10.375H16.1636V0Z" fill="white"/>
<path d="M48.8359 0H47.8359V10.375H48.8359V0Z" fill="white"/>
</g>
<defs>
<clipPath id="clip0_8_846">
<rect width="64" height="64" fill="white"/>
</clipPath>
</defs>
</svg>
