<svg width="64" height="64" viewBox="0 0 64 64" fill="none" xmlns="http://www.w3.org/2000/svg">
<g clip-path="url(#clip0_8_865)">
<path opacity="0.3" d="M39.2047 58.8007V54.9367L0.5 54.998V58.8007C0.499962 59.4178 0.621465 60.0288 0.857571 60.599C1.09368 61.1691 1.43976 61.6871 1.87607 62.1234C2.31237 62.5598 2.83035 62.906 3.40044 63.1421C3.97052 63.3783 4.58153 63.4999 5.1986 63.4999H43.9035C42.6572 63.4998 41.462 63.0047 40.5808 62.1234C39.6997 61.2422 39.2046 60.047 39.2047 58.8007V58.8007Z" fill="#231F20"/>
<path opacity="0.3" d="M48.6022 32.8427C53.5067 32.8427 57.4827 28.8668 57.4827 23.9622C57.4827 19.0576 53.5067 15.0817 48.6022 15.0817C43.6976 15.0817 39.7216 19.0576 39.7216 23.9622C39.7216 28.8668 43.6976 32.8427 48.6022 32.8427Z" fill="#231F20"/>
<path d="M10.3975 54.9834H9.39746V5.19922C9.39896 3.82085 9.94715 2.49935 10.9218 1.52465C11.8964 0.549943 13.2178 0.00163049 14.5962 0L53.3008 0V1C52.1875 1.00129 51.1202 1.44413 50.3331 2.23137C49.5459 3.01862 49.1032 4.08596 49.1021 5.19922V9.063H48.1021V5.19922C48.1022 4.38043 48.2958 3.57326 48.6671 2.84351C49.0384 2.11376 49.5769 1.48209 50.2388 1H14.5962C13.4829 1.00129 12.4156 1.44413 11.6285 2.23137C10.8413 3.01862 10.3986 4.08596 10.3975 5.19922V54.9834Z" fill="white"/>
<path d="M43.9033 64H5.19873C3.82036 63.9984 2.49891 63.4501 1.5243 62.4754C0.549689 61.5007 0.00150058 60.1792 0 58.8008V54.499L39.7046 54.436V58.8008C39.7046 59.9143 40.147 60.9823 40.9344 61.7697C41.7218 62.5571 42.7897 62.9995 43.9033 62.9995C45.0169 62.9995 46.0849 62.5571 46.8723 61.7697C47.6597 60.9823 48.1021 59.9143 48.1021 58.8008V45.0098H49.1021V58.8008C49.1006 60.1791 48.5524 61.5007 47.5778 62.4754C46.6031 63.4501 45.2817 63.9984 43.9033 64V64ZM1 55.4971V58.8008C1.00116 59.9141 1.44388 60.9814 2.23103 61.7687C3.01818 62.5559 4.08547 62.9987 5.19873 63H40.8413C40.1795 62.5179 39.641 61.8863 39.2696 61.1565C38.8983 60.4268 38.7047 59.6196 38.7046 58.8008V55.438L1 55.4971Z" fill="white"/>
<path d="M41.8154 38.127H16.7041V39.127H41.8154V38.127Z" fill="white"/>
<path d="M36.0562 31.5H16.7041V32.5H36.0562V31.5Z" fill="white"/>
<path d="M33.7705 24.873H16.7041V25.873H33.7705V24.873Z" fill="white"/>
<path d="M34.644 18.2461H16.7041V19.2461H34.644V18.2461Z" fill="white"/>
<path d="M30.377 44.7539H16.7041V45.7539H30.377V44.7539Z" fill="white"/>
<path d="M48.6021 39.3613C45.5563 39.3616 42.5789 38.4586 40.0464 36.7667C37.5138 35.0747 35.5399 32.6698 34.3742 29.856C33.2085 27.0421 32.9034 23.9458 33.4974 20.9586C34.0915 17.9714 35.558 15.2274 37.7116 13.0737C39.8652 10.9199 42.6091 9.4532 45.5963 8.85895C48.5835 8.26469 51.6798 8.56961 54.4937 9.73514C57.3076 10.9007 59.7127 12.8745 61.4048 15.4069C63.0969 17.9393 64.0001 20.9167 64 23.9624C63.9955 28.0449 62.3718 31.9589 59.4852 34.8458C56.5985 37.7326 52.6846 39.3566 48.6021 39.3613V39.3613ZM48.6021 9.563C45.7541 9.56275 42.9701 10.407 40.602 11.9891C38.2339 13.5711 36.3881 15.8199 35.2981 18.4509C34.2081 21.082 33.9227 23.9772 34.4782 26.7705C35.0336 29.5637 36.4049 32.1295 38.4186 34.1434C40.4323 36.1573 42.9979 37.5288 45.7911 38.0845C48.5843 38.6403 51.4795 38.3552 54.1107 37.2655C56.7419 36.1757 58.9908 34.3301 60.5731 31.9622C62.1554 29.5943 63 26.8103 63 23.9624C62.9959 20.145 61.4777 16.485 58.7785 13.7856C56.0793 11.0861 52.4195 9.56752 48.6021 9.563V9.563Z" fill="white"/>
<path d="M55.889 49.23L48.602 45.569L41.315 49.23V37.228H42.315V47.609L48.602 44.45L54.889 47.609V37.228H55.889V49.23Z" fill="white"/>
</g>
<defs>
<clipPath id="clip0_8_865">
<rect width="64" height="64" fill="white"/>
</clipPath>
</defs>
</svg>
