<svg width="64" height="64" viewBox="0 0 64 64" fill="none" xmlns="http://www.w3.org/2000/svg">
<g clip-path="url(#clip0_1154_1012)">
<path opacity="0.15" d="M10.05 40.54L3.5 36L4.94 35H1V44H9.42L10.05 40.54Z" fill="#183A9C"/>
<path opacity="0.15" d="M37.06 35L38.5 36L31.95 40.54L32.58 44H63V35H37.06Z" fill="#183A9C"/>
<path opacity="0.15" d="M25.8 47H25.5L21 53.5L16.5 47H16.2L12.5 47.67V62.5L21 58.04L29.5 62.5V47.67L25.8 47Z" fill="#183A9C"/>
<path d="M29.5 48V62.5L21 58.04L12.5 62.5V48" stroke="#204ECD" stroke-miterlimit="10"/>
<path d="M9 44.5H0.5V3.5H63.5V44.5H33" stroke="#204ECD" stroke-miterlimit="10"/>
<path d="M21 18.5L25.54 25.05L33.37 23.63L31.95 31.46L38.5 36L31.95 40.54L33.37 48.37L25.54 46.95L21 53.5L16.46 46.95L8.63 48.37L10.05 40.54L3.5 36L10.05 31.46L8.63 23.63L16.46 25.05L21 18.5Z" stroke="#204ECD" stroke-miterlimit="10"/>
<path d="M41 14.5H55" stroke="#204ECD" stroke-miterlimit="10"/>
<path d="M41 20.5H55" stroke="#204ECD" stroke-miterlimit="10"/>
<path d="M41 26.5H47" stroke="#204ECD" stroke-miterlimit="10"/>
</g>
<defs>
<clipPath id="clip0_1154_1012">
<rect width="64" height="64" fill="white"/>
</clipPath>
</defs>
</svg>
