<svg width="64" height="64" viewBox="0 0 64 64" fill="none" xmlns="http://www.w3.org/2000/svg">
<g clip-path="url(#clip0_8_765)">
<path opacity="0.15" d="M39.2045 58.8007V54.9367L0.499878 54.998V58.8007C0.49984 59.4178 0.621343 60.0288 0.857449 60.599C1.09356 61.1691 1.43964 61.6871 1.87595 62.1234C2.31225 62.5598 2.83023 62.906 3.40031 63.1421C3.97039 63.3783 4.58141 63.4999 5.19848 63.4999H43.9033C42.6571 63.4998 41.4619 63.0047 40.5807 62.1234C39.6995 61.2422 39.2045 60.047 39.2045 58.8007V58.8007Z" fill="#183A9E"/>
<path opacity="0.15" d="M48.602 32.8427C53.5066 32.8427 57.4826 28.8668 57.4826 23.9622C57.4826 19.0576 53.5066 15.0817 48.602 15.0817C43.6975 15.0817 39.7215 19.0576 39.7215 23.9622C39.7215 28.8668 43.6975 32.8427 48.602 32.8427Z" fill="#183A9E"/>
<path d="M10.3973 54.9834H9.39734V5.19922C9.39884 3.82085 9.94703 2.49935 10.9216 1.52465C11.8963 0.549943 13.2177 0.00163049 14.5961 0L53.3007 0V1C52.1874 1.00129 51.1201 1.44413 50.333 2.23137C49.5458 3.01862 49.1031 4.08596 49.1019 5.19922V9.063H48.1019V5.19922C48.102 4.38043 48.2957 3.57326 48.667 2.84351C49.0383 2.11376 49.5768 1.48209 50.2386 1H14.5961C13.4828 1.00129 12.4155 1.44413 11.6284 2.23137C10.8412 3.01862 10.3985 4.08596 10.3973 5.19922V54.9834Z" fill="#204ECF"/>
<path d="M43.9032 64H5.19861C3.82023 63.9984 2.49879 63.4501 1.52418 62.4754C0.549567 61.5007 0.00137851 60.1792 -0.00012207 58.8008V54.499L39.7045 54.436V58.8008C39.7045 59.9143 40.1468 60.9823 40.9342 61.7697C41.7217 62.5571 42.7896 62.9995 43.9032 62.9995C45.0168 62.9995 46.0847 62.5571 46.8721 61.7697C47.6596 60.9823 48.1019 59.9143 48.1019 58.8008V45.0098H49.1019V58.8008C49.1004 60.1791 48.5523 61.5007 47.5776 62.4754C46.603 63.4501 45.2816 63.9984 43.9032 64V64ZM0.999878 55.4971V58.8008C1.00103 59.9141 1.44376 60.9814 2.23091 61.7687C3.01806 62.5559 4.08535 62.9987 5.19861 63H40.8412C40.1794 62.5179 39.6408 61.8863 39.2695 61.1565C38.8982 60.4268 38.7046 59.6196 38.7045 58.8008V55.438L0.999878 55.4971Z" fill="#204ECF"/>
<path d="M41.8153 38.127H16.704V39.127H41.8153V38.127Z" fill="#204ECF"/>
<path d="M36.056 31.5H16.704V32.5H36.056V31.5Z" fill="#204ECF"/>
<path d="M33.7704 24.873H16.704V25.873H33.7704V24.873Z" fill="#204ECF"/>
<path d="M34.6439 18.2461H16.704V19.2461H34.6439V18.2461Z" fill="#204ECF"/>
<path d="M30.3768 44.7539H16.704V45.7539H30.3768V44.7539Z" fill="#204ECF"/>
<path d="M48.6019 39.3613C45.5562 39.3616 42.5788 38.4586 40.0463 36.7667C37.5137 35.0747 35.5398 32.6698 34.3741 29.856C33.2084 27.0421 32.9032 23.9458 33.4973 20.9586C34.0914 17.9714 35.5579 15.2274 37.7115 13.0737C39.8651 10.9199 42.609 9.4532 45.5962 8.85895C48.5834 8.26469 51.6797 8.56961 54.4936 9.73514C57.3075 10.9007 59.7126 12.8745 61.4047 15.4069C63.0968 17.9393 63.9999 20.9167 63.9999 23.9624C63.9954 28.0449 62.3717 31.9589 59.485 34.8458C56.5984 37.7326 52.6844 39.3566 48.6019 39.3613V39.3613ZM48.6019 9.563C45.754 9.56275 42.97 10.407 40.6019 11.9891C38.2338 13.5711 36.388 15.8199 35.298 18.4509C34.208 21.082 33.9226 23.9772 34.4781 26.7705C35.0335 29.5637 36.4048 32.1295 38.4184 34.1434C40.4321 36.1573 42.9978 37.5288 45.791 38.0845C48.5842 38.6403 51.4794 38.3552 54.1106 37.2655C56.7418 36.1757 58.9907 34.3301 60.573 31.9622C62.1553 29.5943 62.9998 26.8103 62.9999 23.9624C62.9958 20.145 61.4776 16.485 58.7783 13.7856C56.0791 11.0861 52.4194 9.56752 48.6019 9.563V9.563Z" fill="#204ECF"/>
<path d="M55.8889 49.23L48.6019 45.569L41.3149 49.23V37.228H42.3149V47.609L48.6019 44.45L54.8889 47.609V37.228H55.8889V49.23Z" fill="#204ECF"/>
</g>
<defs>
<clipPath id="clip0_8_765">
<rect width="64" height="64" fill="white"/>
</clipPath>
</defs>
</svg>
