<svg width="64" height="64" viewBox="0 0 64 64" fill="none" xmlns="http://www.w3.org/2000/svg">
<g clip-path="url(#clip0_1158_1469)">
<path opacity="0.3" d="M14.4819 35.4556C6.76155 35.4556 0.499374 41.7177 0.499374 49.4381C0.499374 57.1584 6.76155 63.4206 14.4819 63.4206C22.2022 63.4206 28.4644 57.1584 28.4644 49.4381C28.4644 41.7177 22.2022 35.4556 14.4819 35.4556ZM7.49063 56.4293C7.49063 52.5642 10.6167 49.4381 14.4819 49.4381C12.2747 49.4381 10.4869 47.6503 10.4869 45.4431C10.4869 43.2358 12.2747 41.4481 14.4819 41.4481C16.6891 41.4481 18.4769 43.2358 18.4769 45.4431C18.4769 47.6503 16.6891 49.4381 14.4819 49.4381C18.3471 49.4381 21.4732 52.5642 21.4732 56.4293L20.9738 56.9287H7.99001L7.49063 56.4293Z" fill="black"/>
<path opacity="0.3" d="M42.4469 56.4295C42.4469 52.5643 45.573 49.4383 49.4382 49.4383C47.231 49.4383 45.4432 47.6505 45.4432 45.4432C45.4432 43.236 47.231 41.4482 49.4382 41.4482C51.6454 41.4482 53.4332 43.236 53.4332 45.4432C53.4332 47.6505 51.6454 49.4383 49.4382 49.4383C53.3034 49.4383 56.4295 52.5643 56.4295 56.4295L55.9301 56.9289H42.9463L42.4469 56.4295Z" fill="black"/>
<path opacity="0.3" d="M23.97 14.9813C25.0732 14.9813 25.9675 14.087 25.9675 12.9838C25.9675 11.8806 25.0732 10.9863 23.97 10.9863C22.8668 10.9863 21.9725 11.8806 21.9725 12.9838C21.9725 14.087 22.8668 14.9813 23.97 14.9813Z" fill="black"/>
<path opacity="0.3" d="M39.9501 14.9813C41.0533 14.9813 41.9476 14.087 41.9476 12.9838C41.9476 11.8806 41.0533 10.9863 39.9501 10.9863C38.8469 10.9863 37.9526 11.8806 37.9526 12.9838C37.9526 14.087 38.8469 14.9813 39.9501 14.9813Z" fill="black"/>
<path opacity="0.3" d="M31.96 14.9813C33.0632 14.9813 33.9575 14.087 33.9575 12.9838C33.9575 11.8806 33.0632 10.9863 31.96 10.9863C30.8569 10.9863 29.9625 11.8806 29.9625 12.9838C29.9625 14.087 30.8569 14.9813 31.96 14.9813Z" fill="black"/>
<path d="M49.4382 63.4206C57.1605 63.4206 63.4207 57.1604 63.4207 49.4381C63.4207 41.7158 57.1605 35.4556 49.4382 35.4556C41.7159 35.4556 35.4557 41.7158 35.4557 49.4381C35.4557 57.1604 41.7159 63.4206 49.4382 63.4206Z" stroke="white" stroke-width="1.17" stroke-miterlimit="10"/>
<path d="M14.4819 49.4383C16.6883 49.4383 18.4769 47.6496 18.4769 45.4432C18.4769 43.2369 16.6883 41.4482 14.4819 41.4482C12.2755 41.4482 10.4869 43.2369 10.4869 45.4432C10.4869 47.6496 12.2755 49.4383 14.4819 49.4383Z" stroke="white" stroke-miterlimit="10"/>
<path d="M7.49064 56.4292C7.49064 52.5641 10.6167 49.438 14.4819 49.438C18.3471 49.438 21.4732 52.5641 21.4732 56.4292" stroke="white" stroke-miterlimit="10" stroke-linecap="square"/>
<path d="M49.4382 49.4383C51.6446 49.4383 53.4332 47.6496 53.4332 45.4432C53.4332 43.2369 51.6446 41.4482 49.4382 41.4482C47.2318 41.4482 45.4432 43.2369 45.4432 45.4432C45.4432 47.6496 47.2318 49.4383 49.4382 49.4383Z" stroke="white" stroke-miterlimit="10"/>
<path d="M42.4469 56.4292C42.4469 52.5641 45.573 49.438 49.4382 49.438C53.3034 49.438 56.4295 52.5641 56.4295 56.4292" stroke="white" stroke-miterlimit="10" stroke-linecap="square"/>
<path d="M14.4819 63.4206C22.2042 63.4206 28.4644 57.1604 28.4644 49.4381C28.4644 41.7158 22.2042 35.4556 14.4819 35.4556C6.75956 35.4556 0.499374 41.7158 0.499374 49.4381C0.499374 57.1604 6.75956 63.4206 14.4819 63.4206Z" stroke="white" stroke-miterlimit="10"/>
<path d="M48.4395 0.499512H15.4807V25.4683H25.4682L31.9601 31.9602L38.4519 25.4683H48.4395V0.499512Z" stroke="white" stroke-miterlimit="10"/>
</g>
<defs>
<clipPath id="clip0_1158_1469">
<rect width="64" height="64" fill="white"/>
</clipPath>
</defs>
</svg>
