<svg width="64" height="64" viewBox="0 0 64 64" fill="none" xmlns="http://www.w3.org/2000/svg">
<g clip-path="url(#clip0_8_880)">
<path opacity="0.3" d="M43.1451 6.07302L0.500122 6.07202V43.101L7.87412 35.727H20.8561V20.899H43.1451V6.07302Z" fill="#231F20"/>
<path d="M0.00012207 44.308V5.57202H43.6451V20.899H42.6451V6.57202H1.00012V41.894L7.66712 35.227H20.8561V36.227H8.08112L0.00012207 44.308Z" fill="white"/>
<path d="M64.0002 59.1348L55.9191 51.0538H20.3557V20.3995H64.0002V59.1348ZM21.3557 50.0538H56.3332L63.0002 56.7208V21.3995H21.3557V50.0538Z" fill="white"/>
<path d="M42.1779 43.7403C41.3811 43.7396 40.6091 43.4627 39.9936 42.9567C39.3781 42.4506 38.957 41.7469 38.8022 40.9652C38.6474 40.1836 38.7683 39.3724 39.1445 38.67C39.5207 37.9675 40.1287 37.4172 40.8651 37.1128C41.6015 36.8084 42.4207 36.7688 43.1831 37.0006C43.9454 37.2325 44.6038 37.7215 45.046 38.3843C45.4883 39.0472 45.687 39.8428 45.6084 40.6358C45.5298 41.4287 45.1787 42.1699 44.6149 42.733C44.2951 43.0531 43.9151 43.3069 43.4969 43.4798C43.0787 43.6527 42.6304 43.7412 42.1779 43.7403V43.7403ZM42.1779 37.8507C41.6122 37.8511 41.0641 38.0476 40.6271 38.4068C40.19 38.766 39.891 39.2656 39.7811 39.8205C39.6711 40.3754 39.7569 40.9513 40.0239 41.4501C40.2909 41.9488 40.7225 42.3396 41.2453 42.5557C41.7681 42.7719 42.3497 42.8001 42.8909 42.6356C43.4322 42.471 43.8996 42.1239 44.2137 41.6533C44.5277 41.1828 44.6689 40.6179 44.6131 40.055C44.5574 39.492 44.3081 38.9658 43.9079 38.566C43.6809 38.3387 43.4112 38.1585 43.1143 38.0357C42.8174 37.9129 42.4992 37.8501 42.1779 37.8507Z" fill="white"/>
<path d="M52.3781 34.7769L52.1213 34.3477C51.0924 32.6289 49.6356 31.2061 47.8929 30.2182C46.1502 29.2303 44.1812 28.711 42.1779 28.711C40.1747 28.711 38.2057 29.2303 36.463 30.2182C34.7203 31.2061 33.2634 32.6289 32.2346 34.3477L31.9777 34.7769L31.1198 34.2628L31.3771 33.834C32.4947 31.9669 34.0771 30.4214 35.9701 29.3482C37.8631 28.2751 40.0019 27.711 42.1779 27.711C44.3539 27.711 46.4928 28.2751 48.3858 29.3482C50.2787 30.4214 51.8612 31.9669 52.9787 33.834L53.236 34.2628L52.3781 34.7769Z" fill="white"/>
<path d="M49.2253 37.5586L48.9685 37.1299C48.2659 35.9561 47.271 34.9844 46.0808 34.3097C44.8907 33.635 43.546 33.2804 42.178 33.2804C40.8099 33.2804 39.4652 33.635 38.2751 34.3097C37.0849 34.9844 36.09 35.9561 35.3875 37.1299L35.1306 37.5586L34.2727 37.0445L34.53 36.6153C35.3215 35.2934 36.4421 34.1992 37.7824 33.4394C39.1228 32.6797 40.6373 32.2803 42.178 32.2803C43.7187 32.2803 45.2331 32.6797 46.5735 33.4394C47.9139 34.1992 49.0345 35.2934 49.8259 36.6153L50.0833 37.0445L49.2253 37.5586Z" fill="white"/>
</g>
<defs>
<clipPath id="clip0_8_880">
<rect width="64.0001" height="64" fill="white"/>
</clipPath>
</defs>
</svg>
