<svg width="64" height="64" viewBox="0 0 64 64" fill="none" xmlns="http://www.w3.org/2000/svg">
<g clip-path="url(#clip0_8_780)">
<path opacity="0.15" d="M43.145 6.07302L0.5 6.07202V43.101L7.874 35.727H20.856V20.899H43.145V6.07302Z" fill="#183A9E"/>
<path d="M0 44.308V5.57202H43.645V20.899H42.645V6.57202H1V41.894L7.667 35.227H20.856V36.227H8.081L0 44.308Z" fill="#204ECF"/>
<path d="M64.0001 59.1348L55.919 51.0538H20.3555V20.3995H64.0001V59.1348ZM21.3555 50.0538H56.3331L63.0001 56.7208V21.3995H21.3555V50.0538Z" fill="#204ECF"/>
<path d="M42.1778 43.7403C41.381 43.7396 40.609 43.4627 39.9935 42.9567C39.3779 42.4506 38.9569 41.7469 38.8021 40.9652C38.6472 40.1836 38.7682 39.3724 39.1444 38.67C39.5205 37.9675 40.1286 37.4172 40.865 37.1128C41.6014 36.8084 42.4206 36.7688 43.1829 37.0006C43.9453 37.2325 44.6037 37.7215 45.0459 38.3843C45.4882 39.0472 45.6869 39.8428 45.6083 40.6358C45.5297 41.4287 45.1786 42.1699 44.6148 42.733C44.295 43.0531 43.915 43.3069 43.4968 43.4798C43.0786 43.6527 42.6303 43.7412 42.1778 43.7403V43.7403ZM42.1778 37.8507C41.6121 37.8511 41.064 38.0476 40.627 38.4068C40.1899 38.766 39.8909 39.2656 39.7809 39.8205C39.6709 40.3754 39.7568 40.9513 40.0238 41.4501C40.2908 41.9488 40.7224 42.3396 41.2452 42.5557C41.768 42.7719 42.3495 42.8001 42.8908 42.6356C43.4321 42.471 43.8995 42.1239 44.2135 41.6533C44.5276 41.1828 44.6687 40.6179 44.613 40.055C44.5572 39.492 44.308 38.9658 43.9078 38.566C43.6808 38.3387 43.4111 38.1585 43.1142 38.0357C42.8173 37.9129 42.4991 37.8501 42.1778 37.8507Z" fill="#204ECF"/>
<path d="M52.378 34.7769L52.1212 34.3477C51.0923 32.6289 49.6355 31.2061 47.8928 30.2182C46.1501 29.2303 44.181 28.711 42.1778 28.711C40.1746 28.711 38.2055 29.2303 36.4628 30.2182C34.7201 31.2061 33.2633 32.6289 32.2344 34.3477L31.9776 34.7769L31.1197 34.2628L31.377 33.834C32.4945 31.9669 34.077 30.4214 35.97 29.3482C37.863 28.2751 40.0018 27.711 42.1778 27.711C44.3538 27.711 46.4927 28.2751 48.3856 29.3482C50.2786 30.4214 51.8611 31.9669 52.9786 33.834L53.2359 34.2628L52.378 34.7769Z" fill="#204ECF"/>
<path d="M49.2252 37.5586L48.9683 37.1299C48.2657 35.9561 47.2708 34.9844 46.0807 34.3097C44.8906 33.635 43.5459 33.2804 42.1778 33.2804C40.8098 33.2804 39.4651 33.635 38.2749 34.3097C37.0848 34.9844 36.0899 35.9561 35.3873 37.1299L35.1305 37.5586L34.2726 37.0445L34.5299 36.6153C35.3214 35.2934 36.4419 34.1992 37.7823 33.4394C39.1227 32.6797 40.6371 32.2803 42.1779 32.2803C43.7186 32.2803 45.233 32.6797 46.5734 33.4394C47.9138 34.1992 49.0344 35.2934 49.8258 36.6153L50.0831 37.0445L49.2252 37.5586Z" fill="#204ECF"/>
</g>
<defs>
<clipPath id="clip0_8_780">
<rect width="64.0001" height="64" fill="white"/>
</clipPath>
</defs>
</svg>
