<svg width="64" height="64" viewBox="0 0 64 64" fill="none" xmlns="http://www.w3.org/2000/svg">
<g clip-path="url(#clip0_8_797)">
<path opacity="0.15" d="M44.375 11.75V17.361H58.777V57.889H5.223V17.361H19.625V11.75H0.5V63.5H63.5V11.75H44.375Z" fill="#183A9E"/>
<path d="M64 64H0V11.25H19.625V12.25H1V63H63V12.25H44.375V11.25H64V64Z" fill="#204ECF"/>
<path d="M44.875 17.8609H19.125V5.63919H25.8809C26.0065 4.10263 26.7057 2.66959 27.8394 1.62483C28.9731 0.580069 30.4583 6.10352e-05 32 6.10352e-05C33.5417 6.10352e-05 35.0269 0.580069 36.1606 1.62483C37.2943 2.66959 37.9935 4.10263 38.1191 5.63919H44.875V17.8609ZM20.125 16.8609H43.875V6.63919H37.1392V6.13919C37.1392 4.7762 36.5977 3.46903 35.6339 2.50525C34.6702 1.54147 33.363 1.00003 32 1.00003C30.637 1.00003 29.3298 1.54147 28.3661 2.50525C27.4023 3.46903 26.8608 4.7762 26.8608 6.13919V6.63919H20.125V16.8609Z" fill="#204ECF"/>
<path d="M17.867 29.202L14.624 25.959L15.331 25.252L17.867 27.788L21.701 23.953L22.408 24.66L17.867 29.202Z" fill="#204ECF"/>
<path d="M51.5518 25.9009H29.7812V26.9009H51.5518V25.9009Z" fill="#204ECF"/>
<path d="M17.867 40.426L14.624 37.184L15.331 36.477L17.867 39.012L21.701 35.177L22.408 35.884L17.867 40.426Z" fill="#204ECF"/>
<path d="M51.5518 37.125H29.7812V38.125H51.5518V37.125Z" fill="#204ECF"/>
<path d="M17.867 51.65L14.624 48.408L15.331 47.701L17.867 50.236L21.701 46.401L22.408 47.108L17.867 51.65Z" fill="#204ECF"/>
<path d="M51.5518 48.3491H29.7812V49.3491H51.5518V48.3491Z" fill="#204ECF"/>
</g>
<defs>
<clipPath id="clip0_8_797">
<rect width="64" height="64" fill="white"/>
</clipPath>
</defs>
</svg>
