<svg width="64" height="64" viewBox="0 0 64 64" fill="none" xmlns="http://www.w3.org/2000/svg">
<g clip-path="url(#clip0_8_810)">
<path opacity="0.15" d="M29.961 44.571L17.632 32.242L22.405 27.469L29.961 35.025L41.989 22.997L46.762 27.77L29.961 44.571Z" fill="#183A9E"/>
<path d="M32 64C25.671 64 19.4841 62.1232 14.2218 58.607C8.95939 55.0908 4.85787 50.0931 2.43587 44.2459C0.013865 38.3986 -0.619842 31.9645 0.614885 25.7571C1.84961 19.5497 4.89732 13.8479 9.3726 9.3726C13.8479 4.89732 19.5497 1.84961 25.7571 0.614885C31.9645 -0.619842 38.3986 0.013865 44.2459 2.43587C50.0931 4.85787 55.0908 8.95939 58.607 14.2218C62.1232 19.4841 64 25.671 64 32C63.9905 40.484 60.616 48.6178 54.6169 54.6169C48.6178 60.616 40.484 63.9905 32 64ZM32 1.00001C25.8688 1.00001 19.8753 2.81813 14.7773 6.22446C9.67941 9.63078 5.70607 14.4723 3.35975 20.1368C1.01343 25.8013 0.399529 32.0344 1.59567 38.0478C2.79181 44.0612 5.74428 49.5849 10.0797 53.9203C14.4151 58.2558 19.9388 61.2082 25.9522 62.4044C31.9656 63.6005 38.1987 62.9866 43.8632 60.6403C49.5277 58.294 54.3693 54.3206 57.7756 49.2227C61.1819 44.1248 63 38.1312 63 32C62.9907 23.7812 59.7216 15.9016 53.91 10.09C48.0984 4.27844 40.2189 1.00937 32 1.00001V1.00001Z" fill="#204ECF"/>
<path d="M29.9609 45.2783L16.9248 32.2422L22.4048 26.7617L29.961 34.3178L41.9893 22.29L47.4688 27.7704L29.9609 45.2783ZM18.3389 32.2422L29.9609 43.8642L46.0547 27.7705L41.9893 23.7041L29.9609 35.7319L22.4048 28.1758L18.3389 32.2422Z" fill="#204ECF"/>
</g>
<defs>
<clipPath id="clip0_8_810">
<rect width="64" height="64" fill="white"/>
</clipPath>
</defs>
</svg>
