<svg width="64" height="64" viewBox="0 0 64 64" fill="none" xmlns="http://www.w3.org/2000/svg">
<g clip-path="url(#clip0_8_817)">
<path opacity="0.15" d="M51.552 63.5H12.448L0.5 45.031H63.5L51.552 63.5Z" fill="#183A9E"/>
<path opacity="0.15" d="M12.4481 18.965C11.7556 19.7075 10.8555 20.2243 9.86518 20.4483C8.87482 20.6723 7.83999 20.593 6.89531 20.2207C5.95064 19.8485 5.13986 19.2006 4.56847 18.3613C3.99708 17.5219 3.69154 16.5301 3.69159 15.5147C3.69164 14.4993 3.99729 13.5075 4.56876 12.6682C5.14024 11.8289 5.95108 11.1811 6.89579 10.809C7.8405 10.4368 8.87535 10.3577 9.86568 10.5817C10.856 10.8058 11.756 11.3227 12.4485 12.0653L12.4481 18.965Z" fill="#183A9E"/>
<path d="M63.4999 44.5312H0.499878V45.5312H63.4999V44.5312Z" fill="#204ECF"/>
<path d="M60.16 49.6938H3.69128V50.6938H60.16V49.6938Z" fill="#204ECF"/>
<path d="M56.2303 55.668H7.76746V56.668H56.2303V55.668Z" fill="#204ECF"/>
<path d="M51.5516 63H12.4481V64H51.5516V63Z" fill="#204ECF"/>
<path d="M36.251 37.688V18.999L29.563 16.267V22.686H21.422V6.016H13.014V27.719H2.086V35.258H1.086V26.719H12.014V5.016H22.422V21.686H28.563V14.778L37.251 18.327V35.968L41.765 33.397V7.781H44.539V0H53.312V7.781H56.086V22.734H63.5V23.734H55.086V8.781H52.312V1H45.539V8.781H42.765V33.978L36.251 37.688Z" fill="#204ECF"/>
<path d="M19.8905 0.5H18.8905V5.51563H19.8905V0.5Z" fill="#204ECF"/>
</g>
<defs>
<clipPath id="clip0_8_817">
<rect width="64" height="64.0001" fill="white"/>
</clipPath>
</defs>
</svg>
