<svg width="64" height="64" viewBox="0 0 64 64" fill="none" xmlns="http://www.w3.org/2000/svg">
<g clip-path="url(#clip0_8_1076)">
<path opacity="0.3" d="M12.1258 51.8742C15.3059 51.8742 17.8839 49.2962 17.8839 46.1161C17.8839 42.936 15.3059 40.358 12.1258 40.358C8.94573 40.358 6.36776 42.936 6.36776 46.1161C6.36776 49.2962 8.94573 51.8742 12.1258 51.8742Z" fill="#231F20"/>
<path opacity="0.3" d="M12.1258 51.8743C9.04247 51.8743 6.08542 53.0992 3.90517 55.2795C1.72492 57.4598 0.500081 60.4168 0.500092 63.5002H23.7517C23.7517 61.9734 23.451 60.4617 22.8667 59.0512C22.2825 57.6406 21.4261 56.359 20.3465 55.2795C19.267 54.1999 17.9854 53.3435 16.5748 52.7593C15.1643 52.175 13.6525 51.8743 12.1258 51.8743V51.8743Z" fill="#231F20"/>
<path opacity="0.3" d="M51.8742 12.0161C55.0543 12.0161 57.6322 9.43815 57.6322 6.25806C57.6322 3.07797 55.0543 0.5 51.8742 0.5C48.6941 0.5 46.1161 3.07797 46.1161 6.25806C46.1161 9.43815 48.6941 12.0161 51.8742 12.0161Z" fill="#231F20"/>
<path opacity="0.3" d="M51.8741 12.0161C48.7907 12.0161 45.8337 13.241 43.6534 15.4213C41.4732 17.6015 40.2483 20.5586 40.2483 23.6419H63.4999C63.4999 22.1152 63.1992 20.6034 62.615 19.1929C62.0307 17.7824 61.1744 16.5008 60.0948 15.4212C59.0152 14.3417 57.7336 13.4853 56.3231 12.9011C54.9126 12.3168 53.4008 12.0161 51.8741 12.0161Z" fill="#231F20"/>
<path d="M12.126 52.374C10.8883 52.374 9.67828 52.007 8.64911 51.3194C7.61994 50.6318 6.81779 49.6544 6.3441 48.5109C5.87042 47.3674 5.74646 46.1091 5.98792 44.8951C6.22939 43.6811 6.82541 42.566 7.70063 41.6908C8.57585 40.8156 9.69096 40.2195 10.9049 39.9781C12.1189 39.7366 13.3772 39.8606 14.5207 40.3343C15.6642 40.808 16.6416 41.6101 17.3292 42.6393C18.0169 43.6684 18.3839 44.8784 18.3838 46.1162C18.3819 47.7752 17.7219 49.3658 16.5488 50.539C15.3756 51.7121 13.7851 52.372 12.126 52.374V52.374ZM12.126 40.8579C11.0861 40.8578 10.0694 41.1661 9.20473 41.7439C8.34002 42.3216 7.66605 43.1428 7.26803 44.1035C6.87002 45.0643 6.76584 46.1215 6.96867 47.1415C7.17151 48.1615 7.67225 49.0984 8.40757 49.8338C9.14289 50.5691 10.0798 51.07 11.0997 51.2729C12.1197 51.4758 13.1769 51.3718 14.1377 50.9738C15.0985 50.5759 15.9197 49.902 16.4975 49.0373C17.0753 48.1727 17.3838 47.1561 17.3838 46.1162C17.3822 44.7221 16.8278 43.3857 15.8421 42.3999C14.8564 41.4142 13.52 40.8596 12.126 40.8579V40.8579Z" fill="white"/>
<path d="M24.2515 63.5H23.2515C23.2515 60.5493 22.0793 57.7194 19.9928 55.6329C17.9063 53.5464 15.0765 52.3743 12.1257 52.3743C9.175 52.3743 6.34513 53.5464 4.25865 55.6329C2.17217 57.7194 1 60.5493 1 63.5H0C0 60.2841 1.27753 57.1998 3.55154 54.9258C5.82556 52.6518 8.90979 51.3743 12.1257 51.3743C15.3417 51.3743 18.4259 52.6518 20.6999 54.9258C22.9739 57.1998 24.2515 60.2841 24.2515 63.5V63.5Z" fill="white"/>
<path d="M51.874 12.5161C50.6363 12.5161 49.4264 12.149 48.3972 11.4613C47.3681 10.7736 46.5661 9.79622 46.0925 8.65269C45.6188 7.50917 45.495 6.25087 45.7365 5.03694C45.978 3.823 46.5741 2.70794 47.4493 1.83277C48.3245 0.957601 49.4396 0.361623 50.6536 0.120202C51.8676 -0.121219 53.1258 0.00276086 54.2693 0.476464C55.4128 0.950167 56.3902 1.75232 57.0778 2.78148C57.7654 3.81064 58.1324 5.02058 58.1323 6.25831C58.1305 7.91751 57.4705 9.50821 56.2972 10.6814C55.124 11.8546 53.5332 12.5144 51.874 12.5161V12.5161ZM51.874 1.00001C50.8341 1.00006 49.8175 1.30847 48.9529 1.88626C48.0882 2.46404 47.4143 3.28524 47.0164 4.24601C46.6184 5.20679 46.5143 6.26399 46.7172 7.28393C46.9201 8.30387 47.4209 9.24074 48.1562 9.97608C48.8916 10.7114 49.8284 11.2122 50.8484 11.4151C51.8683 11.618 52.9255 11.5139 53.8863 11.1159C54.8471 10.718 55.6683 10.0441 56.2461 9.17944C56.8238 8.3148 57.1323 7.29824 57.1323 6.25831C57.1308 4.86418 56.5764 3.52757 55.5906 2.54176C54.6047 1.55596 53.2681 1.00149 51.874 1.00001V1.00001Z" fill="white"/>
<path d="M64 23.6421H63C63 22.181 62.7122 20.7343 62.1531 19.3845C61.594 18.0346 60.7745 16.8081 59.7413 15.775C58.7082 14.7419 57.4817 13.9224 56.1319 13.3633C54.7821 12.8041 53.3353 12.5164 51.8743 12.5164C50.4132 12.5164 48.9665 12.8041 47.6166 13.3633C46.2668 13.9224 45.0403 14.7419 44.0072 15.775C42.9741 16.8081 42.1546 18.0346 41.5954 19.3845C41.0363 20.7343 40.7485 22.181 40.7485 23.6421H39.7485C39.7485 20.4261 41.0261 17.3419 43.3001 15.0679C45.5741 12.7939 48.6583 11.5164 51.8743 11.5164C55.0902 11.5164 58.1744 12.7939 60.4485 15.0679C62.7225 17.3419 64 20.4261 64 23.6421V23.6421Z" fill="white"/>
<path d="M51.874 52.374C50.6363 52.3739 49.4264 52.0068 48.3972 51.3192C47.3681 50.6315 46.5661 49.6541 46.0925 48.5105C45.6188 47.367 45.495 46.1087 45.7365 44.8948C45.978 43.6809 46.5741 42.5658 47.4493 41.6906C48.3245 40.8155 49.4396 40.2195 50.6536 39.978C51.8676 39.7366 53.1258 39.8606 54.2693 40.3343C55.4128 40.808 56.3902 41.6102 57.0778 42.6393C57.7654 43.6685 58.1324 44.8784 58.1323 46.1162C58.1305 47.7754 57.4705 49.3661 56.2972 50.5392C55.124 51.7124 53.5332 52.3723 51.874 52.374V52.374ZM51.874 40.8579C50.8341 40.8579 49.8175 41.1663 48.9529 41.7441C48.0882 42.3219 47.4143 43.1431 47.0164 44.1039C46.6184 45.0646 46.5143 46.1218 46.7172 47.1418C46.9201 48.1617 47.4209 49.0986 48.1562 49.8339C48.8916 50.5693 49.8284 51.07 50.8484 51.2729C51.8683 51.4758 52.9255 51.3717 53.8863 50.9738C54.8471 50.5758 55.6683 49.9019 56.2461 49.0373C56.8238 48.1726 57.1323 47.1561 57.1323 46.1162C57.1308 44.722 56.5763 43.3854 55.5905 42.3996C54.6047 41.4138 53.2681 40.8594 51.874 40.8579V40.8579Z" fill="white"/>
<path d="M64 63.5H63C63 62.0389 62.7122 60.5922 62.1531 59.2424C61.594 57.8925 60.7745 56.666 59.7413 55.6329C58.7082 54.5998 57.4817 53.7803 56.1319 53.2212C54.7821 52.662 53.3353 52.3743 51.8743 52.3743C50.4132 52.3743 48.9665 52.662 47.6166 53.2212C46.2668 53.7803 45.0403 54.5998 44.0072 55.6329C42.9741 56.666 42.1546 57.8925 41.5954 59.2424C41.0363 60.5922 40.7485 62.0389 40.7485 63.5H39.7485C39.7485 60.2841 41.0261 57.1998 43.3001 54.9258C45.5741 52.6518 48.6583 51.3743 51.8743 51.3743C55.0902 51.3743 58.1744 52.6518 60.4485 54.9258C62.7225 57.1998 64 60.2841 64 63.5V63.5Z" fill="white"/>
<path d="M12.126 12.5161C10.8883 12.5162 9.67828 12.1492 8.64911 11.4616C7.61994 10.7739 6.81778 9.79657 6.34409 8.65305C5.8704 7.50953 5.74644 6.25122 5.9879 5.03725C6.22936 3.82328 6.82539 2.70818 7.70061 1.83295C8.57583 0.957731 9.69093 0.361701 10.9049 0.120239C12.1189 -0.121223 13.3772 0.00272703 14.5207 0.476415C15.6642 0.950103 16.6416 1.75225 17.3292 2.78142C18.0168 3.8106 18.3838 5.02056 18.3838 6.25831C18.3818 7.91739 17.7219 9.50795 16.5488 10.6811C15.3756 11.8542 13.7851 12.5142 12.126 12.5161V12.5161ZM12.126 1.00001C11.0861 0.999963 10.0694 1.3083 9.20474 1.88602C8.34002 2.46374 7.66605 3.28491 7.26803 4.24567C6.87002 5.20644 6.76584 6.26365 6.96868 7.28363C7.17151 8.3036 7.67225 9.24052 8.40757 9.97591C9.14289 10.7113 10.0798 11.2121 11.0997 11.4151C12.1197 11.618 13.1769 11.5139 14.1377 11.116C15.0985 10.7181 15.9197 10.0442 16.4975 9.17949C17.0753 8.31484 17.3838 7.29826 17.3838 6.25831C17.3822 4.8643 16.8278 3.52782 15.8421 2.54205C14.8564 1.55629 13.52 1.00173 12.126 1.00001V1.00001Z" fill="white"/>
<path d="M24.2515 23.6421H23.2515C23.2515 20.6914 22.0793 17.8615 19.9928 15.775C17.9063 13.6885 15.0765 12.5164 12.1257 12.5164C9.175 12.5164 6.34513 13.6885 4.25865 15.775C2.17217 17.8615 1 20.6914 1 23.6421H0C0 20.4261 1.27753 17.3419 3.55154 15.0679C5.82556 12.7939 8.90979 11.5164 12.1257 11.5164C15.3417 11.5164 18.4259 12.7939 20.6999 15.0679C22.9739 17.3419 24.2515 20.4261 24.2515 23.6421V23.6421Z" fill="white"/>
<path d="M34.9185 43.5967H29.0815C28.0509 43.5956 27.0629 43.1857 26.3341 42.4569C25.6054 41.7282 25.1955 40.7401 25.1943 39.7095H26.1943C26.1953 40.4749 26.4998 41.2087 27.041 41.75C27.5823 42.2913 28.3161 42.5957 29.0815 42.5967H34.9185C35.6833 42.5953 36.4163 42.2904 36.9566 41.7491C37.4968 41.2078 37.8003 40.4743 37.8003 39.7095C37.8003 38.9447 37.4968 38.2111 36.9566 37.6698C36.4163 37.1285 35.6833 36.8237 34.9185 36.8223H29.0815C28.0506 36.8223 27.0619 36.4127 26.3329 35.6837C25.6039 34.9547 25.1943 33.966 25.1943 32.9351C25.1943 31.9041 25.6039 30.9154 26.3329 30.1864C27.0619 29.4574 28.0506 29.0479 29.0815 29.0479H34.9185C35.9491 29.049 36.9371 29.4589 37.6659 30.1876C38.3946 30.9164 38.8045 31.9045 38.8057 32.9351H37.8057C37.8047 32.1696 37.5002 31.4358 36.959 30.8945C36.4177 30.3533 35.6839 30.0488 34.9185 30.0479H29.0815C28.3158 30.0479 27.5814 30.352 27.04 30.8935C26.4985 31.435 26.1943 32.1693 26.1943 32.9351C26.1943 33.7008 26.4985 34.4352 27.04 34.9766C27.5814 35.5181 28.3158 35.8223 29.0815 35.8223H34.9185C35.9483 35.8239 36.9355 36.2342 37.6631 36.963C38.3907 37.6918 38.7994 38.6796 38.7994 39.7095C38.7994 40.7394 38.3907 41.7271 37.6631 42.4559C36.9355 43.1848 35.9483 43.595 34.9185 43.5967V43.5967Z" fill="white"/>
<path d="M32.5 23.6421H31.5V49.0029H32.5V23.6421Z" fill="white"/>
</g>
<defs>
<clipPath id="clip0_8_1076">
<rect width="64" height="64" fill="white"/>
</clipPath>
</defs>
</svg>
