<svg width="64" height="64" viewBox="0 0 64 64" fill="none" xmlns="http://www.w3.org/2000/svg">
<g clip-path="url(#clip0_8_1094)">
<path opacity="0.3" d="M32 56.75C45.669 56.75 56.75 45.669 56.75 32C56.75 18.3309 45.669 7.25 32 7.25C18.331 7.25 7.25002 18.3309 7.25002 32C7.25002 45.669 18.331 56.75 32 56.75Z" fill="#231F20"/>
<path d="M32 64C25.671 64 19.4841 62.1232 14.2218 58.607C8.95938 55.0908 4.85786 50.0931 2.43585 44.2459C0.0138497 38.3986 -0.619857 31.9645 0.61487 25.7571C1.8496 19.5497 4.8973 13.8479 9.37258 9.3726C13.8479 4.89732 19.5497 1.84961 25.7571 0.614885C31.9645 -0.619842 38.3986 0.013865 44.2459 2.43587C50.0931 4.85787 55.0908 8.95939 58.607 14.2218C62.1232 19.4841 64 25.671 64 32C63.9905 40.484 60.616 48.6178 54.6169 54.6169C48.6178 60.616 40.484 63.9905 32 64ZM32 1.00001C25.8688 1.00001 19.8752 2.81813 14.7773 6.22446C9.6794 9.63078 5.70605 14.4723 3.35973 20.1368C1.01342 25.8013 0.399514 32.0344 1.59566 38.0478C2.7918 44.0612 5.74426 49.5849 10.0797 53.9203C14.4151 58.2558 19.9388 61.2082 25.9522 62.4044C31.9656 63.6005 38.1987 62.9866 43.8632 60.6403C49.5277 58.294 54.3692 54.3206 57.7756 49.2227C61.1819 44.1248 63 38.1312 63 32C62.9906 23.7812 59.7216 15.9016 53.91 10.09C48.0984 4.27844 40.2188 1.00937 32 1.00001V1.00001Z" fill="white"/>
<path d="M41.731 45.246L31.5 32.172V7.25H32.5V31.828L42.519 44.629L41.731 45.246Z" fill="white"/>
<path d="M32.5 53.9375H31.5V56.75H32.5V53.9375Z" fill="white"/>
<path d="M10.0625 31.5H7.25V32.5H10.0625V31.5Z" fill="white"/>
<path d="M56.75 31.5H53.9375V32.5H56.75V31.5Z" fill="white"/>
<path d="M43.401 50.7475L42.5349 51.2476L43.9416 53.6841L44.8078 53.184L43.401 50.7475Z" fill="white"/>
<path d="M20.0581 10.3159L19.1919 10.816L20.5977 13.2505L21.4638 12.7504L20.0581 10.3159Z" fill="white"/>
<path d="M12.7525 42.5353L10.3159 43.9418L10.8159 44.808L13.2525 43.4015L12.7525 42.5353Z" fill="white"/>
<path d="M53.1841 19.192L50.7499 20.597L51.2499 21.4633L53.6841 20.0582L53.1841 19.192Z" fill="white"/>
<path d="M51.2476 42.5352L50.7475 43.4014L53.184 44.8081L53.6841 43.9419L51.2476 42.5352Z" fill="white"/>
<path d="M10.816 19.1919L10.3158 20.058L12.7519 21.4648L13.252 20.5987L10.816 19.1919Z" fill="white"/>
<path d="M20.5985 50.7475L19.192 53.1841L20.0582 53.6841L21.4647 51.2475L20.5985 50.7475Z" fill="white"/>
<path d="M43.9418 10.3159L42.5362 12.751L43.4024 13.251L44.808 10.8159L43.9418 10.3159Z" fill="white"/>
</g>
<defs>
<clipPath id="clip0_8_1094">
<rect width="64" height="64" fill="white"/>
</clipPath>
</defs>
</svg>
