<svg xmlns="http://www.w3.org/2000/svg" width="64" height="64" fill="none"><path fill="#183A9C" d="M32 56.546c13.746 0 24.889-10.972 24.889-24.506S45.746 7.534 32 7.534 7.111 18.506 7.111 32.04 18.254 56.546 32 56.546" opacity=".15"/><path fill="#204ECD" fill-rule="evenodd" d="M0 32.04C0 14.639 14.327.532 32 .532S64 14.64 64 32.04 49.673 63.548 32 63.548 0 49.44 0 32.04M32 1.532c-17.112 0-30.984 13.66-30.984 30.508 0 16.849 13.872 30.507 30.984 30.507S62.984 48.89 62.984 32.04 49.112 1.532 32 1.532" clip-rule="evenodd"/><path fill="#204ECD" fill-rule="evenodd" d="M31.492 16.536h1.016v15.297L49.629 48.69l-.718.708-17.419-17.151zM31.492 7.534v-3h1.016v3zM31.492 59.547v-3.001h1.016v3zM56.889 31.54h3.047v1H56.89zM4.063 31.54h3.048v1H4.063z" clip-rule="evenodd"/></svg>