<svg width="64" height="64" viewBox="0 0 64 64" fill="none" xmlns="http://www.w3.org/2000/svg">
<g clip-path="url(#clip0_8_1129)">
<path opacity="0.3" d="M16.102 34.1423H2.46085C3.44102 35.5328 4.74096 36.6673 6.25119 37.4505C7.76142 38.2336 9.43772 38.6424 11.1389 38.6423H13.9466C14.5115 37.0735 15.2337 35.5658 16.102 34.1423V34.1423Z" fill="#231F20"/>
<path opacity="0.3" d="M47.8677 34.1423L50.0548 38.6423H52.8627C54.5639 38.6424 56.2402 38.2336 57.7504 37.4505C59.2606 36.6673 60.5606 35.5328 61.5407 34.1423H47.8677Z" fill="#231F20"/>
<path opacity="0.3" d="M32.0007 25.5312V63.5C37.0333 63.4963 41.8585 61.4946 45.4157 57.9347C48.973 54.3749 50.9713 49.5482 50.9713 44.5156C50.9713 39.4831 48.973 34.6564 45.4157 31.0965C41.8585 27.5367 37.0333 25.5349 32.0007 25.5313V25.5312Z" fill="#231F20"/>
<path d="M52.8614 39.1421H50.0548V38.1421H52.8614C55.478 38.1427 57.9935 37.1315 59.8816 35.3199C61.7697 33.5083 62.884 31.0367 62.9915 28.4223C63.099 25.8079 62.1913 23.2532 60.4583 21.2927C58.7253 19.3323 56.3013 18.118 53.6934 17.9038L53.2139 17.8648L53.2345 17.3838C53.2442 17.1513 53.252 16.9179 53.252 16.6831C53.2524 13.0703 52.0053 9.56824 49.7215 6.76883C47.4378 3.96942 44.2576 2.0444 40.7183 1.31915C37.1791 0.59391 33.498 1.11293 30.2973 2.78849C27.0966 4.46405 24.5726 7.19336 23.1519 10.5151L22.9581 10.9677L22.503 10.7807C21.3516 10.3083 20.1054 10.1125 18.8645 10.209C17.6237 10.3055 16.4228 10.6916 15.3582 11.3364C14.2937 11.9812 13.3952 12.8667 12.7349 13.9216C12.0746 14.9766 11.6709 16.1718 11.5562 17.4111L11.5147 17.8618L11.0621 17.8652C8.37966 17.8851 5.81446 18.9673 3.9283 20.8747C2.04215 22.7821 0.988791 25.3593 0.998933 28.0418C1.00907 30.7243 2.08189 33.2934 3.98241 35.1865C5.88293 37.0796 8.45625 38.1424 11.1388 38.142H13.9464V39.142H11.1388C8.23029 39.142 5.43718 38.0044 3.35639 35.9722C1.2756 33.9401 0.0722013 31.1747 0.00339548 28.267C-0.0654103 25.3593 1.00583 22.5401 2.98817 20.4118C4.97051 18.2835 7.70669 17.015 10.6119 16.8774C10.7989 15.5683 11.2734 14.3167 12.0013 13.2127C12.7292 12.1086 13.6925 11.1794 14.822 10.4917C15.9516 9.80403 17.2193 9.37492 18.5344 9.2352C19.8494 9.09548 21.179 9.24861 22.4278 9.68359C24.0228 6.23235 26.7488 3.42948 30.1543 1.73922C33.5599 0.0489601 37.4407 -0.427262 41.1539 0.389431C44.8671 1.20612 48.1899 3.26673 50.572 6.22994C52.954 9.19315 54.2524 12.8812 54.2521 16.6831C54.2521 16.7744 54.2511 16.8652 54.2491 16.9561C57.0606 17.3086 59.632 18.7196 61.4396 20.9018C63.2472 23.0839 64.1549 25.873 63.9781 28.701C63.8012 31.529 62.5529 34.1832 60.4875 36.1231C58.4221 38.063 55.695 39.1426 52.8614 39.1421V39.1421Z" fill="white"/>
<path d="M32.0006 64C28.1468 64.0007 24.3794 62.8585 21.1747 60.718C17.9701 58.5774 15.4722 55.5346 13.997 51.9743C12.5217 48.4141 12.1354 44.4963 12.8868 40.7165C13.6382 36.9367 15.4937 33.4646 18.2185 30.7393C20.9433 28.014 24.4151 26.158 28.1947 25.4059C31.9744 24.6538 35.8923 25.0395 39.4528 26.5141C43.0133 27.9887 46.0565 30.4861 48.1976 33.6903C50.3388 36.8946 51.4816 40.6618 51.4816 44.5156C51.4762 49.681 49.4221 54.6332 45.77 58.286C42.1178 61.9388 37.1659 63.9937 32.0006 64V64ZM32.0006 26.0313C28.3446 26.0306 24.7705 27.1141 21.7303 29.1448C18.6901 31.1755 16.3204 34.0621 14.9208 37.4396C13.5213 40.8172 13.1547 44.5339 13.8676 48.1197C14.5804 51.7055 16.3406 54.9995 18.9256 57.5849C21.5105 60.1703 24.8041 61.9311 28.3898 62.6446C31.9756 63.3581 35.6923 62.9923 39.0701 61.5933C42.4479 60.1944 45.3349 57.8252 47.3662 54.7854C49.3974 51.7456 50.4816 48.1716 50.4816 44.5156C50.4765 39.6154 48.5279 34.9173 45.0632 31.452C41.5986 27.9867 36.9008 26.0372 32.0006 26.0313Z" fill="white"/>
<path d="M40.7247 52.1387H23.2779V53.1387H40.7247V52.1387Z" fill="white"/>
<path d="M31.9996 53.0952C31.8414 53.0956 31.6894 53.0335 31.5768 52.9223L22.923 44.2666L23.63 43.5596L32.0006 51.9321L40.3712 43.5596L41.0782 44.2666L32.4264 52.9204C32.3127 53.0327 32.1594 53.0955 31.9996 53.0952V53.0952Z" fill="white"/>
<path d="M32.5006 35.1875H31.5006V52.6387H32.5006V35.1875Z" fill="white"/>
</g>
<defs>
<clipPath id="clip0_8_1129">
<rect width="64.0001" height="64.0001" fill="white"/>
</clipPath>
</defs>
</svg>
