<svg width="70" height="64" viewBox="0 0 70 64" fill="none" xmlns="http://www.w3.org/2000/svg">
<g clip-path="url(#clip0_8_984)">
<path opacity="0.15" d="M24.0754 37.2454H2.64131C3.71221 38.7642 5.13236 40.0034 6.78216 40.8588C8.43197 41.7141 10.2631 42.1606 12.1215 42.1605H24.0754V37.2454Z" fill="#183A9E"/>
<path opacity="0.15" d="M45.9357 37.2454V42.1605H57.7018C59.5601 42.1605 61.3913 41.7141 63.0411 40.8588C64.6909 40.0034 66.111 38.7642 67.1819 37.2454H45.9357Z" fill="#183A9E"/>
<path opacity="0.15" d="M34.9056 46.9069C37.527 46.9069 39.652 44.7818 39.652 42.1604C39.652 39.5391 37.527 37.414 34.9056 37.414C32.2842 37.414 30.1591 39.5391 30.1591 42.1604C30.1591 44.7818 32.2842 46.9069 34.9056 46.9069Z" fill="#183A9E"/>
<path d="M46.3433 53.5727H23.5186V30.748H46.3433V53.5727ZM24.5186 52.5727H45.3433V31.748H24.5186V52.5727Z" fill="#204ECF"/>
<path d="M29.9746 20.8208H28.9746V31.2481H29.9746V20.8208Z" fill="#204ECF"/>
<path d="M40.8872 20.8208H39.8872V31.2481H40.8872V20.8208Z" fill="#204ECF"/>
<path d="M29.9746 53.0728H28.9746V63.5H29.9746V53.0728Z" fill="#204ECF"/>
<path d="M40.8872 53.0728H39.8872V63.5H40.8872V53.0728Z" fill="#204ECF"/>
<path d="M56.2705 36.2041H45.8433V37.2041H56.2705V36.2041Z" fill="#204ECF"/>
<path d="M56.2705 47.1167H45.8433V48.1167H56.2705V47.1167Z" fill="#204ECF"/>
<path d="M24.0186 36.2041H13.5913V37.2041H24.0186V36.2041Z" fill="#204ECF"/>
<path d="M24.0186 47.1167H13.5913V48.1167H24.0186V47.1167Z" fill="#204ECF"/>
<path d="M57.7012 42.6607H56.2705V41.6607H57.689C60.5603 41.665 63.322 40.5583 65.3956 38.5722C67.4693 36.5862 68.6942 33.8748 68.8137 31.006C68.9332 28.1372 67.9381 25.3333 66.0368 23.1817C64.1356 21.03 61.4755 19.6974 58.6138 19.4629L58.1343 19.4239L58.1548 18.9429C58.1656 18.6885 58.1744 18.4331 58.1744 18.1758C58.1738 14.2188 56.8073 10.3834 54.3056 7.31759C51.8039 4.25181 48.3205 2.14371 44.444 1.34953C40.5676 0.555359 36.5358 1.12382 33.0301 2.95884C29.5244 4.79386 26.7597 7.78292 25.2032 11.4209L25.0093 11.8735L24.5542 11.6865C23.2898 11.1677 21.9213 10.9526 20.5586 11.0585C19.1959 11.1644 17.8771 11.5884 16.7079 12.2963C15.5388 13.0043 14.552 13.9766 13.8267 15.135C13.1014 16.2935 12.6579 17.6059 12.5317 18.9668L12.4897 19.4175L12.0376 19.4209C9.09421 19.4409 6.27883 20.6271 4.20855 22.7194C2.13827 24.8117 0.981999 27.6395 0.993179 30.5829C1.00436 33.5263 2.18208 36.3452 4.26819 38.4218C6.3543 40.4983 9.17861 41.663 12.1221 41.6607H13.5527V42.6607H12.1221C8.95364 42.6612 5.91097 41.421 3.64574 39.2057C1.38051 36.9904 0.0728416 33.9761 0.00281165 30.8084C-0.0672183 27.6408 1.10596 24.5716 3.27107 22.2584C5.43619 19.9451 8.42107 18.5716 11.5864 18.4322C11.7855 17.0015 12.3002 15.6329 13.0932 14.4256C13.8863 13.2184 14.9379 12.2025 16.1719 11.4517C17.406 10.7009 18.7915 10.2339 20.2282 10.0845C21.6649 9.93511 23.1169 10.1071 24.479 10.5879C26.2101 6.82058 29.1771 3.75822 32.8878 1.90878C36.5985 0.0593345 40.8299 -0.466058 44.8802 0.419747C48.9305 1.30555 52.5563 3.54932 55.1562 6.7789C57.7561 10.0085 59.1738 14.0298 59.1743 18.1758C59.1743 18.2891 59.1729 18.4019 59.1699 18.5142C62.2345 18.8872 65.0411 20.4159 67.0168 22.7882C68.9926 25.1604 69.9883 28.1972 69.8009 31.2787C69.6135 34.3603 68.2569 37.254 66.0083 39.3693C63.7596 41.4846 60.7884 42.6618 57.7012 42.6607V42.6607Z" fill="#204ECF"/>
</g>
<defs>
<clipPath id="clip0_8_984">
<rect width="69.8232" height="64" fill="white"/>
</clipPath>
</defs>
</svg>
