<svg width="64" height="64" viewBox="0 0 64 64" fill="none" xmlns="http://www.w3.org/2000/svg">
<g clip-path="url(#clip0_8_1025)">
<path opacity="0.15" d="M16.1019 34.1423H2.46069C3.44087 35.5328 4.74082 36.6673 6.25105 37.4505C7.76128 38.2336 9.43759 38.6424 11.1388 38.6423H13.9464C14.5114 37.0735 15.2335 35.5658 16.1019 34.1423V34.1423Z" fill="#183A9E"/>
<path opacity="0.15" d="M47.8676 34.1423L50.0547 38.6423H52.8626C54.5638 38.6423 56.2401 38.2336 57.7503 37.4505C59.2605 36.6673 60.5604 35.5328 61.5406 34.1423H47.8676Z" fill="#183A9E"/>
<path opacity="0.15" d="M32.0005 25.5312V46.7236C32.832 46.7236 33.6294 47.0539 34.2174 47.6419C34.8053 48.2298 35.1356 49.0272 35.1356 49.8587C35.1356 50.6902 34.8053 51.4876 34.2174 52.0755C33.6294 52.6635 32.832 52.9938 32.0005 52.9938V63.5C37.0331 63.4963 41.8584 61.4946 45.4156 57.9347C48.9729 54.3748 50.9712 49.5482 50.9712 44.5156C50.9712 39.483 48.9729 34.6563 45.4156 31.0965C41.8584 27.5366 37.0331 25.5348 32.0005 25.5312V25.5312Z" fill="#183A9E"/>
<path d="M52.8613 39.1426H50.0546V38.1426H52.8613C55.4779 38.1432 57.9935 37.1319 59.8815 35.3202C61.7696 33.5086 62.884 31.037 62.9915 28.4225C63.0989 25.8081 62.1912 23.2534 60.4582 21.2929C58.7252 19.3324 56.3011 18.118 53.6933 17.9038L53.2138 17.8648L53.2343 17.3838C53.2441 17.1513 53.2519 16.9179 53.2519 16.6831C53.2522 13.0703 52.0051 9.56824 49.7214 6.76883C47.4377 3.96942 44.2574 2.0444 40.7182 1.31915C37.179 0.59391 33.4979 1.11293 30.2972 2.78849C27.0964 4.46405 24.5724 7.19336 23.1518 10.5151L22.9579 10.9677L22.5028 10.7807C21.3514 10.3083 20.1052 10.1125 18.8643 10.209C17.6234 10.3055 16.4225 10.6916 15.3579 11.3364C14.2933 11.9812 13.3948 12.8666 12.7344 13.9216C12.0741 14.9766 11.6703 16.1718 11.5556 17.4111L11.5136 17.8618L11.0614 17.8652C8.37912 17.8855 5.81417 18.9679 3.92825 20.8753C2.04233 22.7828 0.989159 25.3599 0.999365 28.0423C1.00957 30.7246 2.08232 33.2936 3.9827 35.1867C5.88308 37.0798 8.4562 38.1426 11.1386 38.1425H13.9462V39.1425H11.1386C8.23013 39.1425 5.43702 38.0048 3.35622 35.9727C1.27542 33.9405 0.0719948 31.1751 0.00312656 28.2675C-0.0657417 25.3598 1.00541 22.5405 2.98767 20.4121C4.96993 18.2838 7.70604 17.0151 10.6113 16.8774C10.7983 15.5682 11.2728 14.3167 12.0008 13.2127C12.7288 12.1086 13.6921 11.1794 14.8217 10.4917C15.9513 9.80402 17.2191 9.37492 18.5341 9.2352C19.8492 9.09548 21.1788 9.24861 22.4277 9.68359C24.0226 6.23235 26.7486 3.42948 30.1542 1.73922C33.5597 0.0489601 37.4405 -0.427262 41.1537 0.389431C44.8669 1.20612 48.1897 3.26673 50.5718 6.22994C52.9539 9.19315 54.2523 12.8812 54.2519 16.6831C54.2519 16.7744 54.2509 16.8652 54.249 16.9561C57.0606 17.3086 59.632 18.7197 61.4397 20.9018C63.2473 23.084 64.1551 25.8732 63.9782 28.7013C63.8013 31.5293 62.553 34.1836 60.4876 36.1236C58.4221 38.0635 55.6949 39.1431 52.8613 39.1426Z" fill="#204ECF"/>
<path d="M32.0005 64C28.1467 64.0007 24.3792 62.8585 21.1746 60.718C17.97 58.5774 15.4721 55.5346 13.9968 51.9743C12.5216 48.4141 12.1353 44.4963 12.8867 40.7165C13.6381 36.9367 15.4935 33.4646 18.2184 30.7393C20.9432 28.014 24.4149 26.158 28.1946 25.4059C31.9743 24.6538 35.8922 25.0395 39.4527 26.5141C43.0132 27.9887 46.0564 30.4861 48.1975 33.6903C50.3386 36.8946 51.4815 40.6618 51.4815 44.5156C51.476 49.681 49.422 54.6332 45.7698 58.286C42.1177 61.9388 37.1658 63.9937 32.0005 64V64ZM32.0005 26.0313C28.3445 26.0306 24.7704 27.1141 21.7302 29.1448C18.69 31.1755 16.3203 34.0621 14.9207 37.4396C13.5212 40.8172 13.1546 44.5339 13.8675 48.1197C14.5803 51.7055 16.3405 54.9995 18.9255 57.5849C21.5104 60.1703 24.804 61.9311 28.3897 62.6446C31.9754 63.3581 35.6922 62.9923 39.07 61.5933C42.4478 60.1944 45.3348 57.8252 47.3661 54.7854C49.3973 51.7456 50.4815 48.1716 50.4815 44.5156C50.4764 39.6154 48.5278 34.9173 45.0631 31.452C41.5984 27.9867 36.9007 26.0372 32.0005 26.0313Z" fill="#204ECF"/>
<path d="M32.0005 53.4922C31.2815 53.4927 30.5786 53.2798 29.9807 52.8806C29.3828 52.4814 28.9167 51.9138 28.6415 51.2496C28.3663 50.5854 28.2944 49.8545 28.4347 49.1494C28.5751 48.4443 28.9216 47.7967 29.4302 47.2886C30.1226 46.6275 31.0431 46.2586 32.0005 46.2586C32.9578 46.2586 33.8783 46.6275 34.5708 47.2886V47.2886C35.0794 47.7967 35.4258 48.4443 35.5662 49.1494C35.7066 49.8545 35.6346 50.5854 35.3594 51.2496C35.0842 51.9138 34.6182 52.4814 34.0203 52.8806C33.4223 53.2798 32.7194 53.4927 32.0005 53.4922V53.4922ZM32.0005 47.2236C31.3907 47.2235 30.7997 47.4349 30.3282 47.8216C29.8568 48.2084 29.5341 48.7467 29.415 49.3448C29.296 49.9429 29.388 50.5637 29.6754 51.1015C29.9628 51.6394 30.4278 52.0609 30.9911 52.2943C31.5545 52.5277 32.1814 52.5586 32.7649 52.3816C33.3485 52.2046 33.8526 51.8308 34.1914 51.3238C34.5302 50.8167 34.6828 50.2079 34.623 49.6011C34.5633 48.9942 34.2949 48.4268 33.8637 47.9956V47.9956C33.6197 47.75 33.3293 47.5554 33.0095 47.4228C32.6896 47.2903 32.3467 47.2226 32.0005 47.2236Z" fill="#204ECF"/>
<path d="M42.8652 43.9424L42.6084 43.5137C41.5177 41.6737 39.965 40.1508 38.1043 39.096C36.2435 38.0411 34.1394 37.491 32.0005 37.5C29.8647 37.5068 27.7667 38.0637 25.9086 39.117C24.0506 40.1703 22.4953 41.6845 21.3926 43.5137L21.1357 43.9424L20.2778 43.4282L20.5352 42.999C21.7216 41.0172 23.4015 39.3768 25.4109 38.2377C27.4203 37.0987 29.6907 36.5 32.0005 36.5C34.3103 36.5 36.5807 37.0987 38.5901 38.2377C40.5995 39.3768 42.2794 41.0172 43.4658 42.999L43.7231 43.4282L42.8652 43.9424Z" fill="#204ECF"/>
<path d="M39.5103 46.9023L39.2534 46.4736C38.503 45.2198 37.4405 44.182 36.1694 43.4613C34.8983 42.7407 33.462 42.3619 32.0009 42.3618C30.5397 42.3618 29.1035 42.7405 27.8323 43.4611C26.5612 44.1816 25.4985 45.2194 24.748 46.4731L24.4912 46.9023L23.6333 46.3882L23.8906 45.9595C24.7298 44.5575 25.918 43.397 27.3394 42.5912C28.7607 41.7854 30.3667 41.3619 32.0006 41.3618C33.6345 41.3618 35.2405 41.7853 36.6619 42.591C38.0833 43.3967 39.2716 44.5571 40.1108 45.959L40.3682 46.3882L39.5103 46.9023Z" fill="#204ECF"/>
</g>
<defs>
<clipPath id="clip0_8_1025">
<rect width="64.0001" height="64.0001" fill="white"/>
</clipPath>
</defs>
</svg>
