<svg width="64" height="64" viewBox="0 0 64 64" fill="none" xmlns="http://www.w3.org/2000/svg">
<g clip-path="url(#clip0_8_1153)">
<path opacity="0.3" d="M16.102 34.1423H2.46082C3.44099 35.5328 4.74094 36.6673 6.25117 37.4505C7.76141 38.2336 9.43771 38.6424 11.1389 38.6423H13.9465C14.5115 37.0735 15.2337 35.5658 16.102 34.1423V34.1423Z" fill="#231F20"/>
<path opacity="0.3" d="M47.8677 34.1423L50.0548 38.6423H52.8627C54.5639 38.6423 56.2402 38.2336 57.7504 37.4505C59.2606 36.6673 60.5606 35.5328 61.5407 34.1423H47.8677Z" fill="#231F20"/>
<path opacity="0.3" d="M32.0007 25.5312V46.7236C32.8321 46.7236 33.6296 47.0539 34.2175 47.6419C34.8055 48.2298 35.1358 49.0272 35.1358 49.8587C35.1358 50.6902 34.8055 51.4876 34.2175 52.0755C33.6296 52.6635 32.8321 52.9938 32.0007 52.9938V63.5C37.0333 63.4963 41.8585 61.4946 45.4158 57.9347C48.973 54.3748 50.9713 49.5482 50.9713 44.5156C50.9713 39.483 48.973 34.6563 45.4158 31.0965C41.8585 27.5366 37.0333 25.5348 32.0007 25.5312V25.5312Z" fill="#231F20"/>
<path d="M52.8614 39.1426H50.0547V38.1426H52.8614C55.478 38.1432 57.9936 37.1319 59.8817 35.3202C61.7697 33.5086 62.8841 31.037 62.9916 28.4225C63.0991 25.8081 62.1913 23.2534 60.4583 21.2929C58.7253 19.3324 56.3013 18.118 53.6934 17.9038L53.2139 17.8648L53.2344 17.3838C53.2442 17.1513 53.252 16.9179 53.252 16.6831C53.2523 13.0703 52.0052 9.56824 49.7215 6.76883C47.4378 3.96942 44.2575 2.0444 40.7183 1.31915C37.1791 0.59391 33.498 1.11293 30.2973 2.78849C27.0966 4.46405 24.5726 7.19336 23.1519 10.5151L22.958 10.9677L22.503 10.7807C21.3515 10.3083 20.1053 10.1125 18.8644 10.209C17.6235 10.3055 16.4226 10.6916 15.358 11.3364C14.2934 11.9812 13.3949 12.8666 12.7345 13.9216C12.0742 14.9766 11.6704 16.1718 11.5557 17.4111L11.5137 17.8618L11.0616 17.8652C8.37925 17.8855 5.81429 18.9679 3.92837 20.8753C2.04245 22.7828 0.989281 25.3599 0.999487 28.0423C1.00969 30.7246 2.08244 33.2936 3.98282 35.1867C5.8832 37.0798 8.45632 38.1426 11.1387 38.1425H13.9463V39.1425H11.1387C8.23025 39.1425 5.43714 38.0048 3.35635 35.9727C1.27555 33.9405 0.0721169 31.1751 0.00324863 28.2675C-0.0656196 25.3598 1.00554 22.5405 2.98779 20.4121C4.97005 18.2838 7.70617 17.0151 10.6114 16.8774C10.7984 15.5682 11.273 14.3167 12.0009 13.2127C12.7289 12.1086 13.6922 11.1794 14.8218 10.4917C15.9514 9.80402 17.2192 9.37492 18.5342 9.2352C19.8493 9.09548 21.1789 9.24861 22.4278 9.68359C24.0227 6.23235 26.7487 3.42948 30.1543 1.73922C33.5599 0.0489601 37.4406 -0.427262 41.1538 0.389431C44.867 1.20612 48.1899 3.26673 50.5719 6.22994C52.954 9.19315 54.2524 12.8812 54.252 16.6831C54.252 16.7744 54.251 16.8652 54.2491 16.9561C57.0607 17.3086 59.6322 18.7197 61.4398 20.9018C63.2474 23.084 64.1552 25.8732 63.9783 28.7013C63.8014 31.5293 62.5532 34.1836 60.4877 36.1236C58.4223 38.0635 55.695 39.1431 52.8614 39.1426Z" fill="white"/>
<path d="M32.0006 64C28.1468 64.0007 24.3794 62.8585 21.1747 60.718C17.9701 58.5774 15.4722 55.5346 13.997 51.9743C12.5217 48.4141 12.1354 44.4963 12.8868 40.7165C13.6382 36.9367 15.4937 33.4646 18.2185 30.7393C20.9433 28.014 24.4151 26.158 28.1947 25.4059C31.9744 24.6538 35.8923 25.0395 39.4528 26.5141C43.0133 27.9887 46.0565 30.4861 48.1976 33.6903C50.3388 36.8946 51.4816 40.6618 51.4816 44.5156C51.4762 49.681 49.4221 54.6332 45.77 58.286C42.1178 61.9388 37.1659 63.9937 32.0006 64V64ZM32.0006 26.0313C28.3446 26.0306 24.7705 27.1141 21.7303 29.1448C18.6901 31.1755 16.3204 34.0621 14.9208 37.4396C13.5213 40.8172 13.1547 44.5339 13.8676 48.1197C14.5804 51.7055 16.3406 54.9995 18.9256 57.5849C21.5105 60.1703 24.8041 61.9311 28.3898 62.6446C31.9756 63.3581 35.6923 62.9923 39.0701 61.5933C42.4479 60.1944 45.3349 57.8252 47.3662 54.7854C49.3974 51.7456 50.4816 48.1716 50.4816 44.5156C50.4765 39.6154 48.5279 34.9173 45.0632 31.452C41.5986 27.9867 36.9008 26.0372 32.0006 26.0313Z" fill="white"/>
<path d="M32.0006 53.4922C31.2816 53.4927 30.5787 53.2798 29.9808 52.8806C29.3829 52.4814 28.9168 51.9138 28.6416 51.2496C28.3664 50.5854 28.2945 49.8545 28.4349 49.1494C28.5753 48.4443 28.9217 47.7967 29.4303 47.2886C30.1227 46.6275 31.0432 46.2586 32.0006 46.2586C32.9579 46.2586 33.8785 46.6275 34.5709 47.2886V47.2886C35.0795 47.7967 35.4259 48.4443 35.5663 49.1494C35.7067 49.8545 35.6347 50.5854 35.3595 51.2496C35.0844 51.9138 34.6183 52.4814 34.0204 52.8806C33.4224 53.2798 32.7195 53.4927 32.0006 53.4922V53.4922ZM32.0006 47.2236C31.3908 47.2235 30.7998 47.4349 30.3284 47.8216C29.8569 48.2084 29.5342 48.7467 29.4151 49.3448C29.2961 49.9429 29.3881 50.5637 29.6755 51.1015C29.9629 51.6394 30.4279 52.0609 30.9913 52.2943C31.5546 52.5277 32.1815 52.5586 32.765 52.3816C33.3486 52.2046 33.8527 51.8308 34.1915 51.3238C34.5304 50.8167 34.6829 50.2079 34.6231 49.6011C34.5634 48.9942 34.2951 48.4268 33.8639 47.9956V47.9956C33.6198 47.75 33.3295 47.5554 33.0096 47.4228C32.6898 47.2903 32.3468 47.2226 32.0006 47.2236Z" fill="white"/>
<path d="M42.8654 43.9424L42.6085 43.5137C41.5178 41.6737 39.9651 40.1508 38.1044 39.096C36.2437 38.0411 34.1395 37.491 32.0006 37.5C29.8648 37.5068 27.7668 38.0637 25.9088 39.117C24.0507 40.1703 22.4954 41.6845 21.3927 43.5137L21.1359 43.9424L20.278 43.4282L20.5353 42.999C21.7217 41.0172 23.4016 39.3768 25.411 38.2377C27.4204 37.0987 29.6908 36.5 32.0006 36.5C34.3104 36.5 36.5808 37.0987 38.5902 38.2377C40.5996 39.3768 42.2795 41.0172 43.4659 42.999L43.7233 43.4282L42.8654 43.9424Z" fill="white"/>
<path d="M39.5104 46.9023L39.2535 46.4736C38.5032 45.2198 37.4406 44.182 36.1695 43.4613C34.8984 42.7407 33.4622 42.3619 32.001 42.3618C30.5398 42.3618 29.1036 42.7405 27.8324 43.4611C26.5613 44.1816 25.4986 45.2194 24.7482 46.4731L24.4913 46.9023L23.6334 46.3882L23.8907 45.9595C24.7299 44.5575 25.9181 43.397 27.3395 42.5912C28.7608 41.7854 30.3668 41.3619 32.0007 41.3618C33.6346 41.3618 35.2406 41.7853 36.662 42.591C38.0835 43.3967 39.2717 44.5571 40.111 45.959L40.3683 46.3882L39.5104 46.9023Z" fill="white"/>
</g>
<defs>
<clipPath id="clip0_8_1153">
<rect width="64.0001" height="64.0001" fill="white"/>
</clipPath>
</defs>
</svg>
