<svg width="64" height="64" viewBox="0 0 64 64" fill="none" xmlns="http://www.w3.org/2000/svg">
<g clip-path="url(#clip0_8_1189)">
<path opacity="0.3" d="M47.7503 30.397C52.0585 30.397 55.551 26.9045 55.551 22.5962C55.551 18.288 52.0585 14.7955 47.7503 14.7955C43.4421 14.7955 39.9496 18.288 39.9496 22.5962C39.9496 26.9045 43.4421 30.397 47.7503 30.397Z" fill="#231F20"/>
<path opacity="0.3" d="M47.7502 33.4555C43.5731 33.4555 39.567 35.1149 36.6134 38.0686C33.6597 41.0223 32.0004 45.0284 32.0004 49.2056H63.5003C63.5003 47.1372 63.0929 45.0891 62.3014 43.1783C61.5099 41.2674 60.3498 39.5311 58.8872 38.0686C57.4247 36.606 55.6884 35.4459 53.7775 34.6544C51.8666 33.8629 49.8186 33.4555 47.7502 33.4555V33.4555Z" fill="#231F20"/>
<path d="M16.2504 30.897C14.6086 30.897 13.0038 30.4101 11.6387 29.498C10.2736 28.5859 9.20971 27.2895 8.58145 25.7728C7.95318 24.256 7.7888 22.587 8.10909 20.9768C8.42937 19.3666 9.21995 17.8875 10.3808 16.7267C11.5417 15.5658 13.0208 14.7752 14.631 14.4549C16.2412 14.1346 17.9102 14.299 19.4269 14.9273C20.9437 15.5555 22.2401 16.6195 23.1522 17.9845C24.0643 19.3496 24.5511 20.9545 24.5511 22.5962C24.5487 24.7969 23.6734 26.9068 22.1172 28.463C20.561 30.0192 18.4511 30.8945 16.2504 30.897V30.897ZM16.2504 15.2954C14.8064 15.2954 13.3949 15.7236 12.1943 16.5258C10.9937 17.328 10.0579 18.4683 9.50533 19.8023C8.95275 21.1363 8.80817 22.6043 9.08987 24.0205C9.37157 25.4367 10.0669 26.7376 11.0879 27.7586C12.109 28.7797 13.4098 29.475 14.8261 29.7567C16.2423 30.0384 17.7102 29.8938 19.0443 29.3412C20.3783 28.7887 21.5185 27.8529 22.3207 26.6523C23.123 25.4517 23.5511 24.0402 23.5511 22.5962C23.549 20.6606 22.7792 18.8048 21.4105 17.4361C20.0418 16.0674 18.186 15.2975 16.2504 15.2954V15.2954Z" fill="white"/>
<path d="M32.5004 49.2056H31.5004C31.5004 45.161 29.8937 41.2821 27.0337 38.4222C24.1738 35.5623 20.2949 33.9556 16.2504 33.9556C12.2058 33.9556 8.32692 35.5623 5.46699 38.4222C2.60706 41.2821 1.00037 45.161 1.00037 49.2056H0.000366211C0.000366211 44.8958 1.71241 40.7625 4.75988 37.7151C7.80735 34.6676 11.9406 32.9556 16.2504 32.9556C20.5601 32.9556 24.6934 34.6676 27.7409 37.7151C30.7883 40.7625 32.5004 44.8958 32.5004 49.2056V49.2056Z" fill="white"/>
<path d="M47.7504 30.897C46.1086 30.897 44.5038 30.4101 43.1387 29.498C41.7736 28.5859 40.7097 27.2895 40.0814 25.7728C39.4532 24.256 39.2888 22.587 39.6091 20.9768C39.9294 19.3666 40.7199 17.8875 41.8808 16.7267C43.0417 15.5658 44.5208 14.7752 46.131 14.4549C47.7412 14.1346 49.4102 14.299 50.9269 14.9273C52.4437 15.5555 53.7401 16.6195 54.6522 17.9845C55.5643 19.3496 56.0511 20.9545 56.0511 22.5962C56.0487 24.7969 55.1734 26.9068 53.6172 28.463C52.061 30.0192 49.9511 30.8945 47.7504 30.897V30.897ZM47.7504 15.2954C46.3064 15.2954 44.8949 15.7236 43.6943 16.5258C42.4937 17.328 41.5579 18.4683 41.0053 19.8023C40.4527 21.1363 40.3082 22.6043 40.5899 24.0205C40.8716 25.4367 41.5669 26.7376 42.5879 27.7586C43.609 28.7797 44.9098 29.475 46.3261 29.7567C47.7423 30.0384 49.2102 29.8938 50.5443 29.3412C51.8783 28.7887 53.0185 27.8529 53.8207 26.6523C54.623 25.4517 55.0511 24.0402 55.0511 22.5962C55.049 20.6606 54.2792 18.8048 52.9105 17.4361C51.5418 16.0674 49.686 15.2975 47.7504 15.2954V15.2954Z" fill="white"/>
<path d="M64.0004 49.2056H63.0004C63.0004 45.161 61.3937 41.2821 58.5337 38.4222C55.6738 35.5623 51.7949 33.9556 47.7504 33.9556C43.7058 33.9556 39.8269 35.5623 36.967 38.4222C34.1071 41.2821 32.5004 45.161 32.5004 49.2056H31.5004C31.5004 44.8958 33.2124 40.7625 36.2599 37.7151C39.3073 34.6676 43.4406 32.9556 47.7504 32.9556C52.0601 32.9556 56.1934 34.6676 59.2409 37.7151C62.2883 40.7625 64.0004 44.8958 64.0004 49.2056V49.2056Z" fill="white"/>
<path d="M48.2502 14.795H47.2502V1H16.7502V14.795H15.7502V0H48.2502V14.795Z" fill="white"/>
<path d="M48.2502 64H15.7502V49.206H16.7502V63H47.2502V49.206H48.2502V64Z" fill="white"/>
<path d="M47.7504 15.2075C47.6618 15.2078 47.5741 15.1905 47.4923 15.1567C47.4105 15.1228 47.3362 15.073 47.2738 15.0102L41.5551 9.29099L42.2621 8.58398L47.7503 14.0728L53.2387 8.58398L53.9457 9.29099L48.2269 15.0102C48.1645 15.073 48.0902 15.1228 48.0084 15.1566C47.9266 15.1905 47.8389 15.2078 47.7504 15.2075V15.2075Z" fill="white"/>
<path d="M21.6163 55.278L16.1003 49.762L10.5843 55.278L9.87726 54.571L16.1003 48.348L22.3233 54.571L21.6163 55.278Z" fill="white"/>
</g>
<defs>
<clipPath id="clip0_8_1189">
<rect width="64.0001" height="64.0001" fill="white" transform="translate(0.000244141)"/>
</clipPath>
</defs>
</svg>
