<svg width="64" height="64" viewBox="0 0 64 64" fill="none" xmlns="http://www.w3.org/2000/svg">
<g clip-path="url(#clip0_8_1061)">
<path opacity="0.15" d="M47.75 30.397C52.0583 30.397 55.5508 26.9045 55.5508 22.5962C55.5508 18.288 52.0583 14.7955 47.75 14.7955C43.4418 14.7955 39.9493 18.288 39.9493 22.5962C39.9493 26.9045 43.4418 30.397 47.75 30.397Z" fill="#183A9E"/>
<path opacity="0.15" d="M47.75 33.4555C43.5728 33.4555 39.5668 35.1149 36.6131 38.0686C33.6595 41.0223 32.0001 45.0284 32.0001 49.2056H63.5001C63.5001 47.1372 63.0927 45.0891 62.3012 43.1783C61.5097 41.2674 60.3495 39.5311 58.887 38.0686C57.4245 36.606 55.6882 35.4459 53.7773 34.6544C51.8664 33.8629 49.8183 33.4555 47.75 33.4555V33.4555Z" fill="#183A9E"/>
<path d="M16.2501 30.897C14.6084 30.897 13.0035 30.4101 11.6385 29.498C10.2734 28.5859 9.20947 27.2895 8.5812 25.7728C7.95294 24.256 7.78855 22.587 8.10884 20.9768C8.42913 19.3666 9.2197 17.8875 10.3806 16.7267C11.5415 15.5658 13.0205 14.7752 14.6307 14.4549C16.2409 14.1346 17.9099 14.299 19.4267 14.9273C20.9435 15.5555 22.2399 16.6195 23.152 17.9845C24.0641 19.3496 24.5509 20.9545 24.5509 22.5962C24.5484 24.7969 23.6731 26.9068 22.1169 28.463C20.5608 30.0192 18.4509 30.8945 16.2501 30.897V30.897ZM16.2501 15.2954C14.8062 15.2954 13.3946 15.7236 12.194 16.5258C10.9934 17.328 10.0577 18.4683 9.50508 19.8023C8.95251 21.1363 8.80792 22.6043 9.08963 24.0205C9.37133 25.4367 10.0667 26.7376 11.0877 27.7586C12.1087 28.7797 13.4096 29.475 14.8258 29.7567C16.242 30.0384 17.71 29.8938 19.044 29.3412C20.3781 28.7887 21.5183 27.8529 22.3205 26.6523C23.1227 25.4517 23.5509 24.0402 23.5509 22.5962C23.5488 20.6606 22.7789 18.8048 21.4102 17.4361C20.0415 16.0674 18.1858 15.2975 16.2501 15.2954V15.2954Z" fill="#204ECF"/>
<path d="M32.5001 49.2056H31.5001C31.5001 45.161 29.8934 41.2821 27.0335 38.4222C24.1736 35.5623 20.2947 33.9556 16.2501 33.9556C12.2056 33.9556 8.32667 35.5623 5.46674 38.4222C2.60681 41.2821 1.00012 45.161 1.00012 49.2056H0.00012207C0.00012207 44.8958 1.71217 40.7625 4.75964 37.7151C7.8071 34.6676 11.9404 32.9556 16.2501 32.9556C20.5599 32.9556 24.6931 34.6676 27.7406 37.7151C30.7881 40.7625 32.5001 44.8958 32.5001 49.2056V49.2056Z" fill="#204ECF"/>
<path d="M47.7501 30.897C46.1084 30.897 44.5035 30.4101 43.1385 29.498C41.7734 28.5859 40.7095 27.2895 40.0812 25.7728C39.4529 24.256 39.2886 22.587 39.6088 20.9768C39.9291 19.3666 40.7197 17.8875 41.8806 16.7267C43.0415 15.5658 44.5205 14.7752 46.1307 14.4549C47.7409 14.1346 49.4099 14.299 50.9267 14.9273C52.4435 15.5555 53.7399 16.6195 54.652 17.9845C55.5641 19.3496 56.0509 20.9545 56.0509 22.5962C56.0484 24.7969 55.1731 26.9068 53.6169 28.463C52.0608 30.0192 49.9509 30.8945 47.7501 30.897V30.897ZM47.7501 15.2954C46.3062 15.2954 44.8946 15.7236 43.694 16.5258C42.4934 17.328 41.5577 18.4683 41.0051 19.8023C40.4525 21.1363 40.3079 22.6043 40.5896 24.0205C40.8713 25.4367 41.5667 26.7376 42.5877 27.7586C43.6087 28.7797 44.9096 29.475 46.3258 29.7567C47.742 30.0384 49.21 29.8938 50.544 29.3412C51.8781 28.7887 53.0183 27.8529 53.8205 26.6523C54.6227 25.4517 55.0509 24.0402 55.0509 22.5962C55.0488 20.6606 54.2789 18.8048 52.9102 17.4361C51.5415 16.0674 49.6858 15.2975 47.7501 15.2954V15.2954Z" fill="#204ECF"/>
<path d="M64.0001 49.2056H63.0001C63.0001 45.161 61.3934 41.2821 58.5335 38.4222C55.6736 35.5623 51.7947 33.9556 47.7501 33.9556C43.7056 33.9556 39.8267 35.5623 36.9667 38.4222C34.1068 41.2821 32.5001 45.161 32.5001 49.2056H31.5001C31.5001 44.8958 33.2122 40.7625 36.2596 37.7151C39.3071 34.6676 43.4404 32.9556 47.7501 32.9556C52.0599 32.9556 56.1931 34.6676 59.2406 37.7151C62.2881 40.7625 64.0001 44.8958 64.0001 49.2056V49.2056Z" fill="#204ECF"/>
<path d="M48.25 14.795H47.25V1H16.75V14.795H15.75V0H48.25V14.795Z" fill="#204ECF"/>
<path d="M48.25 64H15.75V49.206H16.75V63H47.25V49.206H48.25V64Z" fill="#204ECF"/>
<path d="M47.7501 15.2075C47.6616 15.2078 47.5739 15.1905 47.4921 15.1567C47.4103 15.1228 47.336 15.073 47.2736 15.0102L41.5548 9.29099L42.2618 8.58398L47.7501 14.0728L53.2384 8.58398L53.9454 9.29099L48.2267 15.0102C48.1642 15.073 48.09 15.1228 48.0082 15.1566C47.9264 15.1905 47.8387 15.2078 47.7501 15.2075V15.2075Z" fill="#204ECF"/>
<path d="M21.616 55.278L16.1 49.762L10.584 55.278L9.87701 54.571L16.1 48.348L22.323 54.571L21.616 55.278Z" fill="#204ECF"/>
</g>
<defs>
<clipPath id="clip0_8_1061">
<rect width="64.0001" height="64.0001" fill="white"/>
</clipPath>
</defs>
</svg>
