<svg width="64" height="64" viewBox="0 0 64 64" fill="none" xmlns="http://www.w3.org/2000/svg">
<g clip-path="url(#clip0_10_1279)">
<path opacity="0.15" d="M50.9389 50.9389C54.3748 50.9389 57.1601 48.1535 57.1601 44.7176C57.1601 41.2817 54.3748 38.4963 50.9389 38.4963C47.5029 38.4963 44.7176 41.2817 44.7176 44.7176C44.7176 48.1535 47.5029 50.9389 50.9389 50.9389Z" fill="#183A9E"/>
<path opacity="0.15" d="M11.3929 0.5V16.434V24.033L18.9919 16.434H26.1709V8.467H37.8289V0.5H11.3929Z" fill="#183A9E"/>
<path opacity="0.15" d="M50.9387 50.9391C49.2892 50.9391 47.6558 51.264 46.1318 51.8953C44.6078 52.5265 43.2231 53.4518 42.0567 54.6182C40.8903 55.7846 39.9651 57.1693 39.3339 58.6933C38.7026 60.2172 38.3777 61.8506 38.3777 63.5002H63.4997C63.4998 61.8506 63.1749 60.2172 62.5436 58.6932C61.9124 57.1693 60.9871 55.7845 59.8207 54.6181C58.6543 53.4517 57.2696 52.5265 55.7456 51.8952C54.2216 51.264 52.5882 50.9391 50.9387 50.9391V50.9391Z" fill="#183A9E"/>
<path d="M13.0609 51.439C11.7315 51.439 10.4321 51.0448 9.32676 50.3062C8.22147 49.5677 7.35999 48.518 6.85128 47.2899C6.34257 46.0617 6.20947 44.7103 6.46881 43.4065C6.72815 42.1028 7.36828 40.9051 8.30825 39.9652C9.24823 39.0252 10.4458 38.3851 11.7496 38.1257C13.0534 37.8664 14.4048 37.9995 15.6329 38.5082C16.8611 39.0169 17.9108 39.8784 18.6493 40.9837C19.3879 42.089 19.782 43.3885 19.782 44.7178C19.78 46.4997 19.0712 48.2081 17.8112 49.4681C16.5512 50.7282 14.8428 51.4369 13.0609 51.439V51.439ZM13.0609 38.9966C11.9293 38.9966 10.8232 39.3321 9.88233 39.9608C8.94149 40.5894 8.20819 41.483 7.77516 42.5284C7.34214 43.5738 7.22884 44.7241 7.44959 45.8339C7.67035 46.9437 8.21524 47.9631 9.01536 48.7633C9.81548 49.5634 10.8349 50.1083 11.9447 50.329C13.0545 50.5498 14.2048 50.4365 15.2503 50.0035C16.2957 49.5704 17.1892 48.8371 17.8178 47.8963C18.4465 46.9555 18.782 45.8493 18.782 44.7178C18.7804 43.2009 18.1771 41.7467 17.1045 40.6741C16.0319 39.6015 14.5777 38.9982 13.0609 38.9965V38.9966Z" fill="#204ECF"/>
<path d="M26.1219 63.5H25.1219C25.1219 60.3012 23.8512 57.2334 21.5894 54.9716C19.3275 52.7097 16.2597 51.439 13.0609 51.439C9.86213 51.439 6.79436 52.7097 4.53247 54.9716C2.27059 57.2334 0.999878 60.3012 0.999878 63.5H-0.00012207C-0.00012207 60.036 1.37595 56.7139 3.82537 54.2645C6.27479 51.815 9.59691 50.439 13.0609 50.439C16.5249 50.439 19.847 51.815 22.2965 54.2645C24.7459 56.7139 26.1219 60.036 26.1219 63.5V63.5Z" fill="#204ECF"/>
<path d="M50.9389 51.439C49.6096 51.439 48.3101 51.0448 47.2048 50.3062C46.0995 49.5677 45.238 48.518 44.7293 47.2899C44.2206 46.0617 44.0875 44.7103 44.3469 43.4065C44.6062 42.1027 45.2463 40.9051 46.1863 39.9652C47.1263 39.0252 48.3239 38.3851 49.6277 38.1257C50.9315 37.8664 52.2829 37.9995 53.511 38.5082C54.7391 39.0169 55.7888 39.8784 56.5274 40.9837C57.2659 42.089 57.6601 43.3885 57.6601 44.7178C57.6581 46.4997 56.9493 48.2081 55.6893 49.4681C54.4292 50.7282 52.7208 51.4369 50.9389 51.439V51.439ZM50.9389 38.9966C49.8074 38.9966 48.7012 39.3321 47.7604 39.9608C46.8195 40.5894 46.0862 41.483 45.6532 42.5284C45.2202 43.5738 45.1069 44.7241 45.3276 45.8339C45.5484 46.9437 46.0933 47.9631 46.8934 48.7633C47.6935 49.5634 48.713 50.1083 49.8228 50.329C50.9326 50.5498 52.0829 50.4365 53.1283 50.0035C54.1737 49.5704 55.0673 48.8371 55.6959 47.8963C56.3246 46.9555 56.6601 45.8493 56.6601 44.7178C56.6584 43.2009 56.0551 41.7467 54.9826 40.6741C53.91 39.6015 52.4557 38.9982 50.9389 38.9965V38.9966Z" fill="#204ECF"/>
<path d="M63.9999 63.5H62.9999C62.9999 60.3012 61.7292 57.2334 59.4673 54.9716C57.2054 52.7097 54.1376 51.439 50.9388 51.439C47.7401 51.439 44.6723 52.7097 42.4104 54.9716C40.1485 57.2334 38.8778 60.3012 38.8778 63.5H37.8778C37.8778 60.036 39.2539 56.7139 41.7033 54.2645C44.1527 51.815 47.4748 50.439 50.9388 50.439C54.4028 50.439 57.725 51.815 60.1744 54.2645C62.6238 56.7139 63.9999 60.036 63.9999 63.5V63.5Z" fill="#204ECF"/>
<path d="M53.1068 33.207L44.8007 24.9008H25.6703V7.9668H53.1068V33.207ZM26.6703 23.9009H45.2147L52.1068 30.793V8.9668H26.6703V23.9009Z" fill="#204ECF"/>
<path d="M10.8929 25.24V0H38.3299V8.467H37.3299V1H11.8929V22.826L18.7849 15.934H26.1699V16.934H19.1989L10.8929 25.24Z" fill="#204ECF"/>
</g>
<defs>
<clipPath id="clip0_10_1279">
<rect width="64" height="64" fill="white"/>
</clipPath>
</defs>
</svg>
