<svg width="64" height="64" viewBox="0 0 64 64" fill="none" xmlns="http://www.w3.org/2000/svg">
<path opacity="0.3" d="M50.939 50.939C54.3749 50.939 57.1602 48.1536 57.1602 44.7177C57.1602 41.2818 54.3749 38.4965 50.939 38.4965C47.5031 38.4965 44.7177 41.2818 44.7177 44.7177C44.7177 48.1536 47.5031 50.939 50.939 50.939Z" fill="#231F20"/>
<path opacity="0.3" d="M11.393 0.5V17.52V25.119L18.992 17.52H26.171V9.553H37.829V0.5H11.393Z" fill="#231F20"/>
<path opacity="0.3" d="M50.9389 50.939C49.2894 50.939 47.656 51.2639 46.132 51.8951C44.6081 52.5264 43.2233 53.4517 42.057 54.6181C40.8906 55.7845 39.9653 57.1692 39.3341 58.6932C38.7029 60.2171 38.378 61.8505 38.378 63.5001H63.5C63.5 61.8505 63.1751 60.2171 62.5439 58.6931C61.9126 57.1691 60.9874 55.7844 59.821 54.618C58.6546 53.4516 57.2698 52.5263 55.7458 51.8951C54.2219 51.2638 52.5885 50.939 50.9389 50.939V50.939Z" fill="#231F20"/>
<path d="M13.061 51.4391C11.7316 51.4391 10.4322 51.0449 9.32688 50.3064C8.22159 49.5678 7.36012 48.5181 6.85141 47.29C6.34269 46.0619 6.20959 44.7104 6.46893 43.4067C6.72827 42.1029 7.3684 40.9053 8.30838 39.9653C9.24835 39.0253 10.446 38.3852 11.7497 38.1259C13.0535 37.8665 14.4049 37.9996 15.6331 38.5083C16.8612 39.017 17.9109 39.8785 18.6494 40.9838C19.388 42.0891 19.7822 43.3886 19.7822 44.7179C19.7801 46.4998 19.0714 48.2082 17.8113 49.4683C16.5513 50.7283 14.8429 51.4371 13.061 51.4391V51.4391ZM13.061 38.9967C11.9294 38.9967 10.8233 39.3322 9.88245 39.9609C8.94161 40.5896 8.20831 41.4831 7.77529 42.5285C7.34226 43.5739 7.22896 44.7242 7.44972 45.834C7.67047 46.9438 8.21536 47.9633 9.01548 48.7634C9.81561 49.5635 10.835 50.1084 11.9448 50.3292C13.0546 50.5499 14.205 50.4366 15.2504 50.0036C16.2958 49.5706 17.1893 48.8373 17.818 47.8964C18.4466 46.9556 18.7822 45.8494 18.7822 44.7179C18.7805 43.2011 18.1772 41.7468 17.1046 40.6743C16.032 39.6017 14.5778 38.9984 13.061 38.9967V38.9967Z" fill="white"/>
<path d="M26.1221 63.5001H25.1221C25.1221 60.3013 23.8514 57.2336 21.5895 54.9717C19.3276 52.7098 16.2598 51.4391 13.061 51.4391C9.86225 51.4391 6.79448 52.7098 4.5326 54.9717C2.27071 57.2336 1 60.3013 1 63.5001H0C0 60.0361 1.37607 56.714 3.82549 54.2646C6.27491 51.8152 9.59703 50.4391 13.061 50.4391C16.525 50.4391 19.8472 51.8152 22.2966 54.2646C24.746 56.714 26.1221 60.0361 26.1221 63.5001V63.5001Z" fill="white"/>
<path d="M50.939 51.4391C49.6097 51.4391 48.3102 51.0449 47.2049 50.3064C46.0996 49.5678 45.2382 48.5181 44.7295 47.29C44.2207 46.0618 44.0876 44.7104 44.347 43.4067C44.6063 42.1029 45.2465 40.9053 46.1864 39.9653C47.1264 39.0253 48.324 38.3852 49.6278 38.1259C50.9316 37.8665 52.283 37.9996 53.5111 38.5083C54.7393 39.017 55.789 39.8785 56.5275 40.9838C57.266 42.0891 57.6602 43.3886 57.6602 44.7179C57.6582 46.4998 56.9494 48.2082 55.6894 49.4683C54.4294 50.7283 52.721 51.4371 50.939 51.4391V51.4391ZM50.939 38.9967C49.8075 38.9967 48.7013 39.3323 47.7605 39.9609C46.8197 40.5896 46.0864 41.4831 45.6533 42.5285C45.2203 43.5739 45.107 44.7243 45.3278 45.8341C45.5485 46.9439 46.0934 47.9633 46.8935 48.7634C47.6937 49.5635 48.7131 50.1084 49.8229 50.3292C50.9327 50.5499 52.083 50.4366 53.1284 50.0036C54.1738 49.5706 55.0674 48.8373 55.696 47.8964C56.3247 46.9556 56.6602 45.8494 56.6602 44.7179C56.6585 43.2011 56.0552 41.7468 54.9827 40.6743C53.9101 39.6017 52.4559 38.9984 50.939 38.9967V38.9967Z" fill="white"/>
<path d="M64 63.5001H63C63 60.3013 61.7293 57.2336 59.4674 54.9717C57.2055 52.7098 54.1378 51.4391 50.939 51.4391C47.7402 51.4391 44.6724 52.7098 42.4105 54.9717C40.1486 57.2336 38.8779 60.3013 38.8779 63.5001H37.8779C37.8779 60.0361 39.254 56.714 41.7034 54.2646C44.1528 51.8152 47.475 50.4391 50.939 50.4391C54.403 50.4391 57.7251 51.8152 60.1745 54.2646C62.6239 56.714 64 60.0361 64 63.5001V63.5001Z" fill="white"/>
<path d="M53.1069 34.2936L44.8008 25.9874H25.6704V9.05334H53.1069V34.2936ZM26.6704 24.9874H45.2148L52.1069 31.8795V10.0533H26.6704V24.9874Z" fill="white"/>
<path d="M10.893 26.326V0H38.33V9.553H37.33V1H11.893V23.912L18.785 17.02H26.17V18.02H19.199L10.893 26.326Z" fill="white"/>
</svg>
