<svg width="64" height="64" viewBox="0 0 64 64" fill="none" xmlns="http://www.w3.org/2000/svg">
<path opacity="0.15" d="M38.0815 47.9741H25.919V55.0427H38.0815V47.9741Z" fill="#183A9E"/>
<path opacity="0.15" d="M57.9891 35.4039H6.01147V6.01123H57.9891V35.4039Z" fill="#183A9E"/>
<path d="M64.0003 40.915H63.0003V2.6001C62.9998 2.17595 62.8312 1.76929 62.5313 1.46932C62.2314 1.16935 61.8248 1.00057 61.4007 1H2.59987C2.17572 1.00057 1.76911 1.16936 1.46924 1.46932C1.16936 1.76929 1.00071 2.17595 1.00027 2.6001V40.915H0.000267029V2.6001C0.000968326 1.91081 0.275063 1.24995 0.762417 0.762503C1.24977 0.275056 1.91058 0.00083386 2.59987 0L61.4007 0C62.0899 0.000833855 62.7508 0.275056 63.2381 0.762502C63.7255 1.24995 63.9996 1.91081 64.0003 2.6001V40.915Z" fill="#204ECF"/>
<path d="M38.5813 47.9741H37.5813V59.6011H38.5813V47.9741Z" fill="#204ECF"/>
<path d="M26.4192 47.9741H25.4192V59.6011H26.4192V47.9741Z" fill="#204ECF"/>
<path d="M47.6194 63H16.3811V64H47.6194V63Z" fill="#204ECF"/>
<path d="M61.4007 48.4742H2.59987C1.91058 48.4733 1.24976 48.1991 0.762409 47.7116C0.275056 47.2242 0.000963032 46.5633 0.000267029 45.874V40.415H64.0003V45.874C63.9996 46.5633 63.7255 47.2242 63.2381 47.7116C62.7508 48.1991 62.0899 48.4733 61.4007 48.4742V48.4742ZM1.00027 41.415V45.874C1.00071 46.2982 1.16936 46.7048 1.46924 47.0048C1.76911 47.3048 2.17572 47.4736 2.59987 47.4741H61.4007C61.8248 47.4736 62.2314 47.3048 62.5313 47.0048C62.8312 46.7049 62.9998 46.2982 63.0003 45.874V41.415H1.00027Z" fill="#204ECF"/>
</svg>
