<svg width="64" height="64" viewBox="0 0 64 64" fill="none" xmlns="http://www.w3.org/2000/svg">
<g clip-path="url(#clip0_10_1338)">
<path opacity="0.3" d="M38.0812 47.9741H25.9187V55.0427H38.0812V47.9741Z" fill="#231F20"/>
<path opacity="0.3" d="M57.9888 35.4039H6.01121V6.01123H57.9888V35.4039Z" fill="#231F20"/>
<path d="M64 40.915H63V2.6001C62.9995 2.17587 62.8308 1.76915 62.5308 1.46918C62.2308 1.1692 61.8241 1.00047 61.3999 1H2.6001C2.17587 1.00047 1.76915 1.1692 1.46918 1.46918C1.1692 1.76915 1.00047 2.17587 1 2.6001V40.915H0V2.6001C0.000812482 1.91076 0.275012 1.24989 0.762449 0.762449C1.24989 0.275012 1.91076 0.000812482 2.6001 0L61.3999 0C62.0892 0.000812482 62.7501 0.275012 63.2376 0.762449C63.725 1.24989 63.9992 1.91076 64 2.6001V40.915Z" fill="white"/>
<path d="M38.5811 47.9741H37.5811V59.6011H38.5811V47.9741Z" fill="white"/>
<path d="M26.4189 47.9741H25.4189V59.6011H26.4189V47.9741Z" fill="white"/>
<path d="M47.6186 63H16.3813V64H47.6186V63Z" fill="white"/>
<path d="M61.3999 48.4742H2.6001C1.91076 48.4733 1.24988 48.1991 0.762442 47.7117C0.275004 47.2243 0.00080719 46.5634 0 45.874L0 40.415H64V45.874C63.9992 46.5634 63.725 47.2243 63.2376 47.7117C62.7501 48.1991 62.0892 48.4733 61.3999 48.4742V48.4742ZM1 41.415V45.874C1.00047 46.2983 1.1692 46.705 1.46918 47.005C1.76915 47.3049 2.17587 47.4737 2.6001 47.4741H61.3999C61.8241 47.4737 62.2308 47.3049 62.5308 47.005C62.8308 46.705 62.9995 46.2983 63 45.874V41.415H1Z" fill="white"/>
</g>
<defs>
<clipPath id="clip0_10_1338">
<rect width="64" height="64" fill="white"/>
</clipPath>
</defs>
</svg>
