<svg width="64" height="64" viewBox="0 0 64 64" fill="none" xmlns="http://www.w3.org/2000/svg">
<g clip-path="url(#clip0_10_1211)">
<path opacity="0.15" d="M61.8672 2.13283C61.0876 1.35323 60.0943 0.822316 59.0129 0.60723C57.9316 0.392144 56.8107 0.502544 55.7921 0.92447C54.7735 1.3464 53.9029 2.0609 53.2904 2.97762C52.6778 3.89435 52.3509 4.97212 52.3509 6.07465C52.3509 7.17719 52.6778 8.25496 53.2904 9.17169C53.9029 10.0884 54.7735 10.8029 55.7921 11.2248C56.8107 11.6468 57.9316 11.7572 59.0129 11.5421C60.0943 11.327 61.0876 10.7961 61.8672 10.0165C62.3849 9.49885 62.7955 8.88432 63.0757 8.20798C63.3559 7.53164 63.5001 6.80673 63.5001 6.07465C63.5001 5.34258 63.3559 4.61767 63.0757 3.94133C62.7955 3.26499 62.3849 2.65046 61.8672 2.13283V2.13283Z" fill="#183A9E"/>
<path opacity="0.15" d="M36.8616 10.0194L53.9804 27.1384C55.1057 26.0147 55.9985 24.6802 56.6078 23.2112C57.2171 21.7423 57.531 20.1677 57.5315 18.5774C57.5321 16.987 57.2192 15.4122 56.6109 13.9428C56.0026 12.4735 55.1107 11.1384 53.9861 10.0139C52.8616 8.88935 51.5266 7.99742 50.0572 7.38907C48.5878 6.78072 47.013 6.46787 45.4227 6.46838C43.8324 6.4689 42.2578 6.78278 40.7888 7.39209C39.3198 8.0014 37.9854 8.89419 36.8616 10.0194V10.0194Z" fill="#183A9E"/>
<path opacity="0.15" d="M2.133 53.9834C1.35338 54.763 0.822442 55.7563 0.607338 56.8377C0.392234 57.919 0.502621 59.0399 0.92454 60.0585C1.34646 61.0771 2.06096 61.9477 2.97769 62.5603C3.89442 63.1728 4.9722 63.4998 6.07475 63.4998C7.17729 63.4998 8.25507 63.1728 9.1718 62.5603C10.0885 61.9477 10.803 61.0771 11.225 60.0585C11.6469 59.0399 11.7573 57.919 11.5422 56.8377C11.327 55.7563 10.7961 54.763 10.0165 53.9834C9.49887 53.4657 8.88435 53.0551 8.20802 52.7749C7.5317 52.4948 6.80681 52.3506 6.07475 52.3506C5.34269 52.3506 4.6178 52.4948 3.94147 52.7749C3.26514 53.0551 2.65062 53.4657 2.133 53.9834V53.9834Z" fill="#183A9E"/>
<path opacity="0.15" d="M10.0198 53.9804C12.2899 56.2506 15.3688 57.5259 18.5792 57.5259C21.7896 57.5259 24.8686 56.2506 27.1387 53.9804L10.0199 36.8615C8.89581 37.9855 8.00415 39.3199 7.39581 40.7886C6.78747 42.2572 6.47435 43.8313 6.47435 45.4209C6.47434 47.0106 6.78744 48.5847 7.39576 50.0533C8.00409 51.522 8.89573 52.8564 10.0198 53.9804V53.9804Z" fill="#183A9E"/>
<path d="M6.0748 12.146C5.07599 12.146 4.0926 11.8996 3.21175 11.4288C2.33089 10.9579 1.57976 10.2771 1.0249 9.44657C0.470044 8.61606 0.128581 7.66152 0.0307664 6.66751C-0.0670485 5.67351 0.0818034 4.67072 0.464136 3.74799C0.846468 2.82525 1.45048 2.01106 2.22266 1.37753C2.99483 0.744 3.91135 0.310698 4.89099 0.116007C5.87064 -0.0786848 6.88319 -0.0287551 7.83893 0.261372C8.79467 0.5515 9.66411 1.07287 10.3702 1.77929V1.77929C11.2202 2.6284 11.7992 3.71062 12.0339 4.88895C12.2685 6.06729 12.1483 7.28876 11.6884 8.39872C11.2285 9.50869 10.4496 10.4572 9.4503 11.1243C8.45101 11.7914 7.27628 12.1469 6.0748 12.146V12.146ZM6.0748 1.00244C4.90135 1.00325 3.76448 1.4109 2.85789 2.15593C1.95129 2.90096 1.33106 3.93729 1.10287 5.08833C0.87468 6.23938 1.05264 7.43394 1.60644 8.4685C2.16023 9.50305 3.0556 10.3136 4.13999 10.762C5.22438 11.2104 6.43071 11.269 7.55344 10.9277C8.67617 10.5865 9.64584 9.86647 10.2972 8.89043C10.9487 7.91439 11.2415 6.74268 11.1259 5.57494C11.0103 4.4072 10.4933 3.31567 9.66318 2.48632C9.19225 2.01486 8.63282 1.64107 8.01702 1.38642C7.40122 1.13177 6.74118 1.00128 6.0748 1.00244V1.00244Z" fill="#204ECF"/>
<path d="M9.66611 27.4922C7.30221 25.1283 5.97419 21.9222 5.97419 18.5791C5.97419 15.2361 7.30221 12.0299 9.66611 9.66604C12.03 7.30214 15.2361 5.97412 18.5792 5.97412C21.9223 5.97412 25.1284 7.30214 27.4923 9.66604L26.7853 10.373C25.7076 9.29541 24.4283 8.44058 23.0203 7.85736C21.6123 7.27415 20.1032 6.97398 18.5792 6.97398C15.5013 6.97398 12.5495 8.19666 10.3731 10.373C8.19676 12.5494 6.97407 15.5012 6.97407 18.5791C6.97407 21.657 8.19676 24.6088 10.3731 26.7852L9.66611 27.4922Z" fill="#204ECF"/>
<path d="M57.9254 12.146C56.7239 12.1469 55.5492 11.7913 54.5499 11.1243C53.5506 10.4572 52.7717 9.50865 52.3118 8.39869C51.8519 7.28872 51.7317 6.06726 51.9663 4.88892C52.201 3.71059 52.78 2.62837 53.63 1.77926V1.77926C54.3361 1.07209 55.2057 0.550028 56.1618 0.259356C57.1179 -0.0313165 58.131 -0.0816216 59.1112 0.112899C60.0914 0.30742 61.0085 0.740758 61.7811 1.3745C62.5538 2.00825 63.1582 2.82283 63.5407 3.74604C63.9232 4.66924 64.0721 5.67256 63.9741 6.66707C63.8761 7.66157 63.5343 8.61654 62.9789 9.44732C62.4235 10.2781 61.6718 10.959 60.7903 11.4298C59.9088 11.9005 58.9247 12.1465 57.9254 12.146H57.9254ZM54.337 2.48629C53.6273 3.19601 53.144 4.10024 52.9482 5.08464C52.7523 6.06905 52.8528 7.08941 53.2369 8.0167C53.621 8.94398 54.2715 9.73655 55.106 10.2942C55.9405 10.8518 56.9217 11.1494 57.9254 11.1494C58.9291 11.1494 59.9102 10.8518 60.7448 10.2942C61.5793 9.73655 62.2297 8.94398 62.6138 8.0167C62.9979 7.08941 63.0984 6.06905 62.9026 5.08464C62.7068 4.10024 62.2235 3.19601 61.5138 2.48629C60.5612 1.53627 59.2707 1.00277 57.9254 1.00277C56.58 1.00277 55.2896 1.53627 54.337 2.48629V2.48629Z" fill="#204ECF"/>
<path d="M54.3341 27.4921L53.6271 26.7851C55.8035 24.6087 57.0261 21.6569 57.0261 18.579C57.0261 15.5012 55.8034 12.5494 53.6271 10.373C51.4507 8.19659 48.4989 6.97391 45.421 6.97391C42.3431 6.97392 39.3913 8.1966 37.2149 10.373L36.5079 9.66598C38.8735 7.31004 42.0771 5.9888 45.4157 5.99219C48.7543 5.99559 51.9552 7.32335 54.3159 9.6841C56.6767 12.0448 58.0045 15.2457 58.0079 18.5843C58.0113 21.9229 56.69 25.1265 54.3341 27.4921V27.4921Z" fill="#204ECF"/>
<path d="M6.0748 63.9971C4.67011 63.9961 3.3092 63.5082 2.22393 62.6164C1.13867 61.7246 0.396183 60.484 0.122989 59.1062C-0.150206 57.7283 0.0627898 56.2984 0.725686 55.0599C1.38858 53.8215 2.46037 52.8512 3.75843 52.3144C5.0565 51.7776 6.50054 51.7074 7.84452 52.1159C9.1885 52.5244 10.3493 53.3863 11.1291 54.5546C11.9089 55.723 12.2594 57.1256 12.1211 58.5234C11.9827 59.9213 11.3639 61.2279 10.3702 62.2207V62.2207C9.80651 62.7851 9.13686 63.2326 8.39972 63.5374C7.66258 63.8423 6.87249 63.9985 6.0748 63.9971V63.9971ZM6.0748 52.8535C4.90147 52.8545 3.76477 53.2622 2.85837 54.0073C1.95196 54.7524 1.33193 55.7887 1.1039 56.9396C0.875873 58.0906 1.05396 59.285 1.60783 60.3194C2.16169 61.3538 3.05706 62.1641 4.14139 62.6124C5.22572 63.0606 6.43193 63.119 7.55451 62.7777C8.67709 62.4363 9.64658 61.7163 10.2978 60.7403C10.9491 59.7643 11.2418 58.5927 11.126 57.4251C11.0103 56.2575 10.4933 55.1661 9.66318 54.3369C9.19226 53.8655 8.63282 53.4917 8.01701 53.2372C7.4012 52.9826 6.74115 52.8522 6.0748 52.8535Z" fill="#204ECF"/>
<path d="M18.5792 58.0195C16.0861 58.0213 13.6485 57.2834 11.5751 55.8992C9.50157 54.5149 7.88538 52.5466 6.93107 50.2434C5.97677 47.9402 5.72726 45.4056 6.21412 42.9605C6.70099 40.5155 7.90234 38.2698 9.66611 36.5078L10.3731 37.2148C8.19672 39.3912 6.97404 42.343 6.97404 45.4209C6.97404 48.4988 8.19672 51.4506 10.3731 53.627C12.5495 55.8033 15.5013 57.026 18.5792 57.026C21.6571 57.026 24.6089 55.8033 26.7852 53.627L27.4923 54.334C26.3225 55.505 24.933 56.4334 23.4034 57.0659C21.8738 57.6984 20.2344 58.0225 18.5792 58.0195Z" fill="#204ECF"/>
<path d="M57.9254 63.997C57.1277 63.9984 56.3376 63.8422 55.6005 63.5373C54.8633 63.2325 54.1937 62.785 53.63 62.2206C52.6338 61.2267 52.0131 59.9179 51.8738 58.5176C51.7344 57.1172 52.0851 55.7119 52.866 54.5411C53.6468 53.3703 54.8095 52.5066 56.1559 52.0971C57.5023 51.6876 58.9491 51.7578 60.2495 52.2956C61.55 52.8334 62.6237 53.8056 63.2876 55.0464C63.9515 56.2873 64.1646 57.7199 63.8904 59.1003C63.6162 60.4806 62.8719 61.7231 61.7841 62.616C60.6964 63.509 59.3327 63.997 57.9254 63.997V63.997ZM54.337 61.5136C55.0467 62.2233 55.9509 62.7066 56.9353 62.9025C57.9198 63.0983 58.9401 62.9978 59.8674 62.6137C60.7947 62.2296 61.5873 61.5791 62.1449 60.7446C62.7025 59.9101 63.0001 58.9289 63.0001 57.9252C63.0001 56.9215 62.7025 55.9404 62.1449 55.1059C61.5873 54.2713 60.7947 53.6209 59.8674 53.2368C58.9401 52.8527 57.9198 52.7522 56.9353 52.948C55.9509 53.1438 55.0467 53.6271 54.337 54.3368C53.3868 55.2893 52.8531 56.5798 52.8531 57.9252C52.8531 59.2706 53.3868 60.5611 54.337 61.5136V61.5136Z" fill="#204ECF"/>
<path d="M45.421 58.0195C43.7658 58.0224 42.1264 57.6983 40.5968 57.0659C39.0672 56.4334 37.6777 55.505 36.5079 54.334L37.2149 53.627C39.3913 55.8033 42.3431 57.026 45.421 57.026C48.4989 57.026 51.4507 55.8033 53.6271 53.6269C55.8034 51.4506 57.0261 48.4988 57.0261 45.4209C57.0261 42.343 55.8034 39.3912 53.627 37.2148L54.334 36.5078C56.0978 38.2698 57.2991 40.5155 57.786 42.9605C58.2729 45.4056 58.0234 47.9402 57.0691 50.2434C56.1148 52.5466 54.4986 54.5149 52.4251 55.8991C50.3516 57.2833 47.9141 58.0213 45.421 58.0195V58.0195Z" fill="#204ECF"/>
<path d="M32.0001 47.2227C28.9893 47.2227 26.0462 46.3299 23.5428 44.6572C21.0395 42.9845 19.0884 40.6071 17.9362 37.8255C16.784 35.0439 16.4826 31.9831 17.0699 29.0302C17.6573 26.0773 19.1071 23.3649 21.236 21.236C23.365 19.107 26.0774 17.6572 29.0303 17.0698C31.9832 16.4825 35.044 16.7839 37.8256 17.9361C40.6071 19.0883 42.9846 21.0394 44.6573 23.5428C46.33 26.0461 47.2228 28.9893 47.2228 32C47.2183 36.0359 45.613 39.9053 42.7592 42.7591C39.9054 45.6129 36.036 47.2182 32.0001 47.2227V47.2227ZM32.0001 17.7774C29.1871 17.7774 26.4373 18.6115 24.0984 20.1743C21.7595 21.7371 19.9366 23.9584 18.8601 26.5572C17.7836 29.1561 17.5019 32.0158 18.0507 34.7747C18.5995 37.5336 19.9541 40.0679 21.9431 42.057C23.9322 44.046 26.4665 45.4006 29.2254 45.9494C31.9843 46.4982 34.844 46.2165 37.4429 45.14C40.0417 44.0636 42.263 42.2406 43.8258 39.9017C45.3886 37.5628 46.2228 34.813 46.2228 32C46.2185 28.2293 44.7186 24.6142 42.0523 21.9478C39.386 19.2815 35.7709 17.7817 32.0001 17.7774V17.7774Z" fill="#204ECF"/>
<path d="M31.226 35.775L27.021 31.57L27.728 30.863L31.226 34.361L36.457 29.13L37.164 29.837L31.226 35.775Z" fill="#204ECF"/>
</g>
<defs>
<clipPath id="clip0_10_1211">
<rect width="64" height="64" fill="white"/>
</clipPath>
</defs>
</svg>
