<svg width="64" height="64" viewBox="0 0 64 64" fill="none" xmlns="http://www.w3.org/2000/svg">
<g clip-path="url(#clip0_10_1349)">
<path opacity="0.3" d="M58.069 47.107V37.236H45.5V47.107H9.499L9.5 55.304H0.5V63.5H63.5V47.107H58.069Z" fill="#231F20"/>
<path d="M19.0003 64H0.000274658V54.8037H19.0003V64ZM1.00027 63H18.0003V55.8037H1.00027V63Z" fill="white"/>
<path d="M37.0003 64H18.0003V54.8037H37.0003V64ZM19.0003 63H36.0003V55.8037H19.0003V63Z" fill="white"/>
<path d="M55.0003 64H36.0003V54.8037H55.0003V64ZM37.0003 63H54.0003V55.8037H37.0003V63Z" fill="white"/>
<path d="M63.9993 64H54.0003V54.8037H64.0003L63.9993 64ZM55.0003 63H62.9993L63.0003 55.8037H55.0003V63Z" fill="white"/>
<path d="M28.0003 55.8037H9.00027V46.6069H28.0003V55.8037ZM10.0003 54.8037H27.0003V47.6069H10.0003V54.8037Z" fill="white"/>
<path d="M46.0003 55.8037H27.0003V46.6069H46.0003V55.8037ZM28.0003 54.8037H45.0003V47.6069H28.0003V54.8037Z" fill="white"/>
<path d="M64.0003 55.8037H45.0003V46.6069H64.0003V55.8037ZM46.0003 54.8037H63.0003V47.6069H46.0003V54.8037Z" fill="white"/>
<path d="M46.0003 0.5H45.0003V48.5552H46.0003V0.5Z" fill="white"/>
<path d="M58.5696 47.1069H57.5696V1H45.5784L8.87527 12.8125V20.5181H8.37527C7.38914 20.5181 6.42516 20.8106 5.60524 21.3585C4.78532 21.9064 4.14628 22.6851 3.76893 23.5962C3.39157 24.5072 3.29285 25.5098 3.48525 26.4769C3.67765 27.4441 4.15252 28.3325 4.84982 29.0298C5.54712 29.7271 6.43553 30.202 7.40272 30.3944C8.3699 30.5868 9.37241 30.4881 10.2835 30.1107C11.1946 29.7334 11.9733 29.0943 12.5212 28.2744C13.0691 27.4545 13.3615 26.4905 13.3616 25.5044H14.3616C14.3615 26.667 14.0229 27.8045 13.387 28.7779C12.7512 29.7513 11.8456 30.5184 10.781 30.9857C9.71631 31.4529 8.53865 31.6 7.39179 31.409C6.24493 31.218 5.17851 30.6971 4.32276 29.91C3.46702 29.123 2.859 28.1037 2.57294 26.9768C2.28689 25.8499 2.33519 24.6641 2.71194 23.5641C3.0887 22.4642 3.7776 21.4978 4.69451 20.7829C5.61143 20.0681 6.71668 19.6357 7.87527 19.5386V12.084L45.5003 0H58.5696V47.1069Z" fill="white"/>
<path d="M58.0696 11.9482H8.37527V12.9482H58.0696V11.9482Z" fill="white"/>
</g>
<defs>
<clipPath id="clip0_10_1349">
<rect width="64.0003" height="64.0001" fill="white"/>
</clipPath>
</defs>
</svg>
