<svg width="64" height="64" viewBox="0 0 64 64" fill="none" xmlns="http://www.w3.org/2000/svg">
<path opacity="0.15" d="M48.7805 38.7735V45.2563C49.8077 43.8989 50.4973 42.3166 50.7924 40.64C51.0874 38.9635 50.9795 37.2409 50.4774 35.6143C49.9753 33.9878 49.0935 32.504 47.9048 31.2854C46.7161 30.0669 45.2547 29.1486 43.6411 28.6063C42.0275 28.0641 40.308 27.9134 38.6247 28.1668C36.9414 28.4202 35.3425 29.0703 33.96 30.0636C32.5775 31.0568 31.4511 32.3647 30.6738 33.8791C29.8965 35.3936 29.4906 37.0712 29.4896 38.7735H48.7805Z" fill="#183A9E"/>
<path opacity="0.15" d="M12.2858 57.3893C16.0602 57.3893 19.1201 54.3295 19.1201 50.555C19.1201 46.7805 16.0602 43.7207 12.2858 43.7207C8.51129 43.7207 5.45148 46.7805 5.45148 50.555C5.45148 54.3295 8.51129 57.3893 12.2858 57.3893Z" fill="#183A9E"/>
<path opacity="0.15" d="M36.9947 57.3893C40.7692 57.3893 43.829 54.3295 43.829 50.555C43.829 46.7805 40.7692 43.7207 36.9947 43.7207C33.2202 43.7207 30.1604 46.7805 30.1604 50.555C30.1604 54.3295 33.2202 57.3893 36.9947 57.3893Z" fill="#183A9E"/>
<path d="M64 61.9609H48.78V60.9609H63V3.03894H17.453V38.7739H16.453V2.03894H64V61.9609Z" fill="#204ECF"/>
<path d="M63.5 15.5861H16.9531V16.5861H63.5V15.5861Z" fill="#204ECF"/>
<path d="M12.2856 57.8893C10.8351 57.8892 9.41713 57.4591 8.21106 56.6531C7.00499 55.8472 6.06498 54.7018 5.5099 53.3616C4.95482 52.0215 4.8096 50.5468 5.0926 49.1242C5.3756 47.7015 6.07411 46.3947 7.09981 45.369C8.12551 44.3433 9.43232 43.6448 10.855 43.3618C12.2777 43.0788 13.7523 43.224 15.0925 43.7791C16.4326 44.3341 17.5781 45.2742 18.384 46.4802C19.1899 47.6863 19.6201 49.1043 19.6201 50.5548C19.618 52.4994 18.8446 54.3637 17.4696 55.7387C16.0946 57.1138 14.2302 57.8872 12.2856 57.8893ZM12.2856 44.2208C11.0329 44.2209 9.80821 44.5924 8.76658 45.2885C7.72495 45.9845 6.91311 46.9738 6.43373 48.1313C5.95436 49.2887 5.82897 50.5623 6.07342 51.791C6.31788 53.0198 6.9212 54.1484 7.80709 55.0342C8.69298 55.92 9.82165 56.5233 11.0504 56.7676C12.2791 57.012 13.5527 56.8865 14.7101 56.407C15.8675 55.9276 16.8568 55.1157 17.5527 54.074C18.2487 53.0323 18.6202 51.8076 18.6201 50.5548C18.6183 48.8754 17.9503 47.2654 16.7627 46.0779C15.5752 44.8904 13.965 44.2226 12.2856 44.2208Z" fill="#204ECF"/>
<path d="M36.9946 57.8893C35.5441 57.8892 34.1261 57.4591 32.92 56.6532C31.714 55.8472 30.774 54.7018 30.2189 53.3616C29.6638 52.0215 29.5186 50.5468 29.8016 49.1242C30.0846 47.7015 30.7831 46.3947 31.8088 45.369C32.8345 44.3433 34.1413 43.6448 35.564 43.3618C36.9867 43.0788 38.4613 43.224 39.8014 43.7791C41.1416 44.3341 42.287 45.2742 43.093 46.4802C43.8989 47.6863 44.3291 49.1043 44.3291 50.5548C44.327 52.4994 43.5536 54.3637 42.1786 55.7387C40.8035 57.1138 38.9392 57.8872 36.9946 57.8893V57.8893ZM36.9946 44.2208C35.7418 44.2209 34.5172 44.5924 33.4756 45.2885C32.4339 45.9845 31.6221 46.9738 31.1427 48.1313C30.6633 49.2887 30.538 50.5623 30.7824 51.791C31.0269 53.0197 31.6302 54.1484 32.5161 55.0342C33.402 55.92 34.5306 56.5233 35.7594 56.7676C36.9881 57.012 38.2617 56.8865 39.4191 56.407C40.5765 55.9276 41.5658 55.1157 42.2617 54.074C42.9577 53.0323 43.3292 51.8076 43.3291 50.5548C43.3273 48.8754 42.6593 47.2654 41.4717 46.0779C40.2842 44.8904 38.674 44.2226 36.9946 44.2208Z" fill="#204ECF"/>
<path d="M49.0483 52.8209L48.5151 51.9752C50.8094 50.5336 52.688 48.5184 53.9653 46.1288C55.2426 43.7391 55.8745 41.0576 55.7985 38.349C55.7226 35.6405 54.9414 32.9986 53.5321 30.6843C52.1229 28.3699 50.1343 26.4632 47.7628 25.1525C45.3914 23.8417 42.719 23.1722 40.0096 23.2101C37.3003 23.248 34.6477 23.992 32.3138 25.3686C29.9799 26.7452 28.0454 28.7068 26.7015 31.0596C25.3575 33.4125 24.6506 36.0752 24.6504 38.7848H23.6504C23.6508 35.9016 24.4033 33.0683 25.8334 30.5648C27.2636 28.0614 29.3221 25.9742 31.8055 24.5095C34.2889 23.0447 37.1115 22.2531 39.9944 22.2127C42.8773 22.1723 45.7209 22.8846 48.2444 24.2792C50.7679 25.6738 52.884 27.7025 54.3837 30.1649C55.8835 32.6274 56.715 35.4384 56.7962 38.3205C56.8773 41.2025 56.2054 44.0559 54.8466 46.5989C53.4879 49.1419 51.4894 51.2865 49.0484 52.8209H49.0483Z" fill="#204ECF"/>
<path d="M49.2803 61.961H0V38.2736H45.9707L4.898 23.1779L5.24273 22.2394L49.2803 38.4244V61.961ZM1 60.961H48.2803V39.2736H1V60.961Z" fill="#204ECF"/>
</svg>
