<svg width="64" height="64" viewBox="0 0 64 64" fill="none" xmlns="http://www.w3.org/2000/svg">
<g clip-path="url(#clip0_10_1364)">
<path opacity="0.3" d="M48.7808 38.7735V45.2563C49.808 43.8989 50.4976 42.3166 50.7926 40.64C51.0877 38.9635 50.9797 37.2409 50.4776 35.6143C49.9755 33.9878 49.0937 32.504 47.9051 31.2854C46.7164 30.0669 45.2549 29.1486 43.6413 28.6063C42.0277 28.0641 40.3082 27.9134 38.6249 28.1668C36.9416 28.4202 35.3427 29.0703 33.9602 30.0636C32.5778 31.0568 31.4514 32.3647 30.6741 33.8791C29.8968 35.3936 29.4909 37.0712 29.4899 38.7735H48.7808Z" fill="#231F20"/>
<path opacity="0.3" d="M12.286 57.3893C16.0605 57.3893 19.1203 54.3295 19.1203 50.555C19.1203 46.7805 16.0605 43.7207 12.286 43.7207C8.51154 43.7207 5.45172 46.7805 5.45172 50.555C5.45172 54.3295 8.51154 57.3893 12.286 57.3893Z" fill="#231F20"/>
<path opacity="0.3" d="M36.9949 57.3893C40.7694 57.3893 43.8292 54.3295 43.8292 50.555C43.8292 46.7805 40.7694 43.7207 36.9949 43.7207C33.2205 43.7207 30.1606 46.7805 30.1606 50.555C30.1606 54.3295 33.2205 57.3893 36.9949 57.3893Z" fill="#231F20"/>
<path d="M64.0002 61.9609H48.7802V60.9609H63.0002V3.03894H17.4532V38.7739H16.4532V2.03894H64.0002V61.9609Z" fill="white"/>
<path d="M63.5003 15.5861H16.9534V16.5861H63.5003V15.5861Z" fill="white"/>
<path d="M12.2859 57.8893C10.8353 57.8892 9.41737 57.4591 8.2113 56.6531C7.00523 55.8472 6.06522 54.7018 5.51014 53.3616C4.95507 52.0215 4.80984 50.5468 5.09284 49.1242C5.37585 47.7015 6.07436 46.3947 7.10005 45.369C8.12575 44.3433 9.43256 43.6448 10.8552 43.3618C12.2779 43.0788 13.7526 43.224 15.0927 43.7791C16.4329 44.3341 17.5783 45.2742 18.3842 46.4802C19.1901 47.6863 19.6203 49.1043 19.6204 50.5548C19.6183 52.4994 18.8448 54.3637 17.4698 55.7387C16.0948 57.1138 14.2305 57.8872 12.2859 57.8893ZM12.2859 44.2208C11.0331 44.2209 9.80845 44.5924 8.76682 45.2885C7.72519 45.9845 6.91336 46.9738 6.43398 48.1313C5.9546 49.2887 5.82921 50.5623 6.07367 51.791C6.31812 53.0198 6.92144 54.1484 7.80733 55.0342C8.69322 55.92 9.82189 56.5233 11.0506 56.7676C12.2794 57.012 13.5529 56.8865 14.7104 56.407C15.8678 55.9276 16.857 55.1157 17.553 54.074C18.249 53.0323 18.6204 51.8076 18.6204 50.5548C18.6185 48.8754 17.9505 47.2654 16.763 46.0779C15.5754 44.8904 13.9653 44.2226 12.2859 44.2208Z" fill="white"/>
<path d="M36.9949 57.8893C35.5443 57.8892 34.1264 57.4591 32.9203 56.6532C31.7142 55.8472 30.7742 54.7018 30.2191 53.3616C29.6641 52.0215 29.5188 50.5468 29.8018 49.1242C30.0848 47.7015 30.7833 46.3947 31.809 45.369C32.8347 44.3433 34.1415 43.6448 35.5642 43.3618C36.9869 43.0788 38.4615 43.224 39.8017 43.7791C41.1418 44.3341 42.2873 45.2742 43.0932 46.4802C43.8991 47.6863 44.3293 49.1043 44.3294 50.5548C44.3272 52.4994 43.5538 54.3637 42.1788 55.7387C40.8038 57.1138 38.9395 57.8872 36.9949 57.8893V57.8893ZM36.9949 44.2208C35.7421 44.2209 34.5174 44.5924 33.4758 45.2885C32.4342 45.9845 31.6223 46.9738 31.143 48.1313C30.6636 49.2887 30.5382 50.5623 30.7826 51.791C31.0271 53.0197 31.6304 54.1484 32.5163 55.0342C33.4022 55.92 34.5309 56.5233 35.7596 56.7676C36.9883 57.012 38.2619 56.8865 39.4193 56.407C40.5768 55.9276 41.566 55.1157 42.262 54.074C42.9579 53.0323 43.3294 51.8076 43.3294 50.5548C43.3275 48.8754 42.6595 47.2654 41.472 46.0779C40.2844 44.8904 38.6743 44.2226 36.9949 44.2208Z" fill="white"/>
<path d="M49.0486 52.8209L48.5154 51.9752C50.8097 50.5336 52.6882 48.5184 53.9656 46.1288C55.2429 43.7391 55.8747 41.0576 55.7988 38.349C55.7228 35.6405 54.9416 32.9986 53.5324 30.6843C52.1231 28.3699 50.1346 26.4632 47.7631 25.1525C45.3916 23.8417 42.7192 23.1722 40.0099 23.2101C37.3005 23.248 34.6479 23.992 32.314 25.3686C29.9801 26.7452 28.0457 28.7068 26.7017 31.0596C25.3578 33.4125 24.6508 36.0752 24.6506 38.7848H23.6506C23.6511 35.9016 24.4035 33.0683 25.8337 30.5648C27.2639 28.0614 29.3223 25.9742 31.8057 24.5095C34.2892 23.0447 37.1117 22.2531 39.9946 22.2127C42.8776 22.1723 45.7212 22.8846 48.2446 24.2792C50.7681 25.6738 52.8842 27.7025 54.384 30.1649C55.8837 32.6274 56.7152 35.4384 56.7964 38.3205C56.8776 41.2025 56.2056 44.0559 54.8469 46.5989C53.4881 49.1419 51.4896 51.2865 49.0486 52.8209H49.0486Z" fill="white"/>
<path d="M49.2805 61.961H0.000244141V38.2736H45.9709L4.89824 23.1779L5.24297 22.2394L49.2805 38.4244V61.961ZM1.00024 60.961H48.2805V39.2736H1.00024V60.961Z" fill="white"/>
</g>
<defs>
<clipPath id="clip0_10_1364">
<rect width="64.0001" height="64" fill="white" transform="translate(0.000244141)"/>
</clipPath>
</defs>
</svg>
