<svg width="64" height="64" viewBox="0 0 64 64" fill="none" xmlns="http://www.w3.org/2000/svg">
<g clip-path="url(#clip0_10_1268)">
<path opacity="0.15" d="M18.523 36.0581V57.425H57.4254V34.0161H51.5517V36.0581L18.523 36.0581ZM46.9894 56.3387H20.9415L33.9655 43.3147L41.9587 51.3079L45.967 47.2995L55.0062 56.3387H46.9894Z" fill="#183A9E"/>
<path d="M56.2139 56.8384H19.7344L33.9658 42.6074L41.959 50.6006L45.9678 46.5923L56.2139 56.8384ZM22.1484 55.8384H53.7998L45.9678 48.0064L41.959 52.0147L33.9658 44.0215L22.1484 55.8384Z" fill="#204ECF"/>
<path d="M64 64H11.948V36.058H12.948V63H63V28.442H51.552V27.442H64V64Z" fill="#204ECF"/>
<path d="M52.0518 36.5581H0V0H52.0518V36.5581ZM1 35.5581H51.0518V1H1V35.5581Z" fill="#204ECF"/>
<path d="M40.4434 10.0605H8.28613V11.0605H40.4434V10.0605Z" fill="#204ECF"/>
<path d="M40.4434 17.7793H8.28613V18.7793H40.4434V17.7793Z" fill="#204ECF"/>
<path d="M20.4717 25.4976H8.28613V26.4976H20.4717V25.4976Z" fill="#204ECF"/>
</g>
<defs>
<clipPath id="clip0_10_1268">
<rect width="64.0002" height="64.0001" fill="white"/>
</clipPath>
</defs>
</svg>
