<svg width="64" height="64" viewBox="0 0 64 64" fill="none" xmlns="http://www.w3.org/2000/svg">
<g clip-path="url(#clip0_8_1165)">
<path opacity="0.3" d="M28.3571 28.2778H13.8221V39.1119H28.3571V28.2778Z" fill="#231F20"/>
<path opacity="0.3" d="M50.457 28.2778H35.9221V39.1119H50.457V28.2778Z" fill="#231F20"/>
<path d="M63.3818 62.7632H0.618164V63.7632H63.3818V62.7632Z" fill="white"/>
<path d="M60.5181 63.2632H59.5181V47.7622C59.5172 47.0034 59.2153 46.2758 58.6787 45.7393C58.1421 45.2027 57.4146 44.9008 56.6558 44.8999H7.34277C6.58392 44.9008 5.85641 45.2027 5.31982 45.7393C4.78323 46.2759 4.48138 47.0034 4.48047 47.7622V63.2632H3.48047V47.7622C3.48156 46.7382 3.88883 45.7564 4.61291 45.0323C5.337 44.3083 6.31876 43.901 7.34277 43.8999H56.6558C57.6798 43.901 58.6615 44.3083 59.3856 45.0323C60.1097 45.7564 60.517 46.7382 60.5181 47.7622L60.5181 63.2632Z" fill="white"/>
<path d="M50.957 39.6118H35.4219V27.7778H50.957V39.6118ZM36.4218 38.6118H49.957V28.7778H36.4219L36.4218 38.6118Z" fill="white"/>
<path d="M43.6895 39.1118H42.6895V44.3999H43.6895V39.1118Z" fill="white"/>
<path d="M50.2759 50.3359H49.2759V58.0894H50.2759V50.3359Z" fill="white"/>
<path d="M44.0649 52.9507H43.0649V51.6435C43.0655 51.1643 43.2562 50.7049 43.595 50.366C43.9339 50.0272 44.3933 49.8365 44.8726 49.8359H53.1846C53.6463 49.8354 54.0891 49.6518 54.4156 49.3253C54.7421 48.9987 54.9258 48.556 54.9263 48.0942V34.7769H55.9263V48.0942C55.9254 48.8211 55.6363 49.518 55.1223 50.032C54.6083 50.546 53.9114 50.8351 53.1846 50.8359H44.8726C44.6584 50.8362 44.4532 50.9213 44.3018 51.0727C44.1504 51.2241 44.0652 51.4294 44.0649 51.6435V52.9507Z" fill="white"/>
<path d="M55.6865 63.5H54.6865C54.6847 62.1988 54.1665 60.9516 53.2458 60.0322C52.325 59.1128 51.0771 58.5964 49.7759 58.5964C48.4747 58.5964 47.2267 59.1128 46.306 60.0322C45.3853 60.9516 44.8671 62.1988 44.8652 63.5H43.8652C43.8673 61.9337 44.4909 60.4323 45.5991 59.3255C46.7074 58.2187 48.2096 57.597 49.7759 57.597C51.3421 57.597 52.8444 58.2187 53.9526 59.3255C55.0609 60.4323 55.6845 61.9337 55.6865 63.5V63.5Z" fill="white"/>
<path d="M28.8569 39.6118H13.3223V27.7778H28.8569V39.6118ZM14.3223 38.6118H27.8569V28.7778H14.3223V38.6118Z" fill="white"/>
<path d="M21.5894 39.1118H20.5894V44.3999H21.5894V39.1118Z" fill="white"/>
<path d="M14.7231 50.3359H13.7231V58.0894H14.7231V50.3359Z" fill="white"/>
<path d="M20.9341 52.9507H19.9341V51.6435C19.9339 51.4294 19.8487 51.2241 19.6973 51.0727C19.5459 50.9213 19.3406 50.8362 19.1265 50.8359H10.814C10.0872 50.8351 9.39038 50.5459 8.87648 50.0319C8.36257 49.5179 8.07355 48.8211 8.07281 48.0942V34.7769H9.07281V48.0942C9.07328 48.5559 9.25687 48.9986 9.58329 49.3251C9.90972 49.6516 10.3523 49.8353 10.814 49.8359H19.1265C19.6058 49.8365 20.0652 50.0272 20.4041 50.366C20.7429 50.7049 20.9336 51.1643 20.9341 51.6435L20.9341 52.9507Z" fill="white"/>
<path d="M20.1338 63.5H19.1338C19.1319 62.1988 18.6137 60.9516 17.693 60.0322C16.7723 59.1128 15.5243 58.5964 14.2231 58.5964C12.922 58.5964 11.674 59.1128 10.7533 60.0322C9.83255 60.9516 9.31436 62.1988 9.3125 63.5H8.3125C8.31454 61.9337 8.93816 60.4323 10.0464 59.3255C11.1546 58.2187 12.6569 57.597 14.2231 57.597C15.7894 57.597 17.2916 58.2187 18.3999 59.3255C19.5081 60.4323 20.1318 61.9337 20.1338 63.5V63.5Z" fill="white"/>
<path d="M19.5146 19.396H5.52881V18.896C5.52881 17.0414 6.26556 15.2627 7.57699 13.9513C8.88841 12.6398 10.6671 11.9031 12.5217 11.9031C14.3764 11.9031 16.155 12.6398 17.4665 13.9513C18.7779 15.2627 19.5146 17.0414 19.5146 18.896V19.396ZM6.54932 18.396H18.4941C18.3686 16.8984 17.685 15.5026 16.5788 14.4853C15.4726 13.4679 14.0246 12.9033 12.5217 12.9033C11.0189 12.9033 9.57085 13.4679 8.46466 14.4853C7.35848 15.5026 6.67487 16.8984 6.54932 18.396V18.396Z" fill="white"/>
<path d="M38.9746 19.4302L24.9893 19.3623L24.9917 18.8623C25.003 17.0143 25.7445 15.2456 27.0545 13.942C28.3645 12.6384 30.1368 11.9056 31.9849 11.9033H32.0185C32.9368 11.9078 33.8453 12.0931 34.6919 12.4487C35.5386 12.8042 36.307 13.3231 36.9531 13.9756C37.5993 14.6281 38.1106 15.4015 38.4578 16.2516C38.8051 17.1017 38.9815 18.0119 38.977 18.9302L38.9746 19.4302ZM26.0146 18.3672L37.9589 18.4253C37.8408 16.9271 37.1641 15.5279 36.0629 14.5051C34.9617 13.4824 33.5165 12.9106 32.0136 12.9033H31.9848C30.4875 12.9052 29.0449 13.4667 27.9403 14.4776C26.8357 15.4886 26.1489 16.8759 26.0146 18.3672L26.0146 18.3672Z" fill="white"/>
<path d="M58.4683 19.4302L44.4829 19.3623L44.4854 18.8623C44.4967 17.0143 45.2382 15.2456 46.5482 13.942C47.8582 12.6384 49.6304 11.9056 51.4785 11.9033H51.5122C52.4305 11.9078 53.3389 12.0931 54.1856 12.4487C55.0323 12.8042 55.8006 13.3231 56.4468 13.9756C57.0929 14.6281 57.6042 15.4015 57.9515 16.2516C58.2988 17.1017 58.4752 18.0119 58.4707 18.9302L58.4683 19.4302ZM45.5083 18.3672L57.4526 18.4253C57.3345 16.9271 56.6577 15.5279 55.5566 14.5051C54.4554 13.4824 53.0101 12.9106 51.5073 12.9033H51.4785C49.9811 12.9052 48.5385 13.4667 47.4339 14.4776C46.3293 15.4886 45.6425 16.8759 45.5083 18.3672L45.5083 18.3672Z" fill="white"/>
<path d="M13.0215 0.5H12.0215V12.4033H13.0215V0.5Z" fill="white"/>
<path d="M32.4995 0.5H31.4995V12.4033H32.4995V0.5Z" fill="white"/>
<path d="M51.9775 0.5H50.9775V12.4033H51.9775V0.5Z" fill="white"/>
</g>
<defs>
<clipPath id="clip0_8_1165">
<rect width="64" height="64" fill="white"/>
</clipPath>
</defs>
</svg>
