<svg width="64" height="64" viewBox="0 0 64 64" fill="none" xmlns="http://www.w3.org/2000/svg">
<g clip-path="url(#clip0_8_1037)">
<path opacity="0.15" d="M28.3568 28.2778H13.8218V39.1119H28.3568V28.2778Z" fill="#183A9E"/>
<path opacity="0.15" d="M50.4568 28.2778H35.9218V39.1119H50.4568V28.2778Z" fill="#183A9E"/>
<path d="M63.3816 62.7632H0.61792V63.7632H63.3816V62.7632Z" fill="#204ECF"/>
<path d="M60.5178 63.2632H59.5178V47.7622C59.5169 47.0034 59.2151 46.2758 58.6785 45.7393C58.1419 45.2027 57.4144 44.9008 56.6555 44.8999H7.34252C6.58367 44.9008 5.85617 45.2027 5.31958 45.7393C4.78299 46.2759 4.48114 47.0034 4.48022 47.7622V63.2632H3.48022V47.7622C3.48131 46.7382 3.88858 45.7564 4.61267 45.0323C5.33675 44.3083 6.31851 43.901 7.34252 43.8999H56.6555C57.6795 43.901 58.6613 44.3083 59.3854 45.0323C60.1095 45.7564 60.5167 46.7382 60.5178 47.7622L60.5178 63.2632Z" fill="#204ECF"/>
<path d="M50.9568 39.6118H35.4216V27.7778H50.9568V39.6118ZM36.4216 38.6118H49.9568V28.7778H36.4216L36.4216 38.6118Z" fill="#204ECF"/>
<path d="M43.6892 39.1118H42.6892V44.3999H43.6892V39.1118Z" fill="#204ECF"/>
<path d="M50.2756 50.3359H49.2756V58.0894H50.2756V50.3359Z" fill="#204ECF"/>
<path d="M44.0647 52.9507H43.0647V51.6435C43.0653 51.1643 43.2559 50.7049 43.5948 50.366C43.9337 50.0272 44.3931 49.8365 44.8723 49.8359H53.1843C53.6461 49.8354 54.0888 49.6518 54.4153 49.3253C54.7419 48.9987 54.9255 48.556 54.926 48.0942V34.7769H55.926V48.0942C55.9252 48.8211 55.636 49.518 55.1221 50.032C54.6081 50.546 53.9112 50.8351 53.1843 50.8359H44.8723C44.6582 50.8362 44.4529 50.9213 44.3015 51.0727C44.1501 51.2241 44.0649 51.4294 44.0647 51.6435V52.9507Z" fill="#204ECF"/>
<path d="M55.6863 63.5H54.6863C54.6844 62.1988 54.1662 60.9516 53.2455 60.0322C52.3248 59.1128 51.0768 58.5964 49.7756 58.5964C48.4745 58.5964 47.2265 59.1128 46.3058 60.0322C45.385 60.9516 44.8668 62.1988 44.865 63.5H43.865C43.867 61.9337 44.4907 60.4323 45.5989 59.3255C46.7071 58.2187 48.2094 57.597 49.7756 57.597C51.3419 57.597 52.8441 58.2187 53.9524 59.3255C55.0606 60.4323 55.6842 61.9337 55.6863 63.5V63.5Z" fill="#204ECF"/>
<path d="M28.8567 39.6118H13.322V27.7778H28.8567V39.6118ZM14.322 38.6118H27.8567V28.7778H14.322V38.6118Z" fill="#204ECF"/>
<path d="M21.5891 39.1118H20.5891V44.3999H21.5891V39.1118Z" fill="#204ECF"/>
<path d="M14.7229 50.3359H13.7229V58.0894H14.7229V50.3359Z" fill="#204ECF"/>
<path d="M20.9339 52.9507H19.9339V51.6435C19.9336 51.4294 19.8484 51.2241 19.697 51.0727C19.5456 50.9213 19.3404 50.8362 19.1262 50.8359H10.8138C10.0869 50.8351 9.39014 50.5459 8.87623 50.0319C8.36233 49.5179 8.0733 48.8211 8.07257 48.0942V34.7769H9.07257V48.0942C9.07304 48.5559 9.25662 48.9986 9.58305 49.3251C9.90947 49.6516 10.3521 49.8353 10.8138 49.8359H19.1263C19.6055 49.8365 20.0649 50.0272 20.4038 50.366C20.7427 50.7049 20.9333 51.1643 20.9339 51.6435L20.9339 52.9507Z" fill="#204ECF"/>
<path d="M20.1335 63.5H19.1335C19.1317 62.1988 18.6135 60.9516 17.6928 60.0322C16.7721 59.1128 15.5241 58.5964 14.2229 58.5964C12.9217 58.5964 11.6737 59.1128 10.753 60.0322C9.8323 60.9516 9.31411 62.1988 9.31226 63.5H8.31226C8.31429 61.9337 8.93792 60.4323 10.0462 59.3255C11.1544 58.2187 12.6566 57.597 14.2229 57.597C15.7892 57.597 17.2914 58.2187 18.3996 59.3255C19.5079 60.4323 20.1315 61.9337 20.1335 63.5V63.5Z" fill="#204ECF"/>
<path d="M19.5144 19.396H5.52856V18.896C5.52856 17.0414 6.26532 15.2627 7.57674 13.9513C8.88817 12.6398 10.6668 11.9031 12.5215 11.9031C14.3761 11.9031 16.1548 12.6398 17.4662 13.9513C18.7777 15.2627 19.5144 17.0414 19.5144 18.896V19.396ZM6.54907 18.396H18.4939C18.3683 16.8984 17.6847 15.5026 16.5786 14.4853C15.4724 13.4679 14.0243 12.9033 12.5215 12.9033C11.0186 12.9033 9.5706 13.4679 8.46442 14.4853C7.35823 15.5026 6.67462 16.8984 6.54907 18.396V18.396Z" fill="#204ECF"/>
<path d="M38.9744 19.4302L24.989 19.3623L24.9915 18.8623C25.0028 17.0143 25.7443 15.2456 27.0543 13.942C28.3643 12.6384 30.1365 11.9056 31.9846 11.9033H32.0183C32.9366 11.9078 33.845 12.0931 34.6917 12.4487C35.5384 12.8042 36.3067 13.3231 36.9529 13.9756C37.599 14.6281 38.1103 15.4015 38.4576 16.2516C38.8049 17.1017 38.9813 18.0119 38.9768 18.9302L38.9744 19.4302ZM26.0144 18.3672L37.9587 18.4253C37.8406 16.9271 37.1638 15.5279 36.0627 14.5051C34.9615 13.4824 33.5162 12.9106 32.0134 12.9033H31.9846C30.4872 12.9052 29.0446 13.4667 27.94 14.4776C26.8354 15.4886 26.1486 16.8759 26.0144 18.3672L26.0144 18.3672Z" fill="#204ECF"/>
<path d="M58.468 19.4302L44.4827 19.3623L44.4851 18.8623C44.4964 17.0143 45.2379 15.2456 46.5479 13.942C47.8579 12.6384 49.6302 11.9056 51.4783 11.9033H51.512C52.4303 11.9078 53.3387 12.0931 54.1854 12.4487C55.032 12.8042 55.8004 13.3231 56.4465 13.9756C57.0927 14.6281 57.604 15.4015 57.9513 16.2516C58.2985 17.1017 58.4749 18.0119 58.4705 18.9302L58.468 19.4302ZM45.508 18.3672L57.4524 18.4253C57.3342 16.9271 56.6575 15.5279 55.5563 14.5051C54.4552 13.4824 53.0099 12.9106 51.507 12.9033H51.4782C49.9809 12.9052 48.5383 13.4667 47.4337 14.4776C46.3291 15.4886 45.6423 16.8759 45.5081 18.3672L45.508 18.3672Z" fill="#204ECF"/>
<path d="M13.0212 0.5H12.0212V12.4033H13.0212V0.5Z" fill="#204ECF"/>
<path d="M32.4993 0.5H31.4993V12.4033H32.4993V0.5Z" fill="#204ECF"/>
<path d="M51.9773 0.5H50.9773V12.4033H51.9773V0.5Z" fill="#204ECF"/>
</g>
<defs>
<clipPath id="clip0_8_1037">
<rect width="64" height="64" fill="white" transform="translate(-0.000244141)"/>
</clipPath>
</defs>
</svg>
