<svg width="64" height="64" viewBox="0 0 64 64" fill="none" xmlns="http://www.w3.org/2000/svg">
<g clip-path="url(#clip0_10_1292)">
<path opacity="0.15" fill-rule="evenodd" clip-rule="evenodd" d="M20.5136 28.0619V45.0157H43.486V28.0619H20.5136Z" fill="#183A9E"/>
<path d="M43.9847 45.5186H20.015V27.5591H43.9847V45.5186ZM21.015 44.5186H42.9847V28.5591H21.015L21.015 44.5186Z" fill="#204ECF"/>
<path d="M40.888 28.0591H39.888V23.7818C39.8892 22.7451 39.686 21.7184 39.2901 20.7604C38.8942 19.8023 38.3134 18.9317 37.5808 18.1982C36.8482 17.4648 35.9782 16.883 35.0206 16.486C34.0629 16.089 33.0365 15.8847 31.9998 15.8847C30.9632 15.8847 29.9367 16.089 28.9791 16.486C28.0215 16.883 27.1515 17.4648 26.4189 18.1982C25.6863 18.9317 25.1054 19.8023 24.7095 20.7604C24.3136 21.7184 24.1105 22.7451 24.1116 23.7818V28.0591H23.1116V23.7818C23.1104 22.6138 23.3394 21.457 23.7855 20.3775C24.2316 19.2981 24.8861 18.3171 25.7116 17.4908C26.5371 16.6644 27.5173 16.0089 28.5963 15.5616C29.6753 15.1144 30.8318 14.8842 31.9998 14.8842C33.1678 14.8842 34.3244 15.1144 35.4034 15.5616C36.4823 16.0089 37.4626 16.6644 38.2881 17.4908C39.1135 18.3171 39.768 19.2981 40.2141 20.3775C40.6603 21.457 40.8892 22.6138 40.888 23.7818V28.0591Z" fill="#204ECF"/>
<path d="M54.2772 14.5718C53.6411 14.5718 53.0112 14.4466 52.4235 14.2032C51.8358 13.9598 51.3018 13.603 50.852 13.1532C50.4022 12.7035 50.0454 12.1695 49.802 11.5819C49.5585 10.9942 49.4332 10.3644 49.4332 9.72827C49.4331 9.09218 49.5584 8.46231 49.8018 7.87463C50.0452 7.28695 50.4019 6.75296 50.8517 6.30315C51.3015 5.85335 51.8354 5.49653 52.4231 5.25308C53.0107 5.00963 53.6406 4.88431 54.2767 4.88428H54.2777C55.2358 4.88461 56.1724 5.16902 56.969 5.70154C57.7655 6.23407 58.3863 6.9908 58.7529 7.87609C59.1194 8.76137 59.2153 9.73546 59.0283 10.6752C58.8413 11.615 58.38 12.4782 57.7025 13.1558V13.1558C57.2529 13.6057 56.7189 13.9625 56.1311 14.2055C55.5433 14.4485 54.9132 14.573 54.2772 14.5718V14.5718ZM54.2767 5.88428C53.6445 5.88437 53.022 6.04037 52.4644 6.33846C51.9069 6.63656 51.4314 7.06755 51.0802 7.59327C50.7289 8.11899 50.5128 8.7232 50.4508 9.35241C50.3888 9.98162 50.483 10.6164 50.7249 11.2005C50.9668 11.7847 51.3491 12.3001 51.8378 12.7013C52.3265 13.1024 52.9065 13.3769 53.5266 13.5003C54.1467 13.6237 54.7877 13.5923 55.3927 13.4089C55.9978 13.2255 56.5483 12.8957 56.9955 12.4487V12.4487C57.5331 11.911 57.8993 11.2259 58.0477 10.4802C58.1961 9.73437 58.12 8.96133 57.8292 8.25875C57.5383 7.55617 57.0456 6.95561 56.4135 6.53296C55.7814 6.11032 55.0381 5.88458 54.2777 5.88428H54.2767Z" fill="#204ECF"/>
<path d="M9.72297 59.1158H9.72197C8.60095 59.1157 7.51464 58.7269 6.64813 58.0157C5.78161 57.3045 5.18851 56.3148 4.96988 55.2153C4.75125 54.1159 4.92062 52.9746 5.44913 51.986C5.97764 50.9973 6.83258 50.2226 7.8683 49.7936C8.90401 49.3647 10.0564 49.3082 11.1291 49.6337C12.2018 49.9592 13.1285 50.6465 13.7513 51.5787C14.374 52.5108 14.6543 53.63 14.5443 54.7456C14.4344 55.8612 13.941 56.9042 13.1482 57.6968L12.7947 57.3433L13.1482 57.6968C12.6995 58.1481 12.1657 58.5058 11.5777 58.7494C10.9898 58.9929 10.3594 59.1175 9.72297 59.1158V59.1158ZM9.72248 50.4278C8.70298 50.4277 7.72522 50.8326 7.00429 51.5535C6.28335 52.2743 5.8783 53.252 5.87823 54.2715C5.87817 55.291 6.2831 56.2688 7.00394 56.9897C7.72478 57.7107 8.7025 58.1157 9.72199 58.1158H9.72299C10.2278 58.1157 10.7276 58.0163 11.194 57.8231C11.6604 57.6299 12.0841 57.3467 12.441 56.9897C12.798 56.6327 13.0811 56.209 13.2742 55.7426C13.4674 55.2762 13.5668 54.7763 13.5667 54.2715C13.5667 53.7667 13.4672 53.2669 13.274 52.8005C13.0808 52.3341 12.7977 51.9104 12.4407 51.5535C12.0837 51.1966 11.6599 50.9134 11.1936 50.7203C10.7272 50.5271 10.2273 50.4277 9.7225 50.4278H9.72248Z" fill="#204ECF"/>
<path d="M54.2703 59.1196C53.634 59.1208 53.0038 58.9962 52.4158 58.753C51.8278 58.5098 51.2937 58.1529 50.8441 57.7026C50.1667 57.0249 49.7054 56.1616 49.5187 55.2218C49.3319 54.282 49.428 53.3079 49.7947 52.4227C50.1615 51.5375 50.7825 50.7809 51.5792 50.2486C52.376 49.7163 53.3126 49.4322 54.2708 49.4321H54.2713C55.5559 49.4323 56.7879 49.9427 57.6962 50.8512C58.6045 51.7597 59.1147 52.9917 59.1146 54.2764C59.1144 55.561 58.604 56.793 57.6955 57.7013C56.787 58.6096 55.5549 59.1198 54.2703 59.1196L54.2703 59.1196ZM51.5511 56.9956C51.9981 57.4428 52.5486 57.7729 53.1536 57.9565C53.7587 58.1402 54.3997 58.1718 55.0199 58.0486C55.6401 57.9253 56.2203 57.651 56.7091 57.25C57.198 56.8489 57.5804 56.3335 57.8225 55.7494C58.0646 55.1652 58.1589 54.5304 58.0971 53.9011C58.0352 53.2719 57.8191 52.6675 57.4679 52.1417C57.1168 51.6159 56.6413 51.1848 56.0837 50.8866C55.5261 50.5884 54.9036 50.4323 54.2713 50.4322H54.2708C53.5104 50.4322 52.767 50.6576 52.1347 51.08C51.5024 51.5025 51.0096 52.1029 50.7185 52.8054C50.4274 53.5079 50.3511 54.2809 50.4993 55.0268C50.6475 55.7726 51.0135 56.4578 51.5511 56.9956V56.9956Z" fill="#204ECF"/>
<path d="M9.72883 14.5679H9.72834C8.44325 14.5678 7.21081 14.0573 6.30215 13.1485C5.39349 12.2398 4.88302 11.0073 4.88306 9.72224C4.88309 8.43715 5.39361 7.2047 6.30232 6.29601C7.21103 5.38732 8.44349 4.87683 9.72859 4.87683C11.0137 4.87683 12.2461 5.38732 13.1549 6.29601C14.0636 7.2047 14.5741 8.43715 14.5741 9.72224C14.5741 11.0073 14.0637 12.2398 13.155 13.1485C12.2464 14.0573 11.0139 14.5678 9.72883 14.5679V14.5679ZM9.72932 5.87989C9.22452 5.87983 8.72465 5.97919 8.25825 6.17231C7.79185 6.36542 7.36805 6.64852 7.01106 7.00542C6.65406 7.36232 6.37086 7.78604 6.17762 8.25239C5.98438 8.71874 5.88489 9.21859 5.88482 9.72339C5.88476 10.2282 5.98412 10.7281 6.17724 11.1945C6.37036 11.6609 6.65345 12.0847 7.01035 12.4417C7.36725 12.7987 7.79097 13.0819 8.25732 13.2751C8.72368 13.4683 9.22352 13.5678 9.72832 13.5679H9.72883C10.7483 13.568 11.7261 13.163 12.447 12.4422C13.168 11.7213 13.573 10.7436 13.5731 9.72414C13.5731 8.70464 13.1682 7.72688 12.4474 7.00595C11.7265 6.28501 10.7488 5.87996 9.72932 5.87989V5.87989Z" fill="#204ECF"/>
<path d="M57.5233 51.3042L56.7264 50.7007C60.8158 45.3259 63.0206 38.7536 62.9999 32C62.9995 26.9704 61.7778 22.0161 59.4398 17.563L60.3245 17.0962C62.7379 21.6934 63.9992 26.8078 63.9999 32C64.0211 38.9716 61.7449 45.756 57.5233 51.3042V51.3042Z" fill="#204ECF"/>
<path d="M31.9998 64C25.0284 64.0217 18.244 61.7457 12.6961 57.5239L13.2996 56.7271C18.6743 60.8162 25.2465 63.0208 31.9998 63C37.1044 62.9998 42.1302 61.7415 46.6326 59.3364L47.1053 60.2173C42.4576 62.7005 37.2693 63.9998 31.9998 64V64Z" fill="#204ECF"/>
<path d="M3.77817 47.0972C1.29769 42.4516 2.74215e-06 37.2664 -0.000151266 32C-0.0218634 25.0285 2.25418 18.2442 6.47592 12.6963L7.27279 13.2998C3.18364 18.6745 0.979027 25.2466 0.999849 32C0.999941 37.1014 2.25669 42.1242 4.65903 46.6245L3.77817 47.0972Z" fill="#204ECF"/>
<path d="M50.7152 7.2847C45.3379 3.18812 38.7598 0.979158 31.9999 1.00003C26.9224 1.0001 21.9224 2.24528 17.4379 4.62649L16.9672 3.74368C21.5967 1.28572 26.7583 0.000311089 31.9999 2.79584e-05C38.9781 -0.0214276 45.7687 2.25892 51.3197 6.48782L50.7152 7.2847Z" fill="#204ECF"/>
</g>
<defs>
<clipPath id="clip0_10_1292">
<rect width="64.0001" height="64.0001" fill="white" transform="translate(-0.000244141)"/>
</clipPath>
</defs>
</svg>
