<svg width="64" height="64" viewBox="0 0 64 64" fill="none" xmlns="http://www.w3.org/2000/svg">
<g clip-path="url(#clip0_10_1401)">
<path opacity="0.3" fill-rule="evenodd" clip-rule="evenodd" d="M20.5139 28.0619V45.0157H43.4863V28.0619H20.5139Z" fill="#231F20"/>
<path d="M43.985 45.5186H20.0152V27.5591H43.985V45.5186ZM21.0152 44.5186H42.985V28.5591H21.0152L21.0152 44.5186Z" fill="white"/>
<path d="M40.8883 28.0591H39.8883V23.7818C39.8894 22.7451 39.6862 21.7184 39.2904 20.7604C38.8945 19.8023 38.3136 18.9317 37.581 18.1982C36.8484 17.4648 35.9784 16.883 35.0208 16.486C34.0632 16.089 33.0367 15.8847 32.0001 15.8847C30.9634 15.8847 29.937 16.089 28.9793 16.486C28.0217 16.883 27.1517 17.4648 26.4191 18.1982C25.6865 18.9317 25.1057 19.8023 24.7098 20.7604C24.3139 21.7184 24.1107 22.7451 24.1119 23.7818V28.0591H23.1119V23.7818C23.1106 22.6138 23.3396 21.457 23.7857 20.3775C24.2319 19.2981 24.8864 18.3171 25.7118 17.4908C26.5373 16.6644 27.5175 16.0089 28.5965 15.5616C29.6755 15.1144 30.8321 14.8842 32.0001 14.8842C33.1681 14.8842 34.3246 15.1144 35.4036 15.5616C36.4826 16.0089 37.4628 16.6644 38.2883 17.4908C39.1138 18.3171 39.7683 19.2981 40.2144 20.3775C40.6605 21.457 40.8895 22.6138 40.8883 23.7818V28.0591Z" fill="white"/>
<path d="M54.2774 14.5718C53.6413 14.5718 53.0114 14.4466 52.4238 14.2032C51.8361 13.9598 51.3021 13.603 50.8523 13.1532C50.4025 12.7035 50.0457 12.1695 49.8022 11.5819C49.5588 10.9942 49.4334 10.3644 49.4334 9.72827C49.4334 9.09218 49.5586 8.46231 49.802 7.87463C50.0454 7.28695 50.4022 6.75296 50.8519 6.30315C51.3017 5.85335 51.8357 5.49653 52.4233 5.25308C53.011 5.00963 53.6408 4.88431 54.2769 4.88428H54.2779C55.2361 4.88461 56.1726 5.16902 56.9692 5.70154C57.7658 6.23407 58.3866 6.9908 58.7531 7.87609C59.1197 8.76137 59.2155 9.73546 59.0285 10.6752C58.8416 11.615 58.3802 12.4782 57.7027 13.1558V13.1558C57.2532 13.6057 56.7191 13.9625 56.1313 14.2055C55.5435 14.4485 54.9135 14.573 54.2774 14.5718V14.5718ZM54.277 5.88428C53.6447 5.88437 53.0222 6.04037 52.4647 6.33846C51.9071 6.63656 51.4316 7.06755 51.0804 7.59327C50.7292 8.11899 50.513 8.7232 50.451 9.35241C50.3891 9.98162 50.4832 10.6164 50.7251 11.2005C50.9671 11.7847 51.3493 12.3001 51.838 12.7013C52.3267 13.1024 52.9068 13.3769 53.5269 13.5003C54.147 13.6237 54.7879 13.5923 55.393 13.4089C55.998 13.2255 56.5485 12.8957 56.9957 12.4487V12.4487C57.5334 11.911 57.8995 11.2259 58.0479 10.4802C58.1963 9.73437 58.1203 8.96133 57.8294 8.25875C57.5385 7.55617 57.0459 6.95561 56.4137 6.53296C55.7816 6.11032 55.0384 5.88458 54.2779 5.88428H54.277Z" fill="white"/>
<path d="M9.72321 59.1158H9.72221C8.6012 59.1157 7.51488 58.7269 6.64837 58.0157C5.78186 57.3045 5.18876 56.3148 4.97013 55.2153C4.7515 54.1159 4.92086 52.9746 5.44937 51.986C5.97788 50.9973 6.83283 50.2226 7.86854 49.7936C8.90425 49.3647 10.0566 49.3082 11.1294 49.6337C12.2021 49.9592 13.1288 50.6465 13.7515 51.5787C14.3742 52.5108 14.6545 53.63 14.5446 54.7456C14.4346 55.8612 13.9412 56.9042 13.1485 57.6968L12.795 57.3433L13.1485 57.6968C12.6997 58.1481 12.1659 58.5058 11.578 58.7494C10.99 58.9929 10.3596 59.1175 9.72321 59.1158V59.1158ZM9.72272 50.4278C8.70323 50.4277 7.72547 50.8326 7.00453 51.5535C6.2836 52.2743 5.87854 53.252 5.87848 54.2715C5.87841 55.291 6.28334 56.2688 7.00418 56.9897C7.72503 57.7107 8.70274 58.1157 9.72223 58.1158H9.72323C10.228 58.1157 10.7279 58.0163 11.1942 57.8231C11.6606 57.6299 12.0844 57.3467 12.4413 56.9897C12.7982 56.6327 13.0813 56.209 13.2745 55.7426C13.4676 55.2762 13.567 54.7763 13.567 54.2715C13.567 53.7667 13.4675 53.2669 13.2743 52.8005C13.0811 52.3341 12.7979 51.9104 12.4409 51.5535C12.084 51.1966 11.6602 50.9134 11.1938 50.7203C10.7274 50.5271 10.2275 50.4277 9.72274 50.4278H9.72272Z" fill="white"/>
<path d="M54.2706 59.1196C53.6343 59.1208 53.004 58.9962 52.4161 58.753C51.8281 58.5098 51.2939 58.1529 50.8443 57.7026C50.1669 57.0249 49.7057 56.1616 49.5189 55.2218C49.3321 54.282 49.4282 53.3079 49.795 52.4227C50.1618 51.5375 50.7828 50.7809 51.5795 50.2486C52.3762 49.7163 53.3129 49.4322 54.2711 49.4321H54.2716C55.5562 49.4323 56.7882 49.9427 57.6965 50.8512C58.6047 51.7597 59.1149 52.9917 59.1148 54.2764C59.1147 55.561 58.6042 56.793 57.6957 57.7013C56.7873 58.6096 55.5552 59.1198 54.2706 59.1196L54.2706 59.1196ZM51.5513 56.9956C51.9984 57.4428 52.5488 57.7729 53.1539 57.9565C53.7589 58.1402 54.3999 58.1718 55.0201 58.0486C55.6403 57.9253 56.2205 57.651 56.7094 57.25C57.1983 56.8489 57.5807 56.3335 57.8228 55.7494C58.0649 55.1652 58.1591 54.5304 58.0973 53.9011C58.0355 53.2719 57.8194 52.6675 57.4682 52.1417C57.117 51.6159 56.6416 51.1848 56.084 50.8866C55.5264 50.5884 54.9039 50.4323 54.2716 50.4322H54.2711C53.5106 50.4322 52.7673 50.6576 52.135 51.08C51.5027 51.5025 51.0098 52.1029 50.7187 52.8054C50.4276 53.5079 50.3513 54.2809 50.4995 55.0268C50.6477 55.7726 51.0138 56.4578 51.5513 56.9956V56.9956Z" fill="white"/>
<path d="M9.72908 14.5679H9.72859C8.44349 14.5678 7.21106 14.0573 6.30239 13.1485C5.39373 12.2398 4.88327 11.0073 4.8833 9.72224C4.88333 8.43715 5.39386 7.2047 6.30257 6.29601C7.21128 5.38732 8.44374 4.87683 9.72883 4.87683C11.0139 4.87683 12.2464 5.38732 13.1551 6.29601C14.0638 7.2047 14.5743 8.43715 14.5744 9.72224C14.5744 11.0073 14.0639 12.2398 13.1553 13.1485C12.2466 14.0573 11.0142 14.5678 9.72908 14.5679V14.5679ZM9.72957 5.87989C9.22476 5.87983 8.72489 5.97919 8.25849 6.17231C7.79209 6.36542 7.3683 6.64852 7.0113 7.00542C6.65431 7.36232 6.3711 7.78604 6.17786 8.25239C5.98462 8.71874 5.88513 9.21859 5.88507 9.72339C5.885 10.2282 5.98436 10.7281 6.17748 11.1945C6.3706 11.6609 6.65369 12.0847 7.01059 12.4417C7.3675 12.7987 7.79122 13.0819 8.25757 13.2751C8.72392 13.4683 9.22376 13.5678 9.72857 13.5679H9.72908C10.7486 13.568 11.7263 13.163 12.4473 12.4422C13.1682 11.7213 13.5733 10.7436 13.5733 9.72414C13.5734 8.70464 13.1685 7.72688 12.4476 7.00595C11.7268 6.28501 10.7491 5.87996 9.72957 5.87989V5.87989Z" fill="white"/>
<path d="M57.5236 51.3042L56.7267 50.7007C60.8161 45.3259 63.0208 38.7536 63.0001 32C62.9997 26.9704 61.778 22.0161 59.44 17.563L60.3248 17.0962C62.7382 21.6934 63.9994 26.8078 64.0001 32C64.0213 38.9716 61.7452 45.756 57.5236 51.3042V51.3042Z" fill="white"/>
<path d="M32.0001 64C25.0286 64.0217 18.2442 61.7457 12.6964 57.5239L13.2999 56.7271C18.6746 60.8162 25.2467 63.0208 32.0001 63C37.1046 62.9998 42.1304 61.7415 46.6329 59.3364L47.1055 60.2173C42.4578 62.7005 37.2696 63.9998 32.0001 64V64Z" fill="white"/>
<path d="M3.77841 47.0972C1.29793 42.4516 0.000246883 37.2664 9.28749e-05 32C-0.0216193 25.0285 2.25443 18.2442 6.47616 12.6963L7.27303 13.2998C3.18388 18.6745 0.979271 25.2466 1.00009 32C1.00018 37.1014 2.25694 42.1242 4.65927 46.6245L3.77841 47.0972Z" fill="white"/>
<path d="M50.7154 7.2847C45.3382 3.18812 38.76 0.979158 32.0001 1.00003C26.9226 1.0001 21.9226 2.24528 17.4381 4.62649L16.9674 3.74368C21.5969 1.28572 26.7585 0.000311089 32.0001 2.79584e-05C38.9784 -0.0214276 45.769 2.25892 51.3199 6.48782L50.7154 7.2847Z" fill="white"/>
</g>
<defs>
<clipPath id="clip0_10_1401">
<rect width="64.0001" height="64.0001" fill="white"/>
</clipPath>
</defs>
</svg>
