<svg width="64" height="64" viewBox="0 0 64 64" fill="none" xmlns="http://www.w3.org/2000/svg">
<g clip-path="url(#clip0_1187_2169)">
<path opacity="0.3" d="M17 36H6V58H17V36Z" fill="black"/>
<path opacity="0.3" d="M44 36H35V58H44V36Z" fill="black"/>
<path opacity="0.3" d="M43.13 23L43.63 23.66C42.79 24.79 41.79 25.79 40.66 26.63L37.98 24.59C36.92 25.25 35.76 25.73 34.55 26.01L34.1 29.35C32.71 29.55 31.29 29.55 29.9 29.35L29.45 26.01C28.24 25.73 27.08 25.25 26.03 24.59L23.35 26.63C22.49 25.99 21.71 25.26 21.01 24.45V32.01H58.01V23.01H43.14L43.13 23Z" fill="black"/>
<path d="M16.28 23.5H6.5V31.5H16.28V23.5Z" stroke="white" stroke-miterlimit="10"/>
<path d="M29.5 36.5H21.5V57.5H29.5V36.5Z" stroke="white" stroke-miterlimit="10"/>
<path d="M57.5 36.5H49.5V57.5H57.5V36.5Z" stroke="white" stroke-miterlimit="10"/>
<path d="M50 15.5H61.5C62.6 15.5 63.5 16.4 63.5 17.5V61.5C63.5 62.6 62.6 63.5 61.5 63.5H2.5C1.4 63.5 0.5 62.6 0.5 61.5V17.5C0.5 16.4 1.4 15.5 2.5 15.5H14" stroke="white" stroke-miterlimit="10"/>
<path fill-rule="evenodd" clip-rule="evenodd" d="M34.1 0.65C32.71 0.45 31.29 0.45 29.9 0.65L29.45 3.99C28.24 4.27 27.08 4.75 26.02 5.41L23.34 3.37C22.21 4.21 21.21 5.21 20.37 6.34L22.41 9.02C21.75 10.08 21.27 11.24 20.99 12.45L17.65 12.9C17.45 14.29 17.45 15.71 17.65 17.1L20.99 17.55C21.27 18.76 21.75 19.92 22.41 20.98L20.37 23.66C21.21 24.79 22.21 25.79 23.34 26.63L26.02 24.59C27.08 25.25 28.23 25.73 29.44 26.01L29.89 29.35C31.28 29.55 32.7 29.55 34.09 29.35L34.54 26.01C35.75 25.73 36.91 25.25 37.97 24.59L40.65 26.63C41.78 25.79 42.78 24.79 43.62 23.66L41.58 20.98C42.24 19.92 42.72 18.76 43 17.55L46.34 17.1C46.54 15.71 46.54 14.29 46.34 12.9L43 12.45C42.72 11.24 42.24 10.08 41.58 9.02L43.62 6.34C42.78 5.21 41.78 4.21 40.65 3.37L37.97 5.41C36.91 4.75 35.75 4.27 34.54 3.99L34.09 0.65H34.1Z" stroke="white" stroke-miterlimit="10"/>
<path d="M27 15L30.5 18.5L37 12" stroke="white" stroke-miterlimit="10"/>
</g>
<defs>
<clipPath id="clip0_1187_2169">
<rect width="64" height="64" fill="white"/>
</clipPath>
</defs>
</svg>
