<svg width="64" height="64" viewBox="0 0 64 64" fill="none" xmlns="http://www.w3.org/2000/svg">
<g clip-path="url(#clip0_10_1416)">
<path opacity="0.3" d="M11.0002 56.375H0.500244V63.5H11.0002V56.375Z" fill="#231F20"/>
<path opacity="0.3" d="M28.5002 56.375H18.0002V63.5H28.5002V56.375Z" fill="#231F20"/>
<path opacity="0.3" d="M46.0002 56.375H35.5002V63.5H46.0002V56.375Z" fill="#231F20"/>
<path opacity="0.3" d="M63.5002 56.375H53.0002V63.5H63.5002V56.375Z" fill="#231F20"/>
<path d="M29.0002 63.5H28.0002V16.844L18.5002 16.856V63.5H17.5002V15.857L29.0002 15.843V63.5Z" fill="white"/>
<path d="M46.5002 63.5H45.5002V50.781H36.0002V63.5H35.0002V49.781H46.5002V63.5Z" fill="white"/>
<path d="M64.0002 64H0.000244141V42.8511H11.5002V63H52.5002V30.7222H64.0002V64ZM53.5002 63H63.0002V31.7222H53.5002V63ZM1.00024 63H10.5002V43.8511H1.00024V63Z" fill="white"/>
<path d="M23.2503 39.5064C19.3435 39.5063 15.5244 38.3478 12.276 36.1772C9.02766 34.0067 6.49588 30.9216 5.00085 27.3122C3.50582 23.7027 3.11469 19.731 3.87692 15.8993C4.63915 12.0676 6.5205 8.54791 9.28307 5.78541C12.0456 3.02291 15.5653 1.14165 19.3971 0.379513C23.2288 -0.38262 27.2005 0.0086081 30.8099 1.50372C34.4193 2.99884 37.5043 5.5307 39.6748 8.77912C41.8453 12.0275 43.0037 15.8466 43.0037 19.7534C42.9977 24.9905 40.9146 30.0113 37.2114 33.7144C33.5082 37.4175 28.4873 39.5005 23.2503 39.5064V39.5064ZM23.2503 1.00002C19.5413 1.00007 15.9156 2.09996 12.8316 4.1606C9.74774 6.22124 7.34413 9.15009 5.92478 12.5768C4.50542 16.0035 4.13407 19.7741 4.85767 23.4118C5.58128 27.0496 7.36734 30.391 9.99 33.0137C12.6127 35.6364 15.9541 37.4224 19.5919 38.146C23.2296 38.8696 27.0002 38.4983 30.4269 37.0789C33.8536 35.6596 36.7825 33.256 38.8431 30.1721C40.9037 27.0882 42.0036 23.4624 42.0037 19.7534C41.9981 14.7814 40.0205 10.0147 36.5048 6.49892C32.989 2.98318 28.2223 1.00559 23.2503 1.00002V1.00002Z" fill="white"/>
<path d="M59.7653 22.732H42.3433V21.732H58.7653V17.774H42.3433V16.774H59.7653V22.732Z" fill="white"/>
</g>
<defs>
<clipPath id="clip0_10_1416">
<rect width="64" height="64" fill="white" transform="translate(0.000244141)"/>
</clipPath>
</defs>
</svg>
