<svg width="64" height="64" viewBox="0 0 64 64" fill="none" xmlns="http://www.w3.org/2000/svg">
<g clip-path="url(#clip0_10_1307)">
<path opacity="0.15" d="M11 56.375H0.5V63.5H11V56.375Z" fill="#183A9E"/>
<path opacity="0.15" d="M28.5 56.375H18V63.5H28.5V56.375Z" fill="#183A9E"/>
<path opacity="0.15" d="M46 56.375H35.5V63.5H46V56.375Z" fill="#183A9E"/>
<path opacity="0.15" d="M63.5 56.375H53V63.5H63.5V56.375Z" fill="#183A9E"/>
<path d="M29 63.5H28V16.844L18.5 16.856V63.5H17.5V15.857L29 15.843V63.5Z" fill="#204ECF"/>
<path d="M46.5 63.5H45.5V50.781H36V63.5H35V49.781H46.5V63.5Z" fill="#204ECF"/>
<path d="M64 64H0V42.8511H11.5V63H52.5V30.7222H64V64ZM53.5 63H63V31.7222H53.5V63ZM1 63H10.5V43.8511H1V63Z" fill="#204ECF"/>
<path d="M23.25 39.5064C19.3432 39.5063 15.5241 38.3478 12.2758 36.1772C9.02741 34.0067 6.49563 30.9216 5.00061 27.3122C3.50558 23.7027 3.11445 19.731 3.87668 15.8993C4.63891 12.0676 6.52026 8.54791 9.28282 5.78541C12.0454 3.02291 15.5651 1.14165 19.3968 0.379513C23.2286 -0.38262 27.2003 0.0086081 30.8097 1.50372C34.4191 2.99884 37.5041 5.5307 39.6746 8.77912C41.845 12.0275 43.0035 15.8466 43.0034 19.7534C42.9974 24.9905 40.9143 30.0113 37.2111 33.7144C33.5079 37.4175 28.4871 39.5005 23.25 39.5064V39.5064ZM23.25 1.00002C19.541 1.00007 15.9153 2.09996 12.8314 4.1606C9.74749 6.22124 7.34389 9.15009 5.92453 12.5768C4.50518 16.0035 4.13382 19.7741 4.85743 23.4118C5.58103 27.0496 7.36709 30.391 9.98976 33.0137C12.6124 35.6364 15.9539 37.4224 19.5916 38.146C23.2294 38.8696 27 38.4983 30.4267 37.0789C33.8534 35.6596 36.7822 33.256 38.8429 30.1721C40.9035 27.0882 42.0034 23.4624 42.0034 19.7534C41.9979 14.7814 40.0203 10.0147 36.5045 6.49892C32.9888 2.98318 28.222 1.00559 23.25 1.00002V1.00002Z" fill="#204ECF"/>
<path d="M59.765 22.732H42.343V21.732H58.765V17.774H42.343V16.774H59.765V22.732Z" fill="#204ECF"/>
</g>
<defs>
<clipPath id="clip0_10_1307">
<rect width="64" height="64" fill="white"/>
</clipPath>
</defs>
</svg>
