<svg width="64" height="64" viewBox="0 0 64 64" fill="none" xmlns="http://www.w3.org/2000/svg">
<g clip-path="url(#clip0_421_421)">
<g clip-path="url(#clip1_421_421)">
<path fill-rule="evenodd" clip-rule="evenodd" d="M-0.000183105 16.4316C-0.000183105 14.9975 1.16654 13.835 2.60577 13.835H61.3928C62.832 13.835 63.9987 14.9975 63.9987 16.4316V61.403C63.9987 62.8371 62.832 63.9996 61.3928 63.9996H2.60577C1.16654 63.9996 -0.000183105 62.8371 -0.000183105 61.403V16.4316ZM2.60577 14.8277C1.71677 14.8277 0.99609 15.5457 0.99609 16.4316V61.403C0.99609 62.2888 1.71677 63.0069 2.60577 63.0069H61.3928C62.2818 63.0069 63.0025 62.2888 63.0025 61.403V16.4316C63.0025 15.5457 62.2818 14.8277 61.3928 14.8277H2.60577Z" fill="white"/>
<path fill-rule="evenodd" clip-rule="evenodd" d="M26.0552 0.992693C25.1662 0.992693 24.4456 1.71078 24.4456 2.59659V11.6959H23.4493V2.59659C23.4493 1.16253 24.616 0 26.0552 0H37.9275C39.3667 0 40.5335 1.16253 40.5335 2.59659V11.6959H39.5372V2.59659C39.5372 1.71078 38.8165 0.992693 37.9275 0.992693H26.0552Z" fill="white"/>
<path opacity="0.3" fill-rule="evenodd" clip-rule="evenodd" d="M43.529 39.6134L46.2323 38.3743C46.1688 37.2075 45.9635 36.0527 45.621 34.9351L42.6596 34.6883C42.2731 33.7689 41.7701 32.9025 41.163 32.1103C41.5846 31.2177 42.0114 30.3251 42.433 29.4272C41.6352 28.573 40.7363 27.8184 39.756 27.18L37.3268 28.8917C36.4297 28.4277 35.4745 28.0851 34.4865 27.8731L33.7488 25.0062C32.585 24.8645 31.4083 24.8645 30.2445 25.0062C29.9916 25.9618 29.7404 26.9174 29.491 27.8731C28.5121 28.0878 27.566 28.4303 26.677 28.8917L24.2478 27.18C23.2667 27.8175 22.3662 28.5702 21.5656 29.422C21.9871 30.3181 22.4105 31.2124 22.8355 32.105C22.2265 32.896 21.7234 33.7627 21.339 34.6831L18.3722 34.9299C18.0288 36.047 17.8252 37.2021 17.7662 38.369L20.4695 39.6134C20.515 40.6106 20.6922 41.5975 20.9965 42.5485L18.8886 44.6487C19.3466 45.7233 19.936 46.7373 20.6434 47.6679L23.51 46.8908C24.1878 47.6256 24.9583 48.2698 25.8023 48.8072C25.7127 49.7891 25.6179 50.7762 25.5335 51.7581C26.5755 52.2904 27.6801 52.6908 28.8217 52.95C29.3908 52.1414 29.9547 51.3275 30.5185 50.5189C31.5122 50.645 32.5179 50.645 33.5116 50.5189L35.2032 52.95C36.3465 52.6908 37.4529 52.2904 38.4966 51.7581L38.2279 48.8072C39.0712 48.271 39.8401 47.6266 40.5149 46.8908L43.3868 47.6679C44.0944 46.7384 44.6822 45.7241 45.1362 44.6487L43.0284 42.5485C43.3212 41.5956 43.4895 40.6092 43.529 39.6134ZM31.9993 45.3891C28.5321 45.389 25.7196 42.592 25.7128 39.1373C25.7061 35.6826 28.5077 32.8747 31.9748 32.8612C35.442 32.8477 38.2655 35.6337 38.2858 39.0884C38.2957 40.756 37.6377 42.3587 36.4576 43.5414C35.2776 44.7241 33.673 45.3891 31.9993 45.3891V45.3891Z" fill="#231F20"/>
<path fill-rule="evenodd" clip-rule="evenodd" d="M30.1841 24.5133C31.388 24.3667 32.6053 24.3667 33.8092 24.5133L34.1468 24.5544L34.8936 27.4566C35.7187 27.6564 36.5199 27.9439 37.2833 28.3141L39.7434 26.5808L40.0263 26.7628C41.0499 27.4214 41.9889 28.202 42.8226 29.0874L43.0536 29.3327L42.9105 29.6373C42.6593 30.1725 42.4052 30.7076 42.1521 31.2409C42.0234 31.512 41.895 31.7826 41.7672 32.0525C42.2597 32.7295 42.681 33.4553 43.0244 34.2182L46.0252 34.4683L46.1238 34.7899C46.478 35.9459 46.6903 37.1403 46.7561 38.3471L46.7744 38.684L44.0345 39.9399C43.973 40.7755 43.8246 41.6024 43.5915 42.4074L45.7253 44.5335L45.5954 44.841C45.1252 45.9546 44.5165 47.005 43.7836 47.9676L43.5805 48.2344L40.6733 47.4477C40.0913 48.0506 39.4469 48.5906 38.751 49.0586L39.0231 52.0469L38.7236 52.1997C37.6429 52.7508 36.4974 53.1654 35.3137 53.4337L34.9855 53.5081L33.2721 51.0457C32.4362 51.1309 31.5937 51.1309 30.7578 51.0456C30.651 51.1989 30.5441 51.3525 30.4371 51.5063C30.0364 52.0819 29.6341 52.6599 29.2296 53.2347L29.0374 53.5077L28.7111 53.4337C27.5289 53.1653 26.3851 52.7507 25.3063 52.1995L25.0087 52.0475L25.0372 51.7155C25.0945 51.0485 25.1567 50.3778 25.2187 49.7099C25.2389 49.4923 25.2591 49.275 25.279 49.0583C24.5824 48.5896 23.9368 48.0498 23.3525 47.4476L20.4495 48.2346L20.2463 47.9673C19.5141 47.0042 18.9041 45.9547 18.4301 44.8425L18.2988 44.5343L20.4328 42.4079C20.1979 41.6029 20.0494 40.7753 19.9896 39.939L17.2518 38.6787L17.2687 38.3438C17.3298 37.1361 17.5405 35.9405 17.8959 34.7843L17.9947 34.463L20.9999 34.213C21.3419 33.4494 21.7632 32.7235 22.2569 32.0473C21.8747 31.2438 21.4939 30.4388 21.1145 29.6324L20.9713 29.3279L21.202 29.0825C22.0299 28.2016 22.9612 27.4232 23.9757 26.764L24.2591 26.5798L26.7201 28.3139C27.4757 27.946 28.2683 27.659 29.0847 27.4578C29.3093 26.5983 29.5354 25.7389 29.7629 24.8794L29.8489 24.5541L30.1841 24.5133ZM30.639 25.462C30.4157 26.3073 30.1937 27.1525 29.9731 27.9978L29.8962 28.2922L29.5981 28.3576C28.662 28.5629 27.7572 28.8904 26.9072 29.3316L26.6376 29.4716L24.24 27.7822C23.4929 28.2934 22.7969 28.8752 22.1618 29.5194C22.535 30.3116 22.9096 31.1025 23.2856 31.892L23.4161 32.1662L23.2308 32.4069C22.648 33.1637 22.1667 33.9929 21.7989 34.8736L21.6825 35.1524L18.7541 35.3959C18.5097 36.2665 18.3524 37.1592 18.2847 38.0607L20.9534 39.2892L20.9671 39.5906C21.0106 40.5443 21.1801 41.488 21.4711 42.3975L21.5632 42.6855L19.4816 44.7596C19.8563 45.5824 20.3118 46.3662 20.8416 47.0995L23.6717 46.3323L23.8768 46.5547C24.5255 47.2579 25.2629 47.8744 26.0706 48.3888L26.3258 48.5513L26.2984 48.8519C26.2694 49.1701 26.2398 49.4881 26.2104 49.8058C26.159 50.3593 26.1077 50.912 26.0591 51.464C26.8757 51.8562 27.7297 52.1658 28.6083 52.388C28.9457 51.9071 29.2813 51.425 29.6169 50.9427C29.781 50.7069 29.9451 50.4712 30.1094 50.2355L30.2818 49.9883L30.5814 50.0263C31.5334 50.1471 32.4968 50.1471 33.4487 50.0263L33.7487 49.9883L35.4183 52.3877C36.2975 52.1656 37.1523 51.8562 37.9697 51.4644L37.7044 48.5511L37.9599 48.3886C38.7664 47.8757 39.5018 47.2595 40.1471 46.5557L40.3521 46.3322L43.1887 47.0997C43.7182 46.3673 44.1722 45.5835 44.5441 44.7604L42.4623 42.6861L42.5534 42.3988C42.8422 41.4878 43.0118 40.5435 43.0578 39.5893L43.0724 39.2882L45.7389 38.0659C45.668 37.1645 45.5093 36.272 45.2652 35.4011L42.3432 35.1576L42.2264 34.8799C41.8564 33.9995 41.3748 33.1699 40.7934 32.4113L40.6098 32.1716L40.7386 31.8987C40.91 31.5358 41.0816 31.1743 41.2531 30.813C41.4567 30.3842 41.6601 29.9556 41.863 29.5251C41.2226 28.8769 40.52 28.2928 39.7652 27.7812L37.3666 29.4713L37.0973 29.332C36.2396 28.8884 35.3263 28.5608 34.3816 28.358L34.0805 28.2934L33.3518 25.4618C32.4497 25.374 31.5411 25.3741 30.639 25.462Z" fill="white"/>
<path fill-rule="evenodd" clip-rule="evenodd" d="M31.9993 33.3413C28.8024 33.3413 26.2108 35.9236 26.2108 39.109C26.2108 42.2943 28.8024 44.8766 31.9993 44.8766C35.1961 44.8766 37.7877 42.2943 37.7877 39.109C37.7877 35.9236 35.1961 33.3413 31.9993 33.3413ZM25.2146 39.109C25.2146 35.3753 28.2522 32.3486 31.9993 32.3486C35.7464 32.3486 38.784 35.3753 38.784 39.109C38.784 42.8426 35.7464 45.8693 31.9993 45.8693C28.2522 45.8693 25.2146 42.8426 25.2146 39.109Z" fill="white"/>
<path fill-rule="evenodd" clip-rule="evenodd" d="M-0.000183105 11.1816C-0.000183105 9.74749 1.16654 8.58496 2.60577 8.58496H23.9474V9.57765H2.60577C1.71677 9.57765 0.99609 10.2957 0.99609 11.1816V16.4322H-0.000183105V11.1816Z" fill="white"/>
<path fill-rule="evenodd" clip-rule="evenodd" d="M26.598 8.58496H40.0354V9.57765H26.598V8.58496Z" fill="white"/>
<path fill-rule="evenodd" clip-rule="evenodd" d="M42.6701 8.58496H61.3928C62.832 8.58496 63.9987 9.74749 63.9987 11.1816V16.4322H63.0025V11.1816C63.0025 10.2957 62.2818 9.57765 61.3928 9.57765H42.6701V8.58496Z" fill="white"/>
</g>
</g>
<defs>
<clipPath id="clip0_421_421">
<rect width="64" height="64" fill="white"/>
</clipPath>
<clipPath id="clip1_421_421">
<rect width="64" height="64" fill="white"/>
</clipPath>
</defs>
</svg>
