<svg width="64" height="64" viewBox="0 0 64 64" fill="none" xmlns="http://www.w3.org/2000/svg">
<g clip-path="url(#clip0_10_1478)">
<path opacity="0.15" d="M34.3881 26.75H31.9999V41.6303C32.5714 41.6294 33.1375 41.7412 33.6657 41.9593C34.194 42.1774 34.674 42.4976 35.0785 42.9014C35.4829 43.3052 35.8037 43.7848 36.0226 44.3127C36.2415 44.8406 36.3542 45.4065 36.3542 45.978C36.3542 46.5495 36.2415 47.1154 36.0226 47.6433C35.8037 48.1713 35.4829 48.6509 35.0785 49.0547C34.674 49.4585 34.194 49.7786 33.6657 49.9967C33.1375 50.2148 32.5714 50.3266 31.9999 50.3257V57.8577H38.8583L43.206 45.978L34.3881 26.75Z" fill="#183A9E"/>
<path opacity="0.15" d="M63.4999 57.7676H0.499901V63.5H63.4999V57.7676Z" fill="#183A9E"/>
<path opacity="0.15" d="M31.9999 10.9502C34.8856 10.9502 37.225 8.61087 37.225 5.72512C37.225 2.83937 34.8856 0.5 31.9999 0.5C29.1141 0.5 26.7747 2.83937 26.7747 5.72512C26.7747 8.61087 29.1141 10.9502 31.9999 10.9502Z" fill="#183A9E"/>
<path opacity="0.15" d="M31.9998 10.9503C29.2018 10.9503 26.5184 12.0618 24.54 14.0403C22.5615 16.0188 21.45 18.7022 21.4501 21.5001H42.5496C42.5496 20.1147 42.2767 18.7429 41.7466 17.4629C41.2164 16.1829 40.4393 15.0199 39.4596 14.0403C38.48 13.0606 37.317 12.2835 36.037 11.7534C34.7571 11.2232 33.3852 10.9503 31.9998 10.9503V10.9503Z" fill="#183A9E"/>
<path d="M44.6859 63.5H43.6859V58.358H38.1429L42.6659 46L34.0669 27.25H29.9329L21.3339 46L25.8569 58.358H20.3139V63.5H19.3139V57.358H24.4259L20.2539 45.957L29.2909 26.25H34.7089L43.7459 45.957L39.5739 57.358H44.6859V63.5Z" fill="#204ECF"/>
<path d="M31.9999 50.8257C31.0411 50.8257 30.1039 50.5414 29.3067 50.0087C28.5095 49.4761 27.8881 48.719 27.5212 47.8332C27.1543 46.9474 27.0583 45.9727 27.2454 45.0323C27.4324 44.092 27.8941 43.2282 28.5721 42.5502C29.25 41.8723 30.1138 41.4106 31.0541 41.2235C31.9945 41.0365 32.9692 41.1325 33.855 41.4994C34.7408 41.8663 35.4979 42.4876 36.0306 43.2848C36.5632 44.082 36.8475 45.0192 36.8475 45.978C36.846 47.2632 36.3348 48.4954 35.426 49.4042C34.5173 50.313 33.2851 50.8242 31.9999 50.8257V50.8257ZM31.9999 42.1304C31.2389 42.1304 30.495 42.356 29.8622 42.7788C29.2295 43.2016 28.7363 43.8025 28.4451 44.5056C28.1539 45.2087 28.0777 45.9823 28.2262 46.7287C28.3746 47.4751 28.7411 48.1607 29.2792 48.6988C29.8173 49.2369 30.5029 49.6033 31.2493 49.7518C31.9956 49.9002 32.7693 49.824 33.4723 49.5328C34.1754 49.2416 34.7763 48.7484 35.1991 48.1157C35.6219 47.4829 35.8475 46.739 35.8475 45.978C35.8464 44.9579 35.4406 43.9799 34.7193 43.2586C33.998 42.5373 33.02 42.1315 31.9999 42.1304Z" fill="#204ECF"/>
<path d="M38.8583 57.3579H25.1415V58.3579H38.8583V57.3579Z" fill="#204ECF"/>
<path d="M31.9999 11.4502C30.8676 11.4502 29.7607 11.1144 28.8192 10.4853C27.8777 9.85627 27.1439 8.96213 26.7106 7.916C26.2773 6.86988 26.1639 5.71875 26.3848 4.60819C26.6057 3.49763 27.151 2.47752 27.9516 1.67685C28.7523 0.876176 29.7724 0.330913 30.883 0.110009C31.9935 -0.110895 33.1447 0.0024806 34.1908 0.4358C35.2369 0.869119 36.131 1.60292 36.7601 2.54441C37.3892 3.4859 37.725 4.59278 37.725 5.7251C37.7232 7.24296 37.1195 8.69814 36.0462 9.77143C34.9729 10.8447 33.5177 11.4485 31.9999 11.4502V11.4502ZM31.9999 1C31.0653 1 30.1518 1.27712 29.3748 1.79633C28.5977 2.31553 27.9921 3.05349 27.6345 3.91689C27.2768 4.78028 27.1833 5.73034 27.3656 6.64692C27.5479 7.5635 27.9979 8.40544 28.6587 9.06625C29.3195 9.72707 30.1615 10.1771 31.0781 10.3594C31.9946 10.5417 32.9447 10.4482 33.8081 10.0905C34.6715 9.73289 35.4095 9.12727 35.9287 8.35023C36.4479 7.57319 36.725 6.65964 36.725 5.7251C36.7236 4.47236 36.2253 3.27133 35.3395 2.3855C34.4537 1.49968 33.2526 1.00141 31.9999 1V1Z" fill="#204ECF"/>
<path d="M43.0497 21.5H42.0497C42.0497 18.8346 40.9909 16.2784 39.1062 14.3937C37.2215 12.509 34.6652 11.4502 31.9999 11.4502C29.3345 11.4502 26.7783 12.509 24.8936 14.3937C23.0089 16.2784 21.9501 18.8346 21.9501 21.5H20.9501C20.9501 18.5694 22.1142 15.7588 24.1865 13.6866C26.2587 11.6144 29.0693 10.4502 31.9999 10.4502C34.9305 10.4502 37.741 11.6144 39.8133 13.6866C41.8855 15.7588 43.0497 18.5694 43.0497 21.5V21.5Z" fill="#204ECF"/>
<path d="M63.9999 64H-0.00012207V21H63.9999V64ZM0.999878 63H62.9999V22H0.999878V63Z" fill="#204ECF"/>
<path d="M32.4999 26.75H31.4999V41.6304H32.4999V26.75Z" fill="#204ECF"/>
</g>
<defs>
<clipPath id="clip0_10_1478">
<rect width="64" height="64" fill="white"/>
</clipPath>
</defs>
</svg>
