<svg width="64" height="65" viewBox="0 0 64 65" fill="none" xmlns="http://www.w3.org/2000/svg">
<g clip-path="url(#clip0_10_1566)">
<path opacity="0.3" d="M35.1963 10.4604H32.0001V30.3752C33.542 30.3772 35.0201 30.9912 36.1096 32.0822C37.1992 33.1732 37.8112 34.652 37.8112 36.1939C37.8112 37.7358 37.1992 39.2147 36.1096 40.3057C35.0201 41.3967 33.542 42.0106 32.0001 42.0126V52.093H41.1789L46.9976 36.194L35.1963 10.4604Z" fill="#231F20"/>
<path opacity="0.3" d="M48.3089 58.6075H15.6913V64.0386H48.3089V58.6075Z" fill="#231F20"/>
<path d="M61.2579 34.5073H60.2579C60.2824 27.8083 57.9164 21.3202 53.5853 16.2095C49.2541 11.0989 43.2419 7.70088 36.6295 6.62647L36.7921 5.64014C43.6386 6.75228 49.8639 10.2704 54.3486 15.5618C58.8333 20.8533 61.2832 27.5711 61.2579 34.5073V34.5073Z" fill="white"/>
<path d="M3.74228 34.5073H2.74228C2.71698 27.5711 5.16692 20.8533 9.65161 15.5618C14.1363 10.2704 20.3615 6.75228 27.2081 5.64014L27.3707 6.62647C20.7583 7.70088 14.7461 11.0989 10.4149 16.2095C6.08375 21.3202 3.71774 27.8083 3.74228 34.5073V34.5073Z" fill="white"/>
<path d="M37.211 10.9605H26.7892V0.538574H37.211V10.9605ZM27.7891 9.96045H36.211V1.53857H27.7892L27.7891 9.96045Z" fill="white"/>
<path d="M48.809 64.0386H47.809V52.5926H40.463L46.458 36.2156L34.876 10.9606H29.125L17.543 36.2156L23.537 52.5926H16.192V64.0386H15.192V51.5926H22.106L16.462 36.1726L28.483 9.96057H35.517L47.538 36.1726L41.894 51.5926H48.809V64.0386Z" fill="white"/>
<path d="M27.2892 5.24951H9.18955V6.24951H27.2892V5.24951Z" fill="white"/>
<path d="M54.8106 5.24951H36.711V6.24951H54.8106V5.24951Z" fill="white"/>
<path d="M32.0001 42.5127C30.7503 42.5127 29.5287 42.1421 28.4895 41.4478C27.4504 40.7535 26.6405 39.7666 26.1622 38.612C25.684 37.4574 25.5588 36.1869 25.8027 34.9611C26.0465 33.7354 26.6483 32.6095 27.532 31.7258C28.4157 30.842 29.5416 30.2402 30.7673 29.9964C31.9931 29.7526 33.2636 29.8777 34.4182 30.356C35.5728 30.8343 36.5597 31.6442 37.254 32.6833C37.9483 33.7224 38.3189 34.9441 38.3189 36.1939C38.3171 37.8691 37.6508 39.4753 36.4662 40.6599C35.2815 41.8445 33.6754 42.5109 32.0001 42.5127V42.5127ZM32.0001 30.875C30.9481 30.875 29.9198 31.187 29.0451 31.7714C28.1704 32.3558 27.4887 33.1865 27.0861 34.1584C26.6835 35.1303 26.5782 36.1998 26.7834 37.2315C26.9887 38.2633 27.4952 39.211 28.2391 39.9549C28.983 40.6987 29.9307 41.2053 30.9624 41.4105C31.9942 41.6157 33.0636 41.5104 34.0355 41.1078C35.0074 40.7053 35.8381 40.0235 36.4226 39.1489C37.007 38.2742 37.3189 37.2458 37.3189 36.1939C37.3173 34.7837 36.7564 33.4318 35.7593 32.4347C34.7621 31.4376 33.4102 30.8767 32.0001 30.875V30.875Z" fill="white"/>
<path d="M41.1788 51.5928H22.8214V52.5928H41.1788V51.5928Z" fill="white"/>
<path d="M32.5001 10.4604H31.5001V30.375H32.5001V10.4604Z" fill="white"/>
<path d="M4.84482 10.5942C3.88662 10.5942 2.94994 10.3101 2.15323 9.77776C1.35652 9.24542 0.735558 8.48877 0.368872 7.60351C0.00218621 6.71825 -0.093755 5.74414 0.0931808 4.80435C0.280117 3.86457 0.741533 3.00132 1.41908 2.32377C2.09663 1.64623 2.95988 1.18481 3.89967 0.997876C4.83945 0.810942 5.81357 0.906886 6.69882 1.27357C7.58408 1.64026 8.34073 2.26122 8.87307 3.05794C9.40542 3.85465 9.68955 4.79133 9.68955 5.74953C9.68809 7.03398 9.1772 8.26541 8.26895 9.17366C7.36071 10.0819 6.12927 10.5928 4.84482 10.5942V10.5942ZM4.84482 1.9048C4.0844 1.9048 3.34107 2.13029 2.7088 2.55275C2.07654 2.97522 1.58375 3.57568 1.29275 4.27821C1.00175 4.98075 0.925616 5.75379 1.07397 6.4996C1.22232 7.2454 1.58849 7.93047 2.12619 8.46816C2.66388 9.00586 3.34895 9.37203 4.09475 9.52038C4.84056 9.66873 5.6136 9.59259 6.31613 9.30159C7.01867 9.0106 7.61913 8.51781 8.0416 7.88555C8.46406 7.25328 8.68955 6.50994 8.68955 5.74953C8.68844 4.73018 8.28302 3.7529 7.56223 3.03211C6.84145 2.31133 5.86417 1.9059 4.84482 1.9048V1.9048Z" fill="white"/>
<path d="M59.1554 10.5942C58.1972 10.5942 57.2605 10.3101 56.4638 9.77776C55.6671 9.24542 55.0461 8.48877 54.6794 7.60351C54.3127 6.71825 54.2168 5.74414 54.4037 4.80435C54.5907 3.86457 55.0521 3.00132 55.7296 2.32377C56.4072 1.64623 57.2704 1.18481 58.2102 0.997876C59.15 0.810942 60.1241 0.906886 61.0094 1.27357C61.8946 1.64026 62.6513 2.26122 63.1836 3.05794C63.716 3.85465 64.0001 4.79133 64.0001 5.74953C63.9986 7.03398 63.4878 8.26541 62.5795 9.17366C61.6713 10.0819 60.4398 10.5928 59.1554 10.5942V10.5942ZM59.1554 1.9048C58.395 1.9048 57.6516 2.13029 57.0194 2.55275C56.3871 2.97522 55.8943 3.57568 55.6033 4.27821C55.3123 4.98075 55.2362 5.75379 55.3845 6.4996C55.5329 7.2454 55.899 7.93047 56.4367 8.46816C56.9744 9.00586 57.6595 9.37203 58.4053 9.52038C59.1511 9.66873 59.9242 9.59259 60.6267 9.30159C61.3292 9.0106 61.9297 8.51781 62.3521 7.88555C62.7746 7.25328 63.0001 6.50994 63.0001 5.74953C62.999 4.73018 62.5936 3.7529 61.8728 3.03212C61.152 2.31133 60.1747 1.90591 59.1554 1.9048V1.9048Z" fill="white"/>
</g>
<defs>
<clipPath id="clip0_10_1566">
<rect width="64.0001" height="64.0001" fill="white" transform="translate(0 0.538574)"/>
</clipPath>
</defs>
</svg>
