<svg width="64" height="64" viewBox="0 0 64 64" fill="none" xmlns="http://www.w3.org/2000/svg">
<g clip-path="url(#clip0_421_292)">
<path opacity="0.1" fill-rule="evenodd" clip-rule="evenodd" d="M29.0668 15.1665H34.9595C34.9595 25.1526 42.6885 30.5456 42.6885 30.5456L37.3166 40.7474H26.6834L21.3115 30.5456C21.3115 30.5456 29.0668 25.1632 29.0668 15.1665ZM28.8405 32.4292C28.8405 34.1726 30.2539 35.586 31.9974 35.586C32.8346 35.586 33.6376 35.2534 34.2296 34.6614C34.8216 34.0694 35.1542 33.2664 35.1542 32.4292C35.1542 30.6857 33.7408 29.2723 31.9974 29.2723C30.2539 29.2723 28.8405 30.6857 28.8405 32.4292Z" fill="#204ECF"/>
<path fill-rule="evenodd" clip-rule="evenodd" d="M13.3562 3.45166H28.5459V4.44639H13.3562V3.45166Z" fill="#204ECF"/>
<path fill-rule="evenodd" clip-rule="evenodd" d="M11.2832 2.37315C10.413 2.37315 9.70761 3.07858 9.70761 3.94878C9.70761 4.81897 10.413 5.5244 11.2832 5.5244C12.1534 5.5244 12.8589 4.81897 12.8589 3.94878C12.8589 3.07858 12.1534 2.37315 11.2832 2.37315ZM8.71288 3.94878C8.71288 2.52921 9.86366 1.37842 11.2832 1.37842C12.7028 1.37842 13.8536 2.52921 13.8536 3.94878C13.8536 5.36835 12.7028 6.51913 11.2832 6.51913C9.86366 6.51913 8.71288 5.36835 8.71288 3.94878Z" fill="#204ECF"/>
<path fill-rule="evenodd" clip-rule="evenodd" d="M52.7168 2.37315C51.8466 2.37315 51.1411 3.07858 51.1411 3.94878C51.1411 4.81897 51.8466 5.5244 52.7168 5.5244C53.5869 5.5244 54.2924 4.81897 54.2924 3.94878C54.2924 3.07858 53.5869 2.37315 52.7168 2.37315ZM50.1464 3.94878C50.1464 2.52921 51.2972 1.37842 52.7168 1.37842C54.1363 1.37842 55.2871 2.52921 55.2871 3.94878C55.2871 5.36835 54.1363 6.51913 52.7168 6.51913C51.2972 6.51913 50.1464 5.36835 50.1464 3.94878Z" fill="#204ECF"/>
<path fill-rule="evenodd" clip-rule="evenodd" d="M50.6438 4.44639H40.9891V3.45166H50.6438V4.44639Z" fill="#204ECF"/>
<path fill-rule="evenodd" clip-rule="evenodd" d="M28.0485 0H35.9462V7.89769H28.0485V0ZM29.0433 0.994733V6.90296H34.9515V0.994733H29.0433Z" fill="#204ECF"/>
<path fill-rule="evenodd" clip-rule="evenodd" d="M23.9768 5.63454C13.5784 8.80725 6.01215 17.79 4.65276 28.5764L3.66583 28.452C5.07423 17.2768 12.9133 7.97019 23.6865 4.68311L23.9768 5.63454Z" fill="#204ECF"/>
<path fill-rule="evenodd" clip-rule="evenodd" d="M35.5157 3.66016C47.3992 5.14402 57.0969 13.8799 59.8095 25.5444L58.8406 25.7697C56.2225 14.5113 46.8623 6.07944 35.3925 4.64722L35.5157 3.66016Z" fill="#204ECF"/>
<path fill-rule="evenodd" clip-rule="evenodd" d="M28.4843 60.339C16.6008 58.8552 6.90307 50.1192 4.19048 38.4548L5.15936 38.2295C7.77752 49.4879 17.1377 57.9197 28.6075 59.352L28.4843 60.339Z" fill="#204ECF"/>
<path fill-rule="evenodd" clip-rule="evenodd" d="M38.23 58.8407C49.4884 56.2226 57.9202 46.8623 59.3524 35.3926L60.3395 35.5158C58.8556 47.3992 50.1197 57.097 38.4553 59.8096L38.23 58.8407Z" fill="#204ECF"/>
<path fill-rule="evenodd" clip-rule="evenodd" d="M28.0485 56.1025H35.9462V64.0002H28.0485V56.1025ZM29.0433 57.0973V63.0055H34.9515V57.0973H29.0433Z" fill="#204ECF"/>
<path fill-rule="evenodd" clip-rule="evenodd" d="M0 28.0488H7.89769V35.9465H0V28.0488ZM0.994733 29.0436V34.9518H6.90296V29.0436H0.994733Z" fill="#204ECF"/>
<path fill-rule="evenodd" clip-rule="evenodd" d="M56.1023 28.0488H64V35.9465H56.1023V28.0488ZM57.0971 29.0436V34.9518H63.0053V29.0436H57.0971Z" fill="#204ECF"/>
<path fill-rule="evenodd" clip-rule="evenodd" d="M23.3343 42.5225H40.6657V47.5499H39.671V43.5172H24.3291V47.5499H23.3343V42.5225Z" fill="#204ECF"/>
<path fill-rule="evenodd" clip-rule="evenodd" d="M32.0026 29.7691C30.5338 29.7691 29.3432 30.9598 29.3432 32.4286C29.3432 33.8974 30.5338 35.0881 32.0026 35.0881C33.4714 35.0881 34.6621 33.8974 34.6621 32.4286C34.6621 30.9598 33.4714 29.7691 32.0026 29.7691ZM28.3484 32.4286C28.3484 30.4105 29.9845 28.7744 32.0026 28.7744C34.0208 28.7744 35.6568 30.4105 35.6568 32.4286C35.6568 34.4468 34.0208 36.0828 32.0026 36.0828C29.9845 36.0828 28.3484 34.4468 28.3484 32.4286Z" fill="#204ECF"/>
<path fill-rule="evenodd" clip-rule="evenodd" d="M28.5694 14.6689H35.4569V15.1663C35.4569 20.0245 37.3357 23.7676 39.223 26.3037C40.1668 27.5719 41.1103 28.5348 41.8162 29.1794C42.169 29.5015 42.4618 29.7436 42.6648 29.9039C42.7662 29.984 42.8451 30.0437 42.8978 30.0827C42.9241 30.1022 42.9439 30.1166 42.9566 30.1257L42.9703 30.1355L42.9731 30.1375L43.3331 30.3887L37.7567 40.979L36.8766 40.5155L42.0517 30.6873C42.0505 30.6863 42.0493 30.6854 42.0481 30.6844C41.8284 30.5108 41.5173 30.2535 41.1455 29.914C40.4023 29.2353 39.4136 28.2259 38.425 26.8976C36.5123 24.3273 34.5915 20.55 34.4684 15.6637H29.5579C29.4345 20.5554 27.507 24.3331 25.5876 26.9023C24.5956 28.23 23.6035 29.2384 22.8578 29.9162C22.4846 30.2553 22.1726 30.5123 21.9521 30.6856C21.951 30.6865 21.9499 30.6873 21.9488 30.6882L27.1234 40.5155L26.2433 40.979L20.6663 30.3877L21.0275 30.137L21.0307 30.1348L21.0445 30.125C21.0572 30.1159 21.0771 30.1016 21.1035 30.0821C21.1563 30.0432 21.2355 29.9836 21.3373 29.9036C21.541 29.7435 21.8348 29.5018 22.1887 29.1801C22.897 28.5363 23.8438 27.5744 24.7907 26.3069C26.6843 23.7722 28.5694 20.0293 28.5694 15.1663V14.6689Z" fill="#204ECF"/>
<path fill-rule="evenodd" clip-rule="evenodd" d="M31.5052 29.2723V15.1665H32.5V29.2723H31.5052Z" fill="#204ECF"/>
</g>
<defs>
<clipPath id="clip0_421_292">
<rect width="64" height="64" fill="white"/>
</clipPath>
</defs>
</svg>
