<svg width="64" height="64" viewBox="0 0 64 64" fill="none" xmlns="http://www.w3.org/2000/svg">
<path opacity="0.15" d="M35.1963 9.92188H32.0001V29.8366C33.542 29.8387 35.0201 30.4526 36.1096 31.5436C37.1992 32.6346 37.8112 34.1135 37.8112 35.6554C37.8112 37.1973 37.1992 38.6761 36.1096 39.7671C35.0201 40.8581 33.542 41.4721 32.0001 41.4741V51.5544H41.1789L46.9976 35.6554L35.1963 9.92188Z" fill="#183A9E"/>
<path opacity="0.15" d="M48.3089 58.069H15.6913V63.5H48.3089V58.069Z" fill="#183A9E"/>
<path d="M61.2579 33.9688H60.2579C60.2824 27.2697 57.9164 20.7816 53.5853 15.671C49.2541 10.5603 43.2419 7.1623 36.6295 6.08789L36.7921 5.10156C43.6386 6.21371 49.8639 9.73178 54.3486 15.0233C58.8333 20.3147 61.2832 27.0325 61.2579 33.9688V33.9688Z" fill="#204ECF"/>
<path d="M3.74228 33.9688H2.74228C2.71698 27.0325 5.16692 20.3147 9.65161 15.0233C14.1363 9.73178 20.3615 6.21371 27.2081 5.10156L27.3707 6.08789C20.7583 7.1623 14.7461 10.5603 10.4149 15.671C6.08375 20.7816 3.71774 27.2697 3.74228 33.9688V33.9688Z" fill="#204ECF"/>
<path d="M37.211 10.4219H26.7892V0H37.211V10.4219ZM27.7891 9.42188H36.211V1H27.7892L27.7891 9.42188Z" fill="#204ECF"/>
<path d="M48.809 63.5H47.809V52.054H40.463L46.458 35.677L34.876 10.422H29.125L17.543 35.677L23.537 52.054H16.192V63.5H15.192V51.054H22.106L16.462 35.634L28.483 9.422H35.517L47.538 35.634L41.894 51.054H48.809V63.5Z" fill="#204ECF"/>
<path d="M27.2892 4.71094H9.18955V5.71094H27.2892V4.71094Z" fill="#204ECF"/>
<path d="M54.8106 4.71094H36.711V5.71094H54.8106V4.71094Z" fill="#204ECF"/>
<path d="M32.0001 41.9741C30.7503 41.9741 29.5287 41.6035 28.4895 40.9092C27.4504 40.2149 26.6405 39.228 26.1622 38.0734C25.684 36.9188 25.5588 35.6483 25.8027 34.4225C26.0465 33.1968 26.6483 32.0709 27.532 31.1872C28.4157 30.3035 29.5416 29.7017 30.7673 29.4578C31.9931 29.214 33.2636 29.3392 34.4182 29.8174C35.5728 30.2957 36.5597 31.1056 37.254 32.1447C37.9483 33.1838 38.3189 34.4055 38.3189 35.6553C38.3171 37.3306 37.6508 38.9367 36.4662 40.1213C35.2815 41.306 33.6754 41.9723 32.0001 41.9741V41.9741ZM32.0001 30.3364C30.9481 30.3364 29.9198 30.6484 29.0451 31.2328C28.1704 31.8173 27.4887 32.648 27.0861 33.6198C26.6835 34.5917 26.5782 35.6612 26.7834 36.6929C26.9887 37.7247 27.4952 38.6724 28.2391 39.4163C28.983 40.1601 29.9307 40.6667 30.9624 40.8719C31.9942 41.0772 33.0636 40.9718 34.0355 40.5693C35.0074 40.1667 35.8381 39.485 36.4226 38.6103C37.007 37.7356 37.3189 36.7072 37.3189 35.6553C37.3173 34.2451 36.7564 32.8932 35.7593 31.8961C34.7621 30.899 33.4102 30.3381 32.0001 30.3364V30.3364Z" fill="#204ECF"/>
<path d="M41.1788 51.0542H22.8214V52.0542H41.1788V51.0542Z" fill="#204ECF"/>
<path d="M32.5001 9.92188H31.5001V29.8364H32.5001V9.92188Z" fill="#204ECF"/>
<path d="M4.84482 10.0557C3.88662 10.0557 2.94994 9.77153 2.15323 9.23919C1.35652 8.70684 0.735558 7.9502 0.368872 7.06494C0.00218621 6.17968 -0.093755 5.20557 0.0931808 4.26578C0.280117 3.32599 0.741533 2.46275 1.41908 1.7852C2.09663 1.10765 2.95988 0.646236 3.89967 0.459302C4.83945 0.272368 5.81357 0.368311 6.69882 0.734999C7.58408 1.10169 8.34073 1.72265 8.87307 2.51936C9.40542 3.31608 9.68955 4.25276 9.68955 5.21095C9.68809 6.49541 9.1772 7.72684 8.26895 8.63508C7.36071 9.54333 6.12927 10.0542 4.84482 10.0557V10.0557ZM4.84482 1.36622C4.0844 1.36622 3.34107 1.59171 2.7088 2.01418C2.07654 2.43664 1.58375 3.03711 1.29275 3.73964C1.00175 4.44217 0.925616 5.21522 1.07397 5.96102C1.22232 6.70683 1.58849 7.39189 2.12619 7.92959C2.66388 8.46728 3.34895 8.83346 4.09475 8.98181C4.84056 9.13016 5.6136 9.05402 6.31613 8.76302C7.01867 8.47202 7.61913 7.97923 8.0416 7.34697C8.46406 6.71471 8.68955 5.97137 8.68955 5.21095C8.68844 4.19161 8.28302 3.21433 7.56223 2.49354C6.84145 1.77275 5.86417 1.36733 4.84482 1.36622V1.36622Z" fill="#204ECF"/>
<path d="M59.1554 10.0557C58.1972 10.0557 57.2605 9.77153 56.4638 9.23919C55.6671 8.70684 55.0461 7.9502 54.6794 7.06494C54.3127 6.17968 54.2168 5.20557 54.4037 4.26578C54.5907 3.32599 55.0521 2.46275 55.7296 1.7852C56.4072 1.10765 57.2704 0.646236 58.2102 0.459302C59.15 0.272368 60.1241 0.368311 61.0094 0.734999C61.8946 1.10169 62.6513 1.72265 63.1836 2.51936C63.716 3.31608 64.0001 4.25276 64.0001 5.21095C63.9986 6.49541 63.4878 7.72684 62.5795 8.63508C61.6713 9.54333 60.4398 10.0542 59.1554 10.0557V10.0557ZM59.1554 1.36622C58.395 1.36622 57.6516 1.59171 57.0194 2.01418C56.3871 2.43664 55.8943 3.03711 55.6033 3.73964C55.3123 4.44217 55.2362 5.21522 55.3845 5.96102C55.5329 6.70683 55.899 7.39189 56.4367 7.92959C56.9744 8.46728 57.6595 8.83346 58.4053 8.98181C59.1511 9.13016 59.9242 9.05402 60.6267 8.76302C61.3292 8.47202 61.9297 7.97923 62.3521 7.34697C62.7746 6.71471 63.0001 5.97137 63.0001 5.21095C62.999 4.19161 62.5936 3.21433 61.8728 2.49354C61.152 1.77276 60.1747 1.36733 59.1554 1.36622V1.36622Z" fill="#204ECF"/>
</svg>
