<svg width="64" height="65" viewBox="0 0 64 64" fill="none" xmlns="http://www.w3.org/2000/svg">
<g clip-path="url(#clip0_10_1583)">
<path opacity="0.3" d="M34.3882 27.2886H32V42.1689C32.5715 42.168 33.1376 42.2798 33.6658 42.4979C34.1941 42.716 34.6742 43.0361 35.0786 43.4399C35.483 43.8438 35.8038 44.3233 36.0228 44.8513C36.2417 45.3792 36.3543 45.9451 36.3543 46.5166C36.3543 47.0881 36.2417 47.654 36.0228 48.1819C35.8038 48.7098 35.483 49.1894 35.0786 49.5932C34.6742 49.997 34.1941 50.3172 33.6658 50.5353C33.1376 50.7534 32.5715 50.8652 32 50.8643V58.3963H38.8584L43.2061 46.5166L34.3882 27.2886Z" fill="#231F20"/>
<path opacity="0.3" d="M63.5 58.3062H0.500023V64.0385H63.5V58.3062Z" fill="#231F20"/>
<path opacity="0.3" d="M32 11.4888C34.8857 11.4888 37.2251 9.14945 37.2251 6.26369C37.2251 3.37794 34.8857 1.03857 32 1.03857C29.1142 1.03857 26.7749 3.37794 26.7749 6.26369C26.7749 9.14945 29.1142 11.4888 32 11.4888Z" fill="#231F20"/>
<path opacity="0.3" d="M31.9999 11.4889C29.2019 11.4889 26.5186 12.6004 24.5401 14.5789C22.5616 16.5574 21.4502 19.2407 21.4502 22.0387H42.5497C42.5497 20.6533 42.2769 19.2814 41.7467 18.0015C41.2165 16.7215 40.4394 15.5585 39.4598 14.5789C38.4801 13.5992 37.3171 12.8221 36.0372 12.2919C34.7572 11.7618 33.3853 11.4889 31.9999 11.4889V11.4889Z" fill="#231F20"/>
<path d="M44.686 64.0386H43.686V58.8966H38.143L42.666 46.5386L34.067 27.7886H29.933L21.334 46.5386L25.857 58.8966H20.314V64.0386H19.314V57.8966H24.426L20.254 46.4956L29.291 26.7886H34.709L43.746 46.4956L39.574 57.8966H44.686V64.0386Z" fill="white"/>
<path d="M32 51.3643C31.0412 51.3643 30.104 51.08 29.3068 50.5473C28.5096 50.0146 27.8883 49.2575 27.5214 48.3717C27.1544 47.4859 27.0584 46.5112 27.2455 45.5709C27.4325 44.6305 27.8942 43.7668 28.5722 43.0888C29.2501 42.4108 30.1139 41.9491 31.0543 41.7621C31.9946 41.575 32.9693 41.671 33.8551 42.0379C34.7409 42.4049 35.498 43.0262 36.0307 43.8234C36.5633 44.6206 36.8477 45.5578 36.8477 46.5166C36.8462 47.8018 36.335 49.034 35.4262 49.9427C34.5174 50.8515 33.2852 51.3628 32 51.3643V51.3643ZM32 42.669C31.239 42.669 30.4951 42.8946 29.8624 43.3174C29.2296 43.7402 28.7364 44.3411 28.4452 45.0442C28.154 45.7473 28.0778 46.5209 28.2263 47.2673C28.3747 48.0136 28.7412 48.6992 29.2793 49.2373C29.8174 49.7754 30.503 50.1419 31.2494 50.2903C31.9958 50.4388 32.7694 50.3626 33.4725 50.0714C34.1755 49.7802 34.7764 49.287 35.1992 48.6542C35.622 48.0215 35.8477 47.2776 35.8477 46.5166C35.8465 45.4965 35.4407 44.5185 34.7194 43.7972C33.9981 43.0759 33.0201 42.6701 32 42.669Z" fill="white"/>
<path d="M38.8584 57.8965H25.1416V58.8965H38.8584V57.8965Z" fill="white"/>
<path d="M32 11.9888C30.8677 11.9888 29.7608 11.653 28.8193 11.0239C27.8778 10.3948 27.144 9.5007 26.7107 8.45458C26.2774 7.40845 26.164 6.25733 26.3849 5.14677C26.6058 4.0362 27.1511 3.01609 27.9517 2.21542C28.7524 1.41475 29.7725 0.869487 30.8831 0.648583C31.9937 0.427679 33.1448 0.541055 34.1909 0.974374C35.237 1.40769 36.1312 2.14149 36.7603 3.08298C37.3893 4.02447 37.7251 5.13136 37.7251 6.26368C37.7234 7.78153 37.1196 9.23672 36.0463 10.31C34.973 11.3833 33.5179 11.987 32 11.9888V11.9888ZM32 1.53858C31.0655 1.53858 30.1519 1.8157 29.3749 2.3349C28.5978 2.8541 27.9922 3.59206 27.6346 4.45546C27.2769 5.31886 27.1834 6.26892 27.3657 7.1855C27.548 8.10208 27.998 8.94401 28.6589 9.60483C29.3197 10.2656 30.1616 10.7157 31.0782 10.898C31.9948 11.0803 32.9448 10.9867 33.8082 10.6291C34.6716 10.2715 35.4096 9.66584 35.9288 8.8888C36.448 8.11176 36.7251 7.19821 36.7251 6.26368C36.7237 5.01093 36.2254 3.8099 35.3396 2.92408C34.4538 2.03825 33.2527 1.53998 32 1.53858V1.53858Z" fill="white"/>
<path d="M43.0498 22.0386H42.0498C42.0498 19.3732 40.991 16.817 39.1063 14.9323C37.2216 13.0476 34.6654 11.9888 32 11.9888C29.3346 11.9888 26.7784 13.0476 24.8937 14.9323C23.009 16.817 21.9502 19.3732 21.9502 22.0386H20.9502C20.9502 19.108 22.1144 16.2974 24.1866 14.2252C26.2588 12.1529 29.0694 10.9888 32 10.9888C34.9306 10.9888 37.7411 12.1529 39.8134 14.2252C41.8856 16.2974 43.0498 19.108 43.0498 22.0386V22.0386Z" fill="white"/>
<path d="M64 64.5386H0V21.5386H64V64.5386ZM1 63.5386H63V22.5386H1V63.5386Z" fill="white"/>
<path d="M32.5 27.2886H31.5V42.1689H32.5V27.2886Z" fill="white"/>
</g>
<defs>
<clipPath id="clip0_10_1583">
<rect width="64" height="64" fill="white" transform="translate(0 0.538574)"/>
</clipPath>
</defs>
</svg>
