<svg width="64" height="64" viewBox="0 0 64 64" fill="none" xmlns="http://www.w3.org/2000/svg">
<g clip-path="url(#clip0_421_490)">
<path fill-rule="evenodd" clip-rule="evenodd" d="M28.0742 0.243875C30.6885 -0.0812917 33.3324 -0.0812917 35.9467 0.243875L36.2764 0.284882L36.3615 0.605857C36.9026 2.64515 37.4373 4.68444 37.9656 6.72374C39.9618 7.20167 41.8945 7.91843 43.7228 8.85881C45.435 7.63211 47.1428 6.41455 48.86 5.19235L49.1343 4.99707L49.4157 5.18204C51.6243 6.63363 53.6485 8.35323 55.4433 10.3024L55.666 10.5442L55.5277 10.8423C54.6367 12.7634 53.7426 14.6828 52.8452 16.6006C54.0812 18.266 55.1157 20.0749 55.9266 21.9887L62.5201 22.5251L62.6172 22.8454C63.3896 25.3917 63.8484 28.0246 63.9832 30.6843L64 31.0148L57.9907 33.8201C57.8771 35.8995 57.5178 37.9576 56.9205 39.9507C58.4161 41.4435 59.9052 42.9379 61.3879 44.434L61.6188 44.667L61.4924 44.9696C60.4673 47.4234 59.1465 49.74 57.5599 51.8668L57.3587 52.1365L50.9923 50.3766C49.5717 51.9009 47.9776 53.2497 46.2431 54.3949C46.4345 56.5094 46.6244 58.6223 46.8127 60.7336L46.8421 61.0633L46.5475 61.2147C44.1997 62.421 41.7142 63.331 39.1467 63.9244L38.8196 64L38.6299 63.7231C38.1481 63.02 37.665 62.3169 37.1818 61.6137C36.4692 60.5766 35.7564 59.5393 35.0473 58.5012C33.0052 58.7447 30.9418 58.7447 28.8996 58.5012C28.1907 59.5392 27.478 60.5763 26.7655 61.6132C26.2822 62.3166 25.799 63.0198 25.3171 63.7231L25.1273 64L24.8002 63.9244C22.2328 63.331 19.7472 62.421 17.3995 61.2147L17.105 61.0633L17.1343 60.7337C17.3226 58.619 17.5124 56.5059 17.7039 54.3945C15.9826 53.2549 14.4007 51.9134 12.9913 50.3981L6.62519 52.1578L6.42398 51.8881C4.83742 49.7613 3.51664 47.4448 2.49154 44.991L2.3648 44.6876L2.59682 44.4545C4.08272 42.962 5.57183 41.4679 7.06415 39.9722C6.47167 37.9784 6.11724 35.92 6.00838 33.8411L0 31.0363L0.0164803 30.7061C0.149589 28.039 0.608397 25.3988 1.38249 22.8455L1.47963 22.5251L8.07277 21.9887C8.88305 20.0713 9.91765 18.259 11.1545 16.5903C10.2539 14.669 9.35965 12.7493 8.47186 10.8313L8.33393 10.5333L8.55639 10.2917C10.3512 8.34256 12.3755 6.62296 14.584 5.17137L14.8658 4.98612L20.277 8.84887C22.1126 7.90992 24.0527 7.1961 26.056 6.72267C26.5872 4.68397 27.1215 2.64528 27.6591 0.606589L27.7439 0.28495L28.0742 0.243875ZM28.5255 1.18077C27.9916 3.20683 27.4608 5.23288 26.9333 7.25894L26.8576 7.54938L26.5646 7.61499C24.4434 8.08999 22.3929 8.84452 20.4656 9.85932L20.1971 10.0007L14.8444 6.17961C12.9026 7.48613 11.1112 9.00834 9.50376 10.7179C10.3865 12.6237 11.2756 14.5312 12.171 16.4403L12.2973 16.7095L12.1175 16.9463C10.7922 18.6921 9.69946 20.6066 8.86738 22.6407L8.75301 22.9202L2.22907 23.451C1.56657 25.7222 1.16013 28.062 1.01754 30.4257L6.96545 33.2022L6.97769 33.5012C7.06761 35.696 7.44177 37.8695 8.09055 39.9658L8.17811 40.2488L7.96886 40.4585C6.48531 41.9453 5.00493 43.4304 3.52772 44.914C4.45862 47.0788 5.62799 49.1304 7.01358 51.0299L13.3107 49.2892L13.5143 49.5132C14.9847 51.1312 16.6565 52.5492 18.4877 53.7316L18.7376 53.8929L18.7107 54.1891C18.5202 56.2876 18.3314 58.3876 18.1441 60.4893C20.2326 61.5344 22.4303 62.3392 24.696 62.8888C25.116 62.2763 25.5362 61.6648 25.9561 61.0537C26.7244 59.9356 27.4919 58.8187 28.2561 57.6988L28.4266 57.4489L28.7266 57.4882C30.8822 57.7708 33.0648 57.7708 35.2204 57.4882L35.5204 57.4489L35.6909 57.6988C36.4551 58.8187 37.2226 59.9356 37.9909 61.0538C38.4108 61.6649 38.831 62.2763 39.251 62.8888C41.5167 62.3392 43.7144 61.5344 45.8028 60.4893C45.6156 58.3908 45.4267 56.2907 45.2363 54.189L45.2094 53.8925L45.4598 53.7312C47.3042 52.5434 48.9883 51.1183 50.47 49.4915L50.6735 49.268L56.9703 51.0085C58.3561 49.1089 59.5255 47.057 60.4565 44.892C58.9826 43.4057 57.5024 41.921 56.0158 40.4379L55.805 40.2276L55.8937 39.9434C56.5478 37.8477 56.9271 35.6743 57.0221 33.4787L57.035 33.1806L62.9819 30.4044C62.8379 28.0479 62.4316 25.7154 61.7707 23.451L55.2471 22.9203L55.1325 22.6411C54.2997 20.6107 53.2069 18.6998 51.8825 16.9572L51.7025 16.7205L51.8286 16.4513C52.7208 14.5452 53.6099 12.6376 54.4958 10.7284C52.8883 9.01878 51.0969 7.49654 49.1549 6.19001C47.4489 7.40452 45.7519 8.61476 44.0503 9.83452L43.8026 10.0121L43.5332 9.86946C41.6129 8.85275 39.5694 8.09474 37.4548 7.61467L37.1625 7.5483L37.0874 7.2582C36.5632 5.23242 36.0327 3.20662 35.4959 1.18083C33.1797 0.917938 30.8417 0.917918 28.5255 1.18077Z" fill="white"/>
<path opacity="0.3" d="M50.6175 32.3633C50.6175 42.7543 42.288 51.1779 32.013 51.1779C21.7381 51.1779 13.4086 42.7543 13.4086 32.3633C13.4086 21.9724 21.7381 13.5488 32.013 13.5488C42.288 13.5488 50.6175 21.9724 50.6175 32.3633Z" fill="#231F20"/>
<path fill-rule="evenodd" clip-rule="evenodd" d="M20.7801 32.3635L25.6991 27.384L24.9988 26.6929L19.3968 32.3639L24.999 38.0294L25.699 37.3379L20.7801 32.3635Z" fill="white"/>
<path fill-rule="evenodd" clip-rule="evenodd" d="M39.0165 26.6924L44.6244 32.3636L39.0164 38.0292L38.3168 37.3374L43.2404 32.3632L38.3166 27.3838L39.0165 26.6924Z" fill="white"/>
<path fill-rule="evenodd" clip-rule="evenodd" d="M28.2722 40.6699L34.8307 23.6963L35.7487 24.0507L29.1902 41.0243L28.2722 40.6699Z" fill="white"/>
</g>
<defs>
<clipPath id="clip0_421_490">
<rect width="64" height="64" fill="white"/>
</clipPath>
</defs>
</svg>
