<svg width="64" height="64" viewBox="0 0 64 64" fill="none" xmlns="http://www.w3.org/2000/svg">
<g clip-path="url(#clip0_10_1506)">
<path opacity="0.15" d="M63.5001 50.5167H0.500122V58.0691H63.5001V50.5167Z" fill="#183A9E"/>
<path d="M64.0001 58.5692H9.15527e-05V5.43103H64.0001V58.5692ZM1.00009 57.5692H63.0001V6.43103H1.00009V57.5692Z" fill="#204ECF"/>
<path d="M21.715 38.596L16.488 31.999L21.715 25.403L22.5 26.024L17.764 31.999L22.5 37.975L21.715 38.596Z" fill="#204ECF"/>
<path d="M41.995 38.6059L41.228 37.9649L46.222 31.9989L41.228 26.0349L41.995 25.3929L47.526 31.9989L41.995 38.6059Z" fill="#204ECF"/>
<path d="M36.5767 18.5094L26.4875 45.136L27.423 45.4905L37.5122 18.8639L36.5767 18.5094Z" fill="#204ECF"/>
<path d="M12.1574 13.651C13.0894 13.651 13.8449 12.8955 13.8449 11.9635C13.8449 11.0315 13.0894 10.276 12.1574 10.276C11.2255 10.276 10.4699 11.0315 10.4699 11.9635C10.4699 12.8955 11.2255 13.651 12.1574 13.651Z" fill="#204ECF"/>
<path d="M6.53244 13.651C7.46442 13.651 8.21994 12.8955 8.21994 11.9635C8.21994 11.0315 7.46442 10.276 6.53244 10.276C5.60046 10.276 4.84494 11.0315 4.84494 11.9635C4.84494 12.8955 5.60046 13.651 6.53244 13.651Z" fill="#204ECF"/>
<path d="M17.7824 13.651C18.7144 13.651 19.4699 12.8955 19.4699 11.9635C19.4699 11.0315 18.7144 10.276 17.7824 10.276C16.8505 10.276 16.0949 11.0315 16.0949 11.9635C16.0949 12.8955 16.8505 13.651 17.7824 13.651Z" fill="#204ECF"/>
</g>
<defs>
<clipPath id="clip0_10_1506">
<rect width="64.0001" height="64" fill="white"/>
</clipPath>
</defs>
</svg>
