<svg width="64" height="65" viewBox="0 0 64 65" fill="none" xmlns="http://www.w3.org/2000/svg">
<g clip-path="url(#clip0_10_1611)">
<path opacity="0.3" d="M63.5002 51.0553H0.500244V58.6077H63.5002V51.0553Z" fill="#231F20"/>
<path d="M64.0002 59.1078H0.000213623V5.9696H64.0002V59.1078ZM1.00021 58.1078H63.0002V6.9696H1.00021V58.1078Z" fill="white"/>
<path d="M21.7151 39.1345L16.4881 32.5375L21.7151 25.9415L22.5001 26.5625L17.7641 32.5375L22.5001 38.5135L21.7151 39.1345Z" fill="white"/>
<path d="M41.9951 39.1445L41.2281 38.5035L46.2221 32.5375L41.2281 26.5735L41.9951 25.9315L47.5261 32.5375L41.9951 39.1445Z" fill="white"/>
<path d="M36.5768 19.048L26.4876 45.6746L27.4232 46.0291L37.5123 19.4025L36.5768 19.048Z" fill="white"/>
<path d="M12.1576 14.1896C13.0895 14.1896 13.8451 13.4341 13.8451 12.5021C13.8451 11.5701 13.0895 10.8146 12.1576 10.8146C11.2256 10.8146 10.4701 11.5701 10.4701 12.5021C10.4701 13.4341 11.2256 14.1896 12.1576 14.1896Z" fill="white"/>
<path d="M6.53256 14.1896C7.46454 14.1896 8.22006 13.4341 8.22006 12.5021C8.22006 11.5701 7.46454 10.8146 6.53256 10.8146C5.60058 10.8146 4.84506 11.5701 4.84506 12.5021C4.84506 13.4341 5.60058 14.1896 6.53256 14.1896Z" fill="white"/>
<path d="M17.7826 14.1896C18.7145 14.1896 19.4701 13.4341 19.4701 12.5021C19.4701 11.5701 18.7145 10.8146 17.7826 10.8146C16.8506 10.8146 16.0951 11.5701 16.0951 12.5021C16.0951 13.4341 16.8506 14.1896 17.7826 14.1896Z" fill="white"/>
</g>
<defs>
<clipPath id="clip0_10_1611">
<rect width="64.0001" height="64" fill="white" transform="translate(0.00012207 0.538574)"/>
</clipPath>
</defs>
</svg>
