<svg width="64" height="64" viewBox="0 0 64 64" fill="none" xmlns="http://www.w3.org/2000/svg">
<g clip-path="url(#clip0_3368_87671)">
<path opacity="0.15" d="M63.5 57.7676H0.5V63.5H63.5V57.7676Z" fill="#183A9E"/>
<path opacity="0.15" d="M32 10.9502C34.8857 10.9502 37.2251 8.61087 37.2251 5.72512C37.2251 2.83937 34.8857 0.5 32 0.5C29.1142 0.5 26.7748 2.83937 26.7748 5.72512C26.7748 8.61087 29.1142 10.9502 32 10.9502Z" fill="#183A9E"/>
<path opacity="0.15" d="M31.9999 10.9504C29.2019 10.9504 26.5186 12.0619 24.5401 14.0404C22.5617 16.0189 21.4502 18.7022 21.4502 21.5002H42.5497C42.5497 20.1148 42.2769 18.7429 41.7467 17.463C41.2165 16.183 40.4394 15.02 39.4598 14.0403C38.4801 13.0607 37.3171 12.2836 36.0372 11.7534C34.7572 11.2233 33.3853 10.9504 31.9999 10.9504Z" fill="#183A9E"/>
<path d="M32 11.4502C30.8677 11.4502 29.7608 11.1144 28.8193 10.4853C27.8778 9.85627 27.144 8.96213 26.7107 7.916C26.2774 6.86988 26.164 5.71875 26.3849 4.60819C26.6058 3.49763 27.1511 2.47752 27.9517 1.67685C28.7524 0.876176 29.7725 0.330913 30.8831 0.110009C31.9937 -0.110895 33.1448 0.0024806 34.1909 0.4358C35.237 0.869119 36.1312 1.60292 36.7603 2.54441C37.3893 3.4859 37.7251 4.59278 37.7251 5.7251C37.7234 7.24296 37.1196 8.69814 36.0463 9.77143C34.973 10.8447 33.5179 11.4485 32 11.4502ZM32 1C31.0655 1 30.1519 1.27712 29.3749 1.79633C28.5978 2.31553 27.9922 3.05349 27.6346 3.91689C27.2769 4.78028 27.1834 5.73034 27.3657 6.64692C27.548 7.5635 27.998 8.40544 28.6589 9.06625C29.3197 9.72707 30.1616 10.1771 31.0782 10.3594C31.9948 10.5417 32.9448 10.4482 33.8082 10.0905C34.6716 9.73289 35.4096 9.12727 35.9288 8.35023C36.448 7.57319 36.7251 6.65964 36.7251 5.7251C36.7237 4.47236 36.2254 3.27133 35.3396 2.3855C34.4538 1.49968 33.2527 1.00141 32 1Z" fill="#204ECF"/>
<path d="M43.0498 21.5H42.0498C42.0498 18.8346 40.991 16.2784 39.1063 14.3937C37.2216 12.509 34.6654 11.4502 32 11.4502C29.3346 11.4502 26.7784 12.509 24.8937 14.3937C23.009 16.2784 21.9502 18.8346 21.9502 21.5H20.9502C20.9502 18.5694 22.1144 15.7588 24.1866 13.6866C26.2588 11.6144 29.0694 10.4502 32 10.4502C34.9306 10.4502 37.7411 11.6144 39.8134 13.6866C41.8856 15.7588 43.0498 18.5694 43.0498 21.5Z" fill="#204ECF"/>
<path d="M64 64H0V21H64V64ZM1 63H63V22H1V63Z" fill="#204ECF"/>
<path d="M21.715 49.096L16.488 42.5L21.715 35.903L22.5 36.524L17.764 42.5L22.5 48.475L21.715 49.096Z" fill="#204ECF"/>
<path d="M41.995 49.106L41.228 48.465L46.222 42.5L41.228 36.535L41.995 35.893L47.526 42.5L41.995 49.106Z" fill="#204ECF"/>
<path d="M36.5765 29.0094L26.4874 55.636L27.4229 55.9905L37.5121 29.3639L36.5765 29.0094Z" fill="#204ECF"/>
</g>
<defs>
<clipPath id="clip0_3368_87671">
<rect width="64" height="64" fill="white"/>
</clipPath>
</defs>
</svg>
