<svg width="64" height="64" viewBox="0 0 64 64" fill="none" xmlns="http://www.w3.org/2000/svg">
<g clip-path="url(#clip0_10_1518)">
<path opacity="0.15" d="M60.3283 26.5647H39.5311C37.7794 26.5647 36.3594 27.9847 36.3594 29.7364V60.3283C36.3594 62.08 37.7794 63.5 39.5311 63.5H60.3283C62.08 63.5 63.5 62.08 63.5 60.3283V29.7364C63.5 27.9847 62.08 26.5647 60.3283 26.5647Z" fill="#183A9E"/>
<path opacity="0.15" d="M29.9862 51.3184H20.4435V56.8606H29.9862V51.3184Z" fill="#183A9E"/>
<path opacity="0.15" d="M23.1373 0.5H10.4635C9.01376 0.5 7.8385 1.67526 7.8385 3.12501V29.3751C7.8385 30.8249 9.01376 32.0001 10.4635 32.0001H23.1373C24.587 32.0001 25.7623 30.8249 25.7623 29.3751V3.12501C25.7623 1.67526 24.587 0.5 23.1373 0.5Z" fill="#183A9E"/>
<path d="M50.4297 26.5645H49.4297V15.7178C49.4294 15.4135 49.3084 15.1219 49.0932 14.9067C48.8781 14.6916 48.5864 14.5706 48.2822 14.5703H25.7622V13.5703H48.2822C48.8516 13.5709 49.3975 13.7973 49.8001 14.1999C50.2027 14.6025 50.4291 15.1484 50.4297 15.7178V26.5645Z" fill="#204ECF"/>
<path d="M1 44.8975H0V15.7178C0.000656368 15.1484 0.227117 14.6026 0.629701 14.2C1.03229 13.7974 1.57812 13.571 2.14746 13.5703H7.83838V14.5703H2.14746C1.84323 14.5706 1.55155 14.6916 1.33643 14.9067C1.1213 15.1219 1.00031 15.4135 1 15.7178V44.8975Z" fill="#204ECF"/>
<path d="M30.4863 51.3184H29.4863V60.207H30.4863V51.3184Z" fill="#204ECF"/>
<path d="M20.9434 51.3184H19.9434V60.207H20.9434V51.3184Z" fill="#204ECF"/>
<path d="M39.5313 63H11.874V64H39.5313V63Z" fill="#204ECF"/>
<path d="M36.3594 51.8184H2.14746C1.57812 51.8177 1.03229 51.5912 0.629701 51.1887C0.227117 50.7861 0.000656368 50.2402 0 49.6709L0 44.3975H36.3594V45.3975H1V49.6709C1.00031 49.9751 1.1213 50.2668 1.33643 50.4819C1.55155 50.6971 1.84323 50.818 2.14746 50.8184H36.3594V51.8184Z" fill="#204ECF"/>
<path d="M60.3281 64H39.5312C38.5577 63.999 37.6244 63.6118 36.936 62.9234C36.2476 62.235 35.8604 61.3017 35.8594 60.3281V29.7363C35.8604 28.7628 36.2476 27.8294 36.936 27.1411C37.6244 26.4527 38.5577 26.0655 39.5312 26.0645H60.3281C61.3016 26.0656 62.2349 26.4528 62.9233 27.1411C63.6117 27.8295 63.9989 28.7628 64 29.7363V60.3281C63.9989 61.3016 63.6117 62.2349 62.9233 62.9233C62.2349 63.6117 61.3016 63.9989 60.3281 64V64ZM39.5312 27.0645C38.8229 27.0653 38.1438 27.3471 37.6429 27.848C37.142 28.3489 36.8602 29.028 36.8594 29.7363V60.3281C36.8602 61.0365 37.142 61.7156 37.6429 62.2165C38.1438 62.7174 38.8229 62.9992 39.5312 63H60.3281C61.0365 62.9992 61.7157 62.7175 62.2166 62.2166C62.7175 61.7157 62.9992 61.0365 63 60.3281V29.7363C62.9992 29.0279 62.7175 28.3488 62.2166 27.8479C61.7157 27.347 61.0365 27.0652 60.3281 27.0645H39.5312Z" fill="#204ECF"/>
<path d="M23.1372 32.5H10.4634C9.63486 32.4991 8.84055 32.1695 8.2547 31.5837C7.66885 30.9978 7.33931 30.2035 7.33838 29.375V3.125C7.33931 2.29648 7.66885 1.50217 8.2547 0.91632C8.84055 0.330471 9.63486 0.000931667 10.4634 0L23.1372 0C23.9657 0.000934308 24.76 0.330474 25.3459 0.916323C25.9317 1.50217 26.2613 2.29649 26.2622 3.125V29.375C26.2613 30.2035 25.9317 30.9978 25.3459 31.5837C24.76 32.1695 23.9657 32.4991 23.1372 32.5V32.5ZM10.4634 1C9.89997 1.00059 9.35981 1.22466 8.96142 1.62304C8.56303 2.02143 8.33896 2.56159 8.33838 3.125V29.375C8.33896 29.9384 8.56303 30.4786 8.96142 30.877C9.35981 31.2753 9.89997 31.4994 10.4634 31.5H23.1372C23.7006 31.4994 24.2408 31.2753 24.6392 30.877C25.0375 30.4786 25.2616 29.9384 25.2622 29.375V3.125C25.2616 2.5616 25.0375 2.02143 24.6392 1.62305C24.2408 1.22466 23.7006 1.00059 23.1372 1H10.4634Z" fill="#204ECF"/>
</g>
<defs>
<clipPath id="clip0_10_1518">
<rect width="64" height="64" fill="white"/>
</clipPath>
</defs>
</svg>
