<svg width="64" height="65" viewBox="0 0 64 65" fill="none" xmlns="http://www.w3.org/2000/svg">
<g clip-path="url(#clip0_10_1623)">
<path opacity="0.3" d="M60.3283 27.1033H39.5311C37.7794 27.1033 36.3594 28.5233 36.3594 30.275V60.8669C36.3594 62.6185 37.7794 64.0386 39.5311 64.0386H60.3283C62.08 64.0386 63.5 62.6185 63.5 60.8669V30.275C63.5 28.5233 62.08 27.1033 60.3283 27.1033Z" fill="#231F20"/>
<path opacity="0.3" d="M29.9862 51.8569H20.4435V57.3992H29.9862V51.8569Z" fill="#231F20"/>
<path opacity="0.3" d="M23.1373 1.03857H10.4635C9.01376 1.03857 7.8385 2.21383 7.8385 3.66358V29.9137C7.8385 31.3634 9.01376 32.5387 10.4635 32.5387H23.1373C24.587 32.5387 25.7623 31.3634 25.7623 29.9137V3.66358C25.7623 2.21383 24.587 1.03857 23.1373 1.03857Z" fill="#231F20"/>
<path d="M50.4297 27.103H49.4297V16.2563C49.4294 15.9521 49.3084 15.6604 49.0932 15.4453C48.8781 15.2302 48.5864 15.1092 48.2822 15.1089H25.7622V14.1089H48.2822C48.8516 14.1095 49.3975 14.3359 49.8001 14.7385C50.2027 15.1411 50.4291 15.687 50.4297 16.2563V27.103Z" fill="white"/>
<path d="M1 45.436H0V16.2563C0.000656368 15.687 0.227117 15.1412 0.629701 14.7386C1.03229 14.336 1.57812 14.1095 2.14746 14.1089H7.83838V15.1089H2.14746C1.84323 15.1092 1.55155 15.2302 1.33643 15.4453C1.1213 15.6604 1.00031 15.9521 1 16.2563V45.436Z" fill="white"/>
<path d="M30.4863 51.8569H29.4863V60.7456H30.4863V51.8569Z" fill="white"/>
<path d="M20.9434 51.8569H19.9434V60.7456H20.9434V51.8569Z" fill="white"/>
<path d="M39.5313 63.5386H11.874V64.5386H39.5313V63.5386Z" fill="white"/>
<path d="M36.3594 52.3569H2.14746C1.57812 52.3563 1.03229 52.1298 0.629701 51.7272C0.227117 51.3246 0.000656368 50.7788 0 50.2095L0 44.936H36.3594V45.936H1V50.2095C1.00031 50.5137 1.1213 50.8054 1.33643 51.0205C1.55155 51.2356 1.84323 51.3566 2.14746 51.3569H36.3594V52.3569Z" fill="white"/>
<path d="M60.3281 64.5386H39.5312C38.5577 64.5376 37.6244 64.1504 36.936 63.462C36.2476 62.7736 35.8604 61.8402 35.8594 60.8667V30.2749C35.8604 29.3014 36.2476 28.368 36.936 27.6796C37.6244 26.9912 38.5577 26.6041 39.5312 26.603H60.3281C61.3016 26.6041 62.2349 26.9914 62.9233 27.6797C63.6117 28.3681 63.9989 29.3014 64 30.2749V60.8667C63.9989 61.8402 63.6117 62.7735 62.9233 63.4619C62.2349 64.1503 61.3016 64.5375 60.3281 64.5386V64.5386ZM39.5312 27.603C38.8229 27.6039 38.1438 27.8856 37.6429 28.3865C37.142 28.8874 36.8602 29.5665 36.8594 30.2749V60.8667C36.8602 61.5751 37.142 62.2542 37.6429 62.7551C38.1438 63.256 38.8229 63.5377 39.5312 63.5386H60.3281C61.0365 63.5378 61.7157 63.2561 62.2166 62.7552C62.7175 62.2543 62.9992 61.5751 63 60.8667V30.2749C62.9992 29.5665 62.7175 28.8874 62.2166 28.3864C61.7157 27.8855 61.0365 27.6038 60.3281 27.603H39.5312Z" fill="white"/>
<path d="M23.1372 33.0386H10.4634C9.63486 33.0376 8.84055 32.7081 8.2547 32.1223C7.66885 31.5364 7.33931 30.7421 7.33838 29.9136V3.66357C7.33931 2.83506 7.66885 2.04074 8.2547 1.45489C8.84055 0.869045 9.63486 0.539506 10.4634 0.538574L23.1372 0.538574C23.9657 0.539509 24.76 0.869049 25.3459 1.4549C25.9317 2.04075 26.2613 2.83506 26.2622 3.66357V29.9136C26.2613 30.7421 25.9317 31.5364 25.3459 32.1223C24.76 32.7081 23.9657 33.0376 23.1372 33.0386V33.0386ZM10.4634 1.53857C9.89997 1.53916 9.35981 1.76323 8.96142 2.16162C8.56303 2.56001 8.33896 3.10017 8.33838 3.66357V29.9136C8.33896 30.477 8.56303 31.0171 8.96142 31.4155C9.35981 31.8139 9.89997 32.038 10.4634 32.0386H23.1372C23.7006 32.038 24.2408 31.8139 24.6392 31.4155C25.0375 31.0171 25.2616 30.477 25.2622 29.9136V3.66357C25.2616 3.10017 25.0375 2.56001 24.6392 2.16162C24.2408 1.76323 23.7006 1.53916 23.1372 1.53857H10.4634Z" fill="white"/>
</g>
<defs>
<clipPath id="clip0_10_1623">
<rect width="64" height="64" fill="white" transform="translate(0 0.538574)"/>
</clipPath>
</defs>
</svg>
