<svg width="64" height="64" viewBox="0 0 64 64" fill="none" xmlns="http://www.w3.org/2000/svg">
<g clip-path="url(#clip0_1182_652)">
<path opacity="0.15" d="M22.6 24.17C22.28 24.38 21.9 24.5 21.5 24.5C20.4 24.5 19.5 23.6 19.5 22.5C19.5 22.33 19.52 22.16 19.57 22H4.43001C4.47001 22.16 4.50001 22.33 4.50001 22.5C4.50001 23.24 4.10001 23.87 3.51001 24.22L29.78 50.49C30.11 49.94 30.68 49.57 31.34 49.52L22.6 24.17Z" fill="#183A9C"/>
<path opacity="0.15" d="M58.5 22.5C58.5 22.33 58.53 22.16 58.57 22H43.43C43.48 22.16 43.5 22.33 43.5 22.5C43.5 23.6 42.6 24.5 41.5 24.5C41.1 24.5 40.72 24.38 40.4 24.17L31.66 49.52C32.32 49.57 32.89 49.94 33.22 50.49L59.49 24.22C58.9 23.87 58.5 23.24 58.5 22.5Z" fill="#183A9C"/>
<path opacity="0.15" d="M41.36 20.51L37.59 9.18C37.28 9.38 36.91 9.5 36.51 9.5C35.41 9.5 34.51 8.6 34.51 7.5C34.51 7.33 34.54 7.16 34.58 7H28.44C28.48 7.16 28.51 7.33 28.51 7.5C28.51 8.6 27.61 9.5 26.51 9.5C26.11 9.5 25.74 9.38 25.43 9.18L21.66 20.51C22.7 20.58 23.52 21.45 23.52 22.5C23.52 22.67 23.5 22.84 23.45 23H39.59C39.54 22.84 39.52 22.67 39.52 22.5C39.52 21.45 40.34 20.58 41.38 20.51H41.36Z" fill="#183A9C"/>
<path d="M4.96997 24.9702L29.03 49.0302" stroke="#204ECC" stroke-miterlimit="10"/>
<path d="M15.03 9.97021L4.96997 20.0302" stroke="#204ECC" stroke-miterlimit="10"/>
<path d="M23 7.5H21" stroke="#204ECC" stroke-miterlimit="10"/>
<path d="M33 7.5H30" stroke="#204ECC" stroke-miterlimit="10"/>
<path d="M42 7.5H40" stroke="#204ECC" stroke-miterlimit="10"/>
<path d="M58.03 20.0302L47.97 9.97021" stroke="#204ECC" stroke-miterlimit="10"/>
<path d="M33.97 49.0302L58.03 24.9702" stroke="#204ECC" stroke-miterlimit="10"/>
<path d="M6 22.5H18" stroke="#204ECC" stroke-miterlimit="10"/>
<path d="M45 22.5H57" stroke="#204ECC" stroke-miterlimit="10"/>
<path d="M25 22.5H38" stroke="#204ECC" stroke-miterlimit="10"/>
<path d="M17 63.5H46" stroke="#204ECC" stroke-miterlimit="10"/>
<path d="M2.5 24.5C3.60457 24.5 4.5 23.6046 4.5 22.5C4.5 21.3954 3.60457 20.5 2.5 20.5C1.39543 20.5 0.5 21.3954 0.5 22.5C0.5 23.6046 1.39543 24.5 2.5 24.5Z" stroke="#204ECC" stroke-miterlimit="10"/>
<path d="M21.5 24.5C22.6046 24.5 23.5 23.6046 23.5 22.5C23.5 21.3954 22.6046 20.5 21.5 20.5C20.3954 20.5 19.5 21.3954 19.5 22.5C19.5 23.6046 20.3954 24.5 21.5 24.5Z" stroke="#204ECC" stroke-miterlimit="10"/>
<path d="M17.5 9.5C18.6046 9.5 19.5 8.60457 19.5 7.5C19.5 6.39543 18.6046 5.5 17.5 5.5C16.3954 5.5 15.5 6.39543 15.5 7.5C15.5 8.60457 16.3954 9.5 17.5 9.5Z" stroke="#204ECC" stroke-miterlimit="10"/>
<path d="M26.5 9.5C27.6046 9.5 28.5 8.60457 28.5 7.5C28.5 6.39543 27.6046 5.5 26.5 5.5C25.3954 5.5 24.5 6.39543 24.5 7.5C24.5 8.60457 25.3954 9.5 26.5 9.5Z" stroke="#204ECC" stroke-miterlimit="10"/>
<path d="M45.5 9.5C46.6046 9.5 47.5 8.60457 47.5 7.5C47.5 6.39543 46.6046 5.5 45.5 5.5C44.3954 5.5 43.5 6.39543 43.5 7.5C43.5 8.60457 44.3954 9.5 45.5 9.5Z" stroke="#204ECC" stroke-miterlimit="10"/>
<path d="M36.5 9.5C37.6046 9.5 38.5 8.60457 38.5 7.5C38.5 6.39543 37.6046 5.5 36.5 5.5C35.3954 5.5 34.5 6.39543 34.5 7.5C34.5 8.60457 35.3954 9.5 36.5 9.5Z" stroke="#204ECC" stroke-miterlimit="10"/>
<path d="M60.5 24.5C61.6046 24.5 62.5 23.6046 62.5 22.5C62.5 21.3954 61.6046 20.5 60.5 20.5C59.3954 20.5 58.5 21.3954 58.5 22.5C58.5 23.6046 59.3954 24.5 60.5 24.5Z" stroke="#204ECC" stroke-miterlimit="10"/>
<path d="M41.5 24.5C42.6046 24.5 43.5 23.6046 43.5 22.5C43.5 21.3954 42.6046 20.5 41.5 20.5C40.3954 20.5 39.5 21.3954 39.5 22.5C39.5 23.6046 40.3954 24.5 41.5 24.5Z" stroke="#204ECC" stroke-miterlimit="10"/>
<path d="M31.5 53.5C32.6046 53.5 33.5 52.6046 33.5 51.5C33.5 50.3954 32.6046 49.5 31.5 49.5C30.3954 49.5 29.5 50.3954 29.5 51.5C29.5 52.6046 30.3954 53.5 31.5 53.5Z" stroke="#204ECC" stroke-miterlimit="10"/>
<path d="M22.64 25.8101L30.36 48.1901" stroke="#204ECC" stroke-miterlimit="10"/>
<path d="M22.61 19.1798L25.39 10.8198" stroke="#204ECC" stroke-miterlimit="10"/>
<path d="M37.61 10.8198L40.39 19.1798" stroke="#204ECC" stroke-miterlimit="10"/>
<path d="M40.36 25.8101L32.64 48.1901" stroke="#204ECC" stroke-miterlimit="10"/>
<path d="M32.51 53.2199L32.68 53.3899L32.6 53.1699C32.6 53.1699 32.54 53.1999 32.51 53.2199Z" fill="#204ECD"/>
<path d="M30.3199 53.3899L30.4899 53.2199C30.4899 53.2199 30.4299 53.1899 30.3999 53.1699L30.3199 53.3899Z" fill="#204ECD"/>
</g>
<defs>
<clipPath id="clip0_1182_652">
<rect width="64" height="64" fill="white"/>
</clipPath>
</defs>
</svg>
