<svg width="65" height="65" viewBox="0 0 65 65" fill="none" xmlns="http://www.w3.org/2000/svg">
<g clip-path="url(#clip0_10_1533)">
<path opacity="0.15" d="M26.6007 45.0662C36.7989 45.0662 45.0662 36.7989 45.0662 26.6007C45.0662 16.4024 36.7989 8.13513 26.6007 8.13513C16.4024 8.13513 8.13513 16.4024 8.13513 26.6007C8.13513 36.7989 16.4024 45.0662 26.6007 45.0662Z" fill="#183A9E"/>
<path d="M26.6007 53.2012C21.3396 53.2012 16.1966 51.6411 11.8222 48.7182C7.44773 45.7953 4.03826 41.6408 2.02492 36.7802C0.0115874 31.9196 -0.515194 26.5711 0.511195 21.4111C1.53758 16.2511 4.07105 11.5113 7.79121 7.79114C11.5114 4.07098 16.2511 1.53752 21.4111 0.511134C26.5712 -0.515255 31.9197 0.0115263 36.7803 2.02486C41.6409 4.0382 45.7953 7.44767 48.7183 11.8221C51.6412 16.1966 53.2013 21.3395 53.2013 26.6006C53.1932 33.6531 50.3881 40.4144 45.4013 45.4012C40.4144 50.388 33.6531 53.1932 26.6007 53.2012ZM26.6007 1.00002C21.5374 1.00002 16.5877 2.50147 12.3777 5.31449C8.16775 8.12752 4.88645 12.1258 2.9488 16.8037C1.01116 21.4816 0.504177 26.629 1.49198 31.595C2.47978 36.5611 4.918 41.1227 8.49831 44.703C12.0786 48.2833 16.6402 50.7215 21.6062 51.7093C26.5723 52.6971 31.7197 52.1901 36.3976 50.2525C41.0755 48.3148 45.0737 45.0335 47.8868 40.8235C50.6998 36.6135 52.2013 31.6639 52.2013 26.6006C52.1936 19.8133 49.4939 13.3061 44.6945 8.50674C39.8952 3.70736 33.388 1.0077 26.6007 1.00002V1.00002Z" fill="#204ECF"/>
<path d="M58.748 64.207L42.174 47.6329L42.881 46.9259L58.748 62.7929L62.793 58.748L46.926 42.881L47.633 42.174L64.207 58.748L58.748 64.207Z" fill="#204ECF"/>
<path d="M20.0152 34.3737H16.6446C15.9477 34.3728 15.2797 34.0957 14.7869 33.6029C14.2942 33.1102 14.017 32.4421 14.0162 31.7452V21.4562C14.017 20.7593 14.2942 20.0913 14.7869 19.5985C15.2797 19.1058 15.9477 18.8286 16.6446 18.8278H20.0152C20.712 18.8286 21.3801 19.1058 21.8729 19.5985C22.3656 20.0913 22.6428 20.7593 22.6436 21.4562V31.7452C22.6428 32.4421 22.3656 33.1102 21.8729 33.6029C21.3801 34.0957 20.712 34.3728 20.0152 34.3737ZM16.6446 19.8278C16.2128 19.8282 15.7989 20 15.4936 20.3052C15.1884 20.6105 15.0166 21.0244 15.0162 21.4562V31.7452C15.0166 32.177 15.1884 32.5909 15.4936 32.8962C15.7989 33.2015 16.2128 33.3732 16.6446 33.3737H20.0152C20.4469 33.3732 20.8609 33.2015 21.1661 32.8962C21.4714 32.5909 21.6431 32.177 21.6436 31.7452V21.4562C21.6431 21.0244 21.4714 20.6105 21.1661 20.3052C20.8609 20 20.4469 19.8282 20.0152 19.8278H16.6446Z" fill="#204ECF"/>
<path d="M38.6851 33.3737H28.9288V34.3737H38.6851V33.3737Z" fill="#204ECF"/>
<path d="M34.307 33.874H33.307V19.828H28.929V18.828H34.307V33.874Z" fill="#204ECF"/>
</g>
<defs>
<clipPath id="clip0_10_1533">
<rect width="64.2071" height="64.2071" fill="white"/>
</clipPath>
</defs>
</svg>
