<svg width="65" height="65" viewBox="0 0 65 65" fill="none" xmlns="http://www.w3.org/2000/svg">
<g clip-path="url(#clip0_10_1638)">
<path opacity="0.3" d="M26.6007 45.6047C36.7989 45.6047 45.0662 37.3375 45.0662 27.1392C45.0662 16.941 36.7989 8.67371 26.6007 8.67371C16.4024 8.67371 8.13513 16.941 8.13513 27.1392C8.13513 37.3375 16.4024 45.6047 26.6007 45.6047Z" fill="#231F20"/>
<path d="M26.6007 53.7398C21.3396 53.7398 16.1966 52.1797 11.8222 49.2568C7.44773 46.3339 4.03826 42.1794 2.02492 37.3188C0.0115874 32.4582 -0.515194 27.1097 0.511195 21.9497C1.53758 16.7897 4.07105 12.0499 7.79121 8.32972C11.5114 4.60956 16.2511 2.0761 21.4111 1.04971C26.5712 0.0233192 31.9197 0.550101 36.7803 2.56344C41.6409 4.57677 45.7953 7.98624 48.7183 12.3607C51.6412 16.7351 53.2013 21.8781 53.2013 27.1392C53.1932 34.1916 50.3881 40.9529 45.4013 45.9398C40.4144 50.9266 33.6531 53.7317 26.6007 53.7398ZM26.6007 1.5386C21.5374 1.53859 16.5877 3.04004 12.3777 5.85307C8.16775 8.6661 4.88645 12.6644 2.9488 17.3423C1.01116 22.0202 0.504177 27.1676 1.49198 32.1336C2.47978 37.0996 4.918 41.6612 8.49831 45.2415C12.0786 48.8218 16.6402 51.2601 21.6062 52.2479C26.5723 53.2357 31.7197 52.7287 36.3976 50.791C41.0755 48.8534 45.0737 45.5721 47.8868 41.3621C50.6998 37.1521 52.2013 32.2025 52.2013 27.1392C52.1936 20.3518 49.4939 13.8447 44.6945 9.04532C39.8952 4.24594 33.388 1.54627 26.6007 1.5386V1.5386Z" fill="white"/>
<path d="M58.748 64.7455L42.174 48.1715L42.881 47.4645L58.748 63.3315L62.793 59.2865L46.926 43.4195L47.633 42.7125L64.207 59.2865L58.748 64.7455Z" fill="white"/>
<path d="M20.0152 34.9122H16.6446C15.9477 34.9114 15.2797 34.6342 14.7869 34.1415C14.2942 33.6487 14.017 32.9807 14.0162 32.2838V21.9948C14.017 21.2979 14.2942 20.6298 14.7869 20.1371C15.2797 19.6443 15.9477 19.3672 16.6446 19.3663H20.0152C20.712 19.3672 21.3801 19.6443 21.8729 20.1371C22.3656 20.6298 22.6428 21.2979 22.6436 21.9948V32.2838C22.6428 32.9807 22.3656 33.6487 21.8729 34.1415C21.3801 34.6342 20.712 34.9114 20.0152 34.9122ZM16.6446 20.3663C16.2128 20.3668 15.7989 20.5385 15.4936 20.8438C15.1884 21.1491 15.0166 21.563 15.0162 21.9948V32.2838C15.0166 32.7156 15.1884 33.1295 15.4936 33.4348C15.7989 33.74 16.2128 33.9118 16.6446 33.9122H20.0152C20.4469 33.9118 20.8609 33.74 21.1661 33.4348C21.4714 33.1295 21.6431 32.7156 21.6436 32.2838V21.9948C21.6431 21.563 21.4714 21.1491 21.1661 20.8438C20.8609 20.5385 20.4469 20.3668 20.0152 20.3663H16.6446Z" fill="white"/>
<path d="M38.6851 33.9122H28.9288V34.9122H38.6851V33.9122Z" fill="white"/>
<path d="M34.307 34.4126H33.307V20.3666H28.929V19.3666H34.307V34.4126Z" fill="white"/>
</g>
<defs>
<clipPath id="clip0_10_1638">
<rect width="64.2071" height="64.2071" fill="white" transform="translate(0 0.538574)"/>
</clipPath>
</defs>
</svg>
