<svg width="64" height="65" viewBox="0 0 64 65" fill="none" xmlns="http://www.w3.org/2000/svg">
<g clip-path="url(#clip0_10_1648)">
<path opacity="0.3" d="M32 51.4775C30.2047 51.476 28.43 51.8604 26.7962 52.6046C25.1624 53.3488 23.7076 54.4354 22.5305 55.7909C24.5269 58.0744 25.6255 61.0055 25.622 64.0386H44.5609C44.5609 62.3891 44.2361 60.7557 43.6048 59.2317C42.9736 57.7077 42.0484 56.323 40.882 55.1566C39.7156 53.9902 38.3309 53.065 36.8069 52.4337C35.2829 51.8024 33.6495 51.4775 32 51.4775V51.4775Z" fill="#231F20"/>
<path opacity="0.3" d="M32 49.0383C35.4359 49.0383 38.2213 46.253 38.2213 42.8171C38.2213 39.3812 35.4359 36.5958 32 36.5958C28.5641 36.5958 25.7787 39.3812 25.7787 42.8171C25.7787 46.253 28.5641 49.0383 32 49.0383Z" fill="#231F20"/>
<path d="M50.9385 49.5381C49.6092 49.538 48.3097 49.1437 47.2045 48.4051C46.0993 47.6665 45.2379 46.6168 44.7293 45.3886C44.2206 44.1605 44.0876 42.8091 44.347 41.5054C44.6064 40.2016 45.2465 39.004 46.1865 38.0641C47.1265 37.1242 48.3241 36.4841 49.6279 36.2248C50.9317 35.9655 52.2831 36.0986 53.5112 36.6074C54.7393 37.1161 55.789 37.9776 56.5275 39.0829C57.266 40.1881 57.6602 41.4876 57.6602 42.8169C57.6582 44.599 56.9494 46.3075 55.6893 47.5676C54.4291 48.8276 52.7205 49.5363 50.9385 49.5381ZM50.9385 37.0957C49.807 37.0958 48.7009 37.4314 47.7601 38.0601C46.8193 38.6888 46.0861 39.5824 45.6531 40.6278C45.2202 41.6733 45.107 42.8236 45.3278 43.9333C45.5486 45.0431 46.0935 46.0625 46.8936 46.8626C47.6938 47.6626 48.7132 48.2075 49.823 48.4282C50.9328 48.6489 52.0831 48.5356 53.1285 48.1025C54.1739 47.6695 55.0674 46.9362 55.696 45.9954C56.3246 45.0545 56.6602 43.9484 56.6602 42.8169C56.6585 41.3 56.0551 39.8456 54.9825 38.7731C53.9098 37.7005 52.4554 37.0972 50.9385 37.0957V37.0957Z" fill="white"/>
<path d="M64 64.0386H63C63 61.5827 62.2502 59.1853 60.851 57.167C59.4517 55.1486 57.4697 53.6056 55.1698 52.744C52.87 51.8825 50.362 51.7436 47.981 52.3458C45.6001 52.9481 43.4598 54.2628 41.8462 56.1143L41.0923 55.457C42.8397 53.4522 45.1575 52.0285 47.7358 51.3763C50.3142 50.7242 53.0301 50.8746 55.5206 51.8076C58.0112 52.7406 60.1575 54.4116 61.6728 56.5973C63.188 58.7829 63.9999 61.3791 64 64.0386V64.0386Z" fill="white"/>
<path d="M32 49.5381C30.6707 49.5381 29.3712 49.1439 28.2659 48.4054C27.1606 47.6668 26.2991 46.6171 25.7904 45.389C25.2817 44.1608 25.1486 42.8094 25.408 41.5057C25.6673 40.2019 26.3074 39.0043 27.2474 38.0643C28.1874 37.1243 29.385 36.4842 30.6888 36.2249C31.9925 35.9655 33.344 36.0986 34.5721 36.6073C35.8002 37.116 36.8499 37.9775 37.5885 39.0828C38.327 40.1881 38.7212 41.4876 38.7212 42.8169C38.7192 44.5988 38.0104 46.3072 36.7504 47.5673C35.4903 48.8273 33.782 49.5361 32 49.5381V49.5381ZM32 37.0957C30.8685 37.0957 29.7623 37.4312 28.8215 38.0599C27.8806 38.6886 27.1473 39.5821 26.7143 40.6275C26.2813 41.6729 26.168 42.8232 26.3887 43.933C26.6095 45.0428 27.1544 46.0623 27.9545 46.8624C28.7546 47.6625 29.7741 48.2074 30.8839 48.4282C31.9937 48.6489 33.144 48.5356 34.1894 48.1026C35.2348 47.6696 36.1283 46.9363 36.757 45.9954C37.3857 45.0546 37.7212 43.9484 37.7212 42.8169C37.7195 41.3001 37.1162 39.8458 36.0436 38.7733C34.9711 37.7007 33.5168 37.0974 32 37.0957V37.0957Z" fill="white"/>
<path d="M45.0605 64.0385H44.061C44.061 61.5823 43.311 59.1846 41.9114 57.1661C40.5119 55.1476 38.5294 53.6046 36.2291 52.7433C33.9288 51.882 31.4204 51.7436 29.0393 52.3465C26.6582 52.9494 24.5179 54.2649 22.9047 56.1171L22.1508 55.4599C23.8977 53.4541 26.2154 52.0294 28.794 51.3765C31.3725 50.7236 34.0889 50.8736 36.5799 51.8063C39.0709 52.7391 41.2177 54.4102 42.7332 56.5961C44.2488 58.7821 45.0607 61.3786 45.0605 64.0385V64.0385Z" fill="white"/>
<path d="M13.061 49.5381C11.7316 49.5381 10.4322 49.1439 9.32688 48.4054C8.22159 47.6668 7.36012 46.6171 6.85141 45.389C6.34269 44.1608 6.20959 42.8094 6.46893 41.5057C6.72827 40.2019 7.3684 39.0043 8.30838 38.0643C9.24835 37.1243 10.446 36.4842 11.7497 36.2249C13.0535 35.9655 14.4049 36.0986 15.6331 36.6073C16.8612 37.116 17.9109 37.9775 18.6494 39.0828C19.388 40.1881 19.7822 41.4876 19.7822 42.8169C19.7801 44.5988 19.0714 46.3072 17.8113 47.5673C16.5513 48.8273 14.8429 49.5361 13.061 49.5381V49.5381ZM13.061 37.0957C11.9294 37.0957 10.8233 37.4312 9.88245 38.0599C8.94161 38.6886 8.20831 39.5821 7.77529 40.6275C7.34226 41.6729 7.22896 42.8232 7.44972 43.933C7.67047 45.0428 8.21536 46.0623 9.01548 46.8624C9.81561 47.6625 10.835 48.2074 11.9448 48.4282C13.0546 48.6489 14.205 48.5356 15.2504 48.1026C16.2958 47.6696 17.1893 46.9363 17.818 45.9954C18.4466 45.0546 18.7822 43.9484 18.7822 42.8169C18.7805 41.3001 18.1772 39.8458 17.1046 38.7733C16.032 37.7007 14.5778 37.0974 13.061 37.0957V37.0957Z" fill="white"/>
<path d="M26.1221 64.0386H25.1221C25.1221 60.8398 23.8514 57.772 21.5895 55.5101C19.3276 53.2483 16.2598 51.9775 13.061 51.9775C9.86225 51.9775 6.79448 53.2483 4.5326 55.5101C2.27071 57.772 1 60.8398 1 64.0386H0C0 60.5746 1.37607 57.2524 3.82549 54.803C6.27491 52.3536 9.59703 50.9775 13.061 50.9775C16.525 50.9775 19.8472 52.3536 22.2966 54.803C24.746 57.2524 26.1221 60.5746 26.1221 64.0386V64.0386Z" fill="white"/>
<path d="M32.5 31.1958L24.8091 23.5049H20.252L12.561 31.1958V23.5049H6.33984V0.538574H57.6602V23.5049H51.4395V31.1958L43.7481 23.5049H32.5V31.1958ZM31.5 22.5049H44.1621L50.4395 28.7817V22.5049H56.6602V1.53857H7.33984V22.5049H13.561V28.7817L19.8379 22.5049H25.2231L31.5 28.7817V22.5049Z" fill="white"/>
</g>
<defs>
<clipPath id="clip0_10_1648">
<rect width="64.0001" height="64.0001" fill="white" transform="translate(0 0.538574)"/>
</clipPath>
</defs>
</svg>
