<svg width="64" height="64" viewBox="0 0 64 64" fill="none" xmlns="http://www.w3.org/2000/svg">
<g clip-path="url(#clip0_10_1543)">
<path opacity="0.15" d="M32 50.939C30.2047 50.9374 28.43 51.3218 26.7962 52.066C25.1624 52.8102 23.7076 53.8968 22.5305 55.2523C24.5269 57.5358 25.6255 60.4669 25.622 63.5001H44.5609C44.5609 61.8505 44.2361 60.2171 43.6048 58.6931C42.9736 57.1692 42.0484 55.7844 40.882 54.618C39.7156 53.4516 38.3309 52.5264 36.8069 51.8951C35.2829 51.2639 33.6495 50.939 32 50.939V50.939Z" fill="#183A9E"/>
<path opacity="0.15" d="M32 48.4998C35.4359 48.4998 38.2213 45.7144 38.2213 42.2785C38.2213 38.8426 35.4359 36.0573 32 36.0573C28.5641 36.0573 25.7787 38.8426 25.7787 42.2785C25.7787 45.7144 28.5641 48.4998 32 48.4998Z" fill="#183A9E"/>
<path d="M50.9385 48.9995C49.6092 48.9994 48.3097 48.6051 47.2045 47.8665C46.0993 47.128 45.2379 46.0782 44.7293 44.8501C44.2206 43.6219 44.0876 42.2705 44.347 40.9668C44.6064 39.663 45.2465 38.4655 46.1865 37.5255C47.1265 36.5856 48.3241 35.9455 49.6279 35.6862C50.9317 35.4269 52.2831 35.5601 53.5112 36.0688C54.7393 36.5775 55.789 37.439 56.5275 38.5443C57.266 39.6496 57.6602 40.949 57.6602 42.2783C57.6582 44.0604 56.9494 45.7689 55.6893 47.029C54.4291 48.289 52.7205 48.9977 50.9385 48.9995ZM50.9385 36.5571C49.807 36.5572 48.7009 36.8929 47.7601 37.5216C46.8193 38.1503 46.0861 39.0438 45.6531 40.0893C45.2202 41.1347 45.107 42.285 45.3278 43.3948C45.5486 44.5045 46.0935 45.5239 46.8936 46.324C47.6938 47.1241 48.7132 47.6689 49.823 47.8896C50.9328 48.1103 52.0831 47.997 53.1285 47.564C54.1739 47.1309 55.0674 46.3976 55.696 45.4568C56.3246 44.516 56.6602 43.4098 56.6602 42.2783C56.6585 40.7614 56.0551 39.3071 54.9825 38.2345C53.9098 37.1619 52.4554 36.5587 50.9385 36.5571V36.5571Z" fill="#204ECF"/>
<path d="M64 63.5H63C63 61.0441 62.2502 58.6467 60.851 56.6284C59.4517 54.6101 57.4697 53.067 55.1698 52.2054C52.87 51.3439 50.362 51.205 47.981 51.8072C45.6001 52.4095 43.4598 53.7242 41.8462 55.5757L41.0923 54.9185C42.8397 52.9136 45.1575 51.4899 47.7358 50.8377C50.3142 50.1856 53.0301 50.3361 55.5206 51.269C58.0112 52.202 60.1575 53.873 61.6728 56.0587C63.188 58.2444 63.9999 60.8405 64 63.5V63.5Z" fill="#204ECF"/>
<path d="M32 48.9995C30.6707 48.9995 29.3712 48.6053 28.2659 47.8668C27.1606 47.1283 26.2991 46.0785 25.7904 44.8504C25.2817 43.6223 25.1486 42.2709 25.408 40.9671C25.6673 39.6633 26.3074 38.4657 27.2474 37.5257C28.1874 36.5857 29.385 35.9456 30.6888 35.6863C31.9925 35.4269 33.344 35.56 34.5721 36.0688C35.8002 36.5775 36.8499 37.4389 37.5885 38.5442C38.327 39.6495 38.7212 40.949 38.7212 42.2783C38.7192 44.0603 38.0104 45.7687 36.7504 47.0287C35.4903 48.2887 33.782 48.9975 32 48.9995V48.9995ZM32 36.5571C30.8685 36.5571 29.7623 36.8927 28.8215 37.5213C27.8806 38.15 27.1473 39.0435 26.7143 40.0889C26.2813 41.1343 26.168 42.2847 26.3887 43.3945C26.6095 44.5043 27.1544 45.5237 27.9545 46.3238C28.7546 47.1239 29.7741 47.6688 30.8839 47.8896C31.9937 48.1103 33.144 47.997 34.1894 47.564C35.2348 47.131 36.1283 46.3977 36.757 45.4568C37.3857 44.516 37.7212 43.4099 37.7212 42.2783C37.7195 40.7615 37.1162 39.3073 36.0436 38.2347C34.9711 37.1621 33.5168 36.5588 32 36.5571V36.5571Z" fill="#204ECF"/>
<path d="M45.0605 63.5H44.061C44.061 61.0437 43.311 58.646 41.9114 56.6275C40.5119 54.6091 38.5294 53.066 36.2291 52.2047C33.9288 51.3434 31.4204 51.205 29.0393 51.8079C26.6582 52.4108 24.5179 53.7264 22.9047 55.5786L22.1508 54.9213C23.8977 52.9155 26.2154 51.4908 28.794 50.8379C31.3725 50.185 34.0889 50.335 36.5799 51.2677C39.0709 52.2005 41.2177 53.8716 42.7332 56.0575C44.2488 58.2435 45.0607 60.84 45.0605 63.5V63.5Z" fill="#204ECF"/>
<path d="M13.061 48.9995C11.7316 48.9995 10.4322 48.6053 9.32688 47.8668C8.22159 47.1283 7.36012 46.0785 6.85141 44.8504C6.34269 43.6223 6.20959 42.2709 6.46893 40.9671C6.72827 39.6633 7.3684 38.4657 8.30838 37.5257C9.24835 36.5857 10.446 35.9456 11.7497 35.6863C13.0535 35.4269 14.4049 35.56 15.6331 36.0688C16.8612 36.5775 17.9109 37.4389 18.6494 38.5442C19.388 39.6495 19.7822 40.949 19.7822 42.2783C19.7801 44.0603 19.0714 45.7687 17.8113 47.0287C16.5513 48.2887 14.8429 48.9975 13.061 48.9995V48.9995ZM13.061 36.5571C11.9294 36.5571 10.8233 36.8927 9.88245 37.5213C8.94161 38.15 8.20831 39.0435 7.77529 40.0889C7.34226 41.1343 7.22896 42.2847 7.44972 43.3945C7.67047 44.5043 8.21536 45.5237 9.01548 46.3238C9.81561 47.1239 10.835 47.6688 11.9448 47.8896C13.0546 48.1103 14.205 47.997 15.2504 47.564C16.2958 47.131 17.1893 46.3977 17.818 45.4568C18.4466 44.516 18.7822 43.4099 18.7822 42.2783C18.7805 40.7615 18.1772 39.3073 17.1046 38.2347C16.032 37.1621 14.5778 36.5588 13.061 36.5571V36.5571Z" fill="#204ECF"/>
<path d="M26.1221 63.5H25.1221C25.1221 60.3012 23.8514 57.2334 21.5895 54.9716C19.3276 52.7097 16.2598 51.439 13.061 51.439C9.86225 51.439 6.79448 52.7097 4.5326 54.9716C2.27071 57.2334 1 60.3012 1 63.5H0C0 60.036 1.37607 56.7139 3.82549 54.2645C6.27491 51.815 9.59703 50.439 13.061 50.439C16.525 50.439 19.8472 51.815 22.2966 54.2645C24.746 56.7139 26.1221 60.036 26.1221 63.5V63.5Z" fill="#204ECF"/>
<path d="M32.5 30.6572L24.8091 22.9663H20.252L12.561 30.6572V22.9663H6.33984V0H57.6602V22.9663H51.4395V30.6572L43.7481 22.9663H32.5V30.6572ZM31.5 21.9663H44.1621L50.4395 28.2432V21.9663H56.6602V1H7.33984V21.9663H13.561V28.2432L19.8379 21.9663H25.2231L31.5 28.2432V21.9663Z" fill="#204ECF"/>
</g>
<defs>
<clipPath id="clip0_10_1543">
<rect width="64.0001" height="64.0001" fill="white"/>
</clipPath>
</defs>
</svg>
