<svg width="65" height="65" viewBox="0 0 65 65" fill="none" xmlns="http://www.w3.org/2000/svg">
<g clip-path="url(#clip0_10_1661)">
<path opacity="0.3" d="M32.5146 38.2244H20.7486L8.9845 38.2262C13.7547 38.2262 18.3295 40.1211 21.7025 43.4941L26.3551 48.1466H42.4371L32.5146 38.2244Z" fill="#231F20"/>
<path opacity="0.3" d="M29.6749 29.6924C24.2151 35.1518 16.8113 38.2204 9.09021 38.224L32.5128 38.2225L43.8828 26.8528H32.5146L29.6749 29.6924Z" fill="#231F20"/>
<path d="M51.962 44.7816V38.7226H11.249V37.7226H52.962V42.3676L62.793 32.5376L52.962 22.7076V27.3526H32.515V26.3526H51.962V20.2936L64.207 32.5376L51.962 44.7816Z" fill="white"/>
<path d="M9.07629 38.7241H0.00012207V26.3511H8.98449C11.2818 26.3574 13.5575 25.9079 15.6799 25.0288C17.8023 24.1497 19.7293 22.8583 21.3492 21.2295L37.7574 4.82177L33.4738 0.538574H50.7902V17.8545L46.505 13.5698L30.0284 30.0459C27.2833 32.8059 24.0181 34.9941 20.4216 36.4837C16.8252 37.9733 12.969 38.7348 9.07629 38.7241V38.7241ZM1.00012 37.7241H9.07629C12.8376 37.7345 16.5637 36.9987 20.0388 35.5594C23.5138 34.12 26.6689 32.0057 29.3214 29.3389L46.505 12.1558L49.7902 15.4404V1.53857H35.8878L39.1715 4.82177L22.0563 21.9366C20.3437 23.6586 18.3065 25.0238 16.0627 25.9532C13.819 26.8826 11.4131 27.3577 8.98449 27.3511H1.00012V37.7241Z" fill="white"/>
<path d="M50.7902 64.5385H33.4738L37.7574 60.2553L21.3492 43.8476C19.7293 42.2187 17.8023 40.9274 15.6799 40.0483C13.5575 39.1691 11.2818 38.7197 8.9845 38.726V37.726C11.4131 37.7194 13.819 38.1945 16.0628 39.1239C18.3065 40.0533 20.3437 41.4186 22.0563 43.1406L39.1715 60.2553L35.8878 63.5385H49.7902V49.6367L46.505 52.9213L32.1593 38.5761L32.8663 37.8691L46.505 51.5073L50.7902 47.2226L50.7902 64.5385Z" fill="white"/>
<path d="M1.00012 13.0635H0.00012207V52.0122H1.00012V13.0635Z" fill="white"/>
</g>
<defs>
<clipPath id="clip0_10_1661">
<rect width="64.2071" height="64.0001" fill="white" transform="translate(0 0.538574)"/>
</clipPath>
</defs>
</svg>
