<svg width="65" height="64" viewBox="0 0 65 64" fill="none" xmlns="http://www.w3.org/2000/svg">
<g clip-path="url(#clip0_10_1556)">
<path opacity="0.15" d="M32.5146 37.6858H20.7486L8.9845 37.6876C13.7547 37.6876 18.3295 39.5825 21.7025 42.9555L26.3551 47.608H42.4371L32.5146 37.6858Z" fill="#183A9E"/>
<path opacity="0.15" d="M29.6749 29.1538C24.2151 34.6132 16.8113 37.6818 9.09021 37.6854L32.5128 37.6839L43.8828 26.3142H32.5146L29.6749 29.1538Z" fill="#183A9E"/>
<path d="M51.962 44.243V38.184H11.249V37.184H52.962V41.829L62.793 31.999L52.962 22.169V26.814H32.515V25.814H51.962V19.755L64.207 31.999L51.962 44.243Z" fill="#204ECF"/>
<path d="M9.07629 38.1856H0.00012207V25.8125H8.98449C11.2818 25.8188 13.5575 25.3694 15.6799 24.4903C17.8023 23.6111 19.7293 22.3198 21.3492 20.6909L37.7574 4.2832L33.4738 0H50.7902V17.3159L46.505 13.0312L30.0284 29.5073C27.2833 32.2674 24.0181 34.4555 20.4216 35.9451C16.8252 37.4348 12.969 38.1963 9.07629 38.1856V38.1856ZM1.00012 37.1856H9.07629C12.8376 37.1959 16.5637 36.4601 20.0388 35.0208C23.5138 33.5815 26.6689 31.4672 29.3214 28.8003L46.505 11.6172L49.7902 14.9019V1H35.8878L39.1715 4.2832L22.0563 21.398C20.3437 23.12 18.3065 24.4852 16.0627 25.4146C13.819 26.344 11.4131 26.8192 8.98449 26.8125H1.00012V37.1856Z" fill="#204ECF"/>
<path d="M50.7902 63.9999H33.4738L37.7574 59.7167L21.3492 43.309C19.7293 41.6802 17.8023 40.3888 15.6799 39.5097C13.5575 38.6306 11.2818 38.1812 8.9845 38.1874V37.1874C11.4131 37.1808 13.819 37.6559 16.0628 38.5853C18.3065 39.5147 20.3437 40.88 22.0563 42.602L39.1715 59.7167L35.8878 62.9999H49.7902V49.0981L46.505 52.3828L32.1593 38.0375L32.8663 37.3305L46.505 50.9687L50.7902 46.684L50.7902 63.9999Z" fill="#204ECF"/>
<path d="M1.00012 12.5249H0.00012207V51.4736H1.00012V12.5249Z" fill="#204ECF"/>
</g>
<defs>
<clipPath id="clip0_10_1556">
<rect width="64.2071" height="64.0001" fill="white"/>
</clipPath>
</defs>
</svg>
