<svg width="64" height="64" viewBox="0 0 64 64" fill="none" xmlns="http://www.w3.org/2000/svg">
<path opacity="0.15" d="M39.195 0.5V12.036H50.73L39.195 0.5Z" fill="#183A9E"/>
<path opacity="0.15" d="M50.7303 58.069H0.500031V63.5H50.7303V58.069Z" fill="#183A9E"/>
<path d="M50.73 12.537H38.695V0.5H39.695V11.537H50.73V12.537Z" fill="#204ECF"/>
<path d="M23.5278 11.5366H9.47707V12.5366H23.5278V11.5366Z" fill="#204ECF"/>
<path d="M39.1953 23.2524H9.47707V24.2524H39.1953V23.2524Z" fill="#204ECF"/>
<path d="M39.1953 29.8262H9.47707V30.8262H39.1953V29.8262Z" fill="#204ECF"/>
<path d="M38.6304 36.3999H9.47707V37.3999H38.6304V36.3999Z" fill="#204ECF"/>
<path d="M34.7798 42.9736H9.47707V43.9736H34.7798V42.9736Z" fill="#204ECF"/>
<path d="M14.5186 49.5249H9.47707V50.5249H14.5186V49.5249Z" fill="#204ECF"/>
<path d="M51.23 64H0V0H39.402L51.23 11.83V26.994H50.23V12.244L38.988 1H1V63H50.23V36.019H51.23V64Z" fill="#204ECF"/>
<path d="M32.7241 49.5142L34.5098 42.5093L57.7002 19.316C58.403 18.6446 59.3376 18.2699 60.3096 18.2699C61.2816 18.2699 62.2161 18.6446 62.919 19.316C63.6101 20.0087 63.9982 20.9473 63.9982 21.9258C63.9982 22.9044 63.6101 23.843 62.919 24.5357L39.7285 47.7291L32.7241 49.5142ZM35.4111 43.022L34.1089 48.1294L39.2158 46.8277L62.2119 23.8287C62.7157 23.3235 62.9985 22.6393 62.9985 21.9259C62.9985 21.2125 62.7157 20.5282 62.2119 20.023C61.6994 19.5338 61.0181 19.2608 60.3096 19.2608C59.601 19.2608 58.9197 19.5338 58.4072 20.023L35.4111 43.022Z" fill="#204ECF"/>
</svg>
