<svg width="64" height="65" viewBox="0 0 64 64" fill="none" xmlns="http://www.w3.org/2000/svg">
<g clip-path="url(#clip0_16_1861)">
<path opacity="0.3" d="M39.195 1.24561V12.7816H50.73L39.195 1.24561Z" fill="#231F20"/>
<path opacity="0.3" d="M50.7303 58.8146H0.500031V64.2456H50.7303V58.8146Z" fill="#231F20"/>
<path d="M50.73 13.2826H38.695V1.24561H39.695V12.2826H50.73V13.2826Z" fill="white"/>
<path d="M23.5278 12.2822H9.47707V13.2822H23.5278V12.2822Z" fill="white"/>
<path d="M39.1953 23.998H9.47707V24.998H39.1953V23.998Z" fill="white"/>
<path d="M39.1953 30.5718H9.47707V31.5718H39.1953V30.5718Z" fill="white"/>
<path d="M38.6304 37.1455H9.47707V38.1455H38.6304V37.1455Z" fill="white"/>
<path d="M34.7798 43.7192H9.47707V44.7192H34.7798V43.7192Z" fill="white"/>
<path d="M14.5186 50.2705H9.47707V51.2705H14.5186V50.2705Z" fill="white"/>
<path d="M51.23 64.7456H0V0.745605H39.402L51.23 12.5756V27.7396H50.23V12.9896L38.988 1.74561H1V63.7456H50.23V36.7646H51.23V64.7456Z" fill="white"/>
<path d="M32.7241 50.2598L34.5098 43.2549L57.7002 20.0616C58.403 19.3902 59.3376 19.0155 60.3096 19.0155C61.2816 19.0155 62.2161 19.3902 62.919 20.0616C63.6101 20.7543 63.9982 21.6929 63.9982 22.6714C63.9982 23.65 63.6101 24.5886 62.919 25.2813L39.7285 48.4747L32.7241 50.2598ZM35.4111 43.7676L34.1089 48.8751L39.2158 47.5733L62.2119 24.5743C62.7157 24.0692 62.9985 23.3849 62.9985 22.6715C62.9985 21.9581 62.7157 21.2738 62.2119 20.7686C61.6994 20.2794 61.0181 20.0064 60.3096 20.0064C59.601 20.0064 58.9197 20.2794 58.4072 20.7686L35.4111 43.7676Z" fill="white"/>
</g>
<defs>
<clipPath id="clip0_16_1861">
<rect width="64" height="64.0001" fill="white" transform="translate(0 0.745605)"/>
</clipPath>
</defs>
</svg>
