<svg width="64" height="64" viewBox="0 0 64 64" fill="none" xmlns="http://www.w3.org/2000/svg">
<g clip-path="url(#clip0_1187_1224)">
<path opacity="0.15" d="M18 44.5C18 30.42 29.42 19 43.5 19C47.44 19 51.17 19.9 54.51 21.49C50.4 12.92 41.64 7 31.5 7C17.42 7 6 18.42 6 32.5C6 42.64 11.92 51.4 20.49 55.51C18.89 52.18 18 48.45 18 44.5Z" fill="#183A9C"/>
<path d="M31.5 63.5C48.6208 63.5 62.5 49.6208 62.5 32.5C62.5 15.3792 48.6208 1.5 31.5 1.5C14.3792 1.5 0.5 15.3792 0.5 32.5C0.5 49.6208 14.3792 63.5 31.5 63.5Z" stroke="#204ECD" stroke-miterlimit="10"/>
<path d="M42.5 24V23.34C42.5 20.11 39.88 17.5 36.66 17.5H26.35C23.12 17.5 20.51 20.12 20.51 23.34C20.51 25.83 22.08 28.04 24.43 28.86L38.8 33.86C41.62 34.84 43.51 37.5 43.51 40.48C43.51 44.35 40.37 47.49 36.5 47.49H27.01C22.87 47.49 19.51 44.13 19.51 39.99" stroke="#204ECD" stroke-miterlimit="10"/>
<path d="M31.5 11V54" stroke="#204ECD" stroke-miterlimit="10"/>
</g>
<defs>
<clipPath id="clip0_1187_1224">
<rect width="64" height="64" fill="white"/>
</clipPath>
</defs>
</svg>
