<svg width="64" height="64" viewBox="0 0 64 64" fill="none" xmlns="http://www.w3.org/2000/svg">
<g clip-path="url(#clip0_16_1724)">
<path opacity="0.15" d="M32.0001 0.5V63.5C40.3544 63.5 48.3666 60.1813 54.274 54.2739C60.1814 48.3665 63.5001 40.3543 63.5001 32C63.5001 23.6457 60.1814 15.6335 54.274 9.72614C48.3666 3.81874 40.3544 0.5 32.0001 0.5V0.5Z" fill="#183A9E"/>
<path d="M32.0001 64C25.6711 64 19.4842 62.1232 14.2219 58.607C8.95949 55.0908 4.85797 50.0931 2.43596 44.2459C0.0139568 38.3986 -0.61975 31.9645 0.614977 25.7571C1.8497 19.5497 4.89741 13.8479 9.37269 9.3726C13.848 4.89732 19.5498 1.84961 25.7572 0.614885C31.9646 -0.619842 38.3987 0.013865 44.246 2.43587C50.0932 4.85787 55.0909 8.95939 58.6071 14.2218C62.1233 19.4841 64.0001 25.671 64.0001 32C63.9906 40.484 60.6161 48.6178 54.617 54.6169C48.6179 60.616 40.4841 63.9905 32.0001 64ZM32.0001 1.00001C25.8689 1.00001 19.8754 2.81813 14.7774 6.22446C9.6795 9.63078 5.70616 14.4723 3.35984 20.1368C1.01352 25.8013 0.39962 32.0344 1.59576 38.0478C2.7919 44.0612 5.74437 49.5849 10.0798 53.9203C14.4152 58.2558 19.9389 61.2082 25.9523 62.4044C31.9657 63.6005 38.1988 62.9866 43.8633 60.6403C49.5278 58.294 54.3693 54.3206 57.7757 49.2227C61.182 44.1248 63.0001 38.1312 63.0001 32C62.9907 23.7812 59.7217 15.9016 53.9101 10.09C48.0985 4.27844 40.2189 1.00937 32.0001 1.00001V1.00001Z" fill="#204ECF"/>
<path d="M46.4786 44.9785H17.524V45.9785H46.4786V44.9785Z" fill="#204ECF"/>
<path d="M32.0001 45.9082C31.9122 45.9085 31.8251 45.8913 31.7439 45.8577C31.6627 45.8241 31.5889 45.7747 31.527 45.7124L17.1681 31.354L17.8751 30.647L32.0001 44.7715L46.1251 30.647L46.8321 31.354L32.4732 45.7124C32.4112 45.7747 32.3375 45.8241 32.2563 45.8577C32.1751 45.8913 32.088 45.9085 32.0001 45.9082V45.9082Z" fill="#204ECF"/>
<path d="M32.5001 16.5225H31.5001V45.4785H32.5001V16.5225Z" fill="#204ECF"/>
</g>
<defs>
<clipPath id="clip0_16_1724">
<rect width="64.0001" height="64.0001" fill="white"/>
</clipPath>
</defs>
</svg>
