<svg width="64" height="65" viewBox="0 0 64 65" fill="none" xmlns="http://www.w3.org/2000/svg">
<g clip-path="url(#clip0_16_1876)">
<path opacity="0.3" d="M32.0001 1.24561V64.2456C40.3544 64.2456 48.3666 60.9269 54.274 55.0195C60.1814 49.1121 63.5001 41.0999 63.5001 32.7456C63.5001 24.3913 60.1814 16.3791 54.274 10.4717C48.3666 4.56435 40.3544 1.24561 32.0001 1.24561V1.24561Z" fill="#231F20"/>
<path d="M32.0001 64.7456C25.6711 64.7456 19.4842 62.8689 14.2219 59.3526C8.95949 55.8364 4.85797 50.8387 2.43596 44.9915C0.0139568 39.1443 -0.61975 32.7101 0.614977 26.5027C1.8497 20.2953 4.89741 14.5935 9.37269 10.1182C13.848 5.64292 19.5498 2.59522 25.7572 1.36049C31.9646 0.125764 38.3987 0.75947 44.246 3.18147C50.0932 5.60348 55.0909 9.705 58.6071 14.9674C62.1233 20.2297 64.0001 26.4166 64.0001 32.7456C63.9906 41.2296 60.6161 49.3634 54.617 55.3625C48.6179 61.3616 40.4841 64.7361 32.0001 64.7456ZM32.0001 1.74562C25.8689 1.74562 19.8754 3.56374 14.7774 6.97006C9.6795 10.3764 5.70616 15.2179 3.35984 20.8824C1.01352 26.5469 0.39962 32.78 1.59576 38.7934C2.7919 44.8068 5.74437 50.3305 10.0798 54.6659C14.4152 59.0014 19.9389 61.9538 25.9523 63.15C31.9657 64.3461 38.1988 63.7322 43.8633 61.3859C49.5278 59.0396 54.3693 55.0662 57.7757 49.9683C61.182 44.8704 63.0001 38.8768 63.0001 32.7456C62.9907 24.5268 59.7217 16.6472 53.9101 10.8356C48.0985 5.02405 40.2189 1.75498 32.0001 1.74562V1.74562Z" fill="white"/>
<path d="M46.4786 45.7241H17.524V46.7241H46.4786V45.7241Z" fill="white"/>
<path d="M32.0001 46.6538C31.9122 46.6541 31.8251 46.6369 31.7439 46.6033C31.6627 46.5697 31.5889 46.5203 31.527 46.458L17.1681 32.0996L17.8751 31.3926L32.0001 45.5171L46.1251 31.3926L46.8321 32.0996L32.4732 46.458C32.4112 46.5203 32.3375 46.5697 32.2563 46.6033C32.1751 46.6369 32.088 46.6541 32.0001 46.6538V46.6538Z" fill="white"/>
<path d="M32.5001 17.2681H31.5001V46.2241H32.5001V17.2681Z" fill="white"/>
</g>
<defs>
<clipPath id="clip0_16_1876">
<rect width="64.0001" height="64.0001" fill="white" transform="translate(0 0.745605)"/>
</clipPath>
</defs>
</svg>
