<svg width="64" height="64" viewBox="0 0 64 64" fill="none" xmlns="http://www.w3.org/2000/svg">
<g clip-path="url(#clip0_16_1733)">
<path opacity="0.15" d="M53.0176 22.0103C53.019 19.2116 51.9557 16.5172 50.0435 14.4737C48.1313 12.4302 45.5133 11.1906 42.7207 11.0065C39.9281 10.8223 37.17 11.7073 35.006 13.4819C32.8419 15.2566 31.434 17.788 31.0678 20.5626L30.962 22.0103V26.6673C32.1052 26.6661 33.2374 26.8902 34.2939 27.3268C35.3504 27.7634 36.3105 28.404 37.1193 29.2119C37.9281 30.0199 38.5697 30.9793 39.0075 32.0353C39.4453 33.0914 39.6706 34.2234 39.6706 35.3665C39.6706 36.5097 39.4453 37.6417 39.0075 38.6978C38.5697 39.7538 37.9281 40.7132 37.1193 41.5211C36.3105 42.3291 35.3504 42.9696 34.2939 43.4063C33.2374 43.8429 32.1052 44.067 30.962 44.0658V51.312C30.962 51.6855 31.0819 52.0491 31.3042 52.3493C31.5264 52.6494 31.8392 52.8703 32.1965 52.9792C32.5537 53.0882 32.9365 53.0795 33.2884 52.9544C33.6403 52.8293 33.9428 52.5945 34.1512 52.2846V52.2849L51.0204 28.3412L51.0115 28.3401C52.3183 26.4882 53.0191 24.2768 53.0176 22.0103Z" fill="#183A9E"/>
<path d="M32.6675 64C29.3036 63.9962 26.0786 62.6582 23.7 60.2796C21.3213 57.901 19.9833 54.6759 19.9795 51.312H20.9795C20.979 53.8241 21.7879 56.2694 23.2865 58.2855C24.785 60.3016 26.8933 61.7811 29.2989 62.5047C31.7044 63.2283 34.2791 63.1575 36.6413 62.3027C39.0034 61.448 41.0272 59.8548 42.4126 57.7593L42.624 57.4405L42.6397 57.4454L58.6548 34.834L58.6489 34.8316L59.0308 34.2935C60.9675 31.6067 62.2416 28.5 62.7489 25.2269C63.2563 21.9539 62.9826 18.6073 61.9502 15.4602C60.9178 12.3131 59.1559 9.45465 56.8083 7.11818C54.4607 4.78172 51.594 3.03341 48.442 2.01593C45.2901 0.998453 41.9422 0.740634 38.6716 1.26351C35.401 1.78639 32.3004 3.07516 29.6227 5.02464C26.9451 6.97411 24.7663 9.52906 23.2642 12.481C21.7621 15.4329 20.9793 18.6982 20.9795 22.0103H19.9795C19.9786 18.5677 20.7852 15.1729 22.3346 12.0987C23.8839 9.02447 26.1328 6.35653 28.9005 4.30926C31.6682 2.26199 34.8775 0.892481 38.2706 0.310768C41.6636 -0.270945 45.1459 -0.0486377 48.4374 0.959827C51.729 1.96829 54.7381 3.73479 57.223 6.11739C59.7078 8.49998 61.5992 11.4322 62.745 14.6785C63.8909 17.9248 64.2593 21.3946 63.8206 24.8091C63.3819 28.2237 62.1484 31.4877 60.2192 34.3389L60.2227 34.3399L59.8497 34.877L43.1319 58.481C41.9686 60.1832 40.4073 61.5757 38.5837 62.5375C36.7601 63.4993 34.7292 64.0013 32.6675 64Z" fill="#204ECF"/>
<path d="M11.2832 57.4575L5.57715 40.5069H0.5V39.5069H6.2959L11.2832 54.3228L19.2446 30.6738L23.5845 43.5659H30.9619C33.135 43.5635 35.2182 42.6986 36.754 41.1612C38.2897 39.6237 39.1523 37.5395 39.1523 35.3665C39.1523 33.1934 38.2897 31.1092 36.754 29.5718C35.2182 28.0343 33.135 27.1694 30.9619 27.167H30.4619V22.0103C30.4648 18.9548 31.6805 16.0254 33.8421 13.8658C36.0037 11.7062 38.9342 10.4932 41.9897 10.4932C45.0453 10.4932 47.9758 11.7062 50.1374 13.8658C52.2989 16.0254 53.5147 18.9548 53.5176 22.0103H52.5176C52.5149 19.2199 51.4045 16.5447 49.4304 14.5726C47.4564 12.6005 44.7801 11.4927 41.9897 11.4927C39.1994 11.4927 36.5231 12.6005 34.5491 14.5726C32.575 16.5447 31.4646 19.2199 31.4619 22.0103V26.1802C33.8549 26.3106 36.1025 27.3696 37.7266 29.1319C39.3507 30.8942 40.2229 33.2207 40.1578 35.6164C40.0926 38.012 39.0952 40.2876 37.3778 41.9591C35.6603 43.6305 33.3584 44.5658 30.9619 44.5659H22.8657L19.2446 33.8086L11.2832 57.4575Z" fill="#204ECF"/>
</g>
<defs>
<clipPath id="clip0_16_1733">
<rect width="64" height="64" fill="white"/>
</clipPath>
</defs>
</svg>
