<svg width="64" height="64" viewBox="0 0 64 64" fill="none" xmlns="http://www.w3.org/2000/svg">
<path opacity="0.15" d="M32.0001 0.5V63.5C40.3544 63.5 48.3665 60.1813 54.2739 54.2739C60.1813 48.3665 63.5001 40.3543 63.5001 32C63.5001 23.6457 60.1813 15.6335 54.2739 9.72614C48.3665 3.81874 40.3544 0.5 32.0001 0.5V0.5Z" fill="#183A9E"/>
<path d="M21.825 55.572H19.987L16.772 52.357L16.768 42.575H15.625L12.437 39.387V35.5L10.42 33.482L8.375 33.481L0.806 25.912L1.513 25.205L8.789 32.481L10.834 32.482L13.437 35.085V38.973L16.039 41.575H17.767L17.772 51.943L20.401 54.572H20.825V52.97L26.002 47.797V45.823L28.706 43.118V38.847H26.004L20.131 32.975H14.969L14.97 30.054L19.233 25.813H22.199L24.525 23.495V19.698L21.297 16.471H18.729L16.374 18.826L12.499 14.95L14.974 12.471V5.18701H15.974V12.885L13.913 14.95L16.374 17.412L18.315 15.471H21.711L25.525 19.284V23.91L22.612 26.813H19.646L15.97 30.47L15.969 31.975H20.546L26.419 37.847H29.706V43.532L27.002 46.237V48.211L21.825 53.384V55.572Z" fill="#204ECF"/>
<path d="M48.6315 49.8238H46.7091L41.5333 44.6475V38.6836H35.3663L31.5001 34.8208V29.061L34.3043 26.2588H43.1276L51.0045 34.1567V41.1445L48.6315 43.5181L48.6315 49.8238ZM47.1232 48.8238H47.6315V43.104L50.0045 40.7305V34.5699L42.7125 27.2589H34.7184L32.5001 29.4751V34.4068L35.7804 37.6836H42.5333V44.2334L47.1232 48.8238Z" fill="#204ECF"/>
<path d="M56.204 24.9189H51.187L47.088 20.8229H45.078L42.414 18.3419H35.302V10.9369L43.553 2.51794L44.267 3.21794L36.302 11.3449V17.3419H42.808L45.471 19.8229H47.503L51.601 23.9189H55.79L57.258 22.4529H62.182V23.4529H57.672L56.204 24.9189Z" fill="#204ECF"/>
<path d="M32.0001 64C25.6711 64 19.4842 62.1232 14.2219 58.607C8.95949 55.0908 4.85797 50.0931 2.43596 44.2459C0.0139568 38.3986 -0.61975 31.9645 0.614977 25.7571C1.8497 19.5497 4.89741 13.8479 9.37269 9.3726C13.848 4.89732 19.5498 1.84961 25.7572 0.614885C31.9646 -0.619842 38.3987 0.013865 44.246 2.43587C50.0932 4.85787 55.0909 8.95939 58.6071 14.2218C62.1233 19.4841 64.0001 25.671 64.0001 32C63.9906 40.484 60.6161 48.6178 54.617 54.6169C48.6179 60.616 40.4841 63.9905 32.0001 64ZM32.0001 1.00001C25.8689 1.00001 19.8754 2.81813 14.7774 6.22446C9.6795 9.63078 5.70616 14.4723 3.35984 20.1368C1.01352 25.8013 0.39962 32.0344 1.59576 38.0478C2.7919 44.0612 5.74437 49.5849 10.0798 53.9203C14.4152 58.2558 19.9389 61.2082 25.9523 62.4044C31.9657 63.6005 38.1988 62.9866 43.8633 60.6403C49.5278 58.294 54.3693 54.3206 57.7757 49.2227C61.182 44.1248 63.0001 38.1312 63.0001 32C62.9907 23.7812 59.7217 15.9016 53.9101 10.09C48.0985 4.27844 40.2189 1.00937 32.0001 1.00001V1.00001Z" fill="#204ECF"/>
</svg>
