<svg width="64" height="65" viewBox="0 0 64 65" fill="none" xmlns="http://www.w3.org/2000/svg">
<g clip-path="url(#clip0_16_1894)">
<path opacity="0.3" d="M32.0001 1.24561V64.2456C40.3544 64.2456 48.3665 60.9269 54.2739 55.0195C60.1813 49.1121 63.5001 41.0999 63.5001 32.7456C63.5001 24.3913 60.1813 16.3791 54.2739 10.4717C48.3665 4.56435 40.3544 1.24561 32.0001 1.24561V1.24561Z" fill="#231F20"/>
<path d="M21.825 56.3176H19.987L16.772 53.1026L16.768 43.3206H15.625L12.437 40.1326V36.2456L10.42 34.2276L8.375 34.2266L0.806 26.6576L1.513 25.9506L8.789 33.2266L10.834 33.2276L13.437 35.8306V39.7186L16.039 42.3206H17.767L17.772 52.6886L20.401 55.3176H20.825V53.7156L26.002 48.5426V46.5686L28.706 43.8636V39.5926H26.004L20.131 33.7206H14.969L14.97 30.7996L19.233 26.5586H22.199L24.525 24.2406V20.4436L21.297 17.2166H18.729L16.374 19.5716L12.499 15.6956L14.974 13.2166V5.93262H15.974V13.6306L13.913 15.6956L16.374 18.1576L18.315 16.2166H21.711L25.525 20.0296V24.6556L22.612 27.5586H19.646L15.97 31.2156L15.969 32.7206H20.546L26.419 38.5926H29.706V44.2776L27.002 46.9826V48.9566L21.825 54.1296V56.3176Z" fill="white"/>
<path d="M48.6315 50.5694H46.7091L41.5333 45.3931V39.4292H35.3663L31.5001 35.5664V29.8066L34.3043 27.0044H43.1276L51.0045 34.9023V41.8901L48.6315 44.2637L48.6315 50.5694ZM47.1232 49.5694H47.6315V43.8496L50.0045 41.4761V35.3155L42.7125 28.0045H34.7184L32.5001 30.2207V35.1524L35.7804 38.4292H42.5333V44.979L47.1232 49.5694Z" fill="white"/>
<path d="M56.204 25.6646H51.187L47.088 21.5686H45.078L42.414 19.0875H35.302V11.6826L43.553 3.26355L44.267 3.96355L36.302 12.0906V18.0875H42.808L45.471 20.5686H47.503L51.601 24.6646H55.79L57.258 23.1985H62.182V24.1985H57.672L56.204 25.6646Z" fill="white"/>
<path d="M32.0001 64.7456C25.6711 64.7456 19.4842 62.8689 14.2219 59.3526C8.95949 55.8364 4.85797 50.8387 2.43596 44.9915C0.0139568 39.1443 -0.61975 32.7101 0.614977 26.5027C1.8497 20.2953 4.89741 14.5935 9.37269 10.1182C13.848 5.64292 19.5498 2.59522 25.7572 1.36049C31.9646 0.125764 38.3987 0.75947 44.246 3.18147C50.0932 5.60348 55.0909 9.705 58.6071 14.9674C62.1233 20.2297 64.0001 26.4166 64.0001 32.7456C63.9906 41.2296 60.6161 49.3634 54.617 55.3625C48.6179 61.3616 40.4841 64.7361 32.0001 64.7456ZM32.0001 1.74562C25.8689 1.74562 19.8754 3.56374 14.7774 6.97006C9.6795 10.3764 5.70616 15.2179 3.35984 20.8824C1.01352 26.5469 0.39962 32.78 1.59576 38.7934C2.7919 44.8068 5.74437 50.3305 10.0798 54.6659C14.4152 59.0014 19.9389 61.9538 25.9523 63.15C31.9657 64.3461 38.1988 63.7322 43.8633 61.3859C49.5278 59.0396 54.3693 55.0662 57.7757 49.9683C61.182 44.8704 63.0001 38.8768 63.0001 32.7456C62.9907 24.5268 59.7217 16.6472 53.9101 10.8356C48.0985 5.02405 40.2189 1.75498 32.0001 1.74562V1.74562Z" fill="white"/>
</g>
<defs>
<clipPath id="clip0_16_1894">
<rect width="64.0001" height="64.0001" fill="white" transform="translate(0 0.745605)"/>
</clipPath>
</defs>
</svg>
