<svg width="64" height="65" viewBox="0 0 64 64" fill="none" xmlns="http://www.w3.org/2000/svg">
<g clip-path="url(#clip0_16_1885)">
<path opacity="0.3" d="M53.0176 22.7559C53.019 19.9572 51.9557 17.2629 50.0435 15.2193C48.1313 13.1758 45.5133 11.9363 42.7207 11.7521C39.9281 11.5679 37.17 12.4529 35.006 14.2275C32.8419 16.0022 31.434 18.5336 31.0678 21.3082L30.962 22.7559V27.4129C32.1052 27.4117 33.2374 27.6358 34.2939 28.0724C35.3504 28.509 36.3105 29.1496 37.1193 29.9576C37.9281 30.7655 38.5697 31.7249 39.0075 32.7809C39.4453 33.837 39.6706 34.969 39.6706 36.1121C39.6706 37.2553 39.4453 38.3873 39.0075 39.4434C38.5697 40.4994 37.9281 41.4588 37.1193 42.2667C36.3105 43.0747 35.3504 43.7153 34.2939 44.1519C33.2374 44.5885 32.1052 44.8126 30.962 44.8114V52.0576C30.962 52.4311 31.0819 52.7947 31.3042 53.0949C31.5264 53.3951 31.8392 53.6159 32.1965 53.7248C32.5537 53.8338 32.9365 53.8251 33.2884 53.7C33.6403 53.575 33.9428 53.3401 34.1512 53.0302V53.0305L51.0204 29.0868L51.0115 29.0857C52.3183 27.2338 53.0191 25.0224 53.0176 22.7559Z" fill="#231F20"/>
<path d="M32.6675 64.7457C29.3036 64.7418 26.0786 63.4038 23.7 61.0252C21.3213 58.6466 19.9833 55.4215 19.9795 52.0577H20.9795C20.979 54.5697 21.7879 57.015 23.2865 59.0311C24.785 61.0472 26.8933 62.5267 29.2989 63.2503C31.7044 63.974 34.2791 63.9031 36.6413 63.0483C39.0034 62.1936 41.0272 60.6004 42.4126 58.5049L42.624 58.1861L42.6397 58.191L58.6548 35.5797L58.6489 35.5772L59.0308 35.0391C60.9675 32.3523 62.2416 29.2456 62.7489 25.9725C63.2563 22.6995 62.9826 19.3529 61.9502 16.2058C60.9178 13.0587 59.1559 10.2003 56.8083 7.86379C54.4607 5.52732 51.594 3.77902 48.442 2.76154C45.2901 1.74406 41.9422 1.48624 38.6716 2.00912C35.401 2.532 32.3004 3.82076 29.6227 5.77024C26.9451 7.71972 24.7663 10.2747 23.2642 13.2266C21.7621 16.1785 20.9793 19.4438 20.9795 22.7559H19.9795C19.9786 19.3133 20.7852 15.9185 22.3346 12.8443C23.8839 9.77007 26.1328 7.10213 28.9005 5.05487C31.6682 3.0076 34.8775 1.63809 38.2706 1.05637C41.6636 0.47466 45.1459 0.696968 48.4374 1.70543C51.729 2.7139 54.7381 4.4804 57.223 6.86299C59.7078 9.24559 61.5992 12.1778 62.745 15.4241C63.8909 18.6704 64.2593 22.1402 63.8206 25.5547C63.3819 28.9693 62.1484 32.2333 60.2192 35.0845L60.2227 35.0855L59.8497 35.6226L43.1319 59.2267C41.9686 60.9288 40.4073 62.3213 38.5837 63.2831C36.7601 64.2449 34.7292 64.7469 32.6675 64.7457Z" fill="white"/>
<path d="M11.2832 58.2031L5.57715 41.2525H0.5V40.2525H6.2959L11.2832 55.0684L19.2446 31.4195L23.5845 44.3115H30.9619C33.135 44.3091 35.2182 43.4442 36.754 41.9068C38.2897 40.3693 39.1523 38.2851 39.1523 36.1121C39.1523 33.939 38.2897 31.8548 36.754 30.3174C35.2182 28.7799 33.135 27.915 30.9619 27.9126H30.4619V22.7559C30.4648 19.7004 31.6805 16.771 33.8421 14.6114C36.0037 12.4518 38.9342 11.2388 41.9897 11.2388C45.0453 11.2388 47.9758 12.4518 50.1374 14.6114C52.2989 16.771 53.5147 19.7004 53.5176 22.7559H52.5176C52.5149 19.9655 51.4045 17.2903 49.4304 15.3182C47.4564 13.3461 44.7801 12.2383 41.9897 12.2383C39.1994 12.2383 36.5231 13.3461 34.5491 15.3182C32.575 17.2903 31.4646 19.9655 31.4619 22.7559V26.9258C33.8549 27.0562 36.1025 28.1152 37.7266 29.8775C39.3507 31.6398 40.2229 33.9663 40.1578 36.362C40.0926 38.7576 39.0952 41.0333 37.3778 42.7047C35.6603 44.3761 33.3584 45.3114 30.9619 45.3115H22.8657L19.2446 34.5542L11.2832 58.2031Z" fill="white"/>
</g>
<defs>
<clipPath id="clip0_16_1885">
<rect width="64" height="64" fill="white" transform="translate(0 0.745605)"/>
</clipPath>
</defs>
</svg>
