<svg width="67" height="64" viewBox="0 0 67 64" fill="none" xmlns="http://www.w3.org/2000/svg">
<g clip-path="url(#clip0_16_1751)">
<path opacity="0.15" d="M13.553 21.296V27.684L33.11 34.091L52.667 27.684V21.296L33.105 27.712L13.553 21.296Z" fill="#183A9E"/>
<path d="M33.105 28.2382L0 17.3846L33.105 6.53113L66.21 17.3846L33.105 28.2382ZM3.21 17.3846L33.105 27.1854L63 17.3846L33.105 7.58386L3.21 17.3846Z" fill="#204ECF"/>
<path d="M33.11 46.802L13.053 40.231V21.296H14.053V39.506L33.11 45.749L52.167 39.506V21.296H53.167V40.231L33.11 46.802Z" fill="#204ECF"/>
<path d="M59.6738 19.3177H58.6738V42.247H59.6738V19.3177Z" fill="#204ECF"/>
<path d="M59.1738 49.2641C58.4305 49.264 57.7038 49.0435 57.0858 48.6305C56.4677 48.2175 55.986 47.6305 55.7016 46.9437C55.4171 46.2569 55.3427 45.5012 55.4878 44.7722C55.6328 44.0431 55.9908 43.3734 56.5164 42.8478C57.042 42.3222 57.7117 41.9642 58.4408 41.8192C59.1698 41.6741 59.9255 41.7486 60.6123 42.033C61.2991 42.3175 61.8861 42.7992 62.2991 43.4172C62.7121 44.0353 62.9326 44.7619 62.9326 45.5053C62.9316 46.5018 62.5352 47.4573 61.8305 48.162C61.1259 48.8666 60.1704 49.263 59.1738 49.2641V49.2641ZM59.1738 42.747C58.6282 42.747 58.0949 42.9088 57.6413 43.212C57.1877 43.5151 56.8342 43.946 56.6254 44.4501C56.4167 44.9542 56.3621 45.5088 56.4686 46.0439C56.5751 46.579 56.8378 47.0705 57.2237 47.4563C57.6095 47.842 58.101 48.1047 58.6362 48.2111C59.1713 48.3175 59.7259 48.2628 60.23 48.054C60.734 47.8451 61.1648 47.4915 61.4679 47.0379C61.7709 46.5842 61.9327 46.0508 61.9326 45.5053C61.9318 44.7739 61.6409 44.0727 61.1237 43.5556C60.6065 43.0384 59.9052 42.7476 59.1738 42.747Z" fill="#204ECF"/>
<path d="M61.5322 56.4423H4.93408V57.4423H61.5322V56.4423Z" fill="#204ECF"/>
</g>
<defs>
<clipPath id="clip0_16_1751">
<rect width="66.21" height="64" fill="white"/>
</clipPath>
</defs>
</svg>
