<svg width="67" height="65" viewBox="0 0 67 65" fill="none" xmlns="http://www.w3.org/2000/svg">
<g clip-path="url(#clip0_16_1903)">
<path opacity="0.3" d="M13.553 22.0416V28.4296L33.11 34.8366L52.667 28.4296V22.0416L33.105 28.4576L13.553 22.0416Z" fill="#231F20"/>
<path d="M33.105 28.9838L0 18.1302L33.105 7.27673L66.21 18.1302L33.105 28.9838ZM3.21 18.1302L33.105 27.931L63 18.1302L33.105 8.32946L3.21 18.1302Z" fill="white"/>
<path d="M33.11 47.5476L13.053 40.9766V22.0416H14.053V40.2516L33.11 46.4946L52.167 40.2516V22.0416H53.167V40.9766L33.11 47.5476Z" fill="white"/>
<path d="M59.6738 20.0634H58.6738V42.9926H59.6738V20.0634Z" fill="white"/>
<path d="M59.1738 50.0097C58.4305 50.0096 57.7038 49.7891 57.0858 49.3761C56.4677 48.9631 55.986 48.3761 55.7016 47.6893C55.4171 47.0026 55.3427 46.2469 55.4878 45.5178C55.6328 44.7887 55.9908 44.119 56.5164 43.5934C57.042 43.0678 57.7117 42.7098 58.4408 42.5648C59.1698 42.4198 59.9255 42.4942 60.6123 42.7786C61.2991 43.0631 61.8861 43.5448 62.2991 44.1628C62.7121 44.7809 62.9326 45.5075 62.9326 46.2509C62.9316 47.2474 62.5352 48.2029 61.8305 48.9076C61.1259 49.6123 60.1704 50.0086 59.1738 50.0097V50.0097ZM59.1738 43.4926C58.6282 43.4926 58.0949 43.6544 57.6413 43.9576C57.1877 44.2608 56.8342 44.6916 56.6254 45.1957C56.4167 45.6998 56.3621 46.2544 56.4686 46.7895C56.5751 47.3246 56.8378 47.8161 57.2237 48.2019C57.6095 48.5876 58.101 48.8503 58.6362 48.9567C59.1713 49.0631 59.7259 49.0084 60.23 48.7996C60.734 48.5908 61.1648 48.2371 61.4679 47.7835C61.7709 47.3298 61.9327 46.7965 61.9326 46.2509C61.9318 45.5195 61.6409 44.8183 61.1237 44.3012C60.6065 43.784 59.9052 43.4932 59.1738 43.4926Z" fill="white"/>
<path d="M61.5322 57.1879H4.93408V58.1879H61.5322V57.1879Z" fill="white"/>
</g>
<defs>
<clipPath id="clip0_16_1903">
<rect width="66.21" height="64" fill="white" transform="translate(0 0.745605)"/>
</clipPath>
</defs>
</svg>
