<svg width="64" height="65" viewBox="0 0 64 64" fill="none" xmlns="http://www.w3.org/2000/svg">
<g clip-path="url(#clip0_16_1913)">
<path opacity="0.3" d="M63.5 58.1705H0.5V64.3584H63.5V58.1705Z" fill="#231F20"/>
<path opacity="0.3" d="M21.016 9.13764L32 1.35864L42.984 9.13764H21.016Z" fill="#231F20"/>
<path opacity="0.3" d="M0.5 23.6686L9.126 17.5596V29.7776L0.5 23.6686Z" fill="#231F20"/>
<path opacity="0.3" d="M63.5 23.6686L54.874 17.5596V29.7776L63.5 23.6686Z" fill="#231F20"/>
<path d="M64 64.8586H0V23.4096L8.837 17.1506L9.415 17.9676L1 23.9276V63.8586H63V23.9276L54.585 17.9676L55.163 17.1506L64 23.4096V64.8586Z" fill="white"/>
<path d="M42.694 9.54561L32 1.97161L21.306 9.54561L20.728 8.72961L32 0.745605L43.272 8.72961L42.694 9.54561Z" fill="white"/>
<path d="M32 46.5916L0.210999 24.0766L0.788998 23.2606L32 45.3666L63.211 23.2606L63.789 24.0766L32 46.5916Z" fill="white"/>
<path d="M28.9365 43.6067L0.210022 63.9489L0.788145 64.7653L29.5146 44.4231L28.9365 43.6067Z" fill="white"/>
<path d="M35.0645 43.6055L34.4863 44.4219L63.2109 64.7666L63.7891 63.9503L35.0645 43.6055Z" fill="white"/>
<path d="M55.374 29.7776H54.374V9.63757H9.62598V29.7776H8.62598V8.63757H55.374V29.7776Z" fill="white"/>
<path d="M32 29.8604C31.1149 29.8604 30.2497 29.598 29.5138 29.1063C28.7779 28.6146 28.2043 27.9158 27.8656 27.0981C27.5269 26.2804 27.4382 25.3806 27.6109 24.5126C27.7835 23.6445 28.2097 22.8471 28.8356 22.2213C29.4614 21.5955 30.2588 21.1693 31.1268 20.9966C31.9949 20.824 32.8946 20.9126 33.7123 21.2513C34.53 21.59 35.2289 22.1636 35.7206 22.8996C36.2123 23.6355 36.4747 24.5007 36.4746 25.3858C36.4734 26.5721 36.0015 27.7095 35.1626 28.5484C34.3238 29.3873 33.1864 29.8591 32 29.8604V29.8604ZM32 21.9106C31.3128 21.9106 30.6409 22.1143 30.0694 22.4961C29.498 22.8779 29.0526 23.4205 28.7895 24.0555C28.5265 24.6904 28.4576 25.3891 28.5916 26.0631C28.7257 26.7372 29.0566 27.3564 29.5425 27.8424C30.0284 28.3284 30.6476 28.6594 31.3216 28.7935C31.9957 28.9276 32.6943 28.8589 33.3293 28.5959C33.9643 28.333 34.507 27.8876 34.8889 27.3162C35.2707 26.7448 35.4746 26.073 35.4746 25.3857C35.4736 24.4644 35.1073 23.5812 34.4559 22.9297C33.8045 22.2782 32.9213 21.9117 32 21.9106V21.9106Z" fill="white"/>
<path d="M31.9951 34.8208C31.6356 34.8209 31.2763 34.801 30.9189 34.7613C29.0134 34.541 27.2202 33.7452 25.7785 32.4798C24.3368 31.2145 23.315 29.5398 22.8494 27.6789C22.3837 25.8181 22.4963 23.8595 23.1721 22.0643C23.848 20.269 25.055 18.7225 26.6322 17.6307C28.2094 16.5389 30.0819 15.9538 32.0002 15.9534C33.9184 15.9529 35.7912 16.5372 37.3689 17.6283C38.9466 18.7194 40.1543 20.2654 40.8309 22.0603C41.5076 23.8553 41.6211 25.8138 41.1562 27.6748C40.986 28.3576 40.572 28.9546 39.9921 29.3533C39.4123 29.752 38.7067 29.925 38.0082 29.8395C37.3097 29.7541 36.6666 29.4163 36.1999 28.8896C35.7333 28.3629 35.4753 27.6837 35.4746 26.98V21.4106H36.4746V26.98C36.4752 27.4395 36.6438 27.883 36.9487 28.2269C37.2536 28.5707 37.6736 28.7913 38.1298 28.847C38.5859 28.9027 39.0467 28.7897 39.4253 28.5293C39.804 28.2689 40.0744 27.879 40.1855 27.4331C40.4737 26.2793 40.5148 25.0776 40.3061 23.9068C40.0974 22.736 39.6437 21.6225 38.9747 20.6392C38.3057 19.656 37.4365 18.8252 36.424 18.2014C35.4115 17.5775 34.2786 17.1746 33.0996 17.019C31.7924 16.8473 30.4631 16.9843 29.2184 17.4191C27.9737 17.8538 26.8482 18.5742 25.9321 19.5224C25.016 20.4706 24.3349 21.6203 23.9434 22.8793C23.5518 24.1383 23.4608 25.4715 23.6775 26.772C23.8942 28.0725 24.4126 29.3041 25.1912 30.3681C25.9698 31.4321 26.9869 32.2989 28.161 32.8988C29.335 33.4988 30.6333 33.8153 31.9517 33.8229C33.2701 33.8306 34.572 33.5292 35.7529 32.9429L36.1982 33.8384C34.8921 34.4869 33.4533 34.8232 31.9951 34.8208Z" fill="white"/>
</g>
<defs>
<clipPath id="clip0_16_1913">
<rect width="64" height="64.1128" fill="white" transform="translate(0 0.745605)"/>
</clipPath>
</defs>
</svg>
