<svg width="64" height="65" viewBox="0 0 64 64" fill="none" xmlns="http://www.w3.org/2000/svg">
<g clip-path="url(#clip0_16_1761)">
<path opacity="0.15" d="M63.5 57.4249H0.5V63.6128H63.5V57.4249Z" fill="#183A9E"/>
<path opacity="0.15" d="M21.016 8.39204L32 0.613037L42.984 8.39204H21.016Z" fill="#183A9E"/>
<path opacity="0.15" d="M0.5 22.923L9.126 16.814V29.032L0.5 22.923Z" fill="#183A9E"/>
<path opacity="0.15" d="M63.5 22.923L54.874 16.814V29.032L63.5 22.923Z" fill="#183A9E"/>
<path d="M64 64.113H0V22.664L8.837 16.405L9.415 17.222L1 23.182V63.113H63V23.182L54.585 17.222L55.163 16.405L64 22.664V64.113Z" fill="#204ECF"/>
<path d="M42.694 8.8L32 1.226L21.306 8.8L20.728 7.984L32 0L43.272 7.984L42.694 8.8Z" fill="#204ECF"/>
<path d="M32 45.846L0.210999 23.331L0.788998 22.515L32 44.621L63.211 22.515L63.789 23.331L32 45.846Z" fill="#204ECF"/>
<path d="M28.9365 42.8611L0.210022 63.2032L0.788145 64.0197L29.5146 43.6775L28.9365 42.8611Z" fill="#204ECF"/>
<path d="M35.0645 42.8599L34.4863 43.6763L63.2109 64.021L63.7891 63.2046L35.0645 42.8599Z" fill="#204ECF"/>
<path d="M55.374 29.032H54.374V8.89197H9.62598V29.032H8.62598V7.89197H55.374V29.032Z" fill="#204ECF"/>
<path d="M32 29.1148C31.1149 29.1148 30.2497 28.8524 29.5138 28.3607C28.7779 27.869 28.2043 27.1702 27.8656 26.3525C27.5269 25.5348 27.4382 24.635 27.6109 23.767C27.7835 22.8989 28.2097 22.1015 28.8356 21.4757C29.4614 20.8499 30.2588 20.4237 31.1268 20.251C31.9949 20.0784 32.8946 20.167 33.7123 20.5057C34.53 20.8444 35.2289 21.418 35.7206 22.154C36.2123 22.8899 36.4747 23.7551 36.4746 24.6402C36.4734 25.8265 36.0015 26.9639 35.1626 27.8028C34.3238 28.6417 33.1864 29.1135 32 29.1148V29.1148ZM32 21.165C31.3128 21.165 30.6409 21.3687 30.0694 21.7505C29.498 22.1323 29.0526 22.6749 28.7895 23.3099C28.5265 23.9448 28.4576 24.6435 28.5916 25.3175C28.7257 25.9916 29.0566 26.6108 29.5425 27.0968C30.0284 27.5828 30.6476 27.9138 31.3216 28.0479C31.9957 28.182 32.6943 28.1133 33.3293 27.8503C33.9643 27.5874 34.507 27.142 34.8889 26.5706C35.2707 25.9992 35.4746 25.3274 35.4746 24.6401C35.4736 23.7188 35.1073 22.8356 34.4559 22.1841C33.8045 21.5326 32.9213 21.1661 32 21.165V21.165Z" fill="#204ECF"/>
<path d="M31.9951 34.0752C31.6356 34.0753 31.2763 34.0554 30.9189 34.0157C29.0134 33.7954 27.2202 32.9996 25.7785 31.7342C24.3368 30.4689 23.315 28.7942 22.8494 26.9333C22.3837 25.0725 22.4963 23.1139 23.1721 21.3187C23.848 19.5234 25.055 17.9769 26.6322 16.8851C28.2094 15.7933 30.0819 15.2082 32.0002 15.2078C33.9184 15.2073 35.7912 15.7916 37.3689 16.8827C38.9466 17.9737 40.1543 19.5198 40.8309 21.3147C41.5076 23.1096 41.6211 25.0682 41.1562 26.9292C40.986 27.612 40.572 28.209 39.9921 28.6077C39.4123 29.0064 38.7067 29.1794 38.0082 29.0939C37.3097 29.0085 36.6666 28.6706 36.1999 28.144C35.7333 27.6173 35.4753 26.9381 35.4746 26.2344V20.665H36.4746V26.2344C36.4752 26.6939 36.6438 27.1374 36.9487 27.4813C37.2536 27.8251 37.6736 28.0457 38.1298 28.1014C38.5859 28.1571 39.0467 28.0441 39.4253 27.7837C39.804 27.5233 40.0744 27.1334 40.1855 26.6875C40.4737 25.5337 40.5148 24.332 40.3061 23.1612C40.0974 21.9904 39.6437 20.8769 38.9747 19.8936C38.3057 18.9104 37.4365 18.0796 36.424 17.4557C35.4115 16.8319 34.2786 16.429 33.0996 16.2734C31.7924 16.1017 30.4631 16.2387 29.2184 16.6735C27.9737 17.1082 26.8482 17.8286 25.9321 18.7768C25.016 19.725 24.3349 20.8747 23.9434 22.1337C23.5518 23.3927 23.4608 24.7259 23.6775 26.0264C23.8942 27.3269 24.4126 28.5585 25.1912 29.6225C25.9698 30.6865 26.9869 31.5533 28.161 32.1532C29.335 32.7532 30.6333 33.0697 31.9517 33.0773C33.2701 33.085 34.572 32.7836 35.7529 32.1973L36.1982 33.0928C34.8921 33.7413 33.4533 34.0776 31.9951 34.0752Z" fill="#204ECF"/>
</g>
<defs>
<clipPath id="clip0_16_1761">
<rect width="64" height="64.1128" fill="white"/>
</clipPath>
</defs>
</svg>
