<svg width="64" height="64" viewBox="0 0 64 64" fill="none" xmlns="http://www.w3.org/2000/svg">
<path opacity="0.15" d="M21.5545 13.752H20.1718C18.7539 13.752 17.6045 14.9014 17.6045 16.3192V17.7019C17.6045 19.1198 18.7539 20.2692 20.1718 20.2692H21.5545C22.9723 20.2692 24.1217 19.1198 24.1217 17.7019V16.3192C24.1217 14.9014 22.9723 13.752 21.5545 13.752Z" fill="#183A9E"/>
<path opacity="0.15" d="M34.6876 13.752H33.3049C31.8871 13.752 30.7377 14.9014 30.7377 16.3192V17.7019C30.7377 19.1198 31.8871 20.2692 33.3049 20.2692H34.6876C36.1055 20.2692 37.2549 19.1198 37.2549 17.7019V16.3192C37.2549 14.9014 36.1055 13.752 34.6876 13.752Z" fill="#183A9E"/>
<path opacity="0.15" d="M47.75 32.0001C44.635 32.0001 41.5898 32.9238 38.9998 34.6545C36.4097 36.3851 34.391 38.8449 33.1989 41.7229C32.0068 44.6008 31.6949 47.7676 32.3026 50.8228C32.9104 53.878 34.4104 56.6844 36.6131 58.8871C38.8158 61.0897 41.6221 62.5898 44.6773 63.1975C47.7325 63.8052 50.8993 63.4933 53.7773 62.3012C56.6552 61.1091 59.115 59.0904 60.8457 56.5004C62.5763 53.9103 63.5 50.8652 63.5 47.7501C63.5 43.573 61.8406 39.5669 58.8869 36.6132C55.9332 33.6595 51.9272 32.0001 47.75 32.0001V32.0001ZM56.2568 47.8309L55.0293 52.4243C54.8162 53.2216 54.3458 53.9263 53.6912 54.4289C53.0367 54.9315 52.2345 55.204 51.4092 55.204H47.116C46.2608 55.2046 45.4171 55.0063 44.6517 54.6249C43.8863 54.2434 43.22 53.6891 42.7056 53.0059H39.3857V44.9079H42.4351L45.5426 41.7866L47.247 38.2872C47.3003 38.1777 47.375 38.0799 47.4667 37.9995C47.5583 37.9192 47.6651 37.858 47.7807 37.8195C47.8963 37.781 48.0184 37.766 48.1399 37.7753C48.2614 37.7847 48.3798 37.8182 48.4882 37.8739C48.9345 38.1033 49.2959 38.4691 49.52 38.918C49.744 39.367 49.819 39.8757 49.7339 40.3702L49.1258 43.9086H53.2452C53.7232 43.9086 54.1948 44.0185 54.6235 44.2298C55.0523 44.4412 55.4267 44.7483 55.7178 45.1274C56.0089 45.5066 56.2089 45.9476 56.3024 46.4164C56.3959 46.8851 56.3803 47.3691 56.2568 47.8309V47.8309Z" fill="#183A9E"/>
<path d="M27.4297 54.8595C22.0046 54.8595 16.7014 53.2508 12.1906 50.2368C7.67979 47.2228 4.16406 42.9388 2.08797 37.9267C0.0118847 32.9146 -0.531314 27.3994 0.527066 22.0786C1.58545 16.7577 4.19787 11.8702 8.03398 8.03411C11.8701 4.19799 16.7576 1.58557 22.0784 0.527188C27.3993 -0.531192 32.9145 0.0120068 37.9266 2.0881C42.9387 4.16418 47.2226 7.67992 50.2367 12.1907C53.2507 16.7015 54.8594 22.0047 54.8594 27.4298C54.8596 29.2863 54.6731 31.1381 54.3027 32.9572L53.3223 32.757C54.4645 27.1818 53.7747 21.3869 51.3558 16.2356C48.9368 11.0844 44.9181 6.85265 39.8986 4.17103C34.879 1.48942 29.1274 0.501478 23.5007 1.35445C17.8741 2.20742 12.6737 4.85563 8.67442 8.90444C4.67519 12.9532 2.09125 18.1859 1.30767 23.8226C0.524083 29.4594 1.5828 35.1984 4.32606 40.1845C7.06931 45.1706 11.3502 49.1369 16.5309 51.4922C21.7115 53.8476 27.5146 54.4659 33.0752 53.255L33.2881 54.2326C31.3632 54.6499 29.3993 54.86 27.4297 54.8595V54.8595Z" fill="#204ECF"/>
<path d="M27.4297 43.652C23.1289 43.647 19.0057 41.9363 15.9646 38.8951C12.9235 35.8539 11.2129 31.7306 11.208 27.4298V26.9298H43.6514V27.4298C43.6543 29.4071 43.2942 31.3682 42.5889 33.2155L41.6553 32.859C42.2568 31.2824 42.5908 29.6164 42.6436 27.9298H12.2158C12.297 30.3529 12.9554 32.7217 14.1363 34.8392C15.3172 36.9566 16.9865 38.7616 19.0055 40.104C21.0244 41.4464 23.3346 42.2875 25.7441 42.5574C28.1535 42.8272 30.5925 42.518 32.8584 41.6554L33.2158 42.59C31.3683 43.2948 29.4071 43.6548 27.4297 43.652Z" fill="#204ECF"/>
<path d="M21.5547 20.7692H20.1719C19.3586 20.7683 18.579 20.4448 18.0039 19.8698C17.4289 19.2947 17.1054 18.515 17.1045 17.7018V16.3195C17.1054 15.5062 17.4289 14.7265 18.0039 14.1515C18.579 13.5764 19.3586 13.253 20.1719 13.2521H21.5547C22.3679 13.253 23.1476 13.5764 23.7227 14.1515C24.2977 14.7265 24.6212 15.5062 24.6221 16.3195V17.7018C24.6212 18.515 24.2977 19.2947 23.7227 19.8698C23.1476 20.4448 22.3679 20.7683 21.5547 20.7692V20.7692ZM20.1719 14.2521C19.6238 14.2527 19.0983 14.4707 18.7107 14.8583C18.3232 15.2459 18.1051 15.7713 18.1045 16.3195V17.7018C18.1051 18.2499 18.3232 18.7754 18.7107 19.1629C19.0983 19.5505 19.6238 19.7685 20.1719 19.7692H21.5547C22.1028 19.7685 22.6283 19.5505 23.0158 19.1629C23.4034 18.7754 23.6214 18.2499 23.6221 17.7018V16.3195C23.6214 15.7713 23.4034 15.2459 23.0158 14.8583C22.6283 14.4707 22.1028 14.2527 21.5547 14.2521H20.1719Z" fill="#204ECF"/>
<path d="M34.6875 20.7692H33.3047C32.4915 20.7683 31.7118 20.4448 31.1367 19.8698C30.5617 19.2947 30.2382 18.515 30.2373 17.7018V16.3195C30.2382 15.5062 30.5617 14.7265 31.1367 14.1515C31.7118 13.5764 32.4915 13.253 33.3047 13.2521H34.6875C35.5007 13.253 36.2804 13.5764 36.8555 14.1515C37.4305 14.7265 37.754 15.5062 37.7549 16.3195V17.7018C37.754 18.515 37.4305 19.2947 36.8555 19.8698C36.2804 20.4448 35.5007 20.7683 34.6875 20.7692V20.7692ZM33.3047 14.2521C32.7566 14.2527 32.2311 14.4707 31.8435 14.8583C31.456 15.2459 31.2379 15.7713 31.2373 16.3195V17.7018C31.238 18.2499 31.456 18.7754 31.8435 19.1629C32.2311 19.5505 32.7566 19.7685 33.3047 19.7692H34.6875C35.2356 19.7685 35.7611 19.5505 36.1487 19.1629C36.5362 18.7754 36.7542 18.2499 36.7549 17.7018V16.3195C36.7542 15.7713 36.5362 15.2459 36.1487 14.8583C35.7611 14.4707 35.2356 14.2527 34.6875 14.2521H33.3047Z" fill="#204ECF"/>
<path d="M47.75 64.0001C44.5361 64.0001 41.3943 63.0471 38.722 61.2615C36.0497 59.4759 33.9669 56.938 32.737 53.9687C31.507 50.9994 31.1852 47.7321 31.8122 44.5799C32.4393 41.4277 33.9869 38.5322 36.2595 36.2596C38.5321 33.987 41.4276 32.4394 44.5798 31.8124C47.732 31.1854 50.9993 31.5072 53.9686 32.7371C56.9379 33.967 59.4758 36.0498 61.2614 38.7221C63.047 41.3944 64 44.5362 64 47.7501C63.9951 52.0584 62.2815 56.1888 59.2351 59.2352C56.1887 62.2816 52.0583 63.9952 47.75 64.0001V64.0001ZM47.75 32.5001C44.7338 32.5001 41.7854 33.3945 39.2776 35.0702C36.7697 36.7459 34.8151 39.1276 33.6608 41.9142C32.5066 44.7008 32.2046 47.767 32.793 50.7253C33.3815 53.6835 34.8339 56.4008 36.9666 58.5335C39.0994 60.6663 41.8167 62.1187 44.7749 62.7071C47.7331 63.2955 50.7994 62.9935 53.5859 61.8393C56.3725 60.6851 58.7542 58.7304 60.4299 56.2226C62.1056 53.7147 63 50.7663 63 47.7501C62.9955 43.707 61.3873 39.8307 58.5284 36.9718C55.6694 34.1128 51.7932 32.5047 47.75 32.5001V32.5001Z" fill="#204ECF"/>
<path d="M56.1143 44.8234C55.7779 44.3818 55.3438 44.0243 54.846 43.7788C54.3481 43.5334 53.8002 43.4067 53.2451 43.4088H49.7197L50.2275 40.4547C50.3318 39.8551 50.2414 39.2379 49.9696 38.6934C49.6977 38.1489 49.2587 37.7058 48.7168 37.4288C48.5492 37.3427 48.3661 37.291 48.1782 37.2766C47.9904 37.2622 47.8015 37.2855 47.6228 37.3451C47.444 37.4046 47.279 37.4993 47.1373 37.6235C46.9957 37.7478 46.8802 37.899 46.7978 38.0685L45.1298 41.4923L42.2265 44.4078H38.8857V53.506H42.4619C43.0281 54.1924 43.7389 54.7453 44.5434 55.1252C45.348 55.5052 46.2265 55.7029 47.1162 55.7043H51.4092C52.3444 55.7031 53.2532 55.3939 53.995 54.8243C54.7368 54.2547 55.2702 53.4566 55.5127 52.5534L56.7403 47.9606C56.8853 47.4249 56.9043 46.8628 56.7957 46.3185C56.6871 45.7742 56.4538 45.2624 56.1143 44.8234V44.8234ZM55.7734 47.7023L54.5459 52.295C54.3607 52.9856 53.953 53.5959 53.386 54.0314C52.819 54.4669 52.1242 54.7034 51.4092 54.7042H47.1162C46.3386 54.7033 45.5718 54.5223 44.8758 54.1756C44.1798 53.8289 43.5736 53.3258 43.1045 52.7057L42.9551 52.5059H39.8857V45.4078H42.6426L45.8975 42.1393L47.6963 38.506C47.7205 38.4563 47.7544 38.412 47.796 38.3756C47.8376 38.3392 47.886 38.3115 47.9385 38.2941C47.9909 38.2762 48.0464 38.2692 48.1016 38.2733C48.1569 38.2775 48.2107 38.2929 48.2598 38.3185C48.612 38.4985 48.8973 38.7866 49.0739 39.1405C49.2505 39.4945 49.3092 39.8956 49.2412 40.2853L48.5322 44.4089H53.2451C53.6465 44.4088 54.0425 44.5011 54.4025 44.6785C54.7625 44.856 55.0768 45.1139 55.3212 45.4322C55.5656 45.7506 55.7335 46.1209 55.812 46.5146C55.8904 46.9082 55.8772 47.3146 55.7734 47.7023L55.7734 47.7023Z" fill="#204ECF"/>
</svg>
