<svg width="64" height="65" viewBox="0 0 64 64" fill="none" xmlns="http://www.w3.org/2000/svg">
<g clip-path="url(#clip0_16_1985)">
<path opacity="0.3" d="M21.5545 14.4976H20.1718C18.7539 14.4976 17.6045 15.647 17.6045 17.0648V18.4475C17.6045 19.8654 18.7539 21.0148 20.1718 21.0148H21.5545C22.9723 21.0148 24.1217 19.8654 24.1217 18.4475V17.0648C24.1217 15.647 22.9723 14.4976 21.5545 14.4976Z" fill="#231F20"/>
<path opacity="0.3" d="M34.6876 14.4976H33.3049C31.8871 14.4976 30.7377 15.647 30.7377 17.0648V18.4475C30.7377 19.8654 31.8871 21.0148 33.3049 21.0148H34.6876C36.1055 21.0148 37.2549 19.8654 37.2549 18.4475V17.0648C37.2549 15.647 36.1055 14.4976 34.6876 14.4976Z" fill="#231F20"/>
<path opacity="0.3" d="M47.75 32.7457C44.635 32.7457 41.5898 33.6694 38.9998 35.4001C36.4097 37.1307 34.391 39.5905 33.1989 42.4685C32.0068 45.3464 31.6949 48.5132 32.3026 51.5684C32.9104 54.6236 34.4104 57.43 36.6131 59.6327C38.8158 61.8353 41.6221 63.3354 44.6773 63.9431C47.7325 64.5508 50.8993 64.2389 53.7773 63.0468C56.6552 61.8547 59.115 59.836 60.8457 57.246C62.5763 54.6559 63.5 51.6108 63.5 48.4957C63.5 44.3186 61.8406 40.3125 58.8869 37.3588C55.9332 34.4051 51.9272 32.7457 47.75 32.7457V32.7457ZM56.2568 48.5765L55.0293 53.1699C54.8162 53.9672 54.3458 54.6719 53.6912 55.1745C53.0367 55.6771 52.2345 55.9496 51.4092 55.9496H47.116C46.2608 55.9502 45.4171 55.7519 44.6517 55.3705C43.8863 54.989 43.22 54.4347 42.7056 53.7515H39.3857V45.6535H42.4351L45.5426 42.5322L47.247 39.0328C47.3003 38.9233 47.375 38.8255 47.4667 38.7451C47.5583 38.6648 47.6651 38.6036 47.7807 38.5651C47.8963 38.5266 48.0184 38.5116 48.1399 38.5209C48.2614 38.5303 48.3798 38.5638 48.4882 38.6195C48.9345 38.8489 49.2959 39.2147 49.52 39.6636C49.744 40.1126 49.819 40.6213 49.7339 41.1158L49.1258 44.6542H53.2452C53.7232 44.6542 54.1948 44.7641 54.6235 44.9754C55.0523 45.1868 55.4267 45.4939 55.7178 45.873C56.0089 46.2522 56.2089 46.6932 56.3024 47.162C56.3959 47.6307 56.3803 48.1147 56.2568 48.5765V48.5765Z" fill="#231F20"/>
<path d="M27.4297 55.6051C22.0046 55.6051 16.7014 53.9964 12.1906 50.9824C7.67979 47.9684 4.16406 43.6844 2.08797 38.6723C0.0118847 33.6602 -0.531314 28.145 0.527066 22.8242C1.58545 17.5033 4.19787 12.6158 8.03398 8.77971C11.8701 4.9436 16.7576 2.33117 22.0784 1.27279C27.3993 0.214413 32.9145 0.757612 37.9266 2.8337C42.9387 4.90979 47.2226 8.42552 50.2367 12.9363C53.2507 17.4471 54.8594 22.7503 54.8594 28.1754C54.8596 30.0319 54.6731 31.8837 54.3027 33.7028L53.3223 33.5026C54.4645 27.9275 53.7747 22.1325 51.3558 16.9812C48.9368 11.83 44.9181 7.59826 39.8986 4.91664C34.879 2.23502 29.1274 1.24708 23.5007 2.10005C17.8741 2.95302 12.6737 5.60123 8.67442 9.65004C4.67519 13.6989 2.09125 18.9315 1.30767 24.5682C0.524083 30.205 1.5828 35.944 4.32606 40.9301C7.06931 45.9162 11.3502 49.8825 16.5309 52.2378C21.7115 54.5932 27.5146 55.2115 33.0752 54.0007L33.2881 54.9782C31.3632 55.3955 29.3993 55.6056 27.4297 55.6051V55.6051Z" fill="white"/>
<path d="M27.4297 44.3976C23.1289 44.3926 19.0057 42.6819 15.9646 39.6407C12.9235 36.5995 11.2129 32.4762 11.208 28.1754V27.6754H43.6514V28.1754C43.6543 30.1527 43.2942 32.1138 42.5889 33.9611L41.6553 33.6046C42.2568 32.028 42.5908 30.362 42.6436 28.6754H12.2158C12.297 31.0986 12.9554 33.4673 14.1363 35.5848C15.3172 37.7022 16.9865 39.5072 19.0055 40.8496C21.0244 42.192 23.3346 43.0331 25.7441 43.303C28.1535 43.5728 30.5925 43.2636 32.8584 42.401L33.2158 43.3356C31.3683 44.0404 29.4071 44.4004 27.4297 44.3976Z" fill="white"/>
<path d="M21.5547 21.5148H20.1719C19.3586 21.5139 18.579 21.1904 18.0039 20.6154C17.4289 20.0403 17.1054 19.2606 17.1045 18.4474V17.0651C17.1054 16.2518 17.4289 15.4721 18.0039 14.8971C18.579 14.322 19.3586 13.9986 20.1719 13.9977H21.5547C22.3679 13.9986 23.1476 14.322 23.7227 14.8971C24.2977 15.4721 24.6212 16.2518 24.6221 17.0651V18.4474C24.6212 19.2606 24.2977 20.0403 23.7227 20.6154C23.1476 21.1904 22.3679 21.5139 21.5547 21.5148V21.5148ZM20.1719 14.9977C19.6238 14.9983 19.0983 15.2163 18.7107 15.6039C18.3232 15.9915 18.1051 16.517 18.1045 17.0651V18.4474C18.1051 18.9955 18.3232 19.521 18.7107 19.9085C19.0983 20.2961 19.6238 20.5141 20.1719 20.5148H21.5547C22.1028 20.5141 22.6283 20.2961 23.0158 19.9085C23.4034 19.521 23.6214 18.9955 23.6221 18.4474V17.0651C23.6214 16.517 23.4034 15.9915 23.0158 15.6039C22.6283 15.2163 22.1028 14.9983 21.5547 14.9977H20.1719Z" fill="white"/>
<path d="M34.6875 21.5148H33.3047C32.4915 21.5139 31.7118 21.1904 31.1367 20.6154C30.5617 20.0403 30.2382 19.2606 30.2373 18.4474V17.0651C30.2382 16.2518 30.5617 15.4721 31.1367 14.8971C31.7118 14.322 32.4915 13.9986 33.3047 13.9977H34.6875C35.5007 13.9986 36.2804 14.322 36.8555 14.8971C37.4305 15.4721 37.754 16.2518 37.7549 17.0651V18.4474C37.754 19.2606 37.4305 20.0403 36.8555 20.6154C36.2804 21.1904 35.5007 21.5139 34.6875 21.5148V21.5148ZM33.3047 14.9977C32.7566 14.9983 32.2311 15.2163 31.8435 15.6039C31.456 15.9915 31.2379 16.517 31.2373 17.0651V18.4474C31.238 18.9955 31.456 19.521 31.8435 19.9085C32.2311 20.2961 32.7566 20.5141 33.3047 20.5148H34.6875C35.2356 20.5141 35.7611 20.2961 36.1487 19.9085C36.5362 19.521 36.7542 18.9955 36.7549 18.4474V17.0651C36.7542 16.517 36.5362 15.9915 36.1487 15.6039C35.7611 15.2163 35.2356 14.9983 34.6875 14.9977H33.3047Z" fill="white"/>
<path d="M47.75 64.7457C44.5361 64.7457 41.3943 63.7927 38.722 62.0071C36.0497 60.2215 33.9669 57.6836 32.737 54.7143C31.507 51.745 31.1852 48.4777 31.8122 45.3255C32.4393 42.1733 33.9869 39.2779 36.2595 37.0052C38.5321 34.7326 41.4276 33.185 44.5798 32.558C47.732 31.931 50.9993 32.2528 53.9686 33.4827C56.9379 34.7126 59.4758 36.7954 61.2614 39.4677C63.047 42.14 64 45.2818 64 48.4957C63.9951 52.804 62.2815 56.9344 59.2351 59.9808C56.1887 63.0272 52.0583 64.7408 47.75 64.7457V64.7457ZM47.75 33.2457C44.7338 33.2457 41.7854 34.1401 39.2776 35.8158C36.7697 37.4915 34.8151 39.8732 33.6608 42.6598C32.5066 45.4464 32.2046 48.5127 32.793 51.4709C33.3815 54.4291 34.8339 57.1464 36.9666 59.2791C39.0994 61.4119 41.8167 62.8643 44.7749 63.4527C47.7331 64.0411 50.7994 63.7391 53.5859 62.5849C56.3725 61.4307 58.7542 59.476 60.4299 56.9682C62.1056 54.4603 63 51.5119 63 48.4957C62.9955 44.4526 61.3873 40.5763 58.5284 37.7174C55.6694 34.8584 51.7932 33.2503 47.75 33.2457V33.2457Z" fill="white"/>
<path d="M56.1143 45.569C55.7779 45.1274 55.3438 44.7699 54.846 44.5244C54.3481 44.279 53.8002 44.1523 53.2451 44.1544H49.7197L50.2275 41.2003C50.3318 40.6007 50.2414 39.9835 49.9696 39.439C49.6977 38.8946 49.2587 38.4514 48.7168 38.1744C48.5492 38.0883 48.3661 38.0366 48.1782 38.0222C47.9904 38.0078 47.8015 38.0311 47.6228 38.0907C47.444 38.1503 47.279 38.2449 47.1373 38.3692C46.9957 38.4934 46.8802 38.6446 46.7978 38.8141L45.1298 42.2379L42.2265 45.1534H38.8857V54.2516H42.4619C43.0281 54.938 43.7389 55.4909 44.5434 55.8709C45.348 56.2508 46.2265 56.4486 47.1162 56.4499H51.4092C52.3444 56.4487 53.2532 56.1395 53.995 55.5699C54.7368 55.0003 55.2702 54.2022 55.5127 53.299L56.7403 48.7062C56.8853 48.1705 56.9043 47.6084 56.7957 47.0641C56.6871 46.5198 56.4538 46.008 56.1143 45.569V45.569ZM55.7734 48.4479L54.5459 53.0406C54.3607 53.7312 53.953 54.3415 53.386 54.777C52.819 55.2125 52.1242 55.449 51.4092 55.4498H47.1162C46.3386 55.4489 45.5718 55.268 44.8758 54.9212C44.1798 54.5745 43.5736 54.0714 43.1045 53.4513L42.9551 53.2515H39.8857V46.1534H42.6426L45.8975 42.8849L47.6963 39.2516C47.7205 39.202 47.7544 39.1576 47.796 39.1212C47.8376 39.0849 47.886 39.0571 47.9385 39.0397C47.9909 39.0218 48.0464 39.0148 48.1016 39.019C48.1569 39.0231 48.2107 39.0385 48.2598 39.0641C48.612 39.2441 48.8973 39.5322 49.0739 39.8861C49.2505 40.2401 49.3092 40.6412 49.2412 41.0309L48.5322 45.1545H53.2451C53.6465 45.1544 54.0425 45.2467 54.4025 45.4241C54.7625 45.6016 55.0768 45.8595 55.3212 46.1778C55.5656 46.4962 55.7335 46.8665 55.812 47.2602C55.8904 47.6538 55.8772 48.0602 55.7734 48.4479L55.7734 48.4479Z" fill="white"/>
</g>
<defs>
<clipPath id="clip0_16_1985">
<rect width="64.0003" height="64.0001" fill="white" transform="translate(0 0.745605)"/>
</clipPath>
</defs>
</svg>
