<svg width="64" height="65" viewBox="0 0 64 64" fill="none" xmlns="http://www.w3.org/2000/svg">
<g clip-path="url(#clip0_17_2188)">
<path opacity="0.3" d="M14.9152 47.14C18.8587 47.14 22.0555 43.9432 22.0555 39.9997C22.0555 36.0562 18.8587 32.8594 14.9152 32.8594C10.9717 32.8594 7.7749 36.0562 7.7749 39.9997C7.7749 43.9432 10.9717 47.14 14.9152 47.14Z" fill="#231F20"/>
<path opacity="0.3" d="M14.9151 47.1418C11.0918 47.1419 7.42511 48.6607 4.72163 51.3642C2.01815 54.0677 0.499366 57.7345 0.49939 61.5578H29.3311C29.3311 59.6647 28.9582 57.7901 28.2338 56.041C27.5093 54.292 26.4474 52.7028 25.1088 51.3642C23.7701 50.0255 22.1809 48.9636 20.4319 48.2392C18.6829 47.5147 16.8083 47.1418 14.9151 47.1418V47.1418Z" fill="#231F20"/>
<path opacity="0.3" d="M49.0848 18.4399C53.0283 18.4399 56.2251 15.2431 56.2251 11.2996C56.2251 7.35613 53.0283 4.1593 49.0848 4.1593C45.1413 4.1593 41.9445 7.35613 41.9445 11.2996C41.9445 15.2431 45.1413 18.4399 49.0848 18.4399Z" fill="#231F20"/>
<path opacity="0.3" d="M49.0847 18.4419C45.2614 18.4419 41.5948 19.9607 38.8913 22.6642C36.1878 25.3677 34.6691 29.0344 34.6691 32.8577H63.5005C63.5005 30.9646 63.1277 29.09 62.4032 27.341C61.6787 25.592 60.6169 24.0028 59.2782 22.6642C57.9396 21.3255 56.3504 20.2637 54.6014 19.5392C52.8524 18.8148 50.9778 18.4419 49.0847 18.4419V18.4419Z" fill="#231F20"/>
<path d="M14.915 47.6409C13.4037 47.6412 11.9262 47.1933 10.6694 46.3538C9.41265 45.5144 8.43303 44.3211 7.85447 42.9249C7.27591 41.5287 7.12438 39.9923 7.41905 38.51C7.71371 37.0276 8.44134 35.666 9.50992 34.5972C10.5785 33.5284 11.94 32.8005 13.4223 32.5056C14.9045 32.2106 16.441 32.3619 17.8373 32.9402C19.2336 33.5184 20.4271 34.4978 21.2668 35.7544C22.1065 37.011 22.5546 38.4884 22.5546 39.9998C22.5526 42.0255 21.7472 43.9676 20.3149 45.4001C18.8827 46.8326 16.9407 47.6385 14.915 47.6409ZM14.915 33.3587C13.6014 33.3584 12.3173 33.7476 11.225 34.4772C10.1327 35.2067 9.28123 36.2438 8.77835 37.4573C8.27547 38.6708 8.14375 40.0061 8.39983 41.2945C8.65592 42.5828 9.28831 43.7663 10.217 44.6952C11.1457 45.6242 12.3291 46.2568 13.6174 46.5132C14.9057 46.7695 16.241 46.6381 17.4546 46.1355C18.6682 45.6329 19.7055 44.7817 20.4353 43.6895C21.1651 42.5974 21.5546 41.3133 21.5546 39.9998C21.5529 38.2392 20.8529 36.5513 19.6081 35.3062C18.3634 34.0612 16.6755 33.3608 14.915 33.3587V33.3587Z" fill="white"/>
<path d="M29.8306 61.5588H28.8306C28.8321 59.7305 28.4733 57.9197 27.7747 56.2301C27.0761 54.5404 26.0514 53.005 24.7591 51.7116C23.4667 50.4182 21.9322 49.3922 20.2432 48.6921C18.5541 47.9921 16.7437 47.6318 14.9153 47.6318C13.0869 47.6318 11.2765 47.9921 9.58741 48.6921C7.89837 49.3922 6.36383 50.4182 5.07152 51.7116C3.77922 53.005 2.75447 54.5404 2.05586 56.2301C1.35724 57.9197 0.998455 59.7305 1.00001 61.5588H5.00046e-06C-0.00159965 59.5991 0.383011 57.6583 1.13186 55.8473C1.8807 54.0363 2.9791 52.3906 4.36427 51.0043C5.74944 49.6179 7.39423 48.5182 9.20463 47.7679C11.015 47.0175 12.9556 46.6313 14.9153 46.6313C16.875 46.6313 18.8155 47.0175 20.6259 47.7679C22.4363 48.5182 24.0811 49.6179 25.4663 51.0043C26.8515 52.3906 27.9499 54.0363 28.6987 55.8473C29.4476 57.6583 29.8322 59.5991 29.8306 61.5588V61.5588Z" fill="white"/>
<path d="M14.915 18.9407C13.4037 18.941 11.9262 18.4931 10.6694 17.6536C9.41264 16.8142 8.43303 15.6209 7.85447 14.2247C7.27591 12.8285 7.12438 11.2921 7.41905 9.80976C7.71372 8.32743 8.44135 6.96578 9.50992 5.897C10.5785 4.82822 11.94 4.10033 13.4223 3.80538C14.9046 3.51043 16.441 3.66166 17.8373 4.23996C19.2336 4.81826 20.4271 5.79764 21.2668 7.05425C22.1065 8.31086 22.5546 9.78825 22.5546 11.2996C22.5526 13.3253 21.7472 15.2674 20.3149 16.6999C18.8827 18.1325 16.9407 18.9383 14.915 18.9407ZM14.915 4.65846C13.6014 4.65817 12.3173 5.04742 11.225 5.77698C10.1327 6.50654 9.28123 7.54364 8.77835 8.75712C8.27547 9.9706 8.14375 11.3059 8.39983 12.5943C8.65591 13.8826 9.2883 15.0661 10.217 15.995C11.1457 16.924 12.3291 17.5566 13.6174 17.813C14.9057 18.0694 16.241 17.9379 17.4546 17.4353C18.6682 16.9327 19.7055 16.0815 20.4353 14.9893C21.1651 13.8972 21.5546 12.6131 21.5546 11.2996C21.5529 9.53904 20.8529 7.85108 19.6081 6.60605C18.3633 5.36103 16.6755 4.66061 14.915 4.65849V4.65846Z" fill="white"/>
<path d="M29.8306 32.8587H28.8306C28.8321 31.0303 28.4733 29.2195 27.7747 27.5299C27.0761 25.8402 26.0514 24.3048 24.7591 23.0114C23.4667 21.718 21.9322 20.692 20.2432 19.9919C18.5541 19.2919 16.7437 18.9316 14.9153 18.9316C13.0869 18.9316 11.2765 19.2919 9.58741 19.9919C7.89837 20.692 6.36383 21.718 5.07152 23.0114C3.77922 24.3048 2.75447 25.8402 2.05586 27.5299C1.35724 29.2195 0.998455 31.0303 1.00001 32.8587H5.00046e-06C-0.00159965 30.8989 0.383011 28.9581 1.13186 27.1471C1.8807 25.3361 2.9791 23.6904 4.36427 22.3041C5.74944 20.9178 7.39423 19.818 9.20463 19.0677C11.015 18.3174 12.9556 17.9312 14.9153 17.9312C16.875 17.9312 18.8155 18.3174 20.6259 19.0677C22.4363 19.818 24.0811 20.9178 25.4663 22.3041C26.8515 23.6904 27.9499 25.3361 28.6987 27.1471C29.4476 28.9581 29.8322 30.8989 29.8306 32.8587V32.8587Z" fill="white"/>
<path d="M49.085 18.9407C47.5736 18.941 46.0962 18.4931 44.8394 17.6536C43.5826 16.8142 42.603 15.6209 42.0245 14.2247C41.4459 12.8285 41.2944 11.2921 41.589 9.80976C41.8837 8.32743 42.6113 6.96578 43.6799 5.897C44.7485 4.82822 46.11 4.10033 47.5923 3.80538C49.0745 3.51043 50.611 3.66166 52.0073 4.23996C53.4036 4.81826 54.5971 5.79764 55.4368 7.05425C56.2764 8.31086 56.7246 9.78825 56.7246 11.2996C56.7225 13.3252 55.917 15.2673 54.4848 16.6998C53.0526 18.1323 51.1106 18.9382 49.085 18.9407V18.9407ZM49.085 4.65846C47.7714 4.65817 46.4873 5.04742 45.395 5.77698C44.3026 6.50654 43.4512 7.54364 42.9483 8.75712C42.4455 9.9706 42.3137 11.3059 42.5698 12.5943C42.8259 13.8826 43.4583 15.0661 44.387 15.995C45.3157 16.924 46.4991 17.5566 47.7873 17.813C49.0756 18.0694 50.411 17.9379 51.6246 17.4353C52.8382 16.9327 53.8755 16.0815 54.6053 14.9893C55.3351 13.8972 55.7246 12.6131 55.7246 11.2996C55.7229 9.53905 55.0228 7.85111 53.778 6.60609C52.5333 5.36106 50.8455 4.66064 49.085 4.65849V4.65846Z" fill="white"/>
<path d="M64 32.8587H63C63.0016 31.0303 62.6428 29.2195 61.9442 27.5299C61.2455 25.8402 60.2208 24.3048 58.9285 23.0114C57.6362 21.718 56.1016 20.692 54.4126 19.9919C52.7236 19.2919 50.9131 18.9316 49.0847 18.9316C47.2564 18.9316 45.4459 19.2919 43.7568 19.9919C42.0678 20.692 40.5333 21.718 39.241 23.0114C37.9486 24.3048 36.9239 25.8402 36.2253 27.5299C35.5267 29.2195 35.1679 31.0303 35.1694 32.8587H34.1694C34.1678 30.8989 34.5524 28.9581 35.3013 27.1471C36.0501 25.3361 37.1485 23.6904 38.5337 22.3041C39.9189 20.9178 41.5637 19.818 43.3741 19.0677C45.1845 18.3174 47.125 17.9312 49.0847 17.9312C51.0445 17.9312 52.985 18.3174 54.7954 19.0677C56.6058 19.818 58.2506 20.9178 59.6357 22.3041C61.0209 23.6904 62.1193 25.3361 62.8682 27.1471C63.617 28.9581 64.0016 30.8989 64 32.8587V32.8587Z" fill="white"/>
<path d="M49.085 47.6409C47.5736 47.6412 46.0962 47.1933 44.8394 46.3538C43.5826 45.5144 42.603 44.3211 42.0245 42.9249C41.4459 41.5287 41.2944 39.9923 41.589 38.51C41.8837 37.0276 42.6113 35.666 43.6799 34.5972C44.7485 33.5284 46.11 32.8005 47.5923 32.5056C49.0745 32.2106 50.611 32.3619 52.0073 32.9402C53.4036 33.5184 54.5971 34.4978 55.4368 35.7544C56.2764 37.011 56.7246 38.4884 56.7246 39.9998C56.7225 42.0254 55.917 43.9675 54.4848 45.4C53.0526 46.8325 51.1106 47.6384 49.085 47.6409V47.6409ZM49.085 33.3587C47.7714 33.3584 46.4873 33.7476 45.395 34.4772C44.3026 35.2067 43.4512 36.2438 42.9483 37.4573C42.4455 38.6708 42.3137 40.0061 42.5698 41.2945C42.8259 42.5828 43.4583 43.7663 44.387 44.6952C45.3157 45.6242 46.4991 46.2568 47.7874 46.5132C49.0756 46.7695 50.411 46.6381 51.6246 46.1355C52.8382 45.6329 53.8755 44.7817 54.6053 43.6895C55.3351 42.5974 55.7246 41.3133 55.7246 39.9998C55.7229 38.2392 55.0228 36.5513 53.7781 35.3063C52.5333 34.0612 50.8455 33.3608 49.085 33.3587V33.3587Z" fill="white"/>
<path d="M64 61.5588H63C63.0016 59.7305 62.6428 57.9197 61.9442 56.2301C61.2455 54.5404 60.2208 53.005 58.9285 51.7116C57.6362 50.4182 56.1016 49.3922 54.4126 48.6921C52.7236 47.9921 50.9131 47.6318 49.0847 47.6318C47.2564 47.6318 45.4459 47.9921 43.7568 48.6921C42.0678 49.3922 40.5333 50.4182 39.241 51.7116C37.9486 53.005 36.9239 54.5404 36.2253 56.2301C35.5267 57.9197 35.1679 59.7305 35.1694 61.5588H34.1694C34.1678 59.5991 34.5524 57.6583 35.3013 55.8473C36.0501 54.0363 37.1485 52.3906 38.5337 51.0043C39.9189 49.6179 41.5637 48.5182 43.3741 47.7679C45.1845 47.0175 47.125 46.6313 49.0847 46.6313C51.0445 46.6313 52.985 47.0175 54.7954 47.7679C56.6058 48.5182 58.2506 49.6179 59.6357 51.0043C61.0209 52.3906 62.1193 54.0363 62.8682 55.8473C63.617 57.6583 64.0016 59.5991 64 61.5588V61.5588Z" fill="white"/>
</g>
<defs>
<clipPath id="clip0_17_2188">
<rect width="64" height="64" fill="white" transform="translate(0 0.858643)"/>
</clipPath>
</defs>
</svg>
