<svg width="65" height="64" viewBox="0 0 65 64" fill="none" xmlns="http://www.w3.org/2000/svg">
<g clip-path="url(#clip0_17_2010)">
<path opacity="0.15" d="M32.0194 31.4592C33.3581 31.4593 34.6667 31.0623 35.7797 30.3186C36.8928 29.5749 37.7603 28.5179 38.2726 27.2811C38.7849 26.0443 38.9189 24.6835 38.6578 23.3705C38.3966 22.0576 37.752 20.8516 36.8054 19.905C35.8589 18.9584 34.6529 18.3138 33.3399 18.0527C32.027 17.7915 30.6661 17.9255 29.4293 18.4378C28.1926 18.9501 27.1355 19.8177 26.3918 20.9307C25.6481 22.0438 25.2512 23.3524 25.2512 24.6911C25.2513 26.4861 25.9644 28.2075 27.2336 29.4768C28.5029 30.7461 30.2244 31.4592 32.0194 31.4592V31.4592Z" fill="#183A9E"/>
<path opacity="0.15" d="M32.0194 31.4594C28.3951 31.4594 24.9192 32.8992 22.3564 35.462C19.7936 38.0248 18.3539 41.5007 18.3539 45.125H45.6851C45.6851 43.3304 45.3316 41.5534 44.6449 39.8954C43.9581 38.2374 42.9515 36.7309 41.6825 35.4619C40.4135 34.1929 38.9071 33.1863 37.2491 32.4996C35.591 31.8128 33.814 31.4593 32.0194 31.4594V31.4594Z" fill="#183A9E"/>
<path d="M32.0195 31.9594C30.582 31.9593 29.1768 31.533 27.9816 30.7343C26.7863 29.9356 25.8548 28.8005 25.3047 27.4724C24.7546 26.1443 24.6107 24.6829 24.8911 23.273C25.1716 21.8631 25.8638 20.568 26.8803 19.5516C27.8968 18.5351 29.1918 17.8429 30.6017 17.5624C32.0116 17.2819 33.473 17.4259 34.8011 17.976C36.1292 18.526 37.2644 19.4576 38.0631 20.6528C38.8617 21.8481 39.288 23.2533 39.2881 24.6908C39.2859 26.6179 38.5194 28.4654 37.1567 29.828C35.7941 31.1906 33.9466 31.9571 32.0195 31.9594V31.9594ZM32.0195 18.4227C30.7798 18.4228 29.5679 18.7905 28.5371 19.4793C27.5063 20.1681 26.7029 21.1471 26.2285 22.2925C25.7541 23.4379 25.63 24.6983 25.872 25.9142C26.1139 27.1301 26.7109 28.247 27.5876 29.1236C28.4643 30.0002 29.5812 30.5971 30.7971 30.839C32.0131 31.0808 33.2734 30.9566 34.4188 30.4821C35.5642 30.0076 36.5431 29.2042 37.2318 28.1733C37.9206 27.1425 38.2881 25.9305 38.2881 24.6908C38.286 23.0289 37.6249 21.4358 36.4498 20.2607C35.2746 19.0856 33.6814 18.4246 32.0195 18.4227Z" fill="#204ECF"/>
<path d="M46.1856 45.125H45.1856C45.1856 41.6331 43.7984 38.2843 41.3293 35.8152C38.8602 33.3461 35.5114 31.959 32.0196 31.959C28.5277 31.959 25.1789 33.3461 22.7098 35.8152C20.2407 38.2843 18.8536 41.6331 18.8536 45.125H17.8536C17.8536 41.3679 19.3461 37.7647 22.0027 35.1081C24.6593 32.4515 28.2625 30.959 32.0196 30.959C35.7766 30.959 39.3798 32.4515 42.0364 35.1081C44.6931 37.7647 46.1856 41.3679 46.1856 45.125V45.125Z" fill="#204ECF"/>
<path d="M40.4775 63.5219L36.3496 56.8056C33.486 57.3165 30.5545 57.3152 27.6914 56.8017L23.5606 63.5219L23.1953 63.4174C19.6979 62.4174 16.3969 60.8276 13.4346 58.7167L13.125 58.4965L15.8086 51.0639C13.6271 49.1482 11.8029 46.8606 10.4209 44.3075L2.57715 45.27L2.43066 44.9194C1.03225 41.5611 0.217166 37.9889 0.02051 34.3564L0 33.9774L7.49805 31.4364C7.63125 28.5406 8.28009 25.6918 9.41405 23.0238L3.76464 17.4838L3.94726 17.1513C5.70064 13.9641 7.98505 11.0994 10.7021 8.68062L10.9863 8.42818L17.6445 12.7041C19.9927 11.0012 22.6262 9.73159 25.4209 8.95498L26.2285 1.0878L26.6025 1.0238C30.1876 0.407592 33.8515 0.407592 37.4365 1.0238L37.8115 1.0878L38.6182 8.94815C41.4169 9.72304 44.0545 10.9924 46.4062 12.6962L53.0527 8.42809L53.3369 8.68053C56.0543 11.0992 58.3388 13.9641 60.0918 17.1517L60.2744 17.4842L54.6406 23.0082C55.7801 25.6831 56.4316 28.5403 56.5644 31.4447L64.0391 33.9779L64.0185 34.3568C63.8219 37.9891 63.0069 41.5612 61.6084 44.9193L61.4619 45.2699L53.6387 44.3099C52.2537 46.869 50.4244 49.1612 48.2363 51.0794L50.9141 58.4964L50.6045 58.7166C47.642 60.828 44.3406 62.4177 40.8428 63.4173L40.4775 63.5219ZM14.3242 58.12C17.0103 59.9848 19.9747 61.4123 23.1074 62.3495L27.2002 55.6908L27.54 55.7567C30.4997 56.3301 33.5418 56.3313 36.5019 55.7601L36.8408 55.6952L40.9307 62.3495C44.0638 61.4127 47.0287 59.9851 49.7148 58.12L47.0615 50.7704L47.3242 50.5458C49.6198 48.5906 51.5178 46.2121 52.915 43.54L53.0761 43.2333L60.8281 44.1845C62.0484 41.151 62.7805 37.9432 62.9971 34.6806L55.5909 32.1704L55.5792 31.8247C55.4844 28.8135 54.8082 25.8491 53.588 23.0947L53.4473 22.7778L59.0303 17.3032C57.42 14.4574 55.3688 11.8848 52.9532 9.68108L46.3663 13.9106L46.0889 13.7036C43.6771 11.9039 40.9405 10.5868 38.0293 9.82461L37.6943 9.73672L36.8945 1.94766C33.6652 1.43302 30.3748 1.43302 27.1455 1.94766L26.3447 9.74307L26.0097 9.83097C23.1026 10.595 20.37 11.9125 17.9618 13.7113L17.6845 13.9183L11.0859 9.68104C8.67019 11.8845 6.61902 14.4569 5.00873 17.3026L10.6074 22.7924L10.4667 23.1093C9.25249 25.8573 8.57908 28.8135 8.48334 31.8163L8.47162 32.162L1.042 34.6801C1.25867 37.9429 1.99072 41.1507 3.21095 44.1845L10.9834 43.2309L11.1436 43.5375C12.5389 46.2035 14.4321 48.5775 16.7207 50.5312L16.9834 50.7558L14.3242 58.12Z" fill="#204ECF"/>
</g>
<defs>
<clipPath id="clip0_17_2010">
<rect width="64.0391" height="64" fill="white"/>
</clipPath>
</defs>
</svg>
