<svg width="64" height="64" viewBox="0 0 64 64" fill="none" xmlns="http://www.w3.org/2000/svg">
<g clip-path="url(#clip0_17_2019)">
<path opacity="0.15" d="M14.9152 46.2814C18.8587 46.2814 22.0555 43.0845 22.0555 39.1411C22.0555 35.1976 18.8587 32.0007 14.9152 32.0007C10.9717 32.0007 7.7749 35.1976 7.7749 39.1411C7.7749 43.0845 10.9717 46.2814 14.9152 46.2814Z" fill="#183A9E"/>
<path opacity="0.15" d="M14.9151 46.2832C11.0918 46.2832 7.42511 47.8021 4.72163 50.5056C2.01815 53.2091 0.499366 56.8758 0.49939 60.6992H29.3311C29.3311 58.806 28.9582 56.9314 28.2338 55.1824C27.5093 53.4334 26.4474 51.8442 25.1088 50.5055C23.7701 49.1669 22.1809 48.105 20.4319 47.3805C18.6829 46.6561 16.8083 46.2832 14.9151 46.2832V46.2832Z" fill="#183A9E"/>
<path opacity="0.15" d="M49.0848 17.5813C53.0283 17.5813 56.2251 14.3845 56.2251 10.441C56.2251 6.49749 53.0283 3.30066 49.0848 3.30066C45.1413 3.30066 41.9445 6.49749 41.9445 10.441C41.9445 14.3845 45.1413 17.5813 49.0848 17.5813Z" fill="#183A9E"/>
<path opacity="0.15" d="M49.0847 17.5833C45.2614 17.5833 41.5948 19.1021 38.8913 21.8056C36.1878 24.5091 34.6691 28.1758 34.6691 31.999H63.5005C63.5005 30.1059 63.1277 28.2314 62.4032 26.4824C61.6787 24.7333 60.6169 23.1442 59.2782 21.8055C57.9396 20.4669 56.3504 19.405 54.6014 18.6806C52.8524 17.9561 50.9778 17.5832 49.0847 17.5833V17.5833Z" fill="#183A9E"/>
<path d="M14.915 46.7822C13.4037 46.7825 11.9262 46.3346 10.6694 45.4952C9.41265 44.6558 8.43303 43.4625 7.85447 42.0663C7.27591 40.6701 7.12438 39.1336 7.41905 37.6513C7.71371 36.169 8.44134 34.8073 9.50992 33.7386C10.5785 32.6698 11.94 31.9419 13.4223 31.6469C14.9045 31.352 16.441 31.5032 17.8373 32.0815C19.2336 32.6598 20.4271 33.6392 21.2668 34.8958C22.1065 36.1524 22.5546 37.6298 22.5546 39.1411C22.5526 41.1668 21.7472 43.109 20.3149 44.5415C18.8827 45.974 16.9407 46.7799 14.915 46.7822ZM14.915 32.5C13.6014 32.4997 12.3173 32.889 11.225 33.6185C10.1327 34.3481 9.28123 35.3852 8.77835 36.5987C8.27547 37.8122 8.14375 39.1475 8.39983 40.4359C8.65592 41.7242 9.28831 42.9077 10.217 43.8366C11.1457 44.7655 12.3291 45.3982 13.6174 45.6545C14.9057 45.9109 16.241 45.7795 17.4546 45.2769C18.6682 44.7743 19.7055 43.923 20.4353 42.8309C21.1651 41.7387 21.5546 40.4547 21.5546 39.1411C21.5529 37.3806 20.8529 35.6926 19.6081 34.4476C18.3634 33.2025 16.6755 32.5021 14.915 32.5V32.5Z" fill="#204ECF"/>
<path d="M29.8306 60.7002H28.8306C28.8321 58.8718 28.4733 57.0611 27.7747 55.3714C27.0761 53.6818 26.0514 52.1464 24.7591 50.853C23.4667 49.5596 21.9322 48.5335 20.2432 47.8335C18.5541 47.1334 16.7437 46.7731 14.9153 46.7731C13.0869 46.7731 11.2765 47.1334 9.58741 47.8335C7.89837 48.5335 6.36383 49.5596 5.07152 50.853C3.77922 52.1464 2.75447 53.6818 2.05586 55.3714C1.35724 57.0611 0.998455 58.8718 1.00001 60.7002H5.00046e-06C-0.00159965 58.7405 0.383011 56.7996 1.13186 54.9886C1.8807 53.1776 2.9791 51.5319 4.36427 50.1456C5.74944 48.7593 7.39423 47.6596 9.20463 46.9092C11.015 46.1589 12.9556 45.7727 14.9153 45.7727C16.875 45.7727 18.8155 46.1589 20.6259 46.9092C22.4363 47.6596 24.0811 48.7593 25.4663 50.1456C26.8515 51.5319 27.9499 53.1776 28.6987 54.9886C29.4476 56.7996 29.8322 58.7405 29.8306 60.7002V60.7002Z" fill="#204ECF"/>
<path d="M14.915 18.082C13.4037 18.0823 11.9262 17.6344 10.6694 16.795C9.41264 15.9556 8.43303 14.7623 7.85447 13.3661C7.27591 11.9699 7.12438 10.4334 7.41905 8.95112C7.71372 7.46879 8.44135 6.10713 9.50992 5.03836C10.5785 3.96958 11.94 3.24169 13.4223 2.94674C14.9046 2.65178 16.441 2.80302 17.8373 3.38132C19.2336 3.95961 20.4271 4.93899 21.2668 6.1956C22.1065 7.45221 22.5546 8.9296 22.5546 10.4409C22.5526 12.4666 21.7472 14.4088 20.3149 15.8413C18.8827 17.2738 16.9407 18.0797 14.915 18.082ZM14.915 3.79982C13.6014 3.79953 12.3173 4.18877 11.225 4.91833C10.1327 5.64789 9.28123 6.68499 8.77835 7.89847C8.27547 9.11195 8.14375 10.4473 8.39983 11.7357C8.65591 13.024 9.2883 14.2075 10.217 15.1364C11.1457 16.0653 12.3291 16.698 13.6174 16.9543C14.9057 17.2107 16.241 17.0793 17.4546 16.5767C18.6682 16.0741 19.7055 15.2229 20.4353 14.1307C21.1651 13.0385 21.5546 11.7545 21.5546 10.4409C21.5529 8.6804 20.8529 6.99244 19.6081 5.74741C18.3633 4.50238 16.6755 3.80197 14.915 3.79985V3.79982Z" fill="#204ECF"/>
<path d="M29.8306 32H28.8306C28.8321 30.1716 28.4733 28.3609 27.7747 26.6712C27.0761 24.9816 26.0514 23.4462 24.7591 22.1528C23.4667 20.8594 21.9322 19.8333 20.2432 19.1333C18.5541 18.4332 16.7437 18.0729 14.9153 18.0729C13.0869 18.0729 11.2765 18.4332 9.58741 19.1333C7.89837 19.8333 6.36383 20.8594 5.07152 22.1528C3.77922 23.4462 2.75447 24.9816 2.05586 26.6712C1.35724 28.3609 0.998455 30.1716 1.00001 32H5.00046e-06C-0.00159965 30.0403 0.383011 28.0994 1.13186 26.2884C1.8807 24.4774 2.9791 22.8317 4.36427 21.4454C5.74944 20.0591 7.39423 18.9594 9.20463 18.209C11.015 17.4587 12.9556 17.0725 14.9153 17.0725C16.875 17.0725 18.8155 17.4587 20.6259 18.209C22.4363 18.9594 24.0811 20.0591 25.4663 21.4454C26.8515 22.8317 27.9499 24.4774 28.6987 26.2884C29.4476 28.0994 29.8322 30.0403 29.8306 32V32Z" fill="#204ECF"/>
<path d="M49.085 18.082C47.5736 18.0823 46.0962 17.6344 44.8394 16.795C43.5826 15.9556 42.603 14.7623 42.0245 13.3661C41.4459 11.9699 41.2944 10.4334 41.589 8.95112C41.8837 7.46879 42.6113 6.10713 43.6799 5.03836C44.7485 3.96958 46.11 3.24169 47.5923 2.94674C49.0745 2.65178 50.611 2.80302 52.0073 3.38132C53.4036 3.95961 54.5971 4.93899 55.4368 6.1956C56.2764 7.45221 56.7246 8.9296 56.7246 10.4409C56.7225 12.4666 55.917 14.4087 54.4848 15.8412C53.0526 17.2737 51.1106 18.0796 49.085 18.082V18.082ZM49.085 3.79982C47.7714 3.79953 46.4873 4.18877 45.395 4.91833C44.3026 5.64789 43.4512 6.68499 42.9483 7.89847C42.4455 9.11195 42.3137 10.4473 42.5698 11.7357C42.8259 13.024 43.4583 14.2075 44.387 15.1364C45.3157 16.0653 46.4991 16.698 47.7873 16.9543C49.0756 17.2107 50.411 17.0793 51.6246 16.5767C52.8382 16.0741 53.8755 15.2229 54.6053 14.1307C55.3351 13.0385 55.7246 11.7545 55.7246 10.4409C55.7229 8.6804 55.0228 6.99246 53.778 5.74744C52.5333 4.50242 50.8455 3.802 49.085 3.79985V3.79982Z" fill="#204ECF"/>
<path d="M64 32H63C63.0016 30.1716 62.6428 28.3609 61.9442 26.6712C61.2455 24.9816 60.2208 23.4462 58.9285 22.1528C57.6362 20.8594 56.1016 19.8333 54.4126 19.1333C52.7236 18.4332 50.9131 18.0729 49.0847 18.0729C47.2564 18.0729 45.4459 18.4332 43.7568 19.1333C42.0678 19.8333 40.5333 20.8594 39.241 22.1528C37.9486 23.4462 36.9239 24.9816 36.2253 26.6712C35.5267 28.3609 35.1679 30.1716 35.1694 32H34.1694C34.1678 30.0403 34.5524 28.0994 35.3013 26.2884C36.0501 24.4774 37.1485 22.8317 38.5337 21.4454C39.9189 20.0591 41.5637 18.9594 43.3741 18.209C45.1845 17.4587 47.125 17.0725 49.0847 17.0725C51.0445 17.0725 52.985 17.4587 54.7954 18.209C56.6058 18.9594 58.2506 20.0591 59.6357 21.4454C61.0209 22.8317 62.1193 24.4774 62.8682 26.2884C63.617 28.0994 64.0016 30.0403 64 32V32Z" fill="#204ECF"/>
<path d="M49.085 46.7822C47.5736 46.7825 46.0962 46.3346 44.8394 45.4952C43.5826 44.6558 42.603 43.4625 42.0245 42.0663C41.4459 40.6701 41.2944 39.1336 41.589 37.6513C41.8837 36.169 42.6113 34.8073 43.6799 33.7386C44.7485 32.6698 46.11 31.9419 47.5923 31.6469C49.0745 31.352 50.611 31.5032 52.0073 32.0815C53.4036 32.6598 54.5971 33.6392 55.4368 34.8958C56.2764 36.1524 56.7246 37.6298 56.7246 39.1411C56.7225 41.1668 55.917 43.1089 54.4848 44.5414C53.0526 45.9739 51.1106 46.7797 49.085 46.7822V46.7822ZM49.085 32.5C47.7714 32.4997 46.4873 32.889 45.395 33.6185C44.3026 34.3481 43.4512 35.3852 42.9483 36.5987C42.4455 37.8122 42.3137 39.1475 42.5698 40.4359C42.8259 41.7242 43.4583 42.9077 44.387 43.8366C45.3157 44.7655 46.4991 45.3982 47.7874 45.6545C49.0756 45.9109 50.411 45.7795 51.6246 45.2769C52.8382 44.7743 53.8755 43.923 54.6053 42.8309C55.3351 41.7387 55.7246 40.4547 55.7246 39.1411C55.7229 37.3806 55.0228 35.6926 53.7781 34.4476C52.5333 33.2026 50.8455 32.5022 49.085 32.5V32.5Z" fill="#204ECF"/>
<path d="M64 60.7002H63C63.0016 58.8718 62.6428 57.0611 61.9442 55.3714C61.2455 53.6818 60.2208 52.1464 58.9285 50.853C57.6362 49.5596 56.1016 48.5335 54.4126 47.8335C52.7236 47.1334 50.9131 46.7731 49.0847 46.7731C47.2564 46.7731 45.4459 47.1334 43.7568 47.8335C42.0678 48.5335 40.5333 49.5596 39.241 50.853C37.9486 52.1464 36.9239 53.6818 36.2253 55.3714C35.5267 57.0611 35.1679 58.8718 35.1694 60.7002H34.1694C34.1678 58.7405 34.5524 56.7996 35.3013 54.9886C36.0501 53.1776 37.1485 51.5319 38.5337 50.1456C39.9189 48.7593 41.5637 47.6596 43.3741 46.9092C45.1845 46.1589 47.125 45.7727 49.0847 45.7727C51.0445 45.7727 52.985 46.1589 54.7954 46.9092C56.6058 47.6596 58.2506 48.7593 59.6357 50.1456C61.0209 51.5319 62.1193 53.1776 62.8682 54.9886C63.617 56.7996 64.0016 58.7405 64 60.7002V60.7002Z" fill="#204ECF"/>
</g>
<defs>
<clipPath id="clip0_17_2019">
<rect width="64" height="64" fill="white"/>
</clipPath>
</defs>
</svg>
