<svg width="65" height="65" viewBox="0 0 65 65" fill="none" xmlns="http://www.w3.org/2000/svg">
<g clip-path="url(#clip0_17_2179)">
<path opacity="0.3" d="M32.0194 32.3179C33.3581 32.3179 34.6667 31.921 35.7797 31.1773C36.8928 30.4336 37.7603 29.3765 38.2726 28.1397C38.7849 26.903 38.9189 25.5421 38.6578 24.2292C38.3966 22.9162 37.752 21.7102 36.8054 20.7636C35.8589 19.8171 34.6529 19.1725 33.3399 18.9113C32.027 18.6501 30.6661 18.7842 29.4293 19.2965C28.1926 19.8088 27.1355 20.6763 26.3918 21.7894C25.6481 22.9024 25.2512 24.211 25.2512 25.5497C25.2513 27.3447 25.9644 29.0662 27.2336 30.3355C28.5029 31.6047 30.2244 32.3178 32.0194 32.3179V32.3179Z" fill="#231F20"/>
<path opacity="0.3" d="M32.0194 32.318C28.3951 32.318 24.9192 33.7578 22.3564 36.3206C19.7936 38.8834 18.3539 42.3593 18.3539 45.9837H45.6851C45.6851 44.1891 45.3316 42.412 44.6449 40.754C43.9581 39.096 42.9515 37.5895 41.6825 36.3206C40.4135 35.0516 38.9071 34.045 37.2491 33.3582C35.591 32.6715 33.814 32.318 32.0194 32.318V32.318Z" fill="#231F20"/>
<path d="M32.0195 32.818C30.582 32.8179 29.1768 32.3916 27.9816 31.593C26.7863 30.7943 25.8548 29.6591 25.3047 28.331C24.7546 27.0029 24.6107 25.5415 24.8911 24.1316C25.1716 22.7218 25.8638 21.4267 26.8803 20.4102C27.8968 19.3937 29.1918 18.7015 30.6017 18.421C32.0116 18.1406 33.473 18.2845 34.8011 18.8346C36.1292 19.3847 37.2644 20.3162 38.0631 21.5115C38.8617 22.7067 39.288 24.1119 39.2881 25.5494C39.2859 27.4765 38.5194 29.324 37.1567 30.6866C35.7941 32.0493 33.9466 32.8158 32.0195 32.818V32.818ZM32.0195 19.2814C30.7798 19.2814 29.5679 19.6491 28.5371 20.3379C27.5063 21.0267 26.7029 22.0057 26.2285 23.1511C25.7541 24.2965 25.63 25.5569 25.872 26.7728C26.1139 27.9887 26.7109 29.1056 27.5876 29.9822C28.4643 30.8588 29.5812 31.4558 30.7971 31.6976C32.0131 31.9394 33.2734 31.8152 34.4188 31.3408C35.5642 30.8663 36.5431 30.0628 37.2318 29.032C37.9206 28.0011 38.2881 26.7892 38.2881 25.5494C38.286 23.8876 37.6249 22.2944 36.4498 21.1193C35.2746 19.9443 33.6814 19.2833 32.0195 19.2814Z" fill="white"/>
<path d="M46.1856 45.9836H45.1856C45.1856 42.4918 43.7984 39.143 41.3293 36.6739C38.8602 34.2048 35.5114 32.8176 32.0196 32.8176C28.5277 32.8176 25.1789 34.2048 22.7098 36.6739C20.2407 39.143 18.8536 42.4918 18.8536 45.9836H17.8536C17.8536 42.2266 19.3461 38.6234 22.0027 35.9668C24.6593 33.3101 28.2625 31.8176 32.0196 31.8176C35.7766 31.8176 39.3798 33.3101 42.0364 35.9668C44.6931 38.6234 46.1856 42.2266 46.1856 45.9836V45.9836Z" fill="white"/>
<path d="M40.4775 64.3805L36.3496 57.6642C33.486 58.1751 30.5545 58.1738 27.6914 57.6603L23.5606 64.3805L23.1953 64.276C19.6979 63.276 16.3969 61.6863 13.4346 59.5753L13.125 59.3551L15.8086 51.9225C13.6271 50.0069 11.8029 47.7193 10.4209 45.1662L2.57715 46.1286L2.43066 45.778C1.03225 42.4198 0.217166 38.8475 0.02051 35.215L0 34.8361L7.49805 32.2951C7.63125 29.3992 8.28009 26.5504 9.41405 23.8825L3.76464 18.3425L3.94726 18.01C5.70064 14.8227 7.98505 11.958 10.7021 9.53927L10.9863 9.28683L17.6445 13.5627C19.9927 11.8599 22.6262 10.5902 25.4209 9.81363L26.2285 1.94645L26.6025 1.88245C30.1876 1.26623 33.8515 1.26623 37.4365 1.88245L37.8115 1.94645L38.6182 9.8068C41.4169 10.5817 44.0545 11.851 46.4062 13.5548L53.0527 9.28674L53.3369 9.53918C56.0543 11.9578 58.3388 14.8227 60.0918 18.0104L60.2744 18.3429L54.6406 23.8668C55.7801 26.5417 56.4316 29.3989 56.5644 32.3033L64.0391 34.8365L64.0185 35.2154C63.8219 38.8478 63.0069 42.4199 61.6084 45.7779L61.4619 46.1285L53.6387 45.1685C52.2537 47.7276 50.4244 50.0199 48.2363 51.9381L50.9141 59.3551L50.6045 59.5753C47.642 61.6866 44.3406 63.2764 40.8428 64.276L40.4775 64.3805ZM14.3242 58.9786C17.0103 60.8434 19.9747 62.2709 23.1074 63.2081L27.2002 56.5494L27.54 56.6153C30.4997 57.1887 33.5418 57.1899 36.5019 56.6188L36.8408 56.5538L40.9307 63.2081C44.0638 62.2713 47.0287 60.8438 49.7148 58.9786L47.0615 51.629L47.3242 51.4044C49.6198 49.4492 51.5178 47.0707 52.915 44.3986L53.0761 44.092L60.8281 45.0432C62.0484 42.0096 62.7805 38.8019 62.9971 35.5393L55.5909 33.029L55.5792 32.6833C55.4844 29.6721 54.8082 26.7077 53.588 23.9533L53.4473 23.6364L59.0303 18.1618C57.42 15.316 55.3688 12.7434 52.9532 10.5397L46.3663 14.7692L46.0889 14.5622C43.6771 12.7625 40.9405 11.4454 38.0293 10.6833L37.6943 10.5954L36.8945 2.80631C33.6652 2.29166 30.3748 2.29166 27.1455 2.80631L26.3447 10.6017L26.0097 10.6896C23.1026 11.4536 20.37 12.7711 17.9618 14.57L17.6845 14.777L11.0859 10.5397C8.67019 12.7432 6.61902 15.3156 5.00873 18.1613L10.6074 23.651L10.4667 23.9679C9.25249 26.7159 8.57908 29.6721 8.48334 32.6749L8.47162 33.0206L1.042 35.5387C1.25867 38.8015 1.99072 42.0094 3.21095 45.0431L10.9834 44.0895L11.1436 44.3961C12.5389 47.0621 14.4321 49.4361 16.7207 51.3898L16.9834 51.6144L14.3242 58.9786Z" fill="white"/>
</g>
<defs>
<clipPath id="clip0_17_2179">
<rect width="64.0391" height="64" fill="white" transform="translate(0 0.858643)"/>
</clipPath>
</defs>
</svg>
