<svg width="65" height="65" viewBox="0 0 65 65" fill="none" xmlns="http://www.w3.org/2000/svg">
<g clip-path="url(#clip0_17_2204)">
<path opacity="0.3" d="M29.518 34.6427H6.89801L7.75601 30.5867H28.661L29.518 34.6427Z" fill="#231F20"/>
<path opacity="0.3" d="M59.01 42.5616H40.407L41.264 38.5056H58.152L59.01 42.5616Z" fill="#231F20"/>
<path opacity="0.3" d="M33.722 54.0636H2.793L0.617004 64.3586H35.799L33.722 54.0636Z" fill="#231F20"/>
<path opacity="0.3" d="M61.539 54.0636H37.976L35.799 64.3586H63.617L61.539 54.0636Z" fill="#231F20"/>
<path d="M36.416 64.8587H0L8.20752 26.0306H28.2085L36.416 64.8587ZM1.23338 63.8587H35.1826L27.398 27.0306H9.01807L1.23338 63.8587Z" fill="white"/>
<path d="M64.2334 64.8588H35.1826L41.7163 33.9496H57.7002L64.2334 64.8588ZM36.416 63.8588H63L56.8896 34.9496H42.5269L36.416 63.8588Z" fill="white"/>
<path d="M18.708 26.5307H17.708V23.0004C17.707 21.9854 17.3034 21.0123 16.5859 20.2946C15.8683 19.5768 14.8953 19.173 13.8804 19.1717H4.94533C3.66603 19.1699 2.43976 18.6604 1.53582 17.7552C0.631869 16.8499 0.124146 15.6229 0.124146 14.3436C0.124146 13.0643 0.631869 11.8373 1.53582 10.9321C2.43976 10.0268 3.66603 9.51734 4.94533 9.51549H35.4068C36.421 9.51386 37.3932 9.10979 38.1098 8.39201C38.8264 7.67423 39.2289 6.7014 39.2289 5.68713C39.2289 4.67285 38.8264 3.70003 38.1098 2.98225C37.3932 2.26447 36.421 1.8604 35.4068 1.85876H11.2988V0.858765H35.4068C36.6861 0.860606 37.9124 1.37012 38.8164 2.27541C39.7204 3.18071 40.2282 4.40777 40.2282 5.68713C40.2282 6.96649 39.7204 8.19355 38.8164 9.09885C37.9124 10.0041 36.6861 10.5137 35.4068 10.5155H4.94533C3.93112 10.5171 2.95901 10.9212 2.24243 11.6389C1.52586 12.3566 1.12338 13.3294 1.12338 14.3436C1.12338 15.3578 1.52586 16.3306 2.24243 17.0483C2.95901 17.7661 3.93112 18.1701 4.94533 18.1717H13.8804C15.1605 18.1733 16.3876 18.6825 17.2927 19.5878C18.1977 20.493 18.7067 21.7203 18.708 23.0004V26.5307Z" fill="white"/>
<path d="M50.208 34.4496H49.208V30.8773C49.2095 29.5973 49.7187 28.3701 50.6238 27.465C51.5289 26.5598 52.7561 26.0507 54.0361 26.0492H59.2891C60.3044 26.0492 61.2782 25.6459 61.9961 24.9279C62.7141 24.2099 63.1174 23.2362 63.1174 22.2208C63.1174 21.2055 62.7141 20.2317 61.9961 19.5138C61.2782 18.7958 60.3044 18.3925 59.2891 18.3925H53.8008C52.5215 18.3906 51.2952 17.8811 50.3913 16.9759C49.4873 16.0706 48.9796 14.8436 48.9796 13.5643C48.9796 12.285 49.4873 11.058 50.3913 10.1528C51.2952 9.24754 52.5215 8.73805 53.8008 8.73621H59.7549V9.73621H53.8008C52.7866 9.73784 51.8145 10.1419 51.0979 10.8596C50.3813 11.5774 49.9789 12.5501 49.9789 13.5643C49.9789 14.5785 50.3813 15.5513 51.0979 16.269C51.8145 16.9868 52.7866 17.3908 53.8008 17.3925H59.2891C60.5696 17.3925 61.7978 17.9012 62.7032 18.8067C63.6087 19.7121 64.1174 20.9403 64.1174 22.2208C64.1174 23.5014 63.6087 24.7295 62.7032 25.635C61.7978 26.5405 60.5696 27.0492 59.2891 27.0492H54.0361C53.0212 27.0503 52.0482 27.454 51.3305 28.1717C50.6129 28.8894 50.2092 29.8624 50.208 30.8773V34.4496Z" fill="white"/>
</g>
<defs>
<clipPath id="clip0_17_2204">
<rect width="64.2334" height="64.0001" fill="white" transform="translate(0 0.858643)"/>
</clipPath>
</defs>
</svg>
