<svg width="65" height="64" viewBox="0 0 65 64" fill="none" xmlns="http://www.w3.org/2000/svg">
<g clip-path="url(#clip0_17_2035)">
<path opacity="0.15" d="M29.518 33.784H6.89801L7.75601 29.728H28.661L29.518 33.784Z" fill="#183A9E"/>
<path opacity="0.15" d="M59.01 41.703H40.407L41.264 37.647H58.152L59.01 41.703Z" fill="#183A9E"/>
<path opacity="0.15" d="M33.722 53.205H2.793L0.617004 63.5H35.799L33.722 53.205Z" fill="#183A9E"/>
<path opacity="0.15" d="M61.539 53.205H37.976L35.799 63.5H63.617L61.539 53.205Z" fill="#183A9E"/>
<path d="M36.416 64.0001H0L8.20752 25.172H28.2085L36.416 64.0001ZM1.23338 63.0001H35.1826L27.398 26.172H9.01807L1.23338 63.0001Z" fill="#204ECF"/>
<path d="M64.2334 64.0001H35.1826L41.7163 33.0909H57.7002L64.2334 64.0001ZM36.416 63.0001H63L56.8896 34.0909H42.5269L36.416 63.0001Z" fill="#204ECF"/>
<path d="M18.708 25.672H17.708V22.1417C17.707 21.1268 17.3034 20.1537 16.5859 19.4359C15.8683 18.7182 14.8953 18.3144 13.8804 18.3131H4.94533C3.66603 18.3113 2.43976 17.8018 1.53582 16.8965C0.631869 15.9913 0.124146 14.7643 0.124146 13.485C0.124146 12.2057 0.631869 10.9787 1.53582 10.0734C2.43976 9.16818 3.66603 8.65869 4.94533 8.65685H35.4068C36.421 8.65521 37.3932 8.25114 38.1098 7.53336C38.8264 6.81558 39.2289 5.84276 39.2289 4.82849C39.2289 3.81421 38.8264 2.84139 38.1098 2.12361C37.3932 1.40583 36.421 1.00176 35.4068 1.00012H11.2988V0.00012207H35.4068C36.6861 0.00196323 37.9124 0.511477 38.8164 1.41677C39.7204 2.32207 40.2282 3.54913 40.2282 4.82849C40.2282 6.10785 39.7204 7.33491 38.8164 8.2402C37.9124 9.1455 36.6861 9.65501 35.4068 9.65685H4.94533C3.93112 9.65849 2.95901 10.0625 2.24243 10.7803C1.52586 11.498 1.12338 12.4708 1.12338 13.485C1.12338 14.4992 1.52586 15.472 2.24243 16.1897C2.95901 16.9074 3.93112 17.3115 4.94533 17.3131H13.8804C15.1605 17.3146 16.3876 17.8239 17.2927 18.7291C18.1977 19.6344 18.7067 20.8617 18.708 22.1417V25.672Z" fill="#204ECF"/>
<path d="M50.208 33.5909H49.208V30.0187C49.2095 28.7386 49.7187 27.5114 50.6238 26.6063C51.5289 25.7012 52.7561 25.192 54.0361 25.1906H59.2891C60.3044 25.1906 61.2782 24.7872 61.9961 24.0693C62.7141 23.3513 63.1174 22.3775 63.1174 21.3622C63.1174 20.3468 62.7141 19.3731 61.9961 18.6551C61.2782 17.9372 60.3044 17.5338 59.2891 17.5338H53.8008C52.5215 17.532 51.2952 17.0225 50.3913 16.1172C49.4873 15.212 48.9796 13.985 48.9796 12.7057C48.9796 11.4264 49.4873 10.1994 50.3913 9.29414C51.2952 8.38889 52.5215 7.8794 53.8008 7.87756H59.7549V8.87756H53.8008C52.7866 8.8792 51.8145 9.28324 51.0979 10.001C50.3813 10.7187 49.9789 11.6915 49.9789 12.7057C49.9789 13.7199 50.3813 14.6927 51.0979 15.4104C51.8145 16.1281 52.7866 16.5322 53.8008 16.5338H59.2891C60.5696 16.5338 61.7978 17.0425 62.7032 17.948C63.6087 18.8535 64.1174 20.0816 64.1174 21.3622C64.1174 22.6427 63.6087 23.8709 62.7032 24.7764C61.7978 25.6819 60.5696 26.1906 59.2891 26.1906H54.0361C53.0212 26.1917 52.0482 26.5954 51.3305 27.313C50.6129 28.0307 50.2092 29.0037 50.208 30.0187V33.5909Z" fill="#204ECF"/>
</g>
<defs>
<clipPath id="clip0_17_2035">
<rect width="64.2334" height="64.0001" fill="white"/>
</clipPath>
</defs>
</svg>
