<svg width="64" height="64" viewBox="0 0 64 64" fill="none" xmlns="http://www.w3.org/2000/svg">
<path opacity="0.15" d="M13.5471 37.5958V25.5239H7.45939C7.45486 24.7232 7.60922 23.9295 7.91355 23.1889C8.21788 22.4483 8.66613 21.7754 9.23233 21.2092C9.79853 20.643 10.4714 20.1947 11.2121 19.8904C11.9527 19.5861 12.7464 19.4317 13.5471 19.4362V1.42761H0.500122V37.5958C0.503357 41.4312 1.38911 45.2144 3.08882 48.6526C4.78854 52.0909 7.25662 55.0919 10.302 57.4234C13.3475 59.7549 16.8885 61.3543 20.6512 62.0979C24.4138 62.8415 28.2971 62.7094 32.0005 61.7116L31.9986 61.7056C26.7022 60.271 22.0254 57.1326 18.6905 52.775C15.3556 48.4174 13.548 43.083 13.5471 37.5958V37.5958Z" fill="#183A9E"/>
<path opacity="0.15" d="M50.4531 37.5957C50.4559 39.1641 50.1495 40.7178 49.5513 42.1676C48.953 43.6175 48.0748 44.9352 46.9667 46.0453C45.8587 47.1553 44.5426 48.036 43.0938 48.6369C41.6451 49.2378 40.092 49.5471 38.5236 49.5471C36.9551 49.5471 35.4021 49.2378 33.9533 48.6369C32.5045 48.036 31.1885 47.1553 30.0804 46.0453C28.9724 44.9352 28.0941 43.6175 27.4959 42.1676C26.8976 40.7178 26.5912 39.1641 26.5941 37.5957H50.4531Z" fill="#183A9E"/>
<path opacity="0.15" d="M32.6817 25.524C32.6828 24.7239 32.5261 23.9314 32.2206 23.1919C31.9151 22.4524 31.4669 21.7804 30.9015 21.2143C30.3361 20.6482 29.6646 20.199 28.9255 19.8926C28.1864 19.5862 27.3942 19.4285 26.594 19.4285C25.7939 19.4285 25.0017 19.5862 24.2626 19.8926C23.5235 20.199 22.852 20.6482 22.2866 21.2143C21.7212 21.7804 21.273 22.4524 20.9675 23.1919C20.662 23.9314 20.5053 24.7239 20.5064 25.524H32.6817Z" fill="#183A9E"/>
<path opacity="0.15" d="M56.5408 25.524C56.5408 23.9094 55.8994 22.361 54.7578 21.2193C53.6161 20.0777 52.0677 19.4363 50.4531 19.4363C48.8386 19.4363 47.2901 20.0777 46.1485 21.2193C45.0068 22.361 44.3654 23.9094 44.3654 25.524H56.5408Z" fill="#183A9E"/>
<path d="M38.5235 63.0721C31.7691 63.0645 25.2934 60.3779 20.5173 55.6018C15.7412 50.8257 13.0546 44.35 13.047 37.5956V0.927612H64.0001V37.5956C63.9925 44.3501 61.3059 50.8257 56.5297 55.6018C51.7536 60.3779 45.278 63.0645 38.5235 63.0721V63.0721ZM14.047 1.92761V37.5956C14.0511 44.0845 16.6317 50.3062 21.2215 54.893C25.8113 59.4799 32.0347 62.0565 38.5236 62.0565C45.0124 62.0565 51.2358 59.4799 55.8256 54.893C60.4154 50.3062 62.996 44.0845 63.0001 37.5956V1.92761H14.047Z" fill="#204ECF"/>
<path d="M38.5236 50.0253C35.2282 50.0215 32.0688 48.7107 29.7386 46.3805C27.4085 44.0503 26.0977 40.891 26.0939 37.5956V37.0956H50.9532V37.5956C50.9494 40.891 49.6387 44.0503 47.3085 46.3805C44.9783 48.7107 41.8189 50.0215 38.5236 50.0253V50.0253ZM27.1046 38.0956C27.2335 41.0375 28.4929 43.8162 30.6203 45.8524C32.7476 47.8886 35.5788 49.0252 38.5236 49.0252C41.4683 49.0252 44.2995 47.8886 46.4269 45.8524C48.5542 43.8162 49.8136 41.0375 49.9425 38.0956H27.1046Z" fill="#204ECF"/>
<path d="M33.1818 26.0238H20.0065V25.5238C20.0065 23.7767 20.7005 22.1011 21.9359 20.8656C23.1714 19.6302 24.847 18.9362 26.5941 18.9362C28.3413 18.9362 30.0169 19.6302 31.2523 20.8656C32.4877 22.1011 33.1818 23.7767 33.1818 25.5238V26.0238ZM21.0285 25.0238H32.1598C32.0348 23.634 31.3943 22.3413 30.3643 21.3999C29.3344 20.4584 27.9895 19.9364 26.5941 19.9364C25.1987 19.9364 23.8538 20.4584 22.8239 21.3999C21.7939 22.3413 21.1535 23.634 21.0285 25.0238V25.0238Z" fill="#204ECF"/>
<path d="M13.547 26.0238H6.95959V25.5238C6.96156 23.7773 7.65622 22.1029 8.89117 20.868C10.1261 19.633 11.8005 18.9384 13.547 18.9364V19.9364C12.1521 19.9381 10.8082 20.4607 9.77862 21.4018C8.74907 22.3429 8.10817 23.6347 7.98156 25.0238H13.547V26.0238Z" fill="#204ECF"/>
<path d="M57.0406 26.0239H43.8654V25.5239C43.8675 23.7781 44.5625 22.1046 45.7977 20.8709C47.0329 19.6373 48.7073 18.9443 50.453 18.9443C52.1988 18.9443 53.8731 19.6373 55.1083 20.8709C56.3435 22.1046 57.0385 23.7781 57.0406 25.5239V26.0239ZM44.8873 25.0239H56.0187C55.8936 23.6341 55.2532 22.3414 54.2232 21.4C53.1933 20.4585 51.8484 19.9365 50.453 19.9365C49.0576 19.9365 47.7127 20.4585 46.6828 21.4C45.6528 22.3414 45.0124 23.6341 44.8873 25.0239V25.0239Z" fill="#204ECF"/>
<path d="M25.4767 63.0721C18.7222 63.0645 12.2466 60.3779 7.47046 55.6018C2.69433 50.8257 0.00775002 44.35 0.00012207 37.5956V0.927612H13.547V1.92761H1.00012V37.5956C1.00339 41.3543 1.87149 45.0617 3.53722 48.4311C5.20296 51.8005 7.62165 54.7414 10.6061 57.0263C13.5906 59.3111 17.0608 60.8785 20.7481 61.6073C24.4354 62.3361 28.241 62.2066 31.8702 61.2289L32.131 62.1947C29.9611 62.7783 27.7237 63.0733 25.4767 63.0721V63.0721Z" fill="#204ECF"/>
</svg>
