<svg width="64" height="65" viewBox="0 0 64 64" fill="none" xmlns="http://www.w3.org/2000/svg">
<path opacity="0.3" d="M13.5471 38.4544V26.3826H7.45939C7.45486 25.5818 7.60922 24.7882 7.91355 24.0475C8.21788 23.3069 8.66613 22.634 9.23233 22.0678C9.79853 21.5016 10.4714 21.0534 11.2121 20.749C11.9527 20.4447 12.7464 20.2903 13.5471 20.2949V2.28625H0.500122V38.4544C0.503357 42.2898 1.38911 46.0731 3.08882 49.5113C4.78854 52.9495 7.25662 55.9505 10.302 58.282C13.3475 60.6135 16.8885 62.213 20.6512 62.9566C24.4138 63.7002 28.2971 63.568 32.0005 62.5703L31.9986 62.5643C26.7022 61.1297 22.0254 57.9912 18.6905 53.6336C15.3556 49.276 13.548 43.9417 13.5471 38.4544V38.4544Z" fill="#231F20"/>
<path opacity="0.3" d="M50.4531 38.4543C50.4559 40.0228 50.1495 41.5764 49.5513 43.0263C48.953 44.4762 48.0748 45.7938 46.9667 46.9039C45.8587 48.014 44.5426 48.8947 43.0938 49.4955C41.6451 50.0964 40.092 50.4057 38.5236 50.4057C36.9551 50.4057 35.4021 50.0964 33.9533 49.4955C32.5045 48.8947 31.1885 48.014 30.0804 46.9039C28.9724 45.7938 28.0941 44.4762 27.4959 43.0263C26.8976 41.5764 26.5912 40.0228 26.5941 38.4543H50.4531Z" fill="#231F20"/>
<path opacity="0.3" d="M32.6817 26.3826C32.6828 25.5825 32.5261 24.7901 32.2206 24.0506C31.9151 23.3111 31.4669 22.639 30.9015 22.0729C30.3361 21.5068 29.6646 21.0577 28.9255 20.7513C28.1864 20.4448 27.3942 20.2871 26.594 20.2871C25.7939 20.2871 25.0017 20.4448 24.2626 20.7513C23.5235 21.0577 22.852 21.5068 22.2866 22.0729C21.7212 22.639 21.273 23.3111 20.9675 24.0506C20.662 24.7901 20.5053 25.5825 20.5064 26.3826H32.6817Z" fill="#231F20"/>
<path opacity="0.3" d="M56.5408 26.3826C56.5408 24.7681 55.8994 23.2196 54.7578 22.078C53.6161 20.9363 52.0677 20.2949 50.4531 20.2949C48.8386 20.2949 47.2901 20.9363 46.1485 22.078C45.0068 23.2196 44.3654 24.7681 44.3654 26.3826H56.5408Z" fill="#231F20"/>
<path d="M38.5235 63.9308C31.7691 63.9232 25.2934 61.2366 20.5173 56.4604C15.7412 51.6843 13.0546 45.2087 13.047 38.4542V1.78625H64.0001V38.4543C63.9925 45.2087 61.3059 51.6843 56.5297 56.4605C51.7536 61.2366 45.278 63.9232 38.5235 63.9308V63.9308ZM14.047 2.78625V38.4543C14.0511 44.9431 16.6317 51.1648 21.2215 55.7517C25.8113 60.3386 32.0347 62.9152 38.5236 62.9152C45.0124 62.9152 51.2358 60.3386 55.8256 55.7517C60.4154 51.1648 62.996 44.9431 63.0001 38.4543V2.78625H14.047Z" fill="white"/>
<path d="M38.5236 50.8839C35.2282 50.8801 32.0688 49.5693 29.7386 47.2391C27.4085 44.9089 26.0977 41.7496 26.0939 38.4542V37.9542H50.9532V38.4542C50.9494 41.7496 49.6387 44.9089 47.3085 47.2391C44.9783 49.5693 41.8189 50.8801 38.5236 50.8839V50.8839ZM27.1046 38.9542C27.2335 41.8962 28.4929 44.6749 30.6203 46.7111C32.7476 48.7473 35.5788 49.8838 38.5236 49.8838C41.4683 49.8838 44.2995 48.7473 46.4269 46.7111C48.5542 44.6749 49.8136 41.8962 49.9425 38.9542H27.1046Z" fill="white"/>
<path d="M33.1818 26.8825H20.0065V26.3825C20.0065 24.6353 20.7005 22.9597 21.9359 21.7243C23.1714 20.4889 24.847 19.7948 26.5941 19.7948C28.3413 19.7948 30.0169 20.4889 31.2523 21.7243C32.4877 22.9597 33.1818 24.6353 33.1818 26.3825V26.8825ZM21.0285 25.8825H32.1598C32.0348 24.4927 31.3943 23.2 30.3643 22.2585C29.3344 21.3171 27.9895 20.795 26.5941 20.795C25.1987 20.795 23.8538 21.3171 22.8239 22.2585C21.7939 23.2 21.1535 24.4927 21.0285 25.8825V25.8825Z" fill="white"/>
<path d="M13.547 26.8824H6.95959V26.3824C6.96156 24.636 7.65622 22.9616 8.89117 21.7266C10.1261 20.4917 11.8005 19.797 13.547 19.795V20.795C12.1521 20.7967 10.8082 21.3194 9.77862 22.2605C8.74907 23.2016 8.10817 24.4933 7.98156 25.8824H13.547V26.8824Z" fill="white"/>
<path d="M57.0406 26.8825H43.8654V26.3825C43.8675 24.6368 44.5625 22.9633 45.7977 21.7296C47.0329 20.4959 48.7073 19.803 50.453 19.803C52.1988 19.803 53.8731 20.4959 55.1083 21.7296C56.3435 22.9633 57.0385 24.6368 57.0406 26.3825V26.8825ZM44.8873 25.8825H56.0187C55.8936 24.4927 55.2532 23.2001 54.2232 22.2586C53.1933 21.3172 51.8484 20.7951 50.453 20.7951C49.0576 20.7951 47.7127 21.3172 46.6828 22.2586C45.6528 23.2001 45.0124 24.4927 44.8873 25.8825V25.8825Z" fill="white"/>
<path d="M25.4767 63.9308C18.7222 63.9232 12.2466 61.2366 7.47046 56.4604C2.69433 51.6843 0.00775002 45.2087 0.00012207 38.4542V1.78625H13.547V2.78625H1.00012V38.4543C1.00339 42.2129 1.87149 45.9204 3.53722 49.2898C5.20296 52.6592 7.62165 55.6001 10.6061 57.8849C13.5906 60.1697 17.0608 61.7372 20.7481 62.4659C24.4354 63.1947 28.241 63.0652 31.8702 62.0876L32.131 63.0534C29.9611 63.637 27.7237 63.932 25.4767 63.9308V63.9308Z" fill="white"/>
</svg>
