<svg xmlns="http://www.w3.org/2000/svg" width="64" height="64" fill="none"><g clip-path="url(#a)"><path fill="#000" d="M32.4 35.8a3.4 3.4 0 1 0 0-6.8 3.4 3.4 0 0 0 0 6.8Z" opacity=".3"/><path stroke="#fff" stroke-miterlimit="10" d="M32.4 35.8a3.4 3.4 0 1 0 0-6.8 3.4 3.4 0 0 0 0 6.8Z"/><path fill="#000" d="M35.8 13.4H29L31 27h2.8l2-13.6Z" opacity=".3"/><path stroke="#fff" stroke-miterlimit="10" d="M35.8 13.4H29L31 27h2.8l2-13.6ZM18 24.6h3.2M43.6 24.6h3.2M22.2 34.6l2-2M40.6 16.6l2-2M22.2 14.6l2 2M40.6 32.6l2 2"/><path fill="#000" d="M27.804 42.752H2.396v2.7c0 2.536 2.064 4.6 4.6 4.6H32.4v-2.7c0-2.536-2.064-4.6-4.6-4.6h.004ZM32.2 63.4l30-22.712v4.813a7.206 7.206 0 0 1-4.3 6.592L32.2 63.4Z" opacity=".3"/><path stroke="#fff" stroke-miterlimit="10" d="M57.9 52.092 32.2 63.4V50.2H7a4.799 4.799 0 0 1-4.8-4.8V5C2.2 2.348 4.348.2 7 .2h50.4c2.652 0 4.8 2.148 4.8 4.8v40.5a7.206 7.206 0 0 1-4.3 6.592Z"/></g><defs><clipPath id="a"><path fill="#fff" d="M0 0h64v64H0z"/></clipPath></defs></svg>
