<svg width="64" height="64" viewBox="0 0 64 64" fill="none" xmlns="http://www.w3.org/2000/svg">
<g clip-path="url(#clip0_17_2074)">
<path opacity="0.15" d="M63.5001 57.7676H0.500122V63.5H63.5001V57.7676Z" fill="#183A9E"/>
<path opacity="0.15" d="M32.0001 10.9502C34.8858 10.9502 37.2252 8.61087 37.2252 5.72512C37.2252 2.83937 34.8858 0.5 32.0001 0.5C29.1143 0.5 26.775 2.83937 26.775 5.72512C26.775 8.61087 29.1143 10.9502 32.0001 10.9502Z" fill="#183A9E"/>
<path opacity="0.15" d="M32 10.9504C30.6146 10.9504 29.2427 11.2233 27.9628 11.7535C26.6828 12.2837 25.5199 13.0608 24.5402 14.0404C23.5606 15.0201 22.7835 16.1831 22.2533 17.463C21.7232 18.743 21.4503 20.1148 21.4503 21.5002H42.5498C42.5498 20.1148 42.2769 18.743 41.7468 17.463C41.2166 16.183 40.4395 15.02 39.4598 14.0404C38.4802 13.0608 37.3172 12.2837 36.0372 11.7535C34.7573 11.2233 33.3854 10.9504 32 10.9504Z" fill="#183A9E"/>
<path d="M32.0001 11.4502C30.8678 11.4502 29.7609 11.1144 28.8194 10.4854C27.8779 9.85627 27.1441 8.96214 26.7108 7.91601C26.2775 6.86989 26.1641 5.71876 26.385 4.6082C26.6059 3.49764 27.1512 2.47752 27.9518 1.67685C28.7525 0.876179 29.7726 0.330915 30.8832 0.110009C31.9937 -0.110896 33.1449 0.00247991 34.191 0.435799C35.2371 0.869118 36.1313 1.60292 36.7603 2.54441C37.3894 3.48589 37.7252 4.59278 37.7252 5.7251C37.7234 7.24296 37.1197 8.69814 36.0464 9.77143C34.9731 10.8447 33.518 11.4485 32.0001 11.4502ZM32.0001 1C31.0656 1 30.152 1.27712 29.375 1.79632C28.5979 2.31552 27.9923 3.05348 27.6347 3.91688C27.277 4.78028 27.1835 5.73034 27.3658 6.64692C27.5481 7.5635 27.9981 8.40543 28.6589 9.06625C29.3198 9.72707 30.1617 10.1771 31.0783 10.3594C31.9949 10.5417 32.9449 10.4482 33.8083 10.0905C34.6717 9.7329 35.4097 9.12727 35.9289 8.35023C36.4481 7.57319 36.7252 6.65964 36.7252 5.7251C36.7238 4.47236 36.2255 3.27133 35.3397 2.38551C34.4539 1.49968 33.2528 1.00141 32.0001 1V1Z" fill="#204ECF"/>
<path d="M43.0499 21.5H42.0499C42.0472 18.8364 40.9873 16.2827 39.1028 14.4002C37.2184 12.5176 34.6637 11.4602 32.0001 11.4602C29.3365 11.4602 26.7818 12.5176 24.8973 14.4002C23.0129 16.2827 21.9529 18.8364 21.9503 21.5H20.9503C20.9531 18.5712 22.1185 15.7634 24.1904 13.6934C26.2624 11.6234 29.0713 10.4607 32.0001 10.4607C34.9289 10.4607 37.7378 11.6234 39.8098 13.6934C41.8817 15.7634 43.0471 18.5712 43.0499 21.5V21.5Z" fill="#204ECF"/>
<path d="M64.0001 64H9.91821e-05V21H64.0001V64ZM1.0001 63H63.0001V22H1.0001V63Z" fill="#204ECF"/>
<path d="M22.256 51.4092H15.0113C13.764 51.4078 12.5682 50.9117 11.6862 50.0297C10.8042 49.1477 10.3081 47.9519 10.3067 46.7046H11.3067C11.3079 47.6867 11.6986 48.6283 12.3931 49.3228C13.0876 50.0173 14.0292 50.408 15.0113 50.4092H22.256C23.2385 50.4092 24.1808 50.0189 24.8755 49.3241C25.5703 48.6294 25.9606 47.6871 25.9606 46.7046C25.9606 45.7221 25.5703 44.7798 24.8755 44.085C24.1808 43.3903 23.2385 43 22.256 43H15.0113C13.7636 43 12.567 42.5043 11.6847 41.6221C10.8024 40.7398 10.3067 39.5431 10.3067 38.2954C10.3067 37.0477 10.8024 35.851 11.6847 34.9688C12.567 34.0865 13.7636 33.5908 15.0113 33.5908H22.256C23.5033 33.5922 24.6992 34.0883 25.5811 34.9703C26.4631 35.8523 26.9592 37.0481 26.9606 38.2954H25.9606C25.9594 37.3133 25.5687 36.3717 24.8742 35.6772C24.1797 34.9827 23.2382 34.592 22.256 34.5908H15.0113C14.0288 34.5908 13.0865 34.9811 12.3918 35.6759C11.697 36.3706 11.3067 37.3129 11.3067 38.2954C11.3067 39.2779 11.697 40.2202 12.3918 40.915C13.0865 41.6097 14.0288 42 15.0113 42H22.256C23.5037 42 24.7004 42.4957 25.5826 43.3779C26.4649 44.2602 26.9606 45.4569 26.9606 46.7046C26.9606 47.9523 26.4649 49.149 25.5826 50.0312C24.7004 50.9135 23.5037 51.4092 22.256 51.4092V51.4092Z" fill="#204ECF"/>
<path d="M19.1334 29.7183H18.1334V55.2817H19.1334V29.7183Z" fill="#204ECF"/>
<path d="M42.6935 53.5C40.5179 53.5 38.3911 52.8549 36.5822 51.6462C34.7732 50.4375 33.3633 48.7195 32.5308 46.7095C31.6982 44.6995 31.4804 42.4878 31.9048 40.354C32.3293 38.2202 33.3769 36.2602 34.9153 34.7218C36.4537 33.1835 38.4137 32.1358 40.5475 31.7114C42.6813 31.2869 44.893 31.5048 46.903 32.3373C48.913 33.1699 50.6309 34.5798 51.8396 36.3887C53.0483 38.1977 53.6935 40.3244 53.6935 42.5C53.6902 45.4164 52.5302 48.2124 50.468 50.2745C48.4058 52.3367 45.6098 53.4967 42.6935 53.5V53.5ZM42.6935 32.5C40.7156 32.5 38.7822 33.0865 37.1378 34.1853C35.4933 35.2841 34.2115 36.8459 33.4547 38.6732C32.6978 40.5004 32.4998 42.5111 32.8856 44.4509C33.2715 46.3907 34.2239 48.1725 35.6224 49.5711C37.0209 50.9696 38.8027 51.922 40.7426 52.3079C42.6824 52.6937 44.693 52.4957 46.5203 51.7388C48.3475 50.9819 49.9093 49.7002 51.0082 48.0557C52.107 46.4112 52.6935 44.4778 52.6935 42.5C52.6905 39.8487 51.636 37.3069 49.7613 35.4322C47.8865 33.5575 45.3447 32.503 42.6935 32.5V32.5Z" fill="#204ECF"/>
<path d="M49.762 50.276L42.193 42.707V32H43.193V42.293L50.469 49.569L49.762 50.276Z" fill="#204ECF"/>
<path d="M49.7149 34.7715L42.3399 42.1465L43.047 42.8535L50.422 35.4785L49.7149 34.7715Z" fill="#204ECF"/>
</g>
<defs>
<clipPath id="clip0_17_2074">
<rect width="64.0001" height="64.0001" fill="white"/>
</clipPath>
</defs>
</svg>
