<svg width="64" height="65" viewBox="0 0 64 65" fill="none" xmlns="http://www.w3.org/2000/svg">
<g clip-path="url(#clip0_17_2243)">
<path opacity="0.3" d="M63.5001 58.6262H0.500122V64.3586H63.5001V58.6262Z" fill="#231F20"/>
<path opacity="0.3" d="M32.0001 11.8089C34.8858 11.8089 37.2252 9.46952 37.2252 6.58376C37.2252 3.69801 34.8858 1.35864 32.0001 1.35864C29.1143 1.35864 26.775 3.69801 26.775 6.58376C26.775 9.46952 29.1143 11.8089 32.0001 11.8089Z" fill="#231F20"/>
<path opacity="0.3" d="M32 11.8091C30.6146 11.8091 29.2427 12.082 27.9628 12.6122C26.6828 13.1423 25.5199 13.9194 24.5402 14.8991C23.5606 15.8787 22.7835 17.0417 22.2533 18.3217C21.7232 19.6016 21.4503 20.9735 21.4503 22.3589H42.5498C42.5498 20.9735 42.2769 19.6016 41.7468 18.3216C41.2166 17.0417 40.4395 15.8787 39.4598 14.899C38.4802 13.9194 37.3172 13.1423 36.0372 12.6121C34.7573 12.082 33.3854 11.8091 32 11.8091Z" fill="#231F20"/>
<path d="M32.0001 12.3088C30.8678 12.3088 29.7609 11.9731 28.8194 11.344C27.8779 10.7149 27.1441 9.82078 26.7108 8.77465C26.2775 7.72853 26.1641 6.5774 26.385 5.46684C26.6059 4.35628 27.1512 3.33616 27.9518 2.53549C28.7525 1.73482 29.7726 1.18956 30.8832 0.968652C31.9937 0.747747 33.1449 0.861122 34.191 1.29444C35.2371 1.72776 36.1313 2.46156 36.7603 3.40305C37.3894 4.34454 37.7252 5.45143 37.7252 6.58375C37.7234 8.1016 37.1197 9.55678 36.0464 10.6301C34.9731 11.7034 33.518 12.3071 32.0001 12.3088ZM32.0001 1.85865C31.0656 1.85864 30.152 2.13576 29.375 2.65496C28.5979 3.17416 27.9923 3.91212 27.6347 4.77552C27.277 5.63892 27.1835 6.58898 27.3658 7.50556C27.5481 8.42214 27.9981 9.26407 28.6589 9.92489C29.3198 10.5857 30.1617 11.0357 31.0783 11.2181C31.9949 11.4004 32.9449 11.3068 33.8083 10.9492C34.6717 10.5915 35.4097 9.98591 35.9289 9.20887C36.4481 8.43183 36.7252 7.51828 36.7252 6.58375C36.7238 5.331 36.2255 4.12997 35.3397 3.24415C34.4539 2.35832 33.2528 1.86005 32.0001 1.85865V1.85865Z" fill="white"/>
<path d="M43.0499 22.3586H42.0499C42.0472 19.695 40.9873 17.1414 39.1028 15.2588C37.2184 13.3763 34.6637 12.3188 32.0001 12.3188C29.3365 12.3188 26.7818 13.3763 24.8973 15.2588C23.0129 17.1414 21.9529 19.695 21.9503 22.3586H20.9503C20.9531 19.4299 22.1185 16.622 24.1904 14.552C26.2624 12.4821 29.0713 11.3193 32.0001 11.3193C34.9289 11.3193 37.7378 12.4821 39.8098 14.552C41.8817 16.622 43.0471 19.4299 43.0499 22.3586V22.3586Z" fill="white"/>
<path d="M64.0001 64.8586H9.91821e-05V21.8586H64.0001V64.8586ZM1.0001 63.8586H63.0001V22.8586H1.0001V63.8586Z" fill="white"/>
<path d="M22.256 52.2678H15.0113C13.764 52.2665 12.5682 51.7704 11.6862 50.8884C10.8042 50.0064 10.3081 48.8105 10.3067 47.5632H11.3067C11.3079 48.5454 11.6986 49.487 12.3931 50.1815C13.0876 50.8759 14.0292 51.2666 15.0113 51.2678H22.256C23.2385 51.2678 24.1808 50.8775 24.8755 50.1828C25.5703 49.488 25.9606 48.5458 25.9606 47.5632C25.9606 46.5807 25.5703 45.6384 24.8755 44.9437C24.1808 44.2489 23.2385 43.8586 22.256 43.8586H15.0113C13.7636 43.8586 12.567 43.363 11.6847 42.4807C10.8024 41.5984 10.3067 40.4018 10.3067 39.1541C10.3067 37.9063 10.8024 36.7097 11.6847 35.8274C12.567 34.9451 13.7636 34.4495 15.0113 34.4495H22.256C23.5033 34.4508 24.6992 34.9469 25.5811 35.8289C26.4631 36.7109 26.9592 37.9067 26.9606 39.1541H25.9606C25.9594 38.1719 25.5687 37.2303 24.8742 36.5358C24.1797 35.8413 23.2382 35.4507 22.256 35.4495H15.0113C14.0288 35.4495 13.0865 35.8398 12.3918 36.5345C11.697 37.2293 11.3067 38.1715 11.3067 39.1541C11.3067 40.1366 11.697 41.0788 12.3918 41.7736C13.0865 42.4683 14.0288 42.8586 15.0113 42.8586H22.256C23.5037 42.8586 24.7004 43.3543 25.5826 44.2366C26.4649 45.1189 26.9606 46.3155 26.9606 47.5632C26.9606 48.811 26.4649 50.0076 25.5826 50.8899C24.7004 51.7722 23.5037 52.2678 22.256 52.2678V52.2678Z" fill="white"/>
<path d="M19.1334 30.5769H18.1334V56.1404H19.1334V30.5769Z" fill="white"/>
<path d="M42.6935 54.3586C40.5179 54.3586 38.3911 53.7135 36.5822 52.5048C34.7732 51.2961 33.3633 49.5782 32.5308 47.5682C31.6982 45.5582 31.4804 43.3464 31.9048 41.2127C32.3293 39.0789 33.3769 37.1188 34.9153 35.5805C36.4537 34.0421 38.4137 32.9944 40.5475 32.57C42.6813 32.1456 44.893 32.3634 46.903 33.196C48.913 34.0285 50.6309 35.4384 51.8396 37.2474C53.0483 39.0563 53.6935 41.1831 53.6935 43.3586C53.6902 46.275 52.5302 49.071 50.468 51.1332C48.4058 53.1954 45.6098 54.3554 42.6935 54.3586V54.3586ZM42.6935 33.3586C40.7156 33.3586 38.7822 33.9451 37.1378 35.0439C35.4933 36.1428 34.2115 37.7045 33.4547 39.5318C32.6978 41.3591 32.4998 43.3697 32.8856 45.3096C33.2715 47.2494 34.2239 49.0312 35.6224 50.4297C37.0209 51.8282 38.8027 52.7806 40.7426 53.1665C42.6824 53.5524 44.693 53.3543 46.5203 52.5974C48.3475 51.8406 49.9093 50.5588 51.0082 48.9143C52.107 47.2699 52.6935 45.3365 52.6935 43.3586C52.6905 40.7074 51.636 38.1656 49.7613 36.2908C47.8865 34.4161 45.3447 33.3616 42.6935 33.3586V33.3586Z" fill="white"/>
<path d="M49.762 51.1346L42.193 43.5656V32.8586H43.193V43.1516L50.469 50.4276L49.762 51.1346Z" fill="white"/>
<path d="M49.7149 35.6301L42.3399 43.0051L43.047 43.7122L50.422 36.3372L49.7149 35.6301Z" fill="white"/>
</g>
<defs>
<clipPath id="clip0_17_2243">
<rect width="64.0001" height="64.0001" fill="white" transform="translate(0 0.858643)"/>
</clipPath>
</defs>
</svg>
