<svg width="64" height="65" viewBox="0 0 64 64" fill="none" xmlns="http://www.w3.org/2000/svg">
<g clip-path="url(#clip0_17_2258)">
<path opacity="0.3" d="M32.0001 56.6973C45.0477 56.6973 55.6249 46.0791 55.6249 32.9808C55.6249 19.8826 45.0477 9.2644 32.0001 9.2644C18.9525 9.2644 8.37529 19.8826 8.37529 32.9808C8.37529 46.0791 18.9525 56.6973 32.0001 56.6973Z" fill="#231F20"/>
<path d="M64.0001 32.9807H63.0001C63.0181 28.753 62.1684 24.5665 60.5034 20.6804C58.8384 16.7943 56.3937 13.2912 53.3204 10.3879L54.0099 9.66333C57.1816 12.6598 59.7048 16.2752 61.4232 20.286C63.1415 24.2967 64.0186 28.6174 64.0001 32.9807Z" fill="white"/>
<path d="M1.00011 32.9807H0.000106467C-0.0228533 27.4359 1.39583 21.9803 4.11702 17.1491C6.8382 12.3179 10.7684 8.27695 15.5222 5.42263C20.276 2.56831 25.69 0.998639 31.2333 0.867581C36.7767 0.736524 42.2588 2.04858 47.1422 4.67505L46.6666 5.55493C41.9356 3.01073 36.6245 1.73998 31.2543 1.86735C25.8841 1.99472 20.6392 3.51584 16.0342 6.28148C11.4291 9.04712 7.62206 12.9623 4.98642 17.643C2.35078 22.3237 0.977091 27.6091 1.00011 32.9807V32.9807Z" fill="white"/>
<path d="M56.1251 32.9806H55.1251C55.1302 26.8375 52.6984 20.9432 48.3631 16.5908C44.0279 12.2384 38.1432 9.78338 32.0001 9.76432C26.7631 9.74528 21.6789 11.5281 17.6007 14.8136L16.9757 14.0324C21.231 10.6045 26.5359 8.74448 32.0001 8.76432C38.4083 8.78365 44.5472 11.3441 49.07 15.884C53.5927 20.4239 56.13 26.5724 56.1251 32.9806V32.9806Z" fill="white"/>
<path d="M8.8751 32.9807H7.8751C7.87062 28.4988 9.10941 24.1034 11.4537 20.2834L12.3053 20.8069C10.0581 24.4695 8.87066 28.6836 8.8751 32.9807V32.9807Z" fill="white"/>
<path d="M16.7501 32.9807H15.7501C15.7343 29.125 17.0904 25.3895 19.576 22.4419C22.0616 19.4944 25.5146 17.5271 29.3176 16.8918C33.1206 16.2564 37.0256 16.9945 40.3343 18.9741C43.643 20.9536 46.1397 24.0456 47.378 27.697L46.4317 28.0192C45.2697 24.5921 42.9265 21.6901 39.821 19.8322C36.7155 17.9743 33.0504 17.2817 29.4811 17.8783C25.9119 18.475 22.6712 20.3219 20.3388 23.0887C18.0064 25.8556 16.7343 29.3619 16.7501 32.9807V32.9807Z" fill="white"/>
<path d="M1.53868 41.322L1.41568 40.3298C3.20239 40.101 4.84427 39.2283 6.03346 37.8753C7.22264 36.5223 7.87745 34.782 7.87511 32.9807H8.87511C8.8771 35.0258 8.13301 37.0014 6.78237 38.537C5.43173 40.0727 3.5673 41.0629 1.53868 41.322V41.322Z" fill="white"/>
<path d="M4.56163 48.7776L4.31163 47.8099C7.5924 46.9559 10.4963 45.0358 12.5669 42.3514C14.6374 39.6671 15.7572 36.3708 15.7501 32.9807H16.7501C16.7572 36.5925 15.5638 40.1041 13.3575 42.9636C11.1511 45.8232 8.05704 47.8683 4.56163 48.7776V48.7776Z" fill="white"/>
<path d="M9.55284 55.4348L9.17584 54.5081C11.8005 53.4414 14.206 51.8999 16.2715 49.9607L16.9551 50.6902C14.8003 52.7133 12.2909 54.3217 9.55284 55.4348V55.4348Z" fill="white"/>
<path d="M21.6837 44.5789L20.8058 44.1003C22.6567 40.6864 23.6258 36.8642 23.6251 32.9807H24.6251C24.6258 37.0314 23.6147 41.0181 21.6837 44.5789Z" fill="white"/>
<path d="M16.5011 60.805L15.9991 59.9397C20.7106 57.1894 24.6203 53.2539 27.3397 48.5244C30.0591 43.795 31.4934 38.4362 31.5001 32.9807H32.5001C32.493 38.6113 31.0125 44.1421 28.2058 49.0233C25.399 53.9045 21.3638 57.9663 16.5011 60.805V60.805Z" fill="white"/>
<path d="M25.4176 64.2326L24.7906 63.4533C28.5506 60.4335 31.7179 56.7425 34.1319 52.5676L34.9972 53.0686C32.5214 57.35 29.2733 61.1353 25.4176 64.2326V64.2326Z" fill="white"/>
<path d="M38.4694 45.2414L37.5172 44.9367C38.7523 41.0717 39.379 37.0382 39.3751 32.9807H40.3751C40.379 37.1417 39.7361 41.278 38.4694 45.2414V45.2414Z" fill="white"/>
<path d="M36.3101 64.6887L35.5591 64.0286C42.3217 56.3802 46.383 46.7211 47.1178 36.5383L48.1148 36.6125C47.3645 47.0124 43.2168 56.8773 36.3101 64.6887V64.6887Z" fill="white"/>
<path d="M49.2032 59.9778L48.3272 59.4954C52.7892 51.3703 55.1274 42.2503 55.1251 32.9807H56.1251C56.1273 42.4189 53.7464 51.705 49.2032 59.9778V59.9778Z" fill="white"/>
<path d="M40.3751 32.9806H39.3751C39.379 32.0096 39.1912 31.0474 38.8223 30.1492C38.4534 29.251 37.9108 28.4345 37.2256 27.7465C36.5404 27.0585 35.726 26.5126 34.8293 26.1401C33.9326 25.7676 32.9711 25.5758 32.0001 25.5758C31.0291 25.5758 30.0677 25.7676 29.1709 26.1401C28.2742 26.5126 27.4599 27.0585 26.7746 27.7465C26.0894 28.4345 25.5468 29.251 25.1779 30.1492C24.8091 31.0474 24.6212 32.0096 24.6251 32.9806H23.6251C23.6213 31.8784 23.8351 30.7862 24.2543 29.7668C24.6735 28.7473 25.2898 27.8207 26.0678 27.0399C26.8459 26.2591 27.7704 25.6396 28.7884 25.2169C29.8064 24.7942 30.8978 24.5767 32.0001 24.5767C33.1024 24.5767 34.1938 24.7942 35.2118 25.2169C36.2298 25.6396 37.1543 26.2591 37.9324 27.0399C38.7105 27.8207 39.3268 28.7473 39.7459 29.7668C40.1651 30.7862 40.3789 31.8784 40.3751 32.9806V32.9806Z" fill="white"/>
</g>
<defs>
<clipPath id="clip0_17_2258">
<rect width="64.0001" height="64.0001" fill="white" transform="translate(0 0.858643)"/>
</clipPath>
</defs>
</svg>
