<svg width="64" height="64" viewBox="0 0 64 64" fill="none" xmlns="http://www.w3.org/2000/svg">
<g clip-path="url(#clip0_17_2089)">
<path opacity="0.15" d="M32.0001 55.8386C45.0477 55.8386 55.6249 45.2204 55.6249 32.1222C55.6249 19.024 45.0477 8.40576 32.0001 8.40576C18.9525 8.40576 8.37529 19.024 8.37529 32.1222C8.37529 45.2204 18.9525 55.8386 32.0001 55.8386Z" fill="#183A9E"/>
<path d="M64.0001 32.1221H63.0001C63.0181 27.8943 62.1684 23.7079 60.5034 19.8218C58.8384 15.9357 56.3937 12.4326 53.3204 9.5293L54.0099 8.80469C57.1816 11.8011 59.7048 15.4166 61.4232 19.4273C63.1415 23.4381 64.0186 27.7588 64.0001 32.1221Z" fill="#204ECF"/>
<path d="M1.00011 32.1221H0.000106467C-0.0228533 26.5773 1.39583 21.1217 4.11702 16.2905C6.8382 11.4593 10.7684 7.41831 15.5222 4.56399C20.276 1.70967 25.69 0.139996 31.2333 0.00893866C36.7767 -0.122119 42.2588 1.18994 47.1422 3.81641L46.6666 4.69629C41.9356 2.15208 36.6245 0.881339 31.2543 1.00871C25.8841 1.13608 20.6392 2.65719 16.0342 5.42284C11.4291 8.18848 7.62206 12.1037 4.98642 16.7843C2.35078 21.465 0.977091 26.7504 1.00011 32.1221V32.1221Z" fill="#204ECF"/>
<path d="M56.1251 32.1221H55.1251C55.1302 25.979 52.6984 20.0847 48.3631 15.7323C44.0279 11.3799 38.1432 8.92486 32.0001 8.9058C26.7631 8.88676 21.6789 10.6696 17.6007 13.9551L16.9757 13.1739C21.231 9.74601 26.5359 7.88596 32.0001 7.9058C38.4083 7.92513 44.5472 10.4856 49.07 15.0255C53.5927 19.5653 56.13 25.7139 56.1251 32.1221V32.1221Z" fill="#204ECF"/>
<path d="M8.8751 32.1221H7.8751C7.87062 27.6401 9.10941 23.2448 11.4537 19.4248L12.3053 19.9482C10.0581 23.6109 8.87066 27.825 8.8751 32.1221V32.1221Z" fill="#204ECF"/>
<path d="M16.7501 32.122H15.7501C15.7343 28.2664 17.0904 24.5308 19.576 21.5833C22.0616 18.6357 25.5146 16.6684 29.3176 16.0331C33.1206 15.3978 37.0256 16.1359 40.3343 18.1155C43.643 20.095 46.1397 23.1869 47.378 26.8383L46.4317 27.1606C45.2697 23.7334 42.9265 20.8314 39.821 18.9735C36.7155 17.1156 33.0504 16.4231 29.4811 17.0197C25.9119 17.6163 22.6712 19.4632 20.3388 22.2301C18.0064 24.9969 16.7343 28.5033 16.7501 32.122V32.122Z" fill="#204ECF"/>
<path d="M1.53868 40.4634L1.41568 39.4712C3.20239 39.2424 4.84427 38.3696 6.03346 37.0167C7.22264 35.6637 7.87745 33.9234 7.87511 32.1221H8.87511C8.8771 34.1672 8.13301 36.1428 6.78237 37.6784C5.43173 39.214 3.5673 40.2043 1.53868 40.4634V40.4634Z" fill="#204ECF"/>
<path d="M4.56163 47.919L4.31163 46.9512C7.5924 46.0972 10.4963 44.1771 12.5669 41.4928C14.6374 38.8085 15.7572 35.5122 15.7501 32.1221H16.7501C16.7572 35.7338 15.5638 39.2455 13.3575 42.105C11.1511 44.9645 8.05704 47.0097 4.56163 47.919V47.919Z" fill="#204ECF"/>
<path d="M9.55284 54.5762L9.17584 53.6494C11.8005 52.5828 14.206 51.0412 16.2715 49.1021L16.9551 49.8315C14.8003 51.8546 12.2909 53.4631 9.55284 54.5762V54.5762Z" fill="#204ECF"/>
<path d="M21.6837 43.7202L20.8058 43.2417C22.6567 39.8277 23.6258 36.0055 23.6251 32.1221H24.6251C24.6258 36.1727 23.6147 40.1594 21.6837 43.7202Z" fill="#204ECF"/>
<path d="M16.5011 59.9463L15.9991 59.0811C20.7106 56.3307 24.6203 52.3953 27.3397 47.6658C30.0591 42.9363 31.4934 37.5776 31.5001 32.1221H32.5001C32.493 37.7527 31.0125 43.2834 28.2058 48.1647C25.399 53.0459 21.3638 57.1077 16.5011 59.9463V59.9463Z" fill="#204ECF"/>
<path d="M25.4176 63.374L24.7906 62.5947C28.5506 59.5748 31.7179 55.8838 34.1319 51.709L34.9972 52.21C32.5214 56.4914 29.2733 60.2767 25.4176 63.374V63.374Z" fill="#204ECF"/>
<path d="M38.4694 44.3828L37.5172 44.0781C38.7523 40.2131 39.379 36.1796 39.3751 32.1221H40.3751C40.379 36.283 39.7361 40.4193 38.4694 44.3828V44.3828Z" fill="#204ECF"/>
<path d="M36.3101 63.8301L35.5591 63.1699C42.3217 55.5216 46.383 45.8625 47.1178 35.6797L48.1148 35.7539C47.3645 46.1537 43.2168 56.0187 36.3101 63.8301V63.8301Z" fill="#204ECF"/>
<path d="M49.2032 59.1191L48.3272 58.6367C52.7892 50.5117 55.1274 41.3916 55.1251 32.1221H56.1251C56.1273 41.5603 53.7464 50.8463 49.2032 59.1191V59.1191Z" fill="#204ECF"/>
<path d="M40.3751 32.1221H39.3751C39.379 31.1511 39.1912 30.1889 38.8223 29.2907C38.4534 28.3925 37.9108 27.5759 37.2256 26.888C36.5404 26.2 35.726 25.6541 34.8293 25.2816C33.9326 24.9091 32.9711 24.7173 32.0001 24.7173C31.0291 24.7173 30.0677 24.9091 29.1709 25.2816C28.2742 25.6541 27.4599 26.2 26.7746 26.888C26.0894 27.5759 25.5468 28.3925 25.1779 29.2907C24.8091 30.1889 24.6212 31.1511 24.6251 32.1221H23.6251C23.6213 31.0199 23.8351 29.9277 24.2543 28.9083C24.6735 27.8888 25.2898 26.9621 26.0678 26.1814C26.8459 25.4006 27.7704 24.7811 28.7884 24.3584C29.8064 23.9357 30.8978 23.7181 32.0001 23.7181C33.1024 23.7181 34.1938 23.9357 35.2118 24.3584C36.2298 24.7811 37.1543 25.4006 37.9324 26.1814C38.7105 26.9621 39.3268 27.8888 39.7459 28.9083C40.1651 29.9277 40.3789 31.0199 40.3751 32.1221V32.1221Z" fill="#204ECF"/>
</g>
<defs>
<clipPath id="clip0_17_2089">
<rect width="64.0001" height="64.0001" fill="white"/>
</clipPath>
</defs>
</svg>
