<svg width="64" height="65" viewBox="0 0 64 64" fill="none" xmlns="http://www.w3.org/2000/svg">
<g clip-path="url(#clip0_17_2278)">
<path opacity="0.3" d="M48.4968 16.3618H15.5033V49.3553H48.4968V16.3618Z" fill="#231F20"/>
<path d="M37.1094 45.22H26.8907C25.1857 45.2181 23.5512 44.5399 22.3456 43.3344C21.1401 42.1288 20.4619 40.4942 20.46 38.7893H21.46C21.4616 40.2291 22.0342 41.6095 23.0524 42.6276C24.0705 43.6457 25.4509 44.2184 26.8907 44.22H37.1094C38.5484 44.218 39.9278 43.645 40.9447 42.6268C41.9616 41.6085 42.5327 40.2283 42.5327 38.7893C42.5327 37.3503 41.9616 35.9701 40.9447 34.9519C39.9278 33.9336 38.5484 33.3606 37.1094 33.3586H26.8907C26.0455 33.3597 25.2084 33.1941 24.4273 32.8714C23.6462 32.5487 22.9363 32.0752 22.3383 31.478C21.7403 30.8807 21.2659 30.1715 20.9422 29.3907C20.6186 28.61 20.452 27.7731 20.452 26.928C20.452 26.0828 20.6186 25.2459 20.9422 24.4652C21.2659 23.6845 21.7403 22.9752 22.3383 22.378C22.9363 21.7807 23.6462 21.3072 24.4273 20.9845C25.2084 20.6618 26.0455 20.4963 26.8907 20.4973H37.1094C38.8143 20.4992 40.4489 21.1774 41.6544 22.3829C42.86 23.5885 43.5381 25.2231 43.5401 26.928H42.5401C42.5385 25.4882 41.9658 24.1078 40.9477 23.0897C39.9296 22.0716 38.5492 21.4989 37.1094 21.4973H26.8907C26.1769 21.4964 25.4699 21.6361 24.8102 21.9086C24.1504 22.1811 23.5509 22.5809 23.0458 23.0853C22.5408 23.5897 22.1401 24.1887 21.8667 24.8481C21.5933 25.5074 21.4526 26.2142 21.4526 26.928C21.4526 27.6418 21.5933 28.3486 21.8667 29.0079C22.1401 29.6673 22.5408 30.2663 23.0458 30.7707C23.5509 31.275 24.1504 31.6749 24.8102 31.9474C25.4699 32.2199 26.1769 32.3596 26.8907 32.3586H37.1094C38.8135 32.3608 40.4471 33.0392 41.6514 34.245C42.8556 35.4507 43.5321 37.0852 43.5321 38.7893C43.5321 40.4934 42.8556 42.1279 41.6514 43.3336C40.4471 44.5394 38.8135 45.2179 37.1094 45.22V45.22Z" fill="white"/>
<path d="M32.5 16.3621H31.5V49.3552H32.5V16.3621Z" fill="white"/>
<path d="M63.5 43.9602H54.273V44.9602H63.5V43.9602Z" fill="white"/>
<path d="M63.5 32.3586H54.273V33.3586H63.5V32.3586Z" fill="white"/>
<path d="M54.773 55.6316H9.22708V10.0857H54.773V55.6316ZM10.2271 54.6316H53.773V11.0857H10.2271L10.2271 54.6316Z" fill="white"/>
<path d="M9.72708 20.7571H0.500031V21.7571H9.72708V20.7571Z" fill="white"/>
<path d="M44.1016 55.1316H43.1016V64.3586H44.1016V55.1316Z" fill="white"/>
<path d="M20.8985 1.35864H19.8985V10.5857H20.8985V1.35864Z" fill="white"/>
<path d="M9.72708 43.9602H0.500031V44.9602H9.72708V43.9602Z" fill="white"/>
<path d="M44.1016 1.35864H43.1016V10.5857H44.1016V1.35864Z" fill="white"/>
<path d="M20.8985 55.1316H19.8985V64.3586H20.8985V55.1316Z" fill="white"/>
<path d="M63.5 20.7571H54.273V21.7571H63.5V20.7571Z" fill="white"/>
<path d="M9.72708 32.3586H0.500031V33.3586H9.72708V32.3586Z" fill="white"/>
<path d="M32.5 1.35864H31.5V10.5857H32.5V1.35864Z" fill="white"/>
<path d="M32.5 55.1316H31.5V64.3586H32.5V55.1316Z" fill="white"/>
</g>
<defs>
<clipPath id="clip0_17_2278">
<rect width="64" height="64" fill="white" transform="translate(0 0.858643)"/>
</clipPath>
</defs>
</svg>
