<svg width="64" height="64" viewBox="0 0 64 64" fill="none" xmlns="http://www.w3.org/2000/svg">
<g clip-path="url(#clip0_17_2109)">
<path opacity="0.15" d="M48.4968 15.5032H15.5033V48.4967H48.4968V15.5032Z" fill="#183A9E"/>
<path d="M37.1094 44.3612H26.8907C25.1857 44.3593 23.5512 43.6812 22.3456 42.4756C21.1401 41.27 20.4619 39.6355 20.46 37.9305H21.46C21.4616 39.3704 22.0342 40.7508 23.0524 41.7689C24.0705 42.787 25.4509 43.3596 26.8907 43.3612H37.1094C38.5484 43.3593 39.9278 42.7862 40.9447 41.768C41.9616 40.7498 42.5327 39.3696 42.5327 37.9305C42.5327 36.4915 41.9616 35.1113 40.9447 34.0931C39.9278 33.0749 38.5484 32.5018 37.1094 32.4999H26.8907C26.0455 32.5009 25.2084 32.3354 24.4273 32.0127C23.6462 31.69 22.9363 31.2165 22.3383 30.6192C21.7403 30.022 21.2659 29.3127 20.9422 28.532C20.6186 27.7513 20.452 26.9144 20.452 26.0692C20.452 25.2241 20.6186 24.3872 20.9422 23.6065C21.2659 22.8257 21.7403 22.1165 22.3383 21.5192C22.9363 20.922 23.6462 20.4485 24.4273 20.1258C25.2084 19.8031 26.0455 19.6375 26.8907 19.6386H37.1094C38.8143 19.6405 40.4489 20.3186 41.6544 21.5242C42.86 22.7297 43.5381 24.3643 43.5401 26.0692H42.5401C42.5385 24.6294 41.9658 23.249 40.9477 22.2309C39.9296 21.2128 38.5492 20.6401 37.1094 20.6386H26.8907C26.1769 20.6376 25.4699 20.7773 24.8102 21.0498C24.1504 21.3223 23.5509 21.7222 23.0458 22.2266C22.5408 22.7309 22.1401 23.3299 21.8667 23.9893C21.5933 24.6487 21.4526 25.3554 21.4526 26.0692C21.4526 26.783 21.5933 27.4898 21.8667 28.1491C22.1401 28.8085 22.5408 29.4075 23.0458 29.9119C23.5509 30.4163 24.1504 30.8161 24.8102 31.0886C25.4699 31.3611 26.1769 31.5009 26.8907 31.4999H37.1094C38.8135 31.502 40.4471 32.1805 41.6514 33.3862C42.8556 34.592 43.5321 36.2264 43.5321 37.9305C43.5321 39.6347 42.8556 41.2691 41.6514 42.4749C40.4471 43.6806 38.8135 44.3591 37.1094 44.3612V44.3612Z" fill="#204ECF"/>
<path d="M32.5 15.5033H31.5V48.4965H32.5V15.5033Z" fill="#204ECF"/>
<path d="M63.5 43.1014H54.273V44.1014H63.5V43.1014Z" fill="#204ECF"/>
<path d="M63.5 31.4999H54.273V32.4999H63.5V31.4999Z" fill="#204ECF"/>
<path d="M54.773 54.7728H9.22708V9.22693H54.773V54.7728ZM10.2271 53.7728H53.773V10.2269H10.2271L10.2271 53.7728Z" fill="#204ECF"/>
<path d="M9.72708 19.8983H0.500031V20.8983H9.72708V19.8983Z" fill="#204ECF"/>
<path d="M44.1016 54.2728H43.1016V63.4999H44.1016V54.2728Z" fill="#204ECF"/>
<path d="M20.8985 0.499878H19.8985V9.72693H20.8985V0.499878Z" fill="#204ECF"/>
<path d="M9.72708 43.1014H0.500031V44.1014H9.72708V43.1014Z" fill="#204ECF"/>
<path d="M44.1016 0.499878H43.1016V9.72693H44.1016V0.499878Z" fill="#204ECF"/>
<path d="M20.8985 54.2728H19.8985V63.4999H20.8985V54.2728Z" fill="#204ECF"/>
<path d="M63.5 19.8983H54.273V20.8983H63.5V19.8983Z" fill="#204ECF"/>
<path d="M9.72708 31.4999H0.500031V32.4999H9.72708V31.4999Z" fill="#204ECF"/>
<path d="M32.5 0.499878H31.5V9.72693H32.5V0.499878Z" fill="#204ECF"/>
<path d="M32.5 54.2728H31.5V63.4999H32.5V54.2728Z" fill="#204ECF"/>
</g>
<defs>
<clipPath id="clip0_17_2109">
<rect width="64" height="64" fill="white"/>
</clipPath>
</defs>
</svg>
