<svg width="64" height="65" viewBox="0 0 64 64" fill="none" xmlns="http://www.w3.org/2000/svg">
<g clip-path="url(#clip0_17_2298)">
<path opacity="0.3" d="M43.7955 31.8818C37.2929 25.4226 31.3299 23.7448 33.684 14.5972C23.1909 20.5836 21.913 32.691 25.2761 40.3591C23.7281 39.7666 22.3486 38.8043 21.2579 37.5562C20.1672 36.3082 19.3985 34.8122 19.0187 33.1987C16.9935 35.7073 15.7386 38.749 15.4058 41.9558C15.073 45.1627 15.6765 48.3972 17.1434 51.2682C18.6103 54.1392 20.8777 56.5237 23.6713 58.1331C26.4649 59.7425 29.665 60.508 32.8845 60.3368C36.104 60.1657 39.205 59.0654 41.8122 57.1689C44.4195 55.2724 46.4214 52.661 47.5757 49.6507C48.73 46.6404 48.9872 43.3601 48.3164 40.2066C47.6455 37.0531 46.0752 34.1616 43.7955 31.8818V31.8818Z" fill="#231F20"/>
<path d="M32 60.863C28.757 60.8619 25.5805 59.9433 22.8375 58.2133C20.0944 56.4834 17.8968 54.0126 16.4986 51.0865C15.1003 48.1605 14.5585 44.8985 14.9356 41.6775C15.3127 38.4565 16.5935 35.408 18.6299 32.884L19.2563 32.1096L19.5029 33.075C19.8107 34.4088 20.402 35.6609 21.2366 36.746C22.0712 37.831 23.1296 38.7238 24.3398 39.3635C21.3515 31.1096 23.437 19.8674 33.4365 14.1628L34.4629 13.5769L34.1684 14.7214C32.435 21.4568 35.3662 23.9187 39.8032 27.6458C41.1304 28.7605 42.6348 30.0242 44.1479 31.5266L44.1489 31.5281C45.8047 33.1896 47.1042 35.1713 47.9681 37.3521C48.832 39.5329 49.2421 41.867 49.1733 44.2116C49.0339 48.674 47.1637 52.907 43.9585 56.0149C40.7532 59.1227 36.4645 60.8614 32 60.863ZM18.8198 34.2839C17.0282 36.7971 15.9926 39.7702 15.8351 42.8526C15.6776 45.935 16.4048 48.9981 17.9309 51.6808C19.4571 54.3635 21.7185 56.5538 24.4485 57.9935C27.1786 59.4333 30.2634 60.0623 33.3391 59.8065C36.4149 59.5507 39.3534 58.4207 41.8081 56.5498C44.2628 54.6789 46.1314 52.145 47.1934 49.2471C48.2554 46.3491 48.4666 43.208 47.802 40.1939C47.1375 37.1799 45.625 34.4188 43.4429 32.2361C41.9595 30.7629 40.4722 29.5134 39.1601 28.4114C34.8515 24.7922 31.6733 22.1228 32.936 15.636C23.8384 21.51 22.3755 32.4998 25.7339 40.1584L26.2314 41.2937L25.0854 40.8215C23.621 40.2658 22.2987 39.3906 21.2149 38.2597C20.1311 37.1289 19.3129 35.7707 18.8198 34.2839Z" fill="white"/>
<path d="M60 60.8586H4V4.85864H60V60.8586ZM5 59.8586H59V5.85864H5V59.8586Z" fill="white"/>
</g>
<defs>
<clipPath id="clip0_17_2298">
<rect width="64" height="64" fill="white" transform="translate(0 0.858643)"/>
</clipPath>
</defs>
</svg>
