<svg width="64" height="64" viewBox="0 0 64 64" fill="none" xmlns="http://www.w3.org/2000/svg">
<g clip-path="url(#clip0_17_2129)">
<path opacity="0.15" d="M43.7955 31.0231C37.2929 24.5639 31.3299 22.8861 33.684 13.7384C23.1909 19.7248 21.913 31.8322 25.2761 39.5003C23.7281 38.9078 22.3486 37.9456 21.2579 36.6975C20.1672 35.4494 19.3985 33.9534 19.0187 32.34C16.9935 34.8486 15.7386 37.8903 15.4058 41.0971C15.073 44.3039 15.6765 47.5384 17.1434 50.4095C18.6103 53.2805 20.8777 55.6649 23.6713 57.2743C26.4649 58.8837 29.665 59.6492 32.8845 59.4781C36.104 59.307 39.205 58.2066 41.8122 56.3101C44.4195 54.4136 46.4214 51.8023 47.5757 48.792C48.73 45.7816 48.9872 42.5013 48.3164 39.3478C47.6455 36.1944 46.0752 33.3029 43.7955 31.0231V31.0231Z" fill="#183A9E"/>
<path d="M32 60.0044C28.757 60.0033 25.5805 59.0847 22.8375 57.3547C20.0944 55.6247 17.8968 53.154 16.4986 50.2279C15.1003 47.3018 14.5585 44.0399 14.9356 40.8189C15.3127 37.5979 16.5935 34.5493 18.6299 32.0254L19.2563 31.251L19.5029 32.2163C19.8107 33.5502 20.402 34.8022 21.2366 35.8873C22.0712 36.9724 23.1296 37.8651 24.3398 38.5049C21.3515 30.251 23.437 19.0088 33.4365 13.3042L34.4629 12.7183L34.1684 13.8628C32.435 20.5981 35.3662 23.0601 39.8032 26.7871C41.1304 27.9019 42.6348 29.1655 44.1479 30.668L44.1489 30.6694C45.8047 32.331 47.1042 34.3127 47.9681 36.4935C48.832 38.6743 49.2421 41.0083 49.1733 43.353C49.0339 47.8154 47.1637 52.0484 43.9585 55.1562C40.7532 58.264 36.4645 60.0028 32 60.0044ZM18.8198 33.4253C17.0282 35.9385 15.9926 38.9115 15.8351 41.9939C15.6776 45.0763 16.4048 48.1395 17.9309 50.8221C19.4571 53.5048 21.7185 55.6952 24.4485 57.1349C27.1786 58.5746 30.2634 59.2037 33.3391 58.9479C36.4149 58.6921 39.3534 57.5621 41.8081 55.6911C44.2628 53.8202 46.1314 51.2864 47.1934 48.3884C48.2554 45.4905 48.4666 42.3493 47.802 39.3353C47.1375 36.3213 45.625 33.5601 43.4429 31.3774C41.9595 29.9043 40.4722 28.6548 39.1601 27.5527C34.8515 23.9336 31.6733 21.2642 32.936 14.7773C23.8384 20.6513 22.3755 31.6411 25.7339 39.2998L26.2314 40.4351L25.0854 39.9629C23.621 39.4071 22.2987 38.532 21.2149 37.4011C20.1311 36.2702 19.3129 34.912 18.8198 33.4253Z" fill="#204ECF"/>
<path d="M60 60H4V4H60V60ZM5 59H59V5H5V59Z" fill="#204ECF"/>
</g>
<defs>
<clipPath id="clip0_17_2129">
<rect width="64" height="64" fill="white"/>
</clipPath>
</defs>
</svg>
