<svg width="65" height="65" viewBox="0 0 65 65" fill="none" xmlns="http://www.w3.org/2000/svg">
<g clip-path="url(#clip0_17_2305)">
<path opacity="0.3" d="M55.6758 21.6731H50.862V39.9991H55.6758V21.6731Z" fill="#231F20"/>
<path opacity="0.3" d="M42.6365 17.0916H37.8227V35.4175H42.6365V17.0916Z" fill="#231F20"/>
<path opacity="0.3" d="M28.057 28.2647H0.901001L4.485 22.5227H28.057V28.2647Z" fill="#231F20"/>
<path d="M28.5566 1.35864H27.5566V64.3586H28.5566V1.35864Z" fill="white"/>
<path d="M28.057 28.7646H0L7.625 16.5456L0 4.32764H28.057V5.32764H1.803L8.803 16.5456L1.803 27.7646H28.057V28.7646Z" fill="white"/>
<path d="M51.3623 35.9177H37.3228V16.5916H51.3623V35.9177ZM38.3228 34.9177H50.3623V17.5916H38.3228V34.9177Z" fill="white"/>
<path d="M64.4014 40.4993H50.3623V21.1731H64.4014V40.4993ZM51.3623 39.4993H63.4014V22.1731H51.3623V39.4993Z" fill="white"/>
<path d="M38.3228 35.4177H37.3228V64.3586H38.3228V35.4177Z" fill="white"/>
<path d="M63.9014 63.8586H0.901367V64.8586H63.9014V63.8586Z" fill="white"/>
<path d="M38.3228 13.6228H37.3228V17.0916H38.3228V13.6228Z" fill="white"/>
</g>
<defs>
<clipPath id="clip0_17_2305">
<rect width="64.4015" height="64" fill="white" transform="translate(0 0.858643)"/>
</clipPath>
</defs>
</svg>
