<svg width="65" height="64" viewBox="0 0 65 64" fill="none" xmlns="http://www.w3.org/2000/svg">
<g clip-path="url(#clip0_17_2136)">
<path opacity="0.15" d="M55.6758 20.8145H50.862V39.1404H55.6758V20.8145Z" fill="#183A9E"/>
<path opacity="0.15" d="M42.6365 16.233H37.8227V34.559H42.6365V16.233Z" fill="#183A9E"/>
<path opacity="0.15" d="M28.057 27.4059H0.901001L4.485 21.6639H28.057V27.4059Z" fill="#183A9E"/>
<path d="M28.5566 0.5H27.5566V63.5H28.5566V0.5Z" fill="#204ECF"/>
<path d="M28.057 27.906H0L7.625 15.687L0 3.46899H28.057V4.46899H1.803L8.803 15.687L1.803 26.906H28.057V27.906Z" fill="#204ECF"/>
<path d="M51.3623 35.0591H37.3228V15.7329H51.3623V35.0591ZM38.3228 34.0591H50.3623V16.7329H38.3228V34.0591Z" fill="#204ECF"/>
<path d="M64.4014 39.6406H50.3623V20.3145H64.4014V39.6406ZM51.3623 38.6406H63.4014V21.3145H51.3623V38.6406Z" fill="#204ECF"/>
<path d="M38.3228 34.5591H37.3228V63.5H38.3228V34.5591Z" fill="#204ECF"/>
<path d="M63.9014 63H0.901367V64H63.9014V63Z" fill="#204ECF"/>
<path d="M38.3228 12.7642H37.3228V16.2329H38.3228V12.7642Z" fill="#204ECF"/>
</g>
<defs>
<clipPath id="clip0_17_2136">
<rect width="64.4015" height="64" fill="white"/>
</clipPath>
</defs>
</svg>
