<svg width="64" height="64" viewBox="0 0 64 64" fill="none" xmlns="http://www.w3.org/2000/svg">
<path opacity="0.15" d="M58.069 58.069H5.931L0.5 51.552H63.5L58.069 58.069Z" fill="#183A9E"/>
<path d="M40.5875 36.5507C38.2158 36.5514 35.9182 35.7248 34.0905 34.2134C32.2627 32.7019 31.0194 30.6004 30.5747 28.2707C30.13 25.9411 30.5118 23.5293 31.6543 21.4509C32.7968 19.3725 34.6284 17.7577 36.8336 16.8847L45.5333 13.3012C46.6698 12.7909 47.9346 12.6385 49.1598 12.8644C50.3849 13.0903 51.5123 13.6837 52.392 14.5657C53.2718 15.4477 53.8623 16.5766 54.085 17.8024C54.3077 19.0281 54.1521 20.2925 53.6388 21.4277L50.0602 30.1157C49.308 32.0141 48.0027 33.6427 46.3136 34.7902C44.6245 35.9376 42.6295 36.551 40.5875 36.5507V36.5507ZM48.0353 13.7685C47.3092 13.7679 46.5913 13.9217 45.9293 14.2197L37.2081 17.812C35.7907 18.372 34.5348 19.2757 33.5535 20.4418C32.5721 21.6078 31.8961 22.9996 31.5862 24.4918C31.2764 25.984 31.3425 27.5298 31.7785 28.9902C32.2145 30.4505 33.0068 31.7795 34.0841 32.8576C35.1613 33.9356 36.4897 34.7289 37.9498 35.166C39.4098 35.6031 40.9556 35.6703 42.448 35.3615C43.9404 35.0528 45.3327 34.3778 46.4995 33.3973C47.6662 32.4168 48.5708 31.1616 49.132 29.7446L49.1344 29.7377L52.7203 21.0317C53.0786 20.2487 53.2339 19.3881 53.1721 18.5292C53.1102 17.6704 52.8332 16.8409 52.3664 16.1173C51.8997 15.3937 51.2583 14.7993 50.5014 14.3888C49.7444 13.9783 48.8963 13.765 48.0353 13.7685V13.7685Z" fill="#204ECF"/>
<path d="M56.9069 45.8363L56.1041 45.2397C59.1356 41.1641 60.6312 36.1493 60.3274 31.079C60.0236 26.0087 57.9399 21.2083 54.4435 17.5238C51.6879 14.7631 48.2906 12.7289 44.5558 11.6034C39.9123 10.3605 34.9896 10.6712 30.5392 12.4882C27.8234 13.6168 25.3696 15.2935 23.3312 17.4135L23.0245 17.7314L23.0138 17.7231L8.5846 32.2704L8.59583 32.2821L8.24036 32.6351C6.5506 34.237 5.34677 36.2828 4.76706 38.5378C4.18736 40.7928 4.25528 43.1656 4.96303 45.3837L4.01185 45.6913C3.26084 43.3385 3.17542 40.8239 3.76504 38.4255C4.35466 36.0272 5.59634 33.8388 7.35266 32.1025L7.53333 31.9106L22.9171 16.4008L22.9215 16.4037C24.9923 14.3328 27.4498 12.6889 30.1544 11.5654C34.8048 9.66533 39.949 9.33849 44.8024 10.6347C48.7173 11.8119 52.279 13.9421 55.1681 16.8344C58.8268 20.6898 61.0073 25.7128 61.3253 31.0184C61.6434 36.3239 60.0787 41.5715 56.9069 45.8364V45.8363Z" fill="#204ECF"/>
<path d="M55.7272 10.5121L51.6793 14.5599L52.3863 15.267L56.4342 11.2191L55.7272 10.5121Z" fill="#204ECF"/>
<path d="M58.5152 12.3739C57.7354 12.3739 56.9731 12.1427 56.3247 11.7094C55.6763 11.2762 55.1709 10.6604 54.8725 9.9399C54.574 9.21943 54.496 8.42664 54.6481 7.66179C54.8002 6.89694 55.1757 6.19438 55.7272 5.64294L56.4342 6.34994C55.8823 6.90193 55.5723 7.65049 55.5723 8.431C55.5723 9.21151 55.8823 9.96007 56.4342 10.5121C56.9948 11.0473 57.7401 11.3459 58.5152 11.3459C59.2903 11.3459 60.0356 11.0473 60.5963 10.5121L61.3033 11.2191C60.938 11.5863 60.5035 11.8775 60.0249 12.0758C59.5464 12.274 59.0332 12.3753 58.5152 12.3739V12.3739Z" fill="#204ECF"/>
<path d="M58.3033 58.5687H5.69689L0.00012207 51.7328V45.0375H64.0001V51.7328L58.3033 58.5687ZM6.16564 57.5687H57.8346L63.0002 51.3705V46.0375H1.00017V51.3705L6.16564 57.5687Z" fill="#204ECF"/>
<path d="M7.24762 25.0746L6.39704 24.5492C7.23054 23.2114 7.6752 21.6679 7.68122 20.0917C7.6752 18.5154 7.23054 16.972 6.39704 15.6342C5.46031 14.141 4.96344 12.4139 4.96344 10.6512C4.96344 8.88854 5.46031 7.16154 6.39704 5.66833L7.24762 6.19373C6.40857 7.52908 5.96345 9.07414 5.96345 10.6512C5.96345 12.2283 6.40857 13.7734 7.24762 15.1087C8.17902 16.6043 8.67544 18.3298 8.68122 20.0916C8.67544 21.8535 8.17903 23.579 7.24762 25.0746V25.0746Z" fill="#204ECF"/>
<path d="M15.7037 25.0747L14.8531 24.5493C15.6922 23.2139 16.1373 21.6689 16.1373 20.0918C16.1373 18.5147 15.6922 16.9696 14.8531 15.6343C13.9161 14.1412 13.4191 12.4141 13.4191 10.6514C13.4191 8.8886 13.9161 7.16155 14.8531 5.66846L15.7037 6.19385C14.8644 7.52909 14.4191 9.0742 14.4191 10.6513C14.4191 12.2285 14.8644 13.7736 15.7037 15.1088C16.6405 16.6021 17.1373 18.3291 17.1373 20.0918C17.1373 21.8545 16.6405 23.5815 15.7037 25.0747Z" fill="#204ECF"/>
<path d="M24.1593 25.0747L23.3087 24.5493C24.1478 23.2139 24.5929 21.6689 24.5929 20.0918C24.5929 18.5147 24.1478 16.9696 23.3087 15.6343C22.372 14.1411 21.8751 12.4141 21.8751 10.6514C21.8751 8.88867 22.372 7.16166 23.3087 5.66846L24.1593 6.19385C23.3203 7.52921 22.8751 9.07427 22.8751 10.6513C22.8751 12.2284 23.3203 13.7735 24.1593 15.1088C25.096 16.6021 25.5929 18.3291 25.5929 20.0918C25.5929 21.8545 25.096 23.5815 24.1593 25.0747Z" fill="#204ECF"/>
</svg>
