<svg width="64" height="65" viewBox="0 0 64 65" fill="none" xmlns="http://www.w3.org/2000/svg">
<path opacity="0.3" d="M58.069 58.9276H5.931L0.5 52.4106H63.5L58.069 58.9276Z" fill="#231F20"/>
<path d="M40.5875 37.4094C38.2158 37.41 35.9182 36.5834 34.0905 35.072C32.2627 33.5606 31.0194 31.459 30.5747 29.1294C30.13 26.7997 30.5118 24.3879 31.6543 22.3096C32.7968 20.2312 34.6284 18.6164 36.8336 17.7434L45.5333 14.1599C46.6698 13.6495 47.9346 13.4972 49.1598 13.723C50.3849 13.9489 51.5123 14.5423 52.392 15.4243C53.2718 16.3064 53.8623 17.4353 54.085 18.661C54.3077 19.8867 54.1521 21.1512 53.6388 22.2863L50.0602 30.9743C49.308 32.8727 48.0027 34.5013 46.3136 35.6488C44.6245 36.7963 42.6295 37.4096 40.5875 37.4094V37.4094ZM48.0353 14.6271C47.3092 14.6265 46.5913 14.7803 45.9293 15.0783L37.2081 18.6706C35.7907 19.2307 34.5348 20.1344 33.5535 21.3004C32.5721 22.4664 31.8961 23.8582 31.5862 25.3504C31.2764 26.8426 31.3425 28.3885 31.7785 29.8488C32.2145 31.3091 33.0068 32.6381 34.0841 33.7162C35.1613 34.7943 36.4897 35.5875 37.9498 36.0246C39.4098 36.4617 40.9556 36.5289 42.448 36.2202C43.9404 35.9114 45.3327 35.2364 46.4995 34.2559C47.6662 33.2754 48.5708 32.0202 49.132 30.6032L49.1344 30.5964L52.7203 21.8903C53.0786 21.1073 53.2339 20.2467 53.1721 19.3879C53.1102 18.529 52.8332 17.6996 52.3664 16.976C51.8997 16.2524 51.2583 15.6579 50.5014 15.2474C49.7444 14.837 48.8963 14.6236 48.0353 14.6271V14.6271Z" fill="white"/>
<path d="M56.9069 46.6951L56.1041 46.0984C59.1356 42.0228 60.6312 37.008 60.3274 31.9377C60.0236 26.8674 57.9399 22.0671 54.4435 18.3826C51.6879 15.6218 48.2906 13.5876 44.5558 12.4622C39.9123 11.2193 34.9896 11.53 30.5392 13.347C27.8234 14.4756 25.3696 16.1523 23.3312 18.2723L23.0245 18.5901L23.0138 18.5818L8.5846 33.1292L8.59583 33.1409L8.24036 33.4939C6.5506 35.0957 5.34677 37.1415 4.76706 39.3965C4.18736 41.6516 4.25528 44.0243 4.96303 46.2425L4.01185 46.5501C3.26084 44.1973 3.17542 41.6826 3.76504 39.2843C4.35466 36.886 5.59634 34.6976 7.35266 32.9612L7.53333 32.7693L22.9171 17.2596L22.9215 17.2625C24.9923 15.1915 27.4498 13.5476 30.1544 12.4241C34.8048 10.5241 39.949 10.1973 44.8024 11.4934C48.7173 12.6707 52.279 14.8009 55.1681 17.6932C58.8268 21.5486 61.0073 26.5716 61.3253 31.8771C61.6434 37.1827 60.0787 42.4302 56.9069 46.6952V46.6951Z" fill="white"/>
<path d="M55.7272 11.3708L51.6793 15.4187L52.3863 16.1257L56.4342 12.0779L55.7272 11.3708Z" fill="white"/>
<path d="M58.5152 13.2327C57.7354 13.2327 56.9731 13.0014 56.3247 12.5682C55.6763 12.1349 55.1709 11.5191 54.8725 10.7987C54.574 10.0782 54.496 9.28541 54.6481 8.52056C54.8002 7.7557 55.1757 7.05314 55.7272 6.50171L56.4342 7.20871C55.8823 7.7607 55.5723 8.50925 55.5723 9.28976C55.5723 10.0703 55.8823 10.8188 56.4342 11.3708C56.9948 11.906 57.7401 12.2047 58.5152 12.2047C59.2903 12.2047 60.0356 11.906 60.5963 11.3708L61.3033 12.0778C60.938 12.4451 60.5035 12.7363 60.0249 12.9345C59.5464 13.1328 59.0332 13.2341 58.5152 13.2327V13.2327Z" fill="white"/>
<path d="M58.3033 59.4275H5.69689L0.00012207 52.5916V45.8962H64.0001V52.5916L58.3033 59.4275ZM6.16564 58.4275H57.8346L63.0002 52.2292V46.8962H1.00017V52.2292L6.16564 58.4275Z" fill="white"/>
<path d="M7.24762 25.9333L6.39704 25.408C7.23054 24.0701 7.6752 22.5267 7.68122 20.9504C7.6752 19.3742 7.23054 17.8308 6.39704 16.4929C5.46031 14.9997 4.96344 13.2727 4.96344 11.51C4.96344 9.74731 5.46031 8.0203 6.39704 6.5271L7.24762 7.05249C6.40857 8.38785 5.96345 9.93291 5.96345 11.51C5.96345 13.0871 6.40857 14.6321 7.24762 15.9675C8.17902 17.4631 8.67544 19.1885 8.68122 20.9504C8.67544 22.7123 8.17903 24.4378 7.24762 25.9333V25.9333Z" fill="white"/>
<path d="M15.7037 25.9333L14.8531 25.4079C15.6922 24.0726 16.1373 22.5275 16.1373 20.9504C16.1373 19.3733 15.6922 17.8283 14.8531 16.4929C13.9161 14.9998 13.4191 13.2728 13.4191 11.51C13.4191 9.74724 13.9161 8.02019 14.8531 6.5271L15.7037 7.05249C14.8644 8.38774 14.4191 9.93284 14.4191 11.51C14.4191 13.0871 14.8644 14.6322 15.7037 15.9675C16.6405 17.4607 17.1373 19.1877 17.1373 20.9504C17.1373 22.7131 16.6405 24.4401 15.7037 25.9333Z" fill="white"/>
<path d="M24.1593 25.9333L23.3087 25.4079C24.1478 24.0726 24.5929 22.5275 24.5929 20.9504C24.5929 19.3733 24.1478 17.8283 23.3087 16.4929C22.372 14.9997 21.8751 13.2727 21.8751 11.51C21.8751 9.74731 22.372 8.0203 23.3087 6.5271L24.1593 7.05249C23.3203 8.38785 22.8751 9.93291 22.8751 11.51C22.8751 13.0871 23.3203 14.6321 24.1593 15.9675C25.096 17.4607 25.5929 19.1877 25.5929 20.9504C25.5929 22.7131 25.096 24.4401 24.1593 25.9333Z" fill="white"/>
</svg>
