<svg width="64" height="64" viewBox="0 0 64 64" fill="none" xmlns="http://www.w3.org/2000/svg">
<path opacity="0.3" d="M60.7913 58.1875H3.32507C2.24007 58.1875 1.38757 57.335 1.38757 56.25V60.2025C1.38757 61.0162 2.04632 61.675 2.86007 61.675H61.1401C61.9538 61.675 62.6126 61.0162 62.6126 60.2025V56.7925C62.3801 57.6062 61.6438 58.1875 60.7913 58.1875Z" fill="#231F20"/>
<path opacity="0.3" d="M48.8175 18.1201C48.6238 21.0651 47.5775 23.7389 45.9113 25.9864L46.725 26.8001C48.0813 24.5526 48.8563 21.9564 48.8563 19.1276C48.8563 18.8176 48.8175 18.4689 48.8175 18.1201Z" fill="#231F20"/>
<path opacity="0.3" d="M58.8925 41.0212C58.0787 42.0287 56.645 42.9587 56.1412 42.4549L42.8112 29.1249C40.3312 30.9849 37.27 32.0699 33.9375 32.0699C26.0325 32.0699 19.5612 25.9474 19.0575 18.1587C19.0187 18.5074 19.0187 18.8174 19.0187 19.1662C19.0187 27.4199 25.6837 34.0849 33.9375 34.0849C37.27 34.0849 40.3312 32.9999 42.8112 31.1399L56.1412 44.4699C56.955 45.2837 60.21 42.3387 59.3187 41.4474L58.8925 41.0212Z" fill="#231F20"/>
<path opacity="0.3" d="M6.03752 15.9885C5.84377 16.2985 5.45627 16.4922 5.06877 16.4922C4.68127 16.4922 4.29377 16.2597 4.10002 15.9497C3.86752 16.1822 3.71252 16.531 3.71252 16.8797C3.71252 17.616 4.33252 18.236 5.06877 18.236C5.80502 18.236 6.42502 17.616 6.42502 16.8797C6.42502 16.5697 6.27002 16.221 6.03752 15.9885Z" fill="#231F20"/>
<path opacity="0.3" d="M10.3 15.9885C10.1063 16.2985 9.71879 16.4922 9.33129 16.4922C8.94379 16.4922 8.55629 16.2597 8.36254 15.9497C8.13004 16.1822 7.97504 16.531 7.97504 16.8797C7.97504 17.616 8.59504 18.236 9.33129 18.236C10.0675 18.236 10.6875 17.616 10.6875 16.8797C10.6875 16.5697 10.5325 16.221 10.3 15.9885Z" fill="#231F20"/>
<path opacity="0.3" d="M14.5625 15.9885C14.3687 16.2985 13.9812 16.4922 13.5937 16.4922C13.2062 16.4922 12.8187 16.2597 12.625 15.9497C12.3925 16.1822 12.2375 16.531 12.2375 16.8797C12.2375 17.616 12.8575 18.236 13.5937 18.236C14.33 18.236 14.95 17.616 14.95 16.8797C14.95 16.5697 14.795 16.221 14.5625 15.9885Z" fill="#231F20"/>
<path fill-rule="evenodd" clip-rule="evenodd" d="M0.693787 13.8188C0.693787 12.4577 1.77014 11.3813 3.13129 11.3813H19.9875V12.3813H3.13129C2.32243 12.3813 1.69379 13.01 1.69379 13.8188V59.9313C1.69379 60.7402 2.32243 61.3688 3.13129 61.3688H60.8688C61.6776 61.3688 62.3063 60.7402 62.3063 59.9313V13.8188C62.3063 13.01 61.6776 12.3813 60.8688 12.3813H47.8875V11.3813H60.8688C62.2299 11.3813 63.3063 12.4577 63.3063 13.8188V59.9313C63.3063 61.2925 62.2299 62.3688 60.8688 62.3688H3.13129C1.77014 62.3688 0.693787 61.2925 0.693787 59.9313V13.8188Z" fill="white"/>
<path fill-rule="evenodd" clip-rule="evenodd" d="M5.06875 14.7061C4.70286 14.7061 4.40625 15.0027 4.40625 15.3686C4.40625 15.7344 4.70286 16.0311 5.06875 16.0311C5.43464 16.0311 5.73125 15.7344 5.73125 15.3686C5.73125 15.0027 5.43464 14.7061 5.06875 14.7061ZM3.40625 15.3686C3.40625 14.4504 4.15058 13.7061 5.06875 13.7061C5.98692 13.7061 6.73125 14.4504 6.73125 15.3686C6.73125 16.2867 5.98692 17.0311 5.06875 17.0311C4.15058 17.0311 3.40625 16.2867 3.40625 15.3686Z" fill="white"/>
<path fill-rule="evenodd" clip-rule="evenodd" d="M9.33132 14.7061C8.96543 14.7061 8.66882 15.0027 8.66882 15.3686C8.66882 15.7344 8.96543 16.0311 9.33132 16.0311C9.69721 16.0311 9.99382 15.7344 9.99382 15.3686C9.99382 15.0027 9.69721 14.7061 9.33132 14.7061ZM7.66882 15.3686C7.66882 14.4504 8.41315 13.7061 9.33132 13.7061C10.2495 13.7061 10.9938 14.4504 10.9938 15.3686C10.9938 16.2867 10.2495 17.0311 9.33132 17.0311C8.41315 17.0311 7.66882 16.2867 7.66882 15.3686Z" fill="white"/>
<path fill-rule="evenodd" clip-rule="evenodd" d="M13.5938 14.7061C13.2279 14.7061 12.9313 15.0027 12.9313 15.3686C12.9313 15.7344 13.2279 16.0311 13.5938 16.0311C13.9597 16.0311 14.2563 15.7344 14.2563 15.3686C14.2563 15.0027 13.9597 14.7061 13.5938 14.7061ZM11.9313 15.3686C11.9313 14.4504 12.6756 13.7061 13.5938 13.7061C14.5119 13.7061 15.2563 14.4504 15.2563 15.3686C15.2563 16.2867 14.5119 17.0311 13.5938 17.0311C12.6756 17.0311 11.9313 16.2867 11.9313 15.3686Z" fill="white"/>
<path fill-rule="evenodd" clip-rule="evenodd" d="M46.2648 25.6323L59.6723 39.0398C60.1439 39.5115 59.9683 40.159 59.7607 40.578C59.5321 41.0396 59.1377 41.5132 58.7094 41.9106C58.2801 42.3089 57.778 42.6664 57.305 42.8711C57.0696 42.973 56.8135 43.0493 56.5613 43.056C56.3021 43.0629 56.0132 42.995 55.7877 42.7694L42.4577 29.4394L43.1648 28.7323L56.486 42.0535C56.4939 42.0552 56.5091 42.0571 56.5347 42.0564C56.6127 42.0543 56.7374 42.0271 56.9078 41.9534C57.2461 41.8069 57.6546 41.5251 58.0293 41.1775C58.4051 40.8288 58.7082 40.4499 58.8647 40.1341C58.9432 39.9756 58.9696 39.8632 58.9717 39.7964C58.9727 39.7661 58.9685 39.7526 58.9676 39.7501C58.9675 39.75 58.9675 39.7499 58.9675 39.7498C58.9674 39.7493 58.9673 39.7491 58.9652 39.7469L45.5577 26.3394L46.2648 25.6323ZM56.4788 42.0512C56.4789 42.0511 56.4801 42.0515 56.4821 42.0525C56.4797 42.0518 56.4787 42.0513 56.4788 42.0512Z" fill="white"/>
<path fill-rule="evenodd" clip-rule="evenodd" d="M45.3688 12.3813H22.5063V11.3813H45.3688V12.3813Z" fill="white"/>
<path fill-rule="evenodd" clip-rule="evenodd" d="M33.9375 49.1938H4.48749V48.1938H33.9375V49.1938Z" fill="white"/>
<path fill-rule="evenodd" clip-rule="evenodd" d="M33.9375 51.5186H4.48749V50.5186H33.9375V51.5186Z" fill="white"/>
<path fill-rule="evenodd" clip-rule="evenodd" d="M12.625 53.8438H4.48749V52.8438H12.625V53.8438Z" fill="white"/>
<path fill-rule="evenodd" clip-rule="evenodd" d="M33.9375 2.69385C25.9742 2.69385 19.5187 9.14934 19.5187 17.1126C19.5187 25.0759 25.9742 31.5313 33.9375 31.5313C41.9007 31.5313 48.3562 25.0759 48.3562 17.1126C48.3562 9.14934 41.9007 2.69385 33.9375 2.69385ZM18.5187 17.1126C18.5187 8.59706 25.4219 1.69385 33.9375 1.69385C42.453 1.69385 49.3562 8.59706 49.3562 17.1126C49.3562 25.6281 42.453 32.5313 33.9375 32.5313C25.4219 32.5313 18.5187 25.6281 18.5187 17.1126Z" fill="white"/>
</svg>
