<svg width="64" height="65" viewBox="0 0 64 64" fill="none" xmlns="http://www.w3.org/2000/svg">
<g clip-path="url(#clip0_17_2332)">
<path opacity="0.3" d="M19.8063 48.6026H44.1944V64.4017H52.4178C52.414 58.9892 50.2613 53.7996 46.4326 49.9736C42.604 46.1477 37.4129 43.9985 32.0004 43.9985C26.5878 43.9985 21.3967 46.1477 17.5681 49.9736C13.7395 53.7996 11.5867 58.9892 11.5829 64.4017H19.8063V48.6026Z" fill="#231F20"/>
<path opacity="0.3" d="M32.0002 43.9842C34.0002 43.9843 35.9554 43.3912 37.6184 42.2801C39.2814 41.1689 40.5775 39.5896 41.3429 37.7418C42.1083 35.894 42.3086 33.8607 41.9184 31.8991C41.5282 29.9375 40.5651 28.1356 39.1509 26.7214C37.7366 25.3071 35.9347 24.344 33.9731 23.9538C32.0115 23.5636 29.9782 23.7639 28.1304 24.5293C26.2826 25.2947 24.7033 26.5909 23.5922 28.2539C22.481 29.9169 21.888 31.872 21.888 33.8721C21.8881 36.554 22.9535 39.126 24.8499 41.0224C26.7463 42.9187 29.3183 43.9841 32.0002 43.9842V43.9842Z" fill="#231F20"/>
<path opacity="0.3" d="M9.5 1.40161V10.8566L16.25 8.05761V1.40161H9.5Z" fill="#231F20"/>
<path opacity="0.3" d="M5.88098 30.1705L32 19.1325L58.119 30.1705V20.0885L32 9.05054L5.88098 20.0885V30.1705Z" fill="#231F20"/>
<g opacity="0.3">
<path opacity="0.3" d="M32.0004 58.4956C33.1014 58.4956 33.994 57.603 33.994 56.502C33.994 55.4009 33.1014 54.5083 32.0004 54.5083C30.8993 54.5083 30.0067 55.4009 30.0067 56.502C30.0067 57.603 30.8993 58.4956 32.0004 58.4956Z" fill="#231F20"/>
</g>
<path d="M44.694 64.4015H43.694V49.1025H20.307V64.4015H19.307V48.1025H44.694V64.4015Z" fill="white"/>
<path d="M32 44.4841C29.9011 44.4841 27.8493 43.8617 26.1041 42.6957C24.3589 41.5296 22.9987 39.8721 22.1955 37.933C21.3923 35.9939 21.1821 33.8601 21.5916 31.8015C22.0011 29.7429 23.0118 27.852 24.496 26.3678C25.9801 24.8836 27.8711 23.8729 29.9296 23.4634C31.9882 23.054 34.122 23.2641 36.0612 24.0673C38.0003 24.8706 39.6577 26.2308 40.8238 27.976C41.9899 29.7211 42.6123 31.7729 42.6123 33.8718C42.6091 36.6854 41.49 39.3828 39.5005 41.3723C37.511 43.3618 34.8136 44.4809 32 44.4841V44.4841ZM32 24.2595C30.0989 24.2595 28.2404 24.8233 26.6597 25.8795C25.079 26.9357 23.8469 28.4369 23.1194 30.1934C22.3919 31.9498 22.2015 33.8825 22.5724 35.7471C22.9433 37.6117 23.8588 39.3245 25.2031 40.6688C26.5474 42.0131 28.2601 42.9286 30.1247 43.2995C31.9893 43.6704 33.9221 43.48 35.6785 42.7525C37.4349 42.0249 38.9361 40.7929 39.9924 39.2122C41.0486 37.6314 41.6123 35.773 41.6123 33.8718C41.6094 31.3234 40.5957 28.8802 38.7937 27.0782C36.9917 25.2762 34.5485 24.2625 32 24.2595V24.2595Z" fill="white"/>
<path d="M52.918 64.4016H51.918C51.918 59.1192 49.8196 54.0531 46.0843 50.3178C42.3491 46.5826 37.283 44.4841 32.0005 44.4841C26.7181 44.4841 21.652 46.5826 17.9167 50.3178C14.1815 54.0531 12.083 59.1192 12.083 64.4016H11.083C11.083 58.854 13.2868 53.5335 17.2096 49.6107C21.1324 45.6879 26.4528 43.4841 32.0005 43.4841C37.5482 43.4841 42.8686 45.6879 46.7914 49.6107C50.7142 53.5335 52.918 58.854 52.918 64.4016V64.4016Z" fill="white"/>
<path d="M64 23.1169L32 9.5935L0 23.1169V14.3826L32 0.858643L32.1943 0.941163L64 14.3826V23.1169ZM32 8.50757L32.1943 8.59009L63 21.6091V15.0456L32 1.94458L1 15.0456V21.6091L32 8.50757Z" fill="white"/>
<path d="M10 10.8566H9V0.901611H16.75V8.05761H15.75V1.90161H10V10.8566Z" fill="white"/>
<path d="M58.619 64.9016H5.38098V20.0886H6.38098V63.9016H57.619V20.0886H58.619V64.9016Z" fill="white"/>
</g>
<defs>
<clipPath id="clip0_17_2332">
<rect width="64.0002" height="64.043" fill="white" transform="translate(0 0.858643)"/>
</clipPath>
</defs>
</svg>
