<svg width="64" height="65" viewBox="0 0 64 65" fill="none" xmlns="http://www.w3.org/2000/svg">
<g clip-path="url(#clip0_17_2163)">
<path opacity="0.15" d="M19.8063 47.7438H44.1944V63.543H52.4178C52.414 58.1304 50.2613 52.9408 46.4326 49.1149C42.604 45.2889 37.4129 43.1398 32.0004 43.1398C26.5878 43.1398 21.3967 45.2889 17.5681 49.1149C13.7395 52.9408 11.5867 58.1304 11.5829 63.543H19.8063V47.7438Z" fill="#183A9E"/>
<path opacity="0.15" d="M32.0002 43.1255C34.0002 43.1255 35.9554 42.5324 37.6184 41.4213C39.2814 40.3102 40.5775 38.7308 41.3429 36.883C42.1083 35.0352 42.3086 33.0019 41.9184 31.0403C41.5282 29.0787 40.5651 27.2768 39.1509 25.8626C37.7366 24.4483 35.9347 23.4852 33.9731 23.0951C32.0115 22.7049 29.9782 22.9052 28.1304 23.6706C26.2826 24.436 24.7033 25.7321 23.5922 27.3951C22.481 29.0581 21.888 31.0133 21.888 33.0133C21.8881 35.6952 22.9535 38.2672 24.8499 40.1636C26.7463 42.06 29.3183 43.1254 32.0002 43.1255V43.1255Z" fill="#183A9E"/>
<path opacity="0.15" d="M9.5 0.542969V9.99797L16.25 7.19897V0.542969H9.5Z" fill="#183A9E"/>
<path opacity="0.15" d="M5.88098 29.312L32 18.274L58.119 29.312V19.23L32 8.19202L5.88098 19.23V29.312Z" fill="#183A9E"/>
<g opacity="0.3">
<path opacity="0.3" d="M32.0004 57.6371C33.1014 57.6371 33.994 56.7445 33.994 55.6434C33.994 54.5424 33.1014 53.6498 32.0004 53.6498C30.8993 53.6498 30.0067 54.5424 30.0067 55.6434C30.0067 56.7445 30.8993 57.6371 32.0004 57.6371Z" fill="#231F20"/>
</g>
<path d="M44.694 63.543H43.694V48.244H20.307V63.543H19.307V47.244H44.694V63.543Z" fill="#204ECF"/>
<path d="M32 43.6255C29.9011 43.6255 27.8493 43.0031 26.1041 41.837C24.3589 40.6709 22.9987 39.0135 22.1955 37.0744C21.3923 35.1352 21.1821 33.0014 21.5916 30.9428C22.0011 28.8843 23.0118 26.9933 24.496 25.5092C25.9801 24.025 27.8711 23.0143 29.9296 22.6048C31.9882 22.1953 34.122 22.4055 36.0612 23.2087C38.0003 24.0119 39.6577 25.3721 40.8238 27.1173C41.9899 28.8625 42.6123 30.9143 42.6123 33.0132C42.6091 35.8268 41.49 38.5242 39.5005 40.5137C37.511 42.5032 34.8136 43.6223 32 43.6255V43.6255ZM32 23.4009C30.0989 23.4009 28.2404 23.9646 26.6597 25.0209C25.079 26.0771 23.8469 27.5783 23.1194 29.3347C22.3919 31.0911 22.2015 33.0239 22.5724 34.8885C22.9433 36.7531 23.8588 38.4658 25.2031 39.8101C26.5474 41.1544 28.2601 42.0699 30.1247 42.4408C31.9893 42.8117 33.9221 42.6214 35.6785 41.8938C37.4349 41.1663 38.9361 39.9342 39.9924 38.3535C41.0486 36.7728 41.6123 34.9143 41.6123 33.0132C41.6094 30.4648 40.5957 28.0215 38.7937 26.2195C36.9917 24.4175 34.5485 23.4038 32 23.4009V23.4009Z" fill="#204ECF"/>
<path d="M52.918 63.543H51.918C51.918 58.2605 49.8196 53.1944 46.0843 49.4592C42.3491 45.7239 37.283 43.6255 32.0005 43.6255C26.7181 43.6255 21.652 45.7239 17.9167 49.4592C14.1815 53.1944 12.083 58.2605 12.083 63.543H11.083C11.083 57.9953 13.2868 52.6749 17.2096 48.7521C21.1324 44.8293 26.4528 42.6255 32.0005 42.6255C37.5482 42.6255 42.8686 44.8293 46.7914 48.7521C50.7142 52.6749 52.918 57.9953 52.918 63.543V63.543Z" fill="#204ECF"/>
<path d="M64 22.2583L32 8.73486L0 22.2583V13.5239L32 0L32.1943 0.08252L64 13.5239V22.2583ZM32 7.64893L32.1943 7.73145L63 20.7505V14.187L32 1.08594L1 14.187V20.7505L32 7.64893Z" fill="#204ECF"/>
<path d="M10 9.99797H9V0.0429688H16.75V7.19897H15.75V1.04297H10V9.99797Z" fill="#204ECF"/>
<path d="M58.619 64.043H5.38098V19.23H6.38098V63.043H57.619V19.23H58.619V64.043Z" fill="#204ECF"/>
</g>
<defs>
<clipPath id="clip0_17_2163">
<rect width="64.0002" height="64.043" fill="white"/>
</clipPath>
</defs>
</svg>
