<svg width="64" height="65" viewBox="0 0 64 65" fill="none" xmlns="http://www.w3.org/2000/svg">
<g clip-path="url(#clip0_17_2553)">
<path opacity="0.3" d="M37.062 43.0268H27.007L0.5 17.7148H63.5L37.062 43.0268Z" fill="#231F20"/>
<path d="M32 64.9019C26.6818 64.8992 21.448 63.5718 16.7714 61.0395C12.0948 58.5072 8.12268 54.8498 5.21378 50.3977C2.30488 45.9456 0.550854 40.839 0.11013 35.5391C-0.330594 30.2392 0.555869 24.9129 2.68945 20.0415L3.605 20.4439C1.75258 24.6666 0.86544 29.2494 1.0082 33.8584C1.15096 38.4674 2.32003 42.9865 4.43024 47.0865C6.54045 51.1865 9.53866 54.7642 13.2065 57.5589C16.8743 60.3537 21.1193 62.295 25.6323 63.2416C30.1453 64.1882 34.8126 64.1162 39.2942 63.0308C43.7759 61.9454 47.959 59.874 51.5388 56.9675C55.1186 54.0609 58.005 50.3924 59.9877 46.2293C61.9704 42.0661 62.9995 37.5131 63 32.9019C63.0092 28.6147 62.1226 24.3728 60.397 20.4482L61.313 20.0459C63.4454 24.9173 64.3309 30.2432 63.8895 35.5426C63.4481 40.842 61.6936 45.948 58.7846 50.3995C55.8756 54.851 51.9036 58.5078 47.2273 61.0398C42.551 63.5717 37.3177 64.899 32 64.9019Z" fill="white"/>
<path d="M11.4951 9.65186L10.833 8.90186C16.6789 3.74657 24.2053 0.901946 31.9997 0.901855C39.794 0.901765 47.3205 3.74621 53.1665 8.90137L52.5044 9.65137C46.8413 4.65733 39.5502 1.90177 31.9997 1.90186C24.4491 1.90195 17.1581 4.65769 11.4951 9.65186V9.65186Z" fill="white"/>
<path d="M37.5625 57.2598L26.5068 52.9307V43.2407L0 17.9282V8.77686H64V17.9277L37.5625 43.2402V57.2598ZM27.5068 52.248L36.5625 55.7939V42.8135L63 17.501V9.77686H1V17.5005L27.5068 42.813V52.248Z" fill="white"/>
</g>
<defs>
<clipPath id="clip0_17_2553">
<rect width="64" height="64" fill="white" transform="translate(0 0.901855)"/>
</clipPath>
</defs>
</svg>
