<svg width="64" height="64" viewBox="0 0 64 64" fill="none" xmlns="http://www.w3.org/2000/svg">
<g clip-path="url(#clip0_17_2360)">
<path opacity="0.15" d="M37.062 42.125H27.007L0.5 16.813H63.5L37.062 42.125Z" fill="#183A9E"/>
<path d="M32 64C26.6818 63.9973 21.448 62.6699 16.7714 60.1376C12.0948 57.6054 8.12268 53.948 5.21378 49.4959C2.30488 45.0437 0.550854 39.9371 0.11013 34.6372C-0.330594 29.3373 0.555869 24.0111 2.68945 19.1396L3.605 19.542C1.75258 23.7648 0.86544 28.3476 1.0082 32.9565C1.15096 37.5655 2.32003 42.0846 4.43024 46.1847C6.54045 50.2847 9.53866 53.8624 13.2065 56.6571C16.8743 59.4518 21.1193 61.3932 25.6323 62.3398C30.1453 63.2863 34.8126 63.2143 39.2942 62.1289C43.7759 61.0436 47.959 58.9722 51.5388 56.0656C55.1186 53.1591 58.005 49.4906 59.9877 45.3274C61.9704 41.1642 62.9995 36.6112 63 32C63.0092 27.7128 62.1226 23.471 60.397 19.5464L61.313 19.144C63.4454 24.0155 64.3309 29.3414 63.8895 34.6408C63.4481 39.9401 61.6936 45.0461 58.7846 49.4976C55.8756 53.9491 51.9036 57.606 47.2273 60.1379C42.551 62.6699 37.3177 63.9972 32 64Z" fill="#204ECF"/>
<path d="M11.4951 8.75L10.833 8C16.6789 2.84471 24.2053 9.02198e-05 31.9997 2.14602e-09C39.794 -9.02155e-05 47.3205 2.84436 53.1665 7.99951L52.5044 8.74951C46.8413 3.75548 39.5502 0.999914 31.9997 1C24.4491 1.00009 17.1581 3.75583 11.4951 8.75V8.75Z" fill="#204ECF"/>
<path d="M37.5625 56.3579L26.5068 52.0288V42.3389L0 17.0264V7.875H64V17.0259L37.5625 42.3384V56.3579ZM27.5068 51.3462L36.5625 54.8921V41.9116L63 16.5991V8.875H1V16.5986L27.5068 41.9111V51.3462Z" fill="#204ECF"/>
</g>
<defs>
<clipPath id="clip0_17_2360">
<rect width="64" height="64" fill="white"/>
</clipPath>
</defs>
</svg>
