<svg width="65" height="65" viewBox="0 0 65 65" fill="none" xmlns="http://www.w3.org/2000/svg">
<g clip-path="url(#clip0_17_2561)">
<path opacity="0.3" d="M32.0312 15.4207C28.4509 15.4207 24.9511 16.4824 21.9743 18.4715C18.9975 20.4606 16.6774 23.2878 15.3073 26.5955C13.9373 29.9032 13.5788 33.5429 14.2773 37.0543C14.9758 40.5657 16.6999 43.7911 19.2315 46.3227C21.7631 48.8543 24.9886 50.5783 28.5 51.2767C32.0114 51.9752 35.6511 51.6167 38.9588 50.2466C42.2665 48.8765 45.0936 46.5563 47.0827 43.5795C49.0717 40.6026 50.1334 37.1028 50.1334 33.5226C50.1334 31.1454 49.6651 28.7915 48.7554 26.5952C47.8457 24.399 46.5123 22.4034 44.8314 20.7225C43.1504 19.0415 41.1548 17.7082 38.9586 16.7985C36.7623 15.8888 34.4084 15.4206 32.0312 15.4207ZM32.0312 45.2927C29.7032 45.2926 27.4276 44.6023 25.492 43.3089C23.5564 42.0156 22.0478 40.1773 21.157 38.0266C20.2662 35.8759 20.0331 33.5093 20.4873 31.2261C20.9415 28.9429 22.0625 26.8456 23.7086 25.1996C25.3547 23.5535 27.452 22.4325 29.7352 21.9784C32.0184 21.5243 34.385 21.7574 36.5357 22.6483C38.6864 23.5391 40.5246 25.0478 41.8179 26.9834C43.1112 28.919 43.8015 31.1947 43.8015 33.5226C43.8015 35.0683 43.497 36.5988 42.9055 38.0268C42.314 39.4549 41.447 40.7524 40.354 41.8454C39.261 42.9383 37.9635 43.8053 36.5354 44.3968C35.1074 44.9883 33.5768 45.2927 32.0312 45.2926V45.2927Z" fill="#231F20"/>
<path d="M31.285 36.9429L27.763 33.4219L28.47 32.7149L31.285 35.5289L35.593 31.2209L36.3 31.9279L31.285 36.9429Z" fill="white"/>
<path d="M23.561 64.4237L23.1963 64.3193C19.6985 63.3196 16.3971 61.7298 13.4345 59.6186L13.1255 59.3984L15.8085 51.9657C13.6275 50.05 11.8036 47.7624 10.4218 45.2094L2.57715 46.1717L2.43164 45.8212C1.03287 42.4632 0.217612 38.891 0.021 35.2587L0 34.8797L7.49756 32.3382C7.63099 29.4421 8.28032 26.5931 9.415 23.9252L3.76465 18.3856L3.94775 18.0531C5.7015 14.866 7.98605 12.0013 10.7031 9.58241L10.9863 9.32997L17.644 13.6058C19.9923 11.903 22.626 10.6334 25.4209 9.85685L26.229 1.98966L26.603 1.92566C30.1881 1.30896 33.8523 1.30896 37.4374 1.92566L37.8114 1.98966L38.6186 9.85001C41.4176 10.6253 44.0555 11.8947 46.4076 13.5985L53.0542 9.32997L53.3374 9.5829C56.0546 12.0015 58.3391 14.8662 60.0923 18.0536L60.2754 18.3861L54.6416 23.9101C55.7809 26.585 56.4325 29.4422 56.5654 32.3466L64.04 34.8797L64.019 35.2586C63.8222 38.891 63.007 42.4631 61.6084 45.8211L61.4628 46.1717L53.6391 45.2117C52.2541 47.771 50.4247 50.0632 48.2363 51.9813L50.914 59.3983L50.6049 59.6185C47.6427 61.7299 44.3414 63.3197 40.8437 64.3192L40.479 64.4237L36.3496 57.7074C33.4862 58.2184 30.5548 58.217 27.6919 57.7035L23.561 64.4237ZM36.8413 56.5971L40.9321 63.2514C44.0647 62.3145 47.0291 60.8869 49.7148 59.0219L47.0615 51.6723L47.3247 51.4477C49.6201 49.4921 51.5185 47.1136 52.9165 44.4417L53.0771 44.1351L60.8286 45.0863C62.0491 42.0527 62.7813 38.845 62.9981 35.5824L55.5913 33.0721L55.5801 32.7264C55.4842 29.7153 54.8081 26.7509 53.5889 23.996L53.4482 23.6795L59.0317 18.2049C57.4208 15.3593 55.3694 12.7867 52.9536 10.5829L46.3677 14.8129L46.0903 14.6059C43.6779 12.8062 40.9409 11.489 38.0293 10.7265L37.6943 10.6386L36.8945 2.84951C33.6654 2.33487 30.3751 2.33487 27.146 2.84951L26.3452 10.6449L26.0107 10.7328C23.1033 11.4968 20.3704 12.8143 17.9619 14.6132L17.6841 14.8202L11.0869 10.5829C8.67133 12.7869 6.61975 15.3592 5.0083 18.2045L10.6074 23.6942L10.4678 24.0111C9.2532 26.7591 8.57931 29.7153 8.48291 32.7181L8.47168 33.0638L1.042 35.5824C1.25885 38.845 1.99107 42.0528 3.21144 45.0863L10.9839 44.1327L11.1445 44.4394C12.5395 47.1053 14.4323 49.4794 16.7207 51.433L16.9829 51.6576L14.3247 59.0219C17.0105 60.887 19.9751 62.3146 23.1079 63.2514L27.2012 56.5927L27.5405 56.6586C30.5001 57.2315 33.542 57.2327 36.502 56.662L36.8413 56.5971Z" fill="white"/>
<path d="M32.0313 45.793C29.6044 45.793 27.2321 45.0734 25.2142 43.7252C23.1964 42.377 21.6236 40.4606 20.6948 38.2186C19.7661 35.9765 19.5231 33.5094 19.9965 31.1291C20.4699 28.7489 21.6384 26.5626 23.3544 24.8465C25.0704 23.1304 27.2568 21.9618 29.6369 21.4883C32.0171 21.0148 34.4843 21.2577 36.7264 22.1864C38.9685 23.115 40.8849 24.6877 42.2332 26.7055C43.5815 28.7233 44.3012 31.0956 44.3013 33.5225C44.2976 36.7756 43.0038 39.8945 40.7035 42.1949C38.4032 44.4952 35.2844 45.7892 32.0313 45.793V45.793ZM32.0313 22.2524C29.8022 22.2524 27.6232 22.9133 25.7697 24.1517C23.9163 25.3901 22.4717 27.1503 21.6187 29.2096C20.7656 31.269 20.5424 33.5351 20.9773 35.7214C21.4121 37.9076 22.4855 39.9158 24.0617 41.492C25.6379 43.0682 27.6461 44.1416 29.8323 44.5764C32.0186 45.0113 34.2847 44.7881 36.3441 43.935C38.4034 43.082 40.1636 41.6374 41.402 39.784C42.6404 37.9305 43.3013 35.7515 43.3013 33.5224C43.2979 30.5345 42.1094 27.6699 39.9966 25.5571C37.8838 23.4443 35.0192 22.2558 32.0313 22.2524V22.2524Z" fill="white"/>
</g>
<defs>
<clipPath id="clip0_17_2561">
<rect width="64.04" height="64" fill="white" transform="translate(0 0.901855)"/>
</clipPath>
</defs>
</svg>
