<svg width="64" height="64" viewBox="0 0 64 64" fill="none" xmlns="http://www.w3.org/2000/svg">
<g clip-path="url(#clip0_17_2376)">
<path opacity="0.15" d="M32.0003 23.7874C35.5997 23.7874 38.5176 20.8696 38.5176 17.2702C38.5176 13.6708 35.5997 10.7529 32.0003 10.7529C28.4009 10.7529 25.4831 13.6708 25.4831 17.2702C25.4831 20.8696 28.4009 23.7874 32.0003 23.7874Z" fill="#183A9E"/>
<path opacity="0.15" d="M16.0767 52.9547C19.6761 52.9547 22.594 50.0368 22.594 46.4374C22.594 42.838 19.6761 39.9202 16.0767 39.9202C12.4774 39.9202 9.55948 42.838 9.55948 46.4374C9.55948 50.0368 12.4774 52.9547 16.0767 52.9547Z" fill="#183A9E"/>
<path opacity="0.15" d="M47.9207 52.6375C51.52 52.6375 54.4379 49.7197 54.4379 46.1203C54.4379 42.5209 51.52 39.603 47.9207 39.603C44.3213 39.603 41.4034 42.5209 41.4034 46.1203C41.4034 49.7197 44.3213 52.6375 47.9207 52.6375Z" fill="#183A9E"/>
<path d="M18.8568 62.2563L17.0848 58.7676C15.7399 58.8787 14.3859 58.7682 13.0769 58.4404L10.7635 61.5976L10.408 61.4639C8.70049 60.8222 7.11518 59.8934 5.7205 58.7178L5.43 58.4736L7.05646 54.9048C6.13327 53.9244 5.37685 52.7995 4.8172 51.5747L0.898253 51.7353L0.781553 51.374C0.218828 49.6387 -0.0435669 47.8201 0.00567283 45.9965L0.0159328 45.6172L3.82647 44.6616C4.01584 43.3305 4.42263 42.0395 5.03058 40.8403L2.4588 37.873L2.66827 37.5566C3.67405 36.0347 4.93238 34.6958 6.38897 33.5976L6.6922 33.3686L9.8128 35.751C10.9722 35.0683 12.236 34.581 13.5535 34.3086L14.2698 30.4502L14.6478 30.4165C16.4647 30.254 18.296 30.4029 20.0628 30.8569L20.4304 30.9512L20.5134 34.8711C21.7717 35.3525 22.9421 36.0378 23.9778 36.8994L27.4368 35.0562L27.699 35.3306C28.9586 36.65 29.9838 38.1747 30.7307 39.8389L30.8865 40.1851L27.8777 42.6909C28.286 43.9764 28.4796 45.3205 28.4505 46.6689L32.0457 48.2221L31.9944 48.5986C31.748 50.406 31.1953 52.1581 30.3601 53.7798L30.1863 54.1177L26.3552 53.3281C25.6027 54.4489 24.6716 55.4387 23.5989 56.2583L24.6253 60.0346L24.2991 60.229C22.7324 61.1636 21.0177 61.824 19.2288 62.1816L18.8568 62.2563ZM17.6653 57.7031L19.4022 61.1221C20.8233 60.8009 22.1902 60.2745 23.4598 59.5596L22.4539 55.8579L22.7342 55.6553C23.9154 54.8039 24.9221 53.7336 25.6995 52.5025L25.8846 52.21L29.6395 52.9839C30.2741 51.6724 30.7147 50.2757 30.9476 48.8374L27.4232 47.3144L27.4398 46.9687C27.5118 45.5159 27.3026 44.0629 26.8235 42.6894L26.7093 42.3623L29.6595 39.9057C29.0298 38.5919 28.2125 37.3766 27.2332 36.2978L23.8421 38.105L23.5823 37.8765C22.4918 36.9163 21.2264 36.1754 19.8553 35.6943L19.5282 35.5796L19.4471 31.7363C18.0274 31.4088 16.5676 31.2901 15.1136 31.3838L14.411 35.1665L14.0707 35.227C12.6417 35.481 11.2752 36.008 10.0458 36.7793L9.75231 36.9629L6.6922 34.6274C5.55128 35.5334 4.54826 36.6006 3.71466 37.7954L6.23614 40.7046L6.07114 41.0093C5.37913 42.284 4.93915 43.68 4.77524 45.1211L4.73569 45.4649L1.00034 46.4014C0.997353 47.8585 1.20641 49.3082 1.62095 50.7051L5.46226 50.5474L5.59751 50.8657C6.1642 52.2035 6.9822 53.4201 8.00718 54.4497L8.25083 54.6948L6.65659 58.1928C7.79399 59.1033 9.05767 59.8436 10.408 60.3906L12.6756 57.2959L13.0091 57.3887C14.411 57.7808 15.8751 57.9003 17.3221 57.7407L17.6653 57.7031Z" fill="#204ECF"/>
<path d="M47.9246 62.1919C46.5798 62.1919 45.2403 62.0226 43.9378 61.688L43.5701 61.5938L43.4871 57.6733C42.2287 57.1922 41.0583 56.5069 40.0228 55.645L36.5638 57.4888L36.3016 57.2143C35.0421 55.8948 34.0168 54.3702 33.2698 52.706L33.1141 52.3598L36.1229 49.854C35.7145 48.5685 35.521 47.2245 35.5501 45.876L31.9549 44.3228L32.0062 43.9463C32.2524 42.1388 32.8051 40.3864 33.6404 38.7647L33.8143 38.4273L37.6453 39.2168C38.3975 38.0959 39.3287 37.106 40.4016 36.2866L39.3753 32.5107L39.7015 32.3164C41.2679 31.3812 42.9827 30.7206 44.7718 30.3633L45.1439 30.2886L46.9159 33.7773C48.2607 33.6655 49.6148 33.776 50.9237 34.1045L53.2372 30.9468L53.5926 31.0806C55.3 31.7227 56.8853 32.6516 58.2801 33.8272L58.5706 34.0713L56.9442 37.6401C57.8673 38.6204 58.6237 39.7451 59.1834 40.9697L63.1024 40.8096L63.2191 41.1709C63.7818 42.9062 64.0442 44.7248 63.995 46.5483L63.9847 46.9277L60.1742 47.8833C59.9849 49.2144 59.5781 50.5054 58.97 51.7046L61.5418 54.6719L61.3323 54.9883C60.3264 56.5101 59.0681 57.849 57.6116 58.9473L57.3089 59.1763L54.1878 56.794C53.0284 57.4767 51.7647 57.964 50.4471 58.2364L49.7308 62.0948L49.3528 62.1285C48.8763 62.1709 48.4002 62.1921 47.9246 62.1919ZM44.5535 60.8086C45.9733 61.1359 47.4331 61.2546 48.887 61.1611L49.5897 57.3784L49.93 57.3179C51.3589 57.064 52.7255 56.5369 53.9549 55.7656L54.2484 55.582L57.3079 57.9175C58.4489 57.0114 59.4521 55.9442 60.2859 54.7495L57.7644 51.8403L57.9294 51.5361C58.6212 50.2612 59.0612 48.865 59.2253 47.4238L59.2649 47.0801L63.0002 46.1435C63.0032 44.6864 62.7942 43.2367 62.3796 41.8398L58.5383 41.997L58.4031 41.6787C57.8364 40.3411 57.0184 39.1246 55.9934 38.0952L55.7497 37.8501L57.344 34.3521C56.2065 33.4415 54.9429 32.7011 53.5925 32.1538L51.325 35.249L50.9915 35.1562C50.2904 34.9608 49.5723 34.8323 48.847 34.7724C48.1248 34.7138 47.3987 34.7244 46.6785 34.8042L46.3353 34.8418L44.5984 31.4228C43.1772 31.7438 41.8103 32.2702 40.5408 32.9853L41.5467 36.687L41.2664 36.8896C40.0851 37.7409 39.0784 38.8113 38.3011 40.0425L38.116 40.335L34.3611 39.561C33.7263 40.8724 33.2857 42.2692 33.053 43.7075L36.5775 45.2304L36.5609 45.5761C36.4888 47.0289 36.698 48.482 37.1771 49.8554L37.2913 50.1826L34.3411 52.6391C34.9709 53.9529 35.7882 55.1683 36.7674 56.247L40.1585 54.4394L40.4183 54.6679C41.5085 55.6285 42.774 56.3694 44.1453 56.8501L44.4724 56.9648L44.5535 60.8086Z" fill="#204ECF"/>
<path d="M32.0003 33.3491C31.0898 33.3491 30.1809 33.2715 29.2835 33.1172L28.9095 33.0532L28.5091 29.1528C27.216 28.7751 25.9939 28.187 24.8919 27.4121L21.5936 29.5298L21.3104 29.2773C19.9476 28.0645 18.8019 26.6279 17.9227 25.0293L17.7396 24.6968L20.535 21.9561C20.024 20.7079 19.7223 19.384 19.6419 18.0376L15.9325 16.7803L15.9535 16.4014C16.0519 14.5798 16.4608 12.7884 17.1625 11.1045L17.308 10.7539L21.1903 11.2305C21.8494 10.0523 22.6972 8.99025 23.7 8.08645L22.3714 4.40578L22.6805 4.18557C24.166 3.12679 25.8215 2.32952 27.5755 1.82814L27.9402 1.72314L29.9891 5.05714C31.3206 4.83824 32.6791 4.83857 34.0105 5.05814L36.0603 1.72314L36.4251 1.82814C38.1792 2.32971 39.8348 3.12697 41.3206 4.18557L41.6297 4.40578L40.2982 8.09426C41.2976 8.99665 42.1426 10.0566 42.7996 11.232L46.6927 10.7544L46.8382 11.105C47.5398 12.7888 47.9487 14.58 48.0472 16.4014L48.0682 16.7803L44.3475 18.0415C44.2668 19.3837 43.9662 20.7035 43.4578 21.9483L46.2611 24.6973L46.078 25.0298C45.1986 26.6281 44.053 28.0646 42.6903 29.2773L42.4071 29.5298L39.1033 27.4082C38.0033 28.1829 36.7832 28.7712 35.492 29.1494L35.0906 33.0532L34.7166 33.1172C33.8194 33.2715 32.9107 33.3491 32.0003 33.3491V33.3491ZM29.826 32.1909C31.2677 32.4016 32.7324 32.4016 34.1741 32.1909L34.5677 28.3638L34.9022 28.2759C36.3057 27.907 37.6249 27.2709 38.7874 26.4024L39.0648 26.1954L42.3045 28.2754C43.3682 27.2799 44.2814 26.1349 45.0155 24.8765L42.2669 22.1812L42.4066 21.8643C42.9928 20.5376 43.3181 19.1104 43.3646 17.6607L43.3758 17.315L47.0237 16.0786C46.9082 14.6263 46.5822 13.1985 46.056 11.8399L42.2396 12.3081L42.0794 12.0015C41.4062 10.714 40.4922 9.56761 39.387 8.62453L39.1248 8.39993L40.4295 4.78469C39.2221 3.96914 37.9024 3.33358 36.512 2.89797L34.5032 6.16652L34.1634 6.10158C32.7343 5.82474 31.2655 5.82424 29.8362 6.10012L29.4964 6.16502L27.4886 2.89797C26.0982 3.33369 24.7786 3.96924 23.5711 4.78469L24.8738 8.3931L24.6107 8.6177C23.5021 9.56163 22.5854 10.7099 21.9105 12L21.7498 12.3067L17.9446 11.8394C17.4184 13.1981 17.0924 14.6261 16.9769 16.0786L20.6136 17.311L20.6248 17.6567C20.6711 19.1106 20.9974 20.5418 21.5858 21.8721L21.7259 22.1889L18.9852 24.8759C19.7191 26.1346 20.6323 27.2798 21.6961 28.2754L24.9295 26.1992L25.2069 26.4062C26.3716 27.2748 27.6929 27.9106 29.0985 28.2787L29.4335 28.3666L29.826 32.1909Z" fill="#204ECF"/>
</g>
<defs>
<clipPath id="clip0_17_2376">
<rect width="64.0006" height="64" fill="white"/>
</clipPath>
</defs>
</svg>
