<svg width="65" height="64" viewBox="0 0 65 64" fill="none" xmlns="http://www.w3.org/2000/svg">
<g clip-path="url(#clip0_17_2368)">
<path opacity="0.15" d="M32.0312 14.5188C28.4509 14.5189 24.9511 15.5806 21.9743 17.5697C18.9975 19.5588 16.6774 22.3859 15.3073 25.6936C13.9373 29.0013 13.5788 32.641 14.2773 36.1524C14.9758 39.6638 16.6999 42.8893 19.2315 45.4208C21.7631 47.9524 24.9886 49.6764 28.5 50.3749C32.0114 51.0733 35.6511 50.7148 38.9588 49.3447C42.2665 47.9746 45.0936 45.6544 47.0827 42.6776C49.0717 39.7008 50.1334 36.2009 50.1334 32.6207C50.1334 30.2435 49.6651 27.8896 48.7554 25.6933C47.8457 23.4971 46.5123 21.5015 44.8314 19.8206C43.1504 18.1397 41.1548 16.8063 38.9586 15.8966C36.7623 14.9869 34.4084 14.5188 32.0312 14.5188ZM32.0312 44.3908C29.7032 44.3908 27.4276 43.7004 25.492 42.4071C23.5564 41.1137 22.0478 39.2755 21.157 37.1247C20.2662 34.974 20.0331 32.6074 20.4873 30.3242C20.9415 28.041 22.0625 25.9438 23.7086 24.2977C25.3547 22.6516 27.452 21.5307 29.7352 21.0765C32.0184 20.6224 34.385 20.8555 36.5357 21.7464C38.6864 22.6373 40.5246 24.1459 41.8179 26.0815C43.1112 28.0171 43.8015 30.2928 43.8015 32.6207C43.8015 34.1664 43.497 35.697 42.9055 37.125C42.314 38.553 41.447 39.8505 40.354 40.9435C39.261 42.0365 37.9635 42.9034 36.5354 43.4949C35.1074 44.0864 33.5768 44.3908 32.0312 44.3908V44.3908Z" fill="#183A9E"/>
<path d="M31.285 36.0411L27.763 32.5201L28.47 31.8131L31.285 34.6271L35.593 30.3191L36.3 31.0261L31.285 36.0411Z" fill="#204ECF"/>
<path d="M23.561 63.5219L23.1963 63.4174C19.6985 62.4177 16.3971 60.8279 13.4345 58.7167L13.1255 58.4965L15.8085 51.0639C13.6275 49.1481 11.8036 46.8606 10.4218 44.3075L2.57715 45.2699L2.43164 44.9193C1.03287 41.5613 0.217612 37.9892 0.021 34.3568L0 33.9779L7.49756 31.4364C7.63099 28.5403 8.28032 25.6912 9.415 23.0233L3.76465 17.4838L3.94775 17.1513C5.7015 13.9641 7.98605 11.0995 10.7031 8.68055L10.9863 8.42811L17.644 12.704C19.9923 11.0012 22.626 9.73157 25.4209 8.95499L26.229 1.0878L26.603 1.0238C30.1881 0.407104 33.8523 0.407104 37.4374 1.0238L37.8114 1.0878L38.6186 8.94815C41.4176 9.7234 44.0555 10.9929 46.4076 12.6967L53.0542 8.42811L53.3374 8.68104C56.0546 11.0997 58.3391 13.9644 60.0923 17.1518L60.2754 17.4843L54.6416 23.0082C55.7809 25.6831 56.4325 28.5403 56.5654 31.4447L64.04 33.9779L64.019 34.3568C63.8222 37.9891 63.007 41.5612 61.6084 44.9193L61.4628 45.2699L53.6391 44.3099C52.2541 46.8691 50.4247 49.1614 48.2363 51.0794L50.914 58.4964L50.6049 58.7166C47.6427 60.828 44.3414 62.4178 40.8437 63.4173L40.479 63.5219L36.3496 56.8056C33.4862 57.3165 30.5548 57.3152 27.6919 56.8017L23.561 63.5219ZM36.8413 55.6952L40.9321 62.3495C44.0647 61.4126 47.0291 59.9851 49.7148 58.12L47.0615 50.7704L47.3247 50.5458C49.6201 48.5902 51.5185 46.2118 52.9165 43.5399L53.0771 43.2333L60.8286 44.1844C62.0491 41.1509 62.7813 37.9432 62.9981 34.6805L55.5913 32.1703L55.5801 31.8246C55.4842 28.8134 54.8081 25.8491 53.5889 23.0941L53.4482 22.7777L59.0317 17.3031C57.4208 14.4574 55.3694 11.8849 52.9536 9.681L46.3677 13.911L46.0903 13.704C43.6779 11.9043 40.9409 10.5871 38.0293 9.82461L37.6943 9.73672L36.8945 1.94765C33.6654 1.43301 30.3751 1.43301 27.146 1.94765L26.3452 9.74306L26.0107 9.83095C23.1033 10.595 20.3704 11.9125 17.9619 13.7113L17.6841 13.9183L11.0869 9.68104C8.67133 11.885 6.61975 14.4573 5.0083 17.3026L10.6074 22.7924L10.4678 23.1093C9.2532 25.8572 8.57931 28.8134 8.48291 31.8163L8.47168 32.162L1.042 34.6806C1.25885 37.9432 1.99107 41.1509 3.21144 44.1845L10.9839 43.2309L11.1445 43.5375C12.5395 46.2035 14.4323 48.5775 16.7207 50.5311L16.9829 50.7558L14.3247 58.12C17.0105 59.9852 19.9751 61.4127 23.1079 62.3495L27.2012 55.6908L27.5405 55.7567C30.5001 56.3296 33.542 56.3308 36.502 55.7601L36.8413 55.6952Z" fill="#204ECF"/>
<path d="M32.0313 44.8911C29.6044 44.8912 27.2321 44.1716 25.2142 42.8233C23.1964 41.4751 21.6236 39.5588 20.6948 37.3167C19.7661 35.0746 19.5231 32.6075 19.9965 30.2273C20.4699 27.8471 21.6384 25.6607 23.3544 23.9446C25.0704 22.2286 27.2568 21.0599 29.6369 20.5864C32.0171 20.1129 34.4843 20.3559 36.7264 21.2845C38.9685 22.2132 40.8849 23.7859 42.2332 25.8037C43.5815 27.8215 44.3012 30.1938 44.3013 32.6206C44.2976 35.8738 43.0038 38.9926 40.7035 41.293C38.4032 43.5934 35.2844 44.8874 32.0313 44.8911V44.8911ZM32.0313 21.3506C29.8022 21.3505 27.6232 22.0115 25.7697 23.2499C23.9163 24.4882 22.4717 26.2484 21.6187 28.3078C20.7656 30.3672 20.5424 32.6333 20.9773 34.8195C21.4121 37.0057 22.4855 39.0139 24.0617 40.5901C25.6379 42.1663 27.6461 43.2397 29.8323 43.6746C32.0186 44.1094 34.2847 43.8862 36.3441 43.0332C38.4034 42.1801 40.1636 40.7355 41.402 38.8821C42.6404 37.0287 43.3013 34.8497 43.3013 32.6206C43.2979 29.6326 42.1094 26.768 39.9966 24.6552C37.8838 22.5424 35.0192 21.354 32.0313 21.3506V21.3506Z" fill="#204ECF"/>
</g>
<defs>
<clipPath id="clip0_17_2368">
<rect width="64.04" height="64" fill="white"/>
</clipPath>
</defs>
</svg>
