<svg width="64" height="65" viewBox="0 0 64 65" fill="none" xmlns="http://www.w3.org/2000/svg">
<g clip-path="url(#clip0_17_2569)">
<path opacity="0.3" d="M32.0003 24.6893C35.5997 24.6893 38.5176 21.7714 38.5176 18.172C38.5176 14.5727 35.5997 11.6548 32.0003 11.6548C28.4009 11.6548 25.4831 14.5727 25.4831 18.172C25.4831 21.7714 28.4009 24.6893 32.0003 24.6893Z" fill="#231F20"/>
<path opacity="0.3" d="M16.0767 53.8565C19.6761 53.8565 22.594 50.9386 22.594 47.3393C22.594 43.7399 19.6761 40.822 16.0767 40.822C12.4774 40.822 9.55948 43.7399 9.55948 47.3393C9.55948 50.9386 12.4774 53.8565 16.0767 53.8565Z" fill="#231F20"/>
<path opacity="0.3" d="M47.9207 53.5394C51.52 53.5394 54.4379 50.6215 54.4379 47.0221C54.4379 43.4228 51.52 40.5049 47.9207 40.5049C44.3213 40.5049 41.4034 43.4228 41.4034 47.0221C41.4034 50.6215 44.3213 53.5394 47.9207 53.5394Z" fill="#231F20"/>
<path d="M18.8568 63.1582L17.0848 59.6694C15.7399 59.7806 14.3859 59.6701 13.0769 59.3423L10.7635 62.4995L10.408 62.3657C8.70049 61.724 7.11518 60.7953 5.7205 59.6196L5.43 59.3755L7.05646 55.8066C6.13327 54.8263 5.37685 53.7014 4.8172 52.4765L0.898253 52.6372L0.781553 52.2758C0.218828 50.5406 -0.0435669 48.722 0.00567283 46.8984L0.0159328 46.519L3.82647 45.5634C4.01584 44.2323 4.42263 42.9414 5.03058 41.7421L2.4588 38.7749L2.66827 38.4585C3.67405 36.9366 4.93238 35.5977 6.38897 34.4995L6.6922 34.2705L9.8128 36.6528C10.9722 35.9702 12.236 35.4829 13.5535 35.2104L14.2698 31.3521L14.6478 31.3184C16.4647 31.1558 18.296 31.3048 20.0628 31.7588L20.4304 31.853L20.5134 35.7729C21.7717 36.2544 22.9421 36.9397 23.9778 37.8013L27.4368 35.958L27.699 36.2324C28.9586 37.5519 29.9838 39.0765 30.7307 40.7407L30.8865 41.0869L27.8777 43.5928C28.286 44.8783 28.4796 46.2223 28.4505 47.5708L32.0457 49.124L31.9944 49.5005C31.748 51.3078 31.1953 53.06 30.3601 54.6816L30.1863 55.0195L26.3552 54.2299C25.6027 55.3507 24.6716 56.3406 23.5989 57.1601L24.6253 60.9365L24.2991 61.1308C22.7324 62.0654 21.0177 62.7258 19.2288 63.0835L18.8568 63.1582ZM17.6653 58.605L19.4022 62.024C20.8233 61.7027 22.1902 61.1764 23.4598 60.4615L22.4539 56.7598L22.7342 56.5572C23.9154 55.7058 24.9221 54.6355 25.6995 53.4043L25.8846 53.1118L29.6395 53.8858C30.2741 52.5743 30.7147 51.1775 30.9476 49.7393L27.4232 48.2163L27.4398 47.8706C27.5118 46.4178 27.3026 44.9647 26.8235 43.5913L26.7093 43.2641L29.6595 40.8076C29.0298 39.4938 28.2125 38.2784 27.2332 37.1997L23.8421 39.0068L23.5823 38.7783C22.4918 37.8181 21.2264 37.0772 19.8553 36.5962L19.5282 36.4814L19.4471 32.6382C18.0274 32.3107 16.5676 32.1919 15.1136 32.2856L14.411 36.0683L14.0707 36.1289C12.6417 36.3828 11.2752 36.9098 10.0458 37.6811L9.75231 37.8647L6.6922 35.5293C5.55128 36.4353 4.54826 37.5024 3.71466 38.6973L6.23614 41.6065L6.07114 41.9111C5.37913 43.1858 4.93915 44.5819 4.77524 46.023L4.73569 46.3667L1.00034 47.3032C0.997353 48.7603 1.20641 50.2101 1.62095 51.6069L5.46226 51.4492L5.59751 51.7676C6.1642 53.1053 6.9822 54.322 8.00718 55.3516L8.25083 55.5967L6.65659 59.0947C7.79399 60.0051 9.05767 60.7455 10.408 61.2925L12.6756 58.1977L13.0091 58.2905C14.411 58.6826 15.8751 58.8021 17.3221 58.6426L17.6653 58.605Z" fill="white"/>
<path d="M47.9246 63.0938C46.5798 63.0938 45.2403 62.9245 43.9378 62.5898L43.5701 62.4956L43.4871 58.5752C42.2287 58.094 41.0583 57.4087 40.0228 56.5469L36.5638 58.3906L36.3016 58.1162C35.0421 56.7967 34.0168 55.272 33.2698 53.6079L33.1141 53.2617L36.1229 50.7559C35.7145 49.4704 35.521 48.1263 35.5501 46.7779L31.9549 45.2246L32.0062 44.8482C32.2524 43.0406 32.8051 41.2883 33.6404 39.6665L33.8143 39.3291L37.6453 40.1187C38.3975 38.9977 39.3287 38.0078 40.4016 37.1885L39.3753 33.4126L39.7015 33.2183C41.2679 32.283 42.9827 31.6225 44.7718 31.2651L45.1439 31.1904L46.9159 34.6792C48.2607 34.5674 49.6148 34.6779 50.9237 35.0063L53.2372 31.8486L53.5926 31.9824C55.3 32.6246 56.8853 33.5534 58.2801 34.729L58.5706 34.9731L56.9442 38.542C57.8673 39.5223 58.6237 40.647 59.1834 41.8716L63.1024 41.7114L63.2191 42.0728C63.7818 43.808 64.0442 45.6266 63.995 47.4502L63.9847 47.8296L60.1742 48.7852C59.9849 50.1163 59.5781 51.4073 58.97 52.6064L61.5418 55.5737L61.3323 55.8901C60.3264 57.4119 59.0681 58.7508 57.6116 59.8491L57.3089 60.0781L54.1878 57.6959C53.0284 58.3785 51.7647 58.8658 50.4471 59.1382L49.7308 62.9966L49.3528 63.0303C48.8763 63.0728 48.4002 63.0939 47.9246 63.0938ZM44.5535 61.7104C45.9733 62.0377 47.4331 62.1565 48.887 62.063L49.5897 58.2803L49.93 58.2197C51.3589 57.9658 52.7255 57.4388 53.9549 56.6675L54.2484 56.4839L57.3079 58.8193C58.4489 57.9133 59.4521 56.8461 60.2859 55.6513L57.7644 52.7422L57.9294 52.438C58.6212 51.163 59.0612 49.7669 59.2253 48.3257L59.2649 47.9819L63.0002 47.0454C63.0032 45.5883 62.7942 44.1385 62.3796 42.7417L58.5383 42.8989L58.4031 42.5805C57.8364 41.2429 57.0184 40.0265 55.9934 38.997L55.7497 38.7519L57.344 35.2539C56.2065 34.3434 54.9429 33.6029 53.5925 33.0557L51.325 36.1509L50.9915 36.0581C50.2904 35.8626 49.5723 35.7341 48.847 35.6743C48.1248 35.6156 47.3987 35.6263 46.6785 35.706L46.3353 35.7436L44.5984 32.3247C43.1772 32.6457 41.8103 33.172 40.5408 33.8872L41.5467 37.5889L41.2664 37.7915C40.0851 38.6428 39.0784 39.7131 38.3011 40.9443L38.116 41.2369L34.3611 40.4629C33.7263 41.7743 33.2857 43.1711 33.053 44.6093L36.5775 46.1323L36.5609 46.478C36.4888 47.9308 36.698 49.3838 37.1771 50.7573L37.2913 51.0844L34.3411 53.541C34.9709 54.8548 35.7882 56.0701 36.7674 57.1489L40.1585 55.3413L40.4183 55.5698C41.5085 56.5303 42.774 57.2713 44.1453 57.7519L44.4724 57.8667L44.5535 61.7104Z" fill="white"/>
<path d="M32.0003 34.251C31.0898 34.2509 30.1809 34.1733 29.2835 34.0191L28.9095 33.9551L28.5091 30.0547C27.216 29.6769 25.9939 29.0888 24.8919 28.314L21.5936 30.4316L21.3104 30.1792C19.9476 28.9664 18.8019 27.5297 17.9227 25.9312L17.7396 25.5987L20.535 22.8579C20.024 21.6097 19.7223 20.2858 19.6419 18.9395L15.9325 17.6821L15.9535 17.3032C16.0519 15.4817 16.4608 13.6903 17.1625 12.0064L17.308 11.6558L21.1903 12.1323C21.8494 10.9542 22.6972 9.8921 23.7 8.98831L22.3714 5.30764L22.6805 5.08743C24.166 4.02864 25.8215 3.23137 27.5755 2.73L27.9402 2.625L29.9891 5.959C31.3206 5.74009 32.6791 5.74043 34.0105 5.96L36.0603 2.625L36.4251 2.73C38.1792 3.23156 39.8348 4.02882 41.3206 5.08743L41.6297 5.30764L40.2982 8.99612C41.2976 9.8985 42.1426 10.9584 42.7996 12.1338L46.6927 11.6563L46.8382 12.0069C47.5398 13.6906 47.9487 15.4818 48.0472 17.3032L48.0682 17.6821L44.3475 18.9434C44.2668 20.2855 43.9662 21.6053 43.4578 22.8501L46.2611 25.5991L46.078 25.9316C45.1986 27.5299 44.053 28.9664 42.6903 30.1792L42.4071 30.4316L39.1033 28.3101C38.0033 29.0848 36.7832 29.673 35.492 30.0513L35.0906 33.9551L34.7166 34.0191C33.8194 34.1734 32.9107 34.251 32.0003 34.251V34.251ZM29.826 33.0928C31.2677 33.3035 32.7324 33.3035 34.1741 33.0928L34.5677 29.2656L34.9022 29.1778C36.3057 28.8089 37.6249 28.1728 38.7874 27.3042L39.0648 27.0972L42.3045 29.1773C43.3682 28.1818 44.2814 27.0368 45.0155 25.7784L42.2669 23.083L42.4066 22.7661C42.9928 21.4394 43.3181 20.0122 43.3646 18.5625L43.3758 18.2168L47.0237 16.9805C46.9082 15.5281 46.5822 14.1003 46.056 12.7417L42.2396 13.21L42.0794 12.9033C41.4062 11.6158 40.4922 10.4695 39.387 9.52639L39.1248 9.30178L40.4295 5.68655C39.2221 4.87099 37.9024 4.23543 36.512 3.79983L34.5032 7.06838L34.1634 7.00344C32.7343 6.72659 31.2655 6.7261 29.8362 7.00198L29.4964 7.06688L27.4886 3.79983C26.0982 4.23555 24.7786 4.8711 23.5711 5.68655L24.8738 9.29495L24.6107 9.51956C23.5021 10.4635 22.5854 11.6118 21.9105 12.9019L21.7498 13.2085L17.9446 12.7412C17.4184 14.1 17.0924 15.528 16.9769 16.9805L20.6136 18.2129L20.6248 18.5586C20.6711 20.0124 20.9974 21.4437 21.5858 22.7739L21.7259 23.0908L18.9852 25.7778C19.7191 27.0365 20.6323 28.1816 21.6961 29.1772L24.9295 27.101L25.2069 27.308C26.3716 28.1767 27.6929 28.8125 29.0985 29.1806L29.4335 29.2685L29.826 33.0928Z" fill="white"/>
</g>
<defs>
<clipPath id="clip0_17_2569">
<rect width="64.0006" height="64" fill="white" transform="translate(0 0.901855)"/>
</clipPath>
</defs>
</svg>
