<svg width="64" height="65" viewBox="0 0 64 65" fill="none" xmlns="http://www.w3.org/2000/svg">
<g clip-path="url(#clip0_17_2579)">
<path opacity="0.3" d="M63.5001 32.902C63.5 41.2562 60.1812 49.2684 54.2738 55.1757C48.3664 61.0831 40.3543 64.4018 32 64.4017V1.40186C36.1367 1.40185 40.2328 2.21661 44.0546 3.79964C47.8763 5.38267 51.3489 7.70295 54.2739 10.628C57.199 13.5531 59.5193 17.0256 61.1023 20.8474C62.6853 24.6692 63.5001 28.7653 63.5001 32.902V32.902Z" fill="#231F20"/>
<path d="M32.0001 64.9019C25.6711 64.9019 19.4842 63.0251 14.2219 59.5089C8.95949 55.9927 4.85797 50.995 2.43596 45.1477C0.0139568 39.3005 -0.61975 32.8664 0.614977 26.659C1.8497 20.4516 4.89741 14.7497 9.37269 10.2745C13.848 5.79917 19.5498 2.75147 25.7572 1.51674C31.9646 0.282014 38.3987 0.91572 44.246 3.33772C50.0932 5.75973 55.0909 9.86125 58.6071 15.1236C62.1233 20.386 64.0001 26.5729 64.0001 32.9019C63.9906 41.3859 60.6161 49.5197 54.617 55.5188C48.6179 61.5179 40.4841 64.8923 32.0001 64.9019ZM32.0001 1.90187C25.8689 1.90187 19.8754 3.71999 14.7774 7.12631C9.6795 10.5326 5.70616 15.3742 3.35984 21.0387C1.01352 26.7032 0.39962 32.9363 1.59576 38.9497C2.7919 44.9631 5.74437 50.4868 10.0798 54.8222C14.4152 59.1576 19.9389 62.1101 25.9523 63.3062C31.9657 64.5024 38.1988 63.8885 43.8633 61.5421C49.5278 59.1958 54.3693 55.2225 57.7757 50.1245C61.182 45.0266 63.0001 39.0331 63.0001 32.9019C62.9907 24.683 59.7217 16.8035 53.9101 10.9919C48.0985 5.1803 40.2189 1.91123 32.0001 1.90187V1.90187Z" fill="white"/>
<path d="M32.0001 64.9019C22.3209 64.9019 14.4459 50.5469 14.4459 32.9019C14.4459 15.2569 22.3209 0.901855 32.0001 0.901855C41.6793 0.901855 49.5543 15.2569 49.5543 32.9019C49.5543 50.5469 41.6793 64.9019 32.0001 64.9019ZM32.0001 1.90186C22.8722 1.90186 15.4459 15.8086 15.4459 32.9019C15.4459 49.9951 22.8722 63.9019 32.0001 63.9019C41.128 63.9019 48.5543 49.9951 48.5543 32.9019C48.5543 15.8086 41.128 1.90186 32.0001 1.90186Z" fill="white"/>
<path d="M32.5001 1.40186H31.5001V64.4019H32.5001V1.40186Z" fill="white"/>
<path d="M63.5001 32.4019H0.500092V33.4019H63.5001V32.4019Z" fill="white"/>
<path d="M58.422 15.2456H5.57773V16.2456H58.422V15.2456Z" fill="white"/>
<path d="M58.422 49.5581H5.57724V50.5581H58.422V49.5581Z" fill="white"/>
</g>
<defs>
<clipPath id="clip0_17_2579">
<rect width="64.0001" height="64.0001" fill="white" transform="translate(0 0.901855)"/>
</clipPath>
</defs>
</svg>
