<svg width="64" height="64" viewBox="0 0 64 64" fill="none" xmlns="http://www.w3.org/2000/svg">
<g clip-path="url(#clip0_17_2386)">
<path opacity="0.15" d="M63.5001 32.0001C63.5 40.3544 60.1812 48.3665 54.2738 54.2739C48.3664 60.1812 40.3543 63.4999 32 63.4999V0.5C36.1367 0.499991 40.2328 1.31476 44.0546 2.89778C47.8763 4.48081 51.3489 6.80109 54.2739 9.72615C57.199 12.6512 59.5193 16.1238 61.1023 19.9455C62.6853 23.7673 63.5001 27.8634 63.5001 32.0001V32.0001Z" fill="#183A9E"/>
<path d="M32.0001 64C25.6711 64 19.4842 62.1232 14.2219 58.607C8.95949 55.0908 4.85797 50.0931 2.43596 44.2459C0.0139568 38.3986 -0.61975 31.9645 0.614977 25.7571C1.8497 19.5497 4.89741 13.8479 9.37269 9.3726C13.848 4.89732 19.5498 1.84961 25.7572 0.614885C31.9646 -0.619842 38.3987 0.013865 44.246 2.43587C50.0932 4.85787 55.0909 8.95939 58.6071 14.2218C62.1233 19.4841 64.0001 25.671 64.0001 32C63.9906 40.484 60.6161 48.6178 54.617 54.6169C48.6179 60.616 40.4841 63.9905 32.0001 64ZM32.0001 1.00001C25.8689 1.00001 19.8754 2.81813 14.7774 6.22446C9.6795 9.63078 5.70616 14.4723 3.35984 20.1368C1.01352 25.8013 0.39962 32.0344 1.59576 38.0478C2.7919 44.0612 5.74437 49.5849 10.0798 53.9203C14.4152 58.2558 19.9389 61.2082 25.9523 62.4044C31.9657 63.6005 38.1988 62.9866 43.8633 60.6403C49.5278 58.294 54.3693 54.3206 57.7757 49.2227C61.182 44.1248 63.0001 38.1312 63.0001 32C62.9907 23.7812 59.7217 15.9016 53.9101 10.09C48.0985 4.27844 40.2189 1.00937 32.0001 1.00001V1.00001Z" fill="#204ECF"/>
<path d="M32.0001 64C22.3209 64 14.4459 49.645 14.4459 32C14.4459 14.355 22.3209 0 32.0001 0C41.6793 0 49.5543 14.355 49.5543 32C49.5543 49.645 41.6793 64 32.0001 64ZM32.0001 1C22.8722 1 15.4459 14.9067 15.4459 32C15.4459 49.0933 22.8722 63 32.0001 63C41.128 63 48.5543 49.0933 48.5543 32C48.5543 14.9067 41.128 1 32.0001 1Z" fill="#204ECF"/>
<path d="M32.5001 0.5H31.5001V63.5H32.5001V0.5Z" fill="#204ECF"/>
<path d="M63.5001 31.5H0.500092V32.5H63.5001V31.5Z" fill="#204ECF"/>
<path d="M58.422 14.3438H5.57773V15.3438H58.422V14.3438Z" fill="#204ECF"/>
<path d="M58.422 48.6562H5.57724V49.6562H58.422V48.6562Z" fill="#204ECF"/>
</g>
<defs>
<clipPath id="clip0_17_2386">
<rect width="64.0001" height="64.0001" fill="white"/>
</clipPath>
</defs>
</svg>
