<svg width="64" height="64" viewBox="0 0 64 64" fill="none" xmlns="http://www.w3.org/2000/svg">
<g clip-path="url(#clip0_17_2397)">
<path opacity="0.15" d="M23.4539 23.2881C22.3796 24.8462 21.7517 26.6685 21.6382 28.5577C21.5247 30.4469 21.9298 32.3312 22.8098 34.0068C23.6898 35.6824 25.0111 37.0855 26.6309 38.0644C28.2507 39.0433 30.1073 39.5608 31.9999 39.5608C33.8926 39.5608 35.7492 39.0433 37.369 38.0644C38.9887 37.0855 40.3101 35.6824 41.1901 34.0068C42.0701 32.3312 42.4752 30.4469 42.3617 28.5577C42.2482 26.6685 41.6203 24.8462 40.546 23.2881H23.4539Z" fill="#183A9E"/>
<path opacity="0.15" d="M31.9997 39.5547C28.4277 39.5555 24.9153 40.4709 21.7971 42.2135C18.6789 43.9562 16.0588 46.4681 14.1863 49.51C16.5104 51.8763 19.2827 53.7559 22.3412 55.0389C25.3998 56.3219 28.6833 56.9827 32 56.9827C35.3168 56.9827 38.6003 56.3219 41.6588 55.0389C44.7173 53.7559 47.4896 51.8763 49.8137 49.51C47.9411 46.468 45.3209 43.9561 42.2026 42.2135C39.0844 40.4708 35.5719 39.5555 31.9997 39.5547Z" fill="#183A9E"/>
<path d="M32 64C25.671 64 19.4841 62.1232 14.2218 58.607C8.95939 55.0908 4.85787 50.0931 2.43587 44.2459C0.013865 38.3986 -0.619842 31.9645 0.614885 25.7571C1.84961 19.5497 4.89732 13.8479 9.3726 9.3726C13.8479 4.89732 19.5497 1.84961 25.7571 0.614885C31.9645 -0.619842 38.3986 0.013865 44.2459 2.43587C50.0931 4.85787 55.0908 8.95939 58.607 14.2218C62.1232 19.4841 64 25.671 64 32C63.9905 40.484 60.616 48.6178 54.6169 54.6169C48.6178 60.616 40.484 63.9905 32 64ZM32 1.00001C25.8688 1.00001 19.8753 2.81813 14.7773 6.22446C9.67941 9.63078 5.70607 14.4723 3.35975 20.1368C1.01343 25.8013 0.399529 32.0344 1.59567 38.0478C2.79181 44.0612 5.74428 49.5849 10.0797 53.9203C14.4151 58.2558 19.9388 61.2082 25.9522 62.4044C31.9656 63.6005 38.1987 62.9866 43.8632 60.6403C49.5277 58.294 54.3693 54.3206 57.7756 49.2227C61.1819 44.1248 63 38.1312 63 32C62.9907 23.7812 59.7216 15.9016 53.91 10.09C48.0984 4.27844 40.2189 1.00937 32 1.00001V1.00001Z" fill="#204ECF"/>
<path d="M32 40.0542C30.0258 40.054 28.0888 39.5168 26.3966 38.5C24.7044 37.4832 23.3207 36.0252 22.3937 34.2821C21.4667 32.5391 21.0314 30.5767 21.1345 28.6051C21.2375 26.6336 21.8749 24.7273 22.9785 23.0903L23.8066 23.6499C22.8024 25.1398 22.2235 26.8752 22.1321 28.6696C22.0407 30.464 22.4403 32.2493 23.2879 33.8335C24.1355 35.4177 25.399 36.7407 26.9425 37.6604C28.486 38.58 30.251 39.0614 32.0477 39.0527C33.8444 39.044 35.6046 38.5455 37.1392 37.611C38.6737 36.6765 39.9243 35.3412 40.7565 33.7489C41.5887 32.1565 41.971 30.3674 41.8622 28.574C41.7535 26.7806 41.1577 25.0509 40.1392 23.5708L40.9624 23.0034C42.0868 24.637 42.7433 26.5468 42.8611 28.5264C42.979 30.506 42.5535 32.4802 41.6308 34.2356C40.7081 35.991 39.3233 37.4609 37.6259 38.4864C35.9285 39.5119 33.9831 40.054 32 40.0542V40.0542Z" fill="#204ECF"/>
<path d="M49.4072 49.7593C47.5732 46.7922 45.0113 44.3432 41.9647 42.6447C38.9181 40.9463 35.4879 40.0547 31.9998 40.0547C28.5117 40.0547 25.0815 40.9463 22.0348 42.6447C18.9882 44.3432 16.4263 46.7922 14.5923 49.7593L13.7417 49.2329C15.6654 46.121 18.3526 43.5525 21.548 41.7711C24.7435 39.9898 28.3413 39.0547 31.9998 39.0547C35.6582 39.0547 39.256 39.9898 42.4515 41.7711C45.6469 43.5525 48.3341 46.121 50.2578 49.2329L49.4072 49.7593Z" fill="#204ECF"/>
<path d="M41.05 23.788H22.95V14.28H23.95V22.788H40.05V14.28H41.05V23.788Z" fill="#204ECF"/>
<path d="M32 17.6094L16.5425 12.5415L32 7.47363L47.4575 12.5415L32 17.6094ZM19.7524 12.5415L32 16.5566L44.2476 12.5415L32 8.52637L19.7524 12.5415Z" fill="#204ECF"/>
</g>
<defs>
<clipPath id="clip0_17_2397">
<rect width="64.0001" height="64" fill="white"/>
</clipPath>
</defs>
</svg>
