<svg width="64" height="65" viewBox="0 0 64 64" fill="none" xmlns="http://www.w3.org/2000/svg">
<g clip-path="url(#clip0_17_2590)">
<path opacity="0.3" d="M23.4539 24.1899C22.3796 25.7481 21.7517 27.5703 21.6382 29.4595C21.5247 31.3487 21.9298 33.233 22.8098 34.9086C23.6898 36.5842 25.0111 37.9874 26.6309 38.9663C28.2507 39.9452 30.1073 40.4626 31.9999 40.4626C33.8926 40.4626 35.7492 39.9452 37.369 38.9663C38.9887 37.9874 40.3101 36.5842 41.1901 34.9086C42.0701 33.233 42.4752 31.3487 42.3617 29.4595C42.2482 27.5703 41.6203 25.7481 40.546 24.1899H23.4539Z" fill="#231F20"/>
<path opacity="0.3" d="M31.9997 40.4565C28.4277 40.4574 24.9153 41.3727 21.7971 43.1154C18.6789 44.858 16.0588 47.3699 14.1863 50.4119C16.5104 52.7782 19.2827 54.6577 22.3412 55.9408C25.3998 57.2238 28.6833 57.8846 32 57.8846C35.3168 57.8846 38.6003 57.2238 41.6588 55.9408C44.7173 54.6577 47.4896 52.7782 49.8137 50.4119C47.9411 47.3699 45.3209 44.858 42.2026 43.1153C39.0844 41.3727 35.5719 40.4574 31.9997 40.4565Z" fill="#231F20"/>
<path d="M32 64.9019C25.671 64.9019 19.4841 63.0251 14.2218 59.5089C8.95939 55.9927 4.85787 50.995 2.43587 45.1477C0.013865 39.3005 -0.619842 32.8664 0.614885 26.659C1.84961 20.4516 4.89732 14.7497 9.3726 10.2745C13.8479 5.79917 19.5497 2.75147 25.7571 1.51674C31.9645 0.282014 38.3986 0.91572 44.2459 3.33772C50.0931 5.75973 55.0908 9.86125 58.607 15.1236C62.1232 20.386 64 26.5729 64 32.9019C63.9905 41.3859 60.616 49.5197 54.6169 55.5188C48.6178 61.5179 40.484 64.8923 32 64.9019ZM32 1.90187C25.8688 1.90187 19.8753 3.71999 14.7773 7.12631C9.67941 10.5326 5.70607 15.3742 3.35975 21.0387C1.01343 26.7032 0.399529 32.9363 1.59567 38.9497C2.79181 44.9631 5.74428 50.4868 10.0797 54.8222C14.4151 59.1576 19.9388 62.1101 25.9522 63.3062C31.9656 64.5024 38.1987 63.8885 43.8632 61.5421C49.5277 59.1958 54.3693 55.2225 57.7756 50.1245C61.1819 45.0266 63 39.0331 63 32.9019C62.9907 24.683 59.7216 16.8035 53.91 10.9919C48.0984 5.1803 40.2189 1.91123 32 1.90187V1.90187Z" fill="white"/>
<path d="M32 40.9561C30.0258 40.9559 28.0888 40.4186 26.3966 39.4018C24.7044 38.385 23.3207 36.927 22.3937 35.184C21.4667 33.4409 21.0314 31.4785 21.1345 29.507C21.2375 27.5355 21.8749 25.6291 22.9785 23.9922L23.8066 24.5518C22.8024 26.0416 22.2235 27.7771 22.1321 29.5714C22.0407 31.3658 22.4403 33.1511 23.2879 34.7353C24.1355 36.3195 25.399 37.6426 26.9425 38.5622C28.486 39.4819 30.251 39.9632 32.0477 39.9545C33.8444 39.9458 35.6046 39.4474 37.1392 38.5128C38.6737 37.5783 39.9243 36.243 40.7565 34.6507C41.5887 33.0584 41.971 31.2693 41.8622 29.4759C41.7535 27.6825 41.1577 25.9527 40.1392 24.4727L40.9624 23.9053C42.0868 25.5389 42.7433 27.4486 42.8611 29.4283C42.979 31.4079 42.5535 33.3821 41.6308 35.1375C40.7081 36.8929 39.3233 38.3627 37.6259 39.3882C35.9285 40.4137 33.9831 40.9559 32 40.9561V40.9561Z" fill="white"/>
<path d="M49.4072 50.6611C47.5732 47.6941 45.0113 45.2451 41.9647 43.5466C38.9181 41.8481 35.4879 40.9565 31.9998 40.9565C28.5117 40.9565 25.0815 41.8481 22.0348 43.5466C18.9882 45.2451 16.4263 47.6941 14.5923 50.6611L13.7417 50.1348C15.6654 47.0229 18.3526 44.4543 21.548 42.673C24.7435 40.8916 28.3413 39.9565 31.9998 39.9565C35.6582 39.9565 39.256 40.8916 42.4515 42.673C45.6469 44.4543 48.3341 47.0229 50.2578 50.1348L49.4072 50.6611Z" fill="white"/>
<path d="M41.05 24.6899H22.95V15.1819H23.95V23.6899H40.05V15.1819H41.05V24.6899Z" fill="white"/>
<path d="M32 18.5112L16.5425 13.4434L32 8.37549L47.4575 13.4434L32 18.5112ZM19.7524 13.4434L32 17.4585L44.2476 13.4434L32 9.42823L19.7524 13.4434Z" fill="white"/>
</g>
<defs>
<clipPath id="clip0_17_2590">
<rect width="64.0001" height="64" fill="white" transform="translate(0 0.901855)"/>
</clipPath>
</defs>
</svg>
