<svg width="64" height="65" viewBox="0 0 64 64" fill="none" xmlns="http://www.w3.org/2000/svg">
<g clip-path="url(#clip0_17_2601)">
<path opacity="0.3" d="M9.77309 10.5873C12.3096 10.5873 14.3658 8.53108 14.3658 5.99459C14.3658 3.45809 12.3096 1.40186 9.77309 1.40186C7.23659 1.40186 5.18036 3.45809 5.18036 5.99459C5.18036 8.53108 7.23659 10.5873 9.77309 10.5873Z" fill="#231F20"/>
<path opacity="0.3" d="M9.77298 10.5874C7.31364 10.5874 4.95504 11.5644 3.21603 13.3034C1.47702 15.0425 0.500061 17.4011 0.500061 19.8604H19.0461C19.0461 18.6426 18.8062 17.4368 18.3402 16.3118C17.8742 15.1867 17.1911 14.1645 16.33 13.3034C15.4689 12.4423 14.4467 11.7593 13.3216 11.2932C12.1966 10.8272 10.9907 10.5874 9.77298 10.5874V10.5874Z" fill="#231F20"/>
<path opacity="0.3" d="M54.2271 55.1288C56.7636 55.1288 58.8199 53.0726 58.8199 50.5361C58.8199 47.9996 56.7636 45.9434 54.2271 45.9434C51.6906 45.9434 49.6344 47.9996 49.6344 50.5361C49.6344 53.0726 51.6906 55.1288 54.2271 55.1288Z" fill="#231F20"/>
<path opacity="0.3" d="M54.2264 55.1292C56.6857 55.1292 59.0443 56.1062 60.7833 57.8452C62.5223 59.5842 63.4993 61.9428 63.4993 64.4021H44.9533C44.9533 63.1844 45.1932 61.9786 45.6592 60.8535C46.1252 59.7285 46.8082 58.7062 47.6693 57.8451C48.5304 56.984 49.5527 56.301 50.6777 55.835C51.8028 55.369 53.0086 55.1291 54.2264 55.1292V55.1292Z" fill="#231F20"/>
<path opacity="0.3" d="M18.808 24.8118V36.0988V40.9638L23.673 36.0988H28.268V30.9988H35.732V24.8118H18.808Z" fill="#231F20"/>
<path d="M54.2271 11.0874C53.2199 11.0874 52.2352 10.7887 51.3977 10.2291C50.5602 9.66953 49.9075 8.87415 49.522 7.94357C49.1365 7.01298 49.0357 5.989 49.2322 5.00109C49.4287 4.01319 49.9137 3.10574 50.626 2.3935C51.3382 1.68126 52.2457 1.19622 53.2336 0.999715C54.2215 0.803208 55.2455 0.904061 56.176 1.28952C57.1066 1.67498 57.902 2.32774 58.4616 3.16524C59.0212 4.00274 59.3199 4.98738 59.3199 5.99464C59.3184 7.34485 58.7813 8.63932 57.8266 9.59407C56.8718 10.5488 55.5773 11.0859 54.2271 11.0874V11.0874ZM54.2271 1.90187C53.4177 1.90187 52.6264 2.1419 51.9533 2.59162C51.2802 3.04134 50.7557 3.68055 50.4459 4.4284C50.1361 5.17626 50.0551 5.99918 50.213 6.79311C50.3709 7.58703 50.7607 8.31629 51.3331 8.88868C51.9055 9.46107 52.6347 9.85087 53.4287 10.0088C54.2226 10.1667 55.0455 10.0857 55.7934 9.77588C56.5412 9.46611 57.1804 8.94152 57.6301 8.26847C58.0799 7.59541 58.3199 6.80411 58.3199 5.99464C58.3187 4.90954 57.8871 3.86922 57.1198 3.10194C56.3525 2.33466 55.3122 1.90307 54.2271 1.90187V1.90187Z" fill="white"/>
<path d="M64.0001 19.8604H63.0001C63.004 18.7058 62.78 17.5619 62.3408 16.494C61.9017 15.4262 61.2561 14.4556 60.4411 13.6378C59.626 12.82 58.6576 12.1712 57.5913 11.7284C56.525 11.2857 55.3817 11.0578 54.2272 11.0578C53.0726 11.0578 51.9294 11.2857 50.863 11.7284C49.7967 12.1712 48.8283 12.82 48.0133 13.6378C47.1982 14.4556 46.5526 15.4262 46.1135 16.494C45.6744 17.5619 45.4503 18.7058 45.4542 19.8604H44.4542C44.4501 18.5744 44.6998 17.3002 45.1891 16.1109C45.6784 14.9215 46.3977 13.8405 47.3056 12.9297C48.2135 12.0188 49.2922 11.2962 50.48 10.8031C51.6677 10.31 52.9411 10.0562 54.2272 10.0562C55.5132 10.0562 56.7866 10.31 57.9743 10.8031C59.1621 11.2962 60.2409 12.0188 61.1488 12.9297C62.0567 13.8405 62.7759 14.9215 63.2652 16.1109C63.7545 17.3002 64.0042 18.5744 64.0001 19.8604V19.8604Z" fill="white"/>
<path d="M9.77302 11.0874C8.76576 11.0874 7.78113 10.7887 6.94362 10.2291C6.10612 9.66953 5.45336 8.87414 5.0679 7.94356C4.68244 7.01298 4.58159 5.98899 4.7781 5.00109C4.9746 4.01318 5.45964 3.10574 6.17188 2.3935C6.88412 1.68126 7.79156 1.19622 8.77947 0.999714C9.76737 0.803208 10.7914 0.904062 11.7219 1.28952C12.6525 1.67498 13.4479 2.32774 14.0075 3.16524C14.5671 4.00274 14.8658 4.98738 14.8658 5.99464C14.8643 7.34485 14.3272 8.63932 13.3725 9.59407C12.4177 10.5488 11.1232 11.0859 9.77302 11.0874ZM9.77302 1.90187C8.96354 1.90187 8.17225 2.14191 7.49919 2.59163C6.82614 3.04135 6.30156 3.68055 5.99178 4.42841C5.68201 5.17627 5.60096 5.99919 5.75888 6.79311C5.9168 7.58704 6.3066 8.3163 6.87899 8.88868C7.45138 9.46107 8.18064 9.85087 8.97456 10.0088C9.76849 10.1667 10.5914 10.0857 11.3393 9.77588C12.0871 9.46611 12.7263 8.94152 13.176 8.26847C13.6258 7.59541 13.8658 6.80411 13.8658 5.99464C13.8646 4.90954 13.433 3.86922 12.6657 3.10194C11.8984 2.33466 10.8581 1.90307 9.77302 1.90187V1.90187Z" fill="white"/>
<path d="M19.546 19.8605H18.546C18.5472 18.7076 18.3212 17.5658 17.8809 16.5003C17.4406 15.4349 16.7946 14.4666 15.9798 13.651C15.165 12.8354 14.1975 12.1883 13.1325 11.7469C12.0675 11.3054 10.9259 11.0782 9.77307 11.0782C8.6202 11.0782 7.47864 11.3054 6.41365 11.7469C5.34865 12.1883 4.38111 12.8354 3.56635 13.651C2.75158 14.4666 2.10557 15.4349 1.66524 16.5003C1.22491 17.5658 0.998896 18.7076 1.00013 19.8605H0.000127071C-0.001172 18.5762 0.250654 17.3043 0.741209 16.1175C1.23176 14.9306 1.95143 13.8521 2.85906 12.9436C3.76669 12.035 4.84449 11.3143 6.03084 10.8225C7.2172 10.3307 8.48884 10.0776 9.77307 10.0776C11.0573 10.0776 12.3289 10.3307 13.5153 10.8225C14.7017 11.3143 15.7795 12.035 16.6871 12.9436C17.5947 13.8521 18.3144 14.9306 18.8049 16.1175C19.2955 17.3043 19.5473 18.5762 19.546 19.8605V19.8605Z" fill="white"/>
<path d="M9.77302 55.6289C8.76576 55.6289 7.78112 55.3302 6.94362 54.7706C6.10612 54.211 5.45336 53.4156 5.0679 52.4851C4.68244 51.5545 4.58159 50.5305 4.7781 49.5426C4.9746 48.5547 5.45964 47.6472 6.17188 46.935C6.88412 46.2228 7.79157 45.7377 8.77947 45.5412C9.76738 45.3447 10.7914 45.4456 11.7219 45.831C12.6525 46.2165 13.4479 46.8693 14.0075 47.7068C14.5671 48.5443 14.8658 49.5289 14.8658 50.5362C14.8643 51.8864 14.3272 53.1808 13.3724 54.1356C12.4177 55.0903 11.1232 55.6274 9.77302 55.6289V55.6289ZM9.77302 46.4434C8.96354 46.4434 8.17225 46.6834 7.49919 47.1331C6.82614 47.5829 6.30156 48.2221 5.99178 48.9699C5.68201 49.7178 5.60096 50.5407 5.75888 51.3346C5.9168 52.1285 6.3066 52.8578 6.87899 53.4302C7.45137 54.0026 8.18064 54.3924 8.97456 54.5503C9.76848 54.7082 10.5914 54.6272 11.3393 54.3174C12.0871 54.0076 12.7263 53.483 13.176 52.81C13.6258 52.1369 13.8658 51.3456 13.8658 50.5362C13.8646 49.4511 13.433 48.4107 12.6657 47.6434C11.8984 46.8762 10.8581 46.4446 9.77302 46.4434V46.4434Z" fill="white"/>
<path d="M19.546 64.402H18.546C18.5472 63.2491 18.3212 62.1073 17.8809 61.0418C17.4406 59.9764 16.7946 59.0081 15.9798 58.1925C15.165 57.3769 14.1975 56.7298 13.1325 56.2884C12.0675 55.8469 10.9259 55.6197 9.77307 55.6197C8.6202 55.6197 7.47864 55.8469 6.41365 56.2884C5.34865 56.7298 4.38111 57.3769 3.56635 58.1925C2.75158 59.0081 2.10557 59.9764 1.66524 61.0418C1.22491 62.1073 0.998896 63.2491 1.00013 64.402H0.000127071C-0.001172 63.1177 0.250654 61.8458 0.741209 60.659C1.23176 59.4721 1.95143 58.3936 2.85906 57.4851C3.76669 56.5765 4.84449 55.8558 6.03084 55.364C7.2172 54.8723 8.48884 54.6191 9.77307 54.6191C11.0573 54.6191 12.3289 54.8723 13.5153 55.364C14.7017 55.8558 15.7795 56.5765 16.6871 57.4851C17.5947 58.3936 18.3144 59.4721 18.8049 60.659C19.2955 61.8458 19.5473 63.1177 19.546 64.402V64.402Z" fill="white"/>
<path d="M54.2271 55.6289C53.2199 55.6289 52.2352 55.3302 51.3977 54.7706C50.5602 54.211 49.9075 53.4157 49.522 52.4851C49.1365 51.5545 49.0357 50.5305 49.2322 49.5426C49.4287 48.5547 49.9137 47.6472 50.626 46.935C51.3382 46.2228 52.2457 45.7377 53.2336 45.5412C54.2215 45.3447 55.2455 45.4456 56.176 45.831C57.1066 46.2165 57.902 46.8692 58.4616 47.7067C59.0212 48.5443 59.3199 49.5289 59.3199 50.5362C59.3184 51.8864 58.7813 53.1808 57.8266 54.1356C56.8718 55.0903 55.5773 55.6274 54.2271 55.6289V55.6289ZM54.2271 46.4434C53.4177 46.4434 52.6264 46.6834 51.9533 47.1331C51.2802 47.5828 50.7557 48.222 50.4459 48.9699C50.1361 49.7178 50.0551 50.5407 50.213 51.3346C50.3709 52.1285 50.7607 52.8578 51.3331 53.4302C51.9055 54.0026 52.6347 54.3924 53.4287 54.5503C54.2226 54.7082 55.0455 54.6272 55.7934 54.3174C56.5412 54.0076 57.1804 53.483 57.6301 52.81C58.0799 52.1369 58.3199 51.3456 58.3199 50.5362C58.3187 49.451 57.8871 48.4107 57.1198 47.6434C56.3525 46.8762 55.3122 46.4446 54.2271 46.4434V46.4434Z" fill="white"/>
<path d="M64.0001 64.4019H63.0001C63.004 63.2473 62.78 62.1034 62.3408 61.0355C61.9017 59.9677 61.2561 58.9971 60.4411 58.1793C59.626 57.3615 58.6576 56.7127 57.5913 56.2699C56.525 55.8272 55.3817 55.5993 54.2272 55.5993C53.0726 55.5993 51.9294 55.8272 50.863 56.2699C49.7967 56.7127 48.8283 57.3615 48.0133 58.1793C47.1982 58.9971 46.5526 59.9677 46.1135 61.0355C45.6744 62.1034 45.4503 63.2473 45.4542 64.4019H44.4542C44.4501 63.1159 44.6998 61.8417 45.1891 60.6524C45.6784 59.463 46.3977 58.382 47.3056 57.4712C48.2135 56.5603 49.2922 55.8377 50.48 55.3446C51.6677 54.8515 52.9411 54.5977 54.2272 54.5977C55.5132 54.5977 56.7866 54.8515 57.9743 55.3446C59.1621 55.8377 60.2409 56.5603 61.1488 57.4712C62.0567 58.382 62.7759 59.463 63.2652 60.6524C63.7545 61.8417 64.0042 63.1159 64.0001 64.4019V64.4019Z" fill="white"/>
<path d="M45.6925 47.271L40.1202 41.6992H27.7682V30.4985H45.6925V47.271ZM28.7681 40.6992H40.5343L44.6925 44.8569V31.4985H28.7681V40.6992Z" fill="white"/>
<path d="M18.308 42.1708V24.3118H36.232V30.9988H35.232V25.3118H19.308V39.7568L23.466 35.5988H28.268V36.5988H23.88L18.308 42.1708Z" fill="white"/>
</g>
<defs>
<clipPath id="clip0_17_2601">
<rect width="64.0001" height="64.0001" fill="white" transform="translate(0 0.901855)"/>
</clipPath>
</defs>
</svg>
