<svg width="64" height="64" viewBox="0 0 64 64" fill="none" xmlns="http://www.w3.org/2000/svg">
<g clip-path="url(#clip0_17_2408)">
<path opacity="0.15" d="M9.77309 9.68546C12.3096 9.68546 14.3658 7.62922 14.3658 5.09273C14.3658 2.55624 12.3096 0.5 9.77309 0.5C7.23659 0.5 5.18036 2.55624 5.18036 5.09273C5.18036 7.62922 7.23659 9.68546 9.77309 9.68546Z" fill="#183A9E"/>
<path opacity="0.15" d="M9.77298 9.68555C7.31364 9.68557 4.95504 10.6626 3.21603 12.4016C1.47702 14.1406 0.500061 16.4992 0.500061 18.9585H19.0461C19.0461 17.7408 18.8062 16.535 18.3402 15.4099C17.8742 14.2848 17.1911 13.2626 16.33 12.4015C15.4689 11.5404 14.4467 10.8574 13.3216 10.3914C12.1966 9.92538 10.9907 9.68554 9.77298 9.68555V9.68555Z" fill="#183A9E"/>
<path opacity="0.15" d="M54.2271 54.227C56.7636 54.227 58.8199 52.1707 58.8199 49.6342C58.8199 47.0977 56.7636 45.0415 54.2271 45.0415C51.6906 45.0415 49.6344 47.0977 49.6344 49.6342C49.6344 52.1707 51.6906 54.227 54.2271 54.227Z" fill="#183A9E"/>
<path opacity="0.15" d="M54.2264 54.2273C56.6857 54.2273 59.0443 55.2043 60.7833 56.9433C62.5223 58.6823 63.4993 61.041 63.4993 63.5003H44.9533C44.9533 62.2825 45.1932 61.0767 45.6592 59.9517C46.1252 58.8266 46.8082 57.8043 47.6693 56.9433C48.5304 56.0822 49.5527 55.3991 50.6777 54.9331C51.8028 54.4671 53.0086 54.2273 54.2264 54.2273V54.2273Z" fill="#183A9E"/>
<path opacity="0.15" d="M18.808 23.9099V35.1969V40.0619L23.673 35.1969H28.268V30.0969H35.732V23.9099H18.808Z" fill="#183A9E"/>
<path d="M54.2271 10.1856C53.2199 10.1856 52.2352 9.88688 51.3977 9.32728C50.5602 8.76768 49.9075 7.9723 49.522 7.04171C49.1365 6.11113 49.0357 5.08714 49.2322 4.09924C49.4287 3.11133 49.9137 2.20389 50.626 1.49165C51.3382 0.779407 52.2457 0.294366 53.2336 0.0978594C54.2215 -0.0986475 55.2455 0.00220597 56.176 0.387666C57.1066 0.773126 57.902 1.42588 58.4616 2.26338C59.0212 3.10089 59.3199 4.08553 59.3199 5.09278C59.3184 6.443 58.7813 7.73746 57.8266 8.69221C56.8718 9.64696 55.5773 10.184 54.2271 10.1856V10.1856ZM54.2271 1.00001C53.4177 1.00001 52.6264 1.24005 51.9533 1.68977C51.2802 2.13949 50.7557 2.77869 50.4459 3.52655C50.1361 4.27441 50.0551 5.09733 50.213 5.89125C50.3709 6.68517 50.7607 7.41444 51.3331 7.98682C51.9055 8.55921 52.6347 8.94901 53.4287 9.10693C54.2226 9.26485 55.0455 9.1838 55.7934 8.87403C56.5412 8.56425 57.1804 8.03967 57.6301 7.36661C58.0799 6.69356 58.3199 5.90226 58.3199 5.09278C58.3187 4.00768 57.8871 2.96737 57.1198 2.20009C56.3525 1.4328 55.3122 1.00122 54.2271 1.00001V1.00001Z" fill="#204ECF"/>
<path d="M64.0001 18.9586H63.0001C63.004 17.804 62.78 16.66 62.3408 15.5922C61.9017 14.5244 61.2561 13.5538 60.4411 12.736C59.626 11.9182 58.6576 11.2693 57.5913 10.8266C56.525 10.3838 55.3817 10.1559 54.2272 10.1559C53.0726 10.1559 51.9294 10.3838 50.863 10.8266C49.7967 11.2693 48.8283 11.9182 48.0133 12.736C47.1982 13.5538 46.5526 14.5244 46.1135 15.5922C45.6744 16.66 45.4503 17.804 45.4542 18.9586H44.4542C44.4501 17.6725 44.6998 16.3983 45.1891 15.209C45.6784 14.0197 46.3977 12.9386 47.3056 12.0278C48.2135 11.117 49.2922 10.3943 50.48 9.90122C51.6677 9.40812 52.9411 9.1543 54.2272 9.1543C55.5132 9.1543 56.7866 9.40812 57.9743 9.90122C59.1621 10.3943 60.2409 11.117 61.1488 12.0278C62.0567 12.9386 62.7759 14.0197 63.2652 15.209C63.7545 16.3983 64.0042 17.6725 64.0001 18.9586V18.9586Z" fill="#204ECF"/>
<path d="M9.77302 10.1856C8.76576 10.1856 7.78113 9.88688 6.94362 9.32727C6.10612 8.76767 5.45336 7.97229 5.0679 7.04171C4.68244 6.11112 4.58159 5.08713 4.7781 4.09923C4.9746 3.11133 5.45964 2.20388 6.17188 1.49164C6.88412 0.779405 7.79156 0.294365 8.77947 0.0978586C9.76737 -0.0986474 10.7914 0.00220662 11.7219 0.387667C12.6525 0.773128 13.4479 1.42588 14.0075 2.26339C14.5671 3.10089 14.8658 4.08553 14.8658 5.09278C14.8643 6.443 14.3272 7.73747 13.3725 8.69221C12.4177 9.64696 11.1232 10.184 9.77302 10.1856ZM9.77302 1.00001C8.96354 1.00001 8.17225 1.24005 7.49919 1.68977C6.82614 2.13949 6.30156 2.7787 5.99178 3.52656C5.68201 4.27441 5.60096 5.09734 5.75888 5.89126C5.9168 6.68518 6.3066 7.41444 6.87899 7.98683C7.45138 8.55921 8.18064 8.94901 8.97456 9.10693C9.76849 9.26485 10.5914 9.1838 11.3393 8.87403C12.0871 8.56425 12.7263 8.03967 13.176 7.36661C13.6258 6.69356 13.8658 5.90226 13.8658 5.09278C13.8646 4.00768 13.433 2.96737 12.6657 2.20008C11.8984 1.4328 10.8581 1.00121 9.77302 1.00001V1.00001Z" fill="#204ECF"/>
<path d="M19.546 18.9586H18.546C18.5472 17.8057 18.3212 16.6639 17.8809 15.5985C17.4406 14.533 16.7946 13.5648 15.9798 12.7492C15.165 11.9335 14.1975 11.2865 13.1325 10.845C12.0675 10.4035 10.9259 10.1763 9.77307 10.1763C8.6202 10.1763 7.47864 10.4035 6.41365 10.845C5.34865 11.2865 4.38111 11.9335 3.56635 12.7492C2.75158 13.5648 2.10557 14.533 1.66524 15.5985C1.22491 16.6639 0.998896 17.8057 1.00013 18.9586H0.000127071C-0.001172 17.6744 0.250654 16.4025 0.741209 15.2156C1.23176 14.0288 1.95143 12.9503 2.85906 12.0417C3.76669 11.1332 4.84449 10.4124 6.03084 9.92065C7.2172 9.42889 8.48884 9.17578 9.77307 9.17578C11.0573 9.17578 12.3289 9.42889 13.5153 9.92065C14.7017 10.4124 15.7795 11.1332 16.6871 12.0417C17.5947 12.9503 18.3144 14.0288 18.8049 15.2156C19.2955 16.4025 19.5473 17.6744 19.546 18.9586V18.9586Z" fill="#204ECF"/>
<path d="M9.77302 54.7271C8.76576 54.7271 7.78112 54.4284 6.94362 53.8688C6.10612 53.3092 5.45336 52.5138 5.0679 51.5832C4.68244 50.6526 4.58159 49.6286 4.7781 48.6407C4.9746 47.6528 5.45964 46.7454 6.17188 46.0331C6.88412 45.3209 7.79157 44.8359 8.77947 44.6394C9.76738 44.4429 10.7914 44.5437 11.7219 44.9292C12.6525 45.3146 13.4479 45.9674 14.0075 46.8049C14.5671 47.6424 14.8658 48.627 14.8658 49.6343C14.8643 50.9845 14.3272 52.279 13.3724 53.2337C12.4177 54.1885 11.1232 54.7255 9.77302 54.7271V54.7271ZM9.77302 45.5415C8.96354 45.5415 8.17225 45.7816 7.49919 46.2313C6.82614 46.681 6.30156 47.3202 5.99178 48.0681C5.68201 48.8159 5.60096 49.6388 5.75888 50.4328C5.9168 51.2267 6.3066 51.9559 6.87899 52.5283C7.45137 53.1007 8.18064 53.4905 8.97456 53.6484C9.76848 53.8064 10.5914 53.7253 11.3393 53.4155C12.0871 53.1058 12.7263 52.5812 13.176 51.9081C13.6258 51.2351 13.8658 50.4438 13.8658 49.6343C13.8646 48.5492 13.433 47.5089 12.6657 46.7416C11.8984 45.9743 10.8581 45.5427 9.77302 45.5415V45.5415Z" fill="#204ECF"/>
<path d="M19.546 63.5001H18.546C18.5472 62.3473 18.3212 61.2054 17.8809 60.14C17.4406 59.0745 16.7946 58.1063 15.9798 57.2907C15.165 56.475 14.1975 55.828 13.1325 55.3865C12.0675 54.945 10.9259 54.7178 9.77307 54.7178C8.6202 54.7178 7.47864 54.945 6.41365 55.3865C5.34865 55.828 4.38111 56.475 3.56635 57.2907C2.75158 58.1063 2.10557 59.0745 1.66524 60.14C1.22491 61.2054 0.998896 62.3473 1.00013 63.5001H0.000127071C-0.001172 62.2159 0.250654 60.944 0.741209 59.7571C1.23176 58.5703 1.95143 57.4918 2.85906 56.5832C3.76669 55.6747 4.84449 54.9539 6.03084 54.4622C7.2172 53.9704 8.48884 53.7173 9.77307 53.7173C11.0573 53.7173 12.3289 53.9704 13.5153 54.4622C14.7017 54.9539 15.7795 55.6747 16.6871 56.5832C17.5947 57.4918 18.3144 58.5703 18.8049 59.7571C19.2955 60.944 19.5473 62.2159 19.546 63.5001V63.5001Z" fill="#204ECF"/>
<path d="M54.2271 54.7271C53.2199 54.7271 52.2352 54.4284 51.3977 53.8688C50.5602 53.3092 49.9075 52.5138 49.522 51.5832C49.1365 50.6526 49.0357 49.6286 49.2322 48.6407C49.4287 47.6528 49.9137 46.7454 50.626 46.0331C51.3382 45.3209 52.2457 44.8359 53.2336 44.6394C54.2215 44.4429 55.2455 44.5437 56.176 44.9292C57.1066 45.3146 57.902 45.9674 58.4616 46.8049C59.0212 47.6424 59.3199 48.627 59.3199 49.6343C59.3184 50.9845 58.7813 52.279 57.8266 53.2337C56.8718 54.1885 55.5773 54.7255 54.2271 54.7271V54.7271ZM54.2271 45.5415C53.4177 45.5415 52.6264 45.7816 51.9533 46.2313C51.2802 46.681 50.7557 47.3202 50.4459 48.0681C50.1361 48.8159 50.0551 49.6388 50.213 50.4328C50.3709 51.2267 50.7607 51.9559 51.3331 52.5283C51.9055 53.1007 52.6347 53.4905 53.4287 53.6484C54.2226 53.8064 55.0455 53.7253 55.7934 53.4155C56.5412 53.1058 57.1804 52.5812 57.6301 51.9081C58.0799 51.2351 58.3199 50.4438 58.3199 49.6343C58.3187 48.5492 57.8871 47.5089 57.1198 46.7416C56.3525 45.9743 55.3122 45.5427 54.2271 45.5415V45.5415Z" fill="#204ECF"/>
<path d="M64.0001 63.5001H63.0001C63.004 62.3455 62.78 61.2015 62.3408 60.1337C61.9017 59.0659 61.2561 58.0953 60.4411 57.2775C59.626 56.4597 58.6576 55.8108 57.5913 55.3681C56.525 54.9253 55.3817 54.6974 54.2272 54.6974C53.0726 54.6974 51.9294 54.9253 50.863 55.3681C49.7967 55.8108 48.8283 56.4597 48.0133 57.2775C47.1982 58.0953 46.5526 59.0659 46.1135 60.1337C45.6744 61.2015 45.4503 62.3455 45.4542 63.5001H44.4542C44.4501 62.214 44.6998 60.9398 45.1891 59.7505C45.6784 58.5612 46.3977 57.4801 47.3056 56.5693C48.2135 55.6585 49.2922 54.9358 50.48 54.4427C51.6677 53.9496 52.9411 53.6958 54.2272 53.6958C55.5132 53.6958 56.7866 53.9496 57.9743 54.4427C59.1621 54.9358 60.2409 55.6585 61.1488 56.5693C62.0567 57.4801 62.7759 58.5612 63.2652 59.7505C63.7545 60.9398 64.0042 62.214 64.0001 63.5001V63.5001Z" fill="#204ECF"/>
<path d="M45.6925 46.3691L40.1202 40.7974H27.7682V29.5967H45.6925V46.3691ZM28.7681 39.7974H40.5343L44.6925 43.9551V30.5967H28.7681V39.7974Z" fill="#204ECF"/>
<path d="M18.308 41.2689V23.4099H36.232V30.0969H35.232V24.4099H19.308V38.8549L23.466 34.6969H28.268V35.6969H23.88L18.308 41.2689Z" fill="#204ECF"/>
</g>
<defs>
<clipPath id="clip0_17_2408">
<rect width="64.0001" height="64.0001" fill="white"/>
</clipPath>
</defs>
</svg>
