<svg width="64" height="64" viewBox="0 0 64 64" fill="none" xmlns="http://www.w3.org/2000/svg">
<path opacity="0.15" d="M63 41L61 39L35.67 58H0V63H37.32L63 41Z" fill="#183A9C"/>
<path opacity="0.15" d="M36.44 32.4499C36 36.5599 32.73 39.8699 28.54 40.2899L24.05 40.7399C22.04 40.9399 20.51 42.6299 20.51 44.6599C20.51 46.3499 21.59 47.8599 23.2 48.3899L34.91 52.2899L49.51 42.0999V37.9899L48.9 35.6199C48.9 39.0599 46.11 41.8399 42.68 41.8399C39.25 41.8399 36.46 39.0499 36.46 35.6199V32.4399L36.44 32.4499Z" fill="#183A9C"/>
<path fill-rule="evenodd" clip-rule="evenodd" d="M32 1C26.4772 1 22 5.47715 22 11C22 16.5228 26.4772 21 32 21C37.5228 21 42 16.5228 42 11C42 5.47715 37.5228 1 32 1ZM21 11C21 4.92487 25.9249 0 32 0C38.0751 0 43 4.92487 43 11C43 17.0751 38.0751 22 32 22C25.9249 22 21 17.0751 21 11Z" fill="#204ECC"/>
<path fill-rule="evenodd" clip-rule="evenodd" d="M32 22C26.7058 22 21.9754 24.4181 18.8564 28.2173L18.0835 27.5827C21.3846 23.5619 26.3942 21 32 21C41.9361 21 50 29.0639 50 39V42.11H49V39C49 29.6161 41.3839 22 32 22Z" fill="#204ECC"/>
<path d="M0 63.5H37.3L63.17 41.28C61.26 37.94 56.89 36.96 53.74 39.16L34.91 52.3L23.2 48.4C21.59 47.86 20.51 46.36 20.51 44.67C20.51 42.65 22.04 40.95 24.05 40.75L28.54 40.3C33.06 39.85 36.5 36.05 36.5 31.5H13C6.1 31.5 0.5 37.1 0.5 44" stroke="#204ECC" stroke-miterlimit="10"/>
</svg>
