<svg width="64" height="65" viewBox="0 0 64 64" fill="none" xmlns="http://www.w3.org/2000/svg">
<g clip-path="url(#clip0_17_2627)">
<path opacity="0.3" d="M53.084 42.208L55.2054 44.3298C56.0767 45.2032 56.5658 46.3867 56.5651 47.6204C56.5644 48.8541 56.0741 50.0371 55.2019 50.9095C54.3296 51.7819 53.1467 52.2725 51.913 52.2734C50.6794 52.2743 49.4957 51.7855 48.6222 50.9144L47.3262 49.6181C48.198 50.4913 48.6875 51.675 48.687 52.909C48.6866 54.1429 48.1963 55.3262 47.3238 56.1988C46.4514 57.0715 45.2682 57.562 44.0342 57.5627C42.8003 57.5635 41.6165 57.0743 40.7431 56.2026L39.2859 54.7451C40.1115 55.5696 40.5976 56.6739 40.6479 57.8396C40.6983 59.0053 40.3093 60.1475 39.5579 61.0401C38.8065 61.9327 37.7475 62.5108 36.5903 62.66C35.4331 62.8092 34.262 62.5186 33.3088 61.8457L32 60.5817L32.5931 59.9884C33.4632 59.1188 33.9537 57.9402 33.9575 56.71C33.9614 55.4799 33.4782 54.2983 32.6136 53.4232C31.749 52.5482 30.5732 52.0509 29.3431 52.0401C28.113 52.0292 26.9286 52.5055 26.0487 53.3651L30.2784 49.1279C31.1515 48.255 31.6421 47.0709 31.6423 45.8362C31.6424 44.6015 31.1521 43.4173 30.2791 42.5441C29.4061 41.6709 28.222 41.1803 26.9873 41.1802C25.7526 41.18 24.5684 41.6704 23.6952 42.5434C24.5684 41.6704 25.059 40.4863 25.0592 39.2516C25.0593 38.0169 24.5689 36.8327 23.696 35.9595C22.823 35.0863 21.6389 34.5957 20.4042 34.5956C19.1695 34.5954 17.9853 35.0858 17.1121 35.9588L15.9321 37.139C16.3663 36.7072 16.7111 36.1939 16.9467 35.6286C17.1823 35.0633 17.304 34.4571 17.3049 33.8447C17.3058 33.2322 17.1858 32.6257 16.9519 32.0597C16.718 31.4937 16.3747 30.9794 15.9417 30.5463C15.5087 30.1132 14.9945 29.7698 14.4286 29.5357C13.8627 29.3017 13.2561 29.1816 12.6437 29.1823C12.0313 29.1831 11.425 29.3047 10.8597 29.5401C10.2943 29.7755 9.78094 30.1202 9.349 30.5543L5.64154 34.2626L0.5 29.0968V3.12605L28.588 3.10718L10.026 21.6223C9.65442 21.9946 9.44573 22.499 9.44573 23.025C9.44573 23.5509 9.65442 24.0554 10.026 24.4276C11.6222 26.0217 13.7858 26.9171 16.0417 26.9171C18.2976 26.9171 20.4612 26.0217 22.0574 24.4276L29.0662 17.4175C30.7522 19.1092 32.7561 20.4507 34.9626 21.3649C37.1691 22.2791 39.5346 22.748 41.9229 22.7445C43.3877 22.746 44.8471 22.5683 46.2687 22.2156L58.3131 34.2626L59.6671 35.6234C60.5389 36.4967 61.0284 37.6804 61.0279 38.9143C61.0275 40.1483 60.5372 41.3316 59.6647 42.2042C58.7923 43.0768 57.6091 43.5674 56.3752 43.5681C55.1412 43.5688 53.9575 43.0796 53.084 42.208H53.084Z" fill="#231F20"/>
<path d="M27.978 63.1758C26.9582 63.1756 25.9613 62.8731 25.1134 62.3065C24.2655 61.7398 23.6047 60.9345 23.2145 59.9923C22.8243 59.05 22.7223 58.0133 22.9213 57.0131C23.1203 56.0129 23.6114 55.0941 24.3325 54.373L25.6758 53.0293C26.1544 52.5504 26.7228 52.1705 27.3483 51.9113C27.9738 51.652 28.6443 51.5186 29.3214 51.5186C29.9985 51.5185 30.669 51.6519 31.2946 51.911C31.9201 52.1701 32.4885 52.55 32.9673 53.0288V53.0288C33.933 53.9965 34.4753 55.3079 34.4753 56.675C34.4753 58.0422 33.933 59.3535 32.9673 60.3213L31.624 61.665C31.1464 62.1455 30.5782 62.5264 29.9524 62.7857C29.3265 63.0451 28.6555 63.1776 27.978 63.1758V63.1758ZM29.3218 52.5185C28.7758 52.5171 28.235 52.6239 27.7306 52.8328C27.2262 53.0418 26.7683 53.3487 26.3833 53.7358L25.0396 55.0801C24.26 55.8594 23.822 56.9165 23.8219 58.0188C23.8218 59.1211 24.2595 60.1783 25.0388 60.9578C25.8182 61.7373 26.8753 62.1753 27.9776 62.1755C29.0798 62.1756 30.137 61.7378 30.9166 60.9585L32.2603 59.6143C33.0386 58.8341 33.4758 57.7771 33.4758 56.6751C33.4758 55.573 33.0386 54.516 32.2603 53.7358V53.7358C31.8754 53.3486 31.4175 53.0417 30.913 52.8327C30.4086 52.6237 29.8678 52.517 29.3218 52.5185V52.5185Z" fill="white"/>
<path d="M7.5967 44.0493C6.57693 44.0491 5.58013 43.7465 4.73232 43.1798C3.88451 42.6131 3.22377 41.8077 2.83363 40.8655C2.44349 39.9234 2.34148 38.8866 2.54049 37.8865C2.73951 36.8863 3.23061 35.9676 3.9517 35.2466L9.01713 30.1802C9.49583 29.7014 10.0642 29.3215 10.6897 29.0624C11.3152 28.8033 11.9856 28.6699 12.6626 28.6699C13.3397 28.6699 14.0101 28.8033 14.6356 29.0624C15.2611 29.3215 15.8294 29.7014 16.3081 30.1802V30.1802C17.2736 31.148 17.8158 32.4593 17.8158 33.8264C17.8158 35.1935 17.2736 36.5048 16.3081 37.4726L11.2422 42.539C10.7647 43.0194 10.1966 43.4003 9.5708 43.6595C8.94503 43.9187 8.27404 44.0512 7.5967 44.0493V44.0493ZM12.6626 29.6699C12.1166 29.6683 11.5758 29.7751 11.0714 29.9841C10.567 30.193 10.1091 30.5 9.72414 30.8872L4.65871 35.9536C4.27082 36.339 3.96281 36.7972 3.75233 37.3019C3.54185 37.8066 3.43304 38.3479 3.43213 38.8947C3.43122 39.4415 3.53822 39.9831 3.74702 40.4885C3.95582 40.9939 4.2623 41.4531 4.6489 41.8399C5.0355 42.2266 5.49461 42.5332 5.99993 42.7422C6.50525 42.9512 7.04685 43.0583 7.59367 43.0576C8.14049 43.0569 8.6818 42.9483 9.18656 42.7379C9.69132 42.5276 10.1496 42.2198 10.5352 41.832L15.6011 36.7656C16.3792 35.9853 16.8162 34.9283 16.8162 33.8264C16.8162 32.7244 16.3792 31.6675 15.6011 30.8872V30.8872C15.2161 30.5001 14.7582 30.1931 14.2538 29.9842C13.7494 29.7752 13.2086 29.6684 12.6626 29.6699Z" fill="white"/>
<path d="M12.0591 52.7573C11.0393 52.7571 10.0425 52.4545 9.19472 51.8878C8.34691 51.3211 7.68615 50.5158 7.29597 49.5737C6.90578 48.6315 6.80371 47.5948 7.00264 46.5946C7.20157 45.5945 7.69257 44.6757 8.41358 43.9546L16.7822 35.584C17.2609 35.1052 17.8292 34.7254 18.4546 34.4662C19.0801 34.2071 19.7505 34.0737 20.4275 34.0737C21.1045 34.0737 21.7749 34.2071 22.4004 34.4662C23.0258 34.7254 23.5941 35.1052 24.0728 35.584C25.0385 36.5517 25.5808 37.8631 25.5808 39.2302C25.5808 40.5974 25.0385 41.9087 24.0728 42.8765L15.7046 51.2466C15.2271 51.727 14.659 52.1079 14.0332 52.3672C13.4074 52.6265 12.7364 52.7591 12.0591 52.7573V52.7573ZM20.4277 35.0737C19.8818 35.0721 19.3409 35.1789 18.8365 35.3879C18.3321 35.5968 17.8742 35.9038 17.4893 36.291L9.12062 44.6616C8.73372 45.0473 8.42666 45.5055 8.21699 46.0099C8.00733 46.5144 7.89918 47.0552 7.89873 47.6015C7.89828 48.1478 8.00554 48.6889 8.21437 49.1937C8.4232 49.6985 8.7295 50.1572 9.11576 50.5435C9.50202 50.9298 9.96065 51.2362 10.4654 51.4451C10.9702 51.654 11.5112 51.7613 12.0575 51.761C12.6038 51.7606 13.1447 51.6525 13.6492 51.443C14.1536 51.2334 14.6119 50.9264 14.9976 50.5396L23.3658 42.1694C24.1441 41.3893 24.5812 40.3322 24.5812 39.2302C24.5812 38.1282 24.1441 37.0712 23.3658 36.291V36.291C22.9809 35.9038 22.5231 35.5969 22.0187 35.3879C21.5144 35.179 20.9736 35.0722 20.4277 35.0737V35.0737Z" fill="white"/>
<path d="M19.9414 58.0439C18.9216 58.0437 17.9248 57.741 17.0769 57.1743C16.2291 56.6076 15.5683 55.8022 15.1781 54.86C14.788 53.9178 14.6859 52.8811 14.8849 51.8809C15.0838 50.8807 15.5748 49.9619 16.2959 49.2407L23.3657 42.1694C23.8444 41.6906 24.4127 41.3108 25.0382 41.0517C25.6637 40.7926 26.3342 40.6592 27.0112 40.6592C27.6883 40.6592 28.3587 40.7926 28.9842 41.0517C29.6097 41.3108 30.178 41.6906 30.6567 42.1694V42.1694C31.6222 43.1372 32.1644 44.4484 32.1644 45.8154C32.1644 47.1824 31.6222 48.4937 30.6567 49.4614L23.5869 56.5332C23.1093 57.0136 22.5413 57.3945 21.9155 57.6538C21.2897 57.9131 20.6188 58.0457 19.9414 58.0439V58.0439ZM27.0112 41.6592C26.4653 41.6577 25.9244 41.7645 25.42 41.9735C24.9156 42.1824 24.4577 42.4893 24.0727 42.8765L17.0029 49.9477C16.2234 50.7271 15.7854 51.7842 15.7853 52.8865C15.7851 53.9887 16.2229 55.0459 17.0022 55.8255C17.7815 56.605 18.8386 57.043 19.9409 57.0431C21.0432 57.0433 22.1004 56.6055 22.8799 55.8262L29.9498 48.7544C30.7281 47.9743 31.1652 46.9174 31.1652 45.8154C31.1652 44.7135 30.7281 43.6565 29.9498 42.8765V42.8765C29.5648 42.4892 29.1069 42.1823 28.6025 41.9733C28.0981 41.7644 27.5572 41.6576 27.0112 41.6592V41.6592Z" fill="white"/>
<path d="M16.0674 27.3965C14.884 27.3998 13.7117 27.1682 12.6184 26.7153C11.5252 26.2624 10.5326 25.597 9.69824 24.7579C9.23303 24.2926 8.97168 23.6616 8.97168 23.0037C8.97168 22.3458 9.23303 21.7148 9.69824 21.2496L28.3809 2.60742H63.5V3.60742H28.7949L10.4048 21.957C10.1274 22.2348 9.97159 22.6114 9.97168 23.004C9.97177 23.3966 10.1277 23.7731 10.4053 24.0508C11.1487 24.7944 12.0314 25.3844 13.0029 25.7868C13.9743 26.1893 15.0156 26.3965 16.0671 26.3965C17.1187 26.3965 18.1599 26.1893 19.1314 25.7868C20.1029 25.3844 20.9856 24.7944 21.729 24.0508L29.0889 16.6895L29.4424 17.043C31.0844 18.6854 33.034 19.9883 35.1796 20.8772C37.3253 21.7661 39.625 22.2236 41.9475 22.2236C44.27 22.2236 46.5698 21.7661 48.7154 20.8772C50.8611 19.9883 52.8106 18.6854 54.4526 17.043L54.8633 17.3394L55.2168 17.6929C53.4824 19.4486 51.416 20.8418 49.138 21.7913C46.8599 22.7409 44.4158 23.2277 41.9478 23.2236C37.1624 23.2371 32.5569 21.4011 29.0933 18.0991L22.436 24.7579C21.6017 25.597 20.6092 26.2623 19.516 26.7152C18.4229 27.1681 17.2507 27.3997 16.0674 27.3965V27.3965Z" fill="white"/>
<path d="M63.1468 28.7214L57.9806 33.8877L58.6876 34.5947L63.8539 29.4285L63.1468 28.7214Z" fill="white"/>
<path d="M36.019 63.1816C34.9516 63.1816 33.9108 62.8487 33.0414 62.2295L31.6591 60.9472L32.3408 60.2158L33.6713 61.456C34.5253 62.0383 35.5655 62.2817 36.5891 62.139C37.6128 61.9962 38.5467 61.4775 39.2088 60.6838C39.8709 59.8901 40.2138 58.8784 40.1706 57.8457C40.1275 56.813 39.7015 55.8333 38.9755 55.0976L38.4828 54.6049L39.1898 53.8979L39.6649 54.373L39.6855 54.3935L41.1176 55.8262C41.5036 56.2121 41.9618 56.5181 42.4661 56.727C42.9703 56.9358 43.5108 57.0432 44.0566 57.0431C44.6024 57.0431 45.1428 56.9355 45.6471 56.7266C46.1513 56.5176 46.6094 56.2114 46.9953 55.8255C47.3812 55.4395 47.6873 54.9813 47.8961 54.477C48.1049 53.9727 48.2123 53.4323 48.2123 52.8865C48.2122 52.3407 48.1046 51.8002 47.8957 51.296C47.6868 50.7918 47.3806 50.3336 46.9946 49.9477L47.7016 49.2407L49 50.5395C49.7798 51.3169 50.8364 51.7531 51.9375 51.7522C53.0387 51.7513 54.0945 51.3134 54.8731 50.5347C55.6516 49.756 56.0894 48.7001 56.0901 47.5989C56.0908 46.4978 55.6545 45.4413 54.877 44.6616L52.7554 42.539L53.4624 41.832C53.848 42.2198 54.3063 42.5276 54.811 42.738C55.3158 42.9483 55.8571 43.0569 56.4039 43.0576C56.9507 43.0584 57.4923 42.9512 57.9976 42.7422C58.503 42.5332 58.9621 42.2266 59.3487 41.8399C59.7353 41.4532 60.0418 40.9939 60.2506 40.4886C60.4594 39.9832 60.5664 39.4415 60.5655 38.8947C60.5645 38.3479 60.4557 37.8066 60.2452 37.3019C60.0348 36.7972 59.7268 36.339 59.3389 35.9536L45.9365 22.5537L46.6435 21.8467L60.0459 35.2465C60.8141 36.015 61.32 37.0065 61.4913 38.0795C61.6627 39.1525 61.4907 40.2522 61 41.2218C60.5094 42.1913 59.725 42.981 58.7589 43.4783C57.7928 43.9757 56.6943 44.1552 55.6201 43.9912C56.5095 44.8989 57.0324 46.103 57.0886 47.3726C57.1447 48.6422 56.7301 49.8878 55.9243 50.8705C55.1185 51.8531 53.9782 52.5037 52.7222 52.6972C51.4662 52.8908 50.1829 52.6138 49.1186 51.9194C49.3116 52.9278 49.199 53.9708 48.7955 54.9149C48.3919 55.8589 47.7157 56.6609 46.8534 57.2182C45.9912 57.7755 44.9822 58.0627 43.9557 58.043C42.9292 58.0232 41.932 57.6975 41.0918 57.1074C41.225 57.85 41.1939 58.6127 41.0006 59.342C40.8073 60.0712 40.4565 60.7493 39.9729 61.3283C39.4893 61.9074 38.8847 62.3734 38.2015 62.6936C37.5184 63.0138 36.7734 63.1804 36.019 63.1816V63.1816Z" fill="white"/>
<path d="M0.853553 28.7237L0.146423 29.4307L5.30951 34.5952L6.01664 33.8883L0.853553 28.7237Z" fill="white"/>
<path d="M28.5879 2.60742H0.5V3.60742H28.5879V2.60742Z" fill="white"/>
<path d="M49.3936 37.7627L48.6865 38.4697L52.7554 42.5391L53.4624 41.8321L49.3936 37.7627Z" fill="white"/>
<path d="M42.8096 44.3482L42.1025 45.0552L46.9946 49.9478L47.7017 49.2408L42.8096 44.3482Z" fill="white"/>
<path d="M36.2261 50.9332L35.519 51.6401L38.4828 54.605L39.19 53.8981L36.2261 50.9332Z" fill="white"/>
</g>
<defs>
<clipPath id="clip0_17_2627">
<rect width="64" height="64" fill="white" transform="translate(0 0.901855)"/>
</clipPath>
</defs>
</svg>
