<svg width="64" height="64" viewBox="0 0 64 64" fill="none" xmlns="http://www.w3.org/2000/svg">
<g clip-path="url(#clip0_17_2434)">
<path opacity="0.15" d="M53.084 41.3062L55.2054 43.428C56.0767 44.3013 56.5658 45.4848 56.5651 46.7185C56.5644 47.9522 56.0741 49.1352 55.2019 50.0076C54.3296 50.8801 53.1467 51.3706 51.913 51.3716C50.6794 51.3725 49.4957 50.8837 48.6222 50.0125L47.3262 48.7162C48.198 49.5895 48.6875 50.7731 48.687 52.0071C48.6866 53.241 48.1963 54.4243 47.3238 55.297C46.4514 56.1696 45.2682 56.6602 44.0342 56.6609C42.8003 56.6616 41.6165 56.1724 40.7431 55.3008L39.2859 53.8433C40.1115 54.6678 40.5976 55.7721 40.6479 56.9378C40.6983 58.1035 40.3093 59.2456 39.5579 60.1382C38.8065 61.0309 37.7475 61.6089 36.5903 61.7581C35.4331 61.9073 34.262 61.6167 33.3088 60.9438L32 59.6798L32.5931 59.0865C33.4632 58.2169 33.9537 57.0383 33.9575 55.8082C33.9614 54.5781 33.4782 53.3964 32.6136 52.5214C31.749 51.6464 30.5732 51.1491 29.3431 51.1382C28.113 51.1273 26.9286 51.6037 26.0487 52.4632L30.2784 48.2261C31.1515 47.3531 31.6421 46.169 31.6423 44.9343C31.6424 43.6996 31.1521 42.5154 30.2791 41.6422C29.4061 40.7691 28.222 40.2785 26.9873 40.2783C25.7526 40.2782 24.5684 40.7685 23.6952 41.6415C24.5684 40.7685 25.059 39.5845 25.0592 38.3497C25.0593 37.115 24.5689 35.9308 23.696 35.0577C22.823 34.1845 21.6389 33.6939 20.4042 33.6937C19.1695 33.6936 17.9853 34.184 17.1121 35.0569L15.9321 36.2372C16.3663 35.8053 16.7111 35.2921 16.9467 34.7268C17.1823 34.1615 17.304 33.5552 17.3049 32.9428C17.3058 32.3304 17.1858 31.7238 16.9519 31.1578C16.718 30.5918 16.3747 30.0776 15.9417 29.6445C15.5087 29.2114 14.9945 28.8679 14.4286 28.6339C13.8627 28.3998 13.2561 28.2797 12.6437 28.2805C12.0313 28.2812 11.425 28.4028 10.8597 28.6382C10.2943 28.8737 9.78094 29.2183 9.349 29.6525L5.64154 33.3608L0.5 28.1949V2.22419L28.588 2.20532L10.026 20.7205C9.65442 21.0927 9.44573 21.5972 9.44573 22.1231C9.44573 22.6491 9.65442 23.1536 10.026 23.5258C11.6222 25.1199 13.7858 26.0152 16.0417 26.0152C18.2976 26.0152 20.4612 25.1199 22.0574 23.5258L29.0662 16.5156C30.7522 18.2073 32.7561 19.5488 34.9626 20.4631C37.1691 21.3773 39.5346 21.8461 41.9229 21.8426C43.3877 21.8441 44.8471 21.6665 46.2687 21.3138L58.3131 33.3608L59.6671 34.7216C60.5389 35.5949 61.0284 36.7785 61.0279 38.0125C61.0275 39.2464 60.5372 40.4297 59.6647 41.3023C58.7923 42.175 57.6091 42.6655 56.3752 42.6663C55.1412 42.667 53.9575 42.1778 53.084 41.3062H53.084Z" fill="#183A9E"/>
<path d="M27.978 62.2739C26.9582 62.2738 25.9613 61.9713 25.1134 61.4046C24.2655 60.838 23.6047 60.0326 23.2145 59.0904C22.8243 58.1482 22.7223 57.1114 22.9213 56.1112C23.1203 55.111 23.6114 54.1923 24.3325 53.4712L25.6758 52.1274C26.1544 51.6485 26.7228 51.2686 27.3483 51.0094C27.9738 50.7502 28.6443 50.6167 29.3214 50.6167C29.9985 50.6167 30.669 50.75 31.2946 51.0091C31.9201 51.2683 32.4885 51.6481 32.9673 52.1269V52.1269C33.933 53.0947 34.4753 54.406 34.4753 55.7732C34.4753 57.1403 33.933 58.4517 32.9673 59.4194L31.624 60.7632C31.1464 61.2436 30.5782 61.6246 29.9524 61.8839C29.3265 62.1432 28.6555 62.2758 27.978 62.2739V62.2739ZM29.3218 51.6167C28.7758 51.6152 28.235 51.722 27.7306 51.931C27.2262 52.1399 26.7683 52.4469 26.3833 52.834L25.0396 54.1782C24.26 54.9576 23.822 56.0147 23.8219 57.1169C23.8218 58.2192 24.2595 59.2764 25.0388 60.0559C25.8182 60.8355 26.8753 61.2735 27.9776 61.2736C29.0798 61.2737 30.137 60.836 30.9166 60.0566L32.2603 58.7124C33.0386 57.9323 33.4758 56.8752 33.4758 55.7732C33.4758 54.6712 33.0386 53.6141 32.2603 52.834V52.834C31.8754 52.4468 31.4175 52.1398 30.913 51.9308C30.4086 51.7219 29.8678 51.6151 29.3218 51.6167V51.6167Z" fill="#204ECF"/>
<path d="M7.5967 43.1474C6.57693 43.1472 5.58013 42.8446 4.73232 42.2779C3.88451 41.7112 3.22377 40.9059 2.83363 39.9637C2.44349 39.0215 2.34148 37.9848 2.54049 36.9846C2.73951 35.9845 3.23061 35.0658 3.9517 34.3447L9.01713 29.2783C9.49583 28.7995 10.0642 28.4197 10.6897 28.1606C11.3152 27.9014 11.9856 27.7681 12.6626 27.7681C13.3397 27.7681 14.0101 27.9014 14.6356 28.1606C15.2611 28.4197 15.8294 28.7995 16.3081 29.2783V29.2783C17.2736 30.2462 17.8158 31.5574 17.8158 32.9245C17.8158 34.2916 17.2736 35.6029 16.3081 36.5708L11.2422 41.6372C10.7647 42.1176 10.1966 42.4984 9.5708 42.7576C8.94503 43.0169 8.27404 43.1494 7.5967 43.1474V43.1474ZM12.6626 28.768C12.1166 28.7665 11.5758 28.8732 11.0714 29.0822C10.567 29.2911 10.1091 29.5981 9.72414 29.9853L4.65871 35.0517C4.27082 35.4372 3.96281 35.8954 3.75233 36.4001C3.54185 36.9047 3.43304 37.446 3.43213 37.9928C3.43122 38.5397 3.53822 39.0813 3.74702 39.5867C3.95582 40.0921 4.2623 40.5513 4.6489 40.938C5.0355 41.3247 5.49461 41.6314 5.99993 41.8403C6.50525 42.0493 7.04685 42.1565 7.59367 42.1558C8.14049 42.155 8.6818 42.0464 9.18656 41.8361C9.69132 41.6258 10.1496 41.3179 10.5352 40.9302L15.6011 35.8637C16.3792 35.0835 16.8162 34.0265 16.8162 32.9245C16.8162 31.8226 16.3792 30.7656 15.6011 29.9853V29.9853C15.2161 29.5982 14.7582 29.2913 14.2538 29.0823C13.7494 28.8734 13.2086 28.7666 12.6626 28.768Z" fill="#204ECF"/>
<path d="M12.0591 51.8555C11.0393 51.8552 10.0425 51.5526 9.19472 50.986C8.34691 50.4193 7.68615 49.614 7.29597 48.6718C6.90578 47.7296 6.80371 46.6929 7.00264 45.6928C7.20157 44.6926 7.69257 43.7739 8.41358 43.0527L16.7822 34.6821C17.2609 34.2033 17.8292 33.8235 18.4546 33.5644C19.0801 33.3053 19.7505 33.1719 20.4275 33.1719C21.1045 33.1719 21.7749 33.3053 22.4004 33.5644C23.0258 33.8235 23.5941 34.2033 24.0728 34.6821C25.0385 35.6499 25.5808 36.9612 25.5808 38.3284C25.5808 39.6955 25.0385 41.0069 24.0728 41.9746L15.7046 50.3447C15.2271 50.8251 14.659 51.206 14.0332 51.4653C13.4074 51.7247 12.7364 51.8573 12.0591 51.8555V51.8555ZM20.4277 34.1719C19.8818 34.1703 19.3409 34.2771 18.8365 34.486C18.3321 34.695 17.8742 35.002 17.4893 35.3892L9.12062 43.7598C8.73372 44.1454 8.42666 44.6036 8.21699 45.1081C8.00733 45.6125 7.89918 46.1534 7.89873 46.6997C7.89828 47.246 8.00554 47.787 8.21437 48.2918C8.4232 48.7966 8.7295 49.2553 9.11576 49.6416C9.50202 50.0279 9.96065 50.3343 10.4654 50.5432C10.9702 50.7521 11.5112 50.8595 12.0575 50.8591C12.6038 50.8588 13.1447 50.7507 13.6492 50.5411C14.1536 50.3315 14.6119 50.0245 14.9976 49.6377L23.3658 41.2676C24.1441 40.4874 24.5812 39.4304 24.5812 38.3284C24.5812 37.2263 24.1441 36.1693 23.3658 35.3892V35.3892C22.9809 35.002 22.5231 34.695 22.0187 34.4861C21.5144 34.2771 20.9736 34.1703 20.4277 34.1719V34.1719Z" fill="#204ECF"/>
<path d="M19.9414 57.1421C18.9216 57.1418 17.9248 56.8392 17.0769 56.2725C16.2291 55.7057 15.5683 54.9004 15.1781 53.9582C14.788 53.016 14.6859 51.9792 14.8849 50.979C15.0838 49.9788 15.5748 49.06 16.2959 48.3389L23.3657 41.2676C23.8444 40.7888 24.4127 40.409 25.0382 40.1498C25.6637 39.8907 26.3342 39.7573 27.0112 39.7573C27.6883 39.7573 28.3587 39.8907 28.9842 40.1498C29.6097 40.409 30.178 40.7888 30.6567 41.2676V41.2676C31.6222 42.2353 32.1644 43.5466 32.1644 44.9136C32.1644 46.2806 31.6222 47.5918 30.6567 48.5596L23.5869 55.6314C23.1093 56.1117 22.5413 56.4926 21.9155 56.752C21.2897 57.0113 20.6188 57.1439 19.9414 57.1421V57.1421ZM27.0112 40.7573C26.4653 40.7558 25.9244 40.8626 25.42 41.0716C24.9156 41.2805 24.4577 41.5875 24.0727 41.9746L17.0029 49.0459C16.2234 49.8252 15.7854 50.8823 15.7853 51.9846C15.7851 53.0869 16.2229 54.1441 17.0022 54.9236C17.7815 55.7031 18.8386 56.1411 19.9409 56.1413C21.0432 56.1414 22.1004 55.7037 22.8799 54.9243L29.9498 47.8525C30.7281 47.0725 31.1652 46.0155 31.1652 44.9136C31.1652 43.8116 30.7281 42.7547 29.9498 41.9746V41.9746C29.5648 41.5874 29.1069 41.2804 28.6025 41.0715C28.0981 40.8625 27.5572 40.7557 27.0112 40.7573V40.7573Z" fill="#204ECF"/>
<path d="M16.0674 26.4946C14.884 26.4979 13.7117 26.2664 12.6184 25.8134C11.5252 25.3605 10.5326 24.6952 9.69824 23.856C9.23303 23.3908 8.97168 22.7598 8.97168 22.1018C8.97168 21.4439 9.23303 20.8129 9.69824 20.3477L28.3809 1.70557H63.5V2.70557H28.7949L10.4048 21.0552C10.1274 21.333 9.97159 21.7096 9.97168 22.1021C9.97177 22.4947 10.1277 22.8713 10.4053 23.1489C11.1487 23.8926 12.0314 24.4825 13.0029 24.885C13.9743 25.2875 15.0156 25.4946 16.0671 25.4946C17.1187 25.4946 18.1599 25.2875 19.1314 24.885C20.1029 24.4825 20.9856 23.8926 21.729 23.1489L29.0889 15.7876L29.4424 16.1411C31.0844 17.7836 33.034 19.0864 35.1796 19.9753C37.3253 20.8643 39.625 21.3218 41.9475 21.3218C44.27 21.3218 46.5698 20.8643 48.7154 19.9753C50.8611 19.0864 52.8106 17.7836 54.4526 16.1411L54.8633 16.4375L55.2168 16.791C53.4824 18.5468 51.416 19.94 49.138 20.8895C46.8599 21.839 44.4158 22.3259 41.9478 22.3218C37.1624 22.3352 32.5569 20.4992 29.0933 17.1973L22.436 23.856C21.6017 24.6951 20.6092 25.3604 19.516 25.8134C18.4229 26.2663 17.2507 26.4978 16.0674 26.4946V26.4946Z" fill="#204ECF"/>
<path d="M63.1468 27.8196L57.9806 32.9858L58.6876 33.6929L63.8539 28.5266L63.1468 27.8196Z" fill="#204ECF"/>
<path d="M36.019 62.2798C34.9516 62.2797 33.9108 61.9469 33.0414 61.3276L31.6591 60.0454L32.3408 59.3139L33.6713 60.5542C34.5253 61.1364 35.5655 61.3799 36.5891 61.2371C37.6128 61.0944 38.5467 60.5756 39.2088 59.7819C39.8709 58.9882 40.2138 57.9765 40.1706 56.9438C40.1275 55.9111 39.7015 54.9315 38.9755 54.1958L38.4828 53.7031L39.1898 52.9961L39.6649 53.4712L39.6855 53.4917L41.1176 54.9243C41.5036 55.3102 41.9618 55.6163 42.4661 55.8251C42.9703 56.0339 43.5108 56.1413 44.0566 56.1413C44.6024 56.1412 45.1428 56.0336 45.6471 55.8247C46.1513 55.6158 46.6094 55.3096 46.9953 54.9236C47.3812 54.5376 47.6873 54.0794 47.8961 53.5751C48.1049 53.0709 48.2123 52.5304 48.2123 51.9846C48.2122 51.4388 48.1046 50.8984 47.8957 50.3941C47.6868 49.8899 47.3806 49.4318 46.9946 49.0459L47.7016 48.3389L49 49.6377C49.7798 50.4151 50.8364 50.8512 51.9375 50.8503C53.0387 50.8494 54.0945 50.4115 54.8731 49.6328C55.6516 48.8541 56.0894 47.7982 56.0901 46.6971C56.0908 45.5959 55.6545 44.5395 54.877 43.7597L52.7554 41.6372L53.4624 40.9302C53.848 41.3179 54.3063 41.6258 54.811 41.8361C55.3158 42.0464 55.8571 42.155 56.4039 42.1558C56.9507 42.1565 57.4923 42.0493 57.9976 41.8404C58.503 41.6314 58.9621 41.3248 59.3487 40.938C59.7353 40.5513 60.0418 40.0921 60.2506 39.5867C60.4594 39.0813 60.5664 38.5397 60.5655 37.9929C60.5645 37.446 60.4557 36.9048 60.2452 36.4001C60.0348 35.8954 59.7268 35.4372 59.3389 35.0518L45.9365 21.6518L46.6435 20.9448L60.0459 34.3447C60.8141 35.1132 61.32 36.1047 61.4913 37.1777C61.6627 38.2507 61.4907 39.3504 61 40.3199C60.5094 41.2894 59.725 42.0792 58.7589 42.5765C57.7928 43.0738 56.6943 43.2533 55.6201 43.0893C56.5095 43.997 57.0324 45.2012 57.0886 46.4708C57.1447 47.7403 56.7301 48.9859 55.9243 49.9686C55.1185 50.9513 53.9782 51.6018 52.7222 51.7954C51.4662 51.989 50.1829 51.712 49.1186 51.0175C49.3116 52.0259 49.199 53.069 48.7955 54.013C48.3919 54.957 47.7157 55.7591 46.8534 56.3164C45.9912 56.8737 44.9822 57.1609 43.9557 57.1411C42.9292 57.1214 41.932 56.7956 41.0918 56.2055C41.225 56.9481 41.1939 57.7109 41.0006 58.4401C40.8073 59.1694 40.4565 59.8474 39.9729 60.4265C39.4893 61.0055 38.8847 61.4716 38.2015 61.7918C37.5184 62.1119 36.7734 62.2785 36.019 62.2798V62.2798Z" fill="#204ECF"/>
<path d="M0.853553 27.8219L0.146423 28.5288L5.30951 33.6934L6.01664 32.9864L0.853553 27.8219Z" fill="#204ECF"/>
<path d="M28.5879 1.70557H0.5V2.70557H28.5879V1.70557Z" fill="#204ECF"/>
<path d="M49.3936 36.8609L48.6865 37.5679L52.7554 41.6372L53.4624 40.9302L49.3936 36.8609Z" fill="#204ECF"/>
<path d="M42.8096 43.4463L42.1025 44.1533L46.9946 49.0459L47.7017 48.3389L42.8096 43.4463Z" fill="#204ECF"/>
<path d="M36.2261 50.0314L35.519 50.7383L38.4828 53.7031L39.19 52.9962L36.2261 50.0314Z" fill="#204ECF"/>
</g>
<defs>
<clipPath id="clip0_17_2434">
<rect width="64" height="64" fill="white"/>
</clipPath>
</defs>
</svg>
