<svg width="64" height="64" viewBox="0 0 64 64" fill="none" xmlns="http://www.w3.org/2000/svg">
<g clip-path="url(#clip0_17_2451)">
<path opacity="0.15" d="M47.221 4.61182C43.9179 4.6121 40.6931 5.61698 37.9745 7.49305C35.2559 9.36912 33.1723 12.0277 32.0001 15.1157C30.649 11.5552 28.0924 8.58101 24.7751 6.71061C21.4578 4.84022 17.5897 4.19201 13.8439 4.87875C10.098 5.56549 6.71149 7.54372 4.27344 10.4693C1.83539 13.3948 0.500143 17.0825 0.5 20.8908C0.5 21.1773 0.507463 21.462 0.52239 21.7448C0.53159 21.9228 0.54839 22.1011 0.56304 22.2794C0.57114 22.3739 0.57553 22.4695 0.58515 22.5635C2.36519 40.6011 32.0001 59.3886 32.0001 59.3886C32.0001 59.3886 61.635 40.6011 63.4149 22.5635C63.4245 22.4695 63.429 22.3739 63.437 22.2794C63.4517 22.1011 63.4686 21.9229 63.4776 21.7448C63.4922 21.462 63.4997 21.1773 63.5 20.8908C63.5 16.5733 61.7849 12.4327 58.732 9.37981C55.6791 6.32691 51.5385 4.61181 47.221 4.61182ZM42.547 36.3963H35.5157V43.4276H28.4844V36.3963H21.4532V29.3651H28.4844V22.3338H35.5157V29.3651H42.547V36.3963Z" fill="#183A9E"/>
<path d="M32 59.9801L31.7324 59.8107C26.4033 56.3038 21.3521 52.3918 16.6235 48.1095C6.40186 38.7985 0.83838 30.2203 0.0874 22.6129L0.05518 22.2091C0.043 22.0631 0.03076 21.9166 0.023 21.7706C0.00782667 21.4791 0.00016 21.1858 0 20.8908C7.47405e-05 17.0688 1.30494 13.3615 3.69869 10.382C6.09245 7.40258 9.43164 5.32964 13.1638 4.50617C16.896 3.6827 20.7974 4.15805 24.2227 5.85357C27.6479 7.54908 30.3917 10.3632 32 13.8302C33.6083 10.3632 36.3521 7.54908 39.7773 5.85357C43.2026 4.15805 47.104 3.6827 50.8362 4.50617C54.5684 5.32964 57.9076 7.40258 60.3013 10.382C62.6951 13.3615 63.9999 17.0688 64 20.8908C64 21.1862 63.9923 21.4795 63.977 21.7706C63.9697 21.9132 63.9575 22.0568 63.9453 22.2003L63.9126 22.6124C63.1616 30.2203 57.5981 38.7984 47.3764 48.1095C42.6479 52.3918 37.5967 56.3038 32.2676 59.8107L32 59.9801ZM16.7788 5.11194C12.5954 5.1166 8.58474 6.7805 5.62665 9.73859C2.66856 12.6967 1.00466 16.7074 1 20.8908C1 21.1686 1.00781 21.445 1.022 21.7189C1.02884 21.8541 1.04056 21.9894 1.05179 22.1246L1.08255 22.5148C2.72949 39.1998 29.0425 56.8585 32 58.7926C34.9575 56.858 61.271 39.1959 62.9175 22.5143L62.9492 22.1154C62.9604 21.9835 62.9717 21.8517 62.978 21.7204C62.9922 21.445 63 21.1686 63 20.8908C62.9998 17.1995 61.7056 13.6251 59.3424 10.7894C56.9792 7.95373 53.6967 6.03627 50.0659 5.37063C46.4351 4.70499 42.6859 5.33329 39.4705 7.14621C36.255 8.95914 33.777 11.842 32.4673 15.2931L32 16.5245L31.5327 15.2931C30.3865 12.3065 28.3643 9.73615 25.7314 7.91925C23.0984 6.10235 19.9778 5.12379 16.7788 5.11194V5.11194Z" fill="#204ECF"/>
<path d="M36.0156 43.9272H27.9844V36.896H20.9531V28.8647H27.9844V21.8335H36.0156V28.8647H43.0469V36.896H36.0156V43.9272ZM28.9844 42.9272H35.0156V35.896H42.0469V29.8647H35.0156V22.8335H28.9844V29.8647H21.9531V35.896H28.9844V42.9272Z" fill="#204ECF"/>
</g>
<defs>
<clipPath id="clip0_17_2451">
<rect width="64.0001" height="64" fill="white"/>
</clipPath>
</defs>
</svg>
