<svg width="64" height="65" viewBox="0 0 64 64" fill="none" xmlns="http://www.w3.org/2000/svg">
<g clip-path="url(#clip0_17_2644)">
<path opacity="0.3" d="M47.221 5.51367C43.9179 5.51396 40.6931 6.51883 37.9745 8.39491C35.2559 10.271 33.1723 12.9295 32.0001 16.0176C30.649 12.4571 28.0924 9.48286 24.7751 7.61247C21.4578 5.74208 17.5897 5.09386 13.8439 5.7806C10.098 6.46734 6.71149 8.44558 4.27344 11.3711C1.83539 14.2967 0.500143 17.9844 0.5 21.7926C0.5 22.0792 0.507463 22.3639 0.52239 22.6467C0.53159 22.8247 0.54839 23.003 0.56304 23.1813C0.57114 23.2758 0.57553 23.3713 0.58515 23.4653C2.36519 41.503 32.0001 60.2904 32.0001 60.2904C32.0001 60.2904 61.635 41.503 63.4149 23.4653C63.4245 23.3713 63.429 23.2758 63.437 23.1813C63.4517 23.003 63.4686 22.8247 63.4776 22.6467C63.4922 22.3639 63.4997 22.0792 63.5 21.7926C63.5 17.4752 61.7849 13.3346 58.732 10.2817C55.6791 7.22876 51.5385 5.51367 47.221 5.51367ZM42.547 37.2982H35.5157V44.3294H28.4844V37.2982H21.4532V30.267H28.4844V23.2356H35.5157V30.267H42.547V37.2982Z" fill="#231F20"/>
<path d="M32 60.882L31.7324 60.7125C26.4033 57.2056 21.3521 53.2937 16.6235 49.0114C6.40186 39.7003 0.83838 31.1222 0.0874 23.5148L0.05518 23.111C0.043 22.965 0.03076 22.8185 0.023 22.6725C0.00782667 22.381 0.00016 22.0877 0 21.7926C7.47405e-05 17.9707 1.30494 14.2633 3.69869 11.2839C6.09245 8.30444 9.43164 6.2315 13.1638 5.40803C16.896 4.58456 20.7974 5.0599 24.2227 6.75542C27.6479 8.45094 30.3917 11.265 32 14.7321C33.6083 11.265 36.3521 8.45094 39.7773 6.75542C43.2026 5.0599 47.104 4.58456 50.8362 5.40803C54.5684 6.2315 57.9076 8.30444 60.3013 11.2839C62.6951 14.2633 63.9999 17.9707 64 21.7926C64 22.088 63.9923 22.3813 63.977 22.6725C63.9697 22.8151 63.9575 22.9586 63.9453 23.1022L63.9126 23.5143C63.1616 31.1222 57.5981 39.7003 47.3764 49.0114C42.6479 53.2937 37.5967 57.2056 32.2676 60.7125L32 60.882ZM16.7788 6.0138C12.5954 6.01845 8.58474 7.68235 5.62665 10.6404C2.66856 13.5985 1.00466 17.6092 1 21.7926C1 22.0704 1.00781 22.3468 1.022 22.6207C1.02884 22.756 1.04056 22.8912 1.05179 23.0265L1.08255 23.4166C2.72949 40.1017 29.0425 57.7604 32 59.6945C34.9575 57.7599 61.271 40.0978 62.9175 23.4161L62.9492 23.0172C62.9604 22.8854 62.9717 22.7535 62.978 22.6222C62.9922 22.3468 63 22.0705 63 21.7926C62.9998 18.1013 61.7056 14.5269 59.3424 11.6913C56.9792 8.85558 53.6967 6.93813 50.0659 6.27249C46.4351 5.60685 42.6859 6.23514 39.4705 8.04807C36.255 9.86099 33.777 12.7438 32.4673 16.195L32 17.4264L31.5327 16.1949C30.3865 13.2084 28.3643 10.638 25.7314 8.8211C23.0984 7.00421 19.9778 6.02564 16.7788 6.0138V6.0138Z" fill="white"/>
<path d="M36.0156 44.8291H27.9844V37.7979H20.9531V29.7666H27.9844V22.7354H36.0156V29.7666H43.0469V37.7979H36.0156V44.8291ZM28.9844 43.8291H35.0156V36.7979H42.0469V30.7666H35.0156V23.7354H28.9844V30.7666H21.9531V36.7979H28.9844V43.8291Z" fill="white"/>
</g>
<defs>
<clipPath id="clip0_17_2644">
<rect width="64.0001" height="64" fill="white" transform="translate(0 0.901855)"/>
</clipPath>
</defs>
</svg>
