<svg width="64" height="65" viewBox="0 0 64 65" fill="none" xmlns="http://www.w3.org/2000/svg">
<g clip-path="url(#clip0_17_2651)">
<path opacity="0.3" d="M9.5 1.44482V10.8998L16.25 8.10082V1.44482H9.5Z" fill="#231F20"/>
<path opacity="0.3" d="M5.881 30.2137L32 19.1757L58.119 30.2137V20.1317L32 9.09375L5.881 20.1317V30.2137Z" fill="#231F20"/>
<path opacity="0.3" d="M35.3377 29.3274H18.5755V40.2024H35.3377V29.3274Z" fill="#231F20"/>
<path d="M64 23.1602L32 9.63672L0 23.1602V14.4258L32 0.901855L64 14.4258V23.1602ZM32 8.55079L63 21.6523V15.0889L32 1.9878L1 15.0889V21.6523L32 8.55079Z" fill="white"/>
<path d="M10 10.8998H9V0.944824H16.75V8.10082H15.75V1.94482H10V10.8998Z" fill="white"/>
<path d="M58.619 64.9448H5.381V20.1318H6.381V63.9448H57.619V20.1318H58.619V64.9448Z" fill="white"/>
<path d="M52.0776 64.4449H51.0776V47.7603C51.0771 47.2963 50.8925 46.8515 50.5645 46.5234C50.2364 46.1954 49.7916 46.0108 49.3276 46.0103H14.6724C14.2084 46.0108 13.7636 46.1954 13.4355 46.5234C13.1075 46.8515 12.9229 47.2963 12.9224 47.7603V64.4449H11.9224V47.7603C11.9233 47.0312 12.2133 46.3322 12.7288 45.8167C13.2444 45.3012 13.9433 45.0112 14.6724 45.0103H49.3276C50.0567 45.0112 50.7557 45.3012 51.2712 45.8167C51.7867 46.3322 52.0767 47.0312 52.0776 47.7603V64.4449Z" fill="white"/>
<path d="M35.8374 40.7021H18.0757V28.8271H35.8374V40.7021ZM19.0757 39.7021H34.8374V29.8271H19.0757V39.7021Z" fill="white"/>
<path d="M27.4565 40.2021H26.4565V45.5103H27.4565V40.2021Z" fill="white"/>
<path d="M40.1968 51.4688H39.1968V59.2515H40.1968V51.4688Z" fill="white"/>
<path d="M33.9624 54.0937H32.9624V52.7812C32.9629 52.3007 33.154 51.84 33.4938 51.5002C33.8336 51.1604 34.2944 50.9693 34.7749 50.9687H43.1187C43.5826 50.9682 44.0274 50.7836 44.3555 50.4556C44.6835 50.1275 44.8681 49.6827 44.8687 49.2187V35.8511H45.8687V49.2187C45.8678 49.9478 45.5778 50.6468 45.0623 51.1624C44.5467 51.6779 43.8477 51.9679 43.1187 51.9687H34.7749C34.5595 51.9689 34.3529 52.0546 34.2006 52.2069C34.0482 52.3592 33.9626 52.5658 33.9624 52.7812V54.0937Z" fill="white"/>
<path d="M44.6235 64.4664C44.5677 63.1973 44.0242 61.9987 43.1064 61.1205C42.1887 60.2422 40.9674 59.752 39.697 59.752C38.4267 59.752 37.2054 60.2422 36.2876 61.1205C35.3699 61.9987 34.8264 63.1973 34.7705 64.4664L33.7715 64.4234C33.8383 62.8967 34.4918 61.4547 35.5958 60.398C36.6997 59.3413 38.1689 58.7515 39.6971 58.7515C41.2252 58.7515 42.6944 59.3413 43.7984 60.398C44.9023 61.4547 45.5558 62.8967 45.6226 64.4234L44.6235 64.4664Z" fill="white"/>
</g>
<defs>
<clipPath id="clip0_17_2651">
<rect width="64" height="64.043" fill="white" transform="translate(0 0.901855)"/>
</clipPath>
</defs>
</svg>
