<svg width="64" height="65" viewBox="0 0 64 65" fill="none" xmlns="http://www.w3.org/2000/svg">
<g clip-path="url(#clip0_17_2458)">
<path opacity="0.15" d="M9.5 0.542969V9.99797L16.25 7.19897V0.542969H9.5Z" fill="#183A9E"/>
<path opacity="0.15" d="M5.881 29.3119L32 18.2739L58.119 29.3119V19.2299L32 8.19189L5.881 19.2299V29.3119Z" fill="#183A9E"/>
<path opacity="0.15" d="M35.3377 28.4255H18.5755V39.3005H35.3377V28.4255Z" fill="#183A9E"/>
<path d="M64 22.2583L32 8.73486L0 22.2583V13.5239L32 0L64 13.5239V22.2583ZM32 7.64893L63 20.7505V14.187L32 1.08594L1 14.187V20.7505L32 7.64893Z" fill="#204ECF"/>
<path d="M10 9.99797H9V0.0429688H16.75V7.19897H15.75V1.04297H10V9.99797Z" fill="#204ECF"/>
<path d="M58.619 64.043H5.381V19.23H6.381V63.043H57.619V19.23H58.619V64.043Z" fill="#204ECF"/>
<path d="M52.0776 63.543H51.0776V46.8584C51.0771 46.3944 50.8925 45.9496 50.5645 45.6216C50.2364 45.2935 49.7916 45.109 49.3276 45.1084H14.6724C14.2084 45.109 13.7636 45.2935 13.4355 45.6216C13.1075 45.9496 12.9229 46.3944 12.9224 46.8584V63.543H11.9224V46.8584C11.9233 46.1293 12.2133 45.4304 12.7288 44.9149C13.2444 44.3993 13.9433 44.1093 14.6724 44.1084H49.3276C50.0567 44.1093 50.7557 44.3993 51.2712 44.9149C51.7867 45.4304 52.0767 46.1293 52.0776 46.8584V63.543Z" fill="#204ECF"/>
<path d="M35.8374 39.8003H18.0757V27.9253H35.8374V39.8003ZM19.0757 38.8003H34.8374V28.9253H19.0757V38.8003Z" fill="#204ECF"/>
<path d="M27.4565 39.3003H26.4565V44.6084H27.4565V39.3003Z" fill="#204ECF"/>
<path d="M40.1968 50.5669H39.1968V58.3496H40.1968V50.5669Z" fill="#204ECF"/>
<path d="M33.9624 53.1919H32.9624V51.8794C32.9629 51.3988 33.154 50.9381 33.4938 50.5983C33.8336 50.2585 34.2944 50.0674 34.7749 50.0669H43.1187C43.5826 50.0663 44.0274 49.8818 44.3555 49.5537C44.6835 49.2256 44.8681 48.7808 44.8687 48.3169V34.9492H45.8687V48.3169C45.8678 49.046 45.5778 49.745 45.0623 50.2605C44.5467 50.7761 43.8477 51.0661 43.1187 51.0669H34.7749C34.5595 51.0671 34.3529 51.1527 34.2006 51.305C34.0482 51.4574 33.9626 51.664 33.9624 51.8794V53.1919Z" fill="#204ECF"/>
<path d="M44.6235 63.5645C44.5677 62.2955 44.0242 61.0969 43.1064 60.2186C42.1887 59.3403 40.9674 58.8501 39.697 58.8501C38.4267 58.8501 37.2054 59.3403 36.2876 60.2186C35.3699 61.0969 34.8264 62.2955 34.7705 63.5645L33.7715 63.5215C33.8383 61.9948 34.4918 60.5528 35.5958 59.4961C36.6997 58.4394 38.1689 57.8496 39.6971 57.8496C41.2252 57.8496 42.6944 58.4394 43.7984 59.4961C44.9023 60.5528 45.5558 61.9948 45.6226 63.5215L44.6235 63.5645Z" fill="#204ECF"/>
</g>
<defs>
<clipPath id="clip0_17_2458">
<rect width="64" height="64.043" fill="white"/>
</clipPath>
</defs>
</svg>
