<svg width="66" height="65" viewBox="0 0 66 65" fill="none" xmlns="http://www.w3.org/2000/svg">
<g clip-path="url(#clip0_17_2474)">
<path opacity="0.15" d="M19.841 56.5264C18.9767 56.5264 18.1479 56.8697 17.5368 57.4808C16.9256 58.0919 16.5823 58.9208 16.5823 59.785V64.1299H23.0996V59.785C23.0996 58.9208 22.7563 58.092 22.1452 57.4809C21.5341 56.8697 20.7052 56.5264 19.841 56.5264V56.5264Z" fill="#183A9E"/>
<path opacity="0.15" d="M32.5748 56.5264C31.7105 56.5264 30.8817 56.8697 30.2705 57.4808C29.6594 58.0919 29.3161 58.9208 29.3161 59.785V64.1299H35.8334V59.785C35.8333 58.9208 35.49 58.092 34.8789 57.4808C34.2678 56.8697 33.439 56.5264 32.5748 56.5264Z" fill="#183A9E"/>
<path opacity="0.15" d="M45.3086 56.5264C44.4443 56.5264 43.6154 56.8697 43.0043 57.4808C42.3932 58.0919 42.0499 58.9208 42.0499 59.785V64.1299H48.5671V59.785C48.5671 58.9208 48.2238 58.092 47.6127 57.4808C47.0016 56.8697 46.1728 56.5264 45.3086 56.5264V56.5264Z" fill="#183A9E"/>
<path opacity="0.15" d="M54.9633 41.5632H10.1861V49.7862H54.9633V41.5632Z" fill="#183A9E"/>
<path d="M23.5996 64.1299H22.5996V59.7852C22.6003 59.4225 22.5295 59.0632 22.3911 58.7279C22.2528 58.3926 22.0497 58.0879 21.7935 57.8312C21.5373 57.5745 21.233 57.3708 20.8979 57.2319C20.5629 57.0929 20.2038 57.0214 19.8411 57.0214C19.4784 57.0214 19.1192 57.0929 18.7842 57.2319C18.4492 57.3708 18.1448 57.5745 17.8886 57.8312C17.6324 58.0879 17.4293 58.3926 17.291 58.7279C17.1527 59.0632 17.0818 59.4225 17.0825 59.7852V64.1299H16.0825V59.7852C16.0817 59.2911 16.1783 58.8017 16.3669 58.345C16.5554 57.8883 16.8321 57.4732 17.1812 57.1235C17.5303 56.7739 17.9449 56.4965 18.4013 56.3072C18.8577 56.1179 19.347 56.0205 19.8411 56.0205C20.3352 56.0205 20.8244 56.1179 21.2808 56.3072C21.7372 56.4965 22.1518 56.7739 22.5009 57.1235C22.85 57.4732 23.1268 57.8883 23.3153 58.345C23.5038 58.8017 23.6004 59.2911 23.5996 59.7852V64.1299Z" fill="#204ECF"/>
<path d="M36.3335 64.1299H35.3335V59.7852C35.3335 59.0535 35.0428 58.3518 34.5255 57.8344C34.0081 57.317 33.3064 57.0264 32.5747 57.0264C31.843 57.0264 31.1413 57.317 30.6239 57.8344C30.1066 58.3518 29.8159 59.0535 29.8159 59.7852V64.1299H28.8159V59.7852C28.8159 58.7883 29.2119 57.8322 29.9168 57.1273C30.6218 56.4224 31.5778 56.0264 32.5747 56.0264C33.5716 56.0264 34.5277 56.4224 35.2326 57.1273C35.9375 57.8322 36.3335 58.7883 36.3335 59.7852V64.1299Z" fill="#204ECF"/>
<path d="M49.0669 64.1299H48.0669V59.7852C48.0676 59.4225 47.9967 59.0632 47.8584 58.7279C47.7201 58.3926 47.517 58.0879 47.2608 57.8312C47.0046 57.5745 46.7002 57.3708 46.3652 57.2319C46.0302 57.0929 45.6711 57.0214 45.3084 57.0214C44.9457 57.0214 44.5865 57.0929 44.2515 57.2319C43.9165 57.3708 43.6121 57.5745 43.3559 57.8312C43.0997 58.0879 42.8966 58.3926 42.7583 58.7279C42.62 59.0632 42.5491 59.4225 42.5498 59.7852V64.1299H41.5498V59.7852C41.549 59.2911 41.6456 58.8017 41.8341 58.345C42.0227 57.8883 42.2994 57.4732 42.6485 57.1235C42.9976 56.7739 43.4122 56.4965 43.8686 56.3072C44.325 56.1179 44.8143 56.0205 45.3084 56.0205C45.8025 56.0205 46.2917 56.1179 46.7481 56.3072C47.2045 56.4965 47.6191 56.7739 47.9682 57.1235C48.3173 57.4732 48.594 57.8883 48.7826 58.345C48.9711 58.8017 49.0677 59.2911 49.0669 59.7852V64.1299Z" fill="#204ECF"/>
<path d="M64.0747 63.6299H1.07471V64.6299H64.0747V63.6299Z" fill="#204ECF"/>
<path d="M55.463 64.1301H54.463V26.4041H10.686V64.1301H9.686V25.4041H55.463V64.1301Z" fill="#204ECF"/>
<path d="M15.021 17.6582L9.28369 14.6416L3.54639 17.6582L4.64209 11.269L0 6.74463L6.415 5.8125L9.28369 0L12.1523 5.8125L18.5673 6.74463L13.9253 11.269L15.021 17.6582ZM9.28369 13.5117L13.6929 15.8301L12.8511 10.9199L16.418 7.44292L11.4883 6.72661L9.28369 2.25977L7.0791 6.72656L2.14941 7.44287L5.71631 10.9199L4.87451 15.83L9.28369 13.5117Z" fill="#204ECF"/>
<path d="M26.8369 17.6582L27.9331 11.269L23.2915 6.74463L29.7056 5.8125L32.5742 0L35.4434 5.8125L41.8579 6.74463L37.2158 11.269L38.312 17.6582L32.5742 14.6416L26.8369 17.6582ZM32.5742 13.5117L36.9839 15.8301L36.1416 10.9204L39.709 7.44287L34.7793 6.72656L32.5742 2.25977L30.3696 6.72656L25.4399 7.44287L29.0073 10.9204L28.165 15.8301L32.5742 13.5117Z" fill="#204ECF"/>
<path d="M61.603 17.6582L55.8657 14.6416L50.1284 17.6582L51.2241 11.269L46.582 6.74463L52.997 5.8125L55.8657 0L58.7344 5.8125L65.1494 6.74463L60.5073 11.269L61.603 17.6582ZM55.8657 13.5117L60.2749 15.8301L59.4331 10.9199L63 7.44287L58.0703 6.72656L55.8657 2.25977L53.6611 6.72656L48.7314 7.44287L52.2983 10.9199L51.4565 15.83L55.8657 13.5117Z" fill="#204ECF"/>
<path d="M54.9634 49.2861H10.186V50.2861H54.9634V49.2861Z" fill="#204ECF"/>
<path d="M23.0312 41.063H16.6509V42.063H23.0312V41.063Z" fill="#204ECF"/>
<path d="M23.0312 33.627H16.6509V34.627H23.0312V33.627Z" fill="#204ECF"/>
<path d="M35.7646 41.063H29.3848V42.063H35.7646V41.063Z" fill="#204ECF"/>
<path d="M35.7646 33.627H29.3848V34.627H35.7646V33.627Z" fill="#204ECF"/>
<path d="M48.4985 41.063H42.1182V42.063H48.4985V41.063Z" fill="#204ECF"/>
<path d="M48.4985 33.627H42.1182V34.627H48.4985V33.627Z" fill="#204ECF"/>
</g>
<defs>
<clipPath id="clip0_17_2474">
<rect width="65.1494" height="64.63" fill="white"/>
</clipPath>
</defs>
</svg>
