<svg width="66" height="66" viewBox="0 0 66 66" fill="none" xmlns="http://www.w3.org/2000/svg">
<g clip-path="url(#clip0_17_2667)">
<path opacity="0.3" d="M19.841 57.4282C18.9767 57.4282 18.1479 57.7715 17.5368 58.3827C16.9256 58.9938 16.5823 59.8226 16.5823 60.6869V65.0317H23.0996V60.6869C23.0996 59.8227 22.7563 58.9938 22.1452 58.3827C21.5341 57.7716 20.7052 57.4283 19.841 57.4282V57.4282Z" fill="#231F20"/>
<path opacity="0.3" d="M32.5748 57.4282C31.7105 57.4282 30.8817 57.7715 30.2705 58.3827C29.6594 58.9938 29.3161 59.8226 29.3161 60.6869V65.0317H35.8334V60.6869C35.8333 59.8227 35.49 58.9938 34.8789 58.3827C34.2678 57.7716 33.439 57.4282 32.5748 57.4282Z" fill="#231F20"/>
<path opacity="0.3" d="M45.3086 57.4282C44.4443 57.4282 43.6154 57.7715 43.0043 58.3827C42.3932 58.9938 42.0499 59.8226 42.0499 60.6869V65.0317H48.5671V60.6869C48.5671 59.8227 48.2238 58.9938 47.6127 58.3827C47.0016 57.7716 46.1728 57.4282 45.3086 57.4282V57.4282Z" fill="#231F20"/>
<path opacity="0.3" d="M54.9633 42.4651H10.1861V50.688H54.9633V42.4651Z" fill="#231F20"/>
<path d="M23.5996 65.0318H22.5996V60.687C22.6003 60.3243 22.5295 59.9651 22.3911 59.6298C22.2528 59.2945 22.0497 58.9898 21.7935 58.7331C21.5373 58.4763 21.233 58.2727 20.8979 58.1337C20.5629 57.9948 20.2038 57.9232 19.8411 57.9232C19.4784 57.9232 19.1192 57.9948 18.7842 58.1337C18.4492 58.2727 18.1448 58.4763 17.8886 58.7331C17.6324 58.9898 17.4293 59.2945 17.291 59.6298C17.1527 59.9651 17.0818 60.3243 17.0825 60.687V65.0318H16.0825V60.687C16.0817 60.1929 16.1783 59.7035 16.3669 59.2468C16.5554 58.7901 16.8321 58.375 17.1812 58.0254C17.5303 57.6757 17.9449 57.3983 18.4013 57.209C18.8577 57.0198 19.347 56.9224 19.8411 56.9224C20.3352 56.9224 20.8244 57.0198 21.2808 57.209C21.7372 57.3983 22.1518 57.6757 22.5009 58.0254C22.85 58.375 23.1268 58.7901 23.3153 59.2468C23.5038 59.7035 23.6004 60.1929 23.5996 60.687V65.0318Z" fill="white"/>
<path d="M36.3335 65.0317H35.3335V60.687C35.3335 59.9553 35.0428 59.2536 34.5255 58.7363C34.0081 58.2189 33.3064 57.9282 32.5747 57.9282C31.843 57.9282 31.1413 58.2189 30.6239 58.7363C30.1066 59.2536 29.8159 59.9553 29.8159 60.687V65.0317H28.8159V60.687C28.8159 59.6901 29.2119 58.7341 29.9168 58.0291C30.6218 57.3242 31.5778 56.9282 32.5747 56.9282C33.5716 56.9282 34.5277 57.3242 35.2326 58.0291C35.9375 58.7341 36.3335 59.6901 36.3335 60.687V65.0317Z" fill="white"/>
<path d="M49.0669 65.0318H48.0669V60.687C48.0676 60.3243 47.9967 59.9651 47.8584 59.6298C47.7201 59.2945 47.517 58.9898 47.2608 58.7331C47.0046 58.4763 46.7002 58.2727 46.3652 58.1337C46.0302 57.9948 45.6711 57.9232 45.3084 57.9232C44.9457 57.9232 44.5865 57.9948 44.2515 58.1337C43.9165 58.2727 43.6121 58.4763 43.3559 58.7331C43.0997 58.9898 42.8966 59.2945 42.7583 59.6298C42.62 59.9651 42.5491 60.3243 42.5498 60.687V65.0318H41.5498V60.687C41.549 60.1929 41.6456 59.7035 41.8341 59.2468C42.0227 58.7901 42.2994 58.375 42.6485 58.0254C42.9976 57.6757 43.4122 57.3983 43.8686 57.209C44.325 57.0198 44.8143 56.9224 45.3084 56.9224C45.8025 56.9224 46.2917 57.0198 46.7481 57.209C47.2045 57.3983 47.6191 57.6757 47.9682 58.0254C48.3173 58.375 48.594 58.7901 48.7826 59.2468C48.9711 59.7035 49.0677 60.1929 49.0669 60.687V65.0318Z" fill="white"/>
<path d="M64.0747 64.5317H1.07471V65.5317H64.0747V64.5317Z" fill="white"/>
<path d="M55.463 65.0319H54.463V27.3059H10.686V65.0319H9.686V26.3059H55.463V65.0319Z" fill="white"/>
<path d="M15.021 18.5601L9.28369 15.5435L3.54639 18.5601L4.64209 12.1709L0 7.64649L6.415 6.71436L9.28369 0.901855L12.1523 6.71436L18.5673 7.64649L13.9253 12.1709L15.021 18.5601ZM9.28369 14.4136L13.6929 16.7319L12.8511 11.8218L16.418 8.34478L11.4883 7.62847L9.28369 3.16163L7.0791 7.62842L2.14941 8.34473L5.71631 11.8217L4.87451 16.7319L9.28369 14.4136Z" fill="white"/>
<path d="M26.8369 18.5601L27.9331 12.1709L23.2915 7.64649L29.7056 6.71436L32.5742 0.901855L35.4434 6.71436L41.8579 7.64649L37.2158 12.1709L38.312 18.5601L32.5742 15.5435L26.8369 18.5601ZM32.5742 14.4136L36.9839 16.7319L36.1416 11.8223L39.709 8.34473L34.7793 7.62842L32.5742 3.16163L30.3696 7.62842L25.4399 8.34473L29.0073 11.8223L28.165 16.7319L32.5742 14.4136Z" fill="white"/>
<path d="M61.603 18.5601L55.8657 15.5435L50.1284 18.5601L51.2241 12.1709L46.582 7.64649L52.997 6.71436L55.8657 0.901855L58.7344 6.71436L65.1494 7.64649L60.5073 12.1709L61.603 18.5601ZM55.8657 14.4136L60.2749 16.7319L59.4331 11.8218L63 8.34473L58.0703 7.62842L55.8657 3.16163L53.6611 7.62842L48.7314 8.34473L52.2983 11.8217L51.4565 16.7319L55.8657 14.4136Z" fill="white"/>
<path d="M54.9634 50.188H10.186V51.188H54.9634V50.188Z" fill="white"/>
<path d="M23.0312 41.9648H16.6509V42.9648H23.0312V41.9648Z" fill="white"/>
<path d="M23.0312 34.5288H16.6509V35.5288H23.0312V34.5288Z" fill="white"/>
<path d="M35.7646 41.9648H29.3848V42.9648H35.7646V41.9648Z" fill="white"/>
<path d="M35.7646 34.5288H29.3848V35.5288H35.7646V34.5288Z" fill="white"/>
<path d="M48.4985 41.9648H42.1182V42.9648H48.4985V41.9648Z" fill="white"/>
<path d="M48.4985 34.5288H42.1182V35.5288H48.4985V34.5288Z" fill="white"/>
</g>
<defs>
<clipPath id="clip0_17_2667">
<rect width="65.1494" height="64.63" fill="white" transform="translate(0 0.901855)"/>
</clipPath>
</defs>
</svg>
