<svg width="64" height="64" viewBox="0 0 64 64" fill="none" xmlns="http://www.w3.org/2000/svg">
<g clip-path="url(#clip0_17_2497)">
<path opacity="0.15" d="M33.2027 42.9581V31.9999C33.2018 30.8046 33.5745 29.6389 34.2688 28.6659C34.9631 27.6929 35.9441 26.9612 37.0747 26.5733C40.7997 25.2973 43.907 22.6644 45.7772 19.1995H18.2229C20.093 22.6643 23.2001 25.2972 26.925 26.5733C28.0556 26.9612 29.0368 27.6928 29.7311 28.6658C30.4254 29.6388 30.7982 30.8046 30.7973 31.9999V42.9581L14.9064 58.8467H49.0912L33.2027 42.9581Z" fill="#183A9E"/>
<path d="M55.1318 64H8.86816V61.4531C8.86937 60.4301 9.24475 59.4428 9.92354 58.6774C10.6023 57.912 11.5377 57.4213 12.5532 57.2979V52.2349C12.5551 48.1825 13.8235 44.2321 16.1811 40.9362C18.5388 37.6403 21.8677 35.1638 25.7022 33.853C26.0871 33.7194 26.421 33.4692 26.6572 33.1371C26.8935 32.8051 27.0205 32.4077 27.0205 32.0001C27.0206 31.5926 26.8937 31.1952 26.6575 30.8631C26.4213 30.531 26.0876 30.2807 25.7026 30.1469C21.8681 28.8363 18.539 26.3598 16.1813 23.0639C13.8236 19.768 12.5551 15.8175 12.5532 11.7651V6.70214C11.5377 6.57867 10.6023 6.08799 9.92355 5.32259C9.24475 4.55718 8.86937 3.56992 8.86816 2.54688V0H55.1318V2.54688C55.1306 3.56992 54.7553 4.55718 54.0765 5.32259C53.3977 6.088 52.4623 6.57868 51.4468 6.70215V11.7652C51.4449 15.8175 50.1765 19.7679 47.8189 23.0638C45.4612 26.3597 42.1323 28.8362 38.2979 30.147C37.9129 30.2806 37.579 30.5308 37.3428 30.8629C37.1065 31.1949 36.9795 31.5923 36.9795 31.9999C36.9794 32.4074 37.1063 32.8048 37.3425 33.1369C37.5787 33.469 37.9124 33.7193 38.2974 33.8531C42.132 35.1637 45.461 37.6402 47.8187 40.9361C50.1764 44.232 51.4449 48.1825 51.4468 52.2349V57.2979C52.4623 57.4213 53.3977 57.912 54.0765 58.6774C54.7553 59.4428 55.1306 60.4301 55.1318 61.4531V64ZM9.86816 63H54.1318V61.4531C54.1309 60.6087 53.795 59.7991 53.1979 59.202C52.6008 58.6049 51.7912 58.269 50.9468 58.2681H50.4468V52.2349C50.4449 48.391 49.2415 44.6439 47.0051 41.5177C44.7686 38.3915 41.6109 36.0425 37.9736 34.7993C37.3914 34.598 36.8864 34.2202 36.5289 33.7184C36.1715 33.2166 35.9794 32.6159 35.9795 31.9998C35.9796 31.3838 36.1717 30.783 36.5292 30.2813C36.8868 29.7796 37.3918 29.4019 37.9741 29.2007C41.6113 27.9574 44.7689 25.6084 47.0052 22.4822C49.2416 19.356 50.4449 15.6089 50.4468 11.7651V5.73193H50.9468C51.7912 5.73101 52.6008 5.39515 53.1979 4.79803C53.7951 4.20092 54.1309 3.39133 54.1318 2.54688V1H9.86816V2.54688C9.86909 3.39133 10.205 4.20092 10.8021 4.79803C11.3992 5.39515 12.2088 5.73101 13.0532 5.73193H13.5532V11.7651C13.5551 15.609 14.7585 19.3561 16.9949 22.4823C19.2314 25.6085 22.3891 27.9575 26.0264 29.2007C26.6086 29.402 27.1136 29.7798 27.4711 30.2816C27.8285 30.7834 28.0206 31.3841 28.0205 32.0002C28.0205 32.6162 27.8283 33.217 27.4708 33.7187C27.1133 34.2204 26.6082 34.5981 26.0259 34.7993C22.3887 36.0426 19.2311 38.3916 16.9948 41.5178C14.7584 44.644 13.5551 48.3911 13.5532 52.2349V58.2681H13.0532C12.2088 58.269 11.3992 58.6048 10.8021 59.202C10.205 59.7991 9.8691 60.6086 9.86816 61.4531V63Z" fill="#204ECF"/>
</g>
<defs>
<clipPath id="clip0_17_2497">
<rect width="64" height="64" fill="white"/>
</clipPath>
</defs>
</svg>
