<svg width="64" height="65" viewBox="0 0 64 64" fill="none" xmlns="http://www.w3.org/2000/svg">
<g clip-path="url(#clip0_17_2690)">
<path opacity="0.3" d="M33.2027 43.8599V32.9018C33.2018 31.7065 33.5745 30.5408 34.2688 29.5678C34.9631 28.5948 35.9441 27.8631 37.0747 27.4751C40.7997 26.1992 43.907 23.5663 45.7772 20.1013H18.2229C20.093 23.5662 23.2001 26.1991 26.925 27.4751C28.0556 27.863 29.0368 28.5946 29.7311 29.5677C30.4254 30.5407 30.7982 31.7064 30.7973 32.9018V43.8599L14.9064 59.7486H49.0912L33.2027 43.8599Z" fill="#231F20"/>
<path d="M55.1318 64.9019H8.86816V62.355C8.86937 61.3319 9.24475 60.3447 9.92354 59.5793C10.6023 58.8139 11.5377 58.3232 12.5532 58.1997V53.1367C12.5551 49.0844 13.8235 45.134 16.1811 41.8381C18.5388 38.5422 21.8677 36.0656 25.7022 34.7549C26.0871 34.6212 26.421 34.371 26.6572 34.039C26.8935 33.7069 27.0205 33.3095 27.0205 32.902C27.0206 32.4945 26.8937 32.0971 26.6575 31.7649C26.4213 31.4328 26.0876 31.1825 25.7026 31.0488C21.8681 29.7382 18.539 27.2617 16.1813 23.9658C13.8236 20.6698 12.5551 16.7194 12.5532 12.667V7.604C11.5377 7.48053 10.6023 6.98985 9.92355 6.22444C9.24475 5.45904 8.86937 4.47177 8.86816 3.44874V0.901855H55.1318V3.44874C55.1306 4.47177 54.7553 5.45904 54.0765 6.22445C53.3977 6.98986 52.4623 7.48054 51.4468 7.60401V12.667C51.4449 16.7193 50.1765 20.6697 47.8189 23.9657C45.4612 27.2616 42.1323 29.7381 38.2979 31.0489C37.9129 31.1825 37.579 31.4327 37.3428 31.7648C37.1065 32.0968 36.9795 32.4942 36.9795 32.9017C36.9794 33.3092 37.1063 33.7067 37.3425 34.0388C37.5787 34.3709 37.9124 34.6212 38.2974 34.7549C42.132 36.0656 45.461 38.542 47.8187 41.838C50.1764 45.1339 51.4449 49.0843 51.4468 53.1367V58.1997C52.4623 58.3232 53.3977 58.8139 54.0765 59.5793C54.7553 60.3447 55.1306 61.3319 55.1318 62.355V64.9019ZM9.86816 63.9019H54.1318V62.355C54.1309 61.5105 53.795 60.701 53.1979 60.1039C52.6008 59.5068 51.7912 59.1709 50.9468 59.17H50.4468V53.1367C50.4449 49.2929 49.2415 45.5458 47.0051 42.4195C44.7686 39.2933 41.6109 36.9443 37.9736 35.7012C37.3914 35.4999 36.8864 35.1221 36.5289 34.6203C36.1715 34.1185 35.9794 33.5177 35.9795 32.9017C35.9796 32.2856 36.1717 31.6849 36.5292 31.1832C36.8868 30.6815 37.3918 30.3037 37.9741 30.1025C41.6113 28.8593 44.7689 26.5103 47.0052 23.384C49.2416 20.2578 50.4449 16.5108 50.4468 12.667V6.63379H50.9468C51.7912 6.63286 52.6008 6.297 53.1979 5.69989C53.7951 5.10278 54.1309 4.29318 54.1318 3.44874V1.90186H9.86816V3.44874C9.86909 4.29318 10.205 5.10278 10.8021 5.69989C11.3992 6.297 12.2088 6.63286 13.0532 6.63379H13.5532V12.667C13.5551 16.5108 14.7585 20.2579 16.9949 23.3842C19.2314 26.5104 22.3891 28.8594 26.0264 30.1025C26.6086 30.3038 27.1136 30.6816 27.4711 31.1834C27.8285 31.6852 28.0206 32.286 28.0205 32.902C28.0205 33.5181 27.8283 34.1188 27.4708 34.6205C27.1133 35.1223 26.6082 35.5 26.0259 35.7012C22.3887 36.9444 19.2311 39.2935 16.9948 42.4197C14.7584 45.5459 13.5551 49.2929 13.5532 53.1367V59.1699H13.0532C12.2088 59.1708 11.3992 59.5067 10.8021 60.1038C10.205 60.7009 9.8691 61.5105 9.86816 62.3549V63.9019Z" fill="white"/>
</g>
<defs>
<clipPath id="clip0_17_2690">
<rect width="64" height="64" fill="white" transform="translate(0 0.901855)"/>
</clipPath>
</defs>
</svg>
