<svg width="64" height="65" viewBox="0 0 64 65" fill="none" xmlns="http://www.w3.org/2000/svg">
<g clip-path="url(#clip0_17_2517)">
<path opacity="0.15" d="M41.5625 38.2305H22.4375V63.5429H41.5625V38.2305Z" fill="#183A9E"/>
<path opacity="0.15" d="M9.5 0.542969V9.99797L16.25 7.19897V0.542969H9.5Z" fill="#183A9E"/>
<path opacity="0.15" d="M5.8811 28.2257L29.3679 18.2997C30.2008 17.9477 31.0958 17.7663 32 17.7663C32.9042 17.7663 33.7992 17.9477 34.6321 18.2997L58.1189 28.2257V19.2299L32 8.19165L5.8811 19.2299V28.2257Z" fill="#183A9E"/>
<path d="M64 22.2583L32 8.73486L0 22.2583V13.5239L32 0L32.1943 0.08252L64 13.5239V22.2583ZM32 7.64893L32.1943 7.73145L63 20.7505V14.187L32 1.08594L1 14.187V20.7505L32 7.64893Z" fill="#204ECF"/>
<path d="M10 9.99797H9V0.0429688H16.75V7.19897H15.75V1.04297H10V9.99797Z" fill="#204ECF"/>
<path d="M58.619 64.043H5.38098V19.23H6.38098V63.043H57.619V19.23H58.619V64.043Z" fill="#204ECF"/>
<path d="M32 31.3916C30.6032 31.3916 29.2377 30.9774 28.0763 30.2014C26.9149 29.4253 26.0097 28.3223 25.4751 27.0318C24.9406 25.7413 24.8007 24.3213 25.0732 22.9513C25.3457 21.5813 26.0183 20.3229 27.0061 19.3352C27.9938 18.3475 29.2522 17.6748 30.6222 17.4023C31.9922 17.1298 33.4122 17.2697 34.7027 17.8042C35.9932 18.3387 37.0962 19.244 37.8723 20.4054C38.6483 21.5668 39.0625 22.9323 39.0625 24.3291C39.0604 26.2015 38.3156 27.9967 36.9916 29.3207C35.6676 30.6447 33.8725 31.3895 32 31.3916V31.3916ZM32 18.2666C30.801 18.2666 29.6288 18.6222 28.6319 19.2883C27.6349 19.9545 26.8578 20.9013 26.399 22.0091C25.9401 23.1168 25.8201 24.3358 26.054 25.5118C26.2879 26.6878 26.8653 27.7681 27.7132 28.6159C28.561 29.4638 29.6413 30.0412 30.8173 30.2751C31.9933 30.509 33.2122 30.389 34.32 29.9301C35.4278 29.4713 36.3746 28.6942 37.0408 27.6973C37.7069 26.7003 38.0625 25.5282 38.0625 24.3291C38.0606 22.7218 37.4213 21.1809 36.2848 20.0443C35.1483 18.9078 33.6073 18.2685 32 18.2666V18.2666Z" fill="#204ECF"/>
<path d="M42.062 63.543H41.062V38.73H22.937V63.543H21.937V37.73H42.062V63.543Z" fill="#204ECF"/>
</g>
<defs>
<clipPath id="clip0_17_2517">
<rect width="64.0002" height="64.043" fill="white"/>
</clipPath>
</defs>
</svg>
