<svg width="64" height="65" viewBox="0 0 64 64" fill="none" xmlns="http://www.w3.org/2000/svg">
<g clip-path="url(#clip0_17_2710)">
<path opacity="0.3" d="M41.5625 39.1323H22.4375V64.4448H41.5625V39.1323Z" fill="#231F20"/>
<path opacity="0.3" d="M9.5 1.44482V10.8998L16.25 8.10082V1.44482H9.5Z" fill="#231F20"/>
<path opacity="0.3" d="M5.8811 29.1275L29.3679 19.2015C30.2008 18.8495 31.0958 18.6682 32 18.6682C32.9042 18.6682 33.7992 18.8495 34.6321 19.2015L58.1189 29.1275V20.1318L32 9.09351L5.8811 20.1318V29.1275Z" fill="#231F20"/>
<path d="M64 23.1602L32 9.63672L0 23.1602V14.4258L32 0.901855L32.1943 0.984375L64 14.4258V23.1602ZM32 8.55079L32.1943 8.63331L63 21.6523V15.0889L32 1.9878L1 15.0889V21.6523L32 8.55079Z" fill="white"/>
<path d="M10 10.8998H9V0.944824H16.75V8.10082H15.75V1.94482H10V10.8998Z" fill="white"/>
<path d="M58.619 64.9448H5.38098V20.1318H6.38098V63.9448H57.619V20.1318H58.619V64.9448Z" fill="white"/>
<path d="M32 32.2935C30.6032 32.2935 29.2377 31.8793 28.0763 31.1032C26.9149 30.3272 26.0097 29.2242 25.4751 27.9337C24.9406 26.6432 24.8007 25.2231 25.0732 23.8531C25.3457 22.4832 26.0183 21.2247 27.0061 20.237C27.9938 19.2493 29.2522 18.5767 30.6222 18.3042C31.9922 18.0317 33.4122 18.1715 34.7027 18.7061C35.9932 19.2406 37.0962 20.1458 37.8723 21.3072C38.6483 22.4687 39.0625 23.8341 39.0625 25.231C39.0604 27.1034 38.3156 28.8985 36.9916 30.2226C35.6676 31.5466 33.8725 32.2913 32 32.2935V32.2935ZM32 19.1685C30.801 19.1685 29.6288 19.524 28.6319 20.1902C27.6349 20.8563 26.8578 21.8032 26.399 22.9109C25.9401 24.0187 25.8201 25.2377 26.054 26.4137C26.2879 27.5897 26.8653 28.6699 27.7132 29.5178C28.561 30.3656 29.6413 30.943 30.8173 31.177C31.9933 31.4109 33.2122 31.2908 34.32 30.832C35.4278 30.3731 36.3746 29.5961 37.0408 28.5991C37.7069 27.6021 38.0625 26.43 38.0625 25.231C38.0606 23.6237 37.4213 22.0827 36.2848 20.9462C35.1483 19.8096 33.6073 19.1703 32 19.1685V19.1685Z" fill="white"/>
<path d="M42.062 64.4448H41.062V39.6318H22.937V64.4448H21.937V38.6318H42.062V64.4448Z" fill="white"/>
</g>
<defs>
<clipPath id="clip0_17_2710">
<rect width="64.0002" height="64.043" fill="white" transform="translate(0 0.901855)"/>
</clipPath>
</defs>
</svg>
