<svg width="64" height="65" viewBox="0 0 64 64" fill="none" xmlns="http://www.w3.org/2000/svg">
<g clip-path="url(#clip0_17_2722)">
<path opacity="0.3" d="M32 39.6362C36.2593 39.6362 39.712 36.1834 39.712 31.9242C39.712 27.6649 36.2593 24.2122 32 24.2122C27.7408 24.2122 24.288 27.6649 24.288 31.9242C24.288 36.1834 27.7408 39.6362 32 39.6362Z" fill="#231F20"/>
<path opacity="0.3" d="M32 39.6362C29.9552 39.6362 27.9304 40.039 26.0413 40.8215C24.1522 41.604 22.4356 42.751 20.9897 44.1968C19.5438 45.6427 18.3969 47.3593 17.6144 49.2484C16.8319 51.1376 16.4291 53.1623 16.4291 55.2071L47.5709 55.2072C47.5709 53.1624 47.1682 51.1376 46.3857 49.2485C45.6032 47.3593 44.4562 45.6428 43.0103 44.1969C41.5644 42.751 39.8479 41.604 37.9588 40.8215C36.0696 40.039 34.0448 39.6362 32 39.6362Z" fill="#231F20"/>
<path d="M32 64.9019C25.671 64.9019 19.4841 63.0251 14.2218 59.5089C8.95939 55.9927 4.85787 50.995 2.43587 45.1477C0.013865 39.3005 -0.619842 32.8664 0.614885 26.659C1.84961 20.4516 4.89732 14.7497 9.3726 10.2745C13.8479 5.79917 19.5497 2.75147 25.7571 1.51674C31.9645 0.282014 38.3986 0.91572 44.2459 3.33772C50.0931 5.75973 55.0908 9.86125 58.607 15.1236C62.1232 20.386 64 26.5729 64 32.9019C63.9905 41.3859 60.616 49.5197 54.6169 55.5188C48.6178 61.5179 40.484 64.8923 32 64.9019ZM32 1.90187C25.8688 1.90187 19.8753 3.71999 14.7773 7.12631C9.67941 10.5326 5.70607 15.3742 3.35975 21.0387C1.01343 26.7032 0.399529 32.9363 1.59567 38.9497C2.79181 44.9631 5.74428 50.4868 10.0797 54.8222C14.4151 59.1576 19.9388 62.1101 25.9522 63.3062C31.9656 64.5024 38.1987 63.8885 43.8632 61.5421C49.5277 59.1958 54.3693 55.2225 57.7756 50.1245C61.1819 45.0266 63 39.0331 63 32.9019C62.9907 24.683 59.7216 16.8035 53.91 10.9919C48.0984 5.1803 40.2189 1.91123 32 1.90187V1.90187Z" fill="white"/>
<path d="M32 40.1362C30.3759 40.1362 28.7882 39.6546 27.4377 38.7523C26.0873 37.85 25.0347 36.5674 24.4132 35.0669C23.7916 33.5664 23.629 31.9152 23.9459 30.3223C24.2627 28.7293 25.0448 27.2661 26.1933 26.1176C27.3418 24.9692 28.805 24.1871 30.3979 23.8702C31.9909 23.5533 33.642 23.716 35.1426 24.3375C36.6431 24.959 37.9256 26.0116 38.828 27.362C39.7303 28.7125 40.2119 30.3002 40.2119 31.9243C40.2094 34.1015 39.3434 36.1887 37.8039 37.7282C36.2644 39.2677 34.1772 40.1337 32 40.1362ZM32 24.7124C30.5736 24.7124 29.1793 25.1354 27.9933 25.9278C26.8073 26.7203 25.8829 27.8466 25.3371 29.1644C24.7912 30.4823 24.6484 31.9323 24.9267 33.3313C25.2049 34.7303 25.8918 36.0153 26.9004 37.0239C27.909 38.0325 29.1941 38.7194 30.593 38.9977C31.992 39.276 33.4421 39.1331 34.7599 38.5873C36.0777 38.0414 37.2041 37.1171 37.9965 35.9311C38.789 34.7451 39.2119 33.3507 39.2119 31.9243C39.2097 30.0123 38.4492 28.1792 37.0972 26.8272C35.7452 25.4751 33.9121 24.7146 32 24.7124V24.7124Z" fill="white"/>
<path d="M48.0708 55.207H47.0708C47.0708 51.21 45.483 47.3767 42.6567 44.5504C39.8303 41.724 35.997 40.1362 32 40.1362C28.003 40.1362 24.1697 41.724 21.3433 44.5504C18.517 47.3767 16.9292 51.21 16.9292 55.207H15.9292C15.9292 50.9448 17.6224 46.8571 20.6362 43.8433C23.6501 40.8294 27.7378 39.1362 32 39.1362C36.2622 39.1362 40.3499 40.8294 43.3638 43.8433C46.3776 46.8571 48.0708 50.9448 48.0708 55.207V55.207Z" fill="white"/>
<path d="M32.1397 20.0958H31.8604C31.2379 20.0951 30.6412 19.8475 30.2011 19.4074C29.761 18.9673 29.5134 18.3705 29.5127 17.7481C29.5275 16.0033 28.9726 14.3013 27.9321 12.9005C27.3623 12.1652 27.0522 11.2619 27.0503 10.3316C27.1129 9.07893 27.6685 7.90186 28.5958 7.05732C29.5232 6.21278 30.7469 5.76936 32 5.82382C33.2531 5.76936 34.4768 6.21278 35.4042 7.05732C36.3315 7.90186 36.8871 9.07893 36.9497 10.3316C36.9478 11.2619 36.6377 12.1652 36.0679 12.9005C35.0274 14.3013 34.4725 16.0033 34.4873 17.7481C34.4866 18.3705 34.239 18.9673 33.7989 19.4074C33.3588 19.8475 32.7621 20.0951 32.1397 20.0958V20.0958ZM32 6.82382C31.0122 6.76994 30.0431 7.10823 29.3035 7.76513C28.5638 8.42203 28.1134 9.3444 28.0503 10.3316C28.0527 11.0426 28.2907 11.7327 28.7271 12.294C29.9002 13.8692 30.5272 15.7842 30.5127 17.7481C30.5131 18.1054 30.6552 18.448 30.9078 18.7006C31.1605 18.9533 31.5031 19.0954 31.8604 19.0958H32.1397C32.497 19.0954 32.8395 18.9533 33.0922 18.7006C33.3448 18.448 33.4869 18.1054 33.4873 17.7481C33.4729 15.7842 34.0998 13.8692 35.273 12.294C35.7093 11.7327 35.9473 11.0426 35.9497 10.3316C35.8866 9.3444 35.4362 8.42203 34.6965 7.76513C33.9569 7.10823 32.9878 6.76994 32 6.82382V6.82382Z" fill="white"/>
</g>
<defs>
<clipPath id="clip0_17_2722">
<rect width="64" height="64" fill="white" transform="translate(0 0.901855)"/>
</clipPath>
</defs>
</svg>
