<svg width="64" height="64" viewBox="0 0 64 64" fill="none" xmlns="http://www.w3.org/2000/svg">
<g clip-path="url(#clip0_17_2529)">
<path opacity="0.15" d="M32 38.7343C36.2593 38.7343 39.712 35.2815 39.712 31.0223C39.712 26.7631 36.2593 23.3103 32 23.3103C27.7408 23.3103 24.288 26.7631 24.288 31.0223C24.288 35.2815 27.7408 38.7343 32 38.7343Z" fill="#183A9E"/>
<path opacity="0.15" d="M32 38.7344C29.9552 38.7344 27.9304 39.1371 26.0413 39.9196C24.1522 40.7022 22.4356 41.8491 20.9897 43.295C19.5438 44.7409 18.3969 46.4574 17.6144 48.3466C16.8319 50.2357 16.4291 52.2605 16.4291 54.3053L47.5709 54.3054C47.5709 52.2606 47.1682 50.2358 46.3857 48.3466C45.6032 46.4575 44.4562 44.7409 43.0103 43.295C41.5644 41.8491 39.8479 40.7022 37.9588 39.9197C36.0696 39.1371 34.0448 38.7344 32 38.7344Z" fill="#183A9E"/>
<path d="M32 64C25.671 64 19.4841 62.1232 14.2218 58.607C8.95939 55.0908 4.85787 50.0931 2.43587 44.2459C0.013865 38.3986 -0.619842 31.9645 0.614885 25.7571C1.84961 19.5497 4.89732 13.8479 9.3726 9.3726C13.8479 4.89732 19.5497 1.84961 25.7571 0.614885C31.9645 -0.619842 38.3986 0.013865 44.2459 2.43587C50.0931 4.85787 55.0908 8.95939 58.607 14.2218C62.1232 19.4841 64 25.671 64 32C63.9905 40.484 60.616 48.6178 54.6169 54.6169C48.6178 60.616 40.484 63.9905 32 64ZM32 1.00001C25.8688 1.00001 19.8753 2.81813 14.7773 6.22446C9.67941 9.63078 5.70607 14.4723 3.35975 20.1368C1.01343 25.8013 0.399529 32.0344 1.59567 38.0478C2.79181 44.0612 5.74428 49.5849 10.0797 53.9203C14.4151 58.2558 19.9388 61.2082 25.9522 62.4044C31.9656 63.6005 38.1987 62.9866 43.8632 60.6403C49.5277 58.294 54.3693 54.3206 57.7756 49.2227C61.1819 44.1248 63 38.1312 63 32C62.9907 23.7812 59.7216 15.9016 53.91 10.09C48.0984 4.27844 40.2189 1.00937 32 1.00001V1.00001Z" fill="#204ECF"/>
<path d="M32 39.2344C30.3759 39.2344 28.7882 38.7528 27.4377 37.8504C26.0873 36.9481 25.0347 35.6656 24.4132 34.165C23.7916 32.6645 23.629 31.0134 23.9459 29.4204C24.2627 27.8275 25.0448 26.3642 26.1933 25.2158C27.3418 24.0673 28.805 23.2852 30.3979 22.9683C31.9909 22.6515 33.642 22.8141 35.1426 23.4356C36.6431 24.0572 37.9256 25.1097 38.828 26.4602C39.7303 27.8106 40.2119 29.3983 40.2119 31.0225C40.2094 33.1996 39.3434 35.2869 37.8039 36.8264C36.2644 38.3658 34.1772 39.2318 32 39.2344ZM32 23.8106C30.5736 23.8106 29.1793 24.2335 27.9933 25.026C26.8073 25.8184 25.8829 26.9448 25.3371 28.2626C24.7912 29.5804 24.6484 31.0305 24.9267 32.4295C25.2049 33.8284 25.8918 35.1135 26.9004 36.1221C27.909 37.1307 29.1941 37.8176 30.593 38.0958C31.992 38.3741 33.4421 38.2313 34.7599 37.6854C36.0777 37.1396 37.2041 36.2152 37.9965 35.0292C38.789 33.8432 39.2119 32.4489 39.2119 31.0225C39.2097 29.1104 38.4492 27.2773 37.0972 25.9253C35.7452 24.5733 33.9121 23.8128 32 23.8106V23.8106Z" fill="#204ECF"/>
<path d="M48.0708 54.3052H47.0708C47.0708 50.3082 45.483 46.4748 42.6567 43.6485C39.8303 40.8222 35.997 39.2344 32 39.2344C28.003 39.2344 24.1697 40.8222 21.3433 43.6485C18.517 46.4748 16.9292 50.3082 16.9292 54.3052H15.9292C15.9292 50.0429 17.6224 45.9553 20.6362 42.9414C23.6501 39.9275 27.7378 38.2344 32 38.2344C36.2622 38.2344 40.3499 39.9275 43.3638 42.9414C46.3776 45.9553 48.0708 50.0429 48.0708 54.3052V54.3052Z" fill="#204ECF"/>
<path d="M32.1397 19.1939H31.8604C31.2379 19.1932 30.6412 18.9456 30.2011 18.5055C29.761 18.0654 29.5134 17.4687 29.5127 16.8463C29.5275 15.1014 28.9726 13.3994 27.9321 11.9986C27.3623 11.2634 27.0522 10.36 27.0503 9.42978C27.1129 8.17708 27.6685 7 28.5958 6.15547C29.5232 5.31093 30.7469 4.8675 32 4.92196C33.2531 4.8675 34.4768 5.31093 35.4042 6.15547C36.3315 7 36.8871 8.17708 36.9497 9.42978C36.9478 10.36 36.6377 11.2634 36.0679 11.9986C35.0274 13.3994 34.4725 15.1014 34.4873 16.8463C34.4866 17.4687 34.239 18.0654 33.7989 18.5055C33.3588 18.9456 32.7621 19.1932 32.1397 19.1939V19.1939ZM32 5.92196C31.0122 5.86808 30.0431 6.20638 29.3035 6.86328C28.5638 7.52018 28.1134 8.44255 28.0503 9.42978C28.0527 10.1407 28.2907 10.8309 28.7271 11.3922C29.9002 12.9673 30.5272 14.8823 30.5127 16.8463C30.5131 17.2036 30.6552 17.5461 30.9078 17.7988C31.1605 18.0514 31.5031 18.1936 31.8604 18.1939H32.1397C32.497 18.1936 32.8395 18.0514 33.0922 17.7988C33.3448 17.5461 33.4869 17.2036 33.4873 16.8463C33.4729 14.8823 34.0998 12.9673 35.273 11.3922C35.7093 10.8309 35.9473 10.1407 35.9497 9.42978C35.8866 8.44255 35.4362 7.52018 34.6965 6.86328C33.9569 6.20638 32.9878 5.86808 32 5.92196V5.92196Z" fill="#204ECF"/>
</g>
<defs>
<clipPath id="clip0_17_2529">
<rect width="64" height="64" fill="white"/>
</clipPath>
</defs>
</svg>
