<svg width="64" height="64" viewBox="0 0 64 64" fill="none" xmlns="http://www.w3.org/2000/svg">
<g clip-path="url(#clip0_17_2539)">
<path opacity="0.15" d="M20.0952 43.4766C23.2644 43.4766 25.8335 40.9075 25.8335 37.7383C25.8335 34.5691 23.2644 32 20.0952 32C16.926 32 14.3569 34.5691 14.3569 37.7383C14.3569 40.9075 16.926 43.4766 20.0952 43.4766Z" fill="#183A9E"/>
<path opacity="0.15" d="M20.0951 43.4766C18.5736 43.4766 17.067 43.7763 15.6613 44.3585C14.2557 44.9408 12.9784 45.7942 11.9026 46.8701C10.8268 47.9459 9.97335 49.2231 9.39111 50.6288C8.80887 52.0345 8.50921 53.5411 8.50922 55.0626H31.681C31.681 51.9898 30.4604 49.0428 28.2876 46.87C26.1148 44.6972 23.1679 43.4766 20.0951 43.4766V43.4766Z" fill="#183A9E"/>
<path d="M64 64H0V20.813H20.825V21.813H1V63H63V21.813H43.176V20.813H64V64Z" fill="#204ECF"/>
<path d="M20.0952 43.9766C18.8614 43.9766 17.6553 43.6107 16.6294 42.9252C15.6035 42.2397 14.804 41.2655 14.3318 40.1256C13.8596 38.9857 13.7361 37.7314 13.9768 36.5212C14.2175 35.3111 14.8117 34.1996 15.6841 33.3271C16.5565 32.4547 17.6681 31.8606 18.8782 31.6199C20.0883 31.3792 21.3426 31.5027 22.4825 31.9749C23.6224 32.447 24.5967 33.2466 25.2822 34.2725C25.9676 35.2984 26.3335 36.5045 26.3335 37.7383C26.3317 39.3922 25.6738 40.9779 24.5043 42.1474C23.3348 43.3169 21.7491 43.9747 20.0952 43.9766V43.9766ZM20.0952 32.5C19.0592 32.5 18.0464 32.8072 17.185 33.3828C16.3235 33.9584 15.6521 34.7765 15.2557 35.7337C14.8592 36.6909 14.7555 37.7441 14.9576 38.7602C15.1597 39.7764 15.6586 40.7097 16.3912 41.4423C17.1238 42.1749 18.0572 42.6738 19.0733 42.8759C20.0894 43.078 21.1427 42.9743 22.0998 42.5778C23.057 42.1814 23.8751 41.5099 24.4507 40.6485C25.0263 39.7871 25.3335 38.7743 25.3335 37.7383C25.3319 36.3495 24.7794 35.0181 23.7974 34.0361C22.8154 33.0541 21.484 32.5016 20.0952 32.5V32.5Z" fill="#204ECF"/>
<path d="M32.1812 55.0625H31.1812C31.1825 53.6058 30.8968 52.1631 30.3403 50.8169C29.7838 49.4707 28.9674 48.2473 27.9379 47.2168C26.9083 46.1862 25.6857 45.3687 24.3401 44.8109C22.9944 44.2531 21.5519 43.966 20.0952 43.966C18.6385 43.966 17.1961 44.2531 15.8504 44.8109C14.5047 45.3687 13.2821 46.1862 12.2526 47.2168C11.223 48.2473 10.4066 49.4707 9.85012 50.8169C9.29362 52.1631 9.0079 53.6058 9.00928 55.0625H8.00928C8.00784 53.4744 8.31938 51.9017 8.92611 50.434C9.53284 48.9664 10.4229 47.6328 11.5453 46.5094C12.6677 45.3859 14.0005 44.4947 15.4676 43.8866C16.9346 43.2786 18.5071 42.9656 20.0952 42.9656C21.6833 42.9656 23.2558 43.2786 24.7228 43.8866C26.1899 44.4947 27.5227 45.3859 28.6452 46.5094C29.7676 47.6328 30.6576 48.9664 31.2643 50.434C31.8711 51.9017 32.1826 53.4744 32.1812 55.0625V55.0625Z" fill="#204ECF"/>
<path d="M56.375 33.5625H39.5V34.5625H56.375V33.5625Z" fill="#204ECF"/>
<path d="M56.375 41.9062H39.5V42.9062H56.375V41.9062Z" fill="#204ECF"/>
<path d="M47.9375 50.25H39.5V51.25H47.9375V50.25Z" fill="#204ECF"/>
<path d="M32 27.8125C29.2496 27.8125 26.561 26.9969 24.2741 25.4689C21.9872 23.9408 20.2048 21.769 19.1523 19.2279C18.0998 16.6869 17.8244 13.8908 18.361 11.1933C18.8975 8.49573 20.222 6.01788 22.1668 4.07305C24.1116 2.12823 26.5895 0.803787 29.287 0.267211C31.9846 -0.269365 34.7807 0.00602531 37.3217 1.05856C39.8627 2.11109 42.0346 3.89349 43.5626 6.18036C45.0907 8.46723 45.9063 11.1559 45.9063 13.9063C45.9021 17.5931 44.4356 21.1278 41.8286 23.7349C39.2216 26.3419 35.6869 27.8083 32 27.8125V27.8125ZM32 1.00001C29.4474 1.00001 26.9521 1.75694 24.8297 3.1751C22.7073 4.59326 21.053 6.60894 20.0762 8.96725C19.0993 11.3256 18.8438 13.9206 19.3417 16.4241C19.8397 18.9277 21.0689 21.2274 22.8739 23.0324C24.6789 24.8373 26.9786 26.0665 29.4821 26.5645C31.9857 27.0625 34.5807 26.8069 36.939 25.8301C39.2973 24.8532 41.313 23.199 42.7312 21.0766C44.1493 18.9542 44.9063 16.4589 44.9063 13.9063C44.9024 10.4845 43.5415 7.20393 41.1219 4.78437C38.7023 2.3648 35.4218 1.00382 32 1.00001V1.00001Z" fill="#204ECF"/>
<path d="M31.295 17.407L27.434 13.546L28.141 12.839L31.295 15.993L36.027 11.262L36.734 11.969L31.295 17.407Z" fill="#204ECF"/>
</g>
<defs>
<clipPath id="clip0_17_2539">
<rect width="64" height="64" fill="white"/>
</clipPath>
</defs>
</svg>
