<svg width="64" height="65" viewBox="0 0 64 65" fill="none" xmlns="http://www.w3.org/2000/svg">
<g clip-path="url(#clip0_17_2732)">
<path opacity="0.3" d="M20.0952 44.3785C23.2644 44.3785 25.8335 41.8094 25.8335 38.6402C25.8335 35.471 23.2644 32.9019 20.0952 32.9019C16.926 32.9019 14.3569 35.471 14.3569 38.6402C14.3569 41.8094 16.926 44.3785 20.0952 44.3785Z" fill="#231F20"/>
<path opacity="0.3" d="M20.0951 44.3784C18.5736 44.3784 17.067 44.6781 15.6613 45.2604C14.2557 45.8426 12.9784 46.696 11.9026 47.7719C10.8268 48.8478 9.97335 50.125 9.39111 51.5307C8.80887 52.9363 8.50921 54.4429 8.50922 55.9644H31.681C31.681 52.8916 30.4604 49.9447 28.2876 47.7719C26.1148 45.5991 23.1679 44.3784 20.0951 44.3784V44.3784Z" fill="#231F20"/>
<path d="M64 64.9018H0V21.7148H20.825V22.7148H1V63.9018H63V22.7148H43.176V21.7148H64V64.9018Z" fill="white"/>
<path d="M20.0952 44.8784C18.8614 44.8784 17.6553 44.5125 16.6294 43.8271C15.6035 43.1416 14.804 42.1673 14.3318 41.0274C13.8596 39.8875 13.7361 38.6332 13.9768 37.4231C14.2175 36.213 14.8117 35.1014 15.6841 34.229C16.5565 33.3566 17.6681 32.7624 18.8782 32.5217C20.0883 32.281 21.3426 32.4046 22.4825 32.8767C23.6224 33.3489 24.5967 34.1485 25.2822 35.1743C25.9676 36.2002 26.3335 37.4063 26.3335 38.6401C26.3317 40.2941 25.6738 41.8798 24.5043 43.0493C23.3348 44.2188 21.7491 44.8766 20.0952 44.8784V44.8784ZM20.0952 33.4019C19.0592 33.4019 18.0464 33.7091 17.185 34.2847C16.3235 34.8603 15.6521 35.6784 15.2557 36.6355C14.8592 37.5927 14.7555 38.646 14.9576 39.6621C15.1597 40.6782 15.6586 41.6116 16.3912 42.3442C17.1238 43.0768 18.0572 43.5756 19.0733 43.7778C20.0894 43.9799 21.1427 43.8762 22.0998 43.4797C23.057 43.0832 23.8751 42.4118 24.4507 41.5504C25.0263 40.6889 25.3335 39.6762 25.3335 38.6401C25.3319 37.2514 24.7794 35.9199 23.7974 34.9379C22.8154 33.9559 21.484 33.4035 20.0952 33.4019V33.4019Z" fill="white"/>
<path d="M32.1812 55.9644H31.1812C31.1825 54.5077 30.8968 53.065 30.3403 51.7187C29.7838 50.3725 28.9674 49.1492 27.9379 48.1186C26.9083 47.0881 25.6857 46.2706 24.3401 45.7128C22.9944 45.155 21.5519 44.8679 20.0952 44.8679C18.6385 44.8679 17.1961 45.155 15.8504 45.7128C14.5047 46.2706 13.2821 47.0881 12.2526 48.1186C11.223 49.1492 10.4066 50.3725 9.85012 51.7187C9.29362 53.065 9.0079 54.5077 9.00928 55.9644H8.00928C8.00784 54.3763 8.31938 52.8035 8.92611 51.3359C9.53284 49.8683 10.4229 48.5347 11.5453 47.4112C12.6677 46.2878 14.0005 45.3965 15.4676 44.7885C16.9346 44.1804 18.5071 43.8674 20.0952 43.8674C21.6833 43.8674 23.2558 44.1804 24.7228 44.7885C26.1899 45.3965 27.5227 46.2878 28.6452 47.4112C29.7676 48.5347 30.6576 49.8683 31.2643 51.3359C31.8711 52.8035 32.1826 54.3763 32.1812 55.9644V55.9644Z" fill="white"/>
<path d="M56.375 34.4644H39.5V35.4644H56.375V34.4644Z" fill="white"/>
<path d="M56.375 42.8081H39.5V43.8081H56.375V42.8081Z" fill="white"/>
<path d="M47.9375 51.1519H39.5V52.1519H47.9375V51.1519Z" fill="white"/>
<path d="M32 28.7144C29.2496 28.7144 26.561 27.8988 24.2741 26.3707C21.9872 24.8427 20.2048 22.6708 19.1523 20.1298C18.0998 17.5888 17.8244 14.7927 18.361 12.0951C18.8975 9.39759 20.222 6.91973 22.1668 4.97491C24.1116 3.03008 26.5895 1.70564 29.287 1.16907C31.9846 0.632491 34.7807 0.907881 37.3217 1.96041C39.8627 3.01294 42.0346 4.79534 43.5626 7.08221C45.0907 9.36908 45.9063 12.0577 45.9063 14.8081C45.9021 18.495 44.4356 22.0297 41.8286 24.6367C39.2216 27.2437 35.6869 28.7102 32 28.7144V28.7144ZM32 1.90186C29.4474 1.90186 26.9521 2.6588 24.8297 4.07696C22.7073 5.49511 21.053 7.5108 20.0762 9.8691C19.0993 12.2274 18.8438 14.8224 19.3417 17.326C19.8397 19.8296 21.0689 22.1292 22.8739 23.9342C24.6789 25.7392 26.9786 26.9684 29.4821 27.4664C31.9857 27.9644 34.5807 27.7088 36.939 26.7319C39.2973 25.7551 41.313 24.1009 42.7312 21.9784C44.1493 19.856 44.9063 17.3607 44.9063 14.8081C44.9024 11.3863 43.5415 8.10579 41.1219 5.68622C38.7023 3.26666 35.4218 1.90567 32 1.90186V1.90186Z" fill="white"/>
<path d="M31.295 18.3088L27.434 14.4478L28.141 13.7408L31.295 16.8948L36.027 12.1638L36.734 12.8708L31.295 18.3088Z" fill="white"/>
</g>
<defs>
<clipPath id="clip0_17_2732">
<rect width="64" height="64" fill="white" transform="translate(0 0.901855)"/>
</clipPath>
</defs>
</svg>
