<svg width="64" height="66" viewBox="0 0 64 66" fill="none" xmlns="http://www.w3.org/2000/svg">
<g clip-path="url(#clip0_20_2919)">
<path opacity="0.3" d="M48.8277 26.6892C46.5025 26.6894 44.2229 26.0442 42.2427 24.8255C40.2625 23.6068 38.6595 21.8624 37.612 19.7865C36.5645 17.7106 36.1137 15.3848 36.3099 13.0679C36.506 10.751 37.3414 8.53403 38.7229 6.66379L29.8902 1.56421L2.61029 17.3142V48.8142L29.8902 64.5642L57.17 48.8142V23.5161C54.8738 25.5633 51.904 26.693 48.8277 26.6892V26.6892ZM33.5766 21.4507L32.0406 34.7559H27.7397L26.2037 21.4507H33.5766ZM29.8902 46.8501C29.08 46.8501 28.2881 46.6099 27.6145 46.1598C26.941 45.7097 26.416 45.07 26.1059 44.3216C25.7959 43.5731 25.7148 42.7496 25.8729 41.955C26.0309 41.1605 26.421 40.4306 26.9939 39.8578C27.5667 39.285 28.2965 38.8949 29.0911 38.7368C29.8856 38.5788 30.7092 38.6599 31.4576 38.9699C32.2061 39.2799 32.8458 39.8049 33.2959 40.4785C33.7459 41.1521 33.9862 41.944 33.9862 42.7541C33.9861 43.8404 33.5546 44.8823 32.7865 45.6504C32.0183 46.4185 30.9765 46.8501 29.8902 46.8501Z" fill="#231F20"/>
<path d="M29.89 65.1411L2.11 49.1031V17.0261L29.89 0.987061L38.929 6.20506L38.429 7.07106L29.89 2.14106L3.11 17.6031V48.5261L29.89 63.9871L56.67 48.5261V23.5471H57.67V49.1031L29.89 65.1411Z" fill="white"/>
<path d="M32.4864 35.2561H27.294L25.6426 20.9509H34.1378L32.4864 35.2561ZM28.1856 34.2561H31.5948L33.0157 21.9509H26.7647L28.1856 34.2561Z" fill="white"/>
<path d="M29.8902 47.3499C28.9812 47.3499 28.0926 47.0804 27.3367 46.5754C26.5809 46.0704 25.9918 45.3526 25.6439 44.5128C25.296 43.673 25.205 42.7489 25.3823 41.8573C25.5596 40.9658 25.9974 40.1469 26.6401 39.5041C27.2829 38.8613 28.1018 38.4236 28.9934 38.2463C29.8849 38.0689 30.809 38.16 31.6489 38.5079C32.4887 38.8557 33.2065 39.4449 33.7114 40.2007C34.2164 40.9565 34.486 41.8451 34.4859 42.7542C34.4844 43.9726 33.9998 45.1407 33.1382 46.0022C32.2767 46.8638 31.1086 47.3484 29.8902 47.3499V47.3499ZM29.8902 39.158C29.179 39.1579 28.4837 39.3688 27.8924 39.7639C27.301 40.1589 26.84 40.7205 26.5678 41.3776C26.2956 42.0346 26.2243 42.7577 26.363 43.4552C26.5018 44.1528 26.8442 44.7935 27.3471 45.2965C27.8499 45.7994 28.4906 46.1419 29.1882 46.2807C29.8857 46.4195 30.6087 46.3484 31.2658 46.0762C31.9229 45.8041 32.4846 45.3432 32.8797 44.7519C33.2749 44.1606 33.4859 43.4654 33.4859 42.7542C33.4848 41.8008 33.1056 40.8868 32.4316 40.2126C31.7575 39.5385 30.8435 39.1592 29.8902 39.158V39.158Z" fill="white"/>
<path d="M48.8189 27.1805C46.2371 27.1805 43.7132 26.4148 41.5665 24.9804C39.4198 23.546 37.7467 21.5072 36.7587 19.1219C35.7707 16.7365 35.5122 14.1118 36.016 11.5796C36.5197 9.04735 37.763 6.72137 39.5887 4.89577C41.4144 3.07017 43.7404 1.82694 46.2727 1.32329C48.8049 0.819652 51.4296 1.07822 53.8149 2.06629C56.2002 3.05437 58.2389 4.72758 59.6733 6.87433C61.1076 9.02109 61.8732 11.545 61.8731 14.1268C61.8692 17.5877 60.4925 20.9058 58.0452 23.353C55.5979 25.8002 52.2798 27.1767 48.8189 27.1805V27.1805ZM48.8189 2.07261C46.4349 2.07265 44.1044 2.77963 42.1221 4.10415C40.1399 5.42868 38.5949 7.31126 37.6826 9.51383C36.7703 11.7164 36.5316 14.14 36.9967 16.4783C37.4618 18.8165 38.6099 20.9643 40.2956 22.6501C41.9814 24.3358 44.1292 25.4839 46.4674 25.949C48.8057 26.4141 51.2293 26.1754 53.4319 25.2631C55.6345 24.3508 57.517 22.8058 58.8416 20.8236C60.1661 18.8413 60.8731 16.5108 60.8731 14.1268C60.8695 10.9309 59.5984 7.86698 57.3386 5.60715C55.0787 3.34733 52.0148 2.07618 48.8189 2.07261V2.07261Z" fill="white"/>
<path d="M48.159 17.4502L44.521 13.8122L45.228 13.1052L48.159 16.0362L52.567 11.6282L53.274 12.3352L48.159 17.4502Z" fill="white"/>
</g>
<defs>
<clipPath id="clip0_20_2919">
<rect width="64" height="64.1543" fill="white" transform="translate(0 0.987061)"/>
</clipPath>
</defs>
</svg>
