<svg width="64" height="65" viewBox="0 0 64 64" fill="none" xmlns="http://www.w3.org/2000/svg">
<g clip-path="url(#clip0_20_2762)">
<path opacity="0.15" d="M48.8277 25.7022C46.5025 25.7023 44.2229 25.0571 42.2427 23.8384C40.2625 22.6197 38.6595 20.8753 37.612 18.7994C36.5645 16.7236 36.1137 14.3977 36.3099 12.0808C36.506 9.76395 37.3414 7.54697 38.7229 5.67673L29.8902 0.577148L2.61029 16.3271V47.8271L29.8902 63.5771L57.17 47.8271V22.5291C54.8738 24.5763 51.904 25.7059 48.8277 25.7022V25.7022ZM33.5766 20.4636L32.0406 33.7688H27.7397L26.2037 20.4636H33.5766ZM29.8902 45.863C29.08 45.863 28.2881 45.6228 27.6145 45.1727C26.941 44.7227 26.416 44.083 26.1059 43.3345C25.7959 42.5861 25.7148 41.7625 25.8729 40.968C26.0309 40.1734 26.421 39.4436 26.9939 38.8707C27.5667 38.2979 28.2965 37.9078 29.0911 37.7498C29.8856 37.5917 30.7092 37.6728 31.4576 37.9828C32.2061 38.2929 32.8458 38.8178 33.2959 39.4914C33.7459 40.165 33.9862 40.9569 33.9862 41.767C33.9861 42.8534 33.5546 43.8952 32.7865 44.6633C32.0183 45.4315 30.9765 45.863 29.8902 45.863Z" fill="#183A9E"/>
<path d="M29.89 64.154L2.11 48.116V16.039L29.89 0L38.929 5.218L38.429 6.084L29.89 1.154L3.11 16.616V47.539L29.89 63L56.67 47.539V22.56H57.67V48.116L29.89 64.154Z" fill="#204ECF"/>
<path d="M32.4864 34.269H27.294L25.6426 19.9639H34.1378L32.4864 34.269ZM28.1856 33.269H31.5948L33.0157 20.9638H26.7647L28.1856 33.269Z" fill="#204ECF"/>
<path d="M29.8902 46.3628C28.9812 46.3628 28.0926 46.0933 27.3367 45.5883C26.5809 45.0834 25.9918 44.3656 25.6439 43.5258C25.296 42.6859 25.205 41.7618 25.3823 40.8703C25.5596 39.9787 25.9974 39.1598 26.6401 38.517C27.2829 37.8743 28.1018 37.4365 28.9934 37.2592C29.8849 37.0819 30.809 37.1729 31.6489 37.5208C32.4887 37.8687 33.2065 38.4578 33.7114 39.2136C34.2164 39.9695 34.486 40.8581 34.4859 41.7671C34.4844 42.9855 33.9998 44.1536 33.1382 45.0151C32.2767 45.8767 31.1086 46.3613 29.8902 46.3628V46.3628ZM29.8902 38.1709C29.179 38.1709 28.4837 38.3817 27.8924 38.7768C27.301 39.1719 26.84 39.7335 26.5678 40.3905C26.2956 41.0476 26.2243 41.7706 26.363 42.4682C26.5018 43.1657 26.8442 43.8065 27.3471 44.3094C27.8499 44.8123 28.4906 45.1549 29.1882 45.2937C29.8857 45.4325 30.6087 45.3613 31.2658 45.0892C31.9229 44.8171 32.4846 44.3562 32.8797 43.7649C33.2749 43.1735 33.4859 42.4783 33.4859 41.7671C33.4848 40.8137 33.1056 39.8998 32.4316 39.2256C31.7575 38.5514 30.8435 38.1721 29.8902 38.1709V38.1709Z" fill="#204ECF"/>
<path d="M48.8189 26.1935C46.2371 26.1934 43.7132 25.4278 41.5665 23.9933C39.4198 22.5589 37.7467 20.5201 36.7587 18.1348C35.7707 15.7495 35.5122 13.1247 36.016 10.5925C36.5197 8.06029 37.763 5.73431 39.5887 3.90871C41.4144 2.08311 43.7404 0.839877 46.2727 0.336234C48.8049 -0.167408 51.4296 0.0911574 53.8149 1.07923C56.2002 2.06731 58.2389 3.74052 59.6733 5.88727C61.1076 8.03403 61.8732 10.5579 61.8731 13.1397C61.8692 16.6007 60.4925 19.9187 58.0452 22.3659C55.5979 24.8131 52.2798 26.1896 48.8189 26.1935V26.1935ZM48.8189 1.08555C46.4349 1.08558 44.1044 1.79257 42.1221 3.11709C40.1399 4.44162 38.5949 6.3242 37.6826 8.52677C36.7703 10.7293 36.5316 13.153 36.9967 15.4912C37.4618 17.8294 38.6099 19.9772 40.2956 21.663C41.9814 23.3488 44.1292 24.4968 46.4674 24.9619C48.8057 25.427 51.2293 25.1883 53.4319 24.276C55.6345 23.3637 57.517 21.8188 58.8416 19.8365C60.1661 17.8543 60.8731 15.5238 60.8731 13.1397C60.8695 9.94387 59.5984 6.87992 57.3386 4.62009C55.0787 2.36026 52.0148 1.08912 48.8189 1.08555V1.08555Z" fill="#204ECF"/>
<path d="M48.159 16.4631L44.521 12.8251L45.228 12.1181L48.159 15.0491L52.567 10.6411L53.274 11.3481L48.159 16.4631Z" fill="#204ECF"/>
</g>
<defs>
<clipPath id="clip0_20_2762">
<rect width="64" height="64.1543" fill="white"/>
</clipPath>
</defs>
</svg>
