<svg width="64" height="65" viewBox="0 0 64 65" fill="none" xmlns="http://www.w3.org/2000/svg">
<g clip-path="url(#clip0_20_2929)">
<path opacity="0.3" d="M31.9999 31.3225C27.5822 31.3225 23.3455 33.0775 20.2218 36.2012C17.098 39.325 15.3432 43.5618 15.3432 47.9794H48.6568C48.6568 45.792 48.226 43.626 47.3889 41.6051C46.5518 39.5842 45.3248 37.7479 43.7781 36.2012C42.2314 34.6545 40.3951 33.4275 38.3742 32.5904C36.3533 31.7533 34.1873 31.3225 31.9999 31.3225V31.3225Z" fill="#231F20"/>
<path opacity="0.3" d="M31.9998 31.3221C33.6315 31.3221 35.2265 30.8383 36.5832 29.9318C37.9399 29.0254 38.9974 27.7369 39.6218 26.2294C40.2462 24.722 40.4096 23.0632 40.0913 21.4629C39.773 19.8626 38.9873 18.3926 37.8335 17.2388C36.6797 16.0851 35.2097 15.2993 33.6094 14.981C32.0091 14.6627 30.3503 14.8261 28.8429 15.4505C27.3354 16.075 26.047 17.1324 25.1405 18.4891C24.234 19.8458 23.7502 21.4408 23.7502 23.0725C23.7503 25.2604 24.6195 27.3587 26.1665 28.9058C27.7136 30.4529 29.8119 31.322 31.9998 31.3221V31.3221Z" fill="#231F20"/>
<path d="M32 31.822C30.2695 31.822 28.5778 31.3088 27.1389 30.3473C25.7001 29.3858 24.5786 28.0193 23.9164 26.4204C23.2542 24.8216 23.081 23.0623 23.4186 21.365C23.7563 19.6678 24.5897 18.1087 25.8134 16.8851C27.0371 15.6614 28.5962 14.8282 30.2935 14.4906C31.9908 14.153 33.7501 14.3264 35.3489 14.9886C36.9476 15.6509 38.3141 16.7725 39.2755 18.2114C40.2369 19.6503 40.75 21.342 40.75 23.0725C40.7474 25.3923 39.8247 27.6164 38.1843 29.2567C36.5439 30.897 34.3198 31.8196 32 31.822ZM32 15.3225C30.4673 15.3226 28.969 15.7771 27.6946 16.6287C26.4201 17.4803 25.4269 18.6906 24.8403 20.1067C24.2538 21.5228 24.1004 23.081 24.3994 24.5842C24.6984 26.0875 25.4365 27.4684 26.5203 28.5522C27.6041 29.636 28.985 30.3741 30.4883 30.6731C31.9916 30.9722 33.5498 30.8187 34.9658 30.2322C36.3819 29.6456 37.5923 28.6524 38.4438 27.378C39.2954 26.1036 39.7499 24.6053 39.75 23.0725C39.7477 21.0178 38.9305 19.0479 37.4776 17.595C36.0246 16.142 34.0547 15.3248 32 15.3225V15.3225Z" fill="white"/>
<path d="M49.1572 47.9788H48.1572C48.1572 43.6936 46.455 39.5839 43.4249 36.5539C40.3948 33.5238 36.2852 31.8215 32 31.8215C27.7148 31.8215 23.6052 33.5238 20.5751 36.5539C17.545 39.5839 15.8428 43.6936 15.8428 47.9788H14.8428C14.8428 43.4284 16.6504 39.0644 19.868 35.8468C23.0856 32.6292 27.4496 30.8215 32 30.8215C36.5504 30.8215 40.9144 32.6292 44.132 35.8468C47.3496 39.0644 49.1572 43.4284 49.1572 47.9788V47.9788Z" fill="white"/>
<path d="M32 64.9871C25.671 64.9871 19.4841 63.1103 14.2218 59.5941C8.95938 56.0779 4.85786 51.0802 2.43585 45.2329C0.0138497 39.3857 -0.619857 32.9516 0.61487 26.7442C1.8496 20.5368 4.8973 14.8349 9.37258 10.3597C13.8479 5.88438 19.5497 2.83667 25.7571 1.60195C31.9645 0.367219 38.3986 1.00093 44.2459 3.42293C50.0931 5.84493 55.0908 9.94645 58.607 15.2088C62.1232 20.4712 64 26.6581 64 32.9871C63.9904 41.4711 60.6159 49.6048 54.6168 55.6039C48.6177 61.6029 40.484 64.9775 32 64.9871ZM32 1.98707C25.8688 1.98707 19.8752 3.80519 14.7773 7.21152C9.6794 10.6178 5.70605 15.4594 3.35973 21.1239C1.01342 26.7884 0.399514 33.0215 1.59566 39.0349C2.7918 45.0483 5.74426 50.572 10.0797 54.9074C14.4151 59.2428 19.9388 62.1953 25.9522 63.3914C31.9656 64.5876 38.1987 63.9737 43.8632 61.6273C49.5277 59.281 54.3692 55.3077 57.7756 50.2098C61.1819 45.1118 63 39.1183 63 32.9871C62.9907 24.7682 59.7217 16.8886 53.9101 11.077C48.0985 5.26538 40.2189 1.99634 32 1.98707V1.98707Z" fill="white"/>
</g>
<defs>
<clipPath id="clip0_20_2929">
<rect width="64.0002" height="64.0001" fill="white" transform="translate(0 0.987061)"/>
</clipPath>
</defs>
</svg>
