<svg width="64" height="64" viewBox="0 0 64 64" fill="none" xmlns="http://www.w3.org/2000/svg">
<g clip-path="url(#clip0_20_2772)">
<path opacity="0.15" d="M31.9999 30.3354C27.5822 30.3355 23.3455 32.0904 20.2218 35.2142C17.098 38.338 15.3432 42.5747 15.3432 46.9923H48.6568C48.6568 44.8049 48.226 42.6389 47.3889 40.618C46.5518 38.5971 45.3248 36.7609 43.7781 35.2141C42.2314 33.6674 40.3951 32.4405 38.3742 31.6034C36.3533 30.7663 34.1873 30.3354 31.9999 30.3354V30.3354Z" fill="#183A9E"/>
<path opacity="0.15" d="M31.9998 30.3351C33.6315 30.3351 35.2265 29.8513 36.5832 28.9448C37.9399 28.0383 38.9974 26.7498 39.6218 25.2424C40.2462 23.7349 40.4096 22.0762 40.0913 20.4758C39.773 18.8755 38.9873 17.4055 37.8335 16.2518C36.6797 15.098 35.2097 14.3123 33.6094 13.994C32.0091 13.6756 30.3503 13.839 28.8429 14.4635C27.3354 15.0879 26.047 16.1453 25.1405 17.502C24.234 18.8587 23.7502 20.4537 23.7502 22.0854C23.7503 24.2733 24.6195 26.3716 26.1665 27.9187C27.7136 29.4658 29.8119 30.335 31.9998 30.3351V30.3351Z" fill="#183A9E"/>
<path d="M32 30.835C30.2695 30.8349 28.5778 30.3217 27.1389 29.3602C25.7001 28.3988 24.5786 27.0322 23.9164 25.4334C23.2542 23.8345 23.081 22.0753 23.4186 20.378C23.7563 18.6807 24.5897 17.1217 25.8134 15.898C27.0371 14.6744 28.5962 13.8411 30.2935 13.5035C31.9908 13.166 33.7501 13.3393 35.3489 14.0016C36.9476 14.6639 38.3141 15.7854 39.2755 17.2243C40.2369 18.6632 40.75 20.3549 40.75 22.0855C40.7474 24.4053 39.8247 26.6293 38.1843 28.2696C36.5439 29.9099 34.3198 30.8325 32 30.835ZM32 14.3355C30.4673 14.3355 28.969 14.7901 27.6946 15.6416C26.4201 16.4932 25.4269 17.7036 24.8403 19.1196C24.2538 20.5357 24.1004 22.0939 24.3994 23.5972C24.6984 25.1005 25.4365 26.4813 26.5203 27.5651C27.6041 28.6489 28.985 29.387 30.4883 29.6861C31.9916 29.9851 33.5498 29.8316 34.9658 29.2451C36.3819 28.6586 37.5923 27.6653 38.4438 26.3909C39.2954 25.1165 39.7499 23.6182 39.75 22.0855C39.7477 20.0307 38.9305 18.0608 37.4776 16.6079C36.0246 15.155 34.0547 14.3377 32 14.3354V14.3355Z" fill="#204ECF"/>
<path d="M49.1572 46.9917H48.1572C48.1572 42.7065 46.455 38.5969 43.4249 35.5668C40.3948 32.5367 36.2852 30.8345 32 30.8345C27.7148 30.8345 23.6052 32.5367 20.5751 35.5668C17.545 38.5969 15.8428 42.7065 15.8428 46.9917H14.8428C14.8428 42.4413 16.6504 38.0773 19.868 34.8597C23.0856 31.6421 27.4496 29.8345 32 29.8345C36.5504 29.8345 40.9144 31.6421 44.132 34.8597C47.3496 38.0773 49.1572 42.4413 49.1572 46.9917V46.9917Z" fill="#204ECF"/>
<path d="M32 64C25.671 64 19.4841 62.1232 14.2218 58.607C8.95938 55.0908 4.85786 50.0931 2.43585 44.2459C0.0138497 38.3986 -0.619857 31.9645 0.61487 25.7571C1.8496 19.5497 4.8973 13.8479 9.37258 9.3726C13.8479 4.89732 19.5497 1.84961 25.7571 0.614885C31.9645 -0.619842 38.3986 0.013865 44.2459 2.43587C50.0931 4.85787 55.0908 8.95939 58.607 14.2218C62.1232 19.4841 64 25.671 64 32C63.9904 40.484 60.6159 48.6177 54.6168 54.6168C48.6177 60.6159 40.484 63.9904 32 64ZM32 1.00001C25.8688 1.00001 19.8752 2.81813 14.7773 6.22446C9.6794 9.63078 5.70605 14.4723 3.35973 20.1368C1.01342 25.8013 0.399514 32.0344 1.59566 38.0478C2.7918 44.0612 5.74426 49.5849 10.0797 53.9203C14.4151 58.2558 19.9388 61.2082 25.9522 62.4044C31.9656 63.6005 38.1987 62.9866 43.8632 60.6403C49.5277 58.294 54.3692 54.3206 57.7756 49.2227C61.1819 44.1248 63 38.1312 63 32C62.9907 23.7811 59.7217 15.9016 53.9101 10.0899C48.0985 4.27831 40.2189 1.00928 32 1.00001V1.00001Z" fill="#204ECF"/>
</g>
<defs>
<clipPath id="clip0_20_2772">
<rect width="64.0002" height="64.0001" fill="white"/>
</clipPath>
</defs>
</svg>
