<svg width="64" height="64" viewBox="0 0 64 64" fill="none" xmlns="http://www.w3.org/2000/svg">
<g clip-path="url(#clip0_1182_658)">
<path opacity="0.15" d="M58.03 43.1102C52.17 48.9602 42.67 48.9602 36.81 43.1102L31.42 37.5402L26.03 43.1102C20.17 48.9602 10.67 48.9602 4.81 43.1102C2.52 40.8102 1.13 37.9502 0.640003 34.9702C-0.129997 39.5902 1.25 44.4902 4.81 48.0502C10.67 53.9002 20.17 53.9002 26.03 48.0502L31.42 42.4802L36.81 48.0502C42.67 53.9002 52.17 53.9002 58.03 48.0502C61.59 44.4902 62.97 39.5802 62.2 34.9702C61.71 37.9502 60.32 40.8102 58.03 43.1102Z" fill="#183A9C"/>
<path opacity="0.15" d="M21.08 26.84C17.95 23.72 12.89 23.72 9.76 26.84C7.56 29.04 6.92 32.2 7.82 34.97C8.2 33.81 8.84 32.71 9.76 31.78C12.89 28.66 17.95 28.66 21.08 31.78L24.16 34.97L26.55 32.5L21.08 26.84Z" fill="#183A9C"/>
<path opacity="0.15" d="M53.08 26.84C49.95 23.72 44.89 23.72 41.76 26.84L36.29 32.5L38.68 34.97L41.76 31.78C44.89 28.66 49.95 28.66 53.08 31.78C54 32.71 54.65 33.8 55.02 34.97C55.92 32.2 55.27 29.04 53.08 26.84Z" fill="#183A9C"/>
<path d="M26.11 43.1099C20.25 48.9699 10.75 48.9699 4.9 43.1099C-0.960003 37.2499 -0.960003 27.7499 4.9 21.8999C10.76 16.0399 20.26 16.0399 26.11 21.8999" stroke="#204ECD" stroke-miterlimit="10"/>
<path d="M21.16 38.1598C18.04 41.2798 12.97 41.2798 9.85 38.1598C6.73 35.0398 6.73 29.9698 9.85 26.8498C12.97 23.7298 18.04 23.7298 21.16 26.8498" stroke="#204ECD" stroke-miterlimit="10"/>
<path d="M36.89 21.8901C42.75 16.0301 52.25 16.0301 58.1 21.8901C63.95 27.7501 63.96 37.2501 58.1 43.1001C52.24 48.9501 42.74 48.9601 36.89 43.1001" stroke="#204ECD" stroke-miterlimit="10"/>
<path d="M41.84 26.84C44.96 23.72 50.03 23.72 53.15 26.84C56.27 29.96 56.27 35.03 53.15 38.15C50.03 41.27 44.96 41.27 41.84 38.15" stroke="#204ECD" stroke-miterlimit="10"/>
<path d="M21.16 26.8398L36.89 43.1098" stroke="#204ECD" stroke-miterlimit="10"/>
<path d="M26.11 21.8901L41.84 38.1601" stroke="#204ECD" stroke-miterlimit="10"/>
<path d="M12.5 52V56.5C12.5 57.6 13.4 58.5 14.5 58.5H48.5C49.6 58.5 50.5 57.6 50.5 56.5V52" stroke="#204ECD" stroke-miterlimit="10"/>
<path d="M50.5 13V8.5C50.5 7.4 49.6 6.5 48.5 6.5H14.5C13.4 6.5 12.5 7.4 12.5 8.5V13" stroke="#204ECD" stroke-miterlimit="10"/>
<path d="M36.37 32.4998L41.84 26.8398" stroke="#204ECD" stroke-miterlimit="10"/>
<path d="M26.11 43.11L31.5 37.54" stroke="#204ECD" stroke-miterlimit="10"/>
<path d="M31.5 27.4701L36.89 21.8901" stroke="#204ECD" stroke-miterlimit="10"/>
<path d="M21.16 38.16L26.63 32.5" stroke="#204ECD" stroke-miterlimit="10"/>
</g>
<defs>
<clipPath id="clip0_1182_658">
<rect width="64" height="64" fill="white"/>
</clipPath>
</defs>
</svg>
