<svg width="64" height="64" viewBox="0 0 64 64" fill="none" xmlns="http://www.w3.org/2000/svg">
<g clip-path="url(#clip0_20_2781)">
<path opacity="0.15" d="M24.44 27.4003H24.4403V17.5927C24.4419 16.6696 24.8096 15.7849 25.4629 15.1327C26.1162 14.4805 27.0015 14.1143 27.9246 14.1143C28.8477 14.1143 29.733 14.4805 30.3863 15.1327C31.0395 15.7849 31.4073 16.6696 31.4089 17.5927V27.3094L31.6635 27.3059C33.9366 26.4288 35.8291 24.7805 37.0099 22.6493C38.1907 20.5181 38.5847 18.0395 38.123 15.6472C37.6613 13.2548 36.3732 11.1009 34.4841 9.5622C32.595 8.02345 30.225 7.19781 27.7887 7.22965C25.3524 7.26149 23.0049 8.1488 21.1566 9.73639C19.3084 11.324 18.077 13.5108 17.678 15.9144C17.2789 18.318 17.7376 20.7854 18.9737 22.885C20.2098 24.9847 22.1447 26.583 24.44 27.4003V27.4003Z" fill="#183A9E"/>
<path opacity="0.15" d="M41.2254 51.3777H24.4403V56.9827H41.2254V51.3777Z" fill="#183A9E"/>
<path d="M41.7256 56.983H40.7256V51.6407L40.9385 51.4913C42.2187 50.5918 43.264 49.3978 43.9863 48.0099C44.7086 46.622 45.0868 45.0808 45.0889 43.5162V35.832C45.088 35.2499 44.9554 34.6755 44.7012 34.1519C44.4151 33.5666 43.9157 33.1131 43.3056 32.8847C42.6954 32.6563 42.021 32.6703 41.4209 32.9239L40.4336 33.3423L40.0498 32.4292C39.9191 32.1184 39.7279 31.8366 39.4874 31.6003C39.2469 31.3639 38.9618 31.1777 38.6487 31.0525C38.3356 30.9272 38.0007 30.8654 37.6636 30.8707C37.3264 30.8759 36.9936 30.9481 36.6846 31.083L35.8164 31.4619L35.4854 30.7876C35.3386 30.486 35.1337 30.2164 34.8823 29.9942C34.631 29.7721 34.3382 29.6018 34.0208 29.4933C33.7034 29.3847 33.3677 29.34 33.033 29.3617C32.6982 29.3834 32.3711 29.471 32.0704 29.6196L30.9092 30.1948V17.5928C30.9078 16.8023 30.5927 16.0446 30.0332 15.4861C29.4737 14.9276 28.7154 14.6139 27.9248 14.6139C27.1343 14.6139 26.376 14.9276 25.8165 15.4861C25.257 16.0446 24.9419 16.8023 24.9405 17.5928V31.4502L21.5625 33.6265C20.1081 34.5742 19.0392 36.0095 18.5479 37.6744C18.0565 39.3394 18.175 41.125 18.8818 42.7105L20.293 45.834C21.3005 48.0558 22.8291 50.0018 24.749 51.5069L24.9404 51.6568V56.983H23.9404V52.1416C21.9823 50.5583 20.421 48.5395 19.3808 46.2461L17.9697 43.1226C17.1657 41.3182 17.0314 39.2863 17.5907 37.3918C18.15 35.4972 19.3664 33.8641 21.0215 32.7857L23.9404 30.9053V17.5928C23.9421 16.5372 24.3626 15.5254 25.1096 14.7795C25.8567 14.0337 26.8692 13.6147 27.9248 13.6147C28.9804 13.6147 29.9929 14.0337 30.7399 14.7795C31.487 15.5254 31.9075 16.5372 31.9092 17.5928V28.5987C32.7053 28.288 33.5868 28.2754 34.3914 28.5632C35.1961 28.8511 35.8697 29.4199 36.2881 30.165C36.7175 29.9781 37.1796 29.8781 37.6478 29.8707C38.116 29.8634 38.5811 29.9489 39.0161 30.1223C39.4511 30.2956 39.8475 30.5535 40.1823 30.8809C40.5171 31.2083 40.7837 31.5988 40.9668 32.0298L41.0303 32.0029C41.8661 31.6488 42.806 31.6288 43.6562 31.9471C44.5063 32.2655 45.2019 32.8978 45.5996 33.7139C45.9205 34.374 46.0877 35.0981 46.0889 35.832V43.5161C46.0868 45.197 45.6911 46.854 44.9334 48.3544C44.1757 49.8548 43.0771 51.1569 41.7256 52.1563V56.983Z" fill="#204ECF"/>
<path d="M24.9404 31.1777H23.9404V37.4873H24.9404V31.1777Z" fill="#204ECF"/>
<path d="M32 64C25.671 64 19.4841 62.1232 14.2218 58.607C8.95938 55.0908 4.85786 50.0931 2.43585 44.2459C0.0138497 38.3986 -0.619857 31.9645 0.61487 25.7571C1.8496 19.5497 4.8973 13.8479 9.37258 9.3726C13.8479 4.89732 19.5497 1.84961 25.7571 0.614885C31.9645 -0.619842 38.3986 0.013865 44.2459 2.43587C50.0931 4.85787 55.0908 8.95939 58.607 14.2218C62.1232 19.4841 64 25.671 64 32C63.9904 40.484 60.6159 48.6177 54.6168 54.6168C48.6177 60.6159 40.484 63.9904 32 64ZM32 1.00001C25.8688 1.00001 19.8752 2.81813 14.7773 6.22446C9.6794 9.63078 5.70605 14.4723 3.35973 20.1368C1.01342 25.8013 0.399514 32.0344 1.59566 38.0478C2.7918 44.0612 5.74426 49.5849 10.0797 53.9203C14.4151 58.2558 19.9388 61.2082 25.9522 62.4044C31.9656 63.6005 38.1987 62.9866 43.8632 60.6403C49.5277 58.294 54.3692 54.3206 57.7756 49.2227C61.1819 44.1248 63 38.1312 63 32C62.9907 23.7811 59.7217 15.9016 53.9101 10.0899C48.0985 4.27831 40.2189 1.00928 32 1.00001V1.00001Z" fill="#204ECF"/>
<path d="M24.2725 27.8716C21.8664 27.015 19.838 25.3398 18.542 23.1389C17.2461 20.9381 16.7652 18.3517 17.1833 15.8321C17.6015 13.3125 18.8921 11.0201 20.8295 9.35587C22.7668 7.69161 25.2276 6.76142 27.7814 6.72798C30.3353 6.69455 32.8196 7.55999 34.7998 9.17295C36.7801 10.7859 38.1303 13.0437 38.6143 15.5515C39.0982 18.0593 38.6852 20.6574 37.4473 22.8914C36.2095 25.1254 34.2256 26.8532 31.8428 27.7724L31.4834 26.8398C33.6474 26.0052 35.4492 24.4363 36.5735 22.4076C37.6978 20.379 38.0731 18.0196 37.6338 15.7422C37.1945 13.4647 35.9685 11.4143 34.1703 9.94931C32.3721 8.48436 30.1161 7.69821 27.7969 7.72836C25.4777 7.7585 23.2429 8.60302 21.4834 10.1142C19.7239 11.6254 18.5516 13.7071 18.1717 15.9951C17.7917 18.2832 18.2282 20.632 19.4049 22.6308C20.5815 24.6296 22.4234 26.1511 24.6084 26.9292L24.2725 27.8716Z" fill="#204ECF"/>
</g>
<defs>
<clipPath id="clip0_20_2781">
<rect width="64.0002" height="64.0001" fill="white"/>
</clipPath>
</defs>
</svg>
