<svg width="64" height="64" viewBox="0 0 64 64" fill="none" xmlns="http://www.w3.org/2000/svg">
<g clip-path="url(#clip0_20_2791)">
<path opacity="0.15" d="M63.5 32.0002C63.4999 40.3545 60.1811 48.3666 54.2737 54.2739C48.3663 60.1812 40.3541 63.4999 31.9998 63.4999V0.5C36.1365 0.499989 40.2327 1.31476 44.0544 2.89778C47.8762 4.48081 51.3488 6.8011 54.2738 9.72616C57.1989 12.6512 59.5192 16.1238 61.1022 19.9456C62.6852 23.7673 63.5 27.8635 63.5 32.0002V32.0002Z" fill="#183A9E"/>
<path d="M32 64C25.671 64 19.4841 62.1232 14.2218 58.607C8.95939 55.0908 4.85787 50.0931 2.43587 44.2459C0.013865 38.3987 -0.619842 31.9645 0.614885 25.7571C1.84961 19.5497 4.89732 13.8479 9.3726 9.3726C13.8479 4.89732 19.5497 1.84961 25.7571 0.614885C31.9645 -0.619842 38.3986 0.0138652 44.2459 2.43587C50.0931 4.85787 55.0908 8.95939 58.607 14.2218C62.1232 19.4841 64 25.671 64 32C63.9904 40.484 60.6159 48.6177 54.6168 54.6168C48.6177 60.6159 40.484 63.9904 32 64V64ZM32 1.00001C25.8688 1.00001 19.8753 2.81813 14.7773 6.22446C9.67941 9.63078 5.70607 14.4723 3.35975 20.1368C1.01343 25.8013 0.399529 32.0344 1.59567 38.0478C2.79181 44.0612 5.74428 49.5849 10.0797 53.9203C14.4151 58.2558 19.9388 61.2082 25.9522 62.4044C31.9656 63.6005 38.1987 62.9866 43.8632 60.6403C49.5277 58.294 54.3693 54.3206 57.7756 49.2227C61.1819 44.1248 63 38.1312 63 32C62.9908 23.7811 59.7217 15.9016 53.9101 10.0899C48.0985 4.27831 40.2189 1.00928 32 1.00001V1.00001Z" fill="#204ECF"/>
<path d="M45.8281 15.0098C42.7363 6.2373 37.5674 1 32 1C26.4326 1 21.2637 6.2373 18.1719 15.0098L17.2285 14.6778C20.4678 5.48681 25.9893 0 32 0C38.0107 0 43.5322 5.48681 46.7715 14.6777L45.8281 15.0098Z" fill="#204ECF"/>
<path d="M32 64C25.9893 64 20.4678 58.5132 17.2285 49.3223L18.1719 48.9903C21.2637 57.7627 26.4326 63 32 63C37.5674 63 42.7363 57.7627 45.8281 48.9902L46.7715 49.3222C43.5322 58.5132 38.0107 64 32 64Z" fill="#204ECF"/>
<path d="M32.5 0.5H31.5V14.8438H32.5V0.5Z" fill="#204ECF"/>
<path d="M32.5 49.1562H31.5V63.5H32.5V49.1562Z" fill="#204ECF"/>
<path d="M58.4219 14.3438H5.57812V15.3438H58.4219V14.3438Z" fill="#204ECF"/>
<path d="M58.4219 48.6562H5.57715V49.6562H58.4219V48.6562Z" fill="#204ECF"/>
<path d="M11.3135 36.8447C10.4609 36.8439 9.64355 36.5048 9.04067 35.9021C8.43779 35.2993 8.09864 34.4819 8.09766 33.6294V27.6553H9.09766V33.6294C9.09766 34.2171 9.33111 34.7807 9.74665 35.1962C10.1622 35.6118 10.7258 35.8452 11.3135 35.8452C11.9011 35.8452 12.4648 35.6118 12.8803 35.1962C13.2958 34.7807 13.5293 34.2171 13.5293 33.6294H14.5293C14.5283 34.4819 14.1892 35.2993 13.5863 35.9021C12.9834 36.5048 12.166 36.8439 11.3135 36.8447V36.8447Z" fill="#204ECF"/>
<path d="M16.7441 36.8447C15.8918 36.8437 15.0746 36.5045 14.4719 35.9018C13.8692 35.299 13.5302 34.4818 13.5293 33.6294V27.6553H14.5293V33.6294C14.5293 34.2169 14.7627 34.7804 15.1782 35.1959C15.5936 35.6113 16.1571 35.8447 16.7446 35.8447C17.3322 35.8447 17.8956 35.6113 18.3111 35.1959C18.7266 34.7804 18.96 34.2169 18.96 33.6294V27.6553H19.96V33.6294C19.959 34.4819 19.6198 35.2993 19.0169 35.9021C18.4141 36.5048 17.5967 36.8439 16.7441 36.8447Z" fill="#204ECF"/>
<path d="M29.2842 36.8447C28.4318 36.8437 27.6146 36.5045 27.0119 35.9018C26.4093 35.299 26.0703 34.4818 26.0693 33.6294V27.6553H27.0693V33.6294C27.0693 34.2169 27.3027 34.7804 27.7182 35.1959C28.1336 35.6113 28.6971 35.8447 29.2847 35.8447C29.8722 35.8447 30.4357 35.6113 30.8511 35.1959C31.2666 34.7804 31.5 34.2169 31.5 33.6294H32.5C32.499 34.4819 32.1599 35.2993 31.557 35.9021C30.9541 36.5048 30.1367 36.8439 29.2842 36.8447V36.8447Z" fill="#204ECF"/>
<path d="M34.7158 36.8447C33.8633 36.8439 33.0459 36.5048 32.443 35.9021C31.8401 35.2993 31.501 34.4819 31.5 33.6294V27.6553H32.5V33.6294C32.5 33.9203 32.5573 34.2084 32.6686 34.4772C32.78 34.7459 32.9431 34.9902 33.1489 35.1959C33.3546 35.4016 33.5988 35.5648 33.8676 35.6761C34.1363 35.7874 34.4244 35.8447 34.7153 35.8447C35.0062 35.8447 35.2943 35.7874 35.5631 35.6761C35.8319 35.5648 36.0761 35.4016 36.2818 35.1959C36.4875 34.9902 36.6507 34.7459 36.762 34.4772C36.8734 34.2084 36.9307 33.9203 36.9307 33.6294V27.6553H37.9307V33.6294C37.9297 34.4818 37.5907 35.299 36.9881 35.9018C36.3854 36.5045 35.5682 36.8437 34.7158 36.8447Z" fill="#204ECF"/>
<path d="M47.2559 36.8447C46.4033 36.8439 45.5859 36.5049 44.983 35.9021C44.3801 35.2993 44.041 34.4819 44.04 33.6294V27.6553H45.04V33.6294C45.04 34.2169 45.2734 34.7804 45.6889 35.1959C46.1043 35.6113 46.6678 35.8447 47.2553 35.8447C47.8429 35.8447 48.4064 35.6113 48.8218 35.1959C49.2373 34.7804 49.4707 34.2169 49.4707 33.6294H50.4707C50.4697 34.4818 50.1308 35.299 49.5281 35.9018C48.9254 36.5045 48.1082 36.8436 47.2559 36.8447Z" fill="#204ECF"/>
<path d="M52.6865 36.8447C51.834 36.8439 51.0166 36.5048 50.4137 35.9021C49.8108 35.2993 49.4717 34.4819 49.4707 33.6294V27.6553H50.4707V33.6294C50.4707 34.2171 50.7042 34.7807 51.1197 35.1962C51.5352 35.6118 52.0989 35.8452 52.6865 35.8452C53.2742 35.8452 53.8378 35.6118 54.2533 35.1962C54.6689 34.7807 54.9023 34.2171 54.9023 33.6294V27.6553H55.9023V33.6294C55.9014 34.4819 55.5622 35.2993 54.9593 35.9021C54.3564 36.5048 53.5391 36.8439 52.6865 36.8447V36.8447Z" fill="#204ECF"/>
</g>
<defs>
<clipPath id="clip0_20_2791">
<rect width="64.0003" height="64.0001" fill="white"/>
</clipPath>
</defs>
</svg>
