<svg width="64" height="65" viewBox="0 0 64 64" fill="none" xmlns="http://www.w3.org/2000/svg">
<g clip-path="url(#clip0_20_2948)">
<path opacity="0.3" d="M63.5 32.9872C63.4999 41.3415 60.1811 49.3536 54.2737 55.261C48.3663 61.1683 40.3541 64.487 31.9998 64.487V1.48706C36.1365 1.48705 40.2327 2.30182 44.0544 3.88485C47.8762 5.46787 51.3488 7.78816 54.2738 10.7132C57.1989 13.6383 59.5192 17.1108 61.1022 20.9326C62.6852 24.7544 63.5 28.8506 63.5 32.9872V32.9872Z" fill="#231F20"/>
<path d="M32 64.9871C25.671 64.9871 19.4841 63.1103 14.2218 59.5941C8.95939 56.0779 4.85787 51.0802 2.43587 45.2329C0.013865 39.3857 -0.619842 32.9516 0.614885 26.7442C1.84961 20.5368 4.89732 14.8349 9.3726 10.3597C13.8479 5.88438 19.5497 2.83667 25.7571 1.60195C31.9645 0.367219 38.3986 1.00093 44.2459 3.42293C50.0931 5.84493 55.0908 9.94645 58.607 15.2088C62.1232 20.4712 64 26.6581 64 32.9871C63.9904 41.471 60.6159 49.6048 54.6168 55.6039C48.6177 61.6029 40.484 64.9775 32 64.9871V64.9871ZM32 1.98707C25.8688 1.98707 19.8753 3.80519 14.7773 7.21152C9.67941 10.6178 5.70607 15.4594 3.35975 21.1239C1.01343 26.7884 0.399529 33.0215 1.59567 39.0349C2.79181 45.0483 5.74428 50.572 10.0797 54.9074C14.4151 59.2428 19.9388 62.1953 25.9522 63.3914C31.9656 64.5876 38.1987 63.9737 43.8632 61.6273C49.5277 59.281 54.3693 55.3077 57.7756 50.2098C61.1819 45.1118 63 39.1183 63 32.9871C62.9908 24.7682 59.7217 16.8886 53.9101 11.077C48.0985 5.26538 40.2189 1.99634 32 1.98707V1.98707Z" fill="white"/>
<path d="M45.8281 15.9968C42.7363 7.22436 37.5674 1.98706 32 1.98706C26.4326 1.98706 21.2637 7.22436 18.1719 15.9968L17.2285 15.6648C20.4678 6.47387 25.9893 0.987061 32 0.987061C38.0107 0.987061 43.5322 6.47387 46.7715 15.6648L45.8281 15.9968Z" fill="white"/>
<path d="M32 64.9871C25.9893 64.9871 20.4678 59.5002 17.2285 50.3093L18.1719 49.9773C21.2637 58.7498 26.4326 63.9871 32 63.9871C37.5674 63.9871 42.7363 58.7498 45.8281 49.9773L46.7715 50.3093C43.5322 59.5002 38.0107 64.9871 32 64.9871Z" fill="white"/>
<path d="M32.5 1.48706H31.5V15.8308H32.5V1.48706Z" fill="white"/>
<path d="M32.5 50.1433H31.5V64.4871H32.5V50.1433Z" fill="white"/>
<path d="M58.4219 15.3308H5.57812V16.3308H58.4219V15.3308Z" fill="white"/>
<path d="M58.4219 49.6433H5.57715V50.6433H58.4219V49.6433Z" fill="white"/>
<path d="M11.3135 37.8318C10.4609 37.8309 9.64355 37.4919 9.04067 36.8891C8.43779 36.2863 8.09864 35.469 8.09766 34.6165V28.6423H9.09766V34.6165C9.09766 35.2041 9.33111 35.7677 9.74665 36.1833C10.1622 36.5988 10.7258 36.8323 11.3135 36.8323C11.9011 36.8323 12.4648 36.5988 12.8803 36.1833C13.2958 35.7677 13.5293 35.2041 13.5293 34.6165H14.5293C14.5283 35.469 14.1892 36.2863 13.5863 36.8891C12.9834 37.4919 12.166 37.8309 11.3135 37.8318V37.8318Z" fill="white"/>
<path d="M16.7441 37.8318C15.8918 37.8307 15.0746 37.4916 14.4719 36.8888C13.8692 36.2861 13.5302 35.4688 13.5293 34.6165V28.6423H14.5293V34.6165C14.5293 35.204 14.7627 35.7675 15.1782 36.1829C15.5936 36.5984 16.1571 36.8318 16.7446 36.8318C17.3322 36.8318 17.8956 36.5984 18.3111 36.1829C18.7266 35.7675 18.96 35.204 18.96 34.6165V28.6423H19.96V34.6165C19.959 35.469 19.6198 36.2863 19.0169 36.8891C18.4141 37.4919 17.5967 37.8309 16.7441 37.8318Z" fill="white"/>
<path d="M29.2842 37.8318C28.4318 37.8307 27.6146 37.4916 27.0119 36.8888C26.4093 36.2861 26.0703 35.4688 26.0693 34.6165V28.6423H27.0693V34.6165C27.0693 35.204 27.3027 35.7675 27.7182 36.1829C28.1336 36.5984 28.6971 36.8318 29.2847 36.8318C29.8722 36.8318 30.4357 36.5984 30.8511 36.1829C31.2666 35.7675 31.5 35.204 31.5 34.6165H32.5C32.499 35.469 32.1599 36.2863 31.557 36.8891C30.9541 37.4919 30.1367 37.8309 29.2842 37.8318V37.8318Z" fill="white"/>
<path d="M34.7158 37.8318C33.8633 37.8309 33.0459 37.4919 32.443 36.8891C31.8401 36.2863 31.501 35.469 31.5 34.6165V28.6423H32.5V34.6165C32.5 34.9074 32.5573 35.1954 32.6686 35.4642C32.78 35.733 32.9431 35.9772 33.1489 36.1829C33.3546 36.3886 33.5988 36.5518 33.8676 36.6632C34.1363 36.7745 34.4244 36.8318 34.7153 36.8318C35.0062 36.8318 35.2943 36.7745 35.5631 36.6632C35.8319 36.5518 36.0761 36.3886 36.2818 36.1829C36.4875 35.9772 36.6507 35.733 36.762 35.4642C36.8734 35.1954 36.9307 34.9074 36.9307 34.6165V28.6423H37.9307V34.6165C37.9297 35.4688 37.5907 36.2861 36.9881 36.8888C36.3854 37.4916 35.5682 37.8307 34.7158 37.8318Z" fill="white"/>
<path d="M47.2559 37.8318C46.4033 37.8309 45.5859 37.4919 44.983 36.8891C44.3801 36.2863 44.041 35.469 44.04 34.6165V28.6423H45.04V34.6165C45.04 35.204 45.2734 35.7675 45.6889 36.1829C46.1043 36.5984 46.6678 36.8318 47.2553 36.8318C47.8429 36.8318 48.4064 36.5984 48.8218 36.1829C49.2373 35.7675 49.4707 35.204 49.4707 34.6165H50.4707C50.4697 35.4688 50.1308 36.286 49.5281 36.8888C48.9254 37.4916 48.1082 37.8307 47.2559 37.8318Z" fill="white"/>
<path d="M52.6865 37.8318C51.834 37.8309 51.0166 37.4919 50.4137 36.8891C49.8108 36.2863 49.4717 35.469 49.4707 34.6165V28.6423H50.4707V34.6165C50.4707 35.2041 50.7042 35.7677 51.1197 36.1833C51.5352 36.5988 52.0989 36.8323 52.6865 36.8323C53.2742 36.8323 53.8378 36.5988 54.2533 36.1833C54.6689 35.7677 54.9023 35.2041 54.9023 34.6165V28.6423H55.9023V34.6165C55.9014 35.469 55.5622 36.2863 54.9593 36.8891C54.3564 37.4919 53.5391 37.8309 52.6865 37.8318V37.8318Z" fill="white"/>
</g>
<defs>
<clipPath id="clip0_20_2948">
<rect width="64.0003" height="64.0001" fill="white" transform="translate(0 0.987061)"/>
</clipPath>
</defs>
</svg>
