<svg width="64" height="65" viewBox="0 0 64 65" fill="none" xmlns="http://www.w3.org/2000/svg">
<g clip-path="url(#clip0_20_2938)">
<path opacity="0.3" d="M24.44 28.3874H24.4403V18.5797C24.4419 17.6566 24.8096 16.7719 25.4629 16.1198C26.1162 15.4676 27.0015 15.1013 27.9246 15.1013C28.8477 15.1013 29.733 15.4676 30.3863 16.1198C31.0395 16.7719 31.4073 17.6566 31.4089 18.5797V28.2964L31.6635 28.293C33.9366 27.4159 35.8291 25.7676 37.0099 23.6364C38.1907 21.5051 38.5847 19.0266 38.123 16.6342C37.6613 14.2419 36.3732 12.088 34.4841 10.5493C32.595 9.01051 30.225 8.18487 27.7887 8.21671C25.3524 8.24855 23.0049 9.13586 21.1566 10.7234C19.3084 12.311 18.077 14.4979 17.678 16.9015C17.2789 19.3051 17.7376 21.7724 18.9737 23.8721C20.2098 25.9717 22.1447 27.57 24.44 28.3874V28.3874Z" fill="#231F20"/>
<path opacity="0.3" d="M41.2254 52.3647H24.4403V57.9698H41.2254V52.3647Z" fill="#231F20"/>
<path d="M41.7256 57.97H40.7256V52.6277L40.9385 52.4783C42.2187 51.5789 43.264 50.3849 43.9863 48.9969C44.7086 47.609 45.0868 46.0678 45.0889 44.5032V36.8191C45.088 36.237 44.9554 35.6626 44.7012 35.1389C44.4151 34.5536 43.9157 34.1002 43.3056 33.8718C42.6954 33.6434 42.021 33.6574 41.4209 33.9109L40.4336 34.3294L40.0498 33.4163C39.9191 33.1055 39.7279 32.8237 39.4874 32.5873C39.2469 32.351 38.9618 32.1648 38.6487 32.0395C38.3356 31.9143 38.0007 31.8525 37.6636 31.8577C37.3264 31.863 36.9936 31.9352 36.6846 32.0701L35.8164 32.449L35.4854 31.7747C35.3386 31.4731 35.1337 31.2034 34.8823 30.9813C34.631 30.7591 34.3382 30.5889 34.0208 30.4803C33.7034 30.3718 33.3677 30.3271 33.033 30.3488C32.6982 30.3704 32.3711 30.4581 32.0704 30.6067L30.9092 31.1819V18.5799C30.9078 17.7893 30.5927 17.0316 30.0332 16.4731C29.4737 15.9146 28.7154 15.601 27.9248 15.601C27.1343 15.601 26.376 15.9146 25.8165 16.4731C25.257 17.0316 24.9419 17.7893 24.9405 18.5799V32.4373L21.5625 34.6136C20.1081 35.5613 19.0392 36.9965 18.5479 38.6615C18.0565 40.3265 18.175 42.1121 18.8818 43.6976L20.293 46.8211C21.3005 49.0429 22.8291 50.9889 24.749 52.4939L24.9404 52.6438V57.97H23.9404V53.1287C21.9823 51.5453 20.421 49.5266 19.3808 47.2332L17.9697 44.1097C17.1657 42.3053 17.0314 40.2734 17.5907 38.3788C18.15 36.4843 19.3664 34.8512 21.0215 33.7727L23.9404 31.8924V18.5799C23.9421 17.5242 24.3626 16.5124 25.1096 15.7666C25.8567 15.0207 26.8692 14.6018 27.9248 14.6018C28.9804 14.6018 29.9929 15.0207 30.7399 15.7666C31.487 16.5124 31.9075 17.5242 31.9092 18.5799V29.5857C32.7053 29.2751 33.5868 29.2625 34.3914 29.5503C35.1961 29.8381 35.8697 30.407 36.2881 31.1521C36.7175 30.9652 37.1796 30.8651 37.6478 30.8578C38.116 30.8505 38.5811 30.9359 39.0161 31.1093C39.4511 31.2827 39.8475 31.5405 40.1823 31.8679C40.5171 32.1953 40.7837 32.5858 40.9668 33.0169L41.0303 32.99C41.8661 32.6358 42.806 32.6159 43.6562 32.9342C44.5063 33.2525 45.2019 33.8849 45.5996 34.7009C45.9205 35.361 46.0877 36.0852 46.0889 36.8191V44.5032C46.0868 46.184 45.6911 47.8411 44.9334 49.3415C44.1757 50.8419 43.0771 52.1439 41.7256 53.1433V57.97Z" fill="white"/>
<path d="M24.9404 32.1648H23.9404V38.4744H24.9404V32.1648Z" fill="white"/>
<path d="M32 64.9871C25.671 64.9871 19.4841 63.1103 14.2218 59.5941C8.95938 56.0779 4.85786 51.0802 2.43585 45.2329C0.0138497 39.3857 -0.619857 32.9516 0.61487 26.7442C1.8496 20.5368 4.8973 14.8349 9.37258 10.3597C13.8479 5.88438 19.5497 2.83667 25.7571 1.60195C31.9645 0.367219 38.3986 1.00093 44.2459 3.42293C50.0931 5.84493 55.0908 9.94645 58.607 15.2088C62.1232 20.4712 64 26.6581 64 32.9871C63.9904 41.4711 60.6159 49.6048 54.6168 55.6039C48.6177 61.6029 40.484 64.9775 32 64.9871ZM32 1.98707C25.8688 1.98707 19.8752 3.80519 14.7773 7.21152C9.6794 10.6178 5.70605 15.4594 3.35973 21.1239C1.01342 26.7884 0.399514 33.0215 1.59566 39.0349C2.7918 45.0483 5.74426 50.572 10.0797 54.9074C14.4151 59.2428 19.9388 62.1953 25.9522 63.3914C31.9656 64.5876 38.1987 63.9737 43.8632 61.6273C49.5277 59.281 54.3692 55.3077 57.7756 50.2098C61.1819 45.1118 63 39.1183 63 32.9871C62.9907 24.7682 59.7217 16.8886 53.9101 11.077C48.0985 5.26538 40.2189 1.99634 32 1.98707V1.98707Z" fill="white"/>
<path d="M24.2725 28.8586C21.8664 28.002 19.838 26.3268 18.542 24.126C17.2461 21.9251 16.7652 19.3387 17.1833 16.8192C17.6015 14.2996 18.8921 12.0072 20.8295 10.3429C22.7668 8.67868 25.2276 7.74848 27.7814 7.71505C30.3353 7.68161 32.8196 8.54705 34.7998 10.16C36.7801 11.773 38.1303 14.0308 38.6143 16.5386C39.0982 19.0463 38.6852 21.6444 37.4473 23.8784C36.2095 26.1125 34.2256 27.8402 31.8428 28.7595L31.4834 27.8269C33.6474 26.9922 35.4492 25.4234 36.5735 23.3947C37.6978 21.366 38.0731 19.0066 37.6338 16.7292C37.1945 14.4518 35.9685 12.4013 34.1703 10.9364C32.3721 9.47142 30.1161 8.68527 27.7969 8.71542C25.4777 8.74556 23.2429 9.59008 21.4834 11.1013C19.7239 12.6125 18.5516 14.6941 18.1717 16.9822C17.7917 19.2703 18.2282 21.6191 19.4049 23.6179C20.5815 25.6166 22.4234 27.1381 24.6084 27.9162L24.2725 28.8586Z" fill="white"/>
</g>
<defs>
<clipPath id="clip0_20_2938">
<rect width="64.0002" height="64.0001" fill="white" transform="translate(0 0.987061)"/>
</clipPath>
</defs>
</svg>
