<svg width="64" height="64" viewBox="0 0 64 64" fill="none" xmlns="http://www.w3.org/2000/svg">
<g clip-path="url(#clip0_20_2809)">
<path opacity="0.15" d="M21.2293 26.6987H14.3688V37.2595H21.2293V26.6987Z" fill="#183A9E"/>
<path opacity="0.15" d="M38.0813 47.9741H25.9188V55.0427H38.0813V47.9741Z" fill="#183A9E"/>
<path d="M50.1309 30.873H42.2711V9.93896H50.1309V30.873ZM43.2711 29.873H49.1309V10.939H43.2711V29.873Z" fill="#204ECF"/>
<path d="M46.7012 7.69434H45.7012V10.439H46.7012V7.69434Z" fill="#204ECF"/>
<path d="M46.7012 30.373H45.7012V36.1411H46.7012V30.373Z" fill="#204ECF"/>
<path d="M35.9302 33.8945H28.0699V17.5337H35.9302V33.8945ZM29.0699 32.8945H34.9302V18.5337H29.0699V32.8945Z" fill="#204ECF"/>
<path d="M32.5001 10.439H31.5001V18.0337H32.5001V10.439Z" fill="#204ECF"/>
<path d="M32.5001 33.3945H31.5001V40.7798H32.5001V33.3945Z" fill="#204ECF"/>
<path d="M21.7291 37.7593H13.8687V26.1987H21.7291V37.7593ZM14.8687 36.7593H20.7291V27.1987H14.8687V36.7593Z" fill="#204ECF"/>
<path d="M18.2989 18.5869H17.2989V26.6987H18.2989V18.5869Z" fill="#204ECF"/>
<path d="M18.2989 37.2593H17.2989V40.7798H18.2989V37.2593Z" fill="#204ECF"/>
<path d="M61.3272 48.4741H2.67242C1.9639 48.4733 1.28463 48.1915 0.783631 47.6906C0.282634 47.1896 0.000833942 46.5103 6.10352e-05 45.8018V2.67236C0.000833942 1.96384 0.282634 1.28457 0.783631 0.78357C1.28463 0.282573 1.9639 0.000772907 2.67242 0L61.3272 0C62.0358 0.000754174 62.7151 0.282532 63.2162 0.783519C63.7173 1.28451 63.9992 1.96379 64.0001 2.67236V45.8018C63.9992 46.5103 63.7173 47.1896 63.2162 47.6906C62.7151 48.1916 62.0358 48.4734 61.3272 48.4741V48.4741ZM2.67242 1C2.22902 1.00043 1.8039 1.17677 1.49036 1.4903C1.17683 1.80384 1.0005 2.22896 1.00006 2.67236V45.8018C1.0005 46.2452 1.17683 46.6703 1.49036 46.9838C1.8039 47.2974 2.22902 47.4737 2.67242 47.4741H61.3272C61.7707 47.4738 62.1959 47.2975 62.5096 46.984C62.8232 46.6704 62.9996 46.2452 63.0001 45.8018V2.67236C62.9996 2.22888 62.8232 1.8037 62.5096 1.49015C62.1959 1.17661 61.7707 1.00033 61.3272 1H2.67242Z" fill="#204ECF"/>
<path d="M38.5811 47.9741H37.5811V59.6011H38.5811V47.9741Z" fill="#204ECF"/>
<path d="M26.419 47.9741H25.419V59.6011H26.419V47.9741Z" fill="#204ECF"/>
<path d="M47.6192 63H16.3814V64H47.6192V63Z" fill="#204ECF"/>
</g>
<defs>
<clipPath id="clip0_20_2809">
<rect width="64.0001" height="64.0001" fill="white"/>
</clipPath>
</defs>
</svg>
