<svg width="64" height="65" viewBox="0 0 64 65" fill="none" xmlns="http://www.w3.org/2000/svg">
<g clip-path="url(#clip0_20_2966)">
<path opacity="0.3" d="M21.2293 27.6858H14.3688V38.2466H21.2293V27.6858Z" fill="#231F20"/>
<path opacity="0.3" d="M38.0813 48.9612H25.9188V56.0298H38.0813V48.9612Z" fill="#231F20"/>
<path d="M50.1309 31.8601H42.2711V10.926H50.1309V31.8601ZM43.2711 30.8601H49.1309V11.926H43.2711V30.8601Z" fill="white"/>
<path d="M46.7012 8.6814H45.7012V11.426H46.7012V8.6814Z" fill="white"/>
<path d="M46.7012 31.3601H45.7012V37.1282H46.7012V31.3601Z" fill="white"/>
<path d="M35.9302 34.8816H28.0699V18.5208H35.9302V34.8816ZM29.0699 33.8816H34.9302V19.5208H29.0699V33.8816Z" fill="white"/>
<path d="M32.5001 11.426H31.5001V19.0208H32.5001V11.426Z" fill="white"/>
<path d="M32.5001 34.3816H31.5001V41.7668H32.5001V34.3816Z" fill="white"/>
<path d="M21.7291 38.7463H13.8687V27.1858H21.7291V38.7463ZM14.8687 37.7463H20.7291V28.1858H14.8687V37.7463Z" fill="white"/>
<path d="M18.2989 19.574H17.2989V27.6858H18.2989V19.574Z" fill="white"/>
<path d="M18.2989 38.2463H17.2989V41.7668H18.2989V38.2463Z" fill="white"/>
<path d="M61.3272 49.4612H2.67242C1.9639 49.4604 1.28463 49.1786 0.783631 48.6776C0.282634 48.1766 0.000833942 47.4973 6.10352e-05 46.7888V3.65942C0.000833942 2.9509 0.282634 2.27163 0.783631 1.77063C1.28463 1.26963 1.9639 0.987833 2.67242 0.987061L61.3272 0.987061C62.0358 0.987815 62.7151 1.26959 63.2162 1.77058C63.7173 2.27157 63.9992 2.95085 64.0001 3.65942V46.7888C63.9992 47.4974 63.7173 48.1767 63.2162 48.6777C62.7151 49.1786 62.0358 49.4604 61.3272 49.4612V49.4612ZM2.67242 1.98706C2.22902 1.98749 1.8039 2.16383 1.49036 2.47736C1.17683 2.7909 1.0005 3.21602 1.00006 3.65942V46.7888C1.0005 47.2322 1.17683 47.6573 1.49036 47.9709C1.8039 48.2844 2.22902 48.4607 2.67242 48.4612H61.3272C61.7707 48.4609 62.1959 48.2846 62.5096 47.971C62.8232 47.6575 62.9996 47.2323 63.0001 46.7888V3.65942C62.9996 3.21594 62.8232 2.79076 62.5096 2.47721C62.1959 2.16367 61.7707 1.98739 61.3272 1.98706H2.67242Z" fill="white"/>
<path d="M38.5811 48.9612H37.5811V60.5881H38.5811V48.9612Z" fill="white"/>
<path d="M26.419 48.9612H25.419V60.5881H26.419V48.9612Z" fill="white"/>
<path d="M47.6192 63.9871H16.3814V64.9871H47.6192V63.9871Z" fill="white"/>
</g>
<defs>
<clipPath id="clip0_20_2966">
<rect width="64.0001" height="64.0001" fill="white" transform="translate(0 0.987061)"/>
</clipPath>
</defs>
</svg>
