<svg width="64" height="65" viewBox="0 0 64 64" fill="none" xmlns="http://www.w3.org/2000/svg">
<g clip-path="url(#clip0_20_2985)">
<path opacity="0.3" d="M53.8384 39.5492H10.9547V11.9419H53.8384V39.5492Z" fill="#231F20"/>
<g opacity="0.15">
<path opacity="0.15" d="M0.5 53.625H63.5V55.7976C63.5 56.6618 63.1567 57.4907 62.5456 58.1018C61.9345 58.7129 61.1056 59.0562 60.2414 59.0562H3.75864C3.33071 59.0562 2.90697 58.9719 2.51161 58.8082C2.11626 58.6444 1.75703 58.4044 1.45443 58.1018C1.15184 57.7992 0.911812 57.44 0.74805 57.0446C0.584287 56.6493 0.5 56.2255 0.5 55.7976V53.625Z" fill="white"/>
</g>
<path d="M58.0689 43.51H5.93115V44.51H58.0689V43.51Z" fill="white"/>
<path d="M60.2412 59.5564H3.75879C2.76223 59.5553 1.80679 59.159 1.10211 58.4543C0.397438 57.7496 0.00107732 56.7942 0 55.7976L0 53.4934L5.43115 43.8792V9.16821C5.43206 8.43915 5.72208 7.7402 6.23761 7.22467C6.75314 6.70914 7.45208 6.41912 8.18115 6.41821H55.8189C56.5479 6.41912 57.2469 6.70914 57.7624 7.22467C58.2779 7.7402 58.5679 8.43915 58.5689 9.16821V43.8792L64 53.4934V55.7976C63.9989 56.7942 63.6026 57.7496 62.8979 58.4543C62.1932 59.159 61.2378 59.5553 60.2412 59.5564ZM1 53.7561V55.7976C1.0009 56.529 1.29184 57.2302 1.80902 57.7473C2.3262 58.2645 3.02739 58.5555 3.75879 58.5564H60.2412C60.9726 58.5555 61.6738 58.2645 62.191 57.7474C62.7081 57.2302 62.9991 56.529 63 55.7976V53.7561L57.5689 44.1418V9.16821C57.5683 8.70426 57.3837 8.25947 57.0557 7.9314C56.7276 7.60333 56.2828 7.41878 55.8189 7.41821H8.18115C7.71719 7.41878 7.2724 7.60333 6.94434 7.9314C6.61627 8.25947 6.43171 8.70426 6.43115 9.16821V44.1419L1 53.7561Z" fill="white"/>
<path d="M63.5 53.1248H0.5V54.1248H63.5V53.1248Z" fill="white"/>
</g>
<defs>
<clipPath id="clip0_20_2985">
<rect width="64" height="64" fill="white" transform="translate(0 0.987061)"/>
</clipPath>
</defs>
</svg>
