<svg width="64" height="64" viewBox="0 0 64 64" fill="none" xmlns="http://www.w3.org/2000/svg">
<g clip-path="url(#clip0_20_2828)">
<path opacity="0.15" d="M53.8384 38.5621H10.9547V10.9548H53.8384V38.5621Z" fill="#183A9E"/>
<g opacity="0.15">
<path opacity="0.15" d="M0.5 52.6379H63.5V54.8105C63.5 55.6748 63.1567 56.5036 62.5456 57.1147C61.9345 57.7258 61.1056 58.0691 60.2414 58.0691H3.75864C3.33071 58.0692 2.90697 57.9849 2.51161 57.8211C2.11626 57.6573 1.75703 57.4173 1.45443 57.1147C1.15184 56.8121 0.911812 56.4529 0.74805 56.0576C0.584287 55.6622 0.5 55.2385 0.5 54.8105V52.6379Z" fill="#204ECF"/>
</g>
<path d="M58.0689 42.5229H5.93115V43.5229H58.0689V42.5229Z" fill="#204ECF"/>
<path d="M60.2412 58.5693H3.75879C2.76223 58.5683 1.80679 58.1719 1.10211 57.4672C0.397438 56.7626 0.00107732 55.8071 0 54.8106L0 52.5064L5.43115 42.8921V8.18115C5.43206 7.45209 5.72208 6.75314 6.23761 6.23761C6.75314 5.72208 7.45208 5.43206 8.18115 5.43115H55.8189C56.5479 5.43206 57.2469 5.72208 57.7624 6.23761C58.2779 6.75314 58.5679 7.45209 58.5689 8.18115V42.8921L64 52.5064V54.8106C63.9989 55.8071 63.6026 56.7626 62.8979 57.4672C62.1932 58.1719 61.2378 58.5683 60.2412 58.5693ZM1 52.769V54.8105C1.0009 55.5419 1.29184 56.2431 1.80902 56.7603C2.3262 57.2775 3.02739 57.5684 3.75879 57.5693H60.2412C60.9726 57.5684 61.6738 57.2775 62.191 56.7603C62.7081 56.2431 62.9991 55.5419 63 54.8106V52.769L57.5689 43.1548V8.18115C57.5683 7.7172 57.3837 7.2724 57.0557 6.94434C56.7276 6.61627 56.2828 6.43172 55.8189 6.43115H8.18115C7.71719 6.43172 7.2724 6.61627 6.94434 6.94434C6.61627 7.2724 6.43171 7.7172 6.43115 8.18115V43.1548L1 52.769Z" fill="#204ECF"/>
<path d="M63.5 52.1377H0.5V53.1377H63.5V52.1377Z" fill="#204ECF"/>
</g>
<defs>
<clipPath id="clip0_20_2828">
<rect width="64" height="64" fill="white"/>
</clipPath>
</defs>
</svg>
