<svg width="64" height="64" viewBox="0 0 64 64" fill="none" xmlns="http://www.w3.org/2000/svg">
<g clip-path="url(#clip0_20_2838)">
<path opacity="0.15" d="M31.9999 15.1183C32.8289 15.1184 33.6392 14.8725 34.3285 14.412C35.0178 13.9515 35.555 13.2968 35.8723 12.531C36.1895 11.7651 36.2725 10.9223 36.1108 10.1093C35.9491 9.29622 35.5499 8.54938 34.9637 7.96321C34.3775 7.37703 33.6307 6.97784 32.8176 6.81612C32.0046 6.65441 31.1618 6.73742 30.3959 7.05468C29.63 7.37193 28.9755 7.90917 28.5149 8.59845C28.0544 9.28774 27.8086 10.0981 27.8086 10.9271C27.8086 12.0387 28.2502 13.1047 29.0362 13.8907C29.8223 14.6767 30.8883 15.1183 31.9999 15.1183V15.1183Z" fill="#183A9E"/>
<path opacity="0.15" d="M32 15.1182C30.8887 15.1182 29.7882 15.3371 28.7615 15.7624C27.7347 16.1876 26.8018 16.811 26.016 17.5968C25.2301 18.3827 24.6068 19.3156 24.1815 20.3424C23.7562 21.3691 23.5373 22.4696 23.5374 23.5809H40.4626C40.4626 22.4696 40.2437 21.3691 39.8185 20.3424C39.3932 19.3156 38.7698 18.3827 37.984 17.5969C37.1982 16.811 36.2653 16.1877 35.2385 15.7624C34.2118 15.3371 33.1113 15.1182 32 15.1182V15.1182Z" fill="#183A9E"/>
<path d="M32 31.4136C28.8935 31.4135 25.8567 30.4923 23.2738 28.7664C20.6908 27.0405 18.6777 24.5874 17.4889 21.7173C16.3002 18.8473 15.9892 15.6892 16.5952 12.6423C17.2013 9.59553 18.6973 6.79687 20.894 4.60027C23.0906 2.40366 25.8893 0.907775 28.9362 0.301766C31.983 -0.304242 35.1411 0.00684881 38.0111 1.1957C40.8811 2.38455 43.3342 4.39776 45.06 6.98075C46.7859 9.56375 47.707 12.6005 47.707 15.707C47.7023 19.8713 46.0459 23.8636 43.1013 26.8082C40.1567 29.7527 36.1643 31.409 32 31.4136ZM32 1.00002C29.0913 1.00006 26.2479 1.86263 23.8294 3.47865C21.4109 5.09466 19.5259 7.39155 18.4129 10.0789C17.2998 12.7662 17.0085 15.7232 17.576 18.576C18.1435 21.4288 19.5442 24.0493 21.6009 26.1061C23.6577 28.1628 26.2782 29.5635 29.131 30.131C31.9838 30.6985 34.9408 30.4072 37.6281 29.2941C40.3154 28.1811 42.6123 26.2961 44.2284 23.8776C45.8444 21.4591 46.7069 18.6157 46.707 15.707C46.7025 11.8078 45.1516 8.06965 42.3945 5.31252C39.6374 2.55539 35.8992 1.00447 32 1.00002V1.00002Z" fill="#204ECF"/>
<path d="M9.40627 55.0938C8.43494 55.0938 7.48542 54.8057 6.67778 54.2661C5.87015 53.7265 5.24067 52.9594 4.86896 52.062C4.49725 51.1646 4.39999 50.1772 4.58949 49.2245C4.77898 48.2718 5.24672 47.3968 5.93356 46.7099C6.62039 46.0231 7.49548 45.5553 8.44815 45.3659C9.40081 45.1764 10.3883 45.2736 11.2857 45.6453C12.1831 46.017 12.9501 46.6465 13.4897 47.4541C14.0294 48.2618 14.3174 49.2113 14.3174 50.1826C14.3159 51.4847 13.798 52.733 12.8773 53.6537C11.9566 54.5744 10.7083 55.0923 9.40627 55.0938V55.0938ZM9.40627 46.2715C8.63272 46.2715 7.87654 46.5009 7.23335 46.9306C6.59017 47.3604 6.08887 47.9712 5.79284 48.6859C5.49681 49.4006 5.41936 50.187 5.57027 50.9457C5.72118 51.7043 6.09368 52.4012 6.64066 52.9482C7.18764 53.4952 7.88454 53.8677 8.64323 54.0186C9.40192 54.1695 10.1883 54.0921 10.903 53.7961C11.6177 53.5 12.2285 52.9987 12.6583 52.3555C13.088 51.7124 13.3174 50.9562 13.3174 50.1826C13.3163 49.1457 12.9038 48.1515 12.1706 47.4183C11.4374 46.6851 10.4432 46.2726 9.40627 46.2715Z" fill="#204ECF"/>
<path d="M18.8125 63.5H17.8125C17.8125 61.2705 16.9268 59.1324 15.3504 57.5559C13.7739 55.9794 11.6357 55.0938 9.40625 55.0938C7.17677 55.0938 5.03861 55.9794 3.46213 57.5559C1.88566 59.1324 1 61.2705 1 63.5H0C0 61.0053 0.991013 58.6128 2.75503 56.8488C4.51904 55.0848 6.91156 54.0938 9.40625 54.0938C11.9009 54.0938 14.2935 55.0848 16.0575 56.8488C17.8215 58.6128 18.8125 61.0053 18.8125 63.5V63.5Z" fill="#204ECF"/>
<path d="M32 55.0938C31.0287 55.0938 30.0792 54.8057 29.2715 54.2661C28.4639 53.7265 27.8344 52.9594 27.4627 52.062C27.091 51.1646 26.9937 50.1772 27.1832 49.2245C27.3727 48.2718 27.8405 47.3968 28.5273 46.7099C29.2141 46.0231 30.0892 45.5553 31.0419 45.3659C31.9946 45.1764 32.982 45.2736 33.8794 45.6453C34.7768 46.017 35.5438 46.6465 36.0835 47.4541C36.6231 48.2618 36.9112 49.2113 36.9111 50.1826C36.9097 51.4847 36.3918 52.733 35.4711 53.6537C34.5504 54.5744 33.3021 55.0923 32 55.0938V55.0938ZM32 46.2715C31.2265 46.2715 30.4703 46.5009 29.8271 46.9306C29.1839 47.3604 28.6826 47.9712 28.3866 48.6859C28.0906 49.4006 28.0131 50.187 28.164 50.9457C28.3149 51.7043 28.6874 52.4012 29.2344 52.9482C29.7814 53.4952 30.4783 53.8677 31.237 54.0186C31.9957 54.1695 32.7821 54.0921 33.4967 53.7961C34.2114 53.5 34.8222 52.9987 35.252 52.3555C35.6818 51.7124 35.9111 50.9562 35.9111 50.1826C35.91 49.1457 35.4976 48.1515 34.7644 47.4183C34.0311 46.6851 33.037 46.2726 32 46.2715Z" fill="#204ECF"/>
<path d="M41.4062 63.5H40.4062C40.4062 61.2705 39.5206 59.1324 37.9441 57.5559C36.3676 55.9794 34.2295 55.0938 32 55.0938C29.7705 55.0938 27.6324 55.9794 26.0559 57.5559C24.4794 59.1324 23.5938 61.2705 23.5938 63.5H22.5938C22.5938 61.0053 23.5848 58.6128 25.3488 56.8488C27.1128 55.0848 29.5053 54.0938 32 54.0938C34.4947 54.0938 36.8872 55.0848 38.6512 56.8488C40.4152 58.6128 41.4062 61.0053 41.4062 63.5V63.5Z" fill="#204ECF"/>
<path d="M54.5938 55.0938C53.6224 55.0938 52.6729 54.8057 51.8653 54.2661C51.0577 53.7265 50.4282 52.9594 50.0565 52.062C49.6847 51.1646 49.5875 50.1772 49.777 49.2245C49.9665 48.2718 50.4342 47.3968 51.1211 46.7099C51.8079 46.0231 52.683 45.5553 53.6356 45.3659C54.5883 45.1764 55.5758 45.2736 56.4732 45.6453C57.3706 46.017 58.1376 46.6465 58.6772 47.4541C59.2169 48.2618 59.5049 49.2113 59.5049 50.1826C59.5034 51.4847 58.9855 52.733 58.0648 53.6537C57.1441 54.5744 55.8958 55.0923 54.5938 55.0938V55.0938ZM54.5938 46.2715C53.8202 46.2715 53.064 46.5009 52.4209 46.9306C51.7777 47.3604 51.2764 47.9712 50.9803 48.6859C50.6843 49.4006 50.6069 50.187 50.7578 50.9457C50.9087 51.7043 51.2812 52.4012 51.8282 52.9482C52.3751 53.4952 53.072 53.8677 53.8307 54.0186C54.5894 54.1695 55.3758 54.0921 56.0905 53.7961C56.8052 53.5 57.416 52.9987 57.8458 52.3555C58.2755 51.7124 58.5049 50.9562 58.5049 50.1826C58.5038 49.1457 58.0913 48.1515 57.3581 47.4183C56.6249 46.6851 55.6307 46.2726 54.5938 46.2715V46.2715Z" fill="#204ECF"/>
<path d="M64 63.5H63C63 61.2705 62.1143 59.1324 60.5379 57.5559C58.9614 55.9794 56.8232 55.0937 54.5938 55.0938C52.3643 55.0937 50.2261 55.9794 48.6496 57.5559C47.0732 59.1324 46.1875 61.2705 46.1875 63.5H45.1875C45.1875 61.0053 46.1785 58.6128 47.9425 56.8488C49.7065 55.0848 52.0991 54.0938 54.5938 54.0938C57.0884 54.0938 59.481 55.0848 61.245 56.8488C63.009 58.6128 64 61.0053 64 63.5V63.5Z" fill="#204ECF"/>
<path d="M32 15.6182C31.0721 15.6182 30.1651 15.343 29.3936 14.8275C28.6221 14.312 28.0208 13.5793 27.6657 12.7221C27.3106 11.8648 27.2177 10.9216 27.3987 10.0115C27.5798 9.10147 28.0266 8.26554 28.6827 7.60943C29.3388 6.95333 30.1747 6.50651 31.0848 6.3255C31.9948 6.14448 32.9381 6.23739 33.7953 6.59247C34.6526 6.94755 35.3853 7.54886 35.9008 8.32036C36.4163 9.09186 36.6914 9.9989 36.6914 10.9268C36.69 12.1706 36.1953 13.3631 35.3158 14.2426C34.4363 15.1221 33.2438 15.6168 32 15.6182V15.6182ZM32 7.23536C31.2699 7.23536 30.5562 7.45186 29.9492 7.85748C29.3421 8.2631 28.869 8.83961 28.5896 9.51413C28.3102 10.1886 28.2371 10.9309 28.3795 11.6469C28.522 12.363 28.8735 13.0207 29.3898 13.537C29.906 14.0532 30.5638 14.4048 31.2798 14.5473C31.9959 14.6897 32.7381 14.6166 33.4126 14.3372C34.0872 14.0578 34.6637 13.5847 35.0693 12.9776C35.4749 12.3706 35.6914 11.6569 35.6914 10.9268C35.6904 9.94807 35.3011 9.00975 34.6091 8.3177C33.917 7.62565 32.9787 7.2364 32 7.23536Z" fill="#204ECF"/>
<path d="M40.9624 23.581H39.9624C39.9636 22.5346 39.7585 21.4982 39.3589 20.5311C38.9592 19.564 38.3729 18.6851 37.6334 17.9448C36.8938 17.2044 36.0156 16.6171 35.049 16.2164C34.0823 15.8157 33.0462 15.6094 31.9998 15.6094C30.9533 15.6094 29.9172 15.8157 28.9505 16.2164C27.9839 16.6171 27.1057 17.2044 26.3662 17.9448C25.6266 18.6851 25.0403 19.564 24.6407 20.5311C24.241 21.4982 24.0359 22.5346 24.0371 23.581H23.0371C23.0359 22.4032 23.2668 21.2367 23.7166 20.1482C24.1665 19.0597 24.8265 18.0706 25.6589 17.2373C26.4912 16.4041 27.4797 15.743 28.5677 15.292C29.6557 14.841 30.822 14.6089 31.9998 14.6089C33.1775 14.6089 34.3438 14.841 35.4318 15.292C36.5198 15.743 37.5083 16.4041 38.3407 17.2373C39.173 18.0706 39.833 19.0597 40.2829 20.1482C40.7327 21.2367 40.9636 22.4032 40.9624 23.581V23.581Z" fill="#204ECF"/>
<path d="M55.094 45.7709H54.094V38.7749H9.90601V45.7709H8.90601V37.7749H55.094V45.7709Z" fill="#204ECF"/>
<path d="M32.5 30.9136H31.5V45.7715H32.5V30.9136Z" fill="#204ECF"/>
</g>
<defs>
<clipPath id="clip0_20_2838">
<rect width="64.0001" height="64" fill="white"/>
</clipPath>
</defs>
</svg>
