<svg width="64" height="65" viewBox="0 0 64 64" fill="none" xmlns="http://www.w3.org/2000/svg">
<g clip-path="url(#clip0_20_2995)">
<path opacity="0.3" d="M31.9999 16.1054C32.8289 16.1054 33.6392 15.8596 34.3285 15.3991C35.0178 14.9385 35.555 14.2839 35.8723 13.518C36.1895 12.7521 36.2725 11.9094 36.1108 11.0963C35.9491 10.2833 35.5499 9.53645 34.9637 8.95027C34.3775 8.36409 33.6307 7.9649 32.8176 7.80318C32.0046 7.64147 31.1618 7.72448 30.3959 8.04174C29.63 8.35899 28.9755 8.89623 28.5149 9.58551C28.0544 10.2748 27.8086 11.0852 27.8086 11.9142C27.8086 13.0257 28.2502 14.0918 29.0362 14.8778C29.8223 15.6638 30.8883 16.1054 31.9999 16.1054V16.1054Z" fill="#231F20"/>
<path opacity="0.3" d="M32 16.1052C30.8887 16.1052 29.7882 16.3241 28.7615 16.7494C27.7347 17.1747 26.8018 17.7981 26.016 18.5839C25.2301 19.3697 24.6068 20.3027 24.1815 21.3294C23.7562 22.3562 23.5373 23.4566 23.5374 24.568H40.4626C40.4626 23.4566 40.2437 22.3562 39.8185 21.3294C39.3932 20.3027 38.7698 19.3698 37.984 18.5839C37.1982 17.7981 36.2653 17.1747 35.2385 16.7494C34.2118 16.3241 33.1113 16.1052 32 16.1052V16.1052Z" fill="#231F20"/>
<path d="M32 32.4006C28.8935 32.4006 25.8567 31.4794 23.2738 29.7535C20.6908 28.0275 18.6777 25.5744 17.4889 22.7044C16.3002 19.8343 15.9892 16.6762 16.5952 13.6294C17.2013 10.5826 18.6973 7.78393 20.894 5.58733C23.0906 3.39072 25.8893 1.89484 28.9362 1.28883C31.983 0.682819 35.1411 0.993909 38.0111 2.18276C40.8811 3.37161 43.3342 5.38482 45.06 7.96781C46.7859 10.5508 47.707 13.5876 47.707 16.6941C47.7023 20.8583 46.0459 24.8507 43.1013 27.7952C40.1567 30.7398 36.1643 32.396 32 32.4006ZM32 1.98708C29.0913 1.98712 26.2479 2.84969 23.8294 4.46571C21.4109 6.08173 19.5259 8.37861 18.4129 11.0659C17.2998 13.7532 17.0085 16.7103 17.576 19.5631C18.1435 22.4159 19.5442 25.0364 21.6009 27.0931C23.6577 29.1499 26.2782 30.5506 29.131 31.1181C31.9838 31.6855 34.9408 31.3943 37.6281 30.2812C40.3154 29.1681 42.6123 27.2831 44.2284 24.8647C45.8444 22.4462 46.7069 19.6028 46.707 16.6941C46.7025 12.7949 45.1516 9.05671 42.3945 6.29958C39.6374 3.54245 35.8992 1.99153 32 1.98708V1.98708Z" fill="white"/>
<path d="M9.40627 56.0808C8.43494 56.0808 7.48542 55.7928 6.67778 55.2532C5.87015 54.7135 5.24067 53.9465 4.86896 53.0491C4.49725 52.1517 4.39999 51.1642 4.58949 50.2116C4.77898 49.2589 5.24672 48.3838 5.93356 47.697C6.62039 47.0102 7.49548 46.5424 8.44815 46.3529C9.40081 46.1634 10.3883 46.2607 11.2857 46.6324C12.1831 47.0041 12.9501 47.6336 13.4897 48.4412C14.0294 49.2488 14.3174 50.1984 14.3174 51.1697C14.3159 52.4718 13.798 53.7201 12.8773 54.6408C11.9566 55.5615 10.7083 56.0794 9.40627 56.0808V56.0808ZM9.40627 47.2586C8.63272 47.2586 7.87654 47.4879 7.23335 47.9177C6.59017 48.3475 6.08887 48.9583 5.79284 49.673C5.49681 50.3876 5.41936 51.174 5.57027 51.9327C5.72118 52.6914 6.09368 53.3883 6.64066 53.9353C7.18764 54.4823 7.88454 54.8548 8.64323 55.0057C9.40192 55.1566 10.1883 55.0791 10.903 54.7831C11.6177 54.4871 12.2285 53.9858 12.6583 53.3426C13.088 52.6994 13.3174 51.9432 13.3174 51.1697C13.3163 50.1327 12.9038 49.1386 12.1706 48.4054C11.4374 47.6721 10.4432 47.2597 9.40627 47.2586Z" fill="white"/>
<path d="M18.8125 64.4871H17.8125C17.8125 62.2576 16.9268 60.1194 15.3504 58.5429C13.7739 56.9665 11.6357 56.0808 9.40625 56.0808C7.17677 56.0808 5.03861 56.9665 3.46213 58.5429C1.88566 60.1194 1 62.2576 1 64.4871H0C0 61.9924 0.991013 59.5999 2.75503 57.8358C4.51904 56.0718 6.91156 55.0808 9.40625 55.0808C11.9009 55.0808 14.2935 56.0718 16.0575 57.8358C17.8215 59.5999 18.8125 61.9924 18.8125 64.4871V64.4871Z" fill="white"/>
<path d="M32 56.0808C31.0287 56.0808 30.0792 55.7928 29.2715 55.2532C28.4639 54.7135 27.8344 53.9465 27.4627 53.0491C27.091 52.1517 26.9937 51.1642 27.1832 50.2116C27.3727 49.2589 27.8405 48.3838 28.5273 47.697C29.2141 47.0102 30.0892 46.5424 31.0419 46.3529C31.9946 46.1634 32.982 46.2607 33.8794 46.6324C34.7768 47.0041 35.5438 47.6336 36.0835 48.4412C36.6231 49.2488 36.9112 50.1984 36.9111 51.1697C36.9097 52.4718 36.3918 53.7201 35.4711 54.6408C34.5504 55.5615 33.3021 56.0794 32 56.0808V56.0808ZM32 47.2586C31.2265 47.2586 30.4703 47.4879 29.8271 47.9177C29.1839 48.3475 28.6826 48.9583 28.3866 49.673C28.0906 50.3876 28.0131 51.174 28.164 51.9327C28.3149 52.6914 28.6874 53.3883 29.2344 53.9353C29.7814 54.4823 30.4783 54.8548 31.237 55.0057C31.9957 55.1566 32.7821 55.0791 33.4967 54.7831C34.2114 54.4871 34.8222 53.9858 35.252 53.3426C35.6818 52.6994 35.9111 51.9432 35.9111 51.1697C35.91 50.1327 35.4976 49.1386 34.7644 48.4054C34.0311 47.6721 33.037 47.2597 32 47.2586Z" fill="white"/>
<path d="M41.4062 64.4871H40.4062C40.4062 62.2576 39.5206 60.1194 37.9441 58.5429C36.3676 56.9665 34.2295 56.0808 32 56.0808C29.7705 56.0808 27.6324 56.9665 26.0559 58.5429C24.4794 60.1194 23.5938 62.2576 23.5938 64.4871H22.5938C22.5938 61.9924 23.5848 59.5999 25.3488 57.8358C27.1128 56.0718 29.5053 55.0808 32 55.0808C34.4947 55.0808 36.8872 56.0718 38.6512 57.8358C40.4152 59.5999 41.4062 61.9924 41.4062 64.4871V64.4871Z" fill="white"/>
<path d="M54.5938 56.0808C53.6224 56.0808 52.6729 55.7928 51.8653 55.2532C51.0577 54.7135 50.4282 53.9465 50.0565 53.0491C49.6847 52.1517 49.5875 51.1642 49.777 50.2116C49.9665 49.2589 50.4342 48.3838 51.1211 47.697C51.8079 47.0102 52.683 46.5424 53.6356 46.3529C54.5883 46.1634 55.5758 46.2607 56.4732 46.6324C57.3706 47.0041 58.1376 47.6336 58.6772 48.4412C59.2169 49.2488 59.5049 50.1984 59.5049 51.1697C59.5034 52.4718 58.9855 53.7201 58.0648 54.6408C57.1441 55.5615 55.8958 56.0794 54.5938 56.0808V56.0808ZM54.5938 47.2586C53.8202 47.2586 53.064 47.4879 52.4209 47.9177C51.7777 48.3475 51.2764 48.9583 50.9803 49.673C50.6843 50.3876 50.6069 51.174 50.7578 51.9327C50.9087 52.6914 51.2812 53.3883 51.8282 53.9353C52.3751 54.4823 53.072 54.8548 53.8307 55.0057C54.5894 55.1566 55.3758 55.0791 56.0905 54.7831C56.8052 54.4871 57.416 53.9858 57.8458 53.3426C58.2755 52.6994 58.5049 51.9432 58.5049 51.1697C58.5038 50.1327 58.0913 49.1386 57.3581 48.4054C56.6249 47.6721 55.6307 47.2597 54.5938 47.2586V47.2586Z" fill="white"/>
<path d="M64 64.4871H63C63 62.2576 62.1143 60.1194 60.5379 58.5429C58.9614 56.9665 56.8232 56.0808 54.5938 56.0808C52.3643 56.0808 50.2261 56.9665 48.6496 58.5429C47.0732 60.1194 46.1875 62.2576 46.1875 64.4871H45.1875C45.1875 61.9924 46.1785 59.5999 47.9425 57.8358C49.7065 56.0718 52.0991 55.0808 54.5938 55.0808C57.0884 55.0808 59.481 56.0718 61.245 57.8358C63.009 59.5999 64 61.9924 64 64.4871V64.4871Z" fill="white"/>
<path d="M32 16.6052C31.0721 16.6052 30.1651 16.3301 29.3936 15.8146C28.6221 15.2991 28.0208 14.5664 27.6657 13.7091C27.3106 12.8519 27.2177 11.9086 27.3987 10.9986C27.5798 10.0885 28.0266 9.2526 28.6827 8.59649C29.3388 7.94039 30.1747 7.49358 31.0848 7.31256C31.9948 7.13154 32.9381 7.22445 33.7953 7.57953C34.6526 7.93461 35.3853 8.53592 35.9008 9.30742C36.4163 10.0789 36.6914 10.986 36.6914 11.9138C36.69 13.1576 36.1953 14.3501 35.3158 15.2296C34.4363 16.1091 33.2438 16.6038 32 16.6052V16.6052ZM32 8.22242C31.2699 8.22242 30.5562 8.43892 29.9492 8.84454C29.3421 9.25016 28.869 9.82668 28.5896 10.5012C28.3102 11.1757 28.2371 11.9179 28.3795 12.634C28.522 13.3501 28.8735 14.0078 29.3898 14.5241C29.906 15.0403 30.5638 15.3919 31.2798 15.5343C31.9959 15.6767 32.7381 15.6036 33.4126 15.3243C34.0872 15.0449 34.6637 14.5717 35.0693 13.9647C35.4749 13.3576 35.6914 12.6439 35.6914 11.9138C35.6904 10.9351 35.3011 9.99681 34.6091 9.30476C33.917 8.61271 32.9787 8.22346 32 8.22242Z" fill="white"/>
<path d="M40.9624 24.5681H39.9624C39.9636 23.5216 39.7585 22.4853 39.3589 21.5182C38.9592 20.551 38.3729 19.6722 37.6334 18.9319C36.8938 18.1915 36.0156 17.6042 35.049 17.2035C34.0823 16.8027 33.0462 16.5965 31.9998 16.5965C30.9533 16.5965 29.9172 16.8027 28.9505 17.2035C27.9839 17.6042 27.1057 18.1915 26.3662 18.9319C25.6266 19.6722 25.0403 20.551 24.6407 21.5182C24.241 22.4853 24.0359 23.5216 24.0371 24.5681H23.0371C23.0359 23.3903 23.2668 22.2238 23.7166 21.1353C24.1665 20.0468 24.8265 19.0577 25.6589 18.2244C26.4912 17.3911 27.4797 16.7301 28.5677 16.2791C29.6557 15.8281 30.822 15.5959 31.9998 15.5959C33.1775 15.5959 34.3438 15.8281 35.4318 16.2791C36.5198 16.7301 37.5083 17.3911 38.3407 18.2244C39.173 19.0577 39.833 20.0468 40.2829 21.1353C40.7327 22.2238 40.9636 23.3903 40.9624 24.5681V24.5681Z" fill="white"/>
<path d="M55.094 46.758H54.094V39.762H9.90601V46.758H8.90601V38.762H55.094V46.758Z" fill="white"/>
<path d="M32.5 31.9006H31.5V46.7585H32.5V31.9006Z" fill="white"/>
</g>
<defs>
<clipPath id="clip0_20_2995">
<rect width="64.0001" height="64" fill="white" transform="translate(0 0.987061)"/>
</clipPath>
</defs>
</svg>
