<svg width="64" height="65" viewBox="0 0 64 65" fill="none" xmlns="http://www.w3.org/2000/svg">
<g clip-path="url(#clip0_20_3047)">
<path opacity="0.3" d="M22.5615 55.7234C22.5694 58.0471 23.4971 60.2731 25.1417 61.9147C26.7863 63.5562 29.014 64.4798 31.3377 64.4833H32.6584C34.9818 64.4789 37.209 63.5551 38.8534 61.9137C40.4979 60.2723 41.4258 58.0468 41.4346 55.7234C41.4314 53.4901 41.6047 51.26 41.9529 49.054H22.0434C22.3917 51.26 22.5649 53.4901 22.5615 55.7234Z" fill="#231F20"/>
<path d="M32.6641 64.9871H31.3359C28.8781 64.9843 26.5217 64.0067 24.7838 62.2687C23.0458 60.5308 22.0682 58.1744 22.0654 55.7165C22.1361 47.0237 19.3675 38.5454 14.1802 31.5696C11.7257 28.4052 10.3888 24.5167 10.3784 20.512C10.3784 9.74585 20.0776 0.987061 32 0.987061C43.9224 0.987061 53.6216 9.74585 53.6216 20.512C53.6112 24.5167 52.2743 28.4052 49.8198 31.5696C44.6325 38.5454 41.8637 47.0237 41.9341 55.7166C41.9313 58.1743 40.9538 60.5307 39.2159 62.2686C37.4781 64.0065 35.1218 64.9842 32.6641 64.9871V64.9871ZM32 1.98706C20.6294 1.98706 11.3784 10.2971 11.3784 20.512C11.3894 24.2974 12.6542 27.9726 14.9751 30.9631C20.2951 38.1133 23.1357 46.8046 23.0654 55.7165C23.0678 57.9093 23.94 60.0115 25.4905 61.562C27.041 63.1125 29.1432 63.9846 31.3359 63.9871H32.6641C34.8567 63.9845 36.9588 63.1124 38.5092 61.5619C40.0596 60.0114 40.9317 57.9092 40.9341 55.7165C40.8641 46.8046 43.7049 38.1133 49.0249 30.9631C51.3458 27.9726 52.6106 24.2974 52.6216 20.512C52.6216 10.2971 43.3706 1.98706 32 1.98706Z" fill="white"/>
<path d="M41.9922 48.5554H22.0488V49.5554H41.9922V48.5554Z" fill="white"/>
<path d="M36.0923 41.0281H35.0923V30.2698H28.9077V41.0281H27.9077V30.2698H25.0478C24.4185 30.2556 23.8028 30.0837 23.2571 29.7697C22.7115 29.4558 22.2534 29.0099 21.9248 28.4729C21.6184 27.9721 21.4464 27.4006 21.4254 26.8138C21.4045 26.227 21.5353 25.6448 21.8052 25.1233C22.1443 24.4373 22.6915 23.8759 23.3686 23.5193C24.0457 23.1626 24.8182 23.029 25.5757 23.1375C26.3257 23.2202 27.0304 23.5377 27.5892 24.0446C28.1481 24.5514 28.5327 25.2219 28.688 25.9602C28.8736 27.013 28.9475 28.0824 28.9082 29.1507V29.2698H35.0918V29.1507C35.0526 28.0824 35.1264 27.013 35.312 25.9602C35.4674 25.2219 35.8519 24.5514 36.4108 24.0445C36.9697 23.5377 37.6744 23.2202 38.4243 23.1375C39.182 23.0278 39.9549 23.1609 40.6323 23.5177C41.3097 23.8744 41.8566 24.4365 42.1948 25.1233C42.4637 25.6431 42.5945 26.2232 42.5747 26.808C42.5548 27.3929 42.385 27.9628 42.0815 28.4632C41.7565 28.9983 41.3029 29.4438 40.7621 29.7593C40.2213 30.0748 39.6102 30.2502 38.9844 30.2698H36.0923V41.0281ZM25.0864 24.1067C24.5904 24.0954 24.1017 24.2271 23.6786 24.4862C23.2555 24.7453 22.916 25.1207 22.7007 25.5677C22.5045 25.9376 22.4086 26.3525 22.4224 26.771C22.4362 27.1895 22.5592 27.5971 22.7793 27.9534C23.0187 28.3456 23.3525 28.6716 23.7503 28.9016C24.1482 29.1315 24.5973 29.2581 25.0566 29.2698H27.9082V29.1482C27.9472 28.15 27.8806 27.1505 27.7095 26.1663C27.5985 25.6304 27.3195 25.1439 26.913 24.7775C26.5065 24.4112 25.9937 24.184 25.4492 24.1292C25.3289 24.1142 25.2077 24.1067 25.0864 24.1067V24.1067ZM38.9136 24.1067C38.7923 24.1067 38.6711 24.1142 38.5508 24.1292C38.0063 24.184 37.4935 24.4112 37.087 24.7775C36.6805 25.1439 36.4015 25.6304 36.2905 26.1663C36.1194 27.1505 36.0528 28.15 36.0918 29.1482V29.2698H38.9722C39.428 29.2536 39.8727 29.1242 40.266 28.8932C40.6594 28.6622 40.989 28.3368 41.2251 27.9466C41.4431 27.5907 41.5646 27.1841 41.5776 26.7669C41.5906 26.3498 41.4947 25.9364 41.2993 25.5677C41.0839 25.1208 40.7444 24.7453 40.3213 24.4863C39.8983 24.2272 39.4095 24.0954 38.9136 24.1067V24.1067Z" fill="white"/>
<path d="M64 49.5542H41.992V48.5542H63V17.4202H52.744V16.4202H64V49.5542Z" fill="white"/>
<path d="M22.049 49.5542H0V16.4202H11.274V17.4202H1V48.5542H22.049V49.5542Z" fill="white"/>
</g>
<defs>
<clipPath id="clip0_20_3047">
<rect width="64" height="64" fill="white" transform="translate(0 0.987061)"/>
</clipPath>
</defs>
</svg>
