<svg width="64" height="65" viewBox="0 0 64 65" fill="none" xmlns="http://www.w3.org/2000/svg">
<g clip-path="url(#clip0_20_3057)">
<path opacity="0.3" d="M48.869 27.9951H32V1.48706L15.131 37.9791H32V64.4871L48.869 27.9951Z" fill="#231F20"/>
<path d="M32.3896 64.8362L31.9365 64.781C31.8125 64.7547 31.7013 64.6864 31.6218 64.5877C31.5423 64.489 31.4993 64.3658 31.5 64.2391V38.4788H14.3496L31.6523 1.04761L32.4741 1.20435L32.5 1.63696V27.4954H49.6504L32.3896 64.8362ZM31.6504 64.0515L31.6494 64.0535L31.6504 64.0515ZM15.9131 37.4788H32.5V62.2136L48.0869 28.4954H31.5V3.7605L15.9131 37.4788Z" fill="white"/>
<path d="M32 64.9871C25.671 64.9871 19.4841 63.1103 14.2218 59.5941C8.95938 56.0779 4.85786 51.0802 2.43585 45.2329C0.0138497 39.3857 -0.619857 32.9516 0.61487 26.7442C1.8496 20.5368 4.8973 14.8349 9.37258 10.3597C13.8479 5.88438 19.5497 2.83667 25.7571 1.60195C31.9645 0.367219 38.3986 1.00093 44.2459 3.42293C50.0931 5.84493 55.0908 9.94645 58.607 15.2088C62.1232 20.4712 64 26.6581 64 32.9871C63.9905 41.4711 60.616 49.6049 54.6169 55.604C48.6178 61.6031 40.484 64.9775 32 64.9871ZM32 1.98707C25.8688 1.98707 19.8752 3.80519 14.7773 7.21152C9.6794 10.6178 5.70605 15.4594 3.35973 21.1239C1.01342 26.7884 0.399514 33.0215 1.59566 39.0349C2.7918 45.0483 5.74426 50.572 10.0797 54.9074C14.4151 59.2428 19.9388 62.1953 25.9522 63.3914C31.9656 64.5876 38.1987 63.9737 43.8632 61.6273C49.5277 59.281 54.3692 55.3077 57.7756 50.2098C61.1819 45.1118 63 39.1183 63 32.9871C62.9906 24.7682 59.7216 16.8887 53.91 11.0771C48.0984 5.2655 40.2188 1.99643 32 1.98707V1.98707Z" fill="white"/>
</g>
<defs>
<clipPath id="clip0_20_3057">
<rect width="64" height="64" fill="white" transform="translate(0 0.987061)"/>
</clipPath>
</defs>
</svg>
