<svg width="64" height="64" viewBox="0 0 64 64" fill="none" xmlns="http://www.w3.org/2000/svg">
<g clip-path="url(#clip0_20_2900)">
<path opacity="0.15" d="M48.869 27.008H32V0.5L15.131 36.992H32V63.5L48.869 27.008Z" fill="#183A9E"/>
<path d="M32.3896 63.8491L31.9365 63.7939C31.8125 63.7677 31.7013 63.6994 31.6218 63.6007C31.5423 63.5019 31.4993 63.3788 31.5 63.252V37.4917H14.3496L31.6523 0.0605469L32.4741 0.217287L32.5 0.649897V26.5083H49.6504L32.3896 63.8491ZM31.6504 63.0644L31.6494 63.0664L31.6504 63.0644ZM15.9131 36.4917H32.5V61.2266L48.0869 27.5083H31.5V2.77344L15.9131 36.4917Z" fill="#204ECF"/>
<path d="M32 64C25.671 64 19.4841 62.1232 14.2218 58.607C8.95938 55.0908 4.85786 50.0931 2.43585 44.2459C0.0138497 38.3986 -0.619857 31.9645 0.61487 25.7571C1.8496 19.5497 4.8973 13.8479 9.37258 9.3726C13.8479 4.89732 19.5497 1.84961 25.7571 0.614885C31.9645 -0.619842 38.3986 0.013865 44.2459 2.43587C50.0931 4.85787 55.0908 8.95939 58.607 14.2218C62.1232 19.4841 64 25.671 64 32C63.9905 40.484 60.616 48.6178 54.6169 54.6169C48.6178 60.616 40.484 63.9905 32 64ZM32 1.00001C25.8688 1.00001 19.8752 2.81813 14.7773 6.22446C9.6794 9.63078 5.70605 14.4723 3.35973 20.1368C1.01342 25.8013 0.399514 32.0344 1.59566 38.0478C2.7918 44.0612 5.74426 49.5849 10.0797 53.9203C14.4151 58.2558 19.9388 61.2082 25.9522 62.4044C31.9656 63.6005 38.1987 62.9866 43.8632 60.6403C49.5277 58.294 54.3692 54.3206 57.7756 49.2227C61.1819 44.1248 63 38.1312 63 32C62.9906 23.7812 59.7216 15.9016 53.91 10.09C48.0984 4.27844 40.2188 1.00937 32 1.00001V1.00001Z" fill="#204ECF"/>
</g>
<defs>
<clipPath id="clip0_20_2900">
<rect width="64" height="64" fill="white"/>
</clipPath>
</defs>
</svg>
