<svg width="65" height="64" viewBox="0 0 65 64" fill="none" xmlns="http://www.w3.org/2000/svg">
<g clip-path="url(#clip0_20_3031)">
<path opacity="0.3" d="M50.7371 58.0691H0.50008V63.5001H50.7371V58.0691Z" fill="#231F20"/>
<path opacity="0.3" d="M39.201 0.5V12.037H50.737L39.201 0.5Z" fill="#231F20"/>
<path d="M23.5308 11.5366H9.47809V12.5366H23.5308V11.5366Z" fill="white"/>
<path d="M35.0416 23.2524H9.47809V24.2524H35.0416V23.2524Z" fill="white"/>
<path d="M28.4732 29.8208H9.47809V30.8208H28.4732V29.8208Z" fill="white"/>
<path d="M23.6783 36.3887H9.47809V37.3887H23.6783V36.3887Z" fill="white"/>
<path d="M30.2466 42.957H9.47809V43.957H30.2466V42.957Z" fill="white"/>
<path d="M14.5206 49.5249H9.47809V50.5249H14.5206V49.5249Z" fill="white"/>
<path d="M50.737 64H0V0H39.408L51.09 11.683L50.383 12.39L38.994 1H1V63H50.737V64Z" fill="white"/>
<path d="M50.896 12.537H38.859V0.5H39.859V11.537H50.896V12.537Z" fill="white"/>
<path d="M51.237 64H0V0H39.408L51.237 11.83V43.419H50.237V12.244L38.994 1H1V63H50.237V50.113H51.237V64Z" fill="white"/>
<path d="M60.2325 60.1562L39.7115 39.6353L32.7149 46.6318L22.0845 36.0019L40.0528 18.0337L50.6827 28.6641L43.6861 35.6607L64.2071 56.1816L60.2325 60.1562ZM39.7115 38.2212L60.2325 58.7422L62.793 56.1816L42.272 35.6606L49.2686 28.6641L40.0528 19.4478L23.4986 36.0019L32.7149 45.2178L39.7115 38.2212Z" fill="white"/>
</g>
<defs>
<clipPath id="clip0_20_3031">
<rect width="64.2071" height="64.0001" fill="white"/>
</clipPath>
</defs>
</svg>
