<svg width="64" height="64" viewBox="0 0 64 64" fill="none" xmlns="http://www.w3.org/2000/svg">
<g clip-path="url(#clip0_20_2890)">
<path opacity="0.15" d="M22.5615 54.7364C22.5694 57.06 23.4971 59.286 25.1417 60.9276C26.7863 62.5692 29.014 63.4927 31.3377 63.4963H32.6584C34.9818 63.4918 37.209 62.568 38.8534 60.9266C40.4979 59.2853 41.4258 57.0598 41.4346 54.7364C41.4314 52.503 41.6047 50.2729 41.9529 48.0669H22.0434C22.3917 50.2729 22.5649 52.503 22.5615 54.7364Z" fill="#183A9E"/>
<path d="M32.6641 64H31.3359C28.8781 63.9972 26.5217 63.0196 24.7838 61.2817C23.0458 59.5437 22.0682 57.1873 22.0654 54.7295C22.1361 46.0367 19.3675 37.5583 14.1802 30.5825C11.7257 27.4181 10.3888 23.5296 10.3784 19.5249C10.3784 8.75879 20.0776 0 32 0C43.9224 0 53.6216 8.75879 53.6216 19.5249C53.6112 23.5296 52.2743 27.4181 49.8198 30.5825C44.6325 37.5584 41.8637 46.0367 41.9341 54.7295C41.9313 57.1873 40.9538 59.5436 39.216 61.2815C37.4781 63.0195 35.1218 63.9971 32.6641 64V64ZM32 1C20.6294 1 11.3784 9.31006 11.3784 19.5249C11.3894 23.3104 12.6542 26.9855 14.9751 29.9761C20.2951 37.1263 23.1357 45.8176 23.0654 54.7295C23.0678 56.9222 23.94 59.0245 25.4905 60.575C27.041 62.1254 29.1432 62.9976 31.3359 63H32.6641C34.8567 62.9975 36.9588 62.1253 38.5092 60.5748C40.0596 59.0243 40.9317 56.9221 40.9341 54.7295C40.8641 45.8175 43.7049 37.1263 49.0249 29.9761C51.3458 26.9855 52.6106 23.3104 52.6216 19.5249C52.6216 9.31006 43.3706 1 32 1Z" fill="#204ECF"/>
<path d="M41.9922 47.5684H22.0488V48.5684H41.9922V47.5684Z" fill="#204ECF"/>
<path d="M36.0923 40.041H35.0923V29.2827H28.9077V40.041H27.9077V29.2827H25.0478C24.4185 29.2686 23.8028 29.0966 23.2571 28.7827C22.7115 28.4687 22.2534 28.0228 21.9249 27.4859C21.6184 26.985 21.4464 26.4135 21.4254 25.8268C21.4045 25.24 21.5353 24.6577 21.8052 24.1363C22.1443 23.4502 22.6915 22.8888 23.3686 22.5322C24.0457 22.1756 24.8182 22.042 25.5757 22.1504C26.3257 22.2332 27.0304 22.5506 27.5892 23.0575C28.1481 23.5644 28.5327 24.2348 28.688 24.9732C28.8736 26.0259 28.9475 27.0953 28.9082 28.1636V28.2827H35.0918V28.1636C35.0526 27.0953 35.1264 26.0259 35.312 24.9732C35.4674 24.2348 35.8519 23.5644 36.4108 23.0575C36.9697 22.5506 37.6744 22.2331 38.4243 22.1504C39.182 22.0408 39.9549 22.1738 40.6323 22.5306C41.3097 22.8873 41.8567 23.4494 42.1948 24.1363C42.4637 24.656 42.5945 25.2361 42.5747 25.821C42.5548 26.4058 42.385 26.9758 42.0816 27.4761C41.7565 28.0112 41.303 28.4567 40.7621 28.7722C40.2213 29.0877 39.6102 29.2632 38.9844 29.2827H36.0923V40.041ZM25.0864 23.1197C24.5905 23.1083 24.1017 23.24 23.6786 23.4991C23.2555 23.7582 22.916 24.1337 22.7007 24.5806C22.5045 24.9506 22.4086 25.3654 22.4224 25.7839C22.4362 26.2025 22.5592 26.6101 22.7793 26.9663C23.0187 27.3586 23.3525 27.6846 23.7503 27.9145C24.1482 28.1445 24.5973 28.2711 25.0566 28.2827H27.9082V28.1612C27.9472 27.163 27.8806 26.1634 27.7095 25.1792C27.5985 24.6433 27.3195 24.1568 26.913 23.7905C26.5065 23.4241 25.9937 23.197 25.4492 23.1421C25.3289 23.1271 25.2077 23.1196 25.0864 23.1197V23.1197ZM38.9136 23.1197C38.7923 23.1196 38.6711 23.1271 38.5508 23.1421C38.0063 23.197 37.4935 23.4241 37.087 23.7905C36.6805 24.1568 36.4015 24.6433 36.2905 25.1792C36.1194 26.1634 36.0528 27.163 36.0918 28.1612V28.2827H38.9722C39.428 28.2666 39.8727 28.1371 40.266 27.9061C40.6594 27.6751 40.989 27.3498 41.2251 26.9595C41.4431 26.6036 41.5646 26.197 41.5776 25.7799C41.5906 25.3627 41.4947 24.9494 41.2993 24.5806C41.0839 24.1337 40.7444 23.7583 40.3213 23.4992C39.8983 23.2401 39.4095 23.1084 38.9136 23.1197V23.1197Z" fill="#204ECF"/>
<path d="M64 48.5671H41.992V47.5671H63V16.4331H52.744V15.4331H64V48.5671Z" fill="#204ECF"/>
<path d="M22.049 48.5671H0V15.4331H11.274V16.4331H1V47.5671H22.049V48.5671Z" fill="#204ECF"/>
</g>
<defs>
<clipPath id="clip0_20_2890">
<rect width="64" height="64" fill="white"/>
</clipPath>
</defs>
</svg>
