<svg width="64" height="64" viewBox="0 0 64 64" fill="none" xmlns="http://www.w3.org/2000/svg">
<g clip-path="url(#clip0_20_3098)">
<path opacity="0.15" d="M40.1584 0.5H23.8416V5H40.1584V0.5Z" fill="#183A9E"/>
<path opacity="0.15" d="M63.5 46.1562H0.500031V53.375H63.5V46.1562Z" fill="#183A9E"/>
<path d="M64 53.875H0V4.5H64V53.875ZM1 52.875H63V5.5H1V52.875Z" fill="#204ECF"/>
<path d="M32.5 53.375H31.5V63.5H32.5V53.375Z" fill="#204ECF"/>
<path d="M19.8801 53.095L13.0228 63.196L13.85 63.7576L20.7072 53.6566L19.8801 53.095Z" fill="#204ECF"/>
<path d="M44.1212 53.0944L43.2939 53.6558L50.1489 63.7583L50.9761 63.197L44.1212 53.0944Z" fill="#204ECF"/>
<path d="M40.658 5H39.658V1H24.342V5H23.342V0H40.658V5Z" fill="#204ECF"/>
<path d="M13.125 42.4271L12.579 41.5891L21.927 35.5021L24.631 38.3451L33.794 30.5801L39.006 34.7151L50.725 16.1011L51.572 16.6341L39.258 36.1921L33.815 31.8731L24.557 39.7181L21.776 36.7941L13.125 42.4271Z" fill="#204ECF"/>
</g>
<defs>
<clipPath id="clip0_20_3098">
<rect width="64" height="64" fill="white"/>
</clipPath>
</defs>
</svg>
