<svg width="64" height="65" viewBox="0 0 64 64" fill="none" xmlns="http://www.w3.org/2000/svg">
<g clip-path="url(#clip0_20_3293)">
<path opacity="0.3" d="M40.1584 0.641602H23.8416V5.1416H40.1584V0.641602Z" fill="#231F20"/>
<path opacity="0.3" d="M63.5 46.2979H0.500031V53.5166H63.5V46.2979Z" fill="#231F20"/>
<path d="M64 54.0166H0V4.6416H64V54.0166ZM1 53.0166H63V5.6416H1V53.0166Z" fill="white"/>
<path d="M32.5 53.5166H31.5V63.6416H32.5V53.5166Z" fill="white"/>
<path d="M19.8801 53.2366L13.0228 63.3376L13.85 63.8992L20.7072 53.7982L19.8801 53.2366Z" fill="white"/>
<path d="M44.1212 53.236L43.2939 53.7974L50.1489 63.8999L50.9761 63.3386L44.1212 53.236Z" fill="white"/>
<path d="M40.658 5.1416H39.658V1.1416H24.342V5.1416H23.342V0.141602H40.658V5.1416Z" fill="white"/>
<path d="M13.125 42.5687L12.579 41.7307L21.927 35.6437L24.631 38.4867L33.794 30.7217L39.006 34.8567L50.725 16.2427L51.572 16.7757L39.258 36.3337L33.815 32.0147L24.557 39.8597L21.776 36.9357L13.125 42.5687Z" fill="white"/>
</g>
<defs>
<clipPath id="clip0_20_3293">
<rect width="64" height="64" fill="white" transform="translate(0 0.141602)"/>
</clipPath>
</defs>
</svg>
