<svg width="64" height="64" viewBox="0 0 64 64" fill="none" xmlns="http://www.w3.org/2000/svg">
<g clip-path="url(#clip0_1183_851)">
<path opacity="0.15" d="M45 23.5H33C32.66 23.5 32.33 23.53 32 23.56C31.67 23.52 31.34 23.5 31 23.5H19C14.31 23.5 10.5 27.31 10.5 32C10.5 36.69 14.31 40.5 19 40.5H31C31.34 40.5 31.67 40.47 32 40.44C32.33 40.48 32.66 40.5 33 40.5H45C49.69 40.5 53.5 36.69 53.5 32C53.5 27.31 49.69 23.5 45 23.5ZM32 36.38C30 35.92 28.5 34.14 28.5 32C28.5 29.86 30 28.08 32 27.62C34 28.08 35.5 29.86 35.5 32C35.5 34.14 34 35.92 32 36.38ZM14.5 32C14.5 29.51 16.51 27.5 19 27.5H25.8C24.98 28.81 24.5 30.35 24.5 32C24.5 33.65 24.98 35.19 25.8 36.5H19C16.51 36.5 14.5 34.49 14.5 32ZM45 36.5H38.2C39.02 35.19 39.5 33.65 39.5 32C39.5 30.35 39.02 28.81 38.2 27.5H45C47.49 27.5 49.5 29.51 49.5 32C49.5 34.49 47.49 36.5 45 36.5Z" fill="#183A9C"/>
<path opacity="0.15" d="M59.5 17V4.5H47L59.5 17Z" fill="#183A9C"/>
<path d="M37 4.5H16.5C9.87 4.5 4.5 9.87 4.5 16.5V47.5C4.5 54.13 9.87 59.5 16.5 59.5H47.5C54.13 59.5 59.5 54.13 59.5 47.5V27" stroke="#204ECD" stroke-miterlimit="10"/>
<path d="M59.5 17V4.5H47L59.5 17Z" stroke="#204ECD" stroke-miterlimit="10"/>
<path d="M53 11L46.5 17.5" stroke="#204ECD" stroke-miterlimit="10"/>
<path d="M33 40.5H19C14.31 40.5 10.5 36.69 10.5 32C10.5 27.31 14.31 23.5 19 23.5H31C35.69 23.5 39.5 27.31 39.5 32C39.5 32.65 39.43 33.28 39.29 33.89" stroke="#204ECD" stroke-miterlimit="10"/>
<path d="M25.8 36.5H19C16.51 36.5 14.5 34.49 14.5 32C14.5 29.51 16.51 27.5 19 27.5H31C33.49 27.5 35.5 29.51 35.5 32C35.5 32.69 35.34 33.34 35.07 33.93" stroke="#204ECD" stroke-miterlimit="10"/>
<path d="M39 23.5H45C49.69 23.5 53.5 27.31 53.5 32C53.5 36.69 49.69 40.5 45 40.5H33C28.31 40.5 24.5 36.69 24.5 32C24.5 30.35 24.97 28.8 25.79 27.5" stroke="#204ECD" stroke-miterlimit="10"/>
<path d="M42 27.5H45C47.49 27.5 49.5 29.51 49.5 32C49.5 34.49 47.49 36.5 45 36.5H33C30.51 36.5 28.5 34.49 28.5 32C28.5 29.86 30 28.07 32 27.61" stroke="#204ECD" stroke-miterlimit="10"/>
</g>
<defs>
<clipPath id="clip0_1183_851">
<rect width="64" height="64" fill="white"/>
</clipPath>
</defs>
</svg>
