<svg width="64" height="64" viewBox="0 0 64 64" fill="none" xmlns="http://www.w3.org/2000/svg">
<g clip-path="url(#clip0_1187_1196)">
<path opacity="0.15" d="M5.5 45V44.5C5.5 41.19 8.19 38.5 11.5 38.5C14.81 38.5 17.5 41.19 17.5 44.5V45" fill="#183A9C"/>
<path opacity="0.15" d="M11.5 38.5C13.1569 38.5 14.5 37.1569 14.5 35.5C14.5 33.8431 13.1569 32.5 11.5 32.5C9.84315 32.5 8.5 33.8431 8.5 35.5C8.5 37.1569 9.84315 38.5 11.5 38.5Z" fill="#183A9C"/>
<path d="M22.5 38.5C22.5 38.89 22.48 39.28 22.44 39.66C21.86 45.19 17.18 49.5 11.5 49.5C5.42 49.5 0.5 44.58 0.5 38.5C0.5 32.42 5.42 27.5 11.5 27.5C13.02 27.5 14.47 27.81 15.78 28.36C19.73 30.03 22.5 33.94 22.5 38.5Z" stroke="#204ECD" stroke-miterlimit="10"/>
<path d="M31.5 25.5C35.366 25.5 38.5 22.366 38.5 18.5C38.5 14.634 35.366 11.5 31.5 11.5C27.634 11.5 24.5 14.634 24.5 18.5C24.5 22.366 27.634 25.5 31.5 25.5Z" stroke="#204ECD" stroke-miterlimit="10"/>
<path d="M11.5 38.5C13.1569 38.5 14.5 37.1569 14.5 35.5C14.5 33.8431 13.1569 32.5 11.5 32.5C9.84315 32.5 8.5 33.8431 8.5 35.5C8.5 37.1569 9.84315 38.5 11.5 38.5Z" stroke="#204ECD" stroke-miterlimit="10"/>
<path d="M5.5 45V44.5C5.5 41.19 8.19 38.5 11.5 38.5C14.81 38.5 17.5 41.19 17.5 44.5V45" stroke="#204ECD" stroke-miterlimit="10"/>
<path d="M50.38 27.56C50.75 27.52 51.12 27.5 51.5 27.5C57.58 27.5 62.5 32.42 62.5 38.5C62.5 44.58 57.58 49.5 51.5 49.5C45.8 49.5 41.12 45.17 40.56 39.62" stroke="#204ECD" stroke-miterlimit="10"/>
<path d="M51.5 38.5C53.1569 38.5 54.5 37.1569 54.5 35.5C54.5 33.8431 53.1569 32.5 51.5 32.5C49.8431 32.5 48.5 33.8431 48.5 35.5C48.5 37.1569 49.8431 38.5 51.5 38.5Z" stroke="#204ECD" stroke-miterlimit="10"/>
<path d="M45.5 45V44.5C45.5 41.19 48.19 38.5 51.5 38.5C54.81 38.5 57.5 41.19 57.5 44.5V45" stroke="#204ECD" stroke-miterlimit="10"/>
<path opacity="0.15" d="M51.5 27C50.05 27 48.67 27.28 47.4 27.77C45.59 32.19 42.85 36.54 40.15 40.24C40.99 45.77 45.75 50 51.51 50C57.86 50 63.01 44.85 63.01 38.5C63.01 32.15 57.86 27 51.51 27H51.5ZM57.5 45H45.5V44.5C45.5 41.19 48.19 38.5 51.5 38.5C49.84 38.5 48.5 37.16 48.5 35.5C48.5 33.84 49.84 32.5 51.5 32.5C53.16 32.5 54.5 33.84 54.5 35.5C54.5 37.16 53.16 38.5 51.5 38.5C54.81 38.5 57.5 41.19 57.5 44.5V45Z" fill="#183A9C"/>
<path d="M14.96 26.09C14.05 23.52 13.5 20.95 13.5 18.5C13.5 8.56 21.56 0.5 31.5 0.5C41.44 0.5 49.5 8.56 49.5 18.5C49.5 32.5 31.5 50.5 31.5 50.5C31.5 50.5 26.96 45.96 22.44 39.66" stroke="#204ECD" stroke-miterlimit="10"/>
<path opacity="0.15" d="M35.45 46.1602C33.15 48.8502 31.5 50.5002 31.5 50.5002C31.5 50.5002 29.89 48.8902 27.64 46.2602C20.37 47.1102 15 50.0302 15 53.5002C15 57.6402 22.61 61.0002 32 61.0002C41.39 61.0002 49 57.6402 49 53.5002C49 49.8802 43.19 46.8602 35.45 46.1602Z" fill="#183A9C"/>
</g>
<defs>
<clipPath id="clip0_1187_1196">
<rect width="64" height="64" fill="white"/>
</clipPath>
</defs>
</svg>
