<svg width="64" height="66" viewBox="0 0 64 66" fill="none" xmlns="http://www.w3.org/2000/svg">
<g clip-path="url(#clip0_20_3110)">
<path opacity="0.15" d="M0.5 32.7539V45.7119H16.25L32 64.3669V32.7539H0.5Z" fill="#183A9E"/>
<path d="M37.7139 46.1382L37.3184 45.2192C39.7394 44.1778 41.801 42.4479 43.247 40.2445C44.693 38.0411 45.4597 35.4613 45.4516 32.8258C45.4435 30.1903 44.6612 27.6153 43.2017 25.4208C41.7422 23.2262 39.67 21.509 37.2427 20.4824L37.6323 19.5615C40.2402 20.6645 42.4664 22.5095 44.0344 24.8672C45.6023 27.2249 46.4429 29.9914 46.4516 32.8229C46.4603 35.6544 45.6367 38.426 44.0832 40.7933C42.5298 43.1606 40.3149 45.0192 37.7139 46.1382Z" fill="#204ECF"/>
<path d="M44.3906 52.5093L43.8564 51.6636C47.042 49.6551 49.6649 46.87 51.4788 43.5697C53.2926 40.2695 54.238 36.5624 54.226 32.7965C54.214 29.0306 53.2452 25.3296 51.4104 22.0409C49.5756 18.7522 46.9351 15.9838 43.7368 13.9956L44.2651 13.147C47.6072 15.2246 50.3664 18.1176 52.2837 21.5541C54.201 24.9907 55.2134 28.8582 55.2259 32.7934C55.2385 36.7286 54.2507 40.6024 52.3554 44.0512C50.4601 47.4999 47.7194 50.4104 44.3906 52.5093V52.5093Z" fill="#204ECF"/>
<path d="M50.6152 58.8931L50.0332 58.0796C54.0442 55.2115 57.3131 51.4279 59.5683 47.0429C61.8235 42.6579 63 37.7981 63 32.8672C63 27.9363 61.8235 23.0765 59.5683 18.6915C57.3131 14.3065 54.0442 10.5228 50.0332 7.65479L50.6152 6.84131C54.7556 9.80197 58.1298 13.7077 60.4577 18.2342C62.7856 22.7607 64 27.7772 64 32.8672C64 37.9572 62.7856 42.9737 60.4577 47.5002C58.1298 52.0267 54.7556 55.9324 50.6152 58.8931V58.8931Z" fill="#204ECF"/>
<path d="M32.5 65.7344L16.0176 46.2124H0V19.522H16.0176L32.5 0V65.7344ZM1 45.2124H16.4824L31.5 63V2.73438L16.4824 20.522H1V45.2124Z" fill="#204ECF"/>
<path d="M16.75 20.022H15.75V45.7124H16.75V20.022Z" fill="#204ECF"/>
</g>
<defs>
<clipPath id="clip0_20_3110">
<rect width="64" height="65.7344" fill="white"/>
</clipPath>
</defs>
</svg>
