<svg width="64" height="66" viewBox="0 0 64 66" fill="none" xmlns="http://www.w3.org/2000/svg">
<g clip-path="url(#clip0_20_3305)">
<path opacity="0.3" d="M0.5 32.8955V45.8535H16.25L32 64.5085V32.8955H0.5Z" fill="#231F20"/>
<path d="M37.7139 46.2798L37.3184 45.3608C39.7394 44.3195 41.801 42.5896 43.247 40.3861C44.693 38.1827 45.4597 35.6029 45.4516 32.9674C45.4435 30.3319 44.6612 27.7569 43.2017 25.5624C41.7422 23.3678 39.67 21.6506 37.2427 20.624L37.6323 19.7031C40.2402 20.8061 42.4664 22.6511 44.0344 25.0088C45.6023 27.3665 46.4429 30.133 46.4516 32.9645C46.4603 35.796 45.6367 38.5676 44.0832 40.9349C42.5298 43.3022 40.3149 45.1608 37.7139 46.2798Z" fill="white"/>
<path d="M44.3906 52.6509L43.8564 51.8052C47.042 49.7968 49.6649 47.0116 51.4788 43.7113C53.2926 40.4111 54.238 36.704 54.226 32.9381C54.214 29.1722 53.2452 25.4712 51.4104 22.1825C49.5756 18.8938 46.9351 16.1254 43.7368 14.1372L44.2651 13.2886C47.6072 15.3662 50.3664 18.2592 52.2837 21.6957C54.201 25.1323 55.2134 28.9998 55.2259 32.935C55.2385 36.8702 54.2507 40.744 52.3554 44.1928C50.4601 47.6415 47.7194 50.552 44.3906 52.6509V52.6509Z" fill="white"/>
<path d="M50.6152 59.0347L50.0332 58.2212C54.0442 55.3531 57.3131 51.5695 59.5683 47.1845C61.8235 42.7995 63 37.9397 63 33.0088C63 28.0779 61.8235 23.2181 59.5683 18.8331C57.3131 14.4481 54.0442 10.6644 50.0332 7.79639L50.6152 6.98291C54.7556 9.94357 58.1298 13.8493 60.4577 18.3758C62.7856 22.9023 64 27.9188 64 33.0088C64 38.0988 62.7856 43.1153 60.4577 47.6418C58.1298 52.1683 54.7556 56.074 50.6152 59.0347V59.0347Z" fill="white"/>
<path d="M32.5 65.876L16.0176 46.354H0V19.6636H16.0176L32.5 0.141602V65.876ZM1 45.354H16.4824L31.5 63.1416V2.87598L16.4824 20.6636H1V45.354Z" fill="white"/>
<path d="M16.75 20.1636H15.75V45.854H16.75V20.1636Z" fill="white"/>
</g>
<defs>
<clipPath id="clip0_20_3305">
<rect width="64" height="65.7344" fill="white" transform="translate(0 0.141602)"/>
</clipPath>
</defs>
</svg>
