<svg width="64" height="65" viewBox="0 0 64 64" fill="none" xmlns="http://www.w3.org/2000/svg">
<g clip-path="url(#clip0_20_3315)">
<path opacity="0.3" d="M54.7656 43.2002H29.0776V50.014H54.7656V43.2002Z" fill="#231F20"/>
<path opacity="0.3" d="M26.071 23.4286H17.133L18.188 18.8496H25.015L26.071 23.4286Z" fill="#231F20"/>
<path opacity="0.3" d="M39.739 23.4286H30.801L31.857 18.8496H38.683L39.739 23.4286Z" fill="#231F20"/>
<path opacity="0.3" d="M54.7656 7.45557H43.8578V14.2694H54.7656V7.45557Z" fill="#231F20"/>
<path opacity="0.3" d="M59.796 63.6417H4.20398V50.0137H14.135V56.8277H59.796V63.6417Z" fill="#231F20"/>
<path d="M63.4999 63.1416H0.499939V64.1416H63.4999V63.1416Z" fill="white"/>
<path d="M60.296 63.6416H59.296V50.5146H29.578V63.6416H28.578V49.5146H60.296V63.6416Z" fill="white"/>
<path d="M55.2656 50.5142H43.3578V0.141602H55.2656V50.5142ZM44.3578 49.5142H54.2656V1.1416H44.3578V49.5142Z" fill="white"/>
<path d="M14.635 63.6417H13.635V22.9287H43.858V23.9287H14.635V63.6417Z" fill="white"/>
<path d="M4.70398 63.6417H3.70398V42.7007H14.135V43.7007H4.70398V63.6417Z" fill="white"/>
<path d="M26.6992 23.9287H16.5043L18.8461 13.769H24.3574L26.6992 23.9287ZM17.7612 22.9287H25.4423L23.5615 14.769H19.642L17.7612 22.9287Z" fill="white"/>
<path d="M40.3676 23.9287H30.1723L32.5146 13.769H38.0258L40.3676 23.9287ZM31.4291 22.9287H39.1108L37.2299 14.769H33.3105L31.4291 22.9287Z" fill="white"/>
</g>
<defs>
<clipPath id="clip0_20_3315">
<rect width="64" height="64.0001" fill="white" transform="translate(0 0.141602)"/>
</clipPath>
</defs>
</svg>
