<svg width="64" height="64" viewBox="0 0 64 64" fill="none" xmlns="http://www.w3.org/2000/svg">
<g clip-path="url(#clip0_20_3120)">
<path opacity="0.15" d="M54.7656 43.0586H29.0776V49.8724H54.7656V43.0586Z" fill="#183A9E"/>
<path opacity="0.15" d="M26.071 23.287H17.133L18.188 18.708H25.015L26.071 23.287Z" fill="#183A9E"/>
<path opacity="0.15" d="M39.739 23.287H30.801L31.857 18.708H38.683L39.739 23.287Z" fill="#183A9E"/>
<path opacity="0.15" d="M54.7656 7.31396H43.8578V14.1278H54.7656V7.31396Z" fill="#183A9E"/>
<path opacity="0.15" d="M59.796 63.5001H4.20398V49.8721H14.135V56.6861H59.796V63.5001Z" fill="#183A9E"/>
<path d="M63.4999 63H0.499939V64H63.4999V63Z" fill="#204ECF"/>
<path d="M60.296 63.5H59.296V50.373H29.578V63.5H28.578V49.373H60.296V63.5Z" fill="#204ECF"/>
<path d="M55.2656 50.3726H43.3578V0H55.2656V50.3726ZM44.3578 49.3726H54.2656V1H44.3578V49.3726Z" fill="#204ECF"/>
<path d="M14.635 63.5001H13.635V22.7871H43.858V23.7871H14.635V63.5001Z" fill="#204ECF"/>
<path d="M4.70398 63.5001H3.70398V42.5591H14.135V43.5591H4.70398V63.5001Z" fill="#204ECF"/>
<path d="M26.6992 23.7871H16.5043L18.8461 13.6274H24.3574L26.6992 23.7871ZM17.7612 22.7871H25.4423L23.5615 14.6274H19.642L17.7612 22.7871Z" fill="#204ECF"/>
<path d="M40.3676 23.7871H30.1723L32.5146 13.6274H38.0258L40.3676 23.7871ZM31.4291 22.7871H39.1108L37.2299 14.6274H33.3105L31.4291 22.7871Z" fill="#204ECF"/>
</g>
<defs>
<clipPath id="clip0_20_3120">
<rect width="64" height="64.0001" fill="white"/>
</clipPath>
</defs>
</svg>
