<svg width="64" height="64" viewBox="0 0 64 64" fill="none" xmlns="http://www.w3.org/2000/svg">
<g clip-path="url(#clip0_20_3136)">
<path opacity="0.15" d="M54.7866 31.9588C55.6402 31.9588 56.4745 31.7057 57.1843 31.2315C57.894 30.7573 58.4471 30.0833 58.7738 29.2947C59.1004 28.5062 59.1859 27.6384 59.0193 26.8013C58.8528 25.9642 58.4418 25.1952 57.8383 24.5916C57.2347 23.9881 56.4657 23.5771 55.6286 23.4106C54.7915 23.244 53.9237 23.3295 53.1352 23.6562C52.3466 23.9828 51.6726 24.536 51.1984 25.2457C50.7242 25.9554 50.4711 26.7898 50.4711 27.6433C50.4712 28.7878 50.9258 29.8855 51.7351 30.6948C52.5445 31.5041 53.6421 31.9587 54.7866 31.9588Z" fill="#183A9E"/>
<path opacity="0.15" d="M54.7866 31.959C53.2727 31.9566 51.7845 32.3506 50.47 33.1016L50.4707 40.6723H63.5001C63.5001 39.5281 63.2747 38.395 62.8368 37.3379C62.3989 36.2807 61.757 35.3201 60.9479 34.511C60.1388 33.7019 59.1782 33.0601 58.1211 32.6222C57.0639 32.1844 55.9308 31.959 54.7866 31.959V31.959Z" fill="#183A9E"/>
<path opacity="0.15" d="M9.21363 31.959C8.36009 31.959 7.52571 31.7059 6.81601 31.2317C6.10631 30.7575 5.55317 30.0835 5.22652 29.295C4.89988 28.5064 4.81442 27.6387 4.98093 26.8015C5.14745 25.9644 5.55847 25.1954 6.16202 24.5919C6.76557 23.9883 7.53453 23.5773 8.37167 23.4108C9.20882 23.2443 10.0765 23.3298 10.8651 23.6564C11.6537 23.983 12.3277 24.5362 12.8019 25.2459C13.2761 25.9556 13.5291 26.79 13.5291 27.6435C13.5291 28.7881 13.0744 29.8857 12.2651 30.695C11.4558 31.5043 10.3582 31.959 9.21363 31.959V31.959Z" fill="#183A9E"/>
<path opacity="0.15" d="M9.21358 31.959C10.7275 31.9566 12.2157 32.3506 13.5301 33.1016L13.5295 40.6723H0.500061C0.50009 38.3614 1.41814 36.1451 3.05224 34.511C4.68634 32.877 6.90264 31.959 9.21358 31.959V31.959Z" fill="#183A9E"/>
<path d="M32.0001 55.8535C31.1032 55.8536 30.2264 55.5877 29.4806 55.0894C28.7348 54.5911 28.1535 53.8829 27.8102 53.0543C27.4669 52.2257 27.3771 51.3138 27.552 50.4341C27.7269 49.5544 28.1588 48.7464 28.793 48.1121C29.4272 47.4779 30.2352 47.0459 31.1149 46.8709C31.9945 46.6958 32.9064 46.7856 33.735 47.1288C34.5637 47.472 35.272 48.0532 35.7703 48.7989C36.2687 49.5447 36.5347 50.4214 36.5347 51.3184C36.5334 52.5207 36.0553 53.6734 35.2051 54.5236C34.355 55.3738 33.2024 55.8521 32.0001 55.8535ZM32.0001 47.7837C31.3009 47.7837 30.6174 47.9909 30.0361 48.3793C29.4547 48.7677 29.0016 49.3198 28.734 49.9657C28.4665 50.6117 28.3964 51.3225 28.5328 52.0082C28.6692 52.6939 29.0059 53.3238 29.5003 53.8182C29.9946 54.3126 30.6245 54.6492 31.3103 54.7856C31.996 54.922 32.7068 54.852 33.3527 54.5844C33.9986 54.3168 34.5507 53.8637 34.9391 53.2824C35.3275 52.701 35.5348 52.0175 35.5347 51.3184C35.5338 50.3812 35.161 49.4827 34.4984 48.8201C33.8357 48.1574 32.9372 47.7847 32.0001 47.7837V47.7837Z" fill="#204ECF"/>
<path d="M40.6466 63.5H39.6466C39.6466 61.472 38.841 59.5271 37.407 58.0931C35.973 56.6591 34.0281 55.8535 32.0001 55.8535C29.9721 55.8535 28.0272 56.6591 26.5932 58.0931C25.1592 59.5271 24.3536 61.472 24.3536 63.5H23.3536C23.3536 61.2068 24.2645 59.0076 25.8861 57.386C27.5076 55.7645 29.7069 54.8535 32.0001 54.8535C34.2933 54.8535 36.4925 55.7645 38.1141 57.386C39.7356 59.0076 40.6466 61.2068 40.6466 63.5V63.5Z" fill="#204ECF"/>
<path d="M32.0001 9.06982C31.1032 9.06987 30.2264 8.80395 29.4806 8.30569C28.7348 7.80743 28.1535 7.0992 27.8103 6.27058C27.467 5.44195 27.3771 4.53013 27.5521 3.65044C27.727 2.77074 28.1589 1.96267 28.793 1.32842C29.4272 0.694167 30.2352 0.262214 31.1149 0.0871866C31.9946 -0.0878412 32.9064 0.00191626 33.7351 0.345109C34.5638 0.688301 35.272 1.26951 35.7704 2.01525C36.2687 2.76099 36.5347 3.63775 36.5348 4.53467C36.5335 5.73698 36.0553 6.88967 35.2052 7.73988C34.3551 8.59008 33.2024 9.06837 32.0001 9.06982V9.06982ZM32.0001 1C31.301 0.999953 30.6175 1.20724 30.0361 1.59564C29.4548 1.98404 29.0017 2.53611 28.7341 3.18204C28.4665 3.82797 28.3965 4.53875 28.5329 5.22447C28.6693 5.9102 29.0059 6.54009 29.5003 7.03447C29.9947 7.52885 30.6246 7.86552 31.3103 8.00191C31.996 8.1383 32.7068 8.06828 33.3527 7.8007C33.9987 7.53312 34.5507 7.08 34.9391 6.49865C35.3276 5.9173 35.5348 5.23383 35.5348 4.53467C35.5338 3.59753 35.1611 2.69905 34.4984 2.03638C33.8358 1.37372 32.9373 1.001 32.0001 1V1Z" fill="#204ECF"/>
<path d="M24.9542 13.7402L24.0333 13.3505C24.695 11.7859 25.8028 10.4507 27.2185 9.51163C28.6341 8.57253 30.295 8.07108 31.9938 8.06983C33.6926 8.06858 35.3542 8.56759 36.7712 9.5046C38.1883 10.4416 39.298 11.7751 39.962 13.3388L39.0421 13.7294C38.4547 12.3465 37.4732 11.1672 36.2199 10.3386C34.9666 9.5099 33.4971 9.06863 31.9946 9.06977C30.4921 9.07092 29.0233 9.51443 27.7712 10.345C26.5192 11.1756 25.5395 12.3564 24.9542 13.7402H24.9542Z" fill="#204ECF"/>
<path d="M54.7867 32.459C53.8343 32.459 52.9032 32.1766 52.1112 31.6475C51.3192 31.1184 50.702 30.3663 50.3374 29.4863C49.9729 28.6063 49.8775 27.638 50.0633 26.7039C50.2492 25.7697 50.7078 24.9116 51.3813 24.2381C52.0548 23.5646 52.9129 23.106 53.8471 22.9202C54.7812 22.7344 55.7495 22.8297 56.6295 23.1943C57.5094 23.5588 58.2615 24.176 58.7907 24.968C59.3198 25.76 59.6022 26.6911 59.6022 27.6435C59.6007 28.9202 59.0929 30.1442 58.1902 31.047C57.2874 31.9498 56.0634 32.4575 54.7867 32.459V32.459ZM54.7867 23.8276C54.0321 23.8276 53.2943 24.0513 52.6668 24.4706C52.0393 24.8898 51.5502 25.4857 51.2614 26.1829C50.9725 26.8801 50.8969 27.6473 51.0441 28.3875C51.1913 29.1277 51.5546 29.8076 52.0882 30.3412C52.6218 30.8749 53.3017 31.2383 54.0419 31.3856C54.782 31.5329 55.5492 31.4574 56.2465 31.1686C56.9437 30.8799 57.5397 30.3908 57.959 29.7634C58.3783 29.1359 58.6021 28.3982 58.6022 27.6435C58.6011 26.6319 58.1988 25.662 57.4835 24.9466C56.7682 24.2312 55.7984 23.8288 54.7867 23.8276V23.8276Z" fill="#204ECF"/>
<path d="M64.0001 40.6724H63.0001C62.9997 39.2346 62.6219 37.822 61.9045 36.576C61.1872 35.3299 60.1554 34.2939 58.9123 33.5714C57.6692 32.849 56.2582 32.4654 54.8204 32.4591C53.3826 32.4527 51.9684 32.8238 50.7189 33.5352L50.2228 32.667C51.6243 31.8687 53.2108 31.4521 54.8238 31.4591C56.4368 31.466 58.0196 31.8961 59.4143 32.7065C60.8089 33.5168 61.9664 34.679 62.7712 36.0769C63.5759 37.4748 63.9997 39.0594 64.0001 40.6724Z" fill="#204ECF"/>
<path d="M9.21349 32.459C8.26104 32.4589 7.33 32.1764 6.53809 31.6473C5.74619 31.1181 5.12899 30.3659 4.76455 29.486C4.40011 28.606 4.30479 27.6377 4.49065 26.7036C4.67651 25.7694 5.13521 24.9114 5.80872 24.2379C6.48224 23.5645 7.34033 23.1059 8.27449 22.9201C9.20865 22.7344 10.1769 22.8298 11.0568 23.1943C11.9368 23.5588 12.6888 24.1761 13.218 24.9681C13.7471 25.76 14.0295 26.6911 14.0294 27.6435C14.028 28.9203 13.5201 30.1444 12.6173 31.0472C11.7144 31.9499 10.4903 32.4577 9.21349 32.459ZM9.21349 23.8276C8.45885 23.8277 7.72116 24.0515 7.09371 24.4708C6.46627 24.8901 5.97724 25.486 5.68848 26.1832C5.39971 26.8804 5.32417 27.6476 5.4714 28.3878C5.61864 29.1279 5.98204 29.8078 6.51566 30.3414C7.04928 30.875 7.72914 31.2384 8.46929 31.3856C9.20943 31.5329 9.97662 31.4573 10.6738 31.1686C11.371 30.8798 11.967 30.3908 12.3863 29.7633C12.8055 29.1359 13.0294 28.3982 13.0294 27.6435C13.0284 26.6318 12.626 25.6619 11.9106 24.9465C11.1952 24.2311 10.2252 23.8287 9.21349 23.8276V23.8276Z" fill="#204ECF"/>
<path d="M1.00012 40.6724H0.00012207C0.000568406 39.0594 0.424337 37.4748 1.22908 36.0769C2.03382 34.679 3.19134 33.5168 4.58597 32.7065C5.9806 31.8961 7.56349 31.466 9.17644 31.4591C10.7894 31.4521 12.3759 31.8687 13.7775 32.667L13.2814 33.5352C12.0319 32.8238 10.6176 32.4527 9.17982 32.4591C7.74203 32.4654 6.33108 32.849 5.08795 33.5714C3.84482 34.2939 2.81304 35.3299 2.09571 36.576C1.37837 37.822 1.00059 39.2345 1.00012 40.6724V40.6724Z" fill="#204ECF"/>
<path d="M50.965 50.9649H35.942V49.9649H49.965V14.0349H14.035V49.9649H28.058V50.9649H13.035V13.0349H50.965V50.9649Z" fill="#204ECF"/>
</g>
<defs>
<clipPath id="clip0_20_3136">
<rect width="64.0001" height="64.0001" fill="white"/>
</clipPath>
</defs>
</svg>
