<svg width="64" height="65" viewBox="0 0 64 65" fill="none" xmlns="http://www.w3.org/2000/svg">
<g clip-path="url(#clip0_20_3331)">
<path opacity="0.3" d="M54.7866 32.1004C55.6402 32.1004 56.4745 31.8473 57.1843 31.3731C57.894 30.8989 58.4471 30.2249 58.7738 29.4363C59.1004 28.6478 59.1859 27.78 59.0193 26.9429C58.8528 26.1058 58.4418 25.3368 57.8383 24.7332C57.2347 24.1297 56.4657 23.7187 55.6286 23.5522C54.7915 23.3856 53.9237 23.4711 53.1352 23.7978C52.3466 24.1244 51.6726 24.6776 51.1984 25.3873C50.7242 26.097 50.4711 26.9314 50.4711 27.7849C50.4712 28.9294 50.9258 30.0271 51.7351 30.8364C52.5445 31.6457 53.6421 32.1003 54.7866 32.1004Z" fill="#231F20"/>
<path opacity="0.3" d="M54.7866 32.1006C53.2727 32.0982 51.7845 32.4922 50.47 33.2432L50.4707 40.8139H63.5001C63.5001 39.6697 63.2747 38.5366 62.8368 37.4795C62.3989 36.4223 61.757 35.4617 60.9479 34.6526C60.1388 33.8435 59.1782 33.2017 58.1211 32.7638C57.0639 32.326 55.9308 32.1006 54.7866 32.1006V32.1006Z" fill="#231F20"/>
<path opacity="0.3" d="M9.21363 32.1006C8.36009 32.1006 7.52571 31.8475 6.81601 31.3733C6.10631 30.8991 5.55317 30.2251 5.22652 29.4366C4.89988 28.648 4.81442 27.7803 4.98093 26.9431C5.14745 26.106 5.55847 25.337 6.16202 24.7335C6.76557 24.1299 7.53453 23.7189 8.37167 23.5524C9.20882 23.3859 10.0765 23.4714 10.8651 23.798C11.6537 24.1246 12.3277 24.6778 12.8019 25.3875C13.2761 26.0972 13.5291 26.9316 13.5291 27.7851C13.5291 28.9297 13.0744 30.0273 12.2651 30.8366C11.4558 31.6459 10.3582 32.1006 9.21363 32.1006V32.1006Z" fill="#231F20"/>
<path opacity="0.3" d="M9.21358 32.1006C10.7275 32.0982 12.2157 32.4922 13.5301 33.2432L13.5295 40.8139H0.500061C0.50009 38.503 1.41814 36.2867 3.05224 34.6526C4.68634 33.0186 6.90264 32.1006 9.21358 32.1006V32.1006Z" fill="#231F20"/>
<path d="M32.0001 55.9951C31.1032 55.9952 30.2264 55.7293 29.4806 55.231C28.7348 54.7327 28.1535 54.0245 27.8102 53.1959C27.4669 52.3673 27.3771 51.4554 27.552 50.5757C27.7269 49.696 28.1588 48.888 28.793 48.2537C29.4272 47.6195 30.2352 47.1875 31.1149 47.0125C31.9945 46.8375 32.9064 46.9272 33.735 47.2704C34.5637 47.6136 35.272 48.1948 35.7703 48.9405C36.2687 49.6863 36.5347 50.5631 36.5347 51.46C36.5334 52.6623 36.0553 53.815 35.2051 54.6652C34.355 55.5154 33.2024 55.9937 32.0001 55.9951ZM32.0001 47.9253C31.3009 47.9253 30.6174 48.1325 30.0361 48.5209C29.4547 48.9093 29.0016 49.4614 28.734 50.1073C28.4665 50.7533 28.3964 51.4641 28.5328 52.1498C28.6692 52.8355 29.0059 53.4654 29.5003 53.9598C29.9946 54.4542 30.6245 54.7908 31.3103 54.9272C31.996 55.0636 32.7068 54.9936 33.3527 54.726C33.9986 54.4584 34.5507 54.0053 34.9391 53.424C35.3275 52.8426 35.5348 52.1591 35.5347 51.46C35.5338 50.5228 35.161 49.6244 34.4984 48.9617C33.8357 48.299 32.9372 47.9263 32.0001 47.9253V47.9253Z" fill="white"/>
<path d="M40.6466 63.6416H39.6466C39.6466 61.6136 38.841 59.6687 37.407 58.2347C35.973 56.8007 34.0281 55.9951 32.0001 55.9951C29.9721 55.9951 28.0272 56.8007 26.5932 58.2347C25.1592 59.6687 24.3536 61.6136 24.3536 63.6416H23.3536C23.3536 61.3484 24.2645 59.1492 25.8861 57.5276C27.5076 55.9061 29.7069 54.9951 32.0001 54.9951C34.2933 54.9951 36.4925 55.9061 38.1141 57.5276C39.7356 59.1492 40.6466 61.3484 40.6466 63.6416V63.6416Z" fill="white"/>
<path d="M32.0001 9.21142C31.1032 9.21147 30.2264 8.94555 29.4806 8.44729C28.7348 7.94903 28.1535 7.24081 27.8103 6.41218C27.467 5.58355 27.3771 4.67173 27.5521 3.79204C27.727 2.91234 28.1589 2.10427 28.793 1.47002C29.4272 0.835768 30.2352 0.403816 31.1149 0.228788C31.9946 0.0537603 32.9064 0.143518 33.7351 0.48671C34.5638 0.829903 35.272 1.41112 35.7704 2.15685C36.2687 2.90259 36.5347 3.77935 36.5348 4.67627C36.5335 5.87858 36.0553 7.03127 35.2052 7.88148C34.3551 8.73169 33.2024 9.20998 32.0001 9.21142V9.21142ZM32.0001 1.1416C31.301 1.14155 30.6175 1.34884 30.0361 1.73724C29.4548 2.12564 29.0017 2.67771 28.7341 3.32364C28.4665 3.96957 28.3965 4.68035 28.5329 5.36608C28.6693 6.0518 29.0059 6.68169 29.5003 7.17607C29.9947 7.67045 30.6246 8.00712 31.3103 8.14351C31.996 8.2799 32.7068 8.20988 33.3527 7.9423C33.9987 7.67472 34.5507 7.22161 34.9391 6.64026C35.3276 6.05891 35.5348 5.37543 35.5348 4.67627C35.5338 3.73913 35.1611 2.84065 34.4984 2.17798C33.8358 1.51532 32.9373 1.1426 32.0001 1.1416V1.1416Z" fill="white"/>
<path d="M24.9542 13.8818L24.0333 13.4921C24.695 11.9275 25.8028 10.5923 27.2185 9.65323C28.6341 8.71413 30.295 8.21268 31.9938 8.21143C33.6926 8.21018 35.3542 8.70919 36.7712 9.6462C38.1883 10.5832 39.298 11.9168 39.962 13.4804L39.0421 13.871C38.4547 12.4881 37.4732 11.3088 36.2199 10.4802C34.9666 9.65151 33.4971 9.21023 31.9946 9.21137C30.4921 9.21252 29.0233 9.65604 27.7712 10.4866C26.5192 11.3172 25.5395 12.498 24.9542 13.8818H24.9542Z" fill="white"/>
<path d="M54.7867 32.6006C53.8343 32.6006 52.9032 32.3182 52.1112 31.7891C51.3192 31.26 50.702 30.5079 50.3374 29.6279C49.9729 28.7479 49.8775 27.7796 50.0633 26.8455C50.2492 25.9113 50.7078 25.0532 51.3813 24.3797C52.0548 23.7062 52.9129 23.2476 53.8471 23.0618C54.7812 22.876 55.7495 22.9713 56.6295 23.3359C57.5094 23.7004 58.2615 24.3176 58.7907 25.1096C59.3198 25.9016 59.6022 26.8327 59.6022 27.7852C59.6007 29.0618 59.0929 30.2858 58.1902 31.1886C57.2874 32.0914 56.0634 32.5992 54.7867 32.6006V32.6006ZM54.7867 23.9692C54.0321 23.9692 53.2943 24.1929 52.6668 24.6122C52.0393 25.0314 51.5502 25.6273 51.2614 26.3245C50.9725 27.0217 50.8969 27.7889 51.0441 28.5291C51.1913 29.2693 51.5546 29.9492 52.0882 30.4828C52.6218 31.0165 53.3017 31.3799 54.0419 31.5272C54.782 31.6745 55.5492 31.599 56.2465 31.3102C56.9437 31.0215 57.5397 30.5324 57.959 29.905C58.3783 29.2775 58.6021 28.5398 58.6022 27.7852C58.6011 26.7735 58.1988 25.8036 57.4835 25.0882C56.7682 24.3728 55.7984 23.9704 54.7867 23.9692V23.9692Z" fill="white"/>
<path d="M64.0001 40.814H63.0001C62.9997 39.3762 62.6219 37.9636 61.9045 36.7176C61.1872 35.4715 60.1554 34.4355 58.9123 33.713C57.6692 32.9906 56.2582 32.607 54.8204 32.6007C53.3826 32.5943 51.9684 32.9654 50.7189 33.6768L50.2228 32.8086C51.6243 32.0103 53.2108 31.5937 54.8238 31.6007C56.4368 31.6076 58.0196 32.0377 59.4143 32.8481C60.8089 33.6584 61.9664 34.8206 62.7712 36.2185C63.5759 37.6164 63.9997 39.201 64.0001 40.814Z" fill="white"/>
<path d="M9.21349 32.6006C8.26104 32.6005 7.33 32.318 6.53809 31.7889C5.74619 31.2597 5.12899 30.5075 4.76455 29.6276C4.40011 28.7476 4.30479 27.7793 4.49065 26.8452C4.67651 25.911 5.13521 25.053 5.80872 24.3795C6.48224 23.7061 7.34033 23.2475 8.27449 23.0617C9.20865 22.876 10.1769 22.9714 11.0568 23.3359C11.9368 23.7004 12.6888 24.3177 13.218 25.1097C13.7471 25.9016 14.0295 26.8327 14.0294 27.7851C14.028 29.0619 13.5201 30.286 12.6173 31.1888C11.7144 32.0915 10.4903 32.5993 9.21349 32.6006ZM9.21349 23.9692C8.45885 23.9693 7.72116 24.1931 7.09371 24.6124C6.46627 25.0317 5.97724 25.6276 5.68848 26.3248C5.39971 27.022 5.32417 27.7892 5.4714 28.5294C5.61864 29.2695 5.98204 29.9494 6.51566 30.483C7.04928 31.0166 7.72914 31.38 8.46929 31.5273C9.20943 31.6745 9.97662 31.5989 10.6738 31.3102C11.371 31.0214 11.967 30.5324 12.3863 29.9049C12.8055 29.2775 13.0294 28.5398 13.0294 27.7851C13.0284 26.7734 12.626 25.8035 11.9106 25.0881C11.1952 24.3727 10.2252 23.9703 9.21349 23.9692V23.9692Z" fill="white"/>
<path d="M1.00012 40.814H0.00012207C0.000568406 39.201 0.424337 37.6164 1.22908 36.2185C2.03382 34.8206 3.19134 33.6584 4.58597 32.8481C5.9806 32.0377 7.56349 31.6076 9.17644 31.6007C10.7894 31.5937 12.3759 32.0103 13.7775 32.8086L13.2814 33.6768C12.0319 32.9654 10.6176 32.5943 9.17982 32.6007C7.74203 32.607 6.33108 32.9906 5.08795 33.713C3.84482 34.4355 2.81304 35.4715 2.09571 36.7176C1.37837 37.9636 1.00059 39.3761 1.00012 40.814V40.814Z" fill="white"/>
<path d="M50.965 51.1065H35.942V50.1065H49.965V14.1765H14.035V50.1065H28.058V51.1065H13.035V13.1765H50.965V51.1065Z" fill="white"/>
</g>
<defs>
<clipPath id="clip0_20_3331">
<rect width="64.0001" height="64.0001" fill="white" transform="translate(0 0.141602)"/>
</clipPath>
</defs>
</svg>
