<svg width="64" height="64" viewBox="0 0 64 64" fill="none" xmlns="http://www.w3.org/2000/svg">
<g clip-path="url(#clip0_20_3153)">
<path opacity="0.15" d="M32 48.2123C29.9684 48.2123 27.9566 47.8121 26.0796 47.0347C24.2026 46.2572 22.4971 45.1176 21.0606 43.681C19.624 42.2445 18.4844 40.539 17.7069 38.662C16.9295 36.785 16.5293 34.7733 16.5293 32.7416V24.3562H47.4707V32.7416C47.4707 34.7733 47.0705 36.785 46.2931 38.662C45.5156 40.539 44.376 42.2445 42.9394 43.681C41.5029 45.1176 39.7974 46.2572 37.9204 47.0347C36.0434 47.8121 34.0316 48.2123 32 48.2123V48.2123Z" fill="#183A9E"/>
<path d="M32 55.229C26.038 55.2223 20.3221 52.851 16.1063 48.6352C11.8905 44.4195 9.51901 38.7037 9.51221 32.7417V24.356H10.5122V32.7417C10.5122 38.4406 12.7761 43.9061 16.8058 47.9358C20.8356 51.9656 26.3011 54.2294 32 54.2294C37.6989 54.2294 43.1644 51.9656 47.1942 47.9358C51.2239 43.9061 53.4878 38.4406 53.4878 32.7417V24.356H54.4878V32.7417C54.481 38.7037 52.1095 44.4195 47.8937 48.6352C43.6779 52.851 37.962 55.2223 32 55.229V55.229Z" fill="#204ECF"/>
<path d="M32 48.7124C27.7658 48.7076 23.7064 47.0234 20.7124 44.0293C17.7183 41.0353 16.0341 36.9759 16.0293 32.7417V15.9707C16.0293 11.735 17.7119 7.6728 20.707 4.67771C23.7021 1.68262 27.7643 0 32 0C36.2357 0 40.2979 1.68262 43.293 4.67771C46.2881 7.6728 47.9707 11.735 47.9707 15.9707V32.7417C47.9659 36.9759 46.2817 41.0353 43.2876 44.0293C40.2936 47.0234 36.2342 48.7076 32 48.7124V48.7124ZM32 1C28.0309 1.00448 24.2256 2.58319 21.4191 5.38977C18.6125 8.19635 17.0338 12.0016 17.0293 15.9707V32.7417C17.0293 36.7122 18.6066 40.52 21.4141 43.3276C24.2217 46.1351 28.0295 47.7124 32 47.7124C35.9705 47.7124 39.7783 46.1351 42.5859 43.3276C45.3934 40.52 46.9707 36.7122 46.9707 32.7417V15.9707C46.9662 12.0016 45.3875 8.19635 42.5809 5.38977C39.7744 2.58319 35.9691 1.00448 32 1V1Z" fill="#204ECF"/>
<path d="M32.5 54.729H31.5V63.5H32.5V54.729Z" fill="#204ECF"/>
<path d="M47.4707 23.856H16.5293V24.856H47.4707V23.856Z" fill="#204ECF"/>
<path d="M49.6431 63H14.3569V64H49.6431V63Z" fill="#204ECF"/>
</g>
<defs>
<clipPath id="clip0_20_3153">
<rect width="64" height="64" fill="white"/>
</clipPath>
</defs>
</svg>
