<svg width="64" height="65" viewBox="0 0 64 65" fill="none" xmlns="http://www.w3.org/2000/svg">
<g clip-path="url(#clip0_20_3348)">
<path opacity="0.3" d="M32 48.3539C29.9684 48.3539 27.9566 47.9537 26.0796 47.1763C24.2026 46.3988 22.4971 45.2592 21.0606 43.8226C19.624 42.3861 18.4844 40.6806 17.7069 38.8036C16.9295 36.9266 16.5293 34.9149 16.5293 32.8832V24.4978H47.4707V32.8832C47.4707 34.9149 47.0705 36.9266 46.2931 38.8036C45.5156 40.6806 44.376 42.3861 42.9394 43.8226C41.5029 45.2592 39.7974 46.3988 37.9204 47.1763C36.0434 47.9537 34.0316 48.3539 32 48.3539V48.3539Z" fill="#231F20"/>
<path d="M32 55.3706C26.038 55.3639 20.3221 52.9926 16.1063 48.7768C11.8905 44.5611 9.51901 38.8453 9.51221 32.8833V24.4976H10.5122V32.8833C10.5122 38.5822 12.7761 44.0477 16.8058 48.0774C20.8356 52.1072 26.3011 54.371 32 54.371C37.6989 54.371 43.1644 52.1072 47.1942 48.0774C51.2239 44.0477 53.4878 38.5822 53.4878 32.8833V24.4976H54.4878V32.8833C54.481 38.8453 52.1095 44.5611 47.8937 48.7768C43.6779 52.9926 37.962 55.3639 32 55.3706V55.3706Z" fill="white"/>
<path d="M32 48.854C27.7658 48.8492 23.7064 47.165 20.7124 44.1709C17.7183 41.1769 16.0341 37.1175 16.0293 32.8833V16.1123C16.0293 11.8766 17.7119 7.8144 20.707 4.81931C23.7021 1.82422 27.7643 0.141602 32 0.141602C36.2357 0.141602 40.2979 1.82422 43.293 4.81931C46.2881 7.8144 47.9707 11.8766 47.9707 16.1123V32.8833C47.9659 37.1175 46.2817 41.1769 43.2876 44.1709C40.2936 47.165 36.2342 48.8492 32 48.854V48.854ZM32 1.1416C28.0309 1.14609 24.2256 2.72479 21.4191 5.53137C18.6125 8.33795 17.0338 12.1432 17.0293 16.1123V32.8833C17.0293 36.8538 18.6066 40.6616 21.4141 43.4692C24.2217 46.2767 28.0295 47.854 32 47.854C35.9705 47.854 39.7783 46.2767 42.5859 43.4692C45.3934 40.6616 46.9707 36.8538 46.9707 32.8833V16.1123C46.9662 12.1432 45.3875 8.33795 42.5809 5.53137C39.7744 2.72479 35.9691 1.14609 32 1.1416V1.1416Z" fill="white"/>
<path d="M32.5 54.8706H31.5V63.6416H32.5V54.8706Z" fill="white"/>
<path d="M47.4707 23.9976H16.5293V24.9976H47.4707V23.9976Z" fill="white"/>
<path d="M49.6431 63.1416H14.3569V64.1416H49.6431V63.1416Z" fill="white"/>
</g>
<defs>
<clipPath id="clip0_20_3348">
<rect width="64" height="64" fill="white" transform="translate(0 0.141602)"/>
</clipPath>
</defs>
</svg>
