<svg width="64" height="65" viewBox="0 0 64 65" fill="none" xmlns="http://www.w3.org/2000/svg">
<g clip-path="url(#clip0_20_3358)">
<path opacity="0.3" d="M51.2852 50.583H43.1901C39.9506 50.583 36.8437 49.2961 34.553 47.0053C32.2623 44.7146 30.9754 41.6077 30.9754 38.3682V51.4268C30.9754 53.0308 31.2913 54.6192 31.9052 56.1012C32.519 57.5831 33.4187 58.9297 34.553 60.0639C35.6872 61.1982 37.0338 62.0979 38.5157 62.7117C39.9977 63.3256 41.5861 63.6415 43.1901 63.6415H51.2852C52.8893 63.6415 54.4777 63.3256 55.9596 62.7117C57.4416 62.0979 58.7881 61.1982 59.9224 60.0639C61.0566 58.9297 61.9564 57.5831 62.5702 56.1012C63.1841 54.6192 63.5 53.0308 63.5 51.4268V38.3682C63.5 41.6077 62.2131 44.7146 59.9224 47.0053C57.6317 49.2961 54.5248 50.583 51.2852 50.583V50.583Z" fill="#231F20"/>
<path d="M51.2852 64.1416H43.1904C39.8194 64.1378 36.5876 62.797 34.2039 60.4133C31.8202 58.0296 30.4794 54.7978 30.4756 51.4268V24.2002C30.4794 20.8292 31.8202 17.5973 34.2039 15.2137C36.5876 12.83 39.8194 11.4892 43.1904 11.4854H51.2852C54.6562 11.4892 57.888 12.83 60.2717 15.2137C62.6554 17.5973 63.9962 20.8292 64 24.2002V51.4268C63.9962 54.7978 62.6554 58.0296 60.2717 60.4133C57.888 62.797 54.6562 64.1378 51.2852 64.1416V64.1416ZM43.1904 12.4854C40.0845 12.4888 37.1068 13.7242 34.9106 15.9204C32.7144 18.1166 31.4791 21.0943 31.4756 24.2002V51.4268C31.4791 54.5327 32.7144 57.5104 34.9106 59.7066C37.1068 61.9028 40.0845 63.1381 43.1904 63.1416H51.2852C54.3911 63.1381 57.3688 61.9028 59.565 59.7066C61.7612 57.5104 62.9965 54.5327 63 51.4268V24.2002C62.9965 21.0943 61.7612 18.1166 59.565 15.9204C57.3688 13.7242 54.3911 12.4888 51.2852 12.4854H43.1904Z" fill="white"/>
<path d="M8.11816 64.1416C5.96577 64.1391 3.90225 63.283 2.38032 61.7609C0.858393 60.2389 0.00235024 58.1753 0 56.023L0 11.9854H1V56.023C1 57.9109 1.75 59.7216 3.085 61.0566C4.42001 62.3916 6.23067 63.1416 8.11865 63.1416C10.0066 63.1416 11.8173 62.3916 13.1523 61.0566C14.4873 59.7216 15.2373 57.9109 15.2373 56.023V8.26025C15.2397 6.10786 16.0957 4.04429 17.6176 2.52227C19.1396 1.00025 21.2031 0.144082 23.3555 0.141602L39.6191 0.141602C41.7715 0.144082 43.8351 1.00025 45.357 2.52227C46.8789 4.04429 47.735 6.10786 47.7373 8.26025V11.9854H46.7373V8.26025C46.7352 6.37299 45.9846 4.56362 44.6502 3.22908C43.3157 1.89454 41.5064 1.14382 39.6191 1.1416H23.3555C21.4682 1.14382 19.6589 1.89454 18.3244 3.22908C16.99 4.56362 16.2394 6.37299 16.2373 8.26025V56.023C16.2347 58.1754 15.3785 60.239 13.8564 61.761C12.3343 63.283 10.2707 64.1392 8.11816 64.1416V64.1416Z" fill="white"/>
<path d="M47.7373 19.8765H46.7373V28.7666H47.7373V19.8765Z" fill="white"/>
</g>
<defs>
<clipPath id="clip0_20_3358">
<rect width="64" height="64" fill="white" transform="translate(0 0.141602)"/>
</clipPath>
</defs>
</svg>
