<svg width="64" height="64" viewBox="0 0 64 64" fill="none" xmlns="http://www.w3.org/2000/svg">
<g clip-path="url(#clip0_20_3163)">
<path opacity="0.15" d="M51.2852 50.4414H43.1901C39.9506 50.4414 36.8437 49.1545 34.553 46.8637C32.2623 44.573 30.9754 41.4661 30.9754 38.2266V51.2852C30.9754 52.8892 31.2913 54.4776 31.9052 55.9596C32.519 57.4415 33.4187 58.7881 34.553 59.9223C35.6872 61.0566 37.0338 61.9563 38.5157 62.5701C39.9977 63.184 41.5861 63.4999 43.1901 63.4999H51.2852C52.8893 63.4999 54.4777 63.184 55.9596 62.5701C57.4416 61.9563 58.7881 61.0566 59.9224 59.9223C61.0566 58.7881 61.9564 57.4415 62.5702 55.9596C63.1841 54.4776 63.5 52.8892 63.5 51.2852V38.2266C63.5 41.4661 62.2131 44.573 59.9224 46.8637C57.6317 49.1545 54.5248 50.4414 51.2852 50.4414V50.4414Z" fill="#183A9E"/>
<path d="M51.2852 64H43.1904C39.8194 63.9962 36.5876 62.6554 34.2039 60.2717C31.8202 57.888 30.4794 54.6562 30.4756 51.2852V24.0586C30.4794 20.6876 31.8202 17.4557 34.2039 15.0721C36.5876 12.6884 39.8194 11.3476 43.1904 11.3438H51.2852C54.6562 11.3476 57.888 12.6884 60.2717 15.0721C62.6554 17.4557 63.9962 20.6876 64 24.0586V51.2852C63.9962 54.6562 62.6554 57.888 60.2717 60.2717C57.888 62.6554 54.6562 63.9962 51.2852 64V64ZM43.1904 12.3438C40.0845 12.3472 37.1068 13.5826 34.9106 15.7788C32.7144 17.975 31.4791 20.9527 31.4756 24.0586V51.2852C31.4791 54.3911 32.7144 57.3688 34.9106 59.565C37.1068 61.7612 40.0845 62.9965 43.1904 63H51.2852C54.3911 62.9965 57.3688 61.7612 59.565 59.565C61.7612 57.3688 62.9965 54.3911 63 51.2852V24.0586C62.9965 20.9527 61.7612 17.975 59.565 15.7788C57.3688 13.5826 54.3911 12.3472 51.2852 12.3438H43.1904Z" fill="#204ECF"/>
<path d="M8.11816 64C5.96577 63.9975 3.90225 63.1414 2.38032 61.6193C0.858393 60.0973 0.00235024 58.0337 0 55.8814L0 11.8438H1V55.8814C1 57.7693 1.75 59.58 3.085 60.915C4.42001 62.25 6.23067 63 8.11865 63C10.0066 63 11.8173 62.25 13.1523 60.915C14.4873 59.58 15.2373 57.7693 15.2373 55.8814V8.11865C15.2397 5.96626 16.0957 3.90268 17.6176 2.38067C19.1396 0.858647 21.2031 0.00248015 23.3555 0L39.6191 0C41.7715 0.00248015 43.8351 0.858647 45.357 2.38067C46.8789 3.90269 47.735 5.96626 47.7373 8.11865V11.8438H46.7373V8.11865C46.7352 6.23139 45.9846 4.42202 44.6502 3.08748C43.3157 1.75294 41.5064 1.00222 39.6191 1H23.3555C21.4682 1.00222 19.6589 1.75294 18.3244 3.08748C16.99 4.42202 16.2394 6.23139 16.2373 8.11865V55.8814C16.2347 58.0338 15.3785 60.0974 13.8564 61.6194C12.3343 63.1414 10.2707 63.9976 8.11816 64V64Z" fill="#204ECF"/>
<path d="M47.7373 19.7349H46.7373V28.625H47.7373V19.7349Z" fill="#204ECF"/>
</g>
<defs>
<clipPath id="clip0_20_3163">
<rect width="64" height="64" fill="white"/>
</clipPath>
</defs>
</svg>
