<svg width="64" height="64" viewBox="0 0 64 64" fill="none" xmlns="http://www.w3.org/2000/svg">
<g clip-path="url(#clip0_1158_1969)">
<path opacity="0.3" d="M11.5 11.5C13.1569 11.5 14.5 10.1569 14.5 8.5C14.5 6.84315 13.1569 5.5 11.5 5.5C9.84315 5.5 8.5 6.84315 8.5 8.5C8.5 10.1569 9.84315 11.5 11.5 11.5Z" fill="black"/>
<path opacity="0.3" d="M11.5 11.5C8.74 11.5 6.5 13.74 6.5 16.5L7 17H16L16.5 16.5C16.5 13.74 14.26 11.5 11.5 11.5Z" fill="black"/>
<path opacity="0.3" d="M31.5 20.5C25.42 20.5 20.5 25.42 20.5 31.5C20.5 37.58 25.42 42.5 31.5 42.5C37.58 42.5 42.5 37.58 42.5 31.5C42.5 25.42 37.58 20.5 31.5 20.5ZM26.5 36.5C26.5 33.74 28.74 31.5 31.5 31.5C29.84 31.5 28.5 30.16 28.5 28.5C28.5 26.84 29.84 25.5 31.5 25.5C33.16 25.5 34.5 26.84 34.5 28.5C34.5 30.16 33.16 31.5 31.5 31.5C34.26 31.5 36.5 33.74 36.5 36.5L36 37H27L26.5 36.5Z" fill="black"/>
<path opacity="0.3" d="M51.5 51.5C53.1569 51.5 54.5 50.1569 54.5 48.5C54.5 46.8431 53.1569 45.5 51.5 45.5C49.8431 45.5 48.5 46.8431 48.5 48.5C48.5 50.1569 49.8431 51.5 51.5 51.5Z" fill="black"/>
<path opacity="0.3" d="M51.5 51.5C48.74 51.5 46.5 53.74 46.5 56.5L47 57H56L56.5 56.5C56.5 53.74 54.26 51.5 51.5 51.5Z" fill="black"/>
<path d="M11.5 22.5C17.5751 22.5 22.5 17.5751 22.5 11.5C22.5 5.42487 17.5751 0.5 11.5 0.5C5.42487 0.5 0.5 5.42487 0.5 11.5C0.5 17.5751 5.42487 22.5 11.5 22.5Z" stroke="white" stroke-miterlimit="10"/>
<path d="M11.5 11.5C13.1569 11.5 14.5 10.1569 14.5 8.5C14.5 6.84315 13.1569 5.5 11.5 5.5C9.84315 5.5 8.5 6.84315 8.5 8.5C8.5 10.1569 9.84315 11.5 11.5 11.5Z" stroke="white" stroke-miterlimit="10"/>
<path d="M6.5 16.5C6.5 13.74 8.74 11.5 11.5 11.5C14.26 11.5 16.5 13.74 16.5 16.5" stroke="white" stroke-miterlimit="10" stroke-linecap="square"/>
<path d="M51.5 22.5C57.5751 22.5 62.5 17.5751 62.5 11.5C62.5 5.42487 57.5751 0.5 51.5 0.5C45.4249 0.5 40.5 5.42487 40.5 11.5C40.5 17.5751 45.4249 22.5 51.5 22.5Z" stroke="white" stroke-miterlimit="10"/>
<path d="M51.5 11.5C53.1569 11.5 54.5 10.1569 54.5 8.5C54.5 6.84315 53.1569 5.5 51.5 5.5C49.8431 5.5 48.5 6.84315 48.5 8.5C48.5 10.1569 49.8431 11.5 51.5 11.5Z" stroke="white" stroke-miterlimit="10"/>
<path d="M46.5 16.5C46.5 13.74 48.74 11.5 51.5 11.5C54.26 11.5 56.5 13.74 56.5 16.5" stroke="white" stroke-miterlimit="10" stroke-linecap="square"/>
<path d="M11.5 62.5C17.5751 62.5 22.5 57.5751 22.5 51.5C22.5 45.4249 17.5751 40.5 11.5 40.5C5.42487 40.5 0.5 45.4249 0.5 51.5C0.5 57.5751 5.42487 62.5 11.5 62.5Z" stroke="white" stroke-miterlimit="10"/>
<path d="M11.5 51.5C13.1569 51.5 14.5 50.1569 14.5 48.5C14.5 46.8431 13.1569 45.5 11.5 45.5C9.84315 45.5 8.5 46.8431 8.5 48.5C8.5 50.1569 9.84315 51.5 11.5 51.5Z" stroke="white" stroke-miterlimit="10"/>
<path d="M6.5 56.5C6.5 53.74 8.74 51.5 11.5 51.5C14.26 51.5 16.5 53.74 16.5 56.5" stroke="white" stroke-miterlimit="10" stroke-linecap="square"/>
<path d="M51.5 62.5C57.5751 62.5 62.5 57.5751 62.5 51.5C62.5 45.4249 57.5751 40.5 51.5 40.5C45.4249 40.5 40.5 45.4249 40.5 51.5C40.5 57.5751 45.4249 62.5 51.5 62.5Z" stroke="white" stroke-miterlimit="10"/>
<path d="M51.5 51.5C53.1569 51.5 54.5 50.1569 54.5 48.5C54.5 46.8431 53.1569 45.5 51.5 45.5C49.8431 45.5 48.5 46.8431 48.5 48.5C48.5 50.1569 49.8431 51.5 51.5 51.5Z" stroke="white" stroke-miterlimit="10"/>
<path d="M46.5 56.5C46.5 53.74 48.74 51.5 51.5 51.5C54.26 51.5 56.5 53.74 56.5 56.5" stroke="white" stroke-miterlimit="10" stroke-linecap="square"/>
<path d="M31.5 42.5C37.5751 42.5 42.5 37.5751 42.5 31.5C42.5 25.4249 37.5751 20.5 31.5 20.5C25.4249 20.5 20.5 25.4249 20.5 31.5C20.5 37.5751 25.4249 42.5 31.5 42.5Z" stroke="white" stroke-miterlimit="10"/>
<path d="M31.5 31.5C33.1569 31.5 34.5 30.1569 34.5 28.5C34.5 26.8431 33.1569 25.5 31.5 25.5C29.8431 25.5 28.5 26.8431 28.5 28.5C28.5 30.1569 29.8431 31.5 31.5 31.5Z" stroke="white" stroke-miterlimit="10"/>
<path d="M26.5 36.5C26.5 33.74 28.74 31.5 31.5 31.5C34.26 31.5 36.5 33.74 36.5 36.5" stroke="white" stroke-miterlimit="10" stroke-linecap="square"/>
<path d="M39 39L44 44" stroke="white" stroke-miterlimit="10"/>
<path d="M19 19L24 24" stroke="white" stroke-miterlimit="10"/>
</g>
<defs>
<clipPath id="clip0_1158_1969">
<rect width="64" height="64" fill="white"/>
</clipPath>
</defs>
</svg>
