<svg width="64" height="64" viewBox="0 0 64 64" fill="none" xmlns="http://www.w3.org/2000/svg">
<g clip-path="url(#clip0_20_3171)">
<path opacity="0.15" d="M8.02345 15.5469C12.1785 15.5469 15.5469 12.1785 15.5469 8.02343C15.5469 3.86835 12.1785 0.5 8.02345 0.5C3.86837 0.5 0.500015 3.86835 0.500015 8.02343C0.500015 12.1785 3.86837 15.5469 8.02345 15.5469Z" fill="#183A9E"/>
<path opacity="0.15" d="M55.9766 15.5469C60.1316 15.5469 63.5 12.1785 63.5 8.02343C63.5 3.86835 60.1316 0.5 55.9766 0.5C51.8215 0.5 48.4531 3.86835 48.4531 8.02343C48.4531 12.1785 51.8215 15.5469 55.9766 15.5469Z" fill="#183A9E"/>
<path opacity="0.15" d="M8.02345 63.4861C12.1785 63.4861 15.5469 60.1177 15.5469 55.9626C15.5469 51.8076 12.1785 48.4392 8.02345 48.4392C3.86837 48.4392 0.500015 51.8076 0.500015 55.9626C0.500015 60.1177 3.86837 63.4861 8.02345 63.4861Z" fill="#183A9E"/>
<path opacity="0.15" d="M55.9766 63.4861C60.1316 63.4861 63.5 60.1177 63.5 55.9626C63.5 51.8076 60.1316 48.4392 55.9766 48.4392C51.8215 48.4392 48.4531 51.8076 48.4531 55.9626C48.4531 60.1177 51.8215 63.4861 55.9766 63.4861Z" fill="#183A9E"/>
<path opacity="0.15" d="M32 39.5234C36.1551 39.5234 39.5234 36.1551 39.5234 32C39.5234 27.8449 36.1551 24.4766 32 24.4766C27.8449 24.4766 24.4766 27.8449 24.4766 32C24.4766 36.1551 27.8449 39.5234 32 39.5234Z" fill="#183A9E"/>
<path d="M8.02344 16.0469C6.43656 16.0469 4.88531 15.5763 3.56586 14.6947C2.24641 13.8131 1.21803 12.56 0.610752 11.0939C0.00347644 9.62779 -0.155414 8.01454 0.154172 6.45815C0.463758 4.90175 1.22792 3.47211 2.35001 2.35001C3.47211 1.22792 4.90175 0.463758 6.45815 0.154172C8.01454 -0.155414 9.62779 0.00347644 11.0939 0.610752C12.56 1.21803 13.8131 2.24641 14.6947 3.56586C15.5763 4.88531 16.0469 6.43656 16.0469 8.02344C16.0445 10.1507 15.1985 12.1901 13.6943 13.6943C12.1901 15.1985 10.1507 16.0445 8.02344 16.0469V16.0469ZM8.02344 1C6.63434 1 5.27643 1.41192 4.12143 2.18367C2.96643 2.95541 2.06622 4.05232 1.53463 5.33569C1.00304 6.61906 0.863956 8.03124 1.13496 9.39365C1.40596 10.7561 2.07488 12.0075 3.05712 12.9898C4.03937 13.972 5.29082 14.6409 6.65324 14.9119C8.01565 15.1829 9.42783 15.0438 10.7112 14.5123C11.9946 13.9807 13.0915 13.0805 13.8632 11.9255C14.635 10.7705 15.0469 9.41255 15.0469 8.02344C15.0447 6.16138 14.3041 4.37619 12.9874 3.05951C11.6707 1.74283 9.88551 1.00217 8.02344 1V1Z" fill="#204ECF"/>
<path d="M55.9766 16.0469C54.3897 16.0469 52.8384 15.5763 51.519 14.6947C50.1995 13.8131 49.1712 12.56 48.5639 11.0939C47.9566 9.62779 47.7977 8.01454 48.1073 6.45815C48.4169 4.90175 49.181 3.47211 50.3031 2.35001C51.4252 1.22792 52.8549 0.463758 54.4113 0.154172C55.9677 -0.155414 57.5809 0.00347644 59.047 0.610752C60.5131 1.21803 61.7662 2.24641 62.6478 3.56586C63.5294 4.88531 64 6.43656 64 8.02344C63.9977 10.1507 63.1516 12.1901 61.6474 13.6943C60.1432 15.1985 58.1038 16.0445 55.9766 16.0469V16.0469ZM55.9766 1C54.5875 1 53.2296 1.41192 52.0746 2.18367C50.9196 2.95541 50.0193 4.05232 49.4878 5.33569C48.9562 6.61906 48.8171 8.03124 49.0881 9.39365C49.3591 10.7561 50.028 12.0075 51.0102 12.9898C51.9925 13.972 53.2439 14.6409 54.6064 14.9119C55.9688 15.1829 57.381 15.0438 58.6643 14.5123C59.9477 13.9807 61.0446 13.0805 61.8163 11.9255C62.5881 10.7705 63 9.41255 63 8.02344C62.9978 6.16138 62.2572 4.37619 60.9405 3.05951C59.6238 1.74283 57.8386 1.00217 55.9766 1V1Z" fill="#204ECF"/>
<path d="M8.02344 63.9858C6.43656 63.9858 4.88531 63.5153 3.56586 62.6337C2.24641 61.752 1.21803 60.4989 0.610752 59.0328C0.00347644 57.5668 -0.155414 55.9535 0.154172 54.3971C0.463758 52.8407 1.22792 51.4111 2.35001 50.289C3.47211 49.1669 4.90175 48.4027 6.45815 48.0931C8.01454 47.7836 9.62779 47.9424 11.0939 48.5497C12.56 49.157 13.8131 50.1854 14.6947 51.5048C15.5763 52.8243 16.0469 54.3755 16.0469 55.9624C16.0445 58.0896 15.1985 60.1291 13.6943 61.6332C12.1901 63.1374 10.1507 63.9835 8.02344 63.9858V63.9858ZM8.02344 48.939C6.63434 48.939 5.27643 49.3509 4.12143 50.1226C2.96643 50.8944 2.06622 51.9913 1.53463 53.2747C1.00304 54.558 0.863956 55.9702 1.13496 57.3326C1.40596 58.695 2.07488 59.9465 3.05712 60.9287C4.03937 61.911 5.29082 62.5799 6.65324 62.8509C8.01565 63.1219 9.42783 62.9828 10.7112 62.4512C11.9946 61.9196 13.0915 61.0194 13.8632 59.8644C14.635 58.7094 15.0469 57.3515 15.0469 55.9624C15.0447 54.1003 14.304 52.3152 12.9874 50.9985C11.6707 49.6818 9.8855 48.9412 8.02344 48.939V48.939Z" fill="#204ECF"/>
<path d="M55.9766 63.9858C54.3897 63.9858 52.8384 63.5153 51.519 62.6337C50.1995 61.752 49.1712 60.4989 48.5639 59.0328C47.9566 57.5668 47.7977 55.9535 48.1073 54.3971C48.4169 52.8407 49.181 51.4111 50.3031 50.289C51.4252 49.1669 52.8549 48.4027 54.4113 48.0931C55.9677 47.7836 57.5809 47.9424 59.047 48.5497C60.5131 49.157 61.7662 50.1854 62.6478 51.5048C63.5294 52.8243 64 54.3755 64 55.9624C63.9977 58.0896 63.1516 60.1291 61.6474 61.6332C60.1432 63.1374 58.1038 63.9835 55.9766 63.9858V63.9858ZM55.9766 48.939C54.5875 48.939 53.2296 49.3509 52.0746 50.1226C50.9196 50.8944 50.0193 51.9913 49.4878 53.2747C48.9562 54.558 48.8171 55.9702 49.0881 57.3326C49.3591 58.695 50.028 59.9465 51.0102 60.9287C51.9925 61.911 53.2439 62.5799 54.6064 62.8509C55.9688 63.1219 57.381 62.9828 58.6643 62.4512C59.9477 61.9196 61.0446 61.0194 61.8163 59.8644C62.5881 58.7094 63 57.3515 63 55.9624C62.9978 54.1003 62.2572 52.3152 60.9405 50.9985C59.6238 49.6818 57.8386 48.9412 55.9766 48.939V48.939Z" fill="#204ECF"/>
<path d="M8.02344 40.0234C6.43656 40.0234 4.88531 39.5529 3.56586 38.6713C2.24641 37.7896 1.21803 36.5365 0.610752 35.0704C0.00347644 33.6044 -0.155414 31.9911 0.154172 30.4347C0.463758 28.8783 1.22792 27.4487 2.35001 26.3266C3.47211 25.2045 4.90175 24.4403 6.45815 24.1307C8.01454 23.8211 9.62779 23.98 11.0939 24.5873C12.56 25.1946 13.8131 26.223 14.6947 27.5424C15.5763 28.8619 16.0469 30.4131 16.0469 32C16.0445 34.1272 15.1985 36.1667 13.6943 37.6708C12.1901 39.175 10.1507 40.0211 8.02344 40.0234V40.0234ZM8.02344 24.9766C6.63434 24.9766 5.27643 25.3885 4.12143 26.1602C2.96643 26.932 2.06622 28.0289 1.53463 29.3123C1.00304 30.5956 0.863956 32.0078 1.13496 33.3702C1.40596 34.7326 2.07488 35.9841 3.05712 36.9663C4.03937 37.9486 5.29082 38.6175 6.65324 38.8885C8.01565 39.1595 9.42783 39.0204 10.7112 38.4888C11.9946 37.9572 13.0915 37.057 13.8632 35.902C14.635 34.747 15.0469 33.3891 15.0469 32C15.0447 30.1379 14.3041 28.3528 12.9874 27.0361C11.6707 25.7194 9.88551 24.9787 8.02344 24.9766V24.9766Z" fill="#204ECF"/>
<path d="M32 40.0234C30.4131 40.0234 28.8619 39.5529 27.5424 38.6713C26.223 37.7896 25.1946 36.5365 24.5873 35.0704C23.98 33.6044 23.8211 31.9911 24.1307 30.4347C24.4403 28.8783 25.2045 27.4487 26.3266 26.3266C27.4487 25.2045 28.8783 24.4403 30.4347 24.1307C31.9911 23.8211 33.6044 23.98 35.0704 24.5873C36.5365 25.1946 37.7896 26.223 38.6713 27.5424C39.5529 28.8619 40.0234 30.4131 40.0234 32C40.0211 34.1272 39.175 36.1667 37.6708 37.6708C36.1667 39.175 34.1272 40.0211 32 40.0234V40.0234ZM32 24.9766C30.6109 24.9766 29.253 25.3885 28.098 26.1602C26.943 26.932 26.0428 28.0289 25.5112 29.3123C24.9796 30.5956 24.8405 32.0078 25.1115 33.3702C25.3825 34.7326 26.0514 35.9841 27.0337 36.9663C28.0159 37.9486 29.2674 38.6175 30.6298 38.8885C31.9922 39.1595 33.4044 39.0204 34.6878 38.4888C35.9711 37.9572 37.068 37.057 37.8398 35.902C38.6115 34.747 39.0234 33.3891 39.0234 32C39.0213 30.1379 38.2806 28.3528 36.9639 27.0361C35.6473 25.7194 33.8621 24.9787 32 24.9766V24.9766Z" fill="#204ECF"/>
<path d="M55.9766 40.0234C54.3897 40.0234 52.8384 39.5529 51.519 38.6713C50.1995 37.7896 49.1712 36.5365 48.5639 35.0704C47.9566 33.6044 47.7977 31.9911 48.1073 30.4347C48.4169 28.8783 49.181 27.4487 50.3031 26.3266C51.4252 25.2045 52.8549 24.4403 54.4113 24.1307C55.9677 23.8211 57.5809 23.98 59.047 24.5873C60.5131 25.1946 61.7662 26.223 62.6478 27.5424C63.5294 28.8619 64 30.4131 64 32C63.9977 34.1272 63.1516 36.1667 61.6474 37.6708C60.1432 39.175 58.1038 40.0211 55.9766 40.0234V40.0234ZM55.9766 24.9766C54.5875 24.9766 53.2296 25.3885 52.0746 26.1602C50.9196 26.932 50.0193 28.0289 49.4878 29.3123C48.9562 30.5956 48.8171 32.0078 49.0881 33.3702C49.3591 34.7326 50.028 35.9841 51.0102 36.9663C51.9925 37.9486 53.2439 38.6175 54.6064 38.8885C55.9688 39.1595 57.381 39.0204 58.6643 38.4888C59.9477 37.9572 61.0446 37.057 61.8163 35.902C62.5881 34.747 63 33.3891 63 32C62.9978 30.1379 62.2572 28.3528 60.9405 27.0361C59.6238 25.7194 57.8386 24.9787 55.9766 24.9766V24.9766Z" fill="#204ECF"/>
<path d="M32 64C30.4131 64 28.8619 63.5294 27.5424 62.6478C26.223 61.7662 25.1946 60.5131 24.5873 59.047C23.98 57.5809 23.8211 55.9677 24.1307 54.4113C24.4403 52.8549 25.2045 51.4252 26.3266 50.3031C27.4487 49.181 28.8783 48.4169 30.4347 48.1073C31.9911 47.7977 33.6044 47.9566 35.0704 48.5639C36.5365 49.1712 37.7896 50.1995 38.6713 51.519C39.5529 52.8384 40.0234 54.3897 40.0234 55.9766C40.0211 58.1038 39.175 60.1432 37.6708 61.6474C36.1667 63.1516 34.1272 63.9977 32 64V64ZM32 48.9531C30.6109 48.9531 29.253 49.365 28.098 50.1368C26.943 50.9085 26.0428 52.0054 25.5112 53.2888C24.9796 54.5722 24.8405 55.9844 25.1115 57.3468C25.3825 58.7092 26.0514 59.9606 27.0337 60.9429C28.0159 61.9251 29.2674 62.5941 30.6298 62.8651C31.9922 63.1361 33.4044 62.997 34.6878 62.4654C35.9711 61.9338 37.068 61.0336 37.8398 59.8786C38.6115 58.7236 39.0234 57.3657 39.0234 55.9766C39.0213 54.1145 38.2806 52.3293 36.9639 51.0126C35.6473 49.696 33.8621 48.9553 32 48.9531V48.9531Z" fill="#204ECF"/>
<path d="M32 16.0469C30.4131 16.0469 28.8619 15.5763 27.5424 14.6947C26.223 13.8131 25.1946 12.56 24.5873 11.0939C23.98 9.62779 23.8211 8.01454 24.1307 6.45815C24.4403 4.90175 25.2045 3.47211 26.3266 2.35001C27.4487 1.22792 28.8783 0.463758 30.4347 0.154172C31.9911 -0.155414 33.6044 0.00347644 35.0704 0.610752C36.5365 1.21803 37.7896 2.24641 38.6713 3.56586C39.5529 4.88531 40.0234 6.43656 40.0234 8.02344C40.0211 10.1507 39.175 12.1901 37.6708 13.6943C36.1667 15.1985 34.1272 16.0445 32 16.0469V16.0469ZM32 1C30.6109 1 29.253 1.41192 28.098 2.18367C26.943 2.95541 26.0428 4.05232 25.5112 5.33569C24.9796 6.61906 24.8405 8.03124 25.1115 9.39365C25.3825 10.7561 26.0514 12.0075 27.0337 12.9898C28.0159 13.972 29.2674 14.6409 30.6298 14.9119C31.9922 15.1829 33.4044 15.0438 34.6878 14.5123C35.9711 13.9807 37.068 13.0805 37.8398 11.9255C38.6115 10.7705 39.0234 9.41255 39.0234 8.02344C39.0213 6.16138 38.2806 4.37619 36.9639 3.05951C35.6473 1.74283 33.8621 1.00217 32 1V1Z" fill="#204ECF"/>
<path d="M8.52344 15.5469H7.52344V24.4766H8.52344V15.5469Z" fill="#204ECF"/>
<path d="M32.5 15.5469H31.5V24.4766H32.5V15.5469Z" fill="#204ECF"/>
<path d="M56.4766 15.5469H55.4766V24.4766H56.4766V15.5469Z" fill="#204ECF"/>
<path d="M8.52344 39.5234H7.52344V48.4531H8.52344V39.5234Z" fill="#204ECF"/>
<path d="M32.5 39.5234H31.5V48.4531H32.5V39.5234Z" fill="#204ECF"/>
<path d="M56.4766 39.5234H55.4766V48.4531H56.4766V39.5234Z" fill="#204ECF"/>
<path d="M48.4531 7.52344H39.5234V8.52344H48.4531V7.52344Z" fill="#204ECF"/>
<path d="M48.4531 31.5H39.5234V32.5H48.4531V31.5Z" fill="#204ECF"/>
<path d="M48.4531 55.4766H39.5234V56.4766H48.4531V55.4766Z" fill="#204ECF"/>
<path d="M24.4766 7.52344H15.5469V8.52344H24.4766V7.52344Z" fill="#204ECF"/>
<path d="M24.4766 31.5H15.5469V32.5H24.4766V31.5Z" fill="#204ECF"/>
<path d="M24.4766 55.4766H15.5469V56.4766H24.4766V55.4766Z" fill="#204ECF"/>
</g>
<defs>
<clipPath id="clip0_20_3171">
<rect width="64" height="64" fill="white"/>
</clipPath>
</defs>
</svg>
