<svg width="64" height="65" viewBox="0 0 64 64" fill="none" xmlns="http://www.w3.org/2000/svg">
<g clip-path="url(#clip0_20_3366)">
<path opacity="0.3" d="M8.02345 15.6885C12.1785 15.6885 15.5469 12.3201 15.5469 8.16503C15.5469 4.00996 12.1785 0.641602 8.02345 0.641602C3.86837 0.641602 0.500015 4.00996 0.500015 8.16503C0.500015 12.3201 3.86837 15.6885 8.02345 15.6885Z" fill="#231F20"/>
<path opacity="0.3" d="M55.9766 15.6885C60.1316 15.6885 63.5 12.3201 63.5 8.16503C63.5 4.00996 60.1316 0.641602 55.9766 0.641602C51.8215 0.641602 48.4531 4.00996 48.4531 8.16503C48.4531 12.3201 51.8215 15.6885 55.9766 15.6885Z" fill="#231F20"/>
<path opacity="0.3" d="M8.02345 63.6277C12.1785 63.6277 15.5469 60.2593 15.5469 56.1042C15.5469 51.9492 12.1785 48.5808 8.02345 48.5808C3.86837 48.5808 0.500015 51.9492 0.500015 56.1042C0.500015 60.2593 3.86837 63.6277 8.02345 63.6277Z" fill="#231F20"/>
<path opacity="0.3" d="M55.9766 63.6277C60.1316 63.6277 63.5 60.2593 63.5 56.1042C63.5 51.9492 60.1316 48.5808 55.9766 48.5808C51.8215 48.5808 48.4531 51.9492 48.4531 56.1042C48.4531 60.2593 51.8215 63.6277 55.9766 63.6277Z" fill="#231F20"/>
<path opacity="0.3" d="M32 39.665C36.1551 39.665 39.5234 36.2967 39.5234 32.1416C39.5234 27.9865 36.1551 24.6182 32 24.6182C27.8449 24.6182 24.4766 27.9865 24.4766 32.1416C24.4766 36.2967 27.8449 39.665 32 39.665Z" fill="#231F20"/>
<path d="M8.02344 16.1885C6.43656 16.1885 4.88531 15.7179 3.56586 14.8363C2.24641 13.9547 1.21803 12.7016 0.610752 11.2355C0.00347644 9.76939 -0.155414 8.15614 0.154172 6.59975C0.463758 5.04336 1.22792 3.61371 2.35001 2.49162C3.47211 1.36952 4.90175 0.60536 6.45815 0.295773C8.01454 -0.0138129 9.62779 0.145078 11.0939 0.752353C12.56 1.35963 13.8131 2.38801 14.6947 3.70746C15.5763 5.02691 16.0469 6.57816 16.0469 8.16505C16.0445 10.2923 15.1985 12.3317 13.6943 13.8359C12.1901 15.3401 10.1507 16.1861 8.02344 16.1885V16.1885ZM8.02344 1.14161C6.63434 1.14161 5.27643 1.55352 4.12143 2.32527C2.96643 3.09701 2.06622 4.19393 1.53463 5.47729C1.00304 6.76066 0.863956 8.17284 1.13496 9.53525C1.40596 10.8977 2.07488 12.1491 3.05712 13.1314C4.03937 14.1136 5.29082 14.7825 6.65324 15.0535C8.01565 15.3245 9.42783 15.1854 10.7112 14.6539C11.9946 14.1223 13.0915 13.2221 13.8632 12.0671C14.635 10.9121 15.0469 9.55415 15.0469 8.16505C15.0447 6.30298 14.3041 4.5178 12.9874 3.20111C11.6707 1.88443 9.88551 1.14377 8.02344 1.14161V1.14161Z" fill="white"/>
<path d="M55.9766 16.1885C54.3897 16.1885 52.8384 15.7179 51.519 14.8363C50.1995 13.9547 49.1712 12.7016 48.5639 11.2355C47.9566 9.76939 47.7977 8.15614 48.1073 6.59975C48.4169 5.04336 49.181 3.61371 50.3031 2.49162C51.4252 1.36952 52.8549 0.60536 54.4113 0.295773C55.9677 -0.0138129 57.5809 0.145078 59.047 0.752353C60.5131 1.35963 61.7662 2.38801 62.6478 3.70746C63.5294 5.02691 64 6.57816 64 8.16505C63.9977 10.2923 63.1516 12.3317 61.6474 13.8359C60.1432 15.3401 58.1038 16.1861 55.9766 16.1885V16.1885ZM55.9766 1.14161C54.5875 1.14161 53.2296 1.55352 52.0746 2.32527C50.9196 3.09701 50.0193 4.19393 49.4878 5.47729C48.9562 6.76066 48.8171 8.17284 49.0881 9.53525C49.3591 10.8977 50.028 12.1491 51.0102 13.1314C51.9925 14.1136 53.2439 14.7825 54.6064 15.0535C55.9688 15.3245 57.381 15.1854 58.6643 14.6539C59.9477 14.1223 61.0446 13.2221 61.8163 12.0671C62.5881 10.9121 63 9.55415 63 8.16505C62.9978 6.30298 62.2572 4.5178 60.9405 3.20111C59.6238 1.88443 57.8386 1.14377 55.9766 1.14161V1.14161Z" fill="white"/>
<path d="M8.02344 64.1274C6.43656 64.1274 4.88531 63.6569 3.56586 62.7753C2.24641 61.8936 1.21803 60.6405 0.610752 59.1744C0.00347644 57.7084 -0.155414 56.0951 0.154172 54.5387C0.463758 52.9823 1.22792 51.5527 2.35001 50.4306C3.47211 49.3085 4.90175 48.5443 6.45815 48.2347C8.01454 47.9252 9.62779 48.084 11.0939 48.6913C12.56 49.2986 13.8131 50.327 14.6947 51.6464C15.5763 52.9659 16.0469 54.5171 16.0469 56.104C16.0445 58.2312 15.1985 60.2707 13.6943 61.7748C12.1901 63.279 10.1507 64.1251 8.02344 64.1274V64.1274ZM8.02344 49.0806C6.63434 49.0806 5.27643 49.4925 4.12143 50.2642C2.96643 51.036 2.06622 52.1329 1.53463 53.4163C1.00304 54.6996 0.863956 56.1118 1.13496 57.4742C1.40596 58.8366 2.07488 60.0881 3.05712 61.0703C4.03937 62.0526 5.29082 62.7215 6.65324 62.9925C8.01565 63.2635 9.42783 63.1244 10.7112 62.5928C11.9946 62.0612 13.0915 61.161 13.8632 60.006C14.635 58.851 15.0469 57.4931 15.0469 56.104C15.0447 54.2419 14.304 52.4568 12.9874 51.1401C11.6707 49.8234 9.8855 49.0828 8.02344 49.0806V49.0806Z" fill="white"/>
<path d="M55.9766 64.1274C54.3897 64.1274 52.8384 63.6569 51.519 62.7753C50.1995 61.8936 49.1712 60.6405 48.5639 59.1744C47.9566 57.7084 47.7977 56.0951 48.1073 54.5387C48.4169 52.9823 49.181 51.5527 50.3031 50.4306C51.4252 49.3085 52.8549 48.5443 54.4113 48.2347C55.9677 47.9252 57.5809 48.084 59.047 48.6913C60.5131 49.2986 61.7662 50.327 62.6478 51.6464C63.5294 52.9659 64 54.5171 64 56.104C63.9977 58.2312 63.1516 60.2707 61.6474 61.7748C60.1432 63.279 58.1038 64.1251 55.9766 64.1274V64.1274ZM55.9766 49.0806C54.5875 49.0806 53.2296 49.4925 52.0746 50.2642C50.9196 51.036 50.0193 52.1329 49.4878 53.4163C48.9562 54.6996 48.8171 56.1118 49.0881 57.4742C49.3591 58.8366 50.028 60.0881 51.0102 61.0703C51.9925 62.0526 53.2439 62.7215 54.6064 62.9925C55.9688 63.2635 57.381 63.1244 58.6643 62.5928C59.9477 62.0612 61.0446 61.161 61.8163 60.006C62.5881 58.851 63 57.4931 63 56.104C62.9978 54.2419 62.2572 52.4568 60.9405 51.1401C59.6238 49.8234 57.8386 49.0828 55.9766 49.0806V49.0806Z" fill="white"/>
<path d="M8.02344 40.165C6.43656 40.165 4.88531 39.6945 3.56586 38.8129C2.24641 37.9312 1.21803 36.6781 0.610752 35.212C0.00347644 33.746 -0.155414 32.1327 0.154172 30.5763C0.463758 29.0199 1.22792 27.5903 2.35001 26.4682C3.47211 25.3461 4.90175 24.5819 6.45815 24.2723C8.01454 23.9627 9.62779 24.1216 11.0939 24.7289C12.56 25.3362 13.8131 26.3646 14.6947 27.684C15.5763 29.0035 16.0469 30.5547 16.0469 32.1416C16.0445 34.2688 15.1985 36.3083 13.6943 37.8124C12.1901 39.3166 10.1507 40.1627 8.02344 40.165V40.165ZM8.02344 25.1182C6.63434 25.1182 5.27643 25.5301 4.12143 26.3018C2.96643 27.0736 2.06622 28.1705 1.53463 29.4539C1.00304 30.7372 0.863956 32.1494 1.13496 33.5118C1.40596 34.8742 2.07488 36.1257 3.05712 37.1079C4.03937 38.0902 5.29082 38.7591 6.65324 39.0301C8.01565 39.3011 9.42783 39.162 10.7112 38.6304C11.9946 38.0988 13.0915 37.1986 13.8632 36.0436C14.635 34.8886 15.0469 33.5307 15.0469 32.1416C15.0447 30.2795 14.3041 28.4944 12.9874 27.1777C11.6707 25.861 9.88551 25.1203 8.02344 25.1182V25.1182Z" fill="white"/>
<path d="M32 40.165C30.4131 40.165 28.8619 39.6945 27.5424 38.8129C26.223 37.9312 25.1946 36.6781 24.5873 35.212C23.98 33.746 23.8211 32.1327 24.1307 30.5763C24.4403 29.0199 25.2045 27.5903 26.3266 26.4682C27.4487 25.3461 28.8783 24.5819 30.4347 24.2723C31.9911 23.9627 33.6044 24.1216 35.0704 24.7289C36.5365 25.3362 37.7896 26.3646 38.6713 27.684C39.5529 29.0035 40.0234 30.5547 40.0234 32.1416C40.0211 34.2688 39.175 36.3083 37.6708 37.8124C36.1667 39.3166 34.1272 40.1627 32 40.165V40.165ZM32 25.1182C30.6109 25.1182 29.253 25.5301 28.098 26.3018C26.943 27.0736 26.0428 28.1705 25.5112 29.4539C24.9796 30.7372 24.8405 32.1494 25.1115 33.5118C25.3825 34.8742 26.0514 36.1257 27.0337 37.1079C28.0159 38.0902 29.2674 38.7591 30.6298 39.0301C31.9922 39.3011 33.4044 39.162 34.6878 38.6304C35.9711 38.0988 37.068 37.1986 37.8398 36.0436C38.6115 34.8886 39.0234 33.5307 39.0234 32.1416C39.0213 30.2795 38.2806 28.4944 36.9639 27.1777C35.6473 25.861 33.8621 25.1203 32 25.1182V25.1182Z" fill="white"/>
<path d="M55.9766 40.165C54.3897 40.165 52.8384 39.6945 51.519 38.8129C50.1995 37.9312 49.1712 36.6781 48.5639 35.212C47.9566 33.746 47.7977 32.1327 48.1073 30.5763C48.4169 29.0199 49.181 27.5903 50.3031 26.4682C51.4252 25.3461 52.8549 24.5819 54.4113 24.2723C55.9677 23.9627 57.5809 24.1216 59.047 24.7289C60.5131 25.3362 61.7662 26.3646 62.6478 27.684C63.5294 29.0035 64 30.5547 64 32.1416C63.9977 34.2688 63.1516 36.3083 61.6474 37.8124C60.1432 39.3166 58.1038 40.1627 55.9766 40.165V40.165ZM55.9766 25.1182C54.5875 25.1182 53.2296 25.5301 52.0746 26.3018C50.9196 27.0736 50.0193 28.1705 49.4878 29.4539C48.9562 30.7372 48.8171 32.1494 49.0881 33.5118C49.3591 34.8742 50.028 36.1257 51.0102 37.1079C51.9925 38.0902 53.2439 38.7591 54.6064 39.0301C55.9688 39.3011 57.381 39.162 58.6643 38.6304C59.9477 38.0988 61.0446 37.1986 61.8163 36.0436C62.5881 34.8886 63 33.5307 63 32.1416C62.9978 30.2795 62.2572 28.4944 60.9405 27.1777C59.6238 25.861 57.8386 25.1203 55.9766 25.1182V25.1182Z" fill="white"/>
<path d="M32 64.1416C30.4131 64.1416 28.8619 63.671 27.5424 62.7894C26.223 61.9078 25.1946 60.6547 24.5873 59.1886C23.98 57.7225 23.8211 56.1093 24.1307 54.5529C24.4403 52.9965 25.2045 51.5668 26.3266 50.4447C27.4487 49.3226 28.8783 48.5585 30.4347 48.2489C31.9911 47.9393 33.6044 48.0982 35.0704 48.7055C36.5365 49.3128 37.7896 50.3411 38.6713 51.6606C39.5529 52.98 40.0234 54.5313 40.0234 56.1182C40.0211 58.2454 39.175 60.2848 37.6708 61.789C36.1667 63.2932 34.1272 64.1393 32 64.1416V64.1416ZM32 49.0947C30.6109 49.0947 29.253 49.5066 28.098 50.2784C26.943 51.0501 26.0428 52.1471 25.5112 53.4304C24.9796 54.7138 24.8405 56.126 25.1115 57.4884C25.3825 58.8508 26.0514 60.1022 27.0337 61.0845C28.0159 62.0667 29.2674 62.7357 30.6298 63.0067C31.9922 63.2777 33.4044 63.1386 34.6878 62.607C35.9711 62.0754 37.068 61.1752 37.8398 60.0202C38.6115 58.8652 39.0234 57.5073 39.0234 56.1182C39.0213 54.2561 38.2806 52.4709 36.9639 51.1542C35.6473 49.8376 33.8621 49.0969 32 49.0947V49.0947Z" fill="white"/>
<path d="M32 16.1885C30.4131 16.1885 28.8619 15.7179 27.5424 14.8363C26.223 13.9547 25.1946 12.7016 24.5873 11.2355C23.98 9.76939 23.8211 8.15614 24.1307 6.59975C24.4403 5.04336 25.2045 3.61371 26.3266 2.49162C27.4487 1.36952 28.8783 0.60536 30.4347 0.295773C31.9911 -0.0138129 33.6044 0.145078 35.0704 0.752353C36.5365 1.35963 37.7896 2.38801 38.6713 3.70746C39.5529 5.02691 40.0234 6.57816 40.0234 8.16505C40.0211 10.2923 39.175 12.3317 37.6708 13.8359C36.1667 15.3401 34.1272 16.1861 32 16.1885V16.1885ZM32 1.14161C30.6109 1.14161 29.253 1.55352 28.098 2.32527C26.943 3.09701 26.0428 4.19393 25.5112 5.47729C24.9796 6.76066 24.8405 8.17284 25.1115 9.53525C25.3825 10.8977 26.0514 12.1491 27.0337 13.1314C28.0159 14.1136 29.2674 14.7825 30.6298 15.0535C31.9922 15.3245 33.4044 15.1854 34.6878 14.6539C35.9711 14.1223 37.068 13.2221 37.8398 12.0671C38.6115 10.9121 39.0234 9.55415 39.0234 8.16505C39.0213 6.30298 38.2806 4.5178 36.9639 3.20111C35.6473 1.88443 33.8621 1.14377 32 1.14161V1.14161Z" fill="white"/>
<path d="M8.52344 15.6885H7.52344V24.6182H8.52344V15.6885Z" fill="white"/>
<path d="M32.5 15.6885H31.5V24.6182H32.5V15.6885Z" fill="white"/>
<path d="M56.4766 15.6885H55.4766V24.6182H56.4766V15.6885Z" fill="white"/>
<path d="M8.52344 39.665H7.52344V48.5947H8.52344V39.665Z" fill="white"/>
<path d="M32.5 39.665H31.5V48.5947H32.5V39.665Z" fill="white"/>
<path d="M56.4766 39.665H55.4766V48.5947H56.4766V39.665Z" fill="white"/>
<path d="M48.4531 7.66504H39.5234V8.66504H48.4531V7.66504Z" fill="white"/>
<path d="M48.4531 31.6416H39.5234V32.6416H48.4531V31.6416Z" fill="white"/>
<path d="M48.4531 55.6182H39.5234V56.6182H48.4531V55.6182Z" fill="white"/>
<path d="M24.4766 7.66504H15.5469V8.66504H24.4766V7.66504Z" fill="white"/>
<path d="M24.4766 31.6416H15.5469V32.6416H24.4766V31.6416Z" fill="white"/>
<path d="M24.4766 55.6182H15.5469V56.6182H24.4766V55.6182Z" fill="white"/>
</g>
<defs>
<clipPath id="clip0_20_3366">
<rect width="64.0001" height="64.0001" fill="white" transform="translate(0 0.141602)"/>
</clipPath>
</defs>
</svg>
