<svg width="64" height="65" viewBox="0 0 64 65" fill="none" xmlns="http://www.w3.org/2000/svg">
<g clip-path="url(#clip0_20_3396)">
<path opacity="0.3" d="M47.071 60.5125V57.3835H30.71V60.5125H20V12.8755H13.625V60.5125H6.21899V63.6415H30.71H47.071H57.781V60.5125H47.071Z" fill="#231F20"/>
<path d="M63.4998 63.1416H0.499847V64.1416H63.4998V63.1416Z" fill="white"/>
<path d="M6.71899 63.6416H5.71899V0.141602H34.281V12.8756H33.281V1.1416H6.71899V63.6416Z" fill="white"/>
<path d="M29.2108 7.59473H10.7889V8.59473H29.2108V7.59473Z" fill="white"/>
<path d="M19.9998 17.1572H10.7889V18.1572H19.9998V17.1572Z" fill="white"/>
<path d="M19.9998 26.7197H10.7889V27.7197H19.9998V26.7197Z" fill="white"/>
<path d="M19.9998 36.2822H10.7889V37.2822H19.9998V36.2822Z" fill="white"/>
<path d="M19.9998 45.8447H10.7889V46.8447H19.9998V45.8447Z" fill="white"/>
<path d="M58.281 63.6415H57.281V13.3755H20.5V63.6415H19.5V12.3755H58.281V63.6415Z" fill="white"/>
<path d="M27.3973 22.4385H26.3973V27.5073H27.3973V22.4385Z" fill="white"/>
<path d="M33.3934 22.4385H32.3934V27.5073H33.3934V22.4385Z" fill="white"/>
<path d="M39.3905 22.4385H38.3905V27.5073H39.3905V22.4385Z" fill="white"/>
<path d="M45.3875 22.4385H44.3875V27.5073H45.3875V22.4385Z" fill="white"/>
<path d="M51.3836 22.4385H50.3836V27.5073H51.3836V22.4385Z" fill="white"/>
<path d="M27.3973 33.1616H26.3973V38.2305H27.3973V33.1616Z" fill="white"/>
<path d="M33.3934 33.1616H32.3934V38.2305H33.3934V33.1616Z" fill="white"/>
<path d="M39.3905 33.1616H38.3905V38.2305H39.3905V33.1616Z" fill="white"/>
<path d="M45.3875 33.1616H44.3875V38.2305H45.3875V33.1616Z" fill="white"/>
<path d="M51.3836 33.1616H50.3836V38.2305H51.3836V33.1616Z" fill="white"/>
<path d="M27.3973 43.8843H26.3973V48.9536H27.3973V43.8843Z" fill="white"/>
<path d="M33.3934 43.8843H32.3934V48.9536H33.3934V43.8843Z" fill="white"/>
<path d="M39.3905 43.8843H38.3905V48.9536H39.3905V43.8843Z" fill="white"/>
<path d="M45.3875 43.8843H44.3875V48.9536H45.3875V43.8843Z" fill="white"/>
<path d="M51.3836 43.8843H50.3836V48.9536H51.3836V43.8843Z" fill="white"/>
<path d="M47.571 63.6415H46.571V57.8835H31.21V63.6415H30.21V56.8835H47.571V63.6415Z" fill="white"/>
</g>
<defs>
<clipPath id="clip0_20_3396">
<rect width="64" height="64.0001" fill="white" transform="translate(0 0.141602)"/>
</clipPath>
</defs>
</svg>
