<svg width="64" height="64" viewBox="0 0 64 64" fill="none" xmlns="http://www.w3.org/2000/svg">
<g clip-path="url(#clip0_20_3201)">
<path opacity="0.15" d="M47.071 60.3709V57.2419H30.71V60.3709H20V12.7339H13.625V60.3709H6.21899V63.4999H30.71H47.071H57.781V60.3709H47.071Z" fill="#183A9E"/>
<path d="M63.4998 63H0.499847V64H63.4998V63Z" fill="#204ECF"/>
<path d="M6.71899 63.5H5.71899V0H34.281V12.734H33.281V1H6.71899V63.5Z" fill="#204ECF"/>
<path d="M29.2108 7.45312H10.7889V8.45312H29.2108V7.45312Z" fill="#204ECF"/>
<path d="M19.9998 17.0156H10.7889V18.0156H19.9998V17.0156Z" fill="#204ECF"/>
<path d="M19.9998 26.5781H10.7889V27.5781H19.9998V26.5781Z" fill="#204ECF"/>
<path d="M19.9998 36.1406H10.7889V37.1406H19.9998V36.1406Z" fill="#204ECF"/>
<path d="M19.9998 45.7031H10.7889V46.7031H19.9998V45.7031Z" fill="#204ECF"/>
<path d="M58.281 63.4999H57.281V13.2339H20.5V63.4999H19.5V12.2339H58.281V63.4999Z" fill="#204ECF"/>
<path d="M27.3973 22.2969H26.3973V27.3657H27.3973V22.2969Z" fill="#204ECF"/>
<path d="M33.3934 22.2969H32.3934V27.3657H33.3934V22.2969Z" fill="#204ECF"/>
<path d="M39.3905 22.2969H38.3905V27.3657H39.3905V22.2969Z" fill="#204ECF"/>
<path d="M45.3875 22.2969H44.3875V27.3657H45.3875V22.2969Z" fill="#204ECF"/>
<path d="M51.3836 22.2969H50.3836V27.3657H51.3836V22.2969Z" fill="#204ECF"/>
<path d="M27.3973 33.02H26.3973V38.0889H27.3973V33.02Z" fill="#204ECF"/>
<path d="M33.3934 33.02H32.3934V38.0889H33.3934V33.02Z" fill="#204ECF"/>
<path d="M39.3905 33.02H38.3905V38.0889H39.3905V33.02Z" fill="#204ECF"/>
<path d="M45.3875 33.02H44.3875V38.0889H45.3875V33.02Z" fill="#204ECF"/>
<path d="M51.3836 33.02H50.3836V38.0889H51.3836V33.02Z" fill="#204ECF"/>
<path d="M27.3973 43.7427H26.3973V48.812H27.3973V43.7427Z" fill="#204ECF"/>
<path d="M33.3934 43.7427H32.3934V48.812H33.3934V43.7427Z" fill="#204ECF"/>
<path d="M39.3905 43.7427H38.3905V48.812H39.3905V43.7427Z" fill="#204ECF"/>
<path d="M45.3875 43.7427H44.3875V48.812H45.3875V43.7427Z" fill="#204ECF"/>
<path d="M51.3836 43.7427H50.3836V48.812H51.3836V43.7427Z" fill="#204ECF"/>
<path d="M47.571 63.4999H46.571V57.7419H31.21V63.4999H30.21V56.7419H47.571V63.4999Z" fill="#204ECF"/>
</g>
<defs>
<clipPath id="clip0_20_3201">
<rect width="64" height="64.0001" fill="white"/>
</clipPath>
</defs>
</svg>
