<svg width="64" height="65" viewBox="0 0 64 65" fill="none" xmlns="http://www.w3.org/2000/svg">
<g clip-path="url(#clip0_20_3425)">
<path opacity="0.3" d="M53.814 48.1156H10.186V38.6636H29.01L32 41.4826L35.335 38.6636H53.814V48.1156Z" fill="#231F20"/>
<path opacity="0.3" d="M38.0813 48.1157H25.9188V55.1843H38.0813V48.1157Z" fill="#231F20"/>
<g opacity="0.15">
<path opacity="0.15" d="M32.0103 14.8726H31.9897C31.9928 14.9408 31.9999 15.008 31.9999 15.0769C31.9999 15.008 32.0072 14.9408 32.0103 14.8726Z" fill="white"/>
</g>
<path d="M32.5 43.5469H31.5C31.4987 42.3848 31.0364 41.2706 30.2147 40.4489C29.3929 39.6271 28.2788 39.1649 27.1167 39.1636H9.68604V10.0381H27.1167C28.1431 10.039 29.1478 10.333 30.0129 10.8853C30.8779 11.4377 31.5673 12.2256 32 13.1563C32.4325 12.2255 33.1218 11.4377 33.9868 10.8853C34.8517 10.3329 35.8565 10.039 36.8828 10.0381H54.314V39.1636H36.8828C35.7208 39.165 34.6067 39.6273 33.7851 40.449C32.9634 41.2707 32.5013 42.3848 32.5 43.5469V43.5469ZM10.686 38.1636H27.1167C28.1431 38.1645 29.1478 38.4585 30.0129 39.0108C30.8779 39.5632 31.5673 40.351 32 41.2817C32.4325 40.351 33.1218 39.5632 33.9868 39.0108C34.8518 38.4584 35.8565 38.1645 36.8828 38.1636H53.314V11.0381H36.8828C35.7208 11.0395 34.6067 11.5018 33.7851 12.3235C32.9634 13.1452 32.5012 14.2593 32.5 15.4214H31.5C31.4987 14.2593 31.0364 13.1451 30.2147 12.3234C29.393 11.5016 28.2788 11.0394 27.1167 11.0381H10.686L10.686 38.1636Z" fill="white"/>
<path d="M32.5 15.4214H31.5V43.5469H32.5V15.4214Z" fill="white"/>
<path d="M39.8135 29.4565V17.1543L48.8423 25.5112L39.8135 29.4565ZM40.8135 19.4424V27.9282L47.0415 25.2065L40.8135 19.4424Z" fill="white"/>
<path d="M44.5855 26.8252L43.6694 27.2256L46.127 32.8481L47.043 32.4478L44.5855 26.8252Z" fill="white"/>
<path d="M61.3277 48.6157H2.67238C1.96386 48.615 1.28458 48.3332 0.783577 47.8322C0.282575 47.3312 0.000772916 46.6519 0 45.9434L0 2.81396C0.000772916 2.10544 0.282575 1.42616 0.783577 0.925164C1.28458 0.424166 1.96386 0.142369 2.67238 0.141602L61.3277 0.141602C62.0362 0.14238 62.7154 0.424182 63.2164 0.925178C63.7174 1.42618 63.9992 2.10545 64 2.81396V45.9434C63.9992 46.6519 63.7174 47.3311 63.2164 47.8321C62.7154 48.3331 62.0362 48.6149 61.3277 48.6157V48.6157ZM2.67238 1.1416C2.22897 1.14203 1.80385 1.31836 1.49031 1.6319C1.17677 1.94543 1.00043 2.37055 1 2.81396V45.9434C1.00043 46.3868 1.17677 46.8119 1.4903 47.1254C1.80384 47.439 2.22896 47.6153 2.67236 47.6157H61.3277C61.7711 47.6153 62.1962 47.4389 62.5097 47.1254C62.8232 46.8119 62.9996 46.3868 63 45.9434V2.81396C62.9996 2.37056 62.8232 1.94544 62.5097 1.63191C62.1962 1.31838 61.7711 1.14204 61.3277 1.1416H2.67238Z" fill="white"/>
<path d="M38.5811 48.1157H37.5811V59.7427H38.5811V48.1157Z" fill="white"/>
<path d="M26.4189 48.1157H25.4189V59.7427H26.4189V48.1157Z" fill="white"/>
<path d="M47.6186 63.1416H16.3813V64.1416H47.6186V63.1416Z" fill="white"/>
</g>
<defs>
<clipPath id="clip0_20_3425">
<rect width="64" height="64.0001" fill="white" transform="translate(0 0.141602)"/>
</clipPath>
</defs>
</svg>
