<svg width="64" height="64" viewBox="0 0 64 64" fill="none" xmlns="http://www.w3.org/2000/svg">
<g clip-path="url(#clip0_20_3230)">
<path opacity="0.15" d="M53.814 47.974H10.186V38.522H29.01L32 41.341L35.335 38.522H53.814V47.974Z" fill="#183A9E"/>
<path opacity="0.15" d="M38.0813 47.9741H25.9188V55.0427H38.0813V47.9741Z" fill="#183A9E"/>
<g opacity="0.15">
<path opacity="0.15" d="M32.0103 14.731H31.9897C31.9928 14.7992 31.9999 14.8664 31.9999 14.9353C31.9999 14.8664 32.0072 14.7992 32.0103 14.731Z" fill="#204ECF"/>
</g>
<path d="M32.5 43.4053H31.5C31.4987 42.2432 31.0364 41.129 30.2147 40.3073C29.3929 39.4855 28.2788 39.0233 27.1167 39.022H9.68604V9.89648H27.1167C28.1431 9.89744 29.1478 10.1914 30.0129 10.7437C30.8779 11.2961 31.5673 12.084 32 13.0147C32.4325 12.0839 33.1218 11.2961 33.9868 10.7437C34.8517 10.1913 35.8565 9.89738 36.8828 9.89648H54.314V39.022H36.8828C35.7208 39.0234 34.6067 39.4857 33.7851 40.3074C32.9634 41.1291 32.5013 42.2432 32.5 43.4053V43.4053ZM10.686 38.022H27.1167C28.1431 38.0229 29.1478 38.3169 30.0129 38.8692C30.8779 39.4216 31.5673 40.2094 32 41.1401C32.4325 40.2094 33.1218 39.4216 33.9868 38.8692C34.8518 38.3168 35.8565 38.0229 36.8828 38.022H53.314V10.8965H36.8828C35.7208 10.8979 34.6067 11.3602 33.7851 12.1819C32.9634 13.0036 32.5012 14.1177 32.5 15.2798H31.5C31.4987 14.1177 31.0364 13.0035 30.2147 12.1818C29.393 11.36 28.2788 10.8978 27.1167 10.8965H10.686L10.686 38.022Z" fill="#204ECF"/>
<path d="M32.5 15.2798H31.5V43.4053H32.5V15.2798Z" fill="#204ECF"/>
<path d="M39.8135 29.3149V17.0127L48.8423 25.3696L39.8135 29.3149ZM40.8135 19.3008V27.7866L47.0415 25.0649L40.8135 19.3008Z" fill="#204ECF"/>
<path d="M44.5855 26.6836L43.6694 27.084L46.127 32.7065L47.043 32.3062L44.5855 26.6836Z" fill="#204ECF"/>
<path d="M61.3277 48.4741H2.67238C1.96386 48.4734 1.28458 48.1916 0.783577 47.6906C0.282575 47.1896 0.000772916 46.5103 0 45.8018L0 2.67236C0.000772916 1.96384 0.282575 1.28456 0.783577 0.783563C1.28458 0.282565 1.96386 0.000767614 2.67238 0L61.3277 0C62.0362 0.0007782 62.7154 0.28258 63.2164 0.783577C63.7174 1.28457 63.9992 1.96385 64 2.67236V45.8018C63.9992 46.5103 63.7174 47.1895 63.2164 47.6905C62.7154 48.1915 62.0362 48.4733 61.3277 48.4741V48.4741ZM2.67238 1C2.22897 1.00043 1.80385 1.17676 1.49031 1.4903C1.17677 1.80383 1.00043 2.22895 1 2.67236V45.8018C1.00043 46.2452 1.17677 46.6703 1.4903 46.9838C1.80384 47.2974 2.22896 47.4737 2.67236 47.4741H61.3277C61.7711 47.4737 62.1962 47.2973 62.5097 46.9838C62.8232 46.6703 62.9996 46.2452 63 45.8018V2.67236C62.9996 2.22896 62.8232 1.80384 62.5097 1.49031C62.1962 1.17678 61.7711 1.00044 61.3277 1H2.67238Z" fill="#204ECF"/>
<path d="M38.5811 47.9741H37.5811V59.6011H38.5811V47.9741Z" fill="#204ECF"/>
<path d="M26.4189 47.9741H25.4189V59.6011H26.4189V47.9741Z" fill="#204ECF"/>
<path d="M47.6186 63H16.3813V64H47.6186V63Z" fill="#204ECF"/>
</g>
<defs>
<clipPath id="clip0_20_3230">
<rect width="64" height="64.0001" fill="white"/>
</clipPath>
</defs>
</svg>
