<svg width="64" height="64" viewBox="0 0 64 64" fill="none" xmlns="http://www.w3.org/2000/svg">
<g clip-path="url(#clip0_20_3246)">
<path opacity="0.15" d="M21.297 21.2512H8.94061V27.4294H21.297V21.2512Z" fill="#183A9E"/>
<path opacity="0.15" d="M55.0594 21.2512H42.703V27.4294H55.0594V21.2512Z" fill="#183A9E"/>
<path opacity="0.15" d="M63.5 51.8909H51.1436V58.069H63.5V51.8909Z" fill="#183A9E"/>
<path opacity="0.15" d="M46.6188 51.8909H34.2625V58.069H46.6188V51.8909Z" fill="#183A9E"/>
<path opacity="0.15" d="M29.7376 51.8909H17.3812V58.069H29.7376V51.8909Z" fill="#183A9E"/>
<path opacity="0.15" d="M12.8563 51.8909H0.5V58.069H12.8563V51.8909Z" fill="#183A9E"/>
<path d="M21.7969 27.9292H8.44043V14.5732H21.7969V27.9292ZM9.44043 26.9292H20.7969V15.5732H9.44043V26.9292Z" fill="#204ECF"/>
<path d="M55.5596 27.9292H42.2031V14.5732H55.5596V27.9292ZM43.2031 26.9292H54.5596V15.5732H43.2031V26.9292Z" fill="#204ECF"/>
<path d="M13.3565 58.5689H0V45.2124H13.3565V58.5689ZM1 57.5689H12.3565V46.2124H1V57.5689Z" fill="#204ECF"/>
<path d="M30.2378 58.5689H16.8813V45.2124H30.2378V58.5689ZM17.8813 57.5689H29.2378V46.2124H17.8813V57.5689Z" fill="#204ECF"/>
<path d="M47.1186 58.5689H33.7622V45.2124H47.1186V58.5689ZM34.7622 57.5689H46.1186V46.2124H34.7622V57.5689Z" fill="#204ECF"/>
<path d="M64 58.5689H50.6436V45.2124H64V58.5689ZM51.6436 57.5689H63V46.2124H51.6436V57.5689Z" fill="#204ECF"/>
<path d="M49.381 15.0729H48.381V6.43091H15.619V15.0729H14.619V5.43091H49.381V15.0729Z" fill="#204ECF"/>
<path d="M24.06 45.712H23.06V37.071H7.17798V45.712H6.17798V36.071H24.06V45.712Z" fill="#204ECF"/>
<path d="M57.822 45.712H56.822V37.071H40.94V45.712H39.94V36.071H57.822V45.712Z" fill="#204ECF"/>
<path d="M49.3813 27.4292H48.3813V36.5708H49.3813V27.4292Z" fill="#204ECF"/>
<path d="M15.6187 27.4292H14.6187V36.5708H15.6187V27.4292Z" fill="#204ECF"/>
</g>
<defs>
<clipPath id="clip0_20_3246">
<rect width="64" height="64" fill="white"/>
</clipPath>
</defs>
</svg>
