<svg width="64" height="65" viewBox="0 0 64 65" fill="none" xmlns="http://www.w3.org/2000/svg">
<g clip-path="url(#clip0_20_3441)">
<path opacity="0.3" d="M21.297 21.3928H8.94061V27.571H21.297V21.3928Z" fill="#231F20"/>
<path opacity="0.3" d="M55.0594 21.3928H42.703V27.571H55.0594V21.3928Z" fill="#231F20"/>
<path opacity="0.3" d="M63.5 52.0325H51.1436V58.2106H63.5V52.0325Z" fill="#231F20"/>
<path opacity="0.3" d="M46.6188 52.0325H34.2625V58.2106H46.6188V52.0325Z" fill="#231F20"/>
<path opacity="0.3" d="M29.7376 52.0325H17.3812V58.2106H29.7376V52.0325Z" fill="#231F20"/>
<path opacity="0.3" d="M12.8563 52.0325H0.5V58.2106H12.8563V52.0325Z" fill="#231F20"/>
<path d="M21.7969 28.0708H8.44043V14.7148H21.7969V28.0708ZM9.44043 27.0708H20.7969V15.7148H9.44043V27.0708Z" fill="white"/>
<path d="M55.5596 28.0708H42.2031V14.7148H55.5596V28.0708ZM43.2031 27.0708H54.5596V15.7148H43.2031V27.0708Z" fill="white"/>
<path d="M13.3565 58.7105H0V45.354H13.3565V58.7105ZM1 57.7105H12.3565V46.354H1V57.7105Z" fill="white"/>
<path d="M30.2378 58.7105H16.8813V45.354H30.2378V58.7105ZM17.8813 57.7105H29.2378V46.354H17.8813V57.7105Z" fill="white"/>
<path d="M47.1186 58.7105H33.7622V45.354H47.1186V58.7105ZM34.7622 57.7105H46.1186V46.354H34.7622V57.7105Z" fill="white"/>
<path d="M64 58.7105H50.6436V45.354H64V58.7105ZM51.6436 57.7105H63V46.354H51.6436V57.7105Z" fill="white"/>
<path d="M49.381 15.2145H48.381V6.57251H15.619V15.2145H14.619V5.57251H49.381V15.2145Z" fill="white"/>
<path d="M24.06 45.8536H23.06V37.2126H7.17798V45.8536H6.17798V36.2126H24.06V45.8536Z" fill="white"/>
<path d="M57.822 45.8536H56.822V37.2126H40.94V45.8536H39.94V36.2126H57.822V45.8536Z" fill="white"/>
<path d="M49.3813 27.5708H48.3813V36.7124H49.3813V27.5708Z" fill="white"/>
<path d="M15.6187 27.5708H14.6187V36.7124H15.6187V27.5708Z" fill="white"/>
</g>
<defs>
<clipPath id="clip0_20_3441">
<rect width="64" height="64" fill="white" transform="translate(0 0.141602)"/>
</clipPath>
</defs>
</svg>
