<svg width="64" height="65" viewBox="0 0 64 65" fill="none" xmlns="http://www.w3.org/2000/svg">
<g clip-path="url(#clip0_20_3462)">
<path opacity="0.3" d="M54.9116 56.6084H9.0882V63.7803H54.9116V56.6084Z" fill="#231F20"/>
<path opacity="0.3" d="M22.427 0.780518V8.80552H54.912L22.427 0.780518Z" fill="#231F20"/>
<path d="M55.4116 64.2803H8.58832V8.30566H21.9267V0.141602L55.4116 8.41406V64.2803ZM9.58832 63.2803H54.4116V9.19726L22.9267 1.41894V9.30566H9.58832V63.2803Z" fill="white"/>
<path d="M31.9999 45.1582C29.1006 45.1582 26.2664 44.2985 23.8557 42.6877C21.445 41.0769 19.5661 38.7875 18.4566 36.1089C17.3471 33.4302 17.0567 30.4828 17.6224 27.6392C18.188 24.7956 19.5842 22.1835 21.6343 20.1334C23.6844 18.0833 26.2964 16.6871 29.14 16.1215C31.9836 15.5559 34.9311 15.8462 37.6097 16.9557C40.2883 18.0652 42.5778 19.9441 44.1885 22.3548C45.7993 24.7655 46.6591 27.5997 46.6591 30.499C46.6546 34.3855 45.1088 38.1116 42.3606 40.8598C39.6124 43.6079 35.8864 45.1538 31.9999 45.1582V45.1582ZM31.9999 16.8399C29.2984 16.8399 26.6575 17.6409 24.4113 19.1418C22.165 20.6427 20.4143 22.776 19.3804 25.2719C18.3466 27.7678 18.0761 30.5142 18.6032 33.1638C19.1302 35.8134 20.4311 38.2473 22.3414 40.1575C24.2517 42.0678 26.6855 43.3687 29.3351 43.8958C31.9847 44.4228 34.7311 44.1523 37.227 43.1185C39.7229 42.0846 41.8562 40.3339 43.3571 38.0877C44.858 35.8414 45.6591 33.2006 45.6591 30.499C45.655 26.8776 44.2146 23.4057 41.6539 20.845C39.0932 18.2843 35.6213 16.8439 31.9999 16.8399Z" fill="white"/>
<path d="M31.9999 45.1582C27.5038 45.1582 23.8461 38.582 23.8461 30.499C23.8461 22.416 27.5038 15.8398 31.9999 15.8398C36.496 15.8398 40.1537 22.416 40.1537 30.499C40.1537 38.582 36.496 45.1582 31.9999 45.1582ZM31.9999 16.8398C28.0551 16.8398 24.8461 22.9673 24.8461 30.499C24.8461 38.0308 28.0551 44.1582 31.9999 44.1582C35.9447 44.1582 39.1537 38.0308 39.1537 30.499C39.1537 22.9673 35.9447 16.8398 31.9999 16.8398Z" fill="white"/>
<path d="M32.4999 16.3398H31.4999V44.6582H32.4999V16.3398Z" fill="white"/>
<path d="M46.1591 29.999H17.8408V30.999H46.1591V29.999Z" fill="white"/>
<path d="M39.6537 52.874H24.3461V53.874H39.6537V52.874Z" fill="white"/>
<path d="M54.9116 8.30566H22.4267V9.30566H54.9116V8.30566Z" fill="white"/>
</g>
<defs>
<clipPath id="clip0_20_3462">
<rect width="64" height="64.1387" fill="white" transform="translate(0 0.141602)"/>
</clipPath>
</defs>
</svg>
