<svg width="64" height="65" viewBox="0 0 64 64" fill="none" xmlns="http://www.w3.org/2000/svg">
<g clip-path="url(#clip0_20_3267)">
<path opacity="0.15" d="M54.9116 56.4668H9.0882V63.6387H54.9116V56.4668Z" fill="#183A9E"/>
<path opacity="0.15" d="M22.427 0.638916V8.66392H54.912L22.427 0.638916Z" fill="#183A9E"/>
<path d="M55.4116 64.1387H8.58832V8.16406H21.9267V0L55.4116 8.27246V64.1387ZM9.58832 63.1387H54.4116V9.05566L22.9267 1.27734V9.16406H9.58832V63.1387Z" fill="#204ECF"/>
<path d="M31.9999 45.0166C29.1006 45.0166 26.2664 44.1569 23.8557 42.5461C21.445 40.9353 19.5661 38.6459 18.4566 35.9673C17.3471 33.2886 17.0567 30.3412 17.6224 27.4976C18.188 24.654 19.5842 22.0419 21.6343 19.9918C23.6844 17.9417 26.2964 16.5455 29.14 15.9799C31.9836 15.4143 34.9311 15.7046 37.6097 16.8141C40.2883 17.9236 42.5778 19.8025 44.1885 22.2132C45.7993 24.6239 46.6591 27.4581 46.6591 30.3574C46.6546 34.2439 45.1088 37.97 42.3606 40.7181C39.6124 43.4663 35.8864 45.0122 31.9999 45.0166V45.0166ZM31.9999 16.6982C29.2984 16.6982 26.6575 17.4993 24.4113 19.0002C22.165 20.5011 20.4143 22.6344 19.3804 25.1303C18.3466 27.6262 18.0761 30.3726 18.6032 33.0222C19.1302 35.6718 20.4311 38.1057 22.3414 40.0159C24.2517 41.9262 26.6855 43.2271 29.3351 43.7542C31.9847 44.2812 34.7311 44.0107 37.227 42.9769C39.7229 41.943 41.8562 40.1923 43.3571 37.9461C44.858 35.6998 45.6591 33.059 45.6591 30.3574C45.655 26.736 44.2146 23.2641 41.6539 20.7034C39.0932 18.1427 35.6213 16.7023 31.9999 16.6982Z" fill="#204ECF"/>
<path d="M31.9999 45.0166C27.5038 45.0166 23.8461 38.4404 23.8461 30.3574C23.8461 22.2744 27.5038 15.6982 31.9999 15.6982C36.496 15.6982 40.1537 22.2744 40.1537 30.3574C40.1537 38.4404 36.496 45.0166 31.9999 45.0166ZM31.9999 16.6982C28.0551 16.6982 24.8461 22.8257 24.8461 30.3574C24.8461 37.8892 28.0551 44.0166 31.9999 44.0166C35.9447 44.0166 39.1537 37.8892 39.1537 30.3574C39.1537 22.8257 35.9447 16.6982 31.9999 16.6982Z" fill="#204ECF"/>
<path d="M32.4999 16.1982H31.4999V44.5166H32.4999V16.1982Z" fill="#204ECF"/>
<path d="M46.1591 29.8574H17.8408V30.8574H46.1591V29.8574Z" fill="#204ECF"/>
<path d="M39.6537 52.7324H24.3461V53.7324H39.6537V52.7324Z" fill="#204ECF"/>
<path d="M54.9116 8.16406H22.4267V9.16406H54.9116V8.16406Z" fill="#204ECF"/>
</g>
<defs>
<clipPath id="clip0_20_3267">
<rect width="64" height="64.1387" fill="white"/>
</clipPath>
</defs>
</svg>
