<svg width="64" height="64" viewBox="0 0 64 64" fill="none" xmlns="http://www.w3.org/2000/svg">
<g clip-path="url(#clip0_796_941)">
<g opacity="0.3">
<path d="M63.4 44.8L61.8 43L41.3 59H0V63L42.5 63.5L63.4 44.8Z" fill="black"/>
</g>
<path d="M42.7 64H0V63H42.3L62.7 44.7C62 43.6 60.9 42.9 59.6 42.5C58.2 42.1 56.7 42.4 55.5 43.1L39.6 53L29.8 51C28.1 50.7 26.9 49.2 26.9 47.4C26.9 45.5 28.3 44 30.2 43.8L34.2 43.4C37.6 43.1 40.2 40.3 40.4 37H25.7C19 37 13 40.7 10 46.7L9.8 47H0V46H9.2C12.4 39.8 18.7 36 25.7 36H41.4V36.5C41.4 40.6 38.3 44 34.2 44.4L30.2 44.8C28.8 44.9 27.8 46.1 27.8 47.4C27.8 48.6 28.7 49.7 29.9 50L39.3 51.9L54.9 42.2C56.4 41.3 58.1 41 59.8 41.4C61.5 41.8 62.9 42.9 63.7 44.4L63.9 44.7L42.7 64Z" fill="white"/>
<g opacity="0.3">
<path d="M41 19.8C40.7 19 40.2 18.3 39.7 17.6C39.1 17 38.4 16.4 37.5 15.9C36.6 15.4 35.6 15.1 34.5 14.9L31 14.2C30.1 14 29.4 13.7 29 13.1C28.5 12.6 28.3 12 28.3 11.3C28.3 10.9 28.4 10.5 28.6 10.1C28.8 9.7 29.1 9.4 29.4 9.1C29.7 8.8 30.2 8.6 30.6 8.4C31.1 8.2 31.6 8.1 32.2 8.1C33 8.1 33.7 8.2 34.2 8.5C34.7 8.8 35.2 9 35.6 9.4C35.9 9.8 36.2 10.1 36.4 10.6C36.6 11 36.7 11.4 36.8 11.8L41.2 10.4C41.1 9.7 40.8 8.9 40.4 8.2C40 7.4 39.4 6.7 38.7 6C38 5.4 37.1 4.9 36 4.5C35.5 4.3 35 4.2 34.5 4.1V0.5H30.5V4C29.9 4.1 29.4 4.3 28.8 4.5C27.7 4.9 26.8 5.5 26 6.2C25.2 6.9 24.6 7.8 24.1 8.7C23.6 9.6 23.4 10.7 23.4 11.8C23.4 13.7 24 15.3 25.2 16.6C26.4 17.9 28 18.6 30 19L33.5 19.7C34.5 19.9 35.2 20.2 35.8 20.8C36.3 21.3 36.6 22 36.6 22.7C36.6 23.6 36.3 24.3 35.6 24.9C34.9 25.5 33.9 25.8 32.6 25.8C31.7 25.8 30.9 25.7 30.3 25.4C29.7 25.1 29.1 24.8 28.6 24.4C28.1 24 27.8 23.5 27.6 22.9C27.4 22.3 27.2 21.7 27.2 21.1L22.7 22.3C22.8 23.2 23.1 24.1 23.5 25.1C23.9 26 24.5 26.9 25.4 27.6C26.3 28.3 27.2 29 28.4 29.5C29.1 29.8 29.9 30 30.8 30.1V33.6H34.8V30C35.5 29.9 36.1 29.7 36.6 29.5C37.7 29 38.7 28.5 39.4 27.7C40.2 27 40.7 26.1 41.2 25.2C41.7 24.3 41.8 23.3 41.8 22.3C41.5 21.5 41.4 20.6 41 19.8Z" fill="black"/>
</g>
<path d="M35 34H30V30.5C29.2 30.4 28.6 30.2 28 29.9C26.8 29.4 25.7 28.7 24.8 27.9C23.9 27.1 23.3 26.2 22.8 25.2C22.4 24.2 22.1 23.2 22 22.3V21.9L27.5 20.4V21C27.5 21.6 27.7 22.1 27.9 22.6C28.1 23.1 28.4 23.6 28.8 24C29.2 24.4 29.7 24.7 30.3 24.9C30.9 25.1 31.6 25.3 32.4 25.3C33.6 25.3 34.5 25.1 35.1 24.5C35.7 24 36 23.4 36 22.6C36 22 35.8 21.5 35.4 21C35 20.5 34.3 20.2 33.4 20.1L29.9 19.4C27.8 19 26.1 18.1 24.9 16.8C23.6 15.5 23 13.7 23 11.7C23 10.5 23.2 9.4 23.7 8.4C24.2 7.4 24.9 6.5 25.7 5.7C26.5 5 27.5 4.4 28.6 4C29 3.8 29.5 3.7 30 3.6V0H35V3.6C35.5 3.7 35.8 3.8 36.2 4C37.3 4.4 38.3 5 39 5.7C39.7 6.4 40.3 7.1 40.8 8C41.2 8.8 41.5 9.6 41.6 10.3L41.7 10.7L36.4 12.3L36.3 11.8C36.2 11.5 36.1 11.1 36 10.7C35.8 10.3 35.6 10 35.3 9.7C34.9 9.5 34.5 9.2 34 9C33.5 8.8 32.9 8.7 32.2 8.7C31.7 8.7 31.2 8.8 30.8 8.9C30.4 9 30 9.3 29.7 9.5C29.4 9.7 29.2 10 29 10.4C28.8 10.7 28.8 11 28.8 11.4C28.8 12 29 12.5 29.3 12.9C29.7 13.3 30.3 13.6 31.1 13.8L34.6 14.5C35.8 14.7 36.8 15.1 37.8 15.6C38.7 16.1 39.5 16.7 40.1 17.4C40.7 18.1 41.2 18.9 41.5 19.8C41.8 20.7 42 21.6 42 22.5C42 23.5 41.8 24.6 41.4 25.6C41 26.6 40.4 27.5 39.5 28.3C38.7 29.1 37.7 29.7 36.5 30.2C36 30.4 35.5 30.5 35 30.7V34ZM31 33H34V29.6L34.4 29.5C35 29.4 35.6 29.2 36.1 29C37.2 28.6 38.1 28 38.8 27.3C39.5 26.6 40.1 25.8 40.4 25C40.8 24.1 41 23.2 41 22.3C41 21.5 40.9 20.7 40.6 19.9C40.3 19.1 39.9 18.5 39.4 17.9C38.9 17.3 38.2 16.8 37.3 16.3C36.5 15.9 35.5 15.5 34.4 15.3L30.9 14.6C29.9 14.4 29.1 14 28.6 13.4C28.1 12.8 27.8 12.1 27.8 11.3C27.8 10.8 27.9 10.3 28.1 9.9C28.3 9.5 28.6 9.1 29 8.7C29.4 8.3 29.9 8.1 30.4 7.9C30.9 7.7 31.5 7.6 32.2 7.6C33.1 7.6 33.8 7.7 34.4 8C35 8.3 35.5 8.6 35.9 9C36.3 9.4 36.6 9.8 36.8 10.3C36.9 10.5 37 10.8 37.1 11L40.5 9.9C40.4 9.4 40.1 8.8 39.8 8.2C39.4 7.5 38.9 6.8 38.3 6.2C37.7 5.6 36.8 5.1 35.8 4.7C35.4 4.5 34.9 4.4 34.3 4.3L34 4.5V1H31V4.4L30.6 4.5C30 4.6 29.5 4.7 29 4.9C28 5.3 27.1 5.8 26.4 6.5C25.6 7.2 25.1 8 24.6 8.9C24.2 9.8 24 10.8 24 11.8C24 13.6 24.5 15 25.6 16.2C26.7 17.4 28.2 18.2 30.1 18.5L33.6 19.2C34.7 19.4 35.5 19.8 36.1 20.4C36.7 21 37 21.8 37 22.6C37 23.6 36.6 24.5 35.8 25.2C35 25.9 33.9 26.2 32.5 26.2C31.5 26.2 30.7 26.1 30 25.8C29.3 25.5 28.7 25.1 28.2 24.6C27.7 24.1 27.3 23.6 27.1 22.9C26.9 22.5 26.8 22 26.7 21.5L23.2 22.5C23.3 23.2 23.5 24 23.9 24.7C24.3 25.6 24.9 26.4 25.6 27.1C26.4 27.8 27.3 28.4 28.5 28.9C29.1 29.2 29.9 29.3 30.7 29.5L31.1 29.6L31 33Z" fill="white"/>
</g>
<defs>
<clipPath id="clip0_796_941">
<rect width="64" height="64" fill="white"/>
</clipPath>
</defs>
</svg>
