<svg width="64" height="64" viewBox="0 0 64 64" fill="none" xmlns="http://www.w3.org/2000/svg">
<g clip-path="url(#clip0_796_942)">
<g opacity="0.15">
<path d="M63.38 44.7502L61.75 42.9702L41.26 59.0002H0V63.0002L42.5 63.5002L63.38 44.7502Z" fill="#183A9D"/>
</g>
<path d="M42.69 63.9998H0V62.9998H42.3L62.72 44.6598C61.99 43.5698 60.9 42.8098 59.61 42.4798C58.19 42.1198 56.73 42.3498 55.49 43.1198L39.58 53.0298L29.77 51.0098C28.09 50.6598 26.87 49.1598 26.87 47.4498C26.87 45.5698 28.28 44.0098 30.15 43.8298L34.11 43.4298C37.51 43.0898 40.12 40.3698 40.36 37.0098H25.69C18.99 37.0098 12.96 40.7398 9.96 46.7298L9.82 47.0098H0V46.0098H9.19C12.4 39.8298 18.69 36.0098 25.67 36.0098H41.36V36.5098C41.36 40.6198 38.28 44.0198 34.19 44.4298L30.23 44.8298C28.88 44.9698 27.85 46.0898 27.85 47.4598C27.85 48.7098 28.74 49.7898 29.96 50.0498L39.38 51.9898L54.95 42.2898C56.42 41.3698 58.16 41.0998 59.84 41.5298C61.52 41.9498 62.92 43.0198 63.78 44.5198L63.98 44.8698L42.67 64.0198L42.69 63.9998Z" fill="#204ECD"/>
<g opacity="0.15">
<path d="M41.04 19.83C40.73 19.02 40.29 18.29 39.7 17.64C39.11 16.99 38.38 16.42 37.51 15.95C36.64 15.47 35.64 15.13 34.51 14.92L31.01 14.24C30.09 14.05 29.41 13.7 28.96 13.19C28.51 12.68 28.29 12.08 28.29 11.39C28.29 10.96 28.38 10.56 28.57 10.18C28.76 9.8 29.02 9.46 29.36 9.16C29.7 8.86 30.11 8.63 30.6 8.45C31.08 8.27 31.62 8.18 32.21 8.18C33.01 8.18 33.69 8.3 34.24 8.54C34.79 8.78 35.25 9.07 35.6 9.43C35.95 9.79 36.22 10.17 36.39 10.59C36.57 11.01 36.69 11.39 36.76 11.75L41.14 10.4C41 9.69 40.73 8.94 40.35 8.17C39.96 7.4 39.41 6.69 38.71 6.05C38 5.41 37.11 4.88 36.04 4.46C35.57 4.28 35.05 4.14 34.5 4.04V0.5H30.5V3.97C29.93 4.07 29.37 4.22 28.82 4.43C27.76 4.83 26.83 5.39 26.03 6.11C25.23 6.82 24.6 7.66 24.14 8.62C23.68 9.58 23.45 10.62 23.45 11.74C23.45 13.67 24.04 15.25 25.23 16.5C26.42 17.75 28.01 18.57 30.02 18.98L33.52 19.69C34.51 19.88 35.26 20.24 35.78 20.78C36.3 21.31 36.56 21.95 36.56 22.69C36.56 23.59 36.21 24.34 35.52 24.92C34.83 25.5 33.82 25.79 32.5 25.79C31.6 25.79 30.83 25.66 30.17 25.4C29.51 25.14 28.96 24.79 28.51 24.35C28.06 23.91 27.72 23.41 27.47 22.83C27.22 22.26 27.08 21.67 27.03 21.05L22.51 22.26C22.6 23.16 22.86 24.08 23.29 25.02C23.71 25.96 24.33 26.81 25.14 27.57C25.95 28.33 26.96 28.95 28.16 29.44C28.86 29.72 29.65 29.91 30.51 30.03V33.49H34.51V30C35.16 29.89 35.77 29.72 36.34 29.49C37.46 29.04 38.4 28.45 39.17 27.73C39.93 27.01 40.52 26.17 40.92 25.23C41.32 24.29 41.52 23.34 41.52 22.36C41.52 21.48 41.37 20.64 41.06 19.83H41.04Z" fill="#183A9D"/>
</g>
<path d="M35 34H30V30.46C29.24 30.33 28.57 30.15 27.96 29.9C26.71 29.39 25.64 28.73 24.79 27.93C23.93 27.13 23.27 26.22 22.82 25.22C22.38 24.23 22.1 23.25 22 22.3L21.96 21.88L27.47 20.4L27.52 21C27.56 21.56 27.7 22.11 27.92 22.62C28.14 23.13 28.45 23.58 28.85 23.98C29.25 24.37 29.75 24.69 30.34 24.92C30.94 25.16 31.66 25.28 32.49 25.28C33.68 25.28 34.59 25.03 35.19 24.52C35.77 24.03 36.05 23.43 36.05 22.67C36.05 22.06 35.84 21.55 35.41 21.11C34.97 20.65 34.3 20.34 33.41 20.17L29.91 19.46C27.82 19.04 26.12 18.15 24.86 16.84C23.59 15.5 22.94 13.78 22.94 11.74C22.94 10.55 23.19 9.43 23.68 8.41C24.17 7.39 24.84 6.49 25.69 5.74C26.53 4.99 27.52 4.39 28.63 3.97C29.07 3.8 29.52 3.67 29.99 3.57V0H34.99V3.62C35.44 3.72 35.84 3.84 36.21 3.98C37.33 4.42 38.28 4.98 39.03 5.66C39.78 6.34 40.37 7.1 40.78 7.93C41.19 8.74 41.47 9.53 41.62 10.28L41.71 10.72L36.37 12.37L36.26 11.83C36.2 11.51 36.08 11.15 35.92 10.77C35.77 10.41 35.54 10.08 35.23 9.77C34.92 9.46 34.52 9.2 34.03 8.99C33.54 8.78 32.92 8.67 32.2 8.67C31.67 8.67 31.19 8.75 30.77 8.91C30.35 9.07 29.98 9.28 29.69 9.53C29.4 9.78 29.17 10.07 29.02 10.39C28.86 10.7 28.79 11.03 28.79 11.38C28.79 11.95 28.97 12.43 29.34 12.85C29.71 13.27 30.31 13.57 31.11 13.74L34.6 14.42C35.77 14.64 36.83 15.01 37.75 15.5C38.67 16 39.45 16.61 40.07 17.3C40.7 18 41.18 18.79 41.51 19.65C41.84 20.51 42 21.42 42 22.36C42 23.4 41.78 24.43 41.36 25.43C40.93 26.43 40.31 27.32 39.5 28.09C38.69 28.85 37.69 29.48 36.52 29.96C36.05 30.15 35.54 30.3 35.01 30.42V34H35ZM31 33H34V29.58L34.41 29.51C35.03 29.4 35.61 29.24 36.13 29.03C37.19 28.6 38.08 28.04 38.8 27.37C39.51 26.7 40.06 25.91 40.43 25.04C40.8 24.17 40.99 23.27 40.99 22.37C40.99 21.56 40.85 20.76 40.56 20.02C40.28 19.27 39.86 18.59 39.31 17.98C38.76 17.37 38.07 16.84 37.25 16.39C36.43 15.94 35.47 15.61 34.39 15.41L30.89 14.73C29.86 14.52 29.08 14.11 28.56 13.52C28.03 12.92 27.77 12.2 27.77 11.39C27.77 10.89 27.88 10.4 28.1 9.96C28.32 9.52 28.62 9.13 29.01 8.79C29.4 8.45 29.87 8.18 30.4 7.99C30.93 7.79 31.53 7.69 32.18 7.69C33.04 7.69 33.79 7.82 34.41 8.09C35.02 8.35 35.53 8.69 35.93 9.09C36.33 9.49 36.63 9.93 36.83 10.4C36.94 10.65 37.02 10.89 37.09 11.12L40.52 10.06C40.38 9.53 40.16 8.97 39.87 8.4C39.51 7.69 39 7.02 38.34 6.42C37.68 5.82 36.84 5.32 35.83 4.93C35.41 4.77 34.94 4.64 34.38 4.54L33.97 4.46V1H30.97V4.39L30.56 4.46C30.01 4.56 29.48 4.7 28.97 4.9C27.97 5.28 27.09 5.81 26.33 6.48C25.58 7.15 24.99 7.94 24.56 8.84C24.14 9.73 23.92 10.71 23.92 11.74C23.92 13.55 24.46 14.99 25.57 16.16C26.68 17.33 28.2 18.11 30.09 18.49L33.59 19.2C34.67 19.41 35.52 19.82 36.11 20.43C36.72 21.06 37.03 21.82 37.03 22.68C37.03 23.73 36.62 24.61 35.81 25.29C35.03 25.95 33.9 26.28 32.47 26.28C31.51 26.28 30.67 26.14 29.95 25.85C29.23 25.56 28.61 25.17 28.12 24.69C27.63 24.21 27.24 23.65 26.97 23.02C26.78 22.58 26.65 22.13 26.56 21.67L23.02 22.62C23.14 23.33 23.36 24.07 23.7 24.81C24.09 25.68 24.68 26.49 25.44 27.2C26.2 27.92 27.17 28.51 28.31 28.97C28.95 29.23 29.68 29.41 30.54 29.53L30.97 29.59V32.99L31 33Z" fill="#204ECE"/>
</g>
<defs>
<clipPath id="clip0_796_942">
<rect width="64" height="64" fill="white"/>
</clipPath>
</defs>
</svg>
