<svg fill="none" xmlns="http://www.w3.org/2000/svg" viewBox="0 0 64 64">
  <g clip-path="url(#a)">
    <path opacity=".3" d="M17.376 21.7959c5.5228 0 10-4.4772 10-10 0-5.52285-4.4772-10-10-10-5.5229 0-10.00002 4.47715-10.00002 10 0 5.5228 4.47712 10 10.00002 10ZM13 40.2H8.99995L17 33l6.02 5.416c5.164-4.48 3.624-15.04-5.12-15.4-.232-.008-.468-.016-.7-.016C7.81195 23 .199951 30.788.199951 40.396H13V40.2ZM46.8 37.504c-9.388 0-17 7.744-17 17.296h17.168c11.184 0 11.7081-16.824.536-17.284-.2319-.008-.4679-.016-.6999-.016l-.0041.004Z" fill="#231F20"/>
    <path d="M29.8 54.6998c0-9.552 7.612-17.296 17-17.296s17 7.744 17 17.296" stroke="#fff" stroke-miterlimit="10"/>
    <path opacity=".3" d="M47.012 36.1681c5.5096 0 9.976-4.4736 9.976-9.992 0-5.5184-4.4664-9.992-9.976-9.992-5.5096 0-9.976 4.4736-9.976 9.992 0 5.5184 4.4664 9.992 9.976 9.992Z" fill="#231F20"/>
    <path d="M47.012 36.1681c5.5096 0 9.976-4.4736 9.976-9.992 0-5.5184-4.4664-9.992-9.976-9.992-5.5096 0-9.976 4.4736-9.976 9.992 0 5.5184 4.4664 9.992 9.976 9.992ZM.199951 40.396C.199951 30.788 7.81195 23 17.2 23c9.388 0 17 7.788 17 17.396M17.376 21.7959c5.5228 0 10-4.4772 10-10 0-5.52285-4.4772-10-10-10-5.5229 0-10.00002 4.47715-10.00002 10 0 5.5228 4.47712 10 10.00002 10Z" stroke="#fff" stroke-miterlimit="10"/>
    <path d="M34.492 62.392c-7.808-1.492-13.448-8.284-13.448-16.188l-.04-6.004h4l-8-7.2-7.99997 7.2H13.004l.04 7.116c0 9.104 7.42 16.484 16.576 16.484h12.248l-7.376-1.408Z" stroke="#fff" stroke-miterlimit="10"/>
  </g>
  <defs>
    <clipPath id="a">
      <path fill="#fff" d="M0 0h64v64H0z"/>
    </clipPath>
  </defs>
</svg>