<svg width="64" height="65" viewBox="0 0 64 65" fill="none" xmlns="http://www.w3.org/2000/svg">
<g clip-path="url(#clip0_20_3475)">
<path opacity="0.3" d="M33.7788 9.60449H8.78821V16.1917H33.7788V9.60449Z" fill="#231F20"/>
<path opacity="0.3" d="M34.8828 56.7749V35.8755H62.1151V30.1752H34.8828V29.0891H33.6236V22.5126C33.6236 22.0781 33.7092 21.6479 33.8754 21.2465C34.0417 20.8451 34.2854 20.4803 34.5926 20.1731C34.8998 19.8659 35.2646 19.6222 35.666 19.4559C36.0674 19.2897 36.4976 19.2041 36.9321 19.2041H31.9041C30.8763 19.2041 29.8906 19.6124 29.1638 20.3392C28.4371 21.066 28.0288 22.0517 28.0288 23.0795V30.1752H29.2603V40.585H24.1737V34.8045H18.3933V40.585H12.6129V46.3653H18.3933V52.1458H24.1737V46.3652H29.2603V56.7749H0.500061V60.6126C0.500061 61.4159 0.819177 62.1863 1.38721 62.7544C1.95524 63.3224 2.72566 63.6415 3.52899 63.6416H59.2316C60.0349 63.6415 60.8053 63.3224 61.3734 62.7544C61.9414 62.1863 62.2606 61.4159 62.2606 60.6126V56.7749H34.8828Z" fill="#231F20"/>
<path d="M36.5464 10.1045H6.02051C5.47472 10.1039 4.95143 9.88686 4.56549 9.50092C4.17955 9.11498 3.96248 8.5917 3.96191 8.0459V2.2002C3.96248 1.6544 4.17955 1.13112 4.56549 0.74518C4.95143 0.359241 5.47471 0.142171 6.02051 0.141602H36.5464C37.0922 0.142165 37.6155 0.359234 38.0014 0.745174C38.3874 1.13111 38.6044 1.6544 38.605 2.2002V8.0459C38.6044 8.5917 38.3874 9.11499 38.0014 9.50092C37.6155 9.88686 37.0922 10.1039 36.5464 10.1045V10.1045ZM6.02051 1.1416C5.73988 1.14199 5.47084 1.25365 5.2724 1.45209C5.07396 1.65053 4.9623 1.91956 4.96191 2.2002V8.0459C4.96231 8.32654 5.07396 8.59557 5.2724 8.79401C5.47085 8.99245 5.73988 9.1041 6.02051 9.10449H36.5464C36.827 9.10411 37.0961 8.99246 37.2945 8.79402C37.493 8.59558 37.6046 8.32654 37.605 8.0459V2.2002C37.6046 1.91956 37.493 1.65053 37.2945 1.45209C37.0961 1.25365 36.8271 1.14199 36.5464 1.1416H6.02051Z" fill="white"/>
<path d="M39.537 19.6315L33.279 15.8385V9.60449H34.279V15.2755L40.055 18.7765L39.537 19.6315Z" fill="white"/>
<path d="M38.2456 64.1416H3.61768C2.65856 64.1405 1.73906 63.7589 1.06086 63.0807C0.382662 62.4026 0.00114592 61.483 0 60.5239V23.5073C0.00304262 22.5287 0.256772 21.5671 0.736987 20.7144C1.2172 19.8617 1.90789 19.1462 2.74316 18.6362L8.28809 15.2754V9.60449H9.28809V15.8389L3.26172 19.4917C2.57302 19.912 2.00353 20.5018 1.60758 21.2048C1.21164 21.9078 1.00246 22.7005 1 23.5073V60.5239C1.0008 61.2179 1.27684 61.8833 1.76758 62.374C2.25832 62.8648 2.92367 63.1408 3.61768 63.1416H38.2456V64.1416Z" fill="white"/>
<path d="M58.9883 64.1417H38.2051C37.21 64.1401 36.2561 63.7446 35.5518 63.0417C34.8474 62.3389 34.45 61.3858 34.4463 60.3907L34.3828 30.1602L35.3828 30.1582L35.4463 60.3887C35.449 61.119 35.7407 61.8186 36.2577 62.3344C36.7746 62.8503 37.4748 63.1405 38.2051 63.1416H58.9883C59.3515 63.1417 59.7112 63.0699 60.0467 62.9305C60.3821 62.7911 60.6867 62.5869 60.943 62.3295C61.1993 62.072 61.4023 61.7665 61.5401 61.4304C61.678 61.0944 61.7482 60.7344 61.7466 60.3711L61.6152 30.1611L62.6152 30.1572L62.7466 60.3672C62.7487 60.8621 62.653 61.3526 62.4651 61.8104C62.2772 62.2682 62.0007 62.6844 61.6515 63.0351C61.3023 63.3858 60.8872 63.6641 60.4302 63.854C59.9732 64.0439 59.4832 64.1416 58.9883 64.1416V64.1417Z" fill="white"/>
<path d="M64 30.6753H33.2886V22.4629C33.2897 21.4663 33.686 20.5109 34.3907 19.8062C35.0954 19.1015 36.0508 18.7052 37.0474 18.7041H60.2412C61.2378 18.7052 62.1932 19.1015 62.8979 19.8062C63.6026 20.5109 63.9989 21.4663 64 22.4629V30.6753ZM34.2886 29.6753H63V22.4629C62.9991 21.7315 62.7082 21.0303 62.191 20.5131C61.6738 19.9959 60.9726 19.705 60.2412 19.7041H37.0474C36.316 19.705 35.6148 19.9959 35.0976 20.5131C34.5804 21.0303 34.2895 21.7315 34.2886 22.4629V29.6753Z" fill="white"/>
<path d="M62.142 57.2745H44.613V35.3755H62.142V36.3755H45.613V56.2745H62.142V57.2745Z" fill="white"/>
<path d="M34.996 57.2745H5.43103V29.6755H35.028V30.6755H6.43103V56.2745H34.996V57.2745Z" fill="white"/>
</g>
<defs>
<clipPath id="clip0_20_3475">
<rect width="64" height="64.0001" fill="white" transform="translate(0 0.141602)"/>
</clipPath>
</defs>
</svg>
