<svg width="64" height="64" viewBox="0 0 64 64" fill="none" xmlns="http://www.w3.org/2000/svg">
<g clip-path="url(#clip0_20_3280)">
<path opacity="0.15" d="M33.7788 9.46289H8.78821V16.0501H33.7788V9.46289Z" fill="#183A9E"/>
<path opacity="0.15" d="M34.8828 56.6333V35.7339H62.1151V30.0336H34.8828V28.9475H33.6236V22.371C33.6236 21.9365 33.7092 21.5063 33.8754 21.1049C34.0417 20.7035 34.2854 20.3387 34.5926 20.0315C34.8998 19.7243 35.2646 19.4806 35.666 19.3143C36.0674 19.1481 36.4976 19.0625 36.9321 19.0625H31.9041C30.8763 19.0625 29.8906 19.4708 29.1638 20.1976C28.4371 20.9244 28.0288 21.9101 28.0288 22.9379V30.0336H29.2603V40.4434H24.1737V34.6629H18.3933V40.4434H12.6129V46.2237H18.3933V52.0042H24.1737V46.2236H29.2603V56.6333H0.500061V60.471C0.500061 61.2743 0.819177 62.0447 1.38721 62.6128C1.95524 63.1808 2.72566 63.4999 3.52899 63.5H59.2316C60.0349 63.4999 60.8053 63.1808 61.3734 62.6128C61.9414 62.0447 62.2606 61.2743 62.2606 60.471V56.6333H34.8828Z" fill="#183A9E"/>
<path d="M36.5464 9.96289H6.02051C5.47472 9.96232 4.95143 9.74526 4.56549 9.35932C4.17955 8.97338 3.96248 8.4501 3.96191 7.9043V2.0586C3.96248 1.5128 4.17955 0.989518 4.56549 0.603579C4.95143 0.21764 5.47471 0.000569142 6.02051 0H36.5464C37.0922 0.000563853 37.6155 0.217632 38.0014 0.603572C38.3874 0.989512 38.6044 1.5128 38.605 2.0586V7.9043C38.6044 8.4501 38.3874 8.97338 38.0014 9.35932C37.6155 9.74526 37.0922 9.96233 36.5464 9.96289V9.96289ZM6.02051 1C5.73988 1.00039 5.47084 1.11204 5.2724 1.31049C5.07396 1.50893 4.9623 1.77796 4.96191 2.0586V7.9043C4.96231 8.18494 5.07396 8.45397 5.2724 8.65241C5.47085 8.85085 5.73988 8.9625 6.02051 8.96289H36.5464C36.827 8.96251 37.0961 8.85085 37.2945 8.65241C37.493 8.45397 37.6046 8.18494 37.605 7.9043V2.0586C37.6046 1.77796 37.493 1.50893 37.2945 1.31049C37.0961 1.11205 36.8271 1.00039 36.5464 1H6.02051Z" fill="#204ECF"/>
<path d="M39.537 19.4899L33.279 15.6969V9.46289H34.279V15.1339L40.055 18.6349L39.537 19.4899Z" fill="#204ECF"/>
<path d="M38.2456 64H3.61768C2.65856 63.9989 1.73906 63.6173 1.06086 62.9391C0.382662 62.261 0.00114592 61.3414 0 60.3823V23.3657C0.00304262 22.3871 0.256772 21.4255 0.736987 20.5728C1.2172 19.7201 1.90789 19.0046 2.74316 18.4946L8.28809 15.1338V9.46289H9.28809V15.6973L3.26172 19.3501C2.57302 19.7704 2.00353 20.3602 1.60758 21.0632C1.21164 21.7662 1.00246 22.5589 1 23.3657V60.3823C1.0008 61.0763 1.27684 61.7417 1.76758 62.2324C2.25832 62.7232 2.92367 62.9992 3.61768 63H38.2456V64Z" fill="#204ECF"/>
<path d="M58.9883 64.0001H38.2051C37.21 63.9985 36.2561 63.603 35.5518 62.9001C34.8474 62.1973 34.45 61.2442 34.4463 60.2491L34.3828 30.0186L35.3828 30.0166L35.4463 60.2471C35.449 60.9774 35.7407 61.677 36.2577 62.1928C36.7746 62.7087 37.4748 62.9989 38.2051 63H58.9883C59.3515 63 59.7112 62.9283 60.0467 62.7889C60.3821 62.6495 60.6867 62.4453 60.943 62.1879C61.1993 61.9304 61.4023 61.6249 61.5401 61.2888C61.678 60.9528 61.7482 60.5928 61.7466 60.2295L61.6152 30.0195L62.6152 30.0156L62.7466 60.2256C62.7487 60.7205 62.653 61.211 62.4651 61.6688C62.2772 62.1266 62.0007 62.5428 61.6515 62.8935C61.3023 63.2442 60.8872 63.5225 60.4302 63.7124C59.9732 63.9023 59.4832 64 58.9883 64V64.0001Z" fill="#204ECF"/>
<path d="M64 30.5337H33.2886V22.3213C33.2897 21.3247 33.686 20.3693 34.3907 19.6646C35.0954 18.9599 36.0508 18.5636 37.0474 18.5625H60.2412C61.2378 18.5636 62.1932 18.9599 62.8979 19.6646C63.6026 20.3693 63.9989 21.3247 64 22.3213V30.5337ZM34.2886 29.5337H63V22.3213C62.9991 21.5899 62.7082 20.8887 62.191 20.3715C61.6738 19.8543 60.9726 19.5634 60.2412 19.5625H37.0474C36.316 19.5634 35.6148 19.8543 35.0976 20.3715C34.5804 20.8887 34.2895 21.5899 34.2886 22.3213V29.5337Z" fill="#204ECF"/>
<path d="M62.142 57.1329H44.613V35.2339H62.142V36.2339H45.613V56.1329H62.142V57.1329Z" fill="#204ECF"/>
<path d="M34.996 57.1329H5.43103V29.5339H35.028V30.5339H6.43103V56.1329H34.996V57.1329Z" fill="#204ECF"/>
</g>
<defs>
<clipPath id="clip0_20_3280">
<rect width="64" height="64.0001" fill="white"/>
</clipPath>
</defs>
</svg>
