<svg width="64" height="64" viewBox="0 0 64 64" fill="none" xmlns="http://www.w3.org/2000/svg">
<g clip-path="url(#clip0_20_3502)">
<path opacity="0.15" d="M17.6985 59.7514C17.3005 59.751 16.9189 59.5927 16.6374 59.3113C16.3559 59.0299 16.1975 58.6484 16.197 58.2504V5.75027C16.1974 5.35219 16.3558 4.97054 16.6372 4.68906C16.9187 4.40757 17.3004 4.24923 17.6985 4.24878H23.968C24.007 4.88779 24.2882 5.4879 24.7541 5.92689C25.2201 6.36588 25.8359 6.61074 26.4761 6.6116H37.5238C38.164 6.61074 38.7799 6.36589 39.2458 5.9269C39.7118 5.48791 39.993 4.88779 40.032 4.24878H46.3016C46.6996 4.24925 47.0813 4.40759 47.3627 4.68907C47.6442 4.97056 47.8025 5.3522 47.803 5.75027V58.2504C47.8024 58.6484 47.6441 59.03 47.3626 59.3113C47.0811 59.5927 46.6995 59.751 46.3015 59.7514L17.6985 59.7514Z" fill="#183A9E"/>
<path d="M46.3018 64H17.6982C16.1738 63.9982 14.7123 63.3919 13.6343 62.3139C12.5564 61.236 11.95 59.7744 11.9482 58.25V5.75C11.95 4.22555 12.5564 2.76405 13.6343 1.6861C14.7123 0.608148 16.1738 0.00177586 17.6982 0L46.3018 0C47.8262 0.00177586 49.2877 0.608148 50.3657 1.6861C51.4436 2.76405 52.05 4.22555 52.0518 5.75V58.25C52.05 59.7744 51.4436 61.236 50.3657 62.3139C49.2877 63.3919 47.8262 63.9982 46.3018 64V64ZM17.6982 1C16.4389 1.00143 15.2315 1.50233 14.3411 2.39282C13.4506 3.28331 12.9497 4.49066 12.9482 5.75V58.25C12.9497 59.5093 13.4506 60.7167 14.3411 61.6072C15.2315 62.4977 16.4389 62.9986 17.6982 63H46.3018C47.5611 62.9986 48.7685 62.4977 49.6589 61.6072C50.5494 60.7167 51.0503 59.5093 51.0518 58.25V5.75C51.0503 4.49066 50.5494 3.28331 49.6589 2.39282C48.7685 1.50233 47.5611 1.00143 46.3018 1H17.6982Z" fill="#204ECF"/>
</g>
<defs>
<clipPath id="clip0_20_3502">
<rect width="64" height="64" fill="white"/>
</clipPath>
</defs>
</svg>
