<svg width="64" height="64" viewBox="0 0 64 64" fill="none" xmlns="http://www.w3.org/2000/svg">
<g clip-path="url(#clip0_797_308)">
<path opacity="0.15" fill-rule="evenodd" clip-rule="evenodd" d="M46.68 33.1602L28.76 15.2002L24.59 19.3502L30.68 25.4602L17.31 38.7902L35.29 56.8002L39.4 52.7002L33.25 46.5402L46.67 33.1602H46.68ZM29.53 41.9802C29.41 42.0202 29.29 42.0202 29.16 41.9802C29.04 41.9402 28.94 41.8902 28.72 41.6702L26.3 39.2402C26.09 39.0302 26.02 38.9202 25.99 38.8002C25.96 38.6802 25.95 38.5602 25.99 38.4302C26.03 38.3102 26.08 38.2102 26.3 37.9902L33.94 30.3702C34.15 30.1602 34.26 30.0902 34.38 30.0602C34.5 30.0202 34.62 30.0202 34.75 30.0602C34.87 30.1002 34.97 30.1502 35.19 30.3702L37.61 32.8002C37.82 33.0102 37.89 33.1202 37.92 33.2402C37.96 33.3602 37.96 33.4802 37.92 33.6102C37.88 33.7302 37.83 33.8302 37.61 34.0502L29.97 41.6702C29.76 41.8802 29.66 41.9402 29.53 41.9802Z" fill="#183A9C"/>
<path opacity="0.15" fill-rule="evenodd" clip-rule="evenodd" d="M9 64V8C9 5.79 10.79 4 13 4H20C20.55 4 21 4.45 21 5V7C21 7.55 21.45 8 22 8H43C43.55 8 44 7.55 44 7V5C44 4.45 44.45 4 45 4H51C53.21 4 55 5.79 55 8V64H58V8.16C58 4.21 54.8 1 50.84 1H13C9.13 1 6 4.13 6 8V64H9Z" fill="#183A9C"/>
<path fill-rule="evenodd" clip-rule="evenodd" d="M13.5 1C9.35614 1 6 4.35614 6 8.5V64H5V8.5C5 3.80386 8.80386 0 13.5 0H50.5C55.1961 0 59 3.80386 59 8.5V64H58V8.5C58 4.35614 54.6439 1 50.5 1H13.5Z" fill="#204ECD"/>
<path fill-rule="evenodd" clip-rule="evenodd" d="M28.7612 14.4932L47.8852 33.6598H46.8767L33.9573 46.5406L40.1073 52.7005L35.2893 57.5068L16.6027 38.789L29.9729 25.4587L23.8826 19.3484L28.7612 14.4932ZM45.9678 33.1539L28.7588 15.9065L25.2974 19.3512L31.3871 25.4609L18.0173 38.7906L35.2907 56.0928L38.6928 52.6991L32.5427 46.539L45.9678 33.1539ZM34.603 30.5377C34.5646 30.5259 34.5517 30.5296 34.5381 30.5342L34.5199 30.5402L34.5013 30.5449C34.4998 30.5453 34.4998 30.5453 34.4997 30.5453C34.4997 30.5453 34.4998 30.5453 34.4997 30.5453C34.4989 30.5457 34.4922 30.5488 34.478 30.5587C34.4457 30.5809 34.3905 30.6265 34.2936 30.7234L26.6536 38.3434C26.6535 38.3434 26.6536 38.3433 26.6536 38.3434C26.5506 38.4463 26.5094 38.4975 26.4911 38.5245C26.4811 38.5393 26.4774 38.5459 26.4679 38.5769C26.4646 38.5874 26.4634 38.5966 26.4636 38.6084C26.4639 38.6219 26.4663 38.6434 26.4751 38.6785C26.4754 38.68 26.4755 38.68 26.4755 38.6801C26.4755 38.6801 26.4755 38.6801 26.4755 38.6801C26.4759 38.6809 26.479 38.6876 26.4889 38.7018C26.5111 38.7341 26.5566 38.7893 26.6536 38.8863L26.6543 38.887L29.0736 41.3163C29.0735 41.3162 29.0736 41.3163 29.0736 41.3163C29.1765 41.4192 29.2277 41.4604 29.2547 41.4787C29.2695 41.4887 29.276 41.4924 29.307 41.5019C29.3454 41.5137 29.3583 41.51 29.3719 41.5055L29.3829 41.5018C29.4067 41.4945 29.4172 41.49 29.4374 41.4761C29.4674 41.4555 29.5197 41.413 29.6164 41.3163L37.2565 33.6963C37.2563 33.6964 37.2566 33.6961 37.2565 33.6963C37.3591 33.5936 37.4006 33.5421 37.4189 33.5151C37.4289 33.5004 37.4326 33.4938 37.4421 33.4628C37.4539 33.4245 37.4502 33.4115 37.4457 33.3979L37.4396 33.3797L37.4349 33.3611C37.4345 33.3593 37.4345 33.3596 37.4345 33.3595C37.4341 33.3587 37.431 33.352 37.4211 33.3378C37.3989 33.3056 37.3534 33.2503 37.2565 33.1534L34.8364 30.7234C34.8364 30.7234 34.8365 30.7234 34.8364 30.7234C34.7335 30.6204 34.6823 30.5792 34.6553 30.5609C34.6405 30.5509 34.634 30.5472 34.603 30.5377ZM34.2398 29.5797C34.4603 29.5102 34.6812 29.5155 34.897 29.5819C34.996 29.6124 35.0995 29.6537 35.2172 29.7337C35.3227 29.8054 35.4266 29.8993 35.5436 30.0163L35.5443 30.017L37.9636 32.4463C38.1814 32.6641 38.3329 32.851 38.4001 33.0996C38.4696 33.3201 38.4643 33.541 38.3979 33.7569C38.3674 33.8559 38.3261 33.9593 38.2461 34.077C38.1744 34.1825 38.0806 34.2864 37.9636 34.4034L30.3236 42.0234C30.3235 42.0234 30.3236 42.0233 30.3236 42.0234C30.0895 42.2574 29.9213 42.3815 29.6821 42.4562C29.4576 42.5296 29.2327 42.5253 29.013 42.4577C28.914 42.4272 28.8105 42.3859 28.6928 42.3059C28.5873 42.2342 28.4834 42.1404 28.3664 42.0234L25.9464 39.5934C25.9464 39.5934 25.9465 39.5934 25.9464 39.5934C25.7231 39.37 25.5695 39.1792 25.5049 38.9211C25.4614 38.747 25.4365 38.5284 25.5121 38.2828C25.5426 38.1838 25.5839 38.0804 25.6639 37.9626C25.7356 37.8571 25.8294 37.7533 25.9464 37.6363L33.5864 30.0163C33.5864 30.0163 33.5865 30.0162 33.5864 30.0163C33.8043 29.7985 33.9912 29.6469 34.2398 29.5797Z" fill="#204ECD"/>
</g>
<defs>
<clipPath id="clip0_797_308">
<rect width="64" height="64" fill="white"/>
</clipPath>
</defs>
</svg>
