<svg width="64" height="64" viewBox="0 0 64 64" fill="none" xmlns="http://www.w3.org/2000/svg">
<g clip-path="url(#clip0_20_3660)">
<path opacity="0.3" d="M40.1584 0.5H23.8416V5H40.1584V0.5Z" fill="#231F20"/>
<path opacity="0.3" d="M63.5 46.1562H0.500023V53.375H63.5V46.1562Z" fill="#231F20"/>
<path opacity="0.3" d="M32 29.1874V12.8943C34.1407 12.8905 36.2611 13.3093 38.2396 14.1267C40.2181 14.9442 42.0158 16.1442 43.5295 17.6579C45.0432 19.1716 46.2432 20.9693 47.0607 22.9478C47.8781 24.9263 48.297 27.0467 48.2931 29.1874H32Z" fill="#231F20"/>
<path d="M32 45.9805C28.6787 45.9805 25.4319 44.9956 22.6703 43.1504C19.9087 41.3052 17.7563 38.6825 16.4853 35.6139C15.2143 32.5454 14.8817 29.1689 15.5297 25.9114C16.1776 22.6539 17.777 19.6616 20.1256 17.3131C22.4741 14.9646 25.4663 13.3652 28.7238 12.7172C31.9814 12.0693 35.3579 12.4018 38.4264 13.6728C41.4949 14.9439 44.1176 17.0963 45.9629 19.8578C47.8081 22.6194 48.793 25.8662 48.793 29.1875C48.788 33.6398 47.0171 37.9082 43.8689 41.0565C40.7207 44.2047 36.4522 45.9755 32 45.9805V45.9805ZM32 13.3946C28.8764 13.3946 25.823 14.3208 23.2259 16.0562C20.6287 17.7916 18.6045 20.2581 17.4092 23.1439C16.2138 26.0297 15.9011 29.2051 16.5105 32.2687C17.1198 35.3322 18.624 38.1462 20.8327 40.3549C23.0414 42.5636 25.8554 44.0678 28.9189 44.6771C31.9825 45.2865 35.1579 44.9738 38.0437 43.7784C40.9295 42.5831 43.396 40.5589 45.1314 37.9617C46.8668 35.3646 47.793 32.3112 47.793 29.1876C47.7883 25.0005 46.1228 20.9862 43.1621 18.0255C40.2014 15.0648 36.1871 13.3993 32 13.3946V13.3946Z" fill="white"/>
<path d="M43.167 41.062L31.5 29.395V12.895H32.5V28.98L43.874 40.354L43.167 41.062Z" fill="white"/>
<path d="M48.293 28.6875H32V29.6875H48.293V28.6875Z" fill="white"/>
<path d="M64 53.875H0V4.5H64V53.875ZM1 52.875H63V5.5H1V52.875Z" fill="white"/>
<path d="M32.5 53.375H31.5V63.5H32.5V53.375Z" fill="white"/>
<path d="M19.8771 53.093L13.0252 63.198L13.8534 63.7595L20.7052 53.6545L19.8771 53.093Z" fill="white"/>
<path d="M44.121 53.0942L43.2931 53.656L50.1485 63.7585L50.9765 63.1967L44.121 53.0942Z" fill="white"/>
<path d="M40.658 5H39.658V1H24.342V5H23.342V0H40.658V5Z" fill="white"/>
</g>
<defs>
<clipPath id="clip0_20_3660">
<rect width="64" height="64" fill="white"/>
</clipPath>
</defs>
</svg>
