<svg width="64" height="64" viewBox="0 0 64 64" fill="none" xmlns="http://www.w3.org/2000/svg">
<g clip-path="url(#clip0_20_3682)">
<path opacity="0.3" d="M57.9319 31.3809L56.4631 32.8477H51.8606L48.2956 29.2849C46.9001 31.455 45.3679 33.5341 43.7083 35.5096L50.971 42.7916V49.3656L48.5977 51.739V57.7516H47.3825L42.4999 52.8685V46.6119H36.04L32.4665 43.042V37.6963L34.947 35.2179C30.8472 30.2578 25.429 22.263 25.422 14.6428H15.9402V21.1065L13.6721 23.3778L16.8407 26.5465L18.9886 24.3988H21.9703C21.9703 24.3988 24.0115 26.4391 25.4911 27.9189V32.1301L22.8724 34.7414L19.906 34.7406L15.9365 38.6897L15.9357 40.9024H20.805L26.6778 46.7747H29.6725V51.7528L26.9678 54.4585V56.4323L21.7915 61.6053V63.5001H63.2769V31.3809H57.9319Z" fill="#231F20"/>
<path opacity="0.3" d="M17.7336 50.5031H16.2986L13.4035 47.6081V43.7207L11.093 41.4104L9.04875 41.4093L0.72287 33.0835V63.4999H20.6609L17.7386 60.5776C17.7371 57.0561 17.7354 52.6413 17.7336 50.5031Z" fill="#231F20"/>
<path d="M22.291 63.9999H20.454L17.239 60.7849L17.234 51.0029H16.092L12.903 47.8149V43.9279L10.886 41.9099H8.842L0.369995 33.4369L1.077 32.7299L9.25599 40.9099H11.3L13.903 43.5139V47.4009L16.506 50.0029H18.233L18.239 60.3709L20.868 62.9999H21.291V61.3979L26.468 56.2249V54.2509L29.173 51.5459V47.2739H26.471L20.598 41.4019H15.435L15.436 38.4809L19.7 34.2399L22.666 34.2409L24.991 31.9219V28.1259L21.763 24.8979H19.196L16.841 27.2529L12.965 23.3779L15.44 20.8989V14.6279H16.44V21.3129L14.379 23.3769L16.841 25.8389L18.782 23.8979H22.177L25.991 27.7119V32.3369L23.079 35.2409L20.112 35.2399L16.436 38.8969L16.435 40.4019H21.012L26.885 46.2739H30.173V51.9599L27.468 54.6659V56.6389L22.291 61.8129V63.9999Z" fill="white"/>
<path d="M49.098 58.251H47.175L42 53.075V47.112H35.833L31.967 43.249V37.489L34.624 34.833L35.331 35.541L32.967 37.903V42.834L36.247 46.112H43V52.661L47.589 57.251H48.098V51.532L50.471 49.159V42.998L43.354 35.862L44.062 35.156L51.471 42.585V49.573L49.098 51.946V58.251Z" fill="white"/>
<path d="M56.67 33.3479H51.654L47.942 29.6379L48.649 28.9309L52.068 32.3479H56.256L57.725 30.8809H63.277V31.8809H58.139L56.67 33.3479Z" fill="white"/>
<path d="M63.777 64.0001H0.222992V14.1431H25.422V15.1431H1.22299V63.0001H62.777V15.1431H53.477V14.1431H63.777V64.0001Z" fill="white"/>
<path d="M39.4491 20.1825C38.349 20.1896 37.2715 19.8698 36.3533 19.2638C35.4351 18.6578 34.7176 17.7927 34.2917 16.7783C33.8657 15.764 33.7506 14.646 33.9609 13.5661C34.1712 12.4862 34.6974 11.4931 35.4728 10.7126C36.2482 9.93221 37.2379 9.39961 38.3164 9.18237C39.3949 8.96513 40.5137 9.07304 41.5308 9.49242C42.5479 9.91179 43.4175 10.6237 44.0295 11.538C44.6414 12.4523 44.9681 13.5277 44.9681 14.6278C44.9712 16.0958 44.3919 17.5051 43.3573 18.5464C42.3226 19.5878 40.9171 20.1762 39.4491 20.1825V20.1825ZM39.4491 10.0731C38.5468 10.066 37.6626 10.3271 36.9089 10.8233C36.1551 11.3194 35.5658 12.0283 35.2155 12.86C34.8653 13.6916 34.77 14.6085 34.9417 15.4944C35.1133 16.3803 35.5443 17.1953 36.1799 17.8359C36.8155 18.4765 37.627 18.9138 38.5115 19.0925C39.396 19.2711 40.3137 19.183 41.1481 18.8393C41.9824 18.4957 42.6959 17.9119 43.198 17.1621C43.7001 16.4123 43.9681 15.5302 43.9681 14.6278C43.9715 13.425 43.4976 12.2699 42.6504 11.416C41.8032 10.5621 40.6519 10.0792 39.4491 10.0731V10.0731Z" fill="white"/>
<path d="M39.4491 40.8202L39.1058 40.4965C38.5267 39.9496 24.9218 26.9633 24.9218 14.6278C24.9086 12.7117 25.2747 10.8118 25.9989 9.03776C26.7231 7.26369 27.7912 5.65041 29.1415 4.29082C30.4918 2.93124 32.0977 1.85221 33.8668 1.11589C35.6359 0.379566 37.5331 0.000488281 39.4493 0.000488281C41.3655 0.000488281 43.2628 0.379566 45.0319 1.11589C46.801 1.85221 48.4069 2.93124 49.7572 4.29082C51.1075 5.65041 52.1755 7.26369 52.8998 9.03776C53.624 10.8118 53.99 12.7117 53.9769 14.6278C53.9769 26.9633 40.3715 39.9496 39.7924 40.4965L39.4491 40.8202ZM39.4491 0.999881C35.8494 1.0173 32.4035 2.4619 29.8675 5.01674C27.3315 7.57158 25.9125 11.028 25.9218 14.6278C25.9218 25.4667 37.3095 37.3051 39.4491 39.4335C41.5892 37.3051 52.9769 25.4667 52.9769 14.6278C52.9862 11.028 51.567 7.57145 49.031 5.0166C46.4949 2.46175 43.0489 1.0172 39.4491 0.999881V0.999881Z" fill="white"/>
<path d="M44.4681 14.1279H34.4305V15.1279H44.4681V14.1279Z" fill="white"/>
</g>
<defs>
<clipPath id="clip0_20_3682">
<rect width="64" height="64.0001" fill="white"/>
</clipPath>
</defs>
</svg>
