<svg width="64" height="64" viewBox="0 0 64 64" fill="none" xmlns="http://www.w3.org/2000/svg">
<g opacity="0.15">
<path d="M47 12V41H32V45H47H50V12H47Z" fill="#183A9C"/>
<path d="M16 41V23H13V45H15H16H30V41H16Z" fill="#183A9C"/>
<path d="M31.5 26C37.299 26 42 21.299 42 15.5C42 9.70101 37.299 5 31.5 5C25.701 5 21 9.70101 21 15.5C21 21.299 25.701 26 31.5 26Z" fill="#183A9C"/>
</g>
<path fill-rule="evenodd" clip-rule="evenodd" d="M47 41H33V51H62V41H47ZM62 40V13H50V12H63V52H32V41H31V51V52V63H0L0.06 23H13V24H1.05L1.01447 51H30V41H16V1H47V29V30V40H62ZM46 40V30H17V40H30H31H33H46ZM46 29H17V2H46V29ZM1.01316 52H30V62H1L1.01316 52ZM21 57H10V58H21V57ZM26 35H37V36H26V35ZM53 46H42V47H53V46ZM26.65 16.3499L30 19.7099L37.1 12.5999L36.4 11.8999L30 18.2899L27.35 15.6499L26.65 16.3499Z" fill="#204ECD"/>
</svg>
