<svg width="64" height="64" viewBox="0 0 64 64" fill="none" xmlns="http://www.w3.org/2000/svg">
<g clip-path="url(#clip0_20_3695)">
<path opacity="0.3" d="M53.079 8.5957L51.2969 12.6136L54.5412 19.9287H32.0001V63.5C38.3704 63.5005 44.5911 61.5694 49.8412 57.9615C55.0914 54.3537 59.1242 49.2387 61.4074 43.2916C63.6906 37.3446 64.1169 30.845 62.63 24.6506C61.1431 18.4563 57.8129 12.8584 53.079 8.5957V8.5957Z" fill="#231F20"/>
<path opacity="0.3" d="M48.7065 5.29938C43.7016 2.15645 37.91 0.492672 32.0001 0.500024V5.29938H48.7065Z" fill="#231F20"/>
<path d="M21.825 55.572H19.987L16.772 52.357L16.768 42.575H15.625L12.437 39.387V35.5L10.419 33.482H8.375L0.806 25.912L1.513 25.205L8.789 32.482H10.834L13.437 35.086V38.973L16.039 41.575H17.767L17.772 51.943L20.401 54.572H20.825V52.97L26.002 47.797V45.823L28.706 43.118V38.847H26.004L20.131 32.975H14.969L14.97 30.054L19.233 25.813H22.199L24.524 23.495V19.698L21.297 16.471H18.729L16.374 18.826L12.499 14.95L14.974 12.471V5.18701H15.974V12.885L13.913 14.95L16.374 17.412L18.315 15.471H21.711L25.524 19.284V23.91L22.612 26.813H19.646L15.97 30.47L15.969 31.975H20.545L26.419 37.847H29.706V43.532L27.002 46.237V48.211L21.825 53.384V55.572Z" fill="white"/>
<path d="M48.631 49.824H46.709L41.533 44.648V38.684H35.366L31.5 34.821V29.268H32.5V34.407L35.78 37.684H42.533V44.233L47.123 48.824H47.631V43.104L50.004 40.731V34.57L42.712 27.259H36.141V26.259H43.128L51.004 34.157V41.145L48.631 43.518V49.824Z" fill="white"/>
<path d="M56.204 24.919H51.187L46.547 20.2819L47.254 19.575L51.601 23.919H55.79L57.258 22.4529H62.182V23.4529H57.672L56.204 24.919Z" fill="white"/>
<path d="M32.0001 64C27.0597 63.9986 22.1868 62.8534 17.763 60.654C13.3392 58.4547 9.48477 55.2609 6.50158 51.3229C3.51839 47.385 1.48751 42.8098 0.568028 37.9557C-0.351453 33.1017 -0.134555 28.1007 1.20173 23.3445C2.53801 18.5883 4.95739 14.2061 8.27032 10.5412C11.5833 6.87632 15.6998 4.02826 20.2973 2.22016C24.8949 0.412061 29.8487 -0.306969 34.7706 0.119402C39.6925 0.545772 44.4489 2.10596 48.6671 4.67774L48.9786 4.87988L48.4346 5.71875L48.1344 5.52394C41.3329 1.37086 33.1947 -0.00752294 25.4049 1.6742C17.6152 3.35593 10.7705 7.96895 6.28812 14.5581C1.80576 21.1472 0.0290403 29.2078 1.32586 37.0708C2.62267 44.9338 6.89369 51.997 13.2546 56.7978C19.6154 61.5986 27.5789 63.7694 35.4962 62.8606C43.4134 61.9518 50.678 58.0331 55.7856 51.9159C60.8933 45.7987 63.4528 37.9515 62.9343 29.9992C62.4158 22.0468 58.8589 14.5985 53.0001 9.1963L53.6778 8.46095C58.4159 12.8244 61.7268 18.5161 63.1777 24.7917C64.6286 31.0674 64.1518 37.6348 61.8098 43.6351C59.4678 49.6354 55.3696 54.7893 50.051 58.4227C44.7325 62.0561 38.4412 64 32.0001 64V64Z" fill="white"/>
<path d="M32.5001 19.9287H31.5001V32H32.5001V19.9287Z" fill="white"/>
<path d="M55.5963 20.4277H31.5001V4.79932H55.5963L51.8516 12.6133L55.5963 20.4277ZM32.5001 19.4277H54.0084L50.7423 12.6133L54.0084 5.79928H32.5001V19.4277Z" fill="white"/>
</g>
<defs>
<clipPath id="clip0_20_3695">
<rect width="64.0001" height="64.0001" fill="white"/>
</clipPath>
</defs>
</svg>
