<svg width="64" height="64" viewBox="0 0 64 64" fill="none" xmlns="http://www.w3.org/2000/svg">
<g clip-path="url(#clip0_20_3555)">
<path opacity="0.15" d="M40.1586 0.5H23.8417V5H40.1586V0.5Z" fill="#183A9E"/>
<path opacity="0.15" d="M63.5001 46.1562H0.500122V53.375H63.5001V46.1562Z" fill="#183A9E"/>
<path d="M64.0001 53.875H0.00012207V4.5H64.0001V53.875ZM1.00012 52.875H63.0001V5.5H1.00012V52.875Z" fill="#204ECF"/>
<path d="M32.5001 53.375H31.5001V63.5H32.5001V53.375Z" fill="#204ECF"/>
<path d="M19.8801 53.095L13.0229 63.196L13.85 63.7576L20.7073 53.6566L19.8801 53.095Z" fill="#204ECF"/>
<path d="M44.1213 53.0944L43.294 53.6558L50.149 63.7583L50.9763 63.197L44.1213 53.0944Z" fill="#204ECF"/>
<path d="M40.658 5H39.658V1H24.342V5H23.342V0H40.658V5Z" fill="#204ECF"/>
<path d="M21.1134 31.7036C19.2158 31.7037 17.3608 31.1411 15.783 30.0869C14.2052 29.0328 12.9754 27.5344 12.2491 25.7813C11.5229 24.0282 11.3328 22.0991 11.703 20.2379C12.0731 18.3768 12.9868 16.6672 14.3286 15.3254C15.6704 13.9836 17.3799 13.0698 19.241 12.6995C21.1021 12.3293 23.0312 12.5193 24.7844 13.2454C26.5375 13.9716 28.036 15.2013 29.0902 16.7791C30.1445 18.3568 30.7072 20.2118 30.7072 22.1094C30.7042 24.6529 29.6925 27.0915 27.894 28.8901C26.0955 30.6887 23.657 31.7005 21.1134 31.7036ZM21.1134 13.5152C19.4136 13.5151 17.752 14.019 16.3386 14.9633C14.9252 15.9076 13.8236 17.2498 13.173 18.8202C12.5225 20.3906 12.3522 22.1186 12.6838 23.7857C13.0153 25.4529 13.8338 26.9843 15.0357 28.1863C16.2376 29.3882 17.769 30.2068 19.4361 30.5385C21.1032 30.8701 22.8313 30.6999 24.4017 30.0495C25.9721 29.399 27.3144 28.2975 28.2587 26.8841C29.2031 25.4708 29.7072 23.8092 29.7072 22.1094C29.7045 19.8309 28.7983 17.6466 27.1873 16.0354C25.5762 14.4243 23.3919 13.5179 21.1134 13.5152V13.5152Z" fill="#204ECF"/>
<path d="M30.2623 45.8598H24.0592V39.2158H30.2623V45.8598ZM25.0592 44.8598H29.2623V40.2158H25.0592V44.8598Z" fill="#204ECF"/>
<path d="M41.3717 45.8599H35.1686V33.5723H41.3717V45.8599ZM36.1686 44.8599H40.3717V34.5723H36.1686V44.8599Z" fill="#204ECF"/>
<path d="M52.4811 45.8599H46.278V22.2852H52.4811V45.8599ZM47.278 44.8599H51.4811V23.2852H47.278V44.8599Z" fill="#204ECF"/>
<path d="M27.19 28.8929L20.613 22.3159V13.0149H21.613V21.9019L27.897 28.1859L27.19 28.8929Z" fill="#204ECF"/>
</g>
<defs>
<clipPath id="clip0_20_3555">
<rect width="64.0001" height="64.0001" fill="white"/>
</clipPath>
</defs>
</svg>
