<svg width="64" height="64" viewBox="0 0 64 64" fill="none" xmlns="http://www.w3.org/2000/svg">
<g clip-path="url(#clip0_1187_2185)">
<path opacity="0.15" d="M22 5.03C21.83 5.03 21.67 5 21.5 5C12.39 5 5 12.39 5 21.5C5 21.67 5.02 21.83 5.03 22H22V5.03Z" fill="#183A9C"/>
<path opacity="0.15" d="M38.22 48.52L37.07 40.46C36.77 38.37 38.39 36.5 40.5 36.5C42.61 36.5 44.23 38.37 43.93 40.46L42.78 48.52C42.62 49.66 41.64 50.5 40.5 50.5C39.35 50.5 38.38 49.66 38.22 48.52Z" fill="#183A9C"/>
<path opacity="0.15" d="M63.05 59.08L63 59H17.8L17.75 59.08C16.62 61.04 18.03 63.5 20.3 63.5H60.5C62.77 63.5 64.18 61.05 63.05 59.08Z" fill="#183A9C"/>
<path opacity="0.15" d="M40.5 59.5C42.1569 59.5 43.5 58.1569 43.5 56.5C43.5 54.8431 42.1569 53.5 40.5 53.5C38.8431 53.5 37.5 54.8431 37.5 56.5C37.5 58.1569 38.8431 59.5 40.5 59.5Z" fill="#183A9C"/>
<path d="M42.48 23.4998L63.05 59.0898C64.18 61.0498 62.77 63.5098 60.5 63.5098H20.3C18.03 63.5098 16.62 61.0598 17.75 59.0898L38.32 23.4998C39.24 21.8998 41.55 21.8998 42.48 23.4998Z" stroke="#204ECD" stroke-miterlimit="10"/>
<path d="M38.22 48.52L37.07 40.46C36.77 38.37 38.39 36.5 40.5 36.5C42.61 36.5 44.23 38.37 43.93 40.46L42.78 48.52C42.62 49.66 41.64 50.5 40.5 50.5C39.35 50.5 38.38 49.66 38.22 48.52Z" stroke="#204ECD" stroke-miterlimit="10"/>
<path d="M40.5 59.5C42.1569 59.5 43.5 58.1569 43.5 56.5C43.5 54.8431 42.1569 53.5 40.5 53.5C38.8431 53.5 37.5 54.8431 37.5 56.5C37.5 58.1569 38.8431 59.5 40.5 59.5Z" stroke="#204ECD" stroke-miterlimit="10"/>
<path d="M21.5 12V21.5H5" stroke="#204ECD" stroke-miterlimit="10"/>
<path d="M27.91 41.5C25.89 42.15 23.73 42.5 21.5 42.5C9.9 42.5 0.5 33.1 0.5 21.5C0.5 9.9 9.9 0.5 21.5 0.5C32.24 0.5 41.09 8.56 42.35 18.96" stroke="#204ECD" stroke-miterlimit="10"/>
<path d="M19 56.5H7.5V37" stroke="#204ECD" stroke-miterlimit="10"/>
<path d="M41 7.5H56.5V42" stroke="#204ECD" stroke-miterlimit="10"/>
</g>
<defs>
<clipPath id="clip0_1187_2185">
<rect width="64" height="64" fill="white"/>
</clipPath>
</defs>
</svg>
