<svg width="65" height="64" viewBox="0 0 65 64" fill="none" xmlns="http://www.w3.org/2000/svg">
<g clip-path="url(#clip0_20_3571)">
<path opacity="0.15" d="M26.8771 41.038H37.0972C37.5957 37.7228 38.9132 34.5843 40.9303 31.9065C42.1552 30.3264 42.8228 28.3854 42.8292 26.3861C42.8292 20.9928 37.9751 16.6204 31.9872 16.6204C25.9993 16.6204 21.1453 20.9928 21.1453 26.3861C21.1516 28.3854 21.8192 30.3264 23.044 31.9065C25.0611 34.5843 26.3786 37.7228 26.8771 41.038V41.038Z" fill="#183A9E"/>
<path d="M32.3281 49.4595H31.6465C30.3203 49.4581 29.0489 48.9306 28.1111 47.9929C27.1734 47.0551 26.6459 45.7837 26.6445 44.4575C26.6807 40.0486 25.2769 35.7483 22.6465 32.2099C21.3539 30.5433 20.6501 28.4953 20.645 26.3862C20.645 20.7256 25.7329 16.1206 31.9873 16.1206C38.2412 16.1206 43.3291 20.7256 43.3291 26.3862C43.3239 28.4953 42.6201 30.5433 41.3276 32.21C38.6974 35.7485 37.2938 40.0487 37.3301 44.4575C37.3287 45.7837 36.8012 47.0551 35.8635 47.9929C34.9257 48.9306 33.6543 49.458 32.3281 49.4595V49.4595ZM31.9873 17.1206C26.2847 17.1206 21.645 21.2773 21.645 26.3862C21.6508 28.2761 22.2825 30.1107 23.4414 31.6035C26.2046 35.3163 27.6803 39.8295 27.6445 44.4575C27.6458 45.5185 28.0678 46.5357 28.8181 47.286C29.5683 48.0362 30.5855 48.4583 31.6465 48.4595H32.3282C33.3892 48.4583 34.4064 48.0362 35.1567 47.286C35.9069 46.5357 36.329 45.5185 36.3302 44.4575C36.2943 39.8296 37.7699 35.3164 40.5328 31.6035C41.6916 30.1107 42.3233 28.276 42.3292 26.3862C42.3291 21.2773 37.69 17.1206 31.9873 17.1206Z" fill="#204ECF"/>
<path d="M37.1162 40.5381H26.8789V41.5381H37.1162V40.5381Z" fill="#204ECF"/>
<path d="M23.561 63.5219L23.1963 63.4175C19.6985 62.4178 16.3971 60.828 13.4345 58.7168L13.1255 58.4966L15.8085 51.0639C13.6275 49.1482 11.8036 46.8606 10.4218 44.3076L2.57715 45.27L2.43164 44.9195C1.03281 41.5613 0.217551 37.989 0.021 34.3564L0 33.9775L7.49756 31.4365C7.63098 28.5404 8.28031 25.6913 9.415 23.0234L3.76465 17.4839L3.94775 17.1513C5.70131 13.9641 7.98589 11.0994 10.7031 8.68063L10.9863 8.42819L17.644 12.704C19.9924 11.0012 22.626 9.73161 25.4209 8.95504L26.229 1.08786L26.603 1.02386C30.1882 0.40741 33.8523 0.40741 37.4375 1.02386L37.8115 1.08786L38.6186 8.94821C41.4174 9.72338 44.0551 10.9927 46.4072 12.6962L53.0542 8.42815L53.3374 8.68059C56.0547 11.0993 58.3391 13.9642 60.0923 17.1518L60.2754 17.4843L54.6416 23.0083C55.7809 25.6832 56.4325 28.5404 56.5654 31.4448L64.04 33.978L64.019 34.357C63.8222 37.9893 63.007 41.5614 61.6084 44.9195L61.4628 45.27L53.6391 44.31C52.2541 46.8693 50.4247 49.1615 48.2363 51.0796L50.914 58.4966L50.6049 58.7168C47.6427 60.8282 44.3414 62.418 40.8437 63.4175L40.479 63.522L36.3496 56.8057C33.4862 57.3166 30.5548 57.3153 27.6919 56.8018L23.561 63.5219ZM36.8413 55.6953L40.9321 62.3496C44.0648 61.4127 47.0291 59.9851 49.7148 58.12L47.0615 50.7704L47.3247 50.5458C49.6201 48.5903 51.5185 46.2119 52.9165 43.54L53.0771 43.2334L60.8286 44.1846C62.0491 41.151 62.7813 37.9433 62.9981 34.6807L55.5913 32.1704L55.5801 31.8247C55.4842 28.8136 54.8081 25.8492 53.5889 23.0942L53.4482 22.7778L59.0317 17.3032C57.4209 14.4575 55.3694 11.885 52.9536 9.68116L46.3677 13.9102L46.0903 13.7036C43.6778 11.9042 40.9408 10.5871 38.0293 9.82471L37.6943 9.73682L36.8945 1.94776C33.6654 1.43311 30.3751 1.43311 27.146 1.94776L26.3452 9.74317L26.0107 9.83107C23.1033 10.5951 20.3704 11.9126 17.9619 13.7114L17.6841 13.9184L11.0869 9.68114C8.67116 11.8849 6.61956 14.4573 5.0083 17.3027L10.6074 22.7925L10.4678 23.1093C9.2532 25.8573 8.57931 28.8135 8.48291 31.8163L8.47168 32.162L1.042 34.6801C1.25885 37.9429 1.99107 41.1508 3.21144 44.1845L10.9839 43.2309L11.1445 43.5376C12.5395 46.2036 14.4323 48.5776 16.7207 50.5312L16.9829 50.7558L14.3247 58.12C17.0105 59.9852 19.9751 61.4127 23.1079 62.3495L27.2012 55.6908L27.5405 55.7568C30.5001 56.3297 33.542 56.3308 36.5019 55.7602L36.8413 55.6953Z" fill="#204ECF"/>
</g>
<defs>
<clipPath id="clip0_20_3571">
<rect width="64.04" height="64" fill="white"/>
</clipPath>
</defs>
</svg>
