<svg width="64" height="64" viewBox="0 0 64 64" fill="none" xmlns="http://www.w3.org/2000/svg">
<g clip-path="url(#clip0_20_3731)">
<path opacity="0.3" d="M17.1875 55.1562H0.500018V63.4999H17.1875V55.1562Z" fill="#231F20"/>
<path opacity="0.3" d="M40.3431 55.1562H23.6556V63.4999H40.3431V55.1562Z" fill="#231F20"/>
<path opacity="0.3" d="M63.4999 55.1562H46.8124V63.4999H63.4999V55.1562Z" fill="#231F20"/>
<path opacity="0.3" d="M31.9999 15.1727C36.0517 15.1727 39.3363 11.8881 39.3363 7.83636C39.3363 3.7846 36.0517 0.499999 31.9999 0.499999C27.9482 0.499999 24.6636 3.7846 24.6636 7.83636C24.6636 11.8881 27.9482 15.1727 31.9999 15.1727Z" fill="#231F20"/>
<path opacity="0.3" d="M31.9999 15.1731C28.0714 15.1731 24.3038 16.7337 21.5259 19.5116C18.7481 22.2895 17.1875 26.0571 17.1875 29.9856H46.8124C46.8124 28.0404 46.4292 26.1142 45.6849 24.3171C44.9405 22.5199 43.8494 20.887 42.4739 19.5116C41.0984 18.1361 39.4655 17.045 37.6684 16.3006C35.8712 15.5562 33.9451 15.1731 31.9999 15.1731Z" fill="#231F20"/>
<path d="M17.6875 63.9999H0V46.3124H17.6875V63.9999ZM0.999998 62.9999H16.6875V47.3124H0.999998V62.9999Z" fill="white"/>
<path d="M40.8432 63.9999H23.1557V46.3124H40.8432V63.9999ZM24.1557 62.9999H39.8432V47.3124H24.1557V62.9999Z" fill="white"/>
<path d="M63.9999 63.9999H46.3124V46.3124H63.9999V63.9999ZM47.3124 62.9999H62.9999V47.3124H47.3124V62.9999Z" fill="white"/>
<path d="M31.9999 15.6728C30.45 15.6728 28.935 15.2132 27.6463 14.3522C26.3576 13.4911 25.3532 12.2672 24.76 10.8353C24.1669 9.40337 24.0117 7.82772 24.3141 6.30761C24.6165 4.78749 25.3628 3.39118 26.4588 2.29523C27.5547 1.19929 28.951 0.452946 30.4711 0.150577C31.9913 -0.151792 33.5669 0.00339674 34.9988 0.596518C36.4307 1.18964 37.6546 2.19405 38.5157 3.48275C39.3768 4.77144 39.8364 6.28653 39.8364 7.83643C39.8339 9.91403 39.0075 11.9058 37.5385 13.3749C36.0694 14.844 34.0775 15.6704 31.9999 15.6728ZM31.9999 1.00001C30.6478 1.00001 29.3261 1.40096 28.2018 2.15216C27.0776 2.90335 26.2014 3.97105 25.6839 5.22025C25.1665 6.46944 25.0311 7.84401 25.2949 9.17015C25.5587 10.4963 26.2098 11.7144 27.1659 12.6705C28.122 13.6266 29.3401 14.2777 30.6662 14.5415C31.9924 14.8053 33.3669 14.6699 34.6161 14.1525C35.8653 13.635 36.933 12.7588 37.6842 11.6345C38.4354 10.5103 38.8364 9.18855 38.8364 7.83643C38.8343 6.02394 38.1134 4.28627 36.8317 3.00465C35.5501 1.72302 33.8124 1.00209 31.9999 1.00001Z" fill="white"/>
<path d="M47.3124 29.9853H46.3124C46.3124 26.1894 44.8045 22.549 42.1204 19.8649C39.4363 17.1807 35.7959 15.6728 31.9999 15.6728C28.204 15.6728 24.5636 17.1807 21.8795 19.8649C19.1954 22.549 17.6875 26.1894 17.6875 29.9853H16.6875C16.6875 25.9242 18.3007 22.0294 21.1724 19.1577C24.044 16.2861 27.9388 14.6728 31.9999 14.6728C36.0611 14.6728 39.9559 16.2861 42.8275 19.1577C45.6991 22.0294 47.3124 25.9242 47.3124 29.9853Z" fill="white"/>
<path d="M32.4999 29.9853H31.4999V46.8124H32.4999V29.9853Z" fill="white"/>
<path d="M55.6559 46.8129H54.6559V39.2509H9.34298V46.8129H8.34299V38.2509H55.6559V46.8129Z" fill="white"/>
</g>
<defs>
<clipPath id="clip0_20_3731">
<rect width="64.0001" height="64.0001" fill="white"/>
</clipPath>
</defs>
</svg>
