<svg width="64" height="64" viewBox="0 0 64 64" fill="none" xmlns="http://www.w3.org/2000/svg">
<g clip-path="url(#clip0_20_3595)">
<path opacity="0.15" d="M63.4996 57.7676H0.500111V63.5H63.4996V57.7676Z" fill="#183A9E"/>
<path opacity="0.15" d="M32.0003 10.9502C34.8861 10.9502 37.2254 8.61084 37.2254 5.7251C37.2254 2.83936 34.8861 0.5 32.0003 0.5C29.1146 0.5 26.7752 2.83936 26.7752 5.7251C26.7752 8.61084 29.1146 10.9502 32.0003 10.9502Z" fill="#183A9E"/>
<path opacity="0.15" d="M32.0003 10.9504C30.6149 10.9504 29.2431 11.2233 27.9632 11.7535C26.6832 12.2837 25.5202 13.0608 24.5406 14.0404C23.561 15.02 22.7839 16.183 22.2537 17.463C21.7236 18.7429 21.4507 20.1148 21.4507 21.5002H42.5501C42.5501 20.1148 42.2772 18.7429 41.747 17.463C41.2169 16.183 40.4398 15.02 39.4601 14.0404C38.4805 13.0608 37.3175 12.2837 36.0376 11.7535C34.7576 11.2233 33.3858 10.9504 32.0003 10.9504V10.9504Z" fill="#183A9E"/>
<path opacity="0.15" d="M20.4879 47.9214H7.51828V54.4063H20.4879V47.9214Z" fill="#183A9E"/>
<path opacity="0.15" d="M38.4847 47.9214H25.515V54.4063H38.4847V47.9214Z" fill="#183A9E"/>
<path opacity="0.15" d="M56.4824 47.9214H43.5127V54.4063H56.4824V47.9214Z" fill="#183A9E"/>
<path d="M32.0001 11.4502C30.8678 11.4502 29.7609 11.1144 28.8194 10.4854C27.8779 9.85627 27.1441 8.96214 26.7108 7.91601C26.2775 6.86989 26.1641 5.71876 26.385 4.6082C26.6059 3.49764 27.1512 2.47752 27.9518 1.67685C28.7525 0.876179 29.7726 0.330915 30.8832 0.110009C31.9937 -0.110896 33.1449 0.00247991 34.191 0.435799C35.2371 0.869118 36.1313 1.60292 36.7603 2.54441C37.3894 3.48589 37.7252 4.59278 37.7252 5.7251C37.7234 7.24296 37.1197 8.69814 36.0464 9.77143C34.9731 10.8447 33.518 11.4485 32.0001 11.4502ZM32.0001 1C31.0656 1 30.152 1.27712 29.375 1.79632C28.5979 2.31552 27.9923 3.05348 27.6347 3.91688C27.277 4.78028 27.1835 5.73034 27.3658 6.64692C27.5481 7.5635 27.9981 8.40543 28.6589 9.06625C29.3198 9.72707 30.1617 10.1771 31.0783 10.3594C31.9948 10.5417 32.9449 10.4482 33.8083 10.0905C34.6717 9.7329 35.4097 9.12727 35.9289 8.35023C36.4481 7.57319 36.7252 6.65964 36.7252 5.7251C36.7238 4.47236 36.2255 3.27133 35.3397 2.38551C34.4539 1.49968 33.2528 1.00141 32.0001 1V1Z" fill="#204ECF"/>
<path d="M43.0499 21.5H42.0499C42.0499 18.8347 40.9911 16.2785 39.1065 14.3939C37.2218 12.5092 34.6656 11.4504 32.0003 11.4504C29.335 11.4504 26.7789 12.5092 24.8942 14.3939C23.0096 16.2785 21.9508 18.8347 21.9508 21.5H20.9508C20.9508 18.5695 22.1149 15.759 24.1871 13.6868C26.2593 11.6146 29.0698 10.4504 32.0003 10.4504C34.9309 10.4504 37.7414 11.6146 39.8136 13.6868C41.8858 15.759 43.0499 18.5695 43.0499 21.5V21.5Z" fill="#204ECF"/>
<path d="M64.0001 64H0.000579834V21H64.0001V64ZM1.00058 63H63.0001V22H1.00058V63Z" fill="#204ECF"/>
<path d="M20.9879 54.9063H7.01816V40.9365H20.9879V54.9063ZM8.01816 53.9063H19.9879V41.9365H8.01816V53.9063Z" fill="#204ECF"/>
<path d="M38.9845 54.9063H25.0152V40.9365H38.9845V54.9063ZM26.0152 53.9063H37.9845V41.9365H26.0152V53.9063Z" fill="#204ECF"/>
<path d="M56.9825 54.9063H43.0128V40.9365H56.9825V54.9063ZM44.0128 53.9063H55.9825V41.9365H44.0128V53.9063Z" fill="#204ECF"/>
<path d="M32.5006 26.249H31.5006V41.4365H32.5006V26.249Z" fill="#204ECF"/>
<path d="M50.497 41.437H49.497V34.343H14.503V41.437H13.503V33.343H50.497V41.437Z" fill="#204ECF"/>
</g>
<defs>
<clipPath id="clip0_20_3595">
<rect width="64.0001" height="64.0001" fill="white"/>
</clipPath>
</defs>
</svg>
