<svg width="64" height="64" viewBox="0 0 64 64" fill="none" xmlns="http://www.w3.org/2000/svg">
<g clip-path="url(#clip0_421_548)">
<path opacity="0.05" d="M42.2867 10.8396C42.2867 16.5543 37.6767 21.187 31.9899 21.187C26.3031 21.187 21.693 16.5543 21.693 10.8396C21.693 5.12487 26.3031 0.492188 31.9899 0.492188C37.6767 0.492188 42.2867 5.12487 42.2867 10.8396Z" fill="#204ECF"/>
<path fill-rule="evenodd" clip-rule="evenodd" d="M31.9899 0.984618C26.5772 0.984618 22.1853 5.39461 22.1853 10.8397C22.1853 16.2848 26.5772 20.6948 31.9899 20.6948C37.4025 20.6948 41.7944 16.2848 41.7944 10.8397C41.7944 5.39461 37.4025 0.984618 31.9899 0.984618ZM21.2007 10.8397C21.2007 4.85537 26.0289 0 31.9899 0C37.9508 0 42.779 4.85537 42.779 10.8397C42.779 16.824 37.9508 21.6794 31.9899 21.6794C26.0289 21.6794 21.2007 16.824 21.2007 10.8397Z" fill="#204ECF"/>
<path fill-rule="evenodd" clip-rule="evenodd" d="M9.50335 45.8918C4.80079 45.8918 0.984618 49.7228 0.984618 54.4535C0.984618 59.1842 4.80079 63.0152 9.50335 63.0152C14.2059 63.0152 18.0221 59.1842 18.0221 54.4535C18.0221 49.7228 14.2059 45.8918 9.50335 45.8918ZM0 54.4535C0 49.1834 4.25259 44.9072 9.50335 44.9072C14.7541 44.9072 19.0067 49.1834 19.0067 54.4535C19.0067 59.7236 14.7541 63.9998 9.50335 63.9998C4.25259 63.9998 0 59.7236 0 54.4535Z" fill="#204ECF"/>
<path fill-rule="evenodd" clip-rule="evenodd" d="M9.50335 50.135C8.57926 50.135 7.82519 50.8894 7.82519 51.826C7.82519 52.7626 8.57926 53.517 9.50335 53.517C10.4274 53.517 11.1815 52.7626 11.1815 51.826C11.1815 50.8894 10.4274 50.135 9.50335 50.135ZM6.84058 51.826C6.84058 50.351 8.03001 49.1504 9.50335 49.1504C10.9767 49.1504 12.1661 50.351 12.1661 51.826C12.1661 53.301 10.9767 54.5016 9.50335 54.5016C8.03001 54.5016 6.84058 53.301 6.84058 51.826Z" fill="#204ECF"/>
<path fill-rule="evenodd" clip-rule="evenodd" d="M30.7036 12.8365L35.5007 7.78955L36.2144 8.46789L30.7043 14.265L27.7655 11.1793L28.4785 10.5002L30.7036 12.8365ZM9.49304 56.6947C7.95811 56.6947 6.65022 57.8198 6.40989 59.342L5.43732 59.1884C5.75246 57.1924 7.46883 55.7101 9.49304 55.7101C10.5079 55.7101 11.4442 56.0745 12.1697 56.6983C12.8914 57.3189 13.4071 58.1886 13.5595 59.1912L12.5861 59.3392C12.471 58.5827 12.0815 57.921 11.5277 57.4448C10.9776 56.9718 10.268 56.6947 9.49304 56.6947Z" fill="#204ECF"/>
<path fill-rule="evenodd" clip-rule="evenodd" d="M31.9898 50.135C31.0657 50.135 30.3116 50.8894 30.3116 51.826C30.3116 52.7626 31.0657 53.517 31.9898 53.517C32.9139 53.517 33.668 52.7626 33.668 51.826C33.668 50.8894 32.9139 50.135 31.9898 50.135ZM29.327 51.826C29.327 50.351 30.5165 49.1504 31.9898 49.1504C33.4631 49.1504 34.6526 50.351 34.6526 51.826C34.6526 53.301 33.4631 54.5016 31.9898 54.5016C30.5165 54.5016 29.327 53.301 29.327 51.826Z" fill="#204ECF"/>
<path fill-rule="evenodd" clip-rule="evenodd" d="M31.9796 56.6951C30.4446 56.6951 29.1367 57.8202 28.8964 59.3424L27.9238 59.1888C28.239 57.1928 29.9553 55.7104 31.9796 55.7104C32.9944 55.7104 33.9307 56.0749 34.6562 56.6987C35.3779 57.3193 35.8936 58.189 36.046 59.1916L35.0726 59.3396C34.9575 58.5831 34.568 57.9214 34.0142 57.4452C33.4641 56.9722 32.7545 56.6951 31.9796 56.6951Z" fill="#204ECF"/>
<path fill-rule="evenodd" clip-rule="evenodd" d="M32.0001 45.8918C27.2976 45.8918 23.4814 49.7228 23.4814 54.4535C23.4814 59.1842 27.2976 63.0152 32.0001 63.0152C36.7027 63.0152 40.5189 59.1842 40.5189 54.4535C40.5189 49.7228 36.7027 45.8918 32.0001 45.8918ZM22.4968 54.4535C22.4968 49.1834 26.7494 44.9072 32.0001 44.9072C37.2509 44.9072 41.5035 49.1834 41.5035 54.4535C41.5035 59.7236 37.2509 63.9998 32.0001 63.9998C26.7494 63.9998 22.4968 59.7236 22.4968 54.4535Z" fill="#204ECF"/>
<path fill-rule="evenodd" clip-rule="evenodd" d="M54.4762 50.135C53.5521 50.135 52.798 50.8894 52.798 51.826C52.798 52.7626 53.5521 53.517 54.4762 53.517C55.4003 53.517 56.1544 52.7626 56.1544 51.826C56.1544 50.8894 55.4003 50.135 54.4762 50.135ZM51.8134 51.826C51.8134 50.351 53.0029 49.1504 54.4762 49.1504C55.9495 49.1504 57.139 50.351 57.139 51.826C57.139 53.301 55.9495 54.5016 54.4762 54.5016C53.0029 54.5016 51.8134 53.301 51.8134 51.826Z" fill="#204ECF"/>
<path fill-rule="evenodd" clip-rule="evenodd" d="M54.4763 56.6951C52.9413 56.6951 51.6334 57.8202 51.3931 59.3424L50.4205 59.1888C50.7357 57.1928 52.452 55.7104 54.4763 55.7104C55.4912 55.7104 56.4275 56.0749 57.1529 56.6987C57.8746 57.3193 58.3903 58.189 58.5427 59.1916L57.5693 59.3396C57.4543 58.5831 57.0647 57.9214 56.5109 57.4452C55.9608 56.9722 55.2512 56.6951 54.4763 56.6951Z" fill="#204ECF"/>
<path fill-rule="evenodd" clip-rule="evenodd" d="M54.4968 45.8918C49.7943 45.8918 45.9781 49.7228 45.9781 54.4535C45.9781 59.1842 49.7943 63.0152 54.4968 63.0152C59.1994 63.0152 63.0156 59.1842 63.0156 54.4535C63.0156 49.7228 59.1994 45.8918 54.4968 45.8918ZM44.9935 54.4535C44.9935 49.1834 49.2461 44.9072 54.4968 44.9072C59.7476 44.9072 64.0002 49.1834 64.0002 54.4535C64.0002 59.7236 59.7476 63.9998 54.4968 63.9998C49.2461 63.9998 44.9935 59.7236 44.9935 54.4535Z" fill="#204ECF"/>
<path fill-rule="evenodd" clip-rule="evenodd" d="M26.92 32.801V23.9082H27.9047V33.7856H9.99573V40.8055H9.01111V32.801H26.92ZM36.1368 23.9082H37.1214V32.801H55.0303V40.8055H54.0457V33.7856H36.1368V23.9082ZM31.4975 40.8055V24.8705H32.4821V40.8055H31.4975Z" fill="#204ECF"/>
</g>
<defs>
<clipPath id="clip0_421_548">
<rect width="64" height="64" fill="white"/>
</clipPath>
</defs>
</svg>
