<svg width="64" height="64" viewBox="0 0 64 64" fill="none" xmlns="http://www.w3.org/2000/svg">
<g clip-path="url(#clip0_1187_1193)">
<path opacity="0.15" d="M28.05 29H12.5C12.5 24.31 16.31 20.5 21 20.5C25.25 20.5 28.76 23.62 29.39 27.7C32.64 24.8 36.81 22.93 41.42 22.58C41.46 22.06 41.5 21.53 41.5 21C41.5 20.52 41.48 20.04 41.45 19.56C40.71 8.91 31.84 0.5 21 0.5C10.16 0.5 0.5 9.68 0.5 21C0.5 32.32 9.68 41.5 21 41.5C21.53 41.5 22.06 41.46 22.58 41.42C22.95 36.63 24.96 32.3 28.05 29ZM21 7.5C24.04 7.5 26.5 9.96 26.5 13C26.5 16.04 24.04 18.5 21 18.5C17.96 18.5 15.5 16.04 15.5 13C15.5 9.96 17.96 7.5 21 7.5Z" fill="#183A9C"/>
<path opacity="0.15" d="M34.33 43L31 46.33L39 54.33L55 38.33L51.67 35L39 47.67L34.33 43Z" fill="#183A9C"/>
<path d="M21 18.5C24.0376 18.5 26.5 16.0376 26.5 13C26.5 9.96243 24.0376 7.5 21 7.5C17.9624 7.5 15.5 9.96243 15.5 13C15.5 16.0376 17.9624 18.5 21 18.5Z" stroke="#204ECD" stroke-miterlimit="10"/>
<path d="M12.5 29C12.5 24.31 16.31 20.5 21 20.5C25.69 20.5 29.5 24.31 29.5 29" stroke="#204ECD" stroke-miterlimit="10"/>
<path d="M22.58 41.44C22.06 41.48 21.53 41.5 21 41.5C9.68 41.5 0.5 32.32 0.5 21C0.5 9.68 9.68 0.5 21 0.5C32.32 0.5 40.71 8.91 41.45 19.56" stroke="#204ECD" stroke-miterlimit="10"/>
<path d="M34.33 43L31 46.33L39 54.33L55 38.33L51.67 35L39 47.67L34.33 43Z" stroke="#204ECD" stroke-miterlimit="10"/>
<path d="M43 63.5C54.3218 63.5 63.5 54.3218 63.5 43C63.5 31.6782 54.3218 22.5 43 22.5C31.6782 22.5 22.5 31.6782 22.5 43C22.5 54.3218 31.6782 63.5 43 63.5Z" stroke="#204ECD" stroke-miterlimit="10"/>
</g>
<defs>
<clipPath id="clip0_1187_1193">
<rect width="64" height="64" fill="white"/>
</clipPath>
</defs>
</svg>
