<svg width="64" height="64" viewBox="0 0 64 64" fill="none" xmlns="http://www.w3.org/2000/svg">
<g clip-path="url(#clip0_20_3630)">
<path opacity="0.15" d="M63.5 57.7676H0.545319V63.5H63.5V57.7676Z" fill="#183A9E"/>
<path opacity="0.15" d="M31.9773 10.9464C34.861 10.9464 37.1987 8.6087 37.1987 5.72502C37.1987 2.84134 34.861 0.503662 31.9773 0.503662C29.0937 0.503662 26.756 2.84134 26.756 5.72502C26.756 8.6087 29.0937 10.9464 31.9773 10.9464Z" fill="#183A9E"/>
<path opacity="0.15" d="M31.9773 10.9536C29.181 10.9536 26.4992 12.0645 24.5218 14.0418C22.5445 16.0192 21.4337 18.701 21.4337 21.4974H42.5211C42.5211 20.1128 42.2484 18.7417 41.7185 17.4624C41.1887 16.1832 40.412 15.0209 39.4329 14.0418C38.4538 13.0627 37.2915 12.2861 36.0123 11.7562C34.733 11.2263 33.362 10.9536 31.9773 10.9536V10.9536Z" fill="#183A9E"/>
<path d="M31.9775 11.4502C30.8451 11.451 29.7378 11.1159 28.7958 10.4872C27.8538 9.85864 27.1194 8.96477 26.6855 7.91871C26.2515 6.87266 26.1376 5.72141 26.3581 4.61059C26.5785 3.49977 27.1235 2.47929 27.924 1.67823C28.7245 0.877168 29.7446 0.331517 30.8553 0.110295C31.966 -0.110926 33.1173 0.00222135 34.1636 0.435425C35.21 0.86863 36.1044 1.60243 36.7336 2.544C37.3629 3.48557 37.6987 4.59262 37.6987 5.7251C37.6974 7.24242 37.0944 8.69727 36.0218 9.77055C34.9493 10.8438 33.4949 11.4479 31.9775 11.4502V11.4502ZM31.9775 1C31.0428 0.999228 30.1289 1.27569 29.3514 1.79442C28.5738 2.31315 27.9676 3.05084 27.6093 3.91417C27.2511 4.7775 27.157 5.72769 27.3389 6.64452C27.5207 7.56136 27.9704 8.40366 28.6311 9.06487C29.2918 9.72607 30.1337 10.1765 31.0504 10.3591C31.9671 10.5418 32.9173 10.4484 33.781 10.0909C34.6446 9.73338 35.3828 9.12775 35.9021 8.35063C36.4215 7.57351 36.6987 6.6598 36.6987 5.7251C36.6978 4.4729 36.2002 3.2722 35.3151 2.38639C34.43 1.50058 33.2297 1.002 31.9775 1V1Z" fill="#204ECF"/>
<path d="M43.0195 21.5H42.0195C42.0209 20.1804 41.7621 18.8735 41.258 17.6539C40.7539 16.4344 40.0144 15.3262 39.0818 14.3926C38.1491 13.459 37.0416 12.7184 35.8226 12.2131C34.6036 11.7078 33.2969 11.4478 31.9773 11.4478C30.6577 11.4478 29.351 11.7078 28.132 12.2131C26.913 12.7184 25.8055 13.459 24.8728 14.3926C23.9402 15.3262 23.2007 16.4344 22.6966 17.6539C22.1925 18.8735 21.9337 20.1804 21.9351 21.5H20.9351C20.9337 20.049 21.2183 18.612 21.7726 17.2711C22.3269 15.9302 23.14 14.7117 24.1655 13.6852C25.191 12.6587 26.4088 11.8444 27.7492 11.2888C29.0896 10.7332 30.5263 10.4473 31.9773 10.4473C33.4283 10.4473 34.865 10.7332 36.2054 11.2888C37.5458 11.8444 38.7636 12.6587 39.7891 13.6852C40.8146 14.7117 41.6277 15.9302 42.182 17.2711C42.7363 18.612 43.0209 20.049 43.0195 21.5V21.5Z" fill="#204ECF"/>
<path d="M63.9546 64H0V21H63.9546V64ZM1 63H62.9546V22H1V63Z" fill="#204ECF"/>
<path d="M22.1509 54.9136C20.0083 54.9145 17.9019 54.3609 16.0367 53.3066C14.1715 52.2523 12.6109 50.7331 11.5068 48.8969C10.4027 47.0607 9.79266 44.97 9.73601 42.8282C9.67937 40.6863 10.1781 38.5663 11.1836 36.6743C12.1891 34.7823 13.6672 33.1828 15.4741 32.0314C17.281 30.8799 19.3551 30.2158 21.4948 30.1035C23.6344 29.9912 25.7667 30.4346 27.6841 31.3907C29.6016 32.3467 31.239 33.7827 32.437 35.5591L31.6079 36.1186C30.243 34.0946 28.265 32.5616 25.9646 31.7447C23.6641 30.9277 21.1623 30.8699 18.8265 31.5797C16.4907 32.2895 14.4441 33.7296 12.9872 35.6884C11.5302 37.6471 10.7397 40.0215 10.7317 42.4627C10.7237 44.9039 11.4986 47.2834 12.9427 49.2517C14.3868 51.22 16.424 52.6734 18.7551 53.3985C21.0861 54.1236 23.5883 54.0822 25.894 53.2803C28.1998 52.4784 30.1878 50.9584 31.5659 48.9434L32.3911 49.5078C31.2525 51.1737 29.7248 52.5367 27.9403 53.4787C26.1559 54.4206 24.1687 54.9132 22.1509 54.9136V54.9136Z" fill="#204ECF"/>
<path d="M41.178 45.6901L37.709 42.2191L38.417 41.5121L41.178 44.2751L45.34 40.1101L46.047 40.8171L41.178 45.6901Z" fill="#204ECF"/>
<path d="M41.8037 54.9136C39.3482 54.9153 36.9473 54.1887 34.9047 52.8258C32.8621 51.4628 31.2697 49.5247 30.3288 47.2566C29.3879 44.9884 29.1408 42.4922 29.6188 40.0836C30.0968 37.675 31.2784 35.4623 33.0141 33.7254C34.7498 31.9884 36.9617 30.8053 39.3699 30.3256C41.7782 29.8459 44.2746 30.0912 46.5434 31.0305C48.8122 31.9698 50.7514 33.5609 52.1158 35.6025C53.4802 37.6441 54.2085 40.0445 54.2085 42.5C54.2059 45.79 52.8984 48.9446 50.5729 51.2717C48.2473 53.5989 45.0937 54.9086 41.8037 54.9136V54.9136ZM41.8037 31.0864C39.5459 31.0847 37.3384 31.7526 35.4603 33.0057C33.5822 34.2588 32.1179 36.0407 31.2527 38.1261C30.3875 40.2115 30.1602 42.5067 30.5996 44.7213C31.039 46.9359 32.1253 48.9704 33.7212 50.5675C35.3171 52.1646 37.3508 53.2525 39.565 53.6936C41.7793 54.1347 44.0746 53.9092 46.1607 53.0456C48.2467 52.182 50.0298 50.7191 51.2843 48.8419C52.5389 46.9648 53.2085 44.7578 53.2085 42.5C53.2062 39.4751 52.0042 36.5747 49.8661 34.435C47.7281 32.2953 44.8286 31.091 41.8037 31.0864V31.0864Z" fill="#204ECF"/>
<path d="M27.667 43.0001H21.872V34.5581H22.872V42.0001H27.667V43.0001Z" fill="#204ECF"/>
</g>
<defs>
<clipPath id="clip0_20_3630">
<rect width="64" height="64" fill="white"/>
</clipPath>
</defs>
</svg>
