<svg width="64" height="65" viewBox="0 0 64 64" fill="none" xmlns="http://www.w3.org/2000/svg">
<g clip-path="url(#clip0_20_3796)">
<path opacity="0.3" d="M32 16.872C36.3736 16.872 39.9191 13.3264 39.9191 8.95282C39.9191 4.57921 36.3736 1.03369 32 1.03369C27.6264 1.03369 24.0809 4.57921 24.0809 8.95282C24.0809 13.3264 27.6264 16.872 32 16.872Z" fill="#231F20"/>
<path opacity="0.3" d="M31.9999 19.978C29.9002 19.978 27.8211 20.3916 25.8813 21.1951C23.9415 21.9986 22.1789 23.1764 20.6942 24.661C19.2096 26.1457 18.0318 27.9083 17.2284 29.8481C16.4249 31.788 16.0113 33.8671 16.0113 35.9667H47.9886C47.9886 33.8671 47.575 31.788 46.7715 29.8481C45.968 27.9083 44.7903 26.1457 43.3056 24.661C41.8209 23.1763 40.0583 21.9986 38.1185 21.1951C36.1787 20.3916 34.0995 19.978 31.9999 19.978V19.978Z" fill="#231F20"/>
<path d="M59.768 48.676H54.232V47.676H59.019L62.299 36.467H1.701L4.981 47.676H9.768V48.676H4.232L0.365997 35.467H63.634L59.768 48.676Z" fill="white"/>
<path d="M32 17.3721C30.3348 17.3722 28.7069 16.8785 27.3223 15.9534C25.9377 15.0283 24.8584 13.7134 24.2211 12.1749C23.5838 10.6365 23.417 8.9436 23.7418 7.31036C24.0667 5.67712 24.8685 4.17688 26.046 2.99936C27.2234 1.82183 28.7236 1.01992 30.3568 0.695015C31.9901 0.370115 33.683 0.536823 35.2214 1.17406C36.7599 1.8113 38.0749 2.89044 39 4.27502C39.9252 5.6596 40.419 7.28743 40.419 8.95266C40.4165 11.1848 39.5287 13.3248 37.9504 14.9032C36.3721 16.4816 34.2321 17.3695 32 17.3721V17.3721ZM32 1.53322C30.5325 1.53313 29.098 1.9682 27.8779 2.7834C26.6577 3.59861 25.7066 4.75734 25.145 6.11306C24.5834 7.46877 24.4364 8.96059 24.7226 10.3998C25.0089 11.8391 25.7155 13.1612 26.7531 14.1988C27.7907 15.2365 29.1127 15.9432 30.5519 16.2295C31.9912 16.5158 33.483 16.3689 34.8387 15.8074C36.1945 15.2458 37.3533 14.2949 38.1686 13.0747C38.9838 11.8546 39.419 10.4201 39.419 8.95266C39.4169 6.98563 38.6346 5.09976 37.2437 3.70882C35.8528 2.31788 33.967 1.53546 32 1.53322V1.53322Z" fill="white"/>
<path d="M48.4883 35.9673H47.4883C47.4883 31.8595 45.8565 27.92 42.9519 25.0154C40.0473 22.1108 36.1077 20.479 32 20.479C27.8923 20.479 23.9527 22.1108 21.0481 25.0154C18.1435 27.92 16.5117 31.8595 16.5117 35.9673H15.5117C15.5117 31.5943 17.2489 27.4005 20.341 24.3083C23.4332 21.2162 27.627 19.479 32 19.479C36.373 19.479 40.5668 21.2162 43.659 24.3083C46.7511 27.4005 48.4883 31.5943 48.4883 35.9673V35.9673Z" fill="white"/>
<path d="M54.732 64.033H53.732V44.408H10.268V64.033H9.26801V43.408H54.732V64.033Z" fill="white"/>
</g>
<defs>
<clipPath id="clip0_20_3796">
<rect width="64" height="64.0332" fill="white"/>
</clipPath>
</defs>
</svg>
