<svg width="64" height="64" viewBox="0 0 64 64" fill="none" xmlns="http://www.w3.org/2000/svg">
<g clip-path="url(#clip0_20_4047)">
<path opacity="0.3" d="M34.3104 54.7153C35.1667 54.9096 36.0634 54.8105 36.8567 54.434C37.0144 54.3592 37.1885 54.3255 37.3627 54.3362C37.5369 54.3468 37.7056 54.4015 37.853 54.495C38.0004 54.5885 38.1217 54.7179 38.2055 54.871C38.2893 55.0241 38.333 55.196 38.3324 55.3706V63.5H63.5001V38.3323H55.3707C55.1961 38.3317 55.0242 38.3754 54.8711 38.4592C54.718 38.543 54.5886 38.6643 54.4951 38.8117C54.4016 38.9591 54.3469 39.1278 54.3362 39.302C54.3256 39.4763 54.3592 39.6504 54.4341 39.808C54.8106 40.6013 54.9097 41.498 54.7154 42.3543C54.5925 42.8883 54.3584 43.3905 54.0283 43.8279C53.6982 44.2653 53.2795 44.6282 52.7996 44.8928C52.3198 45.1575 51.7895 45.3179 51.2434 45.3637C50.6973 45.4094 50.1477 45.3395 49.6304 45.1584C49.1132 44.9774 48.64 44.6893 48.2416 44.3129C47.8433 43.9365 47.5289 43.4804 47.3188 42.9742C47.1088 42.4681 47.0078 41.9233 47.0226 41.3755C47.0374 40.8277 47.1675 40.2891 47.4046 39.7951C47.4775 39.6374 47.5094 39.4639 47.4972 39.2907C47.4851 39.1174 47.4294 38.9501 47.3353 38.8041C47.2411 38.6582 47.1116 38.5384 46.9588 38.4559C46.806 38.3734 46.6348 38.3309 46.4611 38.3323H38.3324V46.461C38.3338 46.6347 38.2913 46.8059 38.2088 46.9587C38.1263 47.1115 38.0065 47.241 37.8606 47.3352C37.7147 47.4293 37.5473 47.485 37.374 47.4971C37.2008 47.5093 37.0273 47.4774 36.8697 47.4045C36.3756 47.1674 35.837 47.0372 35.2892 47.0224C34.7413 47.0075 34.1965 47.1085 33.6903 47.3185C33.1841 47.5285 32.7279 47.843 32.3515 48.2413C31.9751 48.6397 31.687 49.1129 31.5059 49.6302C31.3248 50.1475 31.2549 50.6971 31.3007 51.2432C31.3465 51.7894 31.5069 52.3197 31.7716 52.7996C32.0363 53.2795 32.3992 53.6981 32.8367 54.0283C33.2741 54.3584 33.7763 54.5925 34.3104 54.7153V54.7153Z" fill="#231F20"/>
<path d="M26.1676 25.6675H25.1676V17.5381C25.167 17.2791 25.2321 17.0241 25.3568 16.7971C25.4814 16.57 25.6616 16.3782 25.8804 16.2396C26.0993 16.1011 26.3496 16.0202 26.6082 16.0046C26.8668 15.989 27.1251 16.0391 27.359 16.1504C28.0521 16.481 28.837 16.5667 29.5852 16.3935C30.3334 16.2203 31.0006 15.7983 31.478 15.1967C31.9553 14.5951 32.2144 13.8493 32.2129 13.0813C32.2114 12.3133 31.9494 11.5685 31.4698 10.9688C30.9851 10.3761 30.317 9.96141 29.5707 9.7901C28.8245 9.61878 28.0424 9.70053 27.3477 10.0225C27.1181 10.1336 26.864 10.1843 26.6093 10.1696C26.3546 10.1548 26.1079 10.0753 25.8927 9.93846C25.6703 9.79999 25.487 9.60702 25.3601 9.37783C25.2332 9.14865 25.1669 8.89086 25.1676 8.62889V1H1.00009V25.6675H9.15527e-05V0H26.1676V8.62891C26.1674 8.72156 26.1909 8.81273 26.2358 8.89375C26.2808 8.97476 26.3457 9.04294 26.4244 9.0918C26.4966 9.13801 26.5793 9.16504 26.6649 9.17034C26.7504 9.17563 26.8359 9.15902 26.9132 9.12207C27.81 8.6913 28.8265 8.57773 29.7963 8.79993C30.7661 9.02213 31.6317 9.56695 32.2516 10.3452C32.8723 11.1219 33.2111 12.0862 33.2128 13.0805C33.2145 14.0747 32.8788 15.0402 32.2607 15.8189C31.6426 16.5977 30.7786 17.1438 29.8099 17.3679C28.8412 17.592 27.8252 17.4809 26.9278 17.0527C26.8475 17.0133 26.7583 16.9954 26.6689 17.0007C26.5796 17.006 26.4932 17.0344 26.4181 17.083C26.3406 17.1308 26.2768 17.1978 26.2329 17.2776C26.189 17.3573 26.1665 17.4471 26.1676 17.5381V25.6675Z" fill="white"/>
<path d="M38.2579 33.2075C37.6802 33.2087 37.108 33.0958 36.574 32.8755C36.0399 32.6552 35.5546 32.3317 35.1458 31.9235C34.7369 31.5154 34.4126 31.0306 34.1914 30.4969C33.9702 29.9633 33.8564 29.3912 33.8566 28.8135C33.8549 28.1554 34.003 27.5055 34.2897 26.9131C34.3268 26.8359 34.3436 26.7504 34.3383 26.6648C34.333 26.5792 34.3058 26.4964 34.2594 26.4244C34.2105 26.3456 34.1424 26.2807 34.0613 26.2358C33.9803 26.1908 33.8892 26.1673 33.7965 26.1675H25.1676V17.5391C25.1669 17.2771 25.2331 17.0193 25.36 16.7901C25.4869 16.5609 25.6703 16.3679 25.8927 16.2295C26.108 16.0927 26.3547 16.0131 26.6093 15.9984C26.864 15.9837 27.1182 16.0343 27.3478 16.1455C27.9278 16.4224 28.5744 16.5293 29.2126 16.4536C29.8508 16.378 30.4545 16.123 30.9537 15.7182C31.4529 15.3134 31.8272 14.7754 32.033 14.1665C32.2389 13.5577 32.2679 12.903 32.1168 12.2783C31.9695 11.6663 31.6543 11.1075 31.2067 10.6649C30.7591 10.2222 30.1968 9.91336 29.5831 9.773C28.8353 9.603 28.0521 9.68898 27.359 10.0171C27.1251 10.1284 26.8668 10.1786 26.6082 10.1629C26.3497 10.1473 26.0993 10.0665 25.8804 9.92789C25.6616 9.78931 25.4815 9.59753 25.3568 9.37047C25.2321 9.14341 25.1671 8.88847 25.1676 8.62944V0H51.3356V26.1675H42.7062C42.615 26.1665 42.5252 26.1891 42.4454 26.233C42.3655 26.277 42.2984 26.3409 42.2506 26.4185C42.202 26.4935 42.1738 26.5799 42.1685 26.6692C42.1633 26.7584 42.1813 26.8475 42.2208 26.9277C42.6458 27.8213 42.758 28.8319 42.5392 29.7969V29.7969C42.3564 30.595 41.9545 31.3262 41.3787 31.9082C40.8029 32.4903 40.076 32.9 39.2799 33.0913C38.9447 33.1682 38.6019 33.2071 38.2579 33.2075V33.2075ZM26.1676 25.1675H33.7965C34.0585 25.1669 34.3163 25.2331 34.5455 25.36C34.7746 25.4869 34.9676 25.6702 35.1061 25.8926C35.2429 26.1079 35.3224 26.3546 35.3371 26.6092C35.3518 26.8639 35.3012 27.1181 35.1901 27.3477C34.8579 28.0404 34.7707 28.8253 34.9427 29.5741C35.1147 30.3228 35.5357 30.991 36.1369 31.4693C36.5433 31.7904 37.0171 32.0155 37.5229 32.1276C38.0286 32.2398 38.5532 32.236 39.0573 32.1167C39.6693 31.9694 40.228 31.6542 40.6707 31.2066C41.1133 30.7589 41.4222 30.1966 41.5626 29.583C41.7329 28.8352 41.6469 28.0519 41.3185 27.3589C41.2072 27.125 41.157 26.8667 41.1725 26.6081C41.1881 26.3495 41.269 26.0991 41.4076 25.8802C41.5462 25.6614 41.738 25.4812 41.9651 25.3566C42.1922 25.2319 42.4471 25.1669 42.7062 25.1675H50.3356V1H26.1676V8.62939C26.1665 8.72041 26.189 8.81015 26.2329 8.8899C26.2768 8.96964 26.3406 9.03667 26.418 9.08447C26.4933 9.13313 26.5798 9.16149 26.6692 9.1668C26.7586 9.1721 26.8479 9.15417 26.9283 9.11475C27.5238 8.83188 28.1753 8.68661 28.8345 8.68969C29.4937 8.69277 30.1438 8.84412 30.7366 9.13254C31.3294 9.42096 31.8498 9.83905 32.2591 10.3558C32.6684 10.8726 32.9561 11.4749 33.1011 12.118C33.2461 12.7611 33.2445 13.4286 33.0965 14.071C32.9484 14.7134 32.6578 15.3143 32.246 15.8291C31.8343 16.344 31.312 16.7596 30.7178 17.0452C30.1237 17.3308 29.4728 17.4791 28.8136 17.479C28.1555 17.4807 27.5056 17.3326 26.9132 17.0459C26.8359 17.009 26.7504 16.9923 26.6649 16.9976C26.5794 17.0029 26.4966 17.03 26.4244 17.0762C26.3457 17.125 26.2808 17.1932 26.2358 17.2742C26.1909 17.3552 26.1674 17.4464 26.1676 17.5391V25.1675Z" fill="white"/>
<path d="M64.0001 64H37.8326V55.3706C37.8331 55.2805 37.8107 55.1917 37.7676 55.1126C37.7245 55.0335 37.6621 54.9665 37.5861 54.9181C37.5101 54.8696 37.4231 54.8412 37.3332 54.8354C37.2433 54.8297 37.1534 54.8468 37.0718 54.8853C36.4764 55.1681 35.8249 55.3134 35.1656 55.3103C34.5064 55.3072 33.8563 55.1559 33.2635 54.8675C32.6707 54.579 32.1504 54.1609 31.7411 53.6441C31.3318 53.1273 31.044 52.5251 30.8991 51.882C30.7541 51.2389 30.7557 50.5714 30.9037 49.929C31.0517 49.2866 31.3424 48.6857 31.7541 48.1708C32.1659 47.656 32.6882 47.2404 33.2824 46.9548C33.8765 46.6692 34.5274 46.5209 35.1866 46.521C35.8447 46.5193 36.4946 46.6674 37.087 46.9541C37.1643 46.9911 37.2498 47.0078 37.3353 47.0025C37.4209 46.9972 37.5036 46.9701 37.5758 46.9238C37.6545 46.875 37.7194 46.8068 37.7644 46.7258C37.8093 46.6448 37.8328 46.5536 37.8326 46.4609V37.8325H46.461C46.723 37.8319 46.9809 37.8981 47.2101 38.025C47.4394 38.1519 47.6325 38.3352 47.771 38.5576C47.9075 38.773 47.9869 39.0196 48.0015 39.2741C48.0161 39.5286 47.9655 39.7827 47.8545 40.0122C47.5224 40.7049 47.4352 41.4898 47.6072 42.2386C47.7791 42.9873 48.2002 43.6555 48.8013 44.1338C49.2077 44.4551 49.6815 44.6802 50.1873 44.7923C50.6931 44.9044 51.2176 44.9007 51.7217 44.7813C52.3337 44.6339 52.8925 44.3187 53.3351 43.8711C53.7777 43.4235 54.0867 42.8612 54.2271 42.2476C54.3974 41.4998 54.3114 40.7165 53.983 40.0234C53.8717 39.7896 53.8216 39.5313 53.8372 39.2728C53.8529 39.0143 53.9338 38.7639 54.0723 38.5451C54.2109 38.3263 54.4027 38.1462 54.6297 38.0216C54.8567 37.897 55.1117 37.8319 55.3706 37.8325H64L64.0001 64ZM38.8326 63H63.0001V38.8325H55.3707C55.2796 38.8315 55.1898 38.8541 55.11 38.8979C55.0302 38.9418 54.9631 39.0056 54.9151 39.083C54.8667 39.1583 54.8386 39.2447 54.8334 39.334C54.8282 39.4233 54.8461 39.5124 54.8853 39.5928C55.1682 40.1883 55.3135 40.8397 55.3104 41.499C55.3073 42.1582 55.156 42.8083 54.8675 43.4011C54.5791 43.9939 54.161 44.5143 53.6442 44.9236C53.1274 45.3329 52.5252 45.6207 51.882 45.7656C51.2389 45.9106 50.5714 45.909 49.929 45.7609C49.2866 45.6129 48.6857 45.3223 48.1709 44.9105C47.656 44.4987 47.2404 43.9764 46.9548 43.3823C46.6692 42.7881 46.521 42.1373 46.5211 41.478C46.5194 40.8199 46.6675 40.17 46.9542 39.5776C46.9913 39.5004 47.008 39.415 47.0027 39.3295C46.9974 39.244 46.9703 39.1613 46.9239 39.0893C46.875 39.0107 46.8068 38.9458 46.7258 38.9009C46.6448 38.8559 46.5536 38.8324 46.461 38.8325H38.8326V46.4609C38.8333 46.7229 38.767 46.9807 38.6401 47.2099C38.5132 47.439 38.3299 47.632 38.1075 47.7705C37.8922 47.9073 37.6455 47.9869 37.3909 48.0016C37.1362 48.0163 36.882 47.9656 36.6524 47.8545C36.0724 47.5776 35.4258 47.4707 34.7876 47.5463C34.1494 47.622 33.5456 47.877 33.0464 48.2818C32.5472 48.6866 32.173 49.2246 31.9672 49.8334C31.7613 50.4423 31.7323 51.097 31.8834 51.7217C32.0307 52.3338 32.3459 52.8927 32.7937 53.3353C33.2414 53.7779 33.8038 54.0868 34.4176 54.227V54.227C35.1652 54.3975 35.9484 54.3115 36.6412 53.9829C36.8751 53.8717 37.1334 53.8215 37.392 53.8371C37.6506 53.8527 37.9009 53.9336 38.1198 54.0722C38.3386 54.2107 38.5188 54.4025 38.6434 54.6296C38.7681 54.8566 38.8332 55.1116 38.8326 55.3706L38.8326 63Z" fill="white"/>
<path d="M26.1676 51.3355H9.15527e-05V25.1675H8.62948C8.72056 25.1685 8.81035 25.1459 8.89016 25.1021C8.96997 25.0582 9.0371 24.9944 9.08505 24.917C9.13342 24.8417 9.16156 24.7553 9.16678 24.666C9.172 24.5767 9.15411 24.4876 9.11483 24.4072C8.6898 23.5138 8.57767 22.5034 8.79647 21.5386V21.5386C9.03829 20.4857 9.65926 19.5587 10.5409 18.9343C11.4225 18.31 12.5032 18.0321 13.5766 18.1536C14.65 18.2752 15.6412 18.7876 16.361 19.5932C17.0807 20.3988 17.4788 21.4412 17.4791 22.5215C17.4809 23.1798 17.3327 23.8298 17.046 24.4224C17.0088 24.4995 16.9921 24.585 16.9974 24.6704C17.0027 24.7559 17.0299 24.8386 17.0763 24.9106C17.1252 24.9893 17.1934 25.0542 17.2744 25.0991C17.3554 25.144 17.4465 25.1676 17.5392 25.1675H26.1676V33.7964C26.1682 34.0584 26.102 34.3163 25.9751 34.5455C25.8482 34.7748 25.6649 34.9679 25.4425 35.1064C25.2272 35.2431 24.9806 35.3224 24.726 35.337C24.4715 35.3517 24.2174 35.301 23.9879 35.1899C23.4079 34.9129 22.7613 34.806 22.123 34.8816C21.4847 34.9572 20.8809 35.2121 20.3817 35.617C19.8825 36.0218 19.5083 36.5599 19.3024 37.1688C19.0966 37.7777 19.0676 38.4324 19.2189 39.0571C19.3662 39.6691 19.6814 40.2279 20.129 40.6705C20.5767 41.1131 21.1389 41.422 21.7526 41.5625C22.5004 41.7322 23.2835 41.6463 23.9767 41.3184C24.2106 41.2071 24.4689 41.1569 24.7274 41.1725C24.9859 41.1881 25.2363 41.269 25.4551 41.4076C25.6739 41.5462 25.854 41.738 25.9786 41.965C26.1032 42.1921 26.1682 42.447 26.1676 42.706L26.1676 51.3355ZM1.00009 50.3355H25.1676V42.7061C25.1686 42.6149 25.1461 42.5251 25.1021 42.4452C25.0581 42.3654 24.9942 42.2983 24.9166 42.2505C24.8416 42.202 24.7553 42.1738 24.6661 42.1686C24.5769 42.1634 24.4879 42.1813 24.4078 42.2207C23.8123 42.5036 23.1609 42.649 22.5016 42.6459C21.8424 42.6429 21.1923 42.4916 20.5994 42.2033C20.0066 41.9149 19.4862 41.4969 19.0769 40.9801C18.6675 40.4633 18.3797 39.8611 18.2347 39.218C18.0896 38.5749 18.0912 37.9074 18.2391 37.265C18.387 36.6226 18.6776 36.0217 19.0893 35.5068C19.501 34.9919 20.0232 34.5762 20.6174 34.2905C21.2115 34.0049 21.8623 33.8565 22.5216 33.8565C23.1798 33.8547 23.8299 34.0028 24.4224 34.2896C24.4997 34.3264 24.5851 34.343 24.6705 34.3377C24.7559 34.3324 24.8386 34.3054 24.9107 34.2593C24.9894 34.2104 25.0542 34.1422 25.0992 34.0612C25.1441 33.9802 25.1677 33.889 25.1676 33.7964V26.1675H17.5392C17.2771 26.1682 17.0193 26.1019 16.79 25.975C16.5607 25.8481 16.3677 25.6648 16.2291 25.4424C16.0926 25.2271 16.0133 24.9805 15.9987 24.7259C15.984 24.4714 16.0346 24.2173 16.1456 23.9878C16.4777 23.2951 16.5649 22.5103 16.393 21.7616C16.2212 21.0129 15.8003 20.3447 15.1993 19.8662C14.7929 19.5448 14.319 19.3196 13.8131 19.2075C13.3073 19.0954 12.7826 19.0992 12.2784 19.2188C11.6664 19.3661 11.1076 19.6813 10.665 20.1289C10.2224 20.5766 9.91344 21.1388 9.77299 21.7525C9.6027 22.5002 9.68868 23.2836 10.0171 23.9766C10.1284 24.2105 10.1785 24.4687 10.1628 24.7273C10.1472 24.9858 10.0663 25.2361 9.92776 25.4549C9.78918 25.6737 9.59742 25.8538 9.37038 25.9784C9.14334 26.103 8.88843 26.1681 8.62944 26.1675H1.00009V50.3355Z" fill="white"/>
</g>
<defs>
<clipPath id="clip0_20_4047">
<rect width="64.0001" height="64.0001" fill="white"/>
</clipPath>
</defs>
</svg>
