<svg width="64" height="64" viewBox="0 0 64 64" fill="none" xmlns="http://www.w3.org/2000/svg">
<g clip-path="url(#clip0_20_3841)">
<path opacity="0.15" d="M51.4789 5.93115H36.272V21.1381H51.4789V5.93115Z" fill="#183A9E"/>
<path opacity="0.15" d="M51.4789 24.3967H36.272V39.6036H51.4789V24.3967Z" fill="#183A9E"/>
<path opacity="0.15" d="M51.4789 42.8621H36.272V58.069H51.4789V42.8621Z" fill="#183A9E"/>
<path d="M57.4101 64H6.58978V0H57.4101V64ZM7.58978 63H56.4101V1H7.58978V63Z" fill="#204ECF"/>
<path d="M30.393 13.4438H14.538V14.4438H30.393V13.4438Z" fill="#204ECF"/>
<path d="M30.393 30.8232H14.538V31.8232H30.393V30.8232Z" fill="#204ECF"/>
<path d="M30.393 49.9653H14.538V50.9653H30.393V49.9653Z" fill="#204ECF"/>
<path d="M43.215 16.2831L39.925 12.9931L40.632 12.2861L43.215 14.8691L47.119 10.9651L47.826 11.6721L43.215 16.2831Z" fill="#204ECF"/>
<path d="M46.6988 28.4695L40.3445 34.8237L41.0516 35.5308L47.4058 29.1765L46.6988 28.4695Z" fill="#204ECF"/>
<path d="M41.0517 28.4693L40.3447 29.1763L46.6987 35.5308L47.4057 34.8238L41.0517 28.4693Z" fill="#204ECF"/>
<path d="M46.6987 46.9351L40.3447 53.2891L41.0517 53.9961L47.4057 47.6421L46.6987 46.9351Z" fill="#204ECF"/>
<path d="M41.0517 46.9351L40.3447 47.6421L46.6987 53.9961L47.4057 53.2891L41.0517 46.9351Z" fill="#204ECF"/>
</g>
<defs>
<clipPath id="clip0_20_3841">
<rect width="64" height="64.0001" fill="white"/>
</clipPath>
</defs>
</svg>
