<svg width="64" height="64" viewBox="0 0 64 64" fill="none" xmlns="http://www.w3.org/2000/svg">
<g clip-path="url(#clip0_1187_2187)">
<path opacity="0.3" d="M43.5 31.9998C43.5 31.1598 43.4 30.3398 43.23 29.5598L48.59 26.4698C47.83 24.2098 46.63 22.1598 45.08 20.4098L39.72 23.4998C38.51 22.3998 37.08 21.5598 35.49 21.0498V14.8598C34.36 14.6298 33.19 14.5098 31.99 14.5098C30.79 14.5098 29.62 14.6298 28.49 14.8598V21.0498C26.9 21.5598 25.47 22.4098 24.27 23.4998L18.91 20.4098C17.36 22.1598 16.16 24.1998 15.4 26.4698L20.76 29.5598C20.59 30.3498 20.49 31.1598 20.49 31.9998C20.49 32.8398 20.59 33.6598 20.76 34.4398L15.4 37.5298C16.16 39.7898 17.36 41.8398 18.91 43.5898L24.27 40.4998C25.47 41.5998 26.91 42.4398 28.49 42.9498V49.1398C29.62 49.3698 30.79 49.4898 31.99 49.4898C33.19 49.4898 34.36 49.3698 35.49 49.1398V42.9498C37.08 42.4398 38.51 41.5898 39.72 40.4998L45.08 43.5898C46.63 41.8398 47.83 39.7998 48.59 37.5298L43.23 34.4398C43.4 33.6498 43.5 32.8398 43.5 31.9998ZM32 36.4998C29.51 36.4998 27.5 34.4898 27.5 31.9998C27.5 29.5098 29.51 27.4998 32 27.4998C34.49 27.4998 36.5 29.5098 36.5 31.9998C36.5 34.4898 34.49 36.4998 32 36.4998Z" fill="black"/>
<path d="M32 36.5C34.4853 36.5 36.5 34.4853 36.5 32C36.5 29.5147 34.4853 27.5 32 27.5C29.5147 27.5 27.5 29.5147 27.5 32C27.5 34.4853 29.5147 36.5 32 36.5Z" stroke="white" stroke-miterlimit="10"/>
<path d="M45.08 20.4098L39.72 23.4998C38.51 22.3998 37.08 21.5598 35.49 21.0498V14.8598C34.36 14.6298 33.19 14.5098 31.99 14.5098C30.79 14.5098 29.62 14.6298 28.49 14.8598V21.0498C26.9 21.5598 25.47 22.4098 24.27 23.4998L18.91 20.4098C17.36 22.1598 16.16 24.1998 15.4 26.4698L20.76 29.5598C20.59 30.3498 20.49 31.1598 20.49 31.9998C20.49 32.8398 20.59 33.6598 20.76 34.4398L15.4 37.5298C16.16 39.7898 17.36 41.8398 18.91 43.5898L24.27 40.4998C25.47 41.5998 26.91 42.4398 28.49 42.9498V49.1398C29.62 49.3698 30.79 49.4898 31.99 49.4898C33.19 49.4898 34.36 49.3698 35.49 49.1398V42.9498C37.08 42.4398 38.51 41.5898 39.72 40.4998L45.08 43.5898C46.63 41.8398 47.83 39.7998 48.59 37.5298L43.23 34.4398C43.4 33.6498 43.5 32.8398 43.5 31.9998C43.5 31.1598 43.4 30.3398 43.23 29.5598L48.59 26.4698C47.83 24.2098 46.63 22.1598 45.08 20.4098Z" stroke="white" stroke-miterlimit="10"/>
<path d="M60.07 17.7002C62.26 21.9902 63.5 26.8502 63.5 32.0002C63.5 49.4002 49.4 63.5002 32 63.5002C23.3 63.5002 15.43 59.9702 9.73001 54.2702" stroke="white" stroke-miterlimit="10"/>
<path d="M3.93 46.3C1.74 42.01 0.5 37.15 0.5 32C0.5 14.6 14.6 0.5 32 0.5C40.7 0.5 48.57 4.03 54.27 9.73" stroke="white" stroke-miterlimit="10"/>
<path d="M54.5 1V10.5H45" stroke="white" stroke-miterlimit="10"/>
<path d="M9.5 63V53.5H19" stroke="white" stroke-miterlimit="10"/>
</g>
<defs>
<clipPath id="clip0_1187_2187">
<rect width="64" height="64" fill="white"/>
</clipPath>
</defs>
</svg>
