<svg xmlns="http://www.w3.org/2000/svg" width="64" height="64" fill="none"><path fill="#000" d="M27 19H14v-2h13z" opacity=".3"/><path fill="#000" d="M56 55h-6V20L38 8H15V1h41z" opacity=".3"/><path fill="#000" d="M38 20h11l-11 3z" opacity=".3"/><path fill="#fff" fill-rule="evenodd" d="M14 0h43v56h-7v8H7V8h31.707L50 19.293V55h6V1H15v7h-1zm35 20v43H8V9h30v11zm-.707-1L39 9.707V19z" clip-rule="evenodd"/><path fill="#fff" fill-rule="evenodd" d="M38 25H14v-1h24zM38 28H14v-1h24zM38 31H14v-1h24zM38 34H14v-1h24zM23 37h-9v-1h9zM21 48.5a7.5 7.5 0 1 1 15 0 7.5 7.5 0 0 1-15 0m7.5-6.5a6.5 6.5 0 1 0 0 13 6.5 6.5 0 0 0 0-13" clip-rule="evenodd"/><path fill="#fff" fill-rule="evenodd" d="M28 43h1v5h3v1h-4z" clip-rule="evenodd"/></svg>