<svg width="65" height="65" viewBox="0 0 65 65" fill="none" xmlns="http://www.w3.org/2000/svg">
<g clip-path="url(#clip0_20_3857)">
<path opacity="0.15" d="M39.0927 33.1365L43.6514 33.6959C44.4565 31.7604 44.9263 29.7021 45.0406 27.609L40.6849 26.1328C40.6271 24.3328 40.2229 22.5607 39.4944 20.9136L42.7775 17.6945C41.7665 15.8582 40.4503 14.2075 38.8851 12.8132L35.0121 15.3002C33.5693 14.2254 31.9333 13.4381 30.1931 12.9811L29.7227 8.4007C27.6567 8.04645 25.5454 8.04645 23.4794 8.4007L23.0084 12.9849C21.2708 13.4429 19.6373 14.2304 18.1967 15.3046L14.3168 12.8132C12.7517 14.2075 11.4354 15.8581 10.4242 17.6943L13.7165 20.9225C12.9913 22.5657 12.5886 24.333 12.5302 26.1282L8.16119 27.6088C8.27545 29.7019 8.74523 31.7603 9.55041 33.6957L14.1215 33.135C14.9566 34.7278 16.0879 36.1467 17.4546 37.3155L15.891 41.6466C17.5987 42.8623 19.5009 43.7784 21.516 44.3555L23.9231 40.4395C25.692 40.7836 27.5105 40.7844 29.2796 40.4417L31.6855 44.3555C33.7007 43.7784 35.6029 42.8624 37.3105 41.6466L35.7502 37.3244C37.1211 36.1542 38.2556 34.7327 39.0927 33.1365Z" fill="#183A9E"/>
<path d="M21.7434 44.9405L21.3782 44.836C19.3081 44.2441 17.3542 43.3032 15.6008 42.0537L15.2913 41.8335L16.8684 37.4668C15.6549 36.3802 14.6322 35.0978 13.843 33.6728L9.23364 34.2383L9.08814 33.8877C8.26097 31.9001 7.77879 29.7859 7.66235 27.6362L7.64185 27.2573L12.0461 25.7646C12.1366 24.1404 12.5004 22.5432 13.1223 21.04L9.80298 17.7857L9.9856 17.4531C11.0235 15.5667 12.3755 13.8712 13.9836 12.4395L14.2678 12.187L18.179 14.6992C19.5055 13.7567 20.9817 13.0449 22.5452 12.5938L23.0208 7.9722L23.3948 7.9082C25.5169 7.54297 27.6858 7.54297 29.8078 7.9082L30.1818 7.9722L30.6555 12.5899C32.2218 13.0397 33.7007 13.7514 35.0295 14.6949L38.9338 12.1871L39.218 12.4395C40.826 13.8712 42.1781 15.5668 43.216 17.4532L43.3986 17.7857L40.089 21.0313C40.7131 22.5385 41.0783 24.1402 41.1692 25.769L45.5598 27.2573L45.5393 27.6362C45.423 29.786 44.9408 31.9001 44.1135 33.8877L43.968 34.2383L39.3713 33.6748C38.5797 35.1028 37.5537 36.3876 36.3362 37.4756L37.9104 41.8335L37.6008 42.0537C35.8474 43.3031 33.8936 44.2441 31.8235 44.8359L31.4582 44.9404L29.0325 40.9941C27.423 41.2659 25.7794 41.2653 24.1702 40.9921L21.7434 44.9405ZM29.5247 39.8858L31.9104 43.7666C33.6167 43.2401 35.2345 42.4611 36.7102 41.4556L35.1623 37.1685L35.426 36.9439C36.7493 35.8162 37.844 34.4451 38.6506 32.9049L38.8108 32.5982L43.3313 33.1529C43.983 31.4905 44.3826 29.74 44.5168 27.9595L40.1965 26.4952L40.1848 26.1495C40.1299 24.4134 39.7403 22.7042 39.0373 21.1158L38.8967 20.7989L42.1536 17.606C41.2602 16.06 40.1407 14.6561 38.8323 13.441L34.9905 15.9082L34.7131 15.7012C33.3224 14.6634 31.7444 13.9039 30.0657 13.4644L29.7307 13.3765L29.2648 8.83352C27.4991 8.56789 25.7035 8.56789 23.9377 8.83352L23.47 13.3804L23.135 13.4683C21.4589 13.9087 19.8836 14.6683 18.4953 15.7056L18.218 15.9126L14.3694 13.4409C13.0609 14.656 11.9414 16.0598 11.0481 17.6059L14.3137 20.8076L14.1731 21.1245C13.4731 22.709 13.0851 24.4136 13.0305 26.145L13.0188 26.4907L8.6848 27.9595C8.81908 29.74 9.21868 31.4904 9.87034 33.1528L14.4035 32.5967L14.5647 32.9033C15.3685 34.4406 16.4599 35.8095 17.7795 36.9356L18.0422 37.1602L16.4914 41.4556C17.9671 42.4611 19.585 43.24 21.2912 43.7666L23.678 39.8828L24.0178 39.9488C25.7245 40.2795 27.4788 40.2802 29.1858 39.9508L29.5247 39.8858Z" fill="#204ECF"/>
<path d="M26.6008 53.2012C21.3397 53.2012 16.1968 51.6411 11.8223 48.7182C7.4479 45.7953 4.03844 41.6408 2.0251 36.7802C0.0117691 31.9196 -0.515011 26.5711 0.51138 21.4111C1.53777 16.2511 4.07123 11.5113 7.79139 7.79114C11.5116 4.07098 16.2513 1.53752 21.4113 0.511134C26.5713 -0.515255 31.9198 0.0115271 36.7805 2.02486C41.6411 4.0382 45.7955 7.44767 48.7184 11.8221C51.6413 16.1966 53.2014 21.3395 53.2014 26.6006C53.1935 33.6531 50.3884 40.4144 45.4015 45.4013C40.4147 50.3882 33.6533 53.1933 26.6008 53.2012V53.2012ZM26.6008 1.00002C21.5375 1.00002 16.5879 2.50147 12.3779 5.3145C8.16792 8.12753 4.88663 12.1258 2.94899 16.8037C1.01134 21.4816 0.50436 26.629 1.49216 31.595C2.47997 36.5611 4.91819 41.1227 8.4985 44.703C12.0788 48.2833 16.6404 50.7215 21.6064 51.7093C26.5724 52.6971 31.7199 52.1901 36.3978 50.2525C41.0757 48.3148 45.0739 45.0335 47.887 40.8235C50.7 36.6135 52.2014 31.6639 52.2014 26.6006C52.1938 19.8133 49.4941 13.3061 44.6947 8.50674C39.8953 3.70736 33.3882 1.00769 26.6008 1.00002V1.00002Z" fill="#204ECF"/>
<path d="M58.748 64.2071L42.174 47.6331L42.881 46.9261L58.748 62.7931L62.793 58.7481L46.926 42.8811L47.633 42.1741L64.207 58.7481L58.748 64.2071Z" fill="#204ECF"/>
</g>
<defs>
<clipPath id="clip0_20_3857">
<rect width="64.2073" height="64.207" fill="white"/>
</clipPath>
</defs>
</svg>
