<svg width="64" height="64" viewBox="0 0 64 64" fill="none" xmlns="http://www.w3.org/2000/svg">
<g clip-path="url(#clip0_20_4080)">
<path opacity="0.3" d="M56.9099 56.3267H7.09003V63.5001H56.9099V56.3267Z" fill="#231F20"/>
<path opacity="0.3" d="M25.1697 20.0554C26.1048 20.0554 27.0189 19.7782 27.7964 19.2587C28.5738 18.7392 29.1798 18.0008 29.5377 17.1369C29.8955 16.273 29.9892 15.3224 29.8067 14.4053C29.6243 13.4882 29.174 12.6458 28.5128 11.9846C27.8516 11.3234 27.0092 10.8731 26.0921 10.6907C25.175 10.5083 24.2244 10.6019 23.3605 10.9598C22.4966 11.3176 21.7582 11.9236 21.2387 12.7011C20.7193 13.4786 20.442 14.3927 20.442 15.3277C20.4421 16.5816 20.9402 17.7841 21.8268 18.6707C22.7134 19.5573 23.9159 20.0554 25.1697 20.0554V20.0554Z" fill="#231F20"/>
<path opacity="0.3" d="M25.1696 20.0554C22.638 20.0554 20.21 21.0611 18.4199 22.8513C16.6297 24.6415 15.624 27.0695 15.624 29.6011H34.7153C34.7153 28.3476 34.4684 27.1063 33.9887 25.9481C33.509 24.79 32.8059 23.7377 31.9195 22.8513C31.0331 21.9649 29.9808 21.2618 28.8226 20.782C27.6645 20.3023 26.4232 20.0554 25.1696 20.0554V20.0554Z" fill="#231F20"/>
<path d="M57.4101 64H6.58978V0H57.4101V64ZM7.58978 63H56.4101V1H7.58978V63Z" fill="white"/>
<path d="M25.1699 20.5552C24.1359 20.5552 23.1251 20.2487 22.2654 19.6743C21.4056 19.0998 20.7355 18.2834 20.3398 17.3281C19.9441 16.3728 19.8406 15.3217 20.0423 14.3076C20.244 13.2935 20.7419 12.3619 21.473 11.6308C22.2042 10.8997 23.1357 10.4018 24.1498 10.2001C25.1639 9.99834 26.2151 10.1019 27.1703 10.4976C28.1256 10.8933 28.9421 11.5634 29.5165 12.4232C30.0909 13.2829 30.3975 14.2937 30.3974 15.3277C30.3958 16.7136 29.8445 18.0423 28.8645 19.0223C27.8845 20.0023 26.5558 20.5535 25.1699 20.5552V20.5552ZM25.1699 11.0996C24.3337 11.0996 23.5163 11.3475 22.821 11.812C22.1257 12.2765 21.5838 12.9368 21.2637 13.7093C20.9437 14.4818 20.8599 15.3319 21.023 16.152C21.1861 16.9721 21.5887 17.7254 22.18 18.3167C22.7712 18.908 23.5245 19.3107 24.3446 19.4739C25.1647 19.6371 26.0148 19.5534 26.7873 19.2335C27.5599 18.9135 28.2202 18.3717 28.6848 17.6764C29.1494 16.9812 29.3974 16.1638 29.3974 15.3276C29.3962 14.2067 28.9504 13.1321 28.1579 12.3395C27.3653 11.5468 26.2908 11.101 25.1699 11.0996V11.0996Z" fill="white"/>
<path d="M35.2153 29.6011H34.2153C34.2165 28.4124 33.9835 27.2351 33.5295 26.1365C33.0754 25.038 32.4093 24.0397 31.5692 23.1987C30.7291 22.3577 29.7315 21.6906 28.6334 21.2354C27.5354 20.7802 26.3583 20.5459 25.1696 20.5459C23.9809 20.5459 22.8039 20.7802 21.7058 21.2354C20.6077 21.6906 19.6101 22.3577 18.77 23.1987C17.9299 24.0397 17.2638 25.038 16.8098 26.1365C16.3558 27.2351 16.1227 28.4124 16.124 29.6011H15.124C15.1227 28.281 15.3815 26.9737 15.8858 25.7537C16.39 24.5338 17.1298 23.4251 18.0627 22.4913C18.9957 21.5574 20.1036 20.8165 21.323 20.3111C22.5424 19.8056 23.8496 19.5454 25.1696 19.5454C26.4897 19.5454 27.7968 19.8056 29.0162 20.3111C30.2357 20.8165 31.3436 21.5574 32.2765 22.4913C33.2095 23.4251 33.9492 24.5338 34.4535 25.7537C34.9577 26.9737 35.2166 28.281 35.2153 29.6011V29.6011Z" fill="white"/>
<path d="M49.4618 12.3799H42.2411V13.3799H49.4618V12.3799Z" fill="white"/>
<path d="M49.4618 19.6006H42.2411V20.6006H49.4618V19.6006Z" fill="white"/>
<path d="M49.4618 26.8213H42.2411V27.8213H49.4618V26.8213Z" fill="white"/>
<path d="M49.4619 38.3921H14.538V39.3921H49.4619V38.3921Z" fill="white"/>
<path d="M49.4619 45.646H14.538V46.646H49.4619V45.646Z" fill="white"/>
<path d="M25.1699 52.9004H14.538V53.9004H25.1699V52.9004Z" fill="white"/>
</g>
<defs>
<clipPath id="clip0_20_4080">
<rect width="64" height="64.0001" fill="white"/>
</clipPath>
</defs>
</svg>
