<svg width="64" height="65" viewBox="0 0 64 65" fill="none" xmlns="http://www.w3.org/2000/svg">
<g clip-path="url(#clip0_1182_242)">
<path opacity="0.3" d="M31.5 61.5332C34.8137 61.5332 37.5 58.8469 37.5 55.5332C37.5 52.2195 34.8137 49.5332 31.5 49.5332C28.1863 49.5332 25.5 52.2195 25.5 55.5332C25.5 58.8469 28.1863 61.5332 31.5 61.5332Z" fill="black"/>
<path opacity="0.3" d="M55 24.0332H22V32.0332H55V24.0332Z" fill="black"/>
<path opacity="0.3" d="M20 50.0332V45.0332H51.17L52.36 42.0332H20V37.0332H54.35L55.54 34.0332H20V22.0332H57V30.3732L62.5 16.5332H0.5L6 30.3532V22.0332H17V50.0332H13.84L16.03 55.5332C17.63 53.2832 19.71 51.4132 22.11 50.0332H20Z" fill="black"/>
<path opacity="0.3" d="M15 24.0332H8V35.3732L13.04 48.0332H15V24.0332Z" fill="black"/>
<path opacity="0.3" d="M40.89 50.0332C43.29 51.4132 45.37 53.2832 46.97 55.5332H47L49.19 50.0332H40.9H40.89Z" fill="black"/>
<path opacity="0.3" d="M22 40.0332H53.16L53.56 39.0332H22V40.0332Z" fill="black"/>
<path opacity="0.3" d="M50.38 47.0332H22V48.0332H27.19C28.57 47.7132 30.02 47.5332 31.5 47.5332C32.98 47.5332 34.42 47.7132 35.81 48.0332H49.98L50.38 47.0332Z" fill="black"/>
<path d="M12 55.5332H2.5C1.4 55.5332 0.5 54.6332 0.5 53.5332V10.5332C0.5 9.4332 1.4 8.5332 2.5 8.5332H60.5C61.6 8.5332 62.5 9.4332 62.5 10.5332V53.5332C62.5 54.6332 61.6 55.5332 60.5 55.5332H51" stroke="white" stroke-miterlimit="10"/>
<path d="M0.5 16.5332H62.5" stroke="white" stroke-miterlimit="10"/>
<path d="M3.5 12.5332H5.5" stroke="white" stroke-miterlimit="10"/>
<path d="M7 12.5332H9" stroke="white" stroke-miterlimit="10"/>
<path d="M10.5 12.5332H12.5" stroke="white" stroke-miterlimit="10"/>
<path d="M31.5 47.5332C25.11 47.5332 19.47 50.6932 16.03 55.5332C19.47 60.3732 25.11 63.5332 31.5 63.5332C37.89 63.5332 43.53 60.3732 46.97 55.5332C43.53 50.6932 37.89 47.5332 31.5 47.5332Z" stroke="white" stroke-miterlimit="10"/>
<path d="M31.5 61.5332C34.8137 61.5332 37.5 58.8469 37.5 55.5332C37.5 52.2195 34.8137 49.5332 31.5 49.5332C28.1863 49.5332 25.5 52.2195 25.5 55.5332C25.5 58.8469 28.1863 61.5332 31.5 61.5332Z" stroke="white" stroke-miterlimit="10"/>
<path d="M29 56.0332L30.5 57.5332L34 54.0332" stroke="white" stroke-miterlimit="10"/>
</g>
<defs>
<clipPath id="clip0_1182_242">
<rect width="64" height="64" fill="white" transform="translate(0 0.0332031)"/>
</clipPath>
</defs>
</svg>
