<svg fill="none" xmlns="http://www.w3.org/2000/svg" viewBox="0 0 64 65">
  <g clip-path="url(#a)">
    <path opacity=".3" d="M31.5 61.5332c3.3137 0 6-2.6863 6-6s-2.6863-6-6-6-6 2.6863-6 6 2.6863 6 6 6ZM55 24.0332H22v8h33v-8Z" fill="#000"/>
    <path opacity=".3" d="M20 50.0332v-5h31.17l1.19-3H20v-5h34.35l1.19-3H20v-12h37v8.34l5.5-13.84H.5l5.5 13.82v-8.32h11v28h-3.16l2.19 5.5c1.6-2.25 3.68-4.12 6.08-5.5H20Z" fill="#000"/>
    <path opacity=".3" d="M15 24.0332H8v11.34l5.04 12.66H15v-24ZM40.89 50.0332c2.4 1.38 4.48 3.25 6.08 5.5H47l2.19-5.5H40.89ZM22 40.0332h31.16l.4-1H22v1ZM50.38 47.0332H22v1h5.19c1.38-.32 2.83-.5 4.31-.5 1.48 0 2.92.18 4.31.5h14.17l.4-1Z" fill="#000"/>
    <path d="M12 55.5332H2.5c-1.1 0-2-.9-2-2v-43c0-1.1.9-2 2-2h58c1.1 0 2 .9 2 2v43c0 1.1-.9 2-2 2H51M.5 16.5332h62M3.5 12.5332h2M7 12.5332h2M10.5 12.5332h2" stroke="#fff" stroke-miterlimit="10"/>
    <path d="M31.5 47.5332c-6.39 0-12.03 3.16-15.47 8 3.44 4.84 9.08 8 15.47 8 6.39 0 12.03-3.16 15.47-8-3.44-4.84-9.08-8-15.47-8Z" stroke="#fff" stroke-miterlimit="10"/>
    <path d="M31.5 61.5332c3.3137 0 6-2.6863 6-6s-2.6863-6-6-6-6 2.6863-6 6 2.6863 6 6 6Z" stroke="#fff" stroke-miterlimit="10"/>
    <path d="m29 56.0332 1.5 1.5 3.5-3.5" stroke="#fff" stroke-miterlimit="10"/>
  </g>
  <defs>
    <clipPath id="a">
      <path fill="#fff" transform="translate(0 .0332031)" d="M0 0h64v64H0z"/>
    </clipPath>
  </defs>
</svg>