<svg width="65" height="65" viewBox="0 0 65 65" fill="none" xmlns="http://www.w3.org/2000/svg">
<g clip-path="url(#clip0_20_3881)">
<path opacity="0.15" d="M26.6006 45.066C36.7988 45.066 45.0661 36.7988 45.0661 26.6005C45.0661 16.4023 36.7988 8.13501 26.6006 8.13501C16.4024 8.13501 8.13507 16.4023 8.13507 26.6005C8.13507 36.7988 16.4024 45.066 26.6006 45.066Z" fill="#183A9E"/>
<path d="M26.6006 53.2012C21.3395 53.2012 16.1965 51.6411 11.8221 48.7182C7.44764 45.7953 4.03818 41.6408 2.02484 36.7802C0.0115035 31.9196 -0.515278 26.5711 0.511111 21.4111C1.5375 16.2511 4.07096 11.5113 7.79112 7.79114C11.5113 4.07098 16.2511 1.53752 21.4111 0.511134C26.5711 -0.515255 31.9196 0.0115263 36.7802 2.02486C41.6408 4.0382 45.7953 7.44767 48.7182 11.8221C51.6411 16.1966 53.2012 21.3395 53.2012 26.6006C53.1932 33.6531 50.388 40.4144 45.4012 45.4012C40.4143 50.388 33.653 53.1932 26.6006 53.2012V53.2012ZM26.6006 1.00002C21.5373 1.00002 16.5877 2.50147 12.3777 5.31449C8.16766 8.12752 4.88637 12.1258 2.94872 16.8037C1.01107 21.4816 0.504093 26.629 1.4919 31.595C2.4797 36.5611 4.91792 41.1227 8.49822 44.703C12.0785 48.2833 16.6401 50.7215 21.6061 51.7093C26.5722 52.6971 31.7196 52.1901 36.3975 50.2525C41.0754 48.3148 45.0737 45.0335 47.8867 40.8235C50.6997 36.6135 52.2012 31.6639 52.2012 26.6006C52.1935 19.8133 49.4938 13.3061 44.6945 8.50674C39.8951 3.70736 33.3879 1.0077 26.6006 1.00002V1.00002Z" fill="#204ECF"/>
<path d="M58.748 64.2071L42.174 47.6331L42.881 46.9261L58.748 62.7931L62.793 58.7481L46.926 42.8811L47.633 42.1741L64.207 58.7481L58.748 64.2071Z" fill="#204ECF"/>
</g>
<defs>
<clipPath id="clip0_20_3881">
<rect width="64.207" height="64.207" fill="white"/>
</clipPath>
</defs>
</svg>
