<svg width="64" height="65" viewBox="0 0 64 64" fill="none" xmlns="http://www.w3.org/2000/svg">
<g clip-path="url(#clip0_20_4103)">
<path opacity="0.3" d="M42.2395 36.9684L45.9762 37.4268C46.6362 35.8404 47.0213 34.1532 47.115 32.4375L43.5447 31.2275C43.4973 29.752 43.1659 28.2995 42.5689 26.9493L45.26 24.3106C44.4313 22.8055 43.3523 21.4524 42.0694 20.3095L38.8947 22.3481C37.712 21.4671 36.371 20.8218 34.9446 20.4472L34.559 16.6926C32.8655 16.4023 31.1349 16.4023 29.4414 16.6926L29.0553 20.4502C27.631 20.8257 26.292 21.4712 25.1112 22.3517L21.9309 20.3095C20.648 21.4524 19.569 22.8054 18.7402 24.3105L21.4389 26.9566C20.8444 28.3035 20.5143 29.7522 20.4664 31.2237L16.8852 32.4374C16.9789 34.1531 17.364 35.8403 18.024 37.4267L21.7709 36.9671C22.4554 38.2727 23.3827 39.4357 24.503 40.3939L23.2214 43.944C24.6211 44.9405 26.1803 45.6914 27.8321 46.1645L29.8052 42.9546C31.2551 43.2366 32.7458 43.2372 34.1959 42.9564L36.1679 46.1645C37.8198 45.6914 39.379 44.9405 40.7787 43.944L39.4997 40.4011C40.6234 39.4419 41.5534 38.2768 42.2395 36.9684V36.9684Z" fill="#231F20"/>
<path d="M32.0001 64.084L16.798 56.8672C13.7973 55.4322 11.2625 53.1795 9.48501 50.3681C7.70753 47.5567 6.75956 44.3008 6.7501 40.9746V2.84277H20.5626C22.8018 2.84378 25.0247 2.46299 27.1358 1.71677L32.0001 0L36.8643 1.7168C38.9755 2.46302 41.1984 2.84381 43.4376 2.8428H57.2501V40.9746C57.2406 44.3008 56.2927 47.5567 54.5152 50.3681C52.7377 53.1795 50.2029 55.4322 47.2022 56.8672L32.0001 64.084ZM7.7501 3.84277V40.9746C7.75908 44.1117 8.65316 47.1825 10.3296 49.8341C12.006 52.4857 14.3966 54.6104 17.2267 55.9639L32.0001 62.9766L46.7735 55.9639C49.6036 54.6104 51.9942 52.4857 53.6706 49.8341C55.347 47.1825 56.2411 44.1117 56.2501 40.9746V3.84277H43.4376C41.085 3.84383 38.7495 3.4439 36.5313 2.66016L32.0001 1.06055L27.4688 2.66016C25.2507 3.4439 22.9152 3.84383 20.5626 3.84277H7.7501Z" fill="white"/>
<path d="M35.941 46.7495L33.9483 43.5083C32.6583 43.7188 31.3427 43.7183 30.0528 43.5069L28.0592 46.7495L27.6944 46.6451C25.9878 46.157 24.377 45.3814 22.9312 44.3516L22.6222 44.1319L23.9171 40.5445C22.9498 39.6694 22.1313 38.6428 21.4937 37.5049L17.7081 37.9693L17.5626 37.6187C16.8797 35.9803 16.4819 34.2373 16.3863 32.4649L16.3653 32.086L19.983 30.8594C20.0622 29.5592 20.3537 28.2808 20.8458 27.0747L18.1192 24.4019L18.3023 24.0694C19.1578 22.5143 20.2724 21.1166 21.5982 19.9366L21.8814 19.6836L25.0948 21.7466C26.161 20.9974 27.3426 20.4277 28.5929 20.0601L28.983 16.2642L29.357 16.2002C31.1064 15.8994 32.8942 15.8994 34.6436 16.2002L35.0176 16.2642L35.4068 20.0572C36.6591 20.4241 37.8429 20.9937 38.9112 21.7432L42.1187 19.6836L42.4019 19.9366C43.7277 21.1166 44.8423 22.5143 45.6978 24.0694L45.8809 24.4019L43.1626 27.0674C43.6566 28.2769 43.9489 29.5592 44.0279 30.8633L47.6348 32.086L47.6138 32.4649C47.5182 34.2373 47.1204 35.9803 46.4375 37.6187L46.292 37.9693L42.5166 37.5059C41.8775 38.6468 41.0563 39.6756 40.0855 40.5518L41.378 44.1319L41.0689 44.3516C39.6232 45.3814 38.0123 46.157 36.3058 46.645L35.941 46.7495ZM34.441 42.4004L36.3927 45.5752C37.7357 45.1533 39.0106 44.5394 40.1778 43.7525L38.9117 40.2456L39.1749 40.021C40.2511 39.1042 41.1411 37.9891 41.7965 36.7364L41.9566 36.4297L45.6554 36.8838C46.1628 35.5707 46.4776 34.191 46.5899 32.7876L43.0562 31.5899L43.045 31.2442C43.0001 29.8326 42.6833 28.4429 42.1119 27.1514L41.9718 26.8345L44.6353 24.2227C43.9251 23.0072 43.0428 21.9009 42.0157 20.938L38.8736 22.9561L38.5963 22.7491C37.4653 21.9056 36.1823 21.2883 34.8175 20.9307L34.4825 20.8428L34.1011 17.1265C32.7079 16.9234 31.2927 16.9234 29.8995 17.1265L29.5171 20.8458L29.1827 20.9337C27.82 21.292 26.5392 21.9096 25.4102 22.7525L25.1324 22.9595L21.9845 20.938C20.9574 21.9009 20.0751 23.0072 19.3648 24.2227L22.0362 26.8418L21.8966 27.1587C21.327 28.4468 21.011 29.8326 20.9659 31.2403L20.9547 31.586L17.4102 32.7876C17.5226 34.191 17.8373 35.5707 18.3448 36.8838L22.0538 36.4287L22.214 36.7354C22.8678 37.9854 23.7552 39.0984 24.8282 40.0142L25.0904 40.2388L23.8224 43.7525C24.9896 44.5394 26.2645 45.1533 27.6075 45.5752L29.5606 42.398L29.9 42.464C31.2876 42.733 32.7139 42.7335 34.1017 42.4654L34.441 42.4004Z" fill="white"/>
</g>
<defs>
<clipPath id="clip0_20_4103">
<rect width="64" height="64.084" fill="white"/>
</clipPath>
</defs>
</svg>
