<svg width="64" height="65" viewBox="0 0 64 64" fill="none" xmlns="http://www.w3.org/2000/svg">
<circle cx="32" cy="32.5" r="32" fill="#EDF1FD"/>
<g opacity="0.89">
<g opacity="0.15">
<path d="M32 32.7812C34.33 32.7812 36.2188 30.8925 36.2188 28.5625C36.2188 26.2325 34.33 24.3438 32 24.3438C29.67 24.3438 27.7812 26.2325 27.7812 28.5625C27.7812 30.8925 29.67 32.7812 32 32.7812Z" fill="#183A9E"/>
</g>
<g opacity="0.15">
<path d="M32 32.7812C27.8061 32.7812 24.4062 36.1811 24.4062 40.375H39.5938C39.5938 36.1811 36.1939 32.7812 32 32.7812Z" fill="#183A9E"/>
</g>
<path opacity="0.89" d="M40.7188 48.25H23.2812C19.3998 48.2456 16.2544 45.1002 16.25 41.2188V23.7812C16.2544 19.8998 19.3998 16.7544 23.2812 16.75H34.8125V17.3125H23.2812C19.7103 17.3166 16.8166 20.2103 16.8125 23.7812V41.2188C16.8166 44.7897 19.7103 47.6834 23.2812 47.6875H40.7188C44.2897 47.6834 47.1834 44.7897 47.1875 41.2188V29.6875H47.75V41.2188C47.7456 45.1002 44.6002 48.2456 40.7188 48.25Z" fill="#204ECF"/>
<g opacity="0.15">
<path d="M47.4688 24.0625V17.0312H40.4375L47.4688 24.0625Z" fill="#183A9E"/>
</g>
<path opacity="0.89" d="M47.7502 24.7414L39.7588 16.75H47.7502V24.7414ZM41.1167 17.3125L47.1877 23.3836V17.3125H41.1167Z" fill="#204ECF"/>
<path opacity="0.89" d="M43.6133 20.4883L39.957 24.1445L40.3548 24.5423L44.011 20.886L43.6133 20.4883Z" fill="#204ECF"/>
<path opacity="0.89" d="M32 33.0625C29.5147 33.0625 27.5 31.0478 27.5 28.5625C27.5 26.0772 29.5147 24.0625 32 24.0625C34.4853 24.0625 36.5 26.0772 36.5 28.5625C36.4972 31.0466 34.4841 33.0597 32 33.0625ZM32 24.625C29.8254 24.625 28.0625 26.3879 28.0625 28.5625C28.0625 30.7371 29.8254 32.5 32 32.5C34.1746 32.5 35.9375 30.7371 35.9375 28.5625C35.935 26.3889 34.1736 24.6275 32 24.625Z" fill="#204ECF"/>
<path opacity="0.89" d="M39.875 40.375H39.3125C39.3125 36.3364 36.0386 33.0625 32 33.0625C27.9614 33.0625 24.6875 36.3364 24.6875 40.375H24.125C24.125 36.0258 27.6508 32.5 32 32.5C36.3492 32.5 39.875 36.0258 39.875 40.375Z" fill="#204ECF"/>
</g>
</svg>
