<svg width="64" height="64" viewBox="0 0 64 64" fill="none" xmlns="http://www.w3.org/2000/svg">
<g clip-path="url(#clip0_20_4110)">
<path opacity="0.3" d="M60.3091 58.0688H10.0721V63.4999H60.3091V58.0688Z" fill="#231F20"/>
<path opacity="0.3" d="M48.773 0.5V12.036H60.309" fill="#231F20"/>
<path d="M60.309 12.537H48.272V0.5H49.272V11.537H60.309V12.537Z" fill="white"/>
<path d="M33.1034 11.5366H19.0506V12.5366H33.1034V11.5366Z" fill="white"/>
<path d="M48.7723 21.0801H31.326V22.0801H48.7723V21.0801Z" fill="white"/>
<path d="M48.7723 27.6479H34.8123V28.6479H48.7723V27.6479Z" fill="white"/>
<path d="M48.7723 34.2163H35.0692V35.2163H48.7723V34.2163Z" fill="white"/>
<path d="M48.7723 40.7847H32.3163V41.7847H48.7723V40.7847Z" fill="white"/>
<path d="M60.809 64H9.57201V44.662H10.572V63H59.809V12.244L48.565 1H10.572V19.338H9.57201V0H48.979L60.809 11.83V64Z" fill="white"/>
<path d="M16.3709 29.667C15.7349 29.6671 15.1131 29.4787 14.5842 29.1254C14.0553 28.7722 13.6431 28.27 13.3996 27.6824C13.1561 27.0948 13.0923 26.4483 13.2163 25.8244C13.3404 25.2006 13.6466 24.6276 14.0963 24.1778C14.546 23.7281 15.119 23.4218 15.7428 23.2977C16.3666 23.1735 17.0132 23.2372 17.6008 23.4806C18.1884 23.724 18.6906 24.1362 19.0439 24.665C19.3973 25.1939 19.5858 25.8156 19.5858 26.4517C19.5848 27.304 19.2458 28.1212 18.6431 28.724C18.0404 29.3268 17.2233 29.6659 16.3709 29.667V29.667ZM16.3709 24.2359C15.9327 24.2357 15.5043 24.3655 15.1399 24.6089C14.7754 24.8522 14.4913 25.1982 14.3235 25.603C14.1557 26.0078 14.1117 26.4533 14.1971 26.8831C14.2825 27.313 14.4934 27.7078 14.8032 28.0177C15.113 28.3277 15.5078 28.5388 15.9376 28.6244C16.3673 28.7099 16.8129 28.6661 17.2177 28.4985C17.6226 28.3309 17.9687 28.0469 18.2122 27.6826C18.4557 27.3183 18.5857 26.8899 18.5858 26.4517C18.5851 25.8644 18.3515 25.3013 17.9364 24.886C17.5212 24.4706 16.9582 24.2368 16.3709 24.2358V24.2359Z" fill="white"/>
<path d="M16.3709 41.8179C15.7349 41.818 15.1131 41.6295 14.5842 41.2763C14.0553 40.923 13.6431 40.4209 13.3996 39.8333C13.1561 39.2457 13.0923 38.5991 13.2163 37.9753C13.3404 37.3515 13.6466 36.7785 14.0963 36.3287C14.546 35.8789 15.119 35.5726 15.7428 35.4485C16.3666 35.3244 17.0132 35.3881 17.6008 35.6315C18.1884 35.8749 18.6906 36.2871 19.0439 36.8159C19.3973 37.3448 19.5858 37.9665 19.5858 38.6025C19.5848 39.4549 19.2458 40.2721 18.6431 40.8749C18.0404 41.4776 17.2233 41.8168 16.3709 41.8179V41.8179ZM16.3709 36.3867C15.9327 36.3866 15.5043 36.5164 15.1399 36.7598C14.7754 37.0031 14.4913 37.3491 14.3235 37.7539C14.1557 38.1587 14.1117 38.6042 14.1971 39.034C14.2825 39.4638 14.4934 39.8587 14.8032 40.1686C15.113 40.4786 15.5078 40.6897 15.9376 40.7752C16.3673 40.8608 16.8129 40.817 17.2177 40.6494C17.6226 40.4817 17.9687 40.1978 18.2122 39.8335C18.4557 39.4691 18.5857 39.0408 18.5858 38.6025C18.5851 38.0153 18.3515 37.4522 17.9364 37.0369C17.5212 36.6215 16.9582 36.3877 16.3709 36.3867Z" fill="white"/>
<path d="M25.7479 35.7427C25.1119 35.7426 24.4903 35.554 23.9615 35.2007C23.4328 34.8473 23.0206 34.3451 22.7773 33.7575C22.5339 33.17 22.4703 32.5235 22.5944 31.8997C22.7184 31.276 23.0247 30.703 23.4744 30.2533C23.9241 29.8037 24.497 29.4974 25.1208 29.3733C25.7445 29.2492 26.391 29.3129 26.9786 29.5563C27.5661 29.7996 28.0684 30.2117 28.4217 30.7405C28.7751 31.2692 28.9637 31.8909 28.9637 32.5269C28.9628 33.3795 28.6237 34.1969 28.0209 34.7998C27.418 35.4027 26.6005 35.7418 25.7479 35.7427V35.7427ZM25.7479 30.3115C25.3097 30.3116 24.8814 30.4416 24.517 30.6851C24.1527 30.9285 23.8688 31.2746 23.7011 31.6795C23.5335 32.0843 23.4896 32.5298 23.5752 32.9596C23.6607 33.3893 23.8718 33.7841 24.1817 34.0939C24.4915 34.4037 24.8864 34.6147 25.3161 34.7002C25.7459 34.7856 26.1914 34.7417 26.5962 34.5739C27.0011 34.4062 27.3471 34.1222 27.5905 33.7578C27.8339 33.3934 27.9638 32.9651 27.9637 32.5269C27.963 31.9395 27.7293 31.3763 27.3139 30.961C26.8985 30.5457 26.3353 30.3121 25.7479 30.3115V30.3115Z" fill="white"/>
<path d="M18.92 27.508L18.3766 28.3467L23.1989 31.4707L23.7422 30.632L18.92 27.508Z" fill="white"/>
<path d="M23.1998 33.5841L18.3761 36.7063L18.919 37.5452L23.7428 34.4229L23.1998 33.5841Z" fill="white"/>
<path d="M19.492 48.3525C16.2679 48.3526 13.1162 47.3967 10.4354 45.6055C7.75459 43.8144 5.66515 41.2685 4.43127 38.2898C3.1974 35.3112 2.87452 32.0335 3.50345 28.8713C4.13239 25.7092 5.6849 22.8045 7.96466 20.5247C10.2444 18.2449 13.149 16.6923 16.3112 16.0633C19.4733 15.4342 22.751 15.757 25.7297 16.9908C28.7084 18.2246 31.2543 20.314 33.0455 22.9947C34.8368 25.6755 35.7928 28.8272 35.7928 32.0513C35.788 36.3731 34.069 40.5165 31.0131 43.5725C27.9572 46.6285 23.8138 48.3476 19.492 48.3525V48.3525ZM19.492 16.75C16.4657 16.7499 13.5073 17.6472 10.991 19.3285C8.47461 21.0098 6.51334 23.3995 5.35515 26.1954C4.19697 28.9914 3.89389 32.0679 4.48424 35.0361C5.07459 38.0043 6.53186 40.7308 8.67176 42.8708C10.8117 45.0107 13.5381 46.4681 16.5063 47.0585C19.4744 47.6489 22.551 47.346 25.347 46.1879C28.143 45.0297 30.5327 43.0685 32.2141 40.5523C33.8954 38.036 34.7928 35.0776 34.7928 32.0513C34.7882 27.9946 33.1746 24.1055 30.3062 21.237C27.4378 18.3684 23.5486 16.7548 19.492 16.75Z" fill="white"/>
</g>
<defs>
<clipPath id="clip0_20_4110">
<rect width="64" height="64.0001" fill="white"/>
</clipPath>
</defs>
</svg>
