<svg width="64" height="64" viewBox="0 0 64 64" fill="none" xmlns="http://www.w3.org/2000/svg">
<g clip-path="url(#clip0_389_191)">
<path opacity="0.3" d="M32.1604 16.9224C24.9423 16.9224 19.1679 22.777 19.1679 29.9148C19.1679 37.0527 25.0225 42.9073 32.1604 42.9073C39.2982 42.9073 45.1529 37.0527 45.1529 29.9148C45.1529 22.777 39.2982 16.9224 32.1604 16.9224ZM25.8245 36.5715C25.8245 32.8823 28.792 29.9148 32.4812 29.9148C29.995 29.9148 27.99 27.589 28.5514 25.0226C28.8722 23.4988 30.0752 22.2958 31.599 21.975C34.1654 21.4136 36.4912 23.4186 36.4912 25.9048C36.4912 28.1504 34.7268 29.9148 32.4812 29.9148C36.1704 29.9148 39.1378 32.8823 39.1378 36.5715L38.8972 36.8121H26.0652L25.8245 36.5715Z" fill="#231F20"/>
<path fill-rule="evenodd" clip-rule="evenodd" d="M32.401 17.6631C25.5902 17.6631 20.0689 23.1843 20.0689 29.9952C20.0689 36.806 25.5902 42.3272 32.401 42.3272C39.2118 42.3272 44.7331 36.806 44.7331 29.9952C44.7331 23.1843 39.2118 17.6631 32.401 17.6631ZM19.0689 29.9952C19.0689 22.6321 25.0379 16.6631 32.401 16.6631C39.7641 16.6631 45.7331 22.6321 45.7331 29.9952C45.7331 37.3583 39.7641 43.3272 32.401 43.3272C25.0379 43.3272 19.0689 37.3583 19.0689 29.9952Z" fill="white"/>
<path fill-rule="evenodd" clip-rule="evenodd" d="M32.401 22.4751C30.4625 22.4751 28.891 24.0466 28.891 25.9851C28.891 27.9237 30.4625 29.4951 32.401 29.4951C34.3395 29.4951 35.911 27.9237 35.911 25.9851C35.911 24.0466 34.3396 22.4751 32.401 22.4751ZM27.891 25.9851C27.891 23.4943 29.9102 21.4751 32.401 21.4751C34.8918 21.4751 36.911 23.4943 36.911 25.9851C36.911 28.4759 34.8918 30.4951 32.401 30.4951C29.9102 30.4951 27.891 28.4759 27.891 25.9851Z" fill="white"/>
<path fill-rule="evenodd" clip-rule="evenodd" d="M32.401 30.4951C29.1524 30.4951 26.485 33.1544 26.485 36.4914V36.9914H25.485V36.4914C25.485 32.6103 28.592 29.4951 32.401 29.4951C36.21 29.4951 39.3171 32.6103 39.3171 36.4914V36.9914H38.3171V36.4914C38.3171 33.1544 35.6497 30.4951 32.401 30.4951Z" fill="white"/>
<path fill-rule="evenodd" clip-rule="evenodd" d="M32.4813 0.0307617L39.3985 2.50119L39.4104 2.50617C40.2949 2.87471 41.3481 3.02911 42.346 3.02911H57.8435V36.0905C57.8435 43.0753 54.3102 49.6516 48.3896 53.4342L48.3887 53.4347L32.4813 63.5502L16.5739 53.4347L16.573 53.4342C10.6524 49.6516 7.11914 43.0753 7.11914 36.0905V3.02911H22.6166C23.6064 3.02911 24.5871 2.87713 25.565 2.50103L25.5762 2.4967L32.4813 0.0307617ZM25.9182 3.43659C24.8128 3.86087 23.7102 4.02911 22.6166 4.02911H8.11914V36.0905C8.11914 42.7396 11.4829 48.9952 17.1109 52.5911C17.1111 52.5913 17.1107 52.591 17.1109 52.5911L32.4813 62.3652L47.8512 52.5915C53.4795 48.9956 56.8435 42.7398 56.8435 36.0905V4.02911H42.346C41.2629 4.02911 40.0755 3.86401 39.038 3.43432L32.4813 1.09262L25.9182 3.43659Z" fill="white"/>
</g>
<defs>
<clipPath id="clip0_389_191">
<rect width="64" height="64" fill="white"/>
</clipPath>
</defs>
</svg>
