<svg width="64" height="64" viewBox="0 0 64 64" fill="none" xmlns="http://www.w3.org/2000/svg">
<g clip-path="url(#clip0_797_318)">
<path fill-rule="evenodd" clip-rule="evenodd" d="M6.99 18C3.68181 18 1 20.6818 1 23.99V24.01C1 27.3182 3.68181 30 6.99 30H24.01C27.3182 30 30 27.3182 30 24.01V23.99C30 20.6818 27.3182 18 24.01 18H6.99ZM0 23.99C0 20.1295 3.12953 17 6.99 17H24.01C27.8705 17 31 20.1295 31 23.99V24.01C31 27.8705 27.8705 31 24.01 31H6.99C3.12953 31 0 27.8705 0 24.01V23.99Z" fill="#204ECD"/>
<path fill-rule="evenodd" clip-rule="evenodd" d="M39.99 34C36.6818 34 34 36.6818 34 39.99V40.01C34 43.3182 36.6818 46 39.99 46H57.01C60.3182 46 63 43.3182 63 40.01V39.99C63 36.6818 60.3182 34 57.01 34H39.99ZM33 39.99C33 36.1295 36.1295 33 39.99 33H57.01C60.8705 33 64 36.1295 64 39.99V40.01C64 43.8705 60.8705 47 57.01 47H39.99C36.1295 47 33 43.8705 33 40.01V39.99Z" fill="#204ECD"/>
<path opacity="0.15" d="M46.5 24.01V6.99C46.5 3.40567 43.5943 0.5 40.01 0.5H39.99C36.4057 0.5 33.5 3.40567 33.5 6.99V24.01C33.5 27.5943 36.4057 30.5 39.99 30.5H40.01C43.5943 30.5 46.5 27.5943 46.5 24.01Z" fill="#183A9C"/>
<path opacity="0.15" d="M30.5 57.01V39.99C30.5 36.4057 27.5943 33.5 24.01 33.5H23.99C20.4057 33.5 17.5 36.4057 17.5 39.99V57.01C17.5 60.5943 20.4057 63.5 23.99 63.5H24.01C27.5943 63.5 30.5 60.5943 30.5 57.01Z" fill="#183A9C"/>
<path opacity="0.15" d="M63.5 23.5C63.5 27.36 60.36 30.5 56.5 30.5H49.5V23.5C49.5 19.64 52.64 16.5 56.5 16.5C60.36 16.5 63.5 19.64 63.5 23.5Z" fill="#183A9C"/>
<path opacity="0.15" d="M14.5 33.5V40.5C14.5 44.36 11.36 47.5 7.5 47.5C3.64 47.5 0.5 44.36 0.5 40.5C0.5 36.64 3.64 33.5 7.5 33.5H14.5Z" fill="#183A9C"/>
<path fill-rule="evenodd" clip-rule="evenodd" d="M46 6.99C46 3.68181 43.3182 1 40.01 1H39.99C36.6818 1 34 3.68181 34 6.99V24.01C34 27.3182 36.6818 30 39.99 30H40.01C43.3182 30 46 27.3182 46 24.01V6.99ZM40.01 0C43.8705 0 47 3.12953 47 6.99V24.01C47 27.8705 43.8705 31 40.01 31H39.99C36.1295 31 33 27.8705 33 24.01V6.99C33 3.12953 36.1295 0 39.99 0L40.01 0Z" fill="#204ECD"/>
<path fill-rule="evenodd" clip-rule="evenodd" d="M30 39.99C30 36.6818 27.3182 34 24.01 34H23.99C20.6818 34 18 36.6818 18 39.99V57.01C18 60.3182 20.6818 63 23.99 63H24.01C27.3182 63 30 60.3182 30 57.01V39.99ZM24.01 33C27.8705 33 31 36.1295 31 39.99V57.01C31 60.8705 27.8705 64 24.01 64H23.99C20.1295 64 17 60.8705 17 57.01V39.99C17 36.1295 20.1295 33 23.99 33H24.01Z" fill="#204ECD"/>
<path fill-rule="evenodd" clip-rule="evenodd" d="M30 7.5C30 3.91614 27.0839 1 23.5 1C19.9161 1 17 3.91614 17 7.5C17 11.0839 19.9161 14 23.5 14H30V7.5ZM23.5 0C27.6361 0 31 3.36386 31 7.5V15H23.5C19.3639 15 16 11.6361 16 7.5C16 3.36386 19.3639 0 23.5 0Z" fill="#204ECD"/>
<path fill-rule="evenodd" clip-rule="evenodd" d="M63 23.5C63 19.9161 60.0839 17 56.5 17C52.9161 17 50 19.9161 50 23.5V30H56.5C60.0839 30 63 27.0839 63 23.5ZM56.5 16C60.6361 16 64 19.3639 64 23.5C64 27.6361 60.6361 31 56.5 31H49V23.5C49 19.3639 52.3639 16 56.5 16Z" fill="#204ECD"/>
<path fill-rule="evenodd" clip-rule="evenodd" d="M47 56.5C47 52.9161 44.0839 50 40.5 50H34V56.5C34 60.0839 36.9161 63 40.5 63C44.0839 63 47 60.0839 47 56.5ZM40.5 49C44.6361 49 48 52.3639 48 56.5C48 60.6361 44.6361 64 40.5 64C36.3639 64 33 60.6361 33 56.5V49H40.5Z" fill="#204ECD"/>
<path fill-rule="evenodd" clip-rule="evenodd" d="M15 33V40.5C15 44.6361 11.6361 48 7.5 48C3.36386 48 0 44.6361 0 40.5C0 36.3639 3.36386 33 7.5 33H15ZM14 34H7.5C3.91614 34 1 36.9161 1 40.5C1 44.0839 3.91614 47 7.5 47C11.0839 47 14 44.0839 14 40.5V34Z" fill="#204ECD"/>
</g>
<defs>
<clipPath id="clip0_797_318">
<rect width="64" height="64" fill="white"/>
</clipPath>
</defs>
</svg>
