<svg width="64" height="64" viewBox="0 0 64 64" fill="none" xmlns="http://www.w3.org/2000/svg">
<g clip-path="url(#clip0_20_4140)">
<path opacity="0.3" d="M32 0.5V28.4287C32.9472 28.4287 33.8555 28.805 34.5253 29.4747C35.195 30.1445 35.5713 31.0528 35.5713 32C35.5713 32.9472 35.195 33.8555 34.5253 34.5253C33.8555 35.195 32.9472 35.5713 32 35.5713V44.9645H47.2143V52.4642H32V63.5C40.3543 63.5 48.3665 60.1813 54.2739 54.2739C60.1813 48.3665 63.5 40.3543 63.5 32C63.5 23.6457 60.1813 15.6335 54.2739 9.72614C48.3665 3.81874 40.3543 0.5 32 0.5V0.5Z" fill="#231F20"/>
<path d="M32 64C25.671 64 19.4841 62.1232 14.2218 58.607C8.95939 55.0908 4.85787 50.0931 2.43587 44.2459C0.013865 38.3986 -0.619842 31.9645 0.614885 25.7571C1.84961 19.5497 4.89732 13.8479 9.3726 9.3726C13.8479 4.89732 19.5497 1.84961 25.7571 0.614885C31.9645 -0.619842 38.3986 0.013865 44.2459 2.43587C50.0931 4.85787 55.0908 8.95939 58.607 14.2218C62.1232 19.4841 64 25.671 64 32C63.9905 40.484 60.616 48.6178 54.6169 54.6169C48.6178 60.616 40.484 63.9905 32 64ZM32 1.00001C25.8688 1.00001 19.8753 2.81813 14.7773 6.22446C9.67941 9.63078 5.70607 14.4723 3.35975 20.1368C1.01343 25.8013 0.399529 32.0344 1.59567 38.0478C2.79181 44.0612 5.74428 49.5849 10.0797 53.9203C14.4151 58.2558 19.9388 61.2082 25.9522 62.4044C31.9656 63.6005 38.1987 62.9866 43.8632 60.6403C49.5277 58.294 54.3693 54.3206 57.7756 49.2227C61.1819 44.1248 63 38.1312 63 32C62.9907 23.7812 59.7216 15.9016 53.91 10.09C48.0984 4.27844 40.2189 1.00937 32 1.00001V1.00001Z" fill="white"/>
<path d="M7.75586 32H6.75586C6.75523 28.687 7.41169 25.4068 8.68724 22.3492C9.96279 19.2916 11.8321 16.5173 14.187 14.187L14.5405 13.8335L29.8281 29.1211L29.1211 29.8281L14.544 15.251C10.189 19.7386 7.75405 25.7466 7.75586 32V32Z" fill="white"/>
<path d="M32 36.0692C31.4654 36.0701 30.9359 35.9654 30.4418 35.7611C29.9478 35.5568 29.499 35.257 29.1211 34.8788V34.8788C28.4533 34.2126 28.0372 33.3354 27.9437 32.3967C27.8502 31.4581 28.0852 30.5161 28.6086 29.7313C29.1319 28.9465 29.9113 28.3674 30.8137 28.0929C31.7162 27.8184 32.686 27.8654 33.5577 28.2259C34.4294 28.5863 35.1491 29.2379 35.5942 30.0696C36.0392 30.9014 36.182 31.8617 35.9983 32.7869C35.8145 33.7121 35.3156 34.545 34.5865 35.1435C33.8574 35.7421 32.9433 36.0692 32 36.0692V36.0692ZM29.8281 34.1718C30.2577 34.6013 30.805 34.8939 31.4008 35.0124C31.9966 35.1309 32.6142 35.0701 33.1754 34.8376C33.7367 34.6051 34.2164 34.2114 34.5539 33.7063C34.8914 33.2012 35.0715 32.6074 35.0715 31.9999C35.0715 31.3924 34.8914 30.7986 34.5539 30.2935C34.2164 29.7883 33.7367 29.3947 33.1754 29.1622C32.6142 28.9297 31.9966 28.8689 31.4008 28.9874C30.805 29.1059 30.2577 29.3984 29.8281 29.828C29.2531 30.4045 28.9302 31.1856 28.9302 31.9999C28.9302 32.8142 29.2531 33.5952 29.8281 34.1718V34.1718Z" fill="white"/>
<path d="M56.7441 31.5H50.7231V32.5H56.7441V31.5Z" fill="white"/>
<path d="M54.6642 22.057L49.102 24.3618L49.4848 25.2856L55.047 22.9808L54.6642 22.057Z" fill="white"/>
<path d="M49.122 14.1299L44.8706 18.3931L45.5786 19.0991L49.8301 14.8359L49.122 14.1299Z" fill="white"/>
<path d="M40.9664 8.93263L38.6737 14.4998L39.5985 14.8806L41.8912 9.31349L40.9664 8.93263Z" fill="white"/>
<path d="M32.4434 7.25481L31.4434 7.25708L31.457 13.2781L32.457 13.2758L32.4434 7.25481Z" fill="white"/>
<path d="M22.9268 8.97414L22.0038 9.35962L24.3242 14.9153L25.2471 14.5298L22.9268 8.97414Z" fill="white"/>
<path d="M47.7144 52.9644H16.2856V44.4644H47.7144V52.9644ZM17.2856 51.9644H46.7144V45.4644H17.2856V51.9644Z" fill="white"/>
</g>
<defs>
<clipPath id="clip0_20_4140">
<rect width="64" height="64" fill="white"/>
</clipPath>
</defs>
</svg>
