<svg width="65" height="64" viewBox="0 0 65 64" fill="none" xmlns="http://www.w3.org/2000/svg">
<g clip-path="url(#clip0_20_4155)">
<path opacity="0.3" d="M12.4483 32H0.499977C0.48891 39.099 2.88642 45.9919 7.30059 51.5517H31.9973L31.9972 51.5516C26.8123 51.5509 21.8399 49.4907 18.1738 45.8241C14.5078 42.1576 12.4483 37.1849 12.4483 32V32Z" fill="#231F20"/>
<path opacity="0.3" d="M56.6872 51.5531C53.7423 55.2803 49.991 58.2916 45.7152 60.3609C41.4394 62.4301 36.7502 63.5033 32 63.5H56.6987L63.5 57.5259L56.6987 51.5518L56.6872 51.5531Z" fill="#231F20"/>
<path d="M32 52.0518C28.0341 52.0518 24.1573 50.8758 20.8598 48.6724C17.5624 46.4691 14.9923 43.3375 13.4746 39.6735C11.9569 36.0095 11.5598 31.9778 12.3335 28.0881C13.1072 24.1984 15.017 20.6256 17.8213 17.8213C20.6256 15.017 24.1985 13.1072 28.0881 12.3335C31.9778 11.5598 36.0095 11.9569 39.6735 13.4746C43.3375 14.9923 46.4691 17.5624 48.6724 20.8599C50.8758 24.1574 52.0518 28.0342 52.0518 32C52.0458 37.3162 49.9313 42.413 46.1721 46.1721C42.413 49.9313 37.3162 52.0458 32 52.0518ZM32 12.9483C28.2319 12.9483 24.5485 14.0656 21.4154 16.1591C18.2824 18.2525 15.8405 21.228 14.3985 24.7092C12.9565 28.1905 12.5792 32.0212 13.3143 35.7168C14.0494 39.4125 15.8639 42.8072 18.5284 45.4716C21.1928 48.1361 24.5875 49.9506 28.2832 50.6857C31.9789 51.4208 35.8096 51.0435 39.2908 49.6016C42.7721 48.1596 45.7475 45.7177 47.841 42.5846C49.9344 39.4516 51.0518 35.7681 51.0518 32C51.046 26.9489 49.037 22.1064 45.4653 18.5347C41.8937 14.9631 37.0511 12.954 32 12.9483V12.9483Z" fill="white"/>
<path d="M32 64H-1.18952e-05V51.0518H6.28612C2.17998 45.551 -0.0263014 38.8643 -1.18952e-05 32C-1.18952e-05 25.671 1.87676 19.4841 5.39296 14.2218C8.90917 8.95939 13.9069 4.85787 19.7541 2.43587C25.6014 0.0138652 32.0355 -0.619842 38.2429 0.614885C44.4503 1.84961 50.1521 4.89732 54.6274 9.3726C59.1027 13.8479 62.1504 19.5497 63.3851 25.7571C64.6198 31.9645 63.9861 38.3987 61.5641 44.2459C59.1421 50.0931 55.0406 55.0908 49.7782 58.607C44.5159 62.1232 38.329 64 32 64V64ZM0.999988 63H32C38.1312 63 44.1247 61.1819 49.2227 57.7756C54.3206 54.3693 58.2939 49.5277 60.6403 43.8632C62.9866 38.1987 63.6005 31.9656 62.4043 25.9522C61.2082 19.9388 58.2557 14.4151 53.9203 10.0797C49.5849 5.74428 44.0612 2.79181 38.0478 1.59567C32.0344 0.399529 25.8013 1.01343 20.1368 3.35975C14.4723 5.70607 9.63075 9.67941 6.22443 14.7773C2.81811 19.8753 0.999988 25.8688 0.999988 32C0.973878 38.9063 3.27966 45.6192 7.54399 51.0518H32V52.0518H0.999988V63Z" fill="white"/>
<path d="M56.887 64H32V63H56.51L62.742 57.526L56.368 51.927L57.028 51.176L64.258 57.526L56.887 64Z" fill="white"/>
</g>
<defs>
<clipPath id="clip0_20_4155">
<rect width="64.2578" height="64.0001" fill="white"/>
</clipPath>
</defs>
</svg>
