<svg width="64" height="64" viewBox="0 0 64 64" fill="none" xmlns="http://www.w3.org/2000/svg">
<g clip-path="url(#clip0_20_3966)">
<path opacity="0.15" d="M22.5383 11.6757C22.3715 12.6514 22.2862 13.6392 22.2833 14.6291C22.2672 16.051 21.8715 17.4428 21.1373 18.6605C20.403 19.8783 19.3568 20.8778 18.1068 21.5558C16.7841 22.2975 15.6829 23.3784 14.9167 24.6871C14.1505 25.9959 13.7469 27.4851 13.7474 29.0017H22.7696V11.6338C22.4889 11.6338 22.8157 11.6627 22.5383 11.6757Z" fill="#183A9E"/>
<path opacity="0.15" d="M41.4604 11.6755C41.4604 11.6755 41.7155 13.633 41.7155 14.6289C41.7316 16.0508 42.1273 17.4426 42.8615 18.6604C43.5958 19.8781 44.642 20.8777 45.892 21.5556C47.2147 22.2974 48.3159 23.3782 49.0821 24.687C49.8484 25.9957 50.252 27.485 50.2514 29.0015H41.7153L41.4604 11.6755Z" fill="#183A9E"/>
<path opacity="0.15" d="M63.5 32.0015C63.4998 40.3556 60.181 48.3675 54.2736 54.2746C48.3662 60.1818 40.3541 63.5003 32 63.5001C32.0002 55.146 35.319 47.1341 41.2264 41.227C47.1338 35.3198 55.1459 32.0013 63.5 32.0015V32.0015Z" fill="#183A9E"/>
<path d="M32.5 64H32C23.5162 63.9906 15.3825 60.6164 9.38345 54.6176C3.38436 48.6188 0.0097616 40.4853 0 32.0015L0 31.5015H0.5C8.9838 31.5108 17.1175 34.8851 23.1165 40.8839C29.1156 46.8827 32.4902 55.0162 32.5 63.5V64ZM1.00391 32.5054C1.14384 40.5486 4.40136 48.2232 10.0897 53.9113C15.7781 59.5994 23.4529 62.8566 31.4961 62.9961C31.3562 54.9529 28.0986 47.2783 22.4103 41.5902C16.7219 35.9021 9.0471 32.6449 1.00391 32.5054V32.5054Z" fill="#204ECF"/>
<path d="M32 64H31.5V63.5C31.5098 55.0162 34.8845 46.8828 40.8835 40.884C46.8826 34.8852 55.0162 31.5109 63.5 31.5015H64V32.0015C63.9902 40.4852 60.6155 48.6187 54.6165 54.6175C48.6174 60.6163 40.4838 63.9905 32 64V64ZM62.9961 32.5054C54.9529 32.6449 47.2781 35.9021 41.5897 41.5902C35.9014 47.2783 32.6438 54.9529 32.5039 62.9961C40.5471 62.8566 48.2219 59.5995 53.9103 53.9114C59.5987 48.2232 62.8562 40.5486 62.9961 32.5054V32.5054Z" fill="#204ECF"/>
<path d="M50.752 29.5015H13.2476V29.0015C13.2491 27.3966 13.6772 25.8211 14.488 24.4361C15.2988 23.0511 16.4632 21.9066 17.8618 21.1196C19.0318 20.4821 20.0115 19.5451 20.7005 18.4047C21.3895 17.2642 21.7631 15.9612 21.7832 14.6289C21.7833 10.2163 23.3746 5.9517 26.2651 2.61768C26.9776 1.79602 27.8583 1.13706 28.8476 0.685433C29.8368 0.233801 30.9116 4.64725e-05 31.9992 6.92866e-09C33.0867 -4.64587e-05 34.1615 0.233616 35.1508 0.685163C36.1402 1.13671 37.0209 1.79559 37.7334 2.61719C40.6238 5.95149 42.2151 10.2162 42.2153 14.6289C42.2354 15.9612 42.6091 17.2642 43.2981 18.4047C43.9871 19.5451 44.9667 20.4821 46.1367 21.1196C47.5356 21.9064 48.7001 23.0509 49.5111 24.4359C50.3221 25.8209 50.7503 27.3965 50.752 29.0015V29.5015ZM14.2632 28.5015H49.7363C49.6512 27.1615 49.2325 25.864 48.5182 24.7271C47.8039 23.5902 46.8168 22.6499 45.6465 21.9917C44.3219 21.267 43.2136 20.2033 42.435 18.9097C41.6564 17.616 41.2355 16.1387 41.2153 14.6289C41.2154 10.4569 39.7108 6.42487 36.9775 3.27289C36.3591 2.55946 35.5945 1.98729 34.7356 1.59513C33.8767 1.20298 32.9436 1.00001 31.9994 0.999969C31.0552 0.999929 30.122 1.20282 29.2631 1.5949C28.4042 1.98698 27.6395 2.55908 27.021 3.27246C24.2879 6.42465 22.7832 10.4568 22.7832 14.6289C22.763 16.1387 22.3421 17.616 21.5635 18.9097C20.7849 20.2034 19.6766 21.267 18.352 21.9917C17.1818 22.6499 16.1947 23.5902 15.4806 24.7272C14.7665 25.8641 14.348 27.1616 14.2632 28.5015H14.2632Z" fill="#204ECF"/>
<path d="M32.5 29.0015H31.5V63.5H32.5V29.0015Z" fill="#204ECF"/>
<path d="M37.3281 12.4485H36.3281C36.3281 11.3006 35.8721 10.1997 35.0604 9.38804C34.2488 8.57636 33.1479 8.12036 32 8.12036C30.8521 8.12036 29.7512 8.57636 28.9396 9.38804C28.1279 10.1997 27.6719 11.3006 27.6719 12.4485H26.6719C26.6719 11.0354 27.2332 9.68015 28.2324 8.68093C29.2317 7.68171 30.5869 7.12036 32 7.12036C33.4131 7.12036 34.7683 7.68171 35.7675 8.68093C36.7668 9.68015 37.3281 11.0354 37.3281 12.4485V12.4485Z" fill="#204ECF"/>
<path d="M42.2153 14.6289H41.2153V29.0015H42.2153V14.6289Z" fill="#204ECF"/>
</g>
<defs>
<clipPath id="clip0_20_3966">
<rect width="64" height="64.0001" fill="white"/>
</clipPath>
</defs>
</svg>
