<svg width="64" height="65" viewBox="0 0 64 65" fill="none" xmlns="http://www.w3.org/2000/svg">
<g clip-path="url(#clip0_20_4194)">
<path opacity="0.3" d="M32.6288 32.3699L36.252 13.9453C34.8513 13.6704 33.4274 13.5318 32 13.5312V32.3082C32.2111 32.3085 32.4217 32.3292 32.6288 32.3699Z" fill="#231F20"/>
<path opacity="0.3" d="M34.3042 33.263C34.5494 33.5143 34.7519 33.8039 34.9038 34.1204L51.7228 25.7407C50.6612 23.6118 49.2628 21.6684 47.5816 19.9854L34.3042 33.263Z" fill="#231F20"/>
<path opacity="0.3" d="M29.691 33.2687L16.3831 20.021C12.3542 24.0668 10.0539 29.5191 9.96704 35.2281C9.88022 40.9372 12.0137 46.4569 15.9177 50.6234L29.6279 37.7878C29.0505 37.1733 28.7344 36.3586 28.7462 35.5155C28.7579 34.6724 29.0967 33.8668 29.691 33.2687Z" fill="#231F20"/>
<path opacity="0.3" d="M29.9098 38.0459L17.7984 52.4106C21.7676 55.7692 26.8005 57.6093 32 57.6027V38.8255C31.233 38.8211 30.4924 38.5448 29.9098 38.0459Z" fill="#231F20"/>
<path opacity="0.3" d="M35.2586 35.5669C35.2538 36.0791 35.1281 36.583 34.8916 37.0374L51.6406 45.5544C53.2182 42.4617 54.0391 39.0387 54.0358 35.5669L35.2586 35.5669Z" fill="#231F20"/>
<path opacity="0.3" d="M32.7396 38.7311L37.0152 57.0224C41.0168 56.0896 44.6771 54.0548 47.5816 51.1485L34.3042 37.8711C33.8738 38.299 33.3315 38.5971 32.7396 38.7311Z" fill="#231F20"/>
<path d="M32 64.002C26.3761 64.002 20.8784 62.3343 16.2023 59.2098C11.5262 56.0853 7.88161 51.6444 5.72943 46.4485C3.57725 41.2527 3.01414 35.5354 4.11131 30.0195C5.20848 24.5036 7.91666 19.437 11.8934 15.4603C15.8701 11.4836 20.9367 8.77539 26.4526 7.67822C31.9685 6.58105 37.6858 7.14416 42.8816 9.29634C48.0775 11.4485 52.5184 15.0931 55.6429 19.7692C58.7674 24.4454 60.4351 29.943 60.4351 35.5669C60.4266 43.1057 57.428 50.3334 52.0972 55.6641C46.7665 60.9949 39.5388 63.9935 32 64.002ZM32 8.13186C26.5739 8.13186 21.2696 9.7409 16.7579 12.7555C12.2462 15.7701 8.7298 20.0549 6.65331 25.068C4.57681 30.0811 4.03351 35.5974 5.0921 40.9192C6.15069 46.2411 8.76362 51.1296 12.6005 54.9664C16.4373 58.8033 21.3258 61.4162 26.6477 62.4748C31.9696 63.5334 37.4858 62.9901 42.499 60.9136C47.5121 58.8371 51.7968 55.3207 54.8114 50.809C57.826 46.2973 59.4351 40.9931 59.4351 35.5669C59.4269 28.2932 56.5338 21.3197 51.3905 16.1764C46.2472 11.0331 39.2737 8.14002 32 8.13186Z" fill="white"/>
<path d="M38.0527 0.00195312H25.9473V1.00195H38.0527V0.00195312Z" fill="white"/>
<path d="M52.7915 7.21729L52.0845 7.92432L59.6426 15.4824L60.3496 14.7754L52.7915 7.21729Z" fill="white"/>
<path d="M11.2085 7.21728L3.65039 14.7754L4.35742 15.4824L11.9155 7.92431L11.2085 7.21728Z" fill="white"/>
<path d="M32.5 0.501953H31.5V7.63183H32.5V0.501953Z" fill="white"/>
<path d="M8.13674 10.9961L7.42967 11.7031L11.8935 16.1675L12.6006 15.4605L8.13674 10.9961Z" fill="white"/>
<path d="M55.8634 10.9963L51.3993 15.4604L52.1063 16.1675L56.5704 11.7034L55.8634 10.9963Z" fill="white"/>
<path d="M32 39.3237C31.1309 39.3232 30.2888 39.0213 29.6173 38.4695C28.9458 37.9177 28.4864 37.1501 28.3174 36.2976C28.1483 35.4451 28.2801 34.5603 28.6902 33.794C29.1004 33.0277 29.7636 32.4274 30.5667 32.0952C31.3699 31.7631 32.2634 31.7197 33.0949 31.9724C33.9265 32.2252 34.6447 32.7584 35.1272 33.4813C35.6097 34.2042 35.8266 35.072 35.741 35.937C35.6554 36.8019 35.2726 37.6103 34.6577 38.2246C34.3089 38.5739 33.8946 38.8507 33.4385 39.0394C32.9824 39.228 32.4936 39.3246 32 39.3237ZM32 32.8096C31.3621 32.81 30.7441 33.0316 30.2513 33.4366C29.7584 33.8416 29.4213 34.405 29.2972 35.0307C29.1732 35.6564 29.2699 36.3058 29.571 36.8682C29.872 37.4306 30.3588 37.8712 30.9482 38.115C31.5377 38.3587 32.1935 38.3906 32.8038 38.2051C33.4142 38.0195 33.9413 37.6281 34.2954 37.0976C34.6495 36.567 34.8087 35.93 34.7458 35.2952C34.683 34.6604 34.402 34.0671 33.9507 33.6162C33.6947 33.3599 33.3906 33.1567 33.0558 33.0183C32.721 32.8799 32.3622 32.8089 32 32.8096Z" fill="white"/>
<path d="M16.772 19.6318L16.0649 20.3389L29.3423 33.6162L30.0493 32.9092L16.772 19.6318Z" fill="white"/>
</g>
<defs>
<clipPath id="clip0_20_4194">
<rect width="64" height="64.002" fill="white"/>
</clipPath>
</defs>
</svg>
