<svg width="65" height="65" viewBox="0 0 65 65" fill="none" xmlns="http://www.w3.org/2000/svg">
<g clip-path="url(#clip0_20_4213)">
<path opacity="0.3" d="M50.5655 31.9578C49.1227 31.9527 47.7407 31.3759 46.7223 30.3538C45.7039 29.3318 45.1321 27.9477 45.1321 26.5049C45.1321 25.062 45.7039 23.678 46.7223 22.6559C47.7407 21.6339 49.1227 21.0571 50.5655 21.0519H47.21C46.137 21.0524 45.0878 20.7361 44.1938 20.1428C43.2997 19.5495 42.6007 18.7055 42.1844 17.7166C41.768 16.7277 41.6527 15.6379 41.8531 14.5838C42.0534 13.5297 42.5604 12.5582 43.3105 11.791L43.3087 11.7896C40.4715 10.5619 37.3781 10.0432 34.2956 10.2783C31.2131 10.5135 28.2342 11.4954 25.6161 13.1393C22.9979 14.7832 20.8193 17.0396 19.2682 19.7138C17.7172 22.388 16.8404 25.3996 16.7135 28.4884C16.5866 31.5773 17.2135 34.6506 18.54 37.443C19.8666 40.2354 21.8528 42.6629 24.3273 44.516C26.8019 46.369 29.6902 47.5919 32.7431 48.0791C35.7959 48.5662 38.9214 48.3029 41.8497 47.312L41.8537 47.3113C42.0879 46.0618 42.7515 44.9334 43.7295 44.1213C44.7076 43.3093 45.9387 42.8645 47.21 42.8641H50.5655C49.1205 42.8621 47.7354 42.2867 46.7143 41.2643C45.6933 40.2418 45.1198 38.8559 45.1198 37.411C45.1198 35.966 45.6933 34.5801 46.7143 33.5576C47.7354 32.5352 49.1205 31.9598 50.5655 31.9578H50.5655ZM35.7286 31.9849C35.1915 31.985 34.6664 31.8257 34.2198 31.5274C33.7732 31.229 33.4251 30.8049 33.2195 30.3086C33.0139 29.8124 32.9601 29.2664 33.0649 28.7396C33.1697 28.2128 33.4283 27.7289 33.8081 27.3491C34.1879 26.9692 34.6718 26.7106 35.1986 26.6058C35.7253 26.501 36.2714 26.5548 36.7676 26.7603C37.2639 26.9659 37.688 27.314 37.9864 27.7606C38.2848 28.2072 38.4441 28.7322 38.444 29.2693C38.444 29.626 38.3738 29.9791 38.2374 30.3085C38.1009 30.638 37.9009 30.9373 37.6488 31.1895C37.3966 31.4417 37.0973 31.6417 36.7678 31.7782C36.4383 31.9147 36.0852 31.9849 35.7286 31.9849Z" fill="#231F20"/>
<path d="M35.7285 48.8174C32.8255 48.8156 29.9593 48.1672 27.3381 46.9194C24.717 45.6715 22.4066 43.8555 20.575 41.6033C18.7433 39.351 17.4363 36.7191 16.7488 33.8986C16.0613 31.0782 16.0107 28.14 16.6006 25.2975C17.1905 22.455 18.406 19.7796 20.159 17.4656C21.912 15.1516 24.1584 13.2571 26.735 11.9197C29.3116 10.5823 32.1538 9.83553 35.055 9.73371C37.9563 9.63189 40.8438 10.1775 43.5078 11.331L43.1094 12.248C40.3466 11.0524 37.3342 10.5472 34.3324 10.7761C31.3307 11.005 28.4298 11.9611 25.8802 13.5619C23.3306 15.1627 21.209 17.36 19.6986 19.9642C18.1882 22.5683 17.3344 25.501 17.2108 28.5089C17.0873 31.5168 17.6979 34.5096 18.9897 37.2288C20.2815 39.948 22.2158 42.3119 24.6256 44.1164C27.0353 45.9208 29.8481 47.1116 32.8209 47.5858C35.7938 48.06 38.8374 47.8035 41.689 46.8384L42.0103 47.7856C39.987 48.4712 37.8648 48.8197 35.7285 48.8174Z" fill="white"/>
<path d="M21.3326 9.19556L15.6556 14.8726L16.3627 15.5796L22.0397 9.90259L21.3326 9.19556Z" fill="white"/>
<path d="M19.2012 12.0337L18.4941 12.7407L21.9072 16.1543L22.6143 15.4473L19.2012 12.0337Z" fill="white"/>
<path d="M35.7285 32.4849C35.0925 32.4849 34.4708 32.2964 33.942 31.9431C33.4131 31.5897 33.0009 31.0875 32.7575 30.5C32.5141 29.9124 32.4504 29.2658 32.5745 28.642C32.6985 28.0182 33.0048 27.4453 33.4545 26.9955C33.9042 26.5458 34.4772 26.2396 35.101 26.1155C35.7248 25.9914 36.3714 26.0551 36.9589 26.2985C37.5465 26.5419 38.0487 26.9541 38.402 27.483C38.7554 28.0118 38.9439 28.6335 38.9439 29.2695C38.9429 30.122 38.6038 30.9393 38.001 31.542C37.3983 32.1448 36.581 32.4839 35.7285 32.4849ZM35.7285 27.0537C35.2903 27.0537 34.862 27.1836 34.4976 27.427C34.1332 27.6704 33.8492 28.0164 33.6814 28.4212C33.5137 28.826 33.4698 29.2715 33.5552 29.7013C33.6407 30.1311 33.8516 30.5259 34.1615 30.8358C34.4713 31.1457 34.866 31.3567 35.2958 31.4423C35.7256 31.5278 36.1711 31.484 36.5759 31.3163C36.9808 31.1487 37.3268 30.8647 37.5703 30.5004C37.8138 30.1361 37.9438 29.7077 37.9439 29.2695C37.9433 28.6821 37.7097 28.119 37.2944 27.7036C36.8791 27.2882 36.3159 27.0545 35.7285 27.0537V27.0537Z" fill="white"/>
<path d="M36.2285 15.3232H35.2285V26.5537H36.2285V15.3232Z" fill="white"/>
<path d="M54.8935 54.27H47.21C45.6312 54.27 44.1171 53.6428 43.0007 52.5265C41.8843 51.4101 41.2571 49.8959 41.2571 48.3171C41.2571 46.7383 41.8843 45.2242 43.0007 44.1078C44.1171 42.9914 45.6312 42.3643 47.21 42.3643H54.8936C56.4724 42.3643 57.9865 42.9914 59.1029 44.1078C60.2193 45.2242 60.8465 46.7383 60.8465 48.3171C60.8465 49.8959 60.2193 51.4101 59.1029 52.5265C57.9865 53.6428 56.4724 54.27 54.8936 54.27H54.8935ZM47.21 43.3643C45.8964 43.3643 44.6366 43.8861 43.7078 44.8149C42.7789 45.7438 42.2571 47.0036 42.2571 48.3172C42.2571 49.6307 42.7789 50.8905 43.7078 51.8194C44.6366 52.7482 45.8964 53.27 47.21 53.27H54.8936C56.2072 53.27 57.467 52.7482 58.3958 51.8194C59.3246 50.8905 59.8465 49.6307 59.8465 48.3172C59.8465 47.0036 59.3246 45.7438 58.3958 44.8149C57.467 43.8861 56.2072 43.3643 54.8936 43.3643H47.21Z" fill="white"/>
<path d="M58.2495 43.3643H50.5654C48.9879 43.3622 47.4757 42.7341 46.3609 41.6179C45.2462 40.5017 44.62 38.9887 44.62 37.4111C44.62 35.8336 45.2462 34.3206 46.3609 33.2044C47.4757 32.0882 48.9879 31.4601 50.5654 31.458H58.2495C59.827 31.4601 61.3393 32.0882 62.454 33.2044C63.5688 34.3206 64.1949 35.8336 64.1949 37.4111C64.1949 38.9887 63.5688 40.5017 62.454 41.6179C61.3393 42.7341 59.827 43.3622 58.2495 43.3643V43.3643ZM50.5654 32.458C49.253 32.4599 47.995 32.9825 47.0676 33.9112C46.1402 34.8399 45.6193 36.0987 45.6193 37.4111C45.6193 38.7236 46.1402 39.9823 47.0676 40.911C47.995 41.8397 49.253 42.3624 50.5654 42.3642H58.2495C59.5619 42.3624 60.82 41.8397 61.7473 40.911C62.6747 39.9823 63.1956 38.7236 63.1956 37.4111C63.1956 36.0987 62.6747 34.8399 61.7473 33.9112C60.82 32.9825 59.5619 32.4599 58.2495 32.458H50.5654Z" fill="white"/>
<path d="M58.2495 32.458H50.5654C48.9879 32.456 47.4757 31.8279 46.3609 30.7117C45.2462 29.5954 44.62 28.0824 44.62 26.5049C44.62 24.9274 45.2462 23.4143 46.3609 22.2981C47.4757 21.1819 48.9879 20.5538 50.5654 20.5518H58.2495C59.827 20.5538 61.3393 21.1819 62.454 22.2981C63.5688 23.4143 64.1949 24.9274 64.1949 26.5049C64.1949 28.0824 63.5688 29.5954 62.454 30.7117C61.3393 31.8279 59.827 32.456 58.2495 32.458ZM50.5654 21.5518C49.253 21.5536 47.995 22.0763 47.0676 23.005C46.1402 23.9337 45.6193 25.1925 45.6193 26.5049C45.6193 27.8173 46.1402 29.0761 47.0676 30.0048C47.995 30.9335 49.253 31.4562 50.5654 31.458H58.2495C59.5619 31.4562 60.82 30.9335 61.7473 30.0048C62.6747 29.0761 63.1956 27.8173 63.1956 26.5049C63.1956 25.1925 62.6747 23.9337 61.7473 23.005C60.82 22.0763 59.5619 21.5536 58.2495 21.5518H50.5654Z" fill="white"/>
<path d="M54.8935 21.5518H47.21C45.6312 21.5518 44.1171 20.9246 43.0007 19.8082C41.8843 18.6918 41.2571 17.1777 41.2571 15.5989C41.2571 14.0201 41.8843 12.5059 43.0007 11.3896C44.1171 10.2732 45.6312 9.646 47.21 9.646H54.8936C56.4724 9.646 57.9865 10.2732 59.1029 11.3896C60.2193 12.5059 60.8465 14.0201 60.8465 15.5989C60.8465 17.1777 60.2193 18.6918 59.1029 19.8082C57.9865 20.9246 56.4724 21.5518 54.8936 21.5518H54.8935ZM47.21 10.646C45.8964 10.646 44.6366 11.1678 43.7078 12.0967C42.7789 13.0255 42.2571 14.2853 42.2571 15.5989C42.2571 16.9125 42.7789 18.1722 43.7078 19.1011C44.6366 20.0299 45.8964 20.5518 47.21 20.5518H54.8936C55.544 20.5518 56.1881 20.4236 56.789 20.1747C57.3899 19.9258 57.9359 19.561 58.3958 19.1011C58.8557 18.6412 59.2205 18.0952 59.4694 17.4943C59.7184 16.8933 59.8465 16.2493 59.8465 15.5989C59.8465 14.9485 59.7184 14.3044 59.4694 13.7035C59.2205 13.1026 58.8557 12.5566 58.3958 12.0967C57.9359 11.6367 57.3899 11.2719 56.789 11.023C56.1881 10.7741 55.544 10.646 54.8936 10.646H47.21Z" fill="white"/>
<path d="M19.0688 64.2138L0 44.621L6.95508 37.6654V16.2943C6.95471 14.8263 7.31274 13.3805 7.99809 12.0823C8.68343 10.7841 9.67535 9.67287 10.8877 8.84511L23.0606 0.531638C23.42 0.2862 23.8281 0.120849 24.257 0.0467726C24.6859 -0.0273034 25.1258 -0.00837501 25.5467 0.102277C25.9677 0.212929 26.36 0.412722 26.6971 0.688135C27.0342 0.963549 27.3081 1.30816 27.5005 1.69864C28.3393 3.38641 28.6537 5.28661 28.4032 7.1546C28.1528 9.02259 27.3489 10.7729 26.0952 12.1801L21.7651 17.0619L21.0171 16.3978L25.3472 11.5165C26.4675 10.2598 27.1864 8.69677 27.4114 7.02833C27.6364 5.35988 27.3573 3.66227 26.6099 2.1537C26.4823 1.88961 26.2993 1.65617 26.0732 1.46933C25.8472 1.28249 25.5834 1.14665 25.3 1.07109C25.0167 0.995525 24.7203 0.982023 24.4312 1.03151C24.1422 1.08099 23.8672 1.19229 23.625 1.3578L11.4522 9.67129C10.374 10.4071 9.49194 11.395 8.88248 12.5492C8.27303 13.7034 7.95467 14.989 7.95508 16.2943V38.0795L1.4043 44.6308L19.0786 62.7899L28.5977 53.2699H47.21V54.2699H29.0117L19.0688 64.2138Z" fill="white"/>
<path d="M36.2285 4.75293H35.2285V10.2217H36.2285V4.75293Z" fill="white"/>
<path d="M39.6699 4.25293H31.7871V5.25293H39.6699V4.25293Z" fill="white"/>
</g>
<defs>
<clipPath id="clip0_20_4213">
<rect width="64.2021" height="64.2139" fill="white"/>
</clipPath>
</defs>
</svg>
