<svg width="64" height="64" viewBox="0 0 64 64" fill="none" xmlns="http://www.w3.org/2000/svg">
<g clip-path="url(#clip0_20_4230)">
<path opacity="0.3" d="M40.1584 0.5H23.8416V5H40.1584V0.5Z" fill="#231F20"/>
<path opacity="0.3" d="M63.5 43.751H0.500015V53.3752H63.5V43.751Z" fill="#231F20"/>
<path d="M64 53.875H0V4.5H64V53.875ZM1 52.875H63V5.5H1V52.875Z" fill="white"/>
<path d="M32.5 53.375H31.5V63.5H32.5V53.375Z" fill="white"/>
<path d="M19.88 53.0948L13.0228 63.1958L13.8499 63.7573L20.7072 53.6563L19.88 53.0948Z" fill="white"/>
<path d="M44.1212 53.0944L43.2939 53.6558L50.1489 63.7583L50.9761 63.197L44.1212 53.0944Z" fill="white"/>
<path d="M40.658 5H39.658V1H24.342V5H23.342V0H40.658V5Z" fill="white"/>
<path d="M47.1548 13.3262L38.4653 22.0156L39.1724 22.7227L47.8618 14.0332L47.1548 13.3262Z" fill="white"/>
<path d="M39.1724 13.3262L38.4653 14.0332L47.1548 22.7227L47.8618 22.0156L39.1724 13.3262Z" fill="white"/>
<path d="M24.8276 35.6523L16.1382 44.3418L16.8452 45.0488L25.5347 36.3594L24.8276 35.6523Z" fill="white"/>
<path d="M16.8452 35.6523L16.1382 36.3594L24.8276 45.0488L25.5347 44.3418L16.8452 35.6523Z" fill="white"/>
<path d="M20.8364 22.8692C19.8782 22.8692 18.9416 22.585 18.1449 22.0527C17.3481 21.5203 16.7272 20.7637 16.3605 19.8784C15.9938 18.9932 15.8979 18.0191 16.0848 17.0793C16.2717 16.1395 16.7331 15.2762 17.4107 14.5987C18.0882 13.9211 18.9515 13.4597 19.8913 13.2728C20.8311 13.0858 21.8052 13.1818 22.6904 13.5485C23.5757 13.9152 24.3323 14.5361 24.8647 15.3328C25.397 16.1295 25.6812 17.0662 25.6812 18.0244C25.6797 19.3089 25.1688 20.5403 24.2606 21.4486C23.3523 22.3568 22.1209 22.8677 20.8364 22.8692V22.8692ZM20.8364 14.1797C20.076 14.1797 19.3327 14.4052 18.7004 14.8276C18.0682 15.2501 17.5754 15.8506 17.2844 16.5531C16.9934 17.2556 16.9172 18.0287 17.0656 18.7745C17.2139 19.5203 17.5801 20.2054 18.1178 20.7431C18.6555 21.2808 19.3406 21.6469 20.0864 21.7953C20.8322 21.9436 21.6052 21.8675 22.3078 21.5765C23.0103 21.2855 23.6107 20.7927 24.0332 20.1604C24.4557 19.5282 24.6812 18.7848 24.6812 18.0244C24.68 17.0051 24.2746 16.0278 23.5538 15.307C22.8331 14.5862 21.8558 14.1808 20.8364 14.1797V14.1797Z" fill="white"/>
<path d="M43.1636 45.1953C42.2054 45.1953 41.2687 44.9112 40.472 44.3788C39.6753 43.8465 39.0543 43.0898 38.6876 42.2046C38.3209 41.3193 38.225 40.3452 38.4119 39.4054C38.5989 38.4656 39.0603 37.6024 39.7378 36.9248C40.4154 36.2473 41.2786 35.7859 42.2184 35.5989C43.1582 35.412 44.1323 35.508 45.0176 35.8746C45.9028 36.2413 46.6595 36.8623 47.1918 37.659C47.7242 38.4557 48.0083 39.3924 48.0083 40.3506C48.0069 41.6351 47.496 42.8665 46.5877 43.7747C45.6795 44.683 44.448 45.1939 43.1636 45.1953V45.1953ZM43.1636 36.5059C42.4032 36.5059 41.6598 36.7314 41.0276 37.1538C40.3953 37.5763 39.9025 38.1768 39.6115 38.8793C39.3205 39.5818 39.2444 40.3549 39.3927 41.1007C39.5411 41.8465 39.9073 42.5315 40.4449 43.0692C40.9826 43.6069 41.6677 43.9731 42.4135 44.1215C43.1593 44.2698 43.9324 44.1937 44.6349 43.9027C45.3374 43.6117 45.9379 43.1189 46.3604 42.4866C46.7828 41.8544 47.0083 41.111 47.0083 40.3506C47.0072 39.3313 46.6018 38.354 45.881 37.6332C45.1602 36.9124 44.1829 36.507 43.1636 36.5059V36.5059Z" fill="white"/>
<path d="M39.6558 37.7783H31.251V36.7783H39.6558L39.5913 28.438H40.5913V36.8428C40.591 37.0908 40.4923 37.3285 40.3169 37.5039C40.1415 37.6793 39.9038 37.7779 39.6558 37.7783V37.7783Z" fill="white"/>
<path d="M24.2627 20.7427L23.5557 21.4497L39.7378 37.6318L40.4448 36.9248L24.2627 20.7427Z" fill="white"/>
</g>
<defs>
<clipPath id="clip0_20_4230">
<rect width="64" height="64" fill="white"/>
</clipPath>
</defs>
</svg>
