<svg width="64" height="64" viewBox="0 0 64 64" fill="none" xmlns="http://www.w3.org/2000/svg">
<g clip-path="url(#clip0_20_4289)">
<path opacity="0.15" d="M31.9997 26.3918C34.0793 26.3918 36.1123 25.7752 37.8415 24.6198C39.5706 23.4645 40.9184 21.8223 41.7142 19.901C42.5101 17.9796 42.7183 15.8655 42.3126 13.8258C41.9069 11.7861 40.9055 9.91253 39.4349 8.442C37.9644 6.97148 36.0909 5.97004 34.0512 5.56434C32.0115 5.15863 29.8973 5.36688 27.976 6.16274C26.0547 6.9586 24.4125 8.30633 23.2571 10.0355C22.1018 11.7647 21.4851 13.7976 21.4852 15.8773C21.4853 18.6659 22.5931 21.3402 24.5649 23.3121C26.5368 25.2839 29.2111 26.3917 31.9997 26.3918V26.3918Z" fill="#183A9E"/>
<path opacity="0.15" d="M31.9997 26.3919C26.3693 26.3919 20.9694 28.6286 16.9881 32.6099C13.0068 36.5913 10.77 41.9911 10.77 47.6216H26.7291C28.127 47.6216 29.4677 48.1769 30.4562 49.1654C31.4447 50.1538 32 51.4945 32 52.8924V52.8924C32 51.4945 32.5553 50.1539 33.5438 49.1654C34.5323 48.1769 35.8729 47.6216 37.2709 47.6216H53.2299C53.2345 44.4024 52.5041 41.2247 51.0942 38.3307L45.8412 43.6015L41.9253 44.5997L42.9235 40.6838L48.873 34.7356C46.8932 32.1391 44.3403 30.0352 41.4134 28.5879C38.4865 27.1406 35.2649 26.389 31.9997 26.3919V26.3919Z" fill="#183A9E"/>
<path d="M31.9999 59.1377C30.977 59.1363 29.9651 58.9253 29.0269 58.5177C28.0887 58.11 27.2439 57.5144 26.5449 56.7676H0.499939V55.7676H26.9911L27.1406 55.9366C27.7473 56.6281 28.4946 57.1822 29.3326 57.5618C30.1706 57.9414 31.08 58.1377 31.9999 58.1377C32.9199 58.1377 33.8293 57.9414 34.6673 57.5618C35.5053 57.1822 36.2526 56.6281 36.8593 55.9366L37.0087 55.7676H63.4999V56.7676H37.4555C36.7564 57.5145 35.9116 58.1101 34.9732 58.5178C34.0349 58.9254 33.023 59.1364 31.9999 59.1377Z" fill="#204ECF"/>
<path d="M60.9404 56.5068L56.374 48.1216H37.271C36.0061 48.123 34.7934 48.6261 33.8989 49.5205C33.0045 50.4149 32.5014 51.6277 32.5 52.8926H31.5C31.4986 51.6277 30.9955 50.4149 30.1011 49.5205C29.2066 48.6261 27.9939 48.123 26.729 48.1216H7.62591L3.05951 56.5068L2.18158 56.0283L7.03216 47.1216H26.7289C27.844 47.1226 28.9349 47.4463 29.8702 48.0534C30.8055 48.6606 31.5451 49.5254 31.9999 50.5435C32.4548 49.5254 33.1944 48.6606 34.1297 48.0534C35.0649 47.4463 36.1559 47.1226 37.2709 47.1216H56.9677L61.8183 56.0283L60.9404 56.5068Z" fill="#204ECF"/>
<path d="M41.2328 45.2921L42.4726 40.4273L57.5033 25.3965C57.9841 24.9158 58.636 24.6458 59.3158 24.6458C59.9957 24.6458 60.6476 24.9158 61.1283 25.3965C61.6091 25.8772 61.8791 26.5292 61.8791 27.209C61.8791 27.8888 61.6091 28.5408 61.1283 29.0215L46.0976 44.0523L41.2328 45.2921ZM43.374 40.9401L42.6176 43.9074L45.5849 43.151L60.4213 28.3145C60.7145 28.0213 60.8792 27.6236 60.8792 27.209C60.8792 26.7944 60.7145 26.3967 60.4213 26.1035C60.1281 25.8104 59.7305 25.6456 59.3158 25.6456C58.9012 25.6456 58.5036 25.8104 58.2104 26.1035L43.374 40.9401Z" fill="#204ECF"/>
<path d="M32 26.8916C29.8215 26.8916 27.6919 26.2456 25.8805 25.0353C24.0692 23.825 22.6574 22.1048 21.8237 20.0921C20.9901 18.0794 20.7719 15.8647 21.1969 13.7281C21.6219 11.5915 22.671 9.62885 24.2114 8.08843C25.7518 6.548 27.7145 5.49896 29.8511 5.07395C31.9877 4.64895 34.2024 4.86708 36.2151 5.70075C38.2277 6.53443 39.948 7.9462 41.1583 9.75755C42.3686 11.5689 43.0146 13.6985 43.0146 15.877C43.0114 18.7972 41.8499 21.597 39.7849 23.6619C37.72 25.7269 34.9202 26.8884 32 26.8916ZM32 5.86232C30.0192 5.86232 28.083 6.44966 26.4361 7.55009C24.7892 8.65051 23.5056 10.2146 22.7476 12.0445C21.9896 13.8745 21.7913 15.8881 22.1777 17.8307C22.5641 19.7734 23.5179 21.5578 24.9185 22.9584C26.3191 24.359 28.1035 25.3128 30.0462 25.6992C31.9888 26.0856 34.0024 25.8873 35.8324 25.1293C37.6623 24.3713 39.2264 23.0877 40.3268 21.4408C41.4272 19.7939 42.0146 17.8577 42.0146 15.877C42.0116 13.2219 40.9555 10.6764 39.078 8.79891C37.2006 6.92145 34.6551 5.86536 32 5.86232V5.86232Z" fill="#204ECF"/>
<path d="M53.7299 47.6216H52.7299C52.7385 44.4781 52.0252 41.3746 50.6449 38.5503L51.5433 38.1118C52.9909 41.0724 53.739 44.326 53.7299 47.6216V47.6216Z" fill="#204ECF"/>
<path d="M11.27 47.6215H10.27C10.2702 43.0771 11.695 38.647 14.3442 34.9546C16.9933 31.2621 20.7334 28.4931 25.0383 27.0371C29.3432 25.5811 33.9963 25.5114 38.3429 26.8377C42.6895 28.164 46.5109 30.8197 49.2695 34.4311L48.4755 35.0385C45.8438 31.5932 42.1983 29.0597 38.0517 27.7943C33.9051 26.529 29.4661 26.5954 25.3592 27.9844C21.2523 29.3733 17.6843 32.0149 15.1569 35.5374C12.6296 39.0599 11.2702 43.2861 11.27 47.6215V47.6215Z" fill="#204ECF"/>
</g>
<defs>
<clipPath id="clip0_20_4289">
<rect width="64" height="64" fill="white"/>
</clipPath>
</defs>
</svg>
