<svg width="65" height="64" viewBox="0 0 65 64" fill="none" xmlns="http://www.w3.org/2000/svg">
<g clip-path="url(#clip0_20_4726)">
<path opacity="0.3" d="M52.2944 35.4688H47.2596L38.6064 23.7192V35.4688H13.6676V41.9621H17.9711C17.9728 43.1133 18.4313 44.2167 19.246 45.0301C20.0606 45.8435 21.1647 46.3003 22.3159 46.3003C23.4671 46.3003 24.5712 45.8435 25.3858 45.0301C26.2005 44.2167 26.659 43.1133 26.6607 41.9621H41.1604C41.1604 43.1144 41.6181 44.2195 42.4329 45.0343C43.2477 45.8491 44.3528 46.3069 45.5052 46.3069C46.6575 46.3069 47.7626 45.8491 48.5774 45.0343C49.3922 44.2195 49.8499 43.1144 49.8499 41.9621H52.2944V35.4688Z" fill="#231F20"/>
<path d="M22.3156 46.8072C21.3574 46.8072 20.4206 46.5231 19.6238 45.9908C18.827 45.4585 18.206 44.7018 17.8392 43.8165C17.4725 42.9312 17.3765 41.9571 17.5634 41.0172C17.7503 40.0774 18.2117 39.2141 18.8892 38.5364C19.5668 37.8588 20.4301 37.3973 21.3699 37.2103C22.3097 37.0233 23.2839 37.1192 24.1692 37.4859C25.0546 37.8526 25.8113 38.4735 26.3437 39.2703C26.8761 40.067 27.1603 41.0037 27.1603 41.962C27.1591 43.2465 26.6483 44.4781 25.74 45.3865C24.8317 46.2949 23.6002 46.8058 22.3156 46.8072V46.8072ZM22.3156 38.1173C21.5551 38.1172 20.8117 38.3427 20.1793 38.7651C19.547 39.1876 19.0541 39.7881 18.7631 40.4907C18.472 41.1933 18.3959 41.9664 18.5442 42.7123C18.6926 43.4582 19.0588 44.1433 19.5965 44.6811C20.1343 45.2188 20.8194 45.585 21.5653 45.7334C22.3112 45.8817 23.0843 45.8056 23.7869 45.5145C24.4895 45.2235 25.09 44.7306 25.5125 44.0982C25.9349 43.4659 26.1604 42.7225 26.1603 41.962C26.1592 40.9426 25.7538 39.9654 25.033 39.2446C24.3122 38.5238 23.335 38.1184 22.3156 38.1173V38.1173Z" fill="white"/>
<path d="M45.5051 46.8072C44.5468 46.8072 43.6101 46.5231 42.8133 45.9908C42.0165 45.4585 41.3954 44.7018 41.0287 43.8165C40.6619 42.9312 40.5659 41.9571 40.7528 41.0172C40.9397 40.0774 41.4011 39.2141 42.0787 38.5364C42.7562 37.8588 43.6195 37.3973 44.5593 37.2103C45.4992 37.0233 46.4733 37.1192 47.3587 37.4859C48.244 37.8526 49.0007 38.4735 49.5331 39.2703C50.0655 40.067 50.3497 41.0037 50.3498 41.962C50.3485 43.2465 49.8377 44.4781 48.9294 45.3865C48.0212 46.2949 46.7896 46.8058 45.5051 46.8072V46.8072ZM45.5051 38.1173C44.7446 38.1172 44.0011 38.3427 43.3688 38.7651C42.7364 39.1876 42.2436 39.7881 41.9525 40.4907C41.6615 41.1933 41.5853 41.9664 41.7337 42.7123C41.882 43.4582 42.2482 44.1433 42.786 44.6811C43.3237 45.2188 44.0089 45.585 44.7547 45.7334C45.5006 45.8817 46.2737 45.8056 46.9763 45.5145C47.6789 45.2235 48.2794 44.7306 48.7019 44.0982C49.1244 43.4659 49.3498 42.7225 49.3498 41.962C49.3487 40.9426 48.9432 39.9654 48.2225 39.2446C47.5017 38.5238 46.5244 38.1184 45.5051 38.1173V38.1173Z" fill="white"/>
<path d="M41.1603 41.4619H26.6603V42.4619H41.1603V41.4619Z" fill="white"/>
<path d="M17.971 42.4619H13.168V18.2109H39.107V41.9619H38.107V19.2109H14.168V41.4619H17.971V42.4619Z" fill="white"/>
<path d="M52.794 42.4622H49.85V41.4622H51.794V30.6082L47.088 24.2192H38.607V23.2192H47.594L52.794 30.2802V42.4622Z" fill="white"/>
<path d="M32.0002 63.9961C27.0952 63.9927 22.2566 62.8619 17.8582 60.6911C13.4597 58.5202 9.61912 55.3674 6.633 51.4761L7.426 50.8677C11.5608 56.2927 17.3844 60.1863 23.9777 61.9341C31.9166 64.0545 40.3724 62.9392 47.4899 58.8329C54.6075 54.7265 59.8055 47.9644 61.9435 40.0303C63.731 33.4479 63.2746 26.4577 60.6466 20.1636L61.5705 19.7808C64.2832 26.2782 64.7546 33.494 62.9103 40.2891C61.0768 47.0868 57.0562 53.0918 51.4695 57.3766C45.8828 61.6614 39.0408 63.9877 32.0002 63.9961V63.9961Z" fill="white"/>
<path d="M2.44548 44.2191C-0.26722 37.7217 -0.738644 30.5059 1.10563 23.7108C3.31272 15.5203 8.67869 8.53988 16.0262 4.30095C23.3737 0.0620179 32.1027 -1.08917 40.298 1.09996C47.1039 2.90434 53.1151 6.92371 57.383 12.5238L56.59 13.1322C52.4552 7.70718 46.6316 3.81355 40.0382 2.06577C32.0994 -0.0542288 23.6438 1.06128 16.5263 5.16758C9.4089 9.27388 4.21083 16.0357 2.07243 23.9696C0.285001 30.5519 0.741317 37.5422 3.36931 43.8363L2.44548 44.2191Z" fill="white"/>
<path d="M57.498 13.3431H48.735V12.3431H56.498V4.58008H57.498V13.3431Z" fill="white"/>
<path d="M7.52899 59.4349H6.52899V50.6719H15.293V51.6719H7.52899V59.4349Z" fill="white"/>
</g>
<defs>
<clipPath id="clip0_20_4726">
<rect width="64.016" height="64" fill="white"/>
</clipPath>
</defs>
</svg>
