<svg width="64" height="64" viewBox="0 0 64 64" fill="none" xmlns="http://www.w3.org/2000/svg">
<g clip-path="url(#clip0_20_4315)">
<path opacity="0.15" d="M13.9492 4.24878H50.0502C50.4485 4.24878 50.8304 4.40697 51.112 4.68856C51.3935 4.97014 51.5517 5.35205 51.5517 5.75027V58.2504C51.5517 58.6485 51.3936 59.0303 51.1121 59.3118C50.8306 59.5933 50.4488 59.7514 50.0507 59.7514H13.9492C13.5512 59.7514 13.1694 59.5933 12.8879 59.3118C12.6064 59.0303 12.4482 58.6485 12.4482 58.2504V5.74974C12.4483 5.35166 12.6064 4.96988 12.8879 4.6884C13.1694 4.40691 13.5512 4.24878 13.9492 4.24878V4.24878Z" fill="#183A9E"/>
<path d="M50.0503 64H13.9497C12.4253 63.9982 10.9638 63.3919 9.8858 62.3139C8.80785 61.236 8.20148 59.7744 8.19971 58.25V5.75C8.20148 4.22555 8.80785 2.76405 9.8858 1.6861C10.9638 0.608148 12.4253 0.00177586 13.9497 0L50.0503 0C51.5747 0.00177586 53.0362 0.608148 54.1142 1.6861C55.1921 2.76405 55.7985 4.22555 55.8003 5.75V58.25C55.7985 59.7744 55.1921 61.236 54.1142 62.3139C53.0362 63.3919 51.5747 63.9982 50.0503 64ZM13.9497 1C12.6904 1.00143 11.483 1.50233 10.5925 2.39282C9.70204 3.28331 9.20114 4.49066 9.19971 5.75V58.25C9.20114 59.5093 9.70204 60.7167 10.5925 61.6072C11.483 62.4977 12.6904 62.9986 13.9497 63H50.0503C51.3096 62.9986 52.517 62.4977 53.4075 61.6072C54.298 60.7167 54.7989 59.5093 54.8003 58.25V5.75C54.7989 4.49066 54.298 3.28331 53.4075 2.39282C52.517 1.50233 51.3096 1.00143 50.0503 1H13.9497Z" fill="#204ECF"/>
</g>
<defs>
<clipPath id="clip0_20_4315">
<rect width="64" height="64" fill="white"/>
</clipPath>
</defs>
</svg>
