<svg width="64" height="64" viewBox="0 0 64 64" fill="none" xmlns="http://www.w3.org/2000/svg">
<path opacity="0.15" d="M32 40.9562H42.9891C42.9894 39.5127 42.7055 38.0833 42.1535 36.7495C41.6014 35.4158 40.7921 34.2039 39.7716 33.1829C38.7512 32.1619 37.5397 31.352 36.2062 30.7992C34.8727 30.2465 33.4435 29.9618 32 29.9614V40.9562Z" fill="#183A9E"/>
<path opacity="0.15" d="M47.75 52.212H58.7391C58.7398 49.2968 57.5824 46.5007 55.5216 44.4388C53.4607 42.3769 50.6652 41.2181 47.75 41.2173V52.212Z" fill="#183A9E"/>
<path opacity="0.15" d="M47.75 28.1914V39.0824C49.1924 39.0796 50.5748 38.5047 51.5938 37.4838C52.6128 36.4628 53.1851 35.0793 53.1851 33.6369C53.1851 32.1945 52.6128 30.811 51.5938 29.79C50.5748 28.7691 49.1924 28.1942 47.75 28.1914V28.1914Z" fill="#183A9E"/>
<path opacity="0.15" d="M37.4427 22.381L38.9273 27.8265H32V16.9355C33.4439 16.9359 34.8284 17.5098 35.8492 18.5311C36.8699 19.5523 37.4431 20.9372 37.4427 22.381V22.381Z" fill="#183A9E"/>
<path opacity="0.15" d="M21.6927 11.1254L23.1773 16.5709H9.32272L10.8073 11.1253C10.8073 10.4106 10.9481 9.70285 11.2216 9.0425C11.4951 8.38216 11.896 7.78216 12.4014 7.27676C12.9068 6.77135 13.5068 6.37044 14.1672 6.09692C14.8275 5.8234 15.5353 5.68262 16.25 5.68262C16.9648 5.68262 17.6725 5.8234 18.3329 6.09692C18.9932 6.37044 19.5932 6.77135 20.0986 7.27676C20.604 7.78216 21.0049 8.38216 21.2784 9.0425C21.552 9.70285 21.6927 10.4106 21.6927 11.1253V11.1254Z" fill="#183A9E"/>
<path opacity="0.15" d="M16.25 18.708C13.3352 18.708 10.5397 19.8659 8.47868 21.927C6.41762 23.9881 5.25973 26.7835 5.25974 29.6983H27.2403C27.2403 28.2551 26.956 26.8259 26.4037 25.4925C25.8514 24.1591 25.0418 22.9475 24.0213 21.927C23.0007 20.9064 21.7892 20.0969 20.4558 19.5446C19.1224 18.9923 17.6932 18.708 16.25 18.708V18.708Z" fill="#183A9E"/>
<path d="M47.75 39.582V38.582C49.0616 38.582 50.3196 38.061 51.247 37.1335C52.1745 36.206 52.6956 34.9481 52.6956 33.6365C52.6956 32.3248 52.1745 31.0669 51.247 30.1394C50.3196 29.212 49.0616 28.6909 47.75 28.6909V27.6909C49.3269 27.6909 50.8391 28.3173 51.9541 29.4323C53.0692 30.5473 53.6956 32.0596 53.6956 33.6365C53.6956 35.2133 53.0692 36.7256 51.9541 37.8406C50.8391 38.9556 49.3269 39.582 47.75 39.582V39.582Z" fill="#204ECF"/>
<path d="M59.2393 52.2119H58.2393C58.2369 49.4302 57.1312 46.7631 55.1647 44.7956C53.1983 42.8282 50.5317 41.7211 47.75 41.7173V40.7173C50.7968 40.7215 53.7175 41.934 55.8714 44.0889C58.0253 46.2438 59.2365 49.1651 59.2393 52.2119V52.2119Z" fill="#204ECF"/>
<path d="M64 63.9999H36.573L31.5 58.9239V52.2119H32.5V58.5099L36.987 62.9999H63V23.5439H47.75V22.5439H64V63.9999Z" fill="#204ECF"/>
<path d="M63.5 51.7119H47.75V52.7119H63.5V51.7119Z" fill="#204ECF"/>
<path d="M53.8877 57.356H41.6123V58.356H53.8877V57.356Z" fill="#204ECF"/>
<path d="M43.4893 40.9561H42.4893C42.4869 38.1744 41.3812 35.5072 39.4147 33.5398C37.4483 31.5723 34.7817 30.4652 32 30.4614V29.4614C35.0468 29.4656 37.9675 30.6781 40.1214 32.8331C42.2753 34.988 43.4865 37.9093 43.4893 40.9561V40.9561Z" fill="#204ECF"/>
<path d="M48.25 52.7119H20.823L15.75 47.6359V40.9559H16.75V47.2219L21.237 51.7119H47.25V12.2559H32V11.2559H48.25V52.7119Z" fill="#204ECF"/>
<path d="M47.75 40.4561H32V41.4561H47.75V40.4561Z" fill="#204ECF"/>
<path d="M39.5644 28.3262H32V27.3262H38.291L36.8096 21.2588C36.5608 20.1703 35.9491 19.1988 35.0751 18.504C34.201 17.8092 33.1166 17.4324 32 17.4356V16.4356C33.3417 16.4314 34.6449 16.8836 35.6957 17.718C36.7464 18.5523 37.4822 19.7192 37.7822 21.0269L39.5644 28.3262Z" fill="#204ECF"/>
<path d="M38.1377 46.0679H25.8623V47.0679H38.1377V46.0679Z" fill="#204ECF"/>
<path d="M27.7393 29.7007H26.7393C26.7393 26.9188 25.6341 24.2508 23.667 22.2837C21.6999 20.3165 19.0319 19.2114 16.25 19.2114C13.4681 19.2114 10.8001 20.3165 8.83298 22.2837C6.86586 24.2508 5.76074 26.9188 5.76074 29.7007H4.76074C4.76074 28.1919 5.05792 26.6979 5.63531 25.3039C6.2127 23.91 7.05899 22.6434 8.12587 21.5766C9.19274 20.5097 10.4593 19.6634 11.8533 19.086C13.2472 18.5086 14.7412 18.2114 16.25 18.2114C17.7588 18.2114 19.2528 18.5086 20.6468 19.086C22.0407 19.6634 23.3073 20.5097 24.3741 21.5766C25.441 22.6434 26.2873 23.91 26.8647 25.3039C27.4421 26.6979 27.7393 28.1919 27.7393 29.7007Z" fill="#204ECF"/>
<path d="M32.5 41.4561H5.07422L0 36.3818V0H32.5V41.4561ZM5.48828 40.4561H31.5V1H1V35.9678L5.48828 40.4561Z" fill="#204ECF"/>
<path d="M32 29.2007H0.5V30.2007H32V29.2007Z" fill="#204ECF"/>
<path d="M23.8144 17.0707H8.68555L10.4697 9.76555C10.7745 8.4608 11.5117 7.29753 12.5614 6.46493C13.6112 5.63232 14.9118 5.17935 16.2516 5.17969C17.5915 5.18003 18.8919 5.63365 19.9412 6.4668C20.9905 7.29994 21.7272 8.46358 22.0312 9.76848L23.8144 17.0707ZM9.95898 16.0707H22.541L21.0576 9.99748C20.8051 8.91173 20.1925 7.94341 19.3196 7.25018C18.4466 6.55694 17.3647 6.17961 16.25 6.17961C15.1352 6.17961 14.0533 6.55694 13.1804 7.25018C12.3074 7.94341 11.6949 8.91173 11.4424 9.99748L9.95898 16.0707Z" fill="#204ECF"/>
<path d="M22.3877 34.7798H10.1123V35.7798H22.3877V34.7798Z" fill="#204ECF"/>
</svg>
