<svg width="64" height="65" viewBox="0 0 64 65" fill="none" xmlns="http://www.w3.org/2000/svg">
<g clip-path="url(#clip0_20_4368)">
<path opacity="0.15" d="M31.9999 32.4865C32.9703 32.4865 33.9188 32.1988 34.7256 31.6597C35.5324 31.1206 36.1613 30.3544 36.5326 29.4579C36.904 28.5614 37.0011 27.575 36.8118 26.6233C36.6225 25.6716 36.1553 24.7974 35.4691 24.1113C34.783 23.4251 33.9088 22.9579 32.9571 22.7686C32.0054 22.5793 31.019 22.6764 30.1225 23.0478C29.226 23.4191 28.4598 24.048 27.9207 24.8548C27.3816 25.6616 27.0939 26.6101 27.0939 27.5805C27.0939 28.8816 27.6108 30.1295 28.5309 31.0495C29.4509 31.9696 30.6988 32.4865 31.9999 32.4865V32.4865Z" fill="#183A9E"/>
<path opacity="0.15" d="M31.9998 32.4868C29.3727 32.4868 26.8532 33.5305 24.9956 35.3881C23.1379 37.2458 22.0943 39.7653 22.0943 42.3924H41.9053C41.9053 41.0916 41.6491 39.8035 41.1513 38.6017C40.6535 37.3999 39.9239 36.3079 39.0041 35.3881C38.0843 34.4683 36.9923 33.7386 35.7905 33.2408C34.5887 32.743 33.3006 32.4868 31.9998 32.4868V32.4868Z" fill="#183A9E"/>
<path d="M12.1889 11.3452C11.1197 11.3453 10.0744 11.0282 9.18539 10.4342C8.29634 9.84023 7.60341 8.99593 7.19421 8.0081C6.78501 7.02028 6.67794 5.93329 6.88652 4.88461C7.0951 3.83592 7.60998 2.87264 8.36604 2.11659C9.12209 1.36053 10.0854 0.845653 11.1341 0.637069C12.1827 0.428485 13.2697 0.535562 14.2576 0.944759C15.2454 1.35396 16.0897 2.04689 16.6837 2.93594C17.2777 3.82499 17.5947 4.87022 17.5947 5.93945C17.593 7.37264 17.0229 8.74665 16.0095 9.76007C14.9961 10.7735 13.6221 11.3436 12.1889 11.3452V11.3452ZM12.1889 1.53321C11.3175 1.53316 10.4656 1.79152 9.74101 2.27562C9.01642 2.75971 8.45166 3.44781 8.11814 4.25288C7.78461 5.05795 7.69731 5.94385 7.86727 6.79853C8.03723 7.65322 8.45682 8.43832 9.07297 9.05455C9.68913 9.67077 10.4742 10.0904 11.3288 10.2605C12.1835 10.4306 13.0694 10.3433 13.8745 10.0099C14.6796 9.67648 15.3678 9.11179 15.852 8.38725C16.3362 7.66272 16.5946 6.81088 16.5947 5.93946C16.5934 4.77133 16.1288 3.6514 15.3028 2.82536C14.4769 1.99932 13.357 1.53462 12.1889 1.5332V1.53321Z" fill="#204ECF"/>
<path d="M22.5942 20.7511H21.5942C21.5967 19.5143 21.3553 18.2892 20.8838 17.1458C20.4123 16.0025 19.7199 14.9633 18.8462 14.0879C17.9726 13.2124 16.9349 12.5179 15.7925 12.044C14.6501 11.5701 13.4254 11.3262 12.1887 11.3262C10.9519 11.3262 9.72724 11.5701 8.58485 12.044C7.44245 12.5179 6.40474 13.2124 5.5311 14.0879C4.65747 14.9633 3.96507 16.0025 3.49354 17.1458C3.02201 18.2892 2.78061 19.5143 2.78316 20.7511H1.78316C1.78048 19.3829 2.04765 18.0276 2.56937 16.7628C3.09109 15.498 3.85713 14.3485 4.82364 13.3801C5.79015 12.4117 6.93815 11.6434 8.20193 11.1192C9.46572 10.595 10.8205 10.3252 12.1887 10.3252C13.5569 10.3252 14.9116 10.595 16.1754 11.1192C17.4392 11.6434 18.5872 12.4117 19.5537 13.3801C20.5202 14.3485 21.2862 15.498 21.808 16.7628C22.3297 18.0276 22.5968 19.3829 22.5942 20.7511V20.7511Z" fill="#204ECF"/>
<path d="M31.9999 11.3452C30.9307 11.3452 29.8855 11.0281 28.9966 10.434C28.1076 9.83993 27.4147 8.9956 27.0056 8.00776C26.5965 7.01993 26.4895 5.93296 26.6981 4.88431C26.9067 3.83565 27.4217 2.87242 28.1777 2.11641C28.9338 1.36041 29.8971 0.845577 30.9458 0.637033C31.9944 0.428488 33.0814 0.535594 34.0692 0.944806C35.057 1.35402 35.9013 2.04696 36.4952 2.93599C37.0892 3.82503 37.4062 4.87024 37.4062 5.93945C37.4045 7.37272 36.8344 8.74681 35.8209 9.76024C34.8073 10.7737 33.4332 11.3437 31.9999 11.3452V11.3452ZM31.9999 1.53321C31.1285 1.53325 30.2767 1.7917 29.5522 2.27585C28.8277 2.76001 28.263 3.44814 27.9295 4.25322C27.5961 5.0583 27.5088 5.94418 27.6789 6.79883C27.8489 7.65349 28.2685 8.43854 28.8847 9.05472C29.5008 9.67089 30.2859 10.0905 31.1406 10.2605C31.9952 10.4305 32.8811 10.3433 33.6862 10.0099C34.4912 9.67642 35.1794 9.11173 35.6635 8.3872C36.1477 7.66268 36.4061 6.81086 36.4062 5.93946C36.4049 4.77124 35.9402 3.65124 35.1142 2.82519C34.2881 1.99914 33.1681 1.53449 31.9999 1.5332V1.53321Z" fill="#204ECF"/>
<path d="M42.4057 20.751H41.4057C41.4031 18.2582 40.411 15.8683 38.6474 14.1064C36.8837 12.3446 34.4928 11.355 31.9999 11.355C29.507 11.355 27.1161 12.3446 25.3525 14.1064C23.5888 15.8683 22.5967 18.2582 22.5941 20.751H21.5941C21.5969 17.993 22.6944 15.3489 24.6455 13.3996C26.5967 11.4504 29.2419 10.3555 31.9999 10.3555C34.7579 10.3555 37.4031 11.4504 39.3543 13.3996C41.3055 15.3489 42.403 17.993 42.4057 20.751V20.751Z" fill="#204ECF"/>
<path d="M51.811 11.3452C50.7418 11.3452 49.6966 11.0281 48.8076 10.434C47.9186 9.83993 47.2258 8.9956 46.8167 8.00776C46.4075 7.01993 46.3005 5.93296 46.5092 4.88431C46.7178 3.83565 47.2327 2.87242 47.9888 2.11641C48.7449 1.36041 49.7082 0.845577 50.7568 0.637033C51.8055 0.428488 52.8925 0.535594 53.8803 0.944806C54.8681 1.35402 55.7123 2.04696 56.3063 2.93599C56.9003 3.82503 57.2173 4.87024 57.2172 5.93945C57.2157 7.37275 56.6456 8.7469 55.6321 9.76036C54.6185 10.7738 53.2443 11.3438 51.811 11.3452V11.3452ZM51.811 1.53321C50.9396 1.53325 50.0878 1.7917 49.3632 2.27585C48.6387 2.76001 48.074 3.44814 47.7406 4.25322C47.4071 5.0583 47.3199 5.94418 47.4899 6.79883C47.6599 7.65349 48.0796 8.43854 48.6957 9.05472C49.3119 9.67089 50.097 10.0905 50.9516 10.2605C51.8063 10.4305 52.6922 10.3433 53.4972 10.0099C54.3023 9.67642 54.9904 9.11173 55.4746 8.3872C55.9588 7.66268 56.2172 6.81086 56.2172 5.93946C56.216 4.77123 55.7514 3.65121 54.9253 2.82515C54.0992 1.99909 52.9792 1.53445 51.811 1.5332V1.53321Z" fill="#204ECF"/>
<path d="M62.2167 20.7511H61.2167C61.2193 19.5143 60.9779 18.2892 60.5063 17.1458C60.0348 16.0025 59.3424 14.9633 58.4688 14.0879C57.5951 13.2124 56.5574 12.5179 55.415 12.044C54.2726 11.5701 53.048 11.3262 51.8112 11.3262C50.5744 11.3262 49.3498 11.5701 48.2074 12.044C47.065 12.5179 46.0273 13.2124 45.1537 14.0879C44.28 14.9633 43.5876 16.0025 43.1161 17.1458C42.6446 18.2892 42.4032 19.5143 42.4057 20.7511H41.4057C41.403 19.3829 41.6702 18.0276 42.1919 16.7628C42.7137 15.498 43.4797 14.3485 44.4462 13.3801C45.4127 12.4117 46.5607 11.6434 47.8245 11.1192C49.0883 10.595 50.443 10.3252 51.8112 10.3252C53.1794 10.3252 54.5342 10.595 55.798 11.1192C57.0617 11.6434 58.2097 12.4117 59.1762 13.3801C60.1427 14.3485 60.9088 15.498 61.4305 16.7628C61.9522 18.0276 62.2194 19.3829 62.2167 20.7511V20.7511Z" fill="#204ECF"/>
<path d="M12.1889 32.9868C11.1196 32.9869 10.0743 32.6699 9.18521 32.0759C8.29609 31.482 7.60308 30.6376 7.19382 29.6498C6.78456 28.6619 6.67743 27.5749 6.88597 26.5262C7.09452 25.4774 7.60938 24.5141 8.36543 23.7579C9.12149 23.0018 10.0848 22.4869 11.1335 22.2782C12.1822 22.0696 13.2693 22.1766 14.2572 22.5858C15.2451 22.995 16.0894 23.6879 16.6835 24.577C17.2776 25.466 17.5947 26.5113 17.5947 27.5806C17.593 29.0138 17.023 30.3879 16.0096 31.4014C14.9962 32.4149 13.6221 32.985 12.1889 32.9868V32.9868ZM12.1889 23.1743C11.3174 23.1742 10.4654 23.4326 9.74078 23.9167C9.01611 24.4008 8.45127 25.0889 8.1177 25.894C7.78413 26.6992 7.6968 27.5851 7.86676 28.4399C8.03672 29.2946 8.45633 30.0798 9.07254 30.6961C9.68875 31.3124 10.4739 31.7321 11.3286 31.9021C12.1833 32.0722 13.0693 31.9849 13.8745 31.6515C14.6797 31.318 15.3678 30.7532 15.852 30.0286C16.3362 29.304 16.5947 28.4521 16.5947 27.5806C16.5934 26.4124 16.1288 25.2925 15.3028 24.4665C14.4769 23.6404 13.357 23.1757 12.1889 23.1743V23.1743Z" fill="#204ECF"/>
<path d="M22.5942 42.392H21.5942C21.589 39.9008 20.5958 37.5135 18.8325 35.7538C17.0692 33.9941 14.6798 33.0058 12.1887 33.0058C9.69752 33.0058 7.30813 33.9941 5.54481 35.7538C3.7815 37.5135 2.78829 39.9008 2.78316 42.392H1.78316C1.78856 39.6358 2.88724 36.9943 4.83806 35.0473C6.78888 33.1003 9.43248 32.0068 12.1887 32.0068C14.9448 32.0068 17.5884 33.1003 19.5393 35.0473C21.4901 36.9943 22.5888 39.6358 22.5942 42.392V42.392Z" fill="#204ECF"/>
<path d="M31.9999 32.9868C30.9307 32.9868 29.8854 32.6697 28.9964 32.0757C28.1073 31.4817 27.4144 30.6373 27.0052 29.6495C26.596 28.6616 26.489 27.5746 26.6976 26.5259C26.9062 25.4772 27.4211 24.5139 28.1771 23.7578C28.9332 23.0017 29.8965 22.4868 30.9452 22.2782C31.9939 22.0696 33.081 22.1767 34.0688 22.5858C35.0567 22.995 35.901 23.688 36.4951 24.577C37.0891 25.4661 37.4062 26.5113 37.4062 27.5806C37.4046 29.0139 36.8344 30.388 35.8209 31.4016C34.8074 32.4151 33.4333 32.9852 31.9999 32.9868V32.9868ZM31.9999 23.1743C31.1285 23.1743 30.2766 23.4327 29.552 23.9169C28.8274 24.4011 28.2626 25.0892 27.9291 25.8944C27.5956 26.6995 27.5083 27.5855 27.6784 28.4402C27.8484 29.2949 28.268 30.08 28.8843 30.6963C29.5005 31.3125 30.2856 31.7321 31.1403 31.9022C31.9951 32.0722 32.881 31.9849 33.6861 31.6514C34.4913 31.3179 35.1794 30.7532 35.6636 30.0285C36.1478 29.3039 36.4062 28.452 36.4062 27.5806C36.4049 26.4124 35.9403 25.2924 35.1142 24.4663C34.2881 23.6403 33.1682 23.1756 31.9999 23.1743Z" fill="#204ECF"/>
<path d="M42.4057 42.3922H41.4057C41.4031 39.8993 40.411 37.5094 38.6474 35.7475C36.8837 33.9857 34.4928 32.9961 31.9999 32.9961C29.507 32.9961 27.1161 33.9857 25.3525 35.7475C23.5888 37.5094 22.5967 39.8993 22.5941 42.3922H21.5941C21.5969 39.6341 22.6944 36.99 24.6455 35.0408C26.5967 33.0915 29.2419 31.9966 31.9999 31.9966C34.7579 31.9966 37.4031 33.0915 39.3543 35.0408C41.3055 36.99 42.403 39.6341 42.4057 42.3922V42.3922Z" fill="#204ECF"/>
<path d="M51.811 32.9868C50.7418 32.9868 49.6965 32.6697 48.8075 32.0757C47.9184 31.4817 47.2255 30.6373 46.8163 29.6495C46.4071 28.6616 46.3 27.5746 46.5086 26.5259C46.7172 25.4772 47.2321 24.5139 47.9882 23.7578C48.7443 23.0017 49.7076 22.4868 50.7563 22.2782C51.805 22.0696 52.892 22.1767 53.8799 22.5858C54.8678 22.995 55.7121 23.688 56.3061 24.577C56.9002 25.4661 57.2173 26.5113 57.2173 27.5806C57.2157 29.0139 56.6457 30.3881 55.6321 31.4017C54.6186 32.4152 53.2444 32.9853 51.811 32.9868V32.9868ZM51.811 23.1743C50.9395 23.1743 50.0876 23.4327 49.363 23.9169C48.6384 24.4011 48.0737 25.0892 47.7402 25.8944C47.4067 26.6995 47.3194 27.5855 47.4894 28.4402C47.6594 29.2949 48.0791 30.08 48.6953 30.6963C49.3115 31.3125 50.0967 31.7321 50.9514 31.9022C51.8061 32.0722 52.6921 31.9849 53.4972 31.6514C54.3023 31.3179 54.9905 30.7532 55.4747 30.0285C55.9588 29.3039 56.2173 28.452 56.2173 27.5806C56.216 26.4123 55.7514 25.2923 54.9253 24.4663C54.0992 23.6402 52.9792 23.1756 51.811 23.1743V23.1743Z" fill="#204ECF"/>
<path d="M62.2167 42.392H61.2167C61.2116 39.9008 60.2184 37.5135 58.4551 35.7538C56.6918 33.9941 54.3024 33.0058 51.8112 33.0058C49.3201 33.0058 46.9307 33.9941 45.1674 35.7538C43.4041 37.5135 42.4109 39.9008 42.4057 42.392H41.4057C41.4111 39.6358 42.5098 36.9943 44.4606 35.0473C46.4115 33.1003 49.055 32.0068 51.8112 32.0068C54.5674 32.0068 57.211 33.1003 59.1618 35.0473C61.1127 36.9943 62.2113 39.6358 62.2167 42.392Z" fill="#204ECF"/>
<path d="M12.1889 54.6279C11.1197 54.628 10.0745 54.311 9.18544 53.717C8.29641 53.123 7.60347 52.2787 7.19426 51.2909C6.78504 50.3031 6.67794 49.2162 6.88648 48.1675C7.09503 47.1188 7.60986 46.1556 8.36586 45.3995C9.12187 44.6434 10.0851 44.1285 11.1338 43.9198C12.1824 43.7112 13.2694 43.8182 14.2572 44.2273C15.245 44.6365 16.0894 45.3293 16.6834 46.2183C17.2775 47.1073 17.5946 48.1525 17.5947 49.2217C17.593 50.6549 17.023 52.029 16.0096 53.0425C14.9962 54.056 13.6221 54.6262 12.1889 54.6279V54.6279ZM12.1889 44.8159C11.3175 44.8159 10.4656 45.0742 9.74096 45.5584C9.01636 46.0425 8.4516 46.7306 8.11809 47.5357C7.78458 48.3408 7.69731 49.2267 7.8673 50.0814C8.0373 50.9361 8.45694 51.7212 9.07314 52.3374C9.68935 52.9536 10.4744 53.3733 11.3291 53.5433C12.1838 53.7133 13.0698 53.626 13.8749 53.2925C14.68 52.959 15.3681 52.3942 15.8522 51.6696C16.3363 50.945 16.5947 50.0931 16.5947 49.2217C16.5933 48.0536 16.1287 46.9338 15.3027 46.1079C14.4768 45.2819 13.357 44.8173 12.1889 44.8159V44.8159Z" fill="#204ECF"/>
<path d="M22.5942 64.0331H21.5942C21.589 61.5419 20.5958 59.1546 18.8325 57.3949C17.0692 55.6352 14.6798 54.6469 12.1887 54.6469C9.69752 54.6469 7.30813 55.6352 5.54481 57.3949C3.7815 59.1546 2.78829 61.5419 2.78316 64.0331H1.78316C1.78856 61.2769 2.88724 58.6354 4.83806 56.6884C6.78888 54.7414 9.43248 53.6479 12.1887 53.6479C14.9448 53.6479 17.5884 54.7414 19.5393 56.6884C21.4901 58.6354 22.5888 61.2769 22.5942 64.0331V64.0331Z" fill="#204ECF"/>
<path d="M31.9999 54.6279C30.9307 54.6279 29.8856 54.3108 28.9966 53.7167C28.1076 53.1227 27.4148 52.2784 27.0056 51.2906C26.5965 50.3028 26.4895 49.2158 26.6981 48.1672C26.9067 47.1186 27.4215 46.1553 28.1776 45.3993C28.9336 44.6433 29.8968 44.1284 30.9455 43.9198C31.9941 43.7112 33.081 43.8182 34.0689 44.2274C35.0567 44.6365 35.901 45.3294 36.495 46.2184C37.089 47.1073 37.4061 48.1525 37.4062 49.2217C37.4045 50.655 36.8344 52.0291 35.8209 53.0427C34.8074 54.0562 33.4333 54.6263 31.9999 54.6279V54.6279ZM31.9999 44.8159C31.1285 44.816 30.2767 45.0744 29.5521 45.5586C28.8276 46.0428 28.2629 46.7309 27.9295 47.536C27.596 48.3412 27.5088 49.2271 27.6789 50.0817C27.8489 50.9364 28.2686 51.7214 28.8848 52.3376C29.5011 52.9538 30.2862 53.3733 31.1409 53.5433C31.9955 53.7133 32.8814 53.626 33.6865 53.2924C34.4916 52.9589 35.1797 52.3942 35.6638 51.6696C36.1479 50.945 36.4062 50.0931 36.4062 49.2217C36.4048 48.0535 35.9401 46.9336 35.1141 46.1077C34.288 45.2817 33.1681 44.8172 31.9999 44.8159V44.8159Z" fill="#204ECF"/>
<path d="M42.4057 64.0333H41.4057C41.4031 61.5404 40.411 59.1505 38.6474 57.3887C36.8837 55.6268 34.4928 54.6372 31.9999 54.6372C29.507 54.6372 27.1161 55.6268 25.3525 57.3887C23.5888 59.1505 22.5967 61.5404 22.5941 64.0333H21.5941C21.5969 61.2753 22.6944 58.6311 24.6455 56.6819C26.5967 54.7326 29.2419 53.6377 31.9999 53.6377C34.7579 53.6377 37.4031 54.7326 39.3543 56.6819C41.3055 58.6311 42.403 61.2753 42.4057 64.0333V64.0333Z" fill="#204ECF"/>
<path d="M51.811 54.6279C50.7418 54.6279 49.6967 54.3108 48.8077 53.7167C47.9187 53.1227 47.2258 52.2784 46.8167 51.2906C46.4076 50.3028 46.3005 49.2158 46.5091 48.1672C46.7177 47.1186 47.2326 46.1553 47.9886 45.3993C48.7447 44.6433 49.7079 44.1284 50.7565 43.9198C51.8052 43.7112 52.8921 43.8182 53.8799 44.2274C54.8677 44.6365 55.712 45.3294 56.3061 46.2184C56.9001 47.1073 57.2172 48.1525 57.2172 49.2217C57.2157 50.655 56.6456 52.0292 55.6321 53.0428C54.6186 54.0563 53.2444 54.6264 51.811 54.6279V54.6279ZM51.811 44.8159C50.9396 44.816 50.0877 45.0744 49.3632 45.5586C48.6387 46.0428 48.074 46.7309 47.7405 47.536C47.4071 48.3412 47.3199 49.2271 47.49 50.0817C47.66 50.9364 48.0797 51.7214 48.6959 52.3376C49.3121 52.9538 50.0972 53.3733 50.9519 53.5433C51.8066 53.7133 52.6925 53.626 53.4976 53.2924C54.3026 52.9589 54.9907 52.3942 55.4748 51.6696C55.9589 50.945 56.2173 50.0931 56.2172 49.2217C56.2159 48.0535 55.7512 46.9336 54.9251 46.1077C54.0991 45.2817 52.9791 44.8172 51.811 44.8159V44.8159Z" fill="#204ECF"/>
<path d="M62.2167 64.0331H61.2167C61.2116 61.5419 60.2184 59.1546 58.4551 57.3949C56.6918 55.6352 54.3024 54.6469 51.8112 54.6469C49.3201 54.6469 46.9307 55.6352 45.1674 57.3949C43.4041 59.1546 42.4109 61.5419 42.4057 64.0331H41.4057C41.4111 61.2769 42.5098 58.6354 44.4606 56.6884C46.4115 54.7414 49.055 53.6479 51.8112 53.6479C54.5674 53.6479 57.211 54.7414 59.1618 56.6884C61.1127 58.6354 62.2113 61.2769 62.2167 64.0331Z" fill="#204ECF"/>
</g>
<defs>
<clipPath id="clip0_20_4368">
<rect width="64" height="64.0332" fill="white"/>
</clipPath>
</defs>
</svg>
