<svg width="64" height="64" viewBox="0 0 64 64" fill="none" xmlns="http://www.w3.org/2000/svg">
<g clip-path="url(#clip0_1187_2099)">
<path opacity="0.3" fill-rule="evenodd" clip-rule="evenodd" d="M46.35 17.1C46.55 15.71 46.55 14.29 46.35 12.9L43.01 12.45C42.73 11.24 42.25 10.08 41.59 9.02L43.63 6.34C42.79 5.21 41.79 4.21 40.66 3.37L37.98 5.41C36.92 4.75 35.76 4.27 34.55 3.99L34.1 0.65C32.71 0.45 31.29 0.45 29.9 0.65L29.45 3.99C28.24 4.27 27.08 4.75 26.02 5.41L23.34 3.37C22.21 4.21 21.21 5.21 20.37 6.34L22.41 9.02C21.75 10.08 21.27 11.24 20.99 12.45L17.65 12.9C17.45 14.29 17.45 15.71 17.65 17.1L20.99 17.55C21.27 18.76 21.75 19.92 22.41 20.98L20.37 23.66C21.21 24.79 22.21 25.79 23.34 26.63L26.02 24.59C27.08 25.25 28.23 25.73 29.44 26.01L29.89 29.35C31.28 29.55 32.7 29.55 34.09 29.35L34.54 26.01C35.75 25.73 36.91 25.25 37.97 24.59L40.65 26.63C41.78 25.79 42.78 24.79 43.62 23.66L41.58 20.98C42.24 19.92 42.72 18.76 43 17.55L46.34 17.1H46.35ZM26.5 21C26.5 17.96 28.96 15.5 32 15.5C30.07 15.5 28.5 13.93 28.5 12C28.5 10.07 30.07 8.5 32 8.5C33.93 8.5 35.5 10.07 35.5 12C35.5 13.93 33.93 15.5 32 15.5C35.04 15.5 37.5 17.96 37.5 21H26.5Z" fill="black"/>
<path fill-rule="evenodd" clip-rule="evenodd" d="M34.1 0.65C32.71 0.45 31.29 0.45 29.9 0.65L29.45 3.99C28.24 4.27 27.08 4.75 26.02 5.41L23.34 3.37C22.21 4.21 21.21 5.21 20.37 6.34L22.41 9.02C21.75 10.08 21.27 11.24 20.99 12.45L17.65 12.9C17.45 14.29 17.45 15.71 17.65 17.1L20.99 17.55C21.27 18.76 21.75 19.92 22.41 20.98L20.37 23.66C21.21 24.79 22.21 25.79 23.34 26.63L26.02 24.59C27.08 25.25 28.23 25.73 29.44 26.01L29.89 29.35C31.28 29.55 32.7 29.55 34.09 29.35L34.54 26.01C35.75 25.73 36.91 25.25 37.97 24.59L40.65 26.63C41.78 25.79 42.78 24.79 43.62 23.66L41.58 20.98C42.24 19.92 42.72 18.76 43 17.55L46.34 17.1C46.54 15.71 46.54 14.29 46.34 12.9L43 12.45C42.72 11.24 42.24 10.08 41.58 9.02L43.62 6.34C42.78 5.21 41.78 4.21 40.65 3.37L37.97 5.41C36.91 4.75 35.75 4.27 34.54 3.99L34.09 0.65H34.1Z" stroke="white" stroke-miterlimit="10"/>
<path d="M32 15.5C33.933 15.5 35.5 13.933 35.5 12C35.5 10.067 33.933 8.5 32 8.5C30.067 8.5 28.5 10.067 28.5 12C28.5 13.933 30.067 15.5 32 15.5Z" stroke="white" stroke-miterlimit="10"/>
<path d="M26.5 21C26.5 17.96 28.96 15.5 32 15.5C35.04 15.5 37.5 17.96 37.5 21" stroke="white" stroke-miterlimit="10"/>
<path d="M8.5 55.5C11.2614 55.5 13.5 53.2614 13.5 50.5C13.5 47.7386 11.2614 45.5 8.5 45.5C5.73858 45.5 3.5 47.7386 3.5 50.5C3.5 53.2614 5.73858 55.5 8.5 55.5Z" stroke="white" stroke-miterlimit="10"/>
<path d="M0.5 63.5C0.5 59.08 4.08 55.5 8.5 55.5C12.92 55.5 16.5 59.08 16.5 63.5" stroke="white" stroke-miterlimit="10" stroke-linecap="square"/>
<path d="M31.5 55.5C34.2614 55.5 36.5 53.2614 36.5 50.5C36.5 47.7386 34.2614 45.5 31.5 45.5C28.7386 45.5 26.5 47.7386 26.5 50.5C26.5 53.2614 28.7386 55.5 31.5 55.5Z" stroke="white" stroke-miterlimit="10"/>
<path d="M23.5 63.5C23.5 59.08 27.08 55.5 31.5 55.5C35.92 55.5 39.5 59.08 39.5 63.5" stroke="white" stroke-miterlimit="10" stroke-linecap="square"/>
<path d="M54.5 55.5C57.2614 55.5 59.5 53.2614 59.5 50.5C59.5 47.7386 57.2614 45.5 54.5 45.5C51.7386 45.5 49.5 47.7386 49.5 50.5C49.5 53.2614 51.7386 55.5 54.5 55.5Z" stroke="white" stroke-miterlimit="10"/>
<path d="M46.5 63.5C46.5 59.08 50.08 55.5 54.5 55.5C58.92 55.5 62.5 59.08 62.5 63.5" stroke="white" stroke-miterlimit="10" stroke-linecap="square"/>
<path d="M54.5 46V39.5H8.5V46" stroke="white" stroke-miterlimit="10"/>
<path d="M31.5 45.5V34.5" stroke="white" stroke-miterlimit="10"/>
</g>
<defs>
<clipPath id="clip0_1187_2099">
<rect width="64" height="64" fill="white"/>
</clipPath>
</defs>
</svg>
