<svg width="64" height="65" viewBox="0 0 64 64" fill="none" xmlns="http://www.w3.org/2000/svg">
<g clip-path="url(#clip0_20_4793)">
<path opacity="0.3" d="M31.9999 32.5029C32.9703 32.5029 33.9188 32.2153 34.7256 31.6765C35.5324 31.1377 36.1613 30.3719 36.5326 29.4759C36.904 28.5799 37.0011 27.5939 36.8118 26.6427C36.6225 25.6915 36.1553 24.8178 35.4691 24.132C34.783 23.4462 33.9088 22.9792 32.9571 22.79C32.0054 22.6008 31.019 22.6979 30.1225 23.0691C29.226 23.4402 28.4598 24.0687 27.9207 24.8751C27.3816 25.6815 27.0939 26.6296 27.0939 27.5994C27.0939 28.8999 27.6108 30.1471 28.5309 31.0667C29.4509 31.9863 30.6988 32.5029 31.9999 32.5029V32.5029Z" fill="#231F20"/>
<path opacity="0.3" d="M31.9998 32.5029C29.3727 32.5029 26.8532 33.546 24.9956 35.4027C23.1379 37.2594 22.0943 39.7776 22.0943 42.4034H41.9053C41.9053 41.1032 41.6491 39.8158 41.1513 38.6146C40.6535 37.4135 39.9239 36.322 39.0041 35.4027C38.0843 34.4834 36.9923 33.7541 35.7905 33.2566C34.5887 32.759 33.3006 32.5029 31.9998 32.5029V32.5029Z" fill="#231F20"/>
<path d="M12.1889 11.3728C11.1197 11.3729 10.0744 11.056 9.18539 10.4623C8.29634 9.86861 7.60341 9.02475 7.19421 8.03743C6.78501 7.05012 6.67794 5.9637 6.88652 4.91555C7.0951 3.86741 7.60998 2.90463 8.36604 2.14897C9.12209 1.3933 10.0854 0.878694 11.1341 0.670218C12.1827 0.461742 13.2697 0.568764 14.2576 0.977749C15.2454 1.38673 16.0897 2.07931 16.6837 2.9679C17.2777 3.85649 17.5947 4.90118 17.5947 5.96985C17.593 7.4023 17.0229 8.7756 16.0095 9.78849C14.9961 10.8014 13.6221 11.3712 12.1889 11.3728V11.3728ZM12.1889 1.56589C11.3175 1.56584 10.4656 1.82407 9.74101 2.30792C9.01642 2.79176 8.45166 3.4795 8.11814 4.28415C7.78461 5.08881 7.69731 5.97425 7.86727 6.82849C8.03723 7.68274 8.45682 8.46743 9.07297 9.08333C9.68913 9.69924 10.4742 10.1187 11.3288 10.2887C12.1835 10.4586 13.0694 10.3715 13.8745 10.0382C14.6796 9.70494 15.3678 9.14055 15.852 8.41639C16.3362 7.69223 16.5946 6.84083 16.5947 5.96986C16.5934 4.80233 16.1288 3.68299 15.3028 2.85738C14.4769 2.03177 13.357 1.5673 12.1889 1.56588V1.56589Z" fill="white"/>
<path d="M22.5942 20.7735H21.5942C21.5967 19.5374 21.3553 18.3129 20.8838 17.1701C20.4123 16.0273 19.7199 14.9887 18.8462 14.1138C17.9726 13.2388 16.9349 12.5446 15.7925 12.071C14.6501 11.5973 13.4254 11.3535 12.1887 11.3535C10.9519 11.3535 9.72724 11.5973 8.58485 12.071C7.44245 12.5446 6.40474 13.2388 5.5311 14.1138C4.65747 14.9887 3.96507 16.0273 3.49354 17.1701C3.02201 18.3129 2.78061 19.5374 2.78316 20.7735H1.78316C1.78048 19.4061 2.04765 18.0515 2.56937 16.7873C3.09109 15.5232 3.85713 14.3743 4.82364 13.4064C5.79015 12.4385 6.93815 11.6706 8.20193 11.1466C9.46572 10.6227 10.8205 10.353 12.1887 10.353C13.5569 10.353 14.9116 10.6227 16.1754 11.1466C17.4392 11.6706 18.5872 12.4385 19.5537 13.4064C20.5202 14.3743 21.2862 15.5232 21.808 16.7873C22.3297 18.0515 22.5968 19.4061 22.5942 20.7735V20.7735Z" fill="white"/>
<path d="M31.9999 11.3728C30.9307 11.3728 29.8855 11.0558 28.9966 10.4621C28.1076 9.86831 27.4147 9.02442 27.0056 8.03709C26.5965 7.04977 26.4895 5.96336 26.6981 4.91525C26.9067 3.86715 27.4217 2.90441 28.1777 2.1488C28.9338 1.39318 29.8971 0.878618 30.9458 0.670182C31.9944 0.461746 33.0814 0.568796 34.0692 0.977795C35.057 1.38679 35.9013 2.07937 36.4952 2.96795C37.0892 3.85653 37.4062 4.9012 37.4062 5.96985C37.4045 7.40238 36.8344 8.77576 35.8209 9.78867C34.8073 10.8016 33.4332 11.3713 31.9999 11.3728V11.3728ZM31.9999 1.56589C31.1285 1.56594 30.2767 1.82425 29.5522 2.30815C28.8277 2.79206 28.263 3.47983 27.9295 4.28449C27.5961 5.08916 27.5088 5.97458 27.6789 6.82879C27.8489 7.68301 28.2685 8.46765 28.8847 9.08351C29.5008 9.69936 30.2859 10.1188 31.1406 10.2887C31.9952 10.4586 32.8811 10.3714 33.6862 10.0382C34.4912 9.70488 35.1794 9.14049 35.6635 8.41634C36.1477 7.69219 36.4061 6.84081 36.4062 5.96986C36.4049 4.80225 35.9402 3.68283 35.1142 2.8572C34.2881 2.03158 33.1681 1.56717 31.9999 1.56588V1.56589Z" fill="white"/>
<path d="M42.4057 20.7735H41.4057C41.4031 18.2819 40.411 15.8932 38.6474 14.1323C36.8837 12.3714 34.4928 11.3823 31.9999 11.3823C29.507 11.3823 27.1161 12.3714 25.3525 14.1323C23.5888 15.8932 22.5967 18.2819 22.5941 20.7735H21.5941C21.5969 18.0169 22.6944 15.3741 24.6455 13.4259C26.5967 11.4777 29.2419 10.3833 31.9999 10.3833C34.7579 10.3833 37.4031 11.4777 39.3543 13.4259C41.3055 15.3741 42.403 18.0169 42.4057 20.7735V20.7735Z" fill="white"/>
<path d="M51.811 11.3728C50.7418 11.3728 49.6966 11.0558 48.8076 10.4621C47.9186 9.86831 47.2258 9.02442 46.8167 8.03709C46.4075 7.04977 46.3005 5.96336 46.5092 4.91525C46.7178 3.86715 47.2327 2.90441 47.9888 2.1488C48.7449 1.39318 49.7082 0.878618 50.7568 0.670182C51.8055 0.461746 52.8925 0.568796 53.8803 0.977795C54.8681 1.38679 55.7123 2.07937 56.3063 2.96795C56.9003 3.85653 57.2173 4.9012 57.2172 5.96985C57.2157 7.40241 56.6456 8.77585 55.632 9.78878C54.6185 10.8017 53.2443 11.3714 51.811 11.3728V11.3728ZM51.811 1.56589C50.9396 1.56594 50.0878 1.82425 49.3632 2.30815C48.6387 2.79206 48.074 3.47983 47.7406 4.28449C47.4071 5.08916 47.3199 5.97458 47.4899 6.82879C47.6599 7.68301 48.0796 8.46765 48.6957 9.08351C49.3119 9.69936 50.097 10.1188 50.9516 10.2887C51.8063 10.4586 52.6922 10.3714 53.4972 10.0382C54.3023 9.70488 54.9904 9.14049 55.4746 8.41634C55.9588 7.69219 56.2172 6.84081 56.2172 5.96986C56.216 4.80224 55.7514 3.6828 54.9253 2.85716C54.0992 2.03153 52.9792 1.56714 51.811 1.56588V1.56589Z" fill="white"/>
<path d="M62.2167 20.7735H61.2167C61.2193 19.5374 60.9779 18.3129 60.5063 17.1701C60.0348 16.0273 59.3424 14.9887 58.4688 14.1138C57.5951 13.2388 56.5574 12.5446 55.415 12.071C54.2726 11.5973 53.048 11.3535 51.8112 11.3535C50.5744 11.3535 49.3498 11.5973 48.2074 12.071C47.065 12.5446 46.0273 13.2388 45.1537 14.1138C44.28 14.9887 43.5876 16.0273 43.1161 17.1701C42.6446 18.3129 42.4032 19.5374 42.4057 20.7735H41.4057C41.403 19.4061 41.6702 18.0515 42.1919 16.7873C42.7137 15.5232 43.4797 14.3743 44.4462 13.4064C45.4127 12.4385 46.5607 11.6706 47.8245 11.1466C49.0883 10.6227 50.443 10.353 51.8112 10.353C53.1794 10.353 54.5342 10.6227 55.798 11.1466C57.0617 11.6706 58.2097 12.4385 59.1762 13.4064C60.1428 14.3743 60.9088 15.5232 61.4305 16.7873C61.9522 18.0515 62.2194 19.4061 62.2167 20.7735V20.7735Z" fill="white"/>
<path d="M12.1889 33.0027C11.1196 33.0028 10.0743 32.686 9.18521 32.0923C8.29609 31.4986 7.60308 30.6547 7.19382 29.6674C6.78456 28.6801 6.67743 27.5936 6.88597 26.5454C7.09452 25.4972 7.60938 24.5343 8.36543 23.7786C9.12149 23.0229 10.0848 22.5082 11.1335 22.2997C12.1822 22.0911 13.2693 22.1981 14.2572 22.6071C15.2451 23.016 16.0894 23.7086 16.6835 24.5972C17.2776 25.4858 17.5947 26.5305 17.5947 27.5993C17.593 29.0317 17.023 30.4051 16.0096 31.4181C14.9962 32.4311 13.6221 33.0009 12.1889 33.0027V33.0027ZM12.1889 23.1953C11.3174 23.1952 10.4654 23.4534 9.74078 23.9372C9.01611 24.4211 8.45127 25.1089 8.1177 25.9136C7.78413 26.7183 7.6968 27.6038 7.86676 28.4581C8.03672 29.3124 8.45633 30.0972 9.07254 30.7132C9.68875 31.3291 10.4739 31.7486 11.3286 31.9186C12.1833 32.0885 13.0693 32.0013 13.8745 31.668C14.6797 31.3347 15.3678 30.7703 15.852 30.046C16.3362 29.3218 16.5947 28.4703 16.5947 27.5993C16.5934 26.4317 16.1288 25.3124 15.3028 24.4868C14.4769 23.6612 13.357 23.1967 12.1889 23.1953V23.1953Z" fill="white"/>
<path d="M22.5942 42.4032H21.5942C21.589 39.9133 20.5958 37.5272 18.8325 35.7685C17.0692 34.0097 14.6798 33.0219 12.1887 33.0219C9.69752 33.0219 7.30813 34.0097 5.54481 35.7685C3.7815 37.5272 2.78829 39.9133 2.78316 42.4032H1.78316C1.78856 39.6484 2.88724 37.0084 4.83806 35.0624C6.78888 33.1164 9.43248 32.0234 12.1887 32.0234C14.9448 32.0234 17.5884 33.1164 19.5393 35.0624C21.4901 37.0084 22.5888 39.6484 22.5942 42.4032V42.4032Z" fill="white"/>
<path d="M31.9999 33.0027C30.9307 33.0027 29.8854 32.6858 28.9964 32.0921C28.1073 31.4983 27.4144 30.6544 27.0052 29.6671C26.596 28.6797 26.489 27.5933 26.6976 26.5451C26.9062 25.4969 27.4211 24.5341 28.1771 23.7784C28.9332 23.0228 29.8965 22.5081 30.9452 22.2996C31.9939 22.0911 33.081 22.1981 34.0688 22.6071C35.0567 23.0161 35.901 23.7087 36.4951 24.5973C37.0891 25.4858 37.4062 26.5306 37.4062 27.5993C37.4046 29.0318 36.8344 30.4053 35.8209 31.4183C34.8074 32.4312 33.4333 33.0011 31.9999 33.0027V33.0027ZM31.9999 23.1953C31.1285 23.1953 30.2766 23.4536 29.552 23.9375C28.8274 24.4214 28.2626 25.1092 27.9291 25.9139C27.5956 26.7186 27.5083 27.6041 27.6784 28.4584C27.8484 29.3127 28.268 30.0974 28.8843 30.7133C29.5005 31.3292 30.2856 31.7487 31.1403 31.9186C31.9951 32.0885 32.881 32.0013 33.6861 31.668C34.4913 31.3347 35.1794 30.7702 35.6636 30.046C36.1478 29.3217 36.4062 28.4703 36.4062 27.5993C36.4049 26.4316 35.9403 25.3122 35.1142 24.4866C34.2881 23.661 33.1682 23.1966 31.9999 23.1953Z" fill="white"/>
<path d="M42.4057 42.4034H41.4057C41.4031 39.9118 40.411 37.5231 38.6474 35.7622C36.8837 34.0013 34.4928 33.0122 31.9999 33.0122C29.507 33.0122 27.1161 34.0013 25.3525 35.7622C23.5888 37.5231 22.5967 39.9118 22.5941 42.4034H21.5941C21.5969 39.6468 22.6944 37.004 24.6455 35.0558C26.5967 33.1075 29.2419 32.0132 31.9999 32.0132C34.7579 32.0132 37.4031 33.1075 39.3543 35.0558C41.3055 37.004 42.403 39.6468 42.4057 42.4034V42.4034Z" fill="white"/>
<path d="M51.811 33.0027C50.7418 33.0027 49.6965 32.6858 48.8075 32.0921C47.9184 31.4983 47.2255 30.6544 46.8163 29.6671C46.4071 28.6797 46.3 27.5933 46.5086 26.5451C46.7172 25.4969 47.2321 24.5341 47.9882 23.7784C48.7443 23.0228 49.7076 22.5081 50.7563 22.2996C51.805 22.0911 52.892 22.1981 53.8799 22.6071C54.8678 23.0161 55.7121 23.7087 56.3061 24.5973C56.9002 25.4858 57.2173 26.5306 57.2173 27.5993C57.2157 29.0319 56.6457 30.4054 55.6321 31.4184C54.6186 32.4314 53.2444 33.0012 51.811 33.0027V33.0027ZM51.811 23.1953C50.9395 23.1953 50.0876 23.4536 49.363 23.9375C48.6384 24.4214 48.0737 25.1092 47.7402 25.9139C47.4067 26.7186 47.3194 27.6041 47.4894 28.4584C47.6594 29.3127 48.0791 30.0974 48.6953 30.7133C49.3115 31.3292 50.0967 31.7487 50.9514 31.9186C51.8061 32.0885 52.6921 32.0013 53.4972 31.668C54.3023 31.3347 54.9905 30.7702 55.4747 30.046C55.9588 29.3217 56.2173 28.4703 56.2173 27.5993C56.216 26.4316 55.7514 25.3122 54.9253 24.4866C54.0992 23.6609 52.9792 23.1965 51.811 23.1953V23.1953Z" fill="white"/>
<path d="M62.2167 42.4032H61.2167C61.2116 39.9133 60.2184 37.5272 58.4551 35.7685C56.6918 34.0097 54.3024 33.0219 51.8112 33.0219C49.3201 33.0219 46.9307 34.0097 45.1674 35.7685C43.4041 37.5272 42.4109 39.9133 42.4057 42.4032H41.4057C41.4111 39.6484 42.5098 37.0084 44.4606 35.0624C46.4115 33.1164 49.055 32.0234 51.8112 32.0234C54.5674 32.0234 57.211 33.1164 59.1618 35.0624C61.1127 37.0084 62.2113 39.6484 62.2167 42.4032Z" fill="white"/>
<path d="M12.1889 54.6326C11.1197 54.6326 10.0745 54.3158 9.18544 53.7221C8.29641 53.1284 7.60347 52.2846 7.19426 51.2973C6.78504 50.31 6.67794 49.2236 6.88648 48.1755C7.09503 47.1274 7.60986 46.1646 8.36586 45.4089C9.12187 44.6532 10.0851 44.1386 11.1338 43.93C12.1824 43.7215 13.2694 43.8285 14.2572 44.2374C15.245 44.6463 16.0894 45.3388 16.6834 46.2273C17.2775 47.1158 17.5946 48.1605 17.5947 49.2291C17.593 50.6616 17.023 52.035 16.0096 53.048C14.9962 54.0609 13.6221 54.6308 12.1889 54.6326V54.6326ZM12.1889 44.8257C11.3175 44.8256 10.4656 45.0838 9.74096 45.5677C9.01636 46.0516 8.4516 46.7393 8.11809 47.544C7.78458 48.3487 7.69731 49.2342 7.8673 50.0884C8.0373 50.9427 8.45694 51.7274 9.07314 52.3433C9.68935 52.9592 10.4744 53.3786 11.3291 53.5485C12.1838 53.7184 13.0698 53.6312 13.8749 53.2978C14.68 52.9645 15.3681 52.4 15.8522 51.6758C16.3363 50.9516 16.5947 50.1001 16.5947 49.2291C16.5933 48.0617 16.1287 46.9424 15.3027 46.1169C14.4768 45.2914 13.357 44.827 12.1889 44.8256V44.8257Z" fill="white"/>
<path d="M22.5942 64.0331H21.5942C21.589 61.5432 20.5958 59.1571 18.8325 57.3983C17.0692 55.6396 14.6798 54.6518 12.1887 54.6518C9.69752 54.6518 7.30813 55.6396 5.54481 57.3983C3.7815 59.1571 2.78829 61.5432 2.78316 64.0331H1.78316C1.78856 61.2783 2.88724 58.6382 4.83806 56.6922C6.78888 54.7462 9.43248 53.6533 12.1887 53.6533C14.9448 53.6533 17.5884 54.7462 19.5393 56.6922C21.4901 58.6382 22.5888 61.2783 22.5942 64.0331V64.0331Z" fill="white"/>
<path d="M31.9999 54.6326C30.9307 54.6325 29.8856 54.3156 28.9966 53.7219C28.1076 53.1281 27.4148 52.2843 27.0056 51.297C26.5965 50.3097 26.4895 49.2233 26.6981 48.1752C26.9067 47.1271 27.4215 46.1644 28.1776 45.4087C28.9336 44.6531 29.8968 44.1385 30.9455 43.93C31.9941 43.7215 33.081 43.8285 34.0689 44.2374C35.0567 44.6463 35.901 45.3388 36.495 46.2274C37.089 47.1159 37.4061 48.1605 37.4062 49.2291C37.4045 50.6617 36.8344 52.0351 35.8209 53.0481C34.8074 54.0611 33.4333 54.6309 31.9999 54.6326V54.6326ZM31.9999 44.8257C31.1285 44.8257 30.2767 45.084 29.5521 45.568C28.8276 46.0519 28.2629 46.7397 27.9295 47.5444C27.596 48.3491 27.5088 49.2345 27.6789 50.0887C27.8489 50.943 28.2686 51.7276 28.8848 52.3434C29.5011 52.9593 30.2862 53.3786 31.1409 53.5485C31.9955 53.7184 32.8814 53.6311 33.6865 53.2978C34.4916 52.9644 35.1797 52.4 35.6638 51.6757C36.1479 50.9515 36.4062 50.1001 36.4062 49.2291C36.4048 48.0616 35.9401 46.9423 35.1141 46.1168C34.288 45.2912 33.1681 44.8269 31.9999 44.8256V44.8257Z" fill="white"/>
<path d="M42.4057 64.0333H41.4057C41.4031 61.5417 40.411 59.153 38.6474 57.3921C36.8837 55.6312 34.4928 54.642 31.9999 54.642C29.507 54.642 27.1161 55.6312 25.3525 57.3921C23.5888 59.153 22.5967 61.5417 22.5941 64.0333H21.5941C21.5969 61.2767 22.6944 58.6339 24.6455 56.6857C26.5967 54.7374 29.2419 53.6431 31.9999 53.6431C34.7579 53.6431 37.4031 54.7374 39.3543 56.6857C41.3055 58.6339 42.403 61.2767 42.4057 64.0333V64.0333Z" fill="white"/>
<path d="M51.811 54.6326C50.7418 54.6325 49.6967 54.3156 48.8077 53.7219C47.9187 53.1281 47.2258 52.2843 46.8167 51.297C46.4076 50.3097 46.3005 49.2233 46.5091 48.1752C46.7177 47.1271 47.2326 46.1644 47.9886 45.4087C48.7447 44.6531 49.7079 44.1385 50.7565 43.93C51.8052 43.7215 52.8921 43.8285 53.8799 44.2374C54.8677 44.6463 55.712 45.3388 56.3061 46.2274C56.9001 47.1159 57.2172 48.1605 57.2172 49.2291C57.2157 50.6617 56.6456 52.0352 55.6321 53.0483C54.6186 54.0613 53.2444 54.6311 51.811 54.6326V54.6326ZM51.811 44.8257C50.9396 44.8257 50.0877 45.084 49.3632 45.568C48.6387 46.0519 48.074 46.7397 47.7405 47.5444C47.4071 48.3491 47.3199 49.2345 47.49 50.0887C47.66 50.943 48.0797 51.7276 48.6959 52.3434C49.3121 52.9593 50.0972 53.3786 50.9519 53.5485C51.8066 53.7184 52.6925 53.6311 53.4976 53.2978C54.3026 52.9644 54.9907 52.4 55.4748 51.6757C55.9589 50.9515 56.2173 50.1001 56.2172 49.2291C56.2159 48.0616 55.7512 46.9423 54.9251 46.1167C54.0991 45.2912 52.9791 44.8269 51.811 44.8256V44.8257Z" fill="white"/>
<path d="M62.2167 64.0331H61.2167C61.2116 61.5432 60.2184 59.1571 58.4551 57.3983C56.6918 55.6396 54.3024 54.6518 51.8112 54.6518C49.3201 54.6518 46.9307 55.6396 45.1674 57.3983C43.4041 59.1571 42.4109 61.5432 42.4057 64.0331H41.4057C41.4111 61.2783 42.5098 58.6382 44.4606 56.6922C46.4115 54.7462 49.055 53.6533 51.8112 53.6533C54.5674 53.6533 57.211 54.7462 59.1618 56.6922C61.1127 58.6382 62.2113 61.2783 62.2167 64.0331Z" fill="white"/>
</g>
<defs>
<clipPath id="clip0_20_4793">
<rect width="64" height="64" fill="white" transform="translate(0 0.0332031)"/>
</clipPath>
</defs>
</svg>
