<svg width="64" height="64" viewBox="0 0 64 64" fill="none" xmlns="http://www.w3.org/2000/svg">
<g clip-path="url(#clip0_20_4817)">
<path opacity="0.3" d="M54.0101 58.7154C52.3371 57.017 51.3995 54.7223 51.4018 52.3316C51.3862 51.5389 51.5586 50.754 51.9049 50.0418L61.1137 47.5863C60.2354 46.6784 59.1849 45.9571 58.0243 45.465C56.8638 44.9729 55.6168 44.72 54.3573 44.7214C52.658 44.6777 50.9775 45.0884 49.4876 45.9116C47.9978 46.7347 46.7518 47.9409 45.8771 49.4068L17.9844 49.3904C17.0293 47.7624 15.6127 46.4582 13.916 45.645C12.2194 44.8317 10.3199 44.5463 8.46099 44.8254C6.60208 45.1046 4.86834 45.9355 3.48187 47.2117C2.09541 48.4879 1.11935 50.1514 0.678741 51.9889L9.99001 49.5061C11.663 51.2045 12.6005 53.4991 12.5981 55.8898C12.6138 56.6824 12.4414 57.4673 12.0951 58.1795L2.88623 60.6352C3.7646 61.543 4.81518 62.2643 5.97575 62.7564C7.13631 63.2485 8.38327 63.5014 9.64277 63.5001C11.3421 63.5437 13.0225 63.133 14.5124 62.3098C16.0023 61.4867 17.2482 60.2806 18.123 58.8147L46.0152 58.8304C46.9702 60.4585 48.3868 61.7629 50.0835 62.5763C51.7802 63.3897 53.6797 63.6751 55.5387 63.3961C57.3977 63.117 59.1315 62.2861 60.518 61.0098C61.9045 59.7336 62.8806 58.07 63.3212 56.2324L54.0101 58.7154Z" fill="#231F20"/>
<path opacity="0.3" d="M47.6606 16.1014C51.9444 16.1014 55.417 12.6089 55.417 8.3007C55.417 3.99249 51.9444 0.5 47.6606 0.5C43.3769 0.5 39.9042 3.99249 39.9042 8.3007C39.9042 12.6089 43.3769 16.1014 47.6606 16.1014Z" fill="#231F20"/>
<path opacity="0.3" d="M47.6606 19.1597C43.5072 19.1597 39.5238 20.8191 36.5869 23.7728C33.65 26.7265 32.0001 30.7326 32.0001 34.9097H63.3213C63.3213 32.8414 62.9162 30.7933 62.1292 28.8824C61.3422 26.9715 60.1886 25.2353 58.7344 23.7727C57.2802 22.3102 55.5537 21.1501 53.6537 20.3586C51.7537 19.567 49.7172 19.1597 47.6606 19.1597V19.1597Z" fill="#231F20"/>
<path d="M54.1422 63.9999C52.4638 63.9941 50.8139 63.5633 49.3447 62.7471C47.8756 61.9309 46.6345 60.7557 45.7361 59.33L18.4106 59.3143C17.4741 60.7885 16.1749 61.9945 14.6389 62.8154C13.1029 63.6363 11.3821 64.0443 9.64321 63.9999C8.31701 64.0038 7.00363 63.7388 5.78155 63.2207C4.55946 62.7027 3.45375 61.9422 2.53048 60.9847L1.93525 60.3715L11.7474 57.7548C11.9904 57.1637 12.1106 56.529 12.1009 55.8895C12.1093 53.728 11.2965 51.6448 9.82868 50.0658L0 52.6869L0.195176 51.8714C0.653237 49.9609 1.66128 48.2287 3.09319 46.8914C4.52511 45.5541 6.31733 44.6711 8.24565 44.3529C10.174 44.0347 12.1528 44.2954 13.9345 45.1024C15.7163 45.9094 17.2219 47.2269 18.263 48.89L45.5894 48.9066C46.526 47.4323 47.8254 46.2263 49.3616 45.4054C50.8978 44.5845 52.6188 44.1765 54.3578 44.2211C55.684 44.217 56.9973 44.4819 58.2193 45.0002C59.4413 45.5184 60.5468 46.2793 61.4696 47.2372L62.0648 47.85L52.2526 50.4657C52.0097 51.0569 51.8894 51.6918 51.8992 52.3314C51.8907 54.493 52.7035 56.5762 54.1714 58.1551L64 55.5341L63.8049 56.3495C63.2866 58.5329 62.0504 60.4763 60.2966 61.8649C58.5428 63.2534 56.3742 64.0057 54.1422 63.9999ZM17.8299 58.3143L46.2983 58.33L46.443 58.5751C47.3106 60.0545 48.5813 61.2531 50.1048 62.0292C51.6282 62.8053 53.3408 63.1265 55.0401 62.9547C56.7393 62.783 58.3541 62.1255 59.6936 61.0601C61.0331 59.9946 62.0412 58.5657 62.5988 56.9423L53.8528 59.2743L53.6498 59.0604C52.775 58.1753 52.0822 57.1254 51.6112 55.9707C51.1402 54.8161 50.9001 53.5794 50.9048 52.3314C50.8874 51.4572 51.0796 50.5917 51.4651 49.808L51.567 49.6141L60.1169 47.3349C58.5085 45.9635 56.4664 45.2141 54.3578 45.2211C52.7462 45.1723 51.1509 45.5569 49.7365 46.3353C48.3221 47.1136 47.1399 48.2575 46.3119 49.6488L46.1701 49.9067L17.7008 49.8901L17.5561 49.6449C16.6884 48.1657 15.4177 46.9673 13.8942 46.1914C12.3708 45.4154 10.6583 45.0944 8.95915 45.2662C7.26003 45.438 5.64535 46.0955 4.30601 47.161C2.96667 48.2265 1.95867 49.6553 1.40118 51.2787L10.1472 48.9467L10.3501 49.1605C11.225 50.0457 11.9177 51.0956 12.3888 52.2502C12.8598 53.4048 13.0998 54.6415 13.0952 55.8895C13.1126 56.7636 12.9205 57.629 12.5349 58.4125L12.433 58.6063L3.88311 60.8866C5.49228 62.2573 7.53442 63.0065 9.64321 62.9999C11.2546 63.0486 12.8498 62.6639 14.264 61.8855C15.6782 61.1072 16.8602 59.9634 17.6881 58.5721L17.8299 58.3143Z" fill="white"/>
<path d="M16.3394 16.6016C14.707 16.6016 13.1112 16.1147 11.7539 15.2026C10.3966 14.2905 9.33867 12.9941 8.71397 11.4774C8.08927 9.96059 7.92582 8.29158 8.24429 6.68138C8.56276 5.07119 9.34885 3.59213 10.5031 2.43125C11.6574 1.27036 13.1281 0.479788 14.7292 0.159501C16.3302 -0.160787 17.9898 0.0035966 19.4979 0.631863C21.0061 1.26013 22.2951 2.32406 23.2021 3.68912C24.109 5.05417 24.5931 6.65904 24.5931 8.30078C24.5906 10.5015 23.7202 12.6114 22.1729 14.1676C20.6256 15.7238 18.5276 16.5991 16.3394 16.6016V16.6016ZM16.3394 1C14.9036 1 13.5001 1.42819 12.3063 2.23041C11.1125 3.03263 10.1821 4.17285 9.63261 5.5069C9.08317 6.84094 8.93941 8.30888 9.21951 9.7251C9.49961 11.1413 10.191 12.4422 11.2062 13.4632C12.2215 14.4842 13.515 15.1796 14.9231 15.4613C16.3313 15.743 17.7909 15.5984 19.1174 15.0458C20.4439 14.4932 21.5776 13.5575 22.3753 12.3569C23.173 11.1563 23.5987 9.74474 23.5987 8.30078C23.5965 6.36517 22.831 4.50947 21.4701 3.14078C20.1092 1.7721 18.264 1.0022 16.3394 1V1Z" fill="white"/>
<path d="M32.4972 34.9102H31.5028C31.5028 30.8656 29.9053 26.9867 27.0616 24.1268C24.2179 21.2668 20.361 19.6602 16.3394 19.6602C12.3178 19.6602 8.46088 21.2668 5.61718 24.1268C2.77348 26.9867 1.17591 30.8656 1.17591 34.9102H0.18158C0.18158 30.6004 1.88391 26.4671 4.91409 23.4197C7.94426 20.3722 12.0541 18.6602 16.3394 18.6602C20.6247 18.6602 24.7345 20.3722 27.7647 23.4197C30.7948 26.4671 32.4972 30.6004 32.4972 34.9102V34.9102Z" fill="white"/>
<path d="M47.6606 16.6016C46.0282 16.6016 44.4324 16.1147 43.0751 15.2026C41.7178 14.2905 40.6599 12.9941 40.0352 11.4774C39.4105 9.96059 39.2471 8.29158 39.5655 6.68138C39.884 5.07119 40.6701 3.59213 41.8244 2.43125C42.9787 1.27036 44.4494 0.479788 46.0504 0.159501C47.6515 -0.160787 49.311 0.0035966 50.8192 0.631863C52.3273 1.26013 53.6164 2.32406 54.5233 3.68912C55.4302 5.05417 55.9143 6.65904 55.9143 8.30078C55.9119 10.5015 55.0415 12.6114 53.4942 14.1676C51.9468 15.7238 49.8489 16.5991 47.6606 16.6016V16.6016ZM47.6606 1C46.2249 1 44.8213 1.42819 43.6276 2.23041C42.4338 3.03263 41.5033 4.17285 40.9539 5.5069C40.4044 6.84094 40.2607 8.30888 40.5408 9.7251C40.8209 11.1413 41.5123 12.4422 42.5275 13.4632C43.5427 14.4842 44.8362 15.1796 46.2444 15.4613C47.6526 15.743 49.1122 15.5984 50.4387 15.0458C51.7651 14.4932 52.8989 13.5575 53.6966 12.3569C54.4942 11.1563 54.92 9.74474 54.92 8.30078C54.9178 6.36517 54.1523 4.50947 52.7914 3.14078C51.4304 1.7721 49.5853 1.0022 47.6606 1V1Z" fill="white"/>
<path d="M63.8184 34.9102H62.8241C62.8241 30.8656 61.2265 26.9867 58.3828 24.1268C55.5391 21.2668 51.6822 19.6602 47.6606 19.6602C43.639 19.6602 39.7821 21.2668 36.9384 24.1268C34.0947 26.9867 32.4972 30.8656 32.4972 34.9102H31.5028C31.5028 30.6004 33.2052 26.4671 36.2353 23.4197C39.2655 20.3722 43.3753 18.6602 47.6606 18.6602C51.9459 18.6602 56.0557 20.3722 59.0859 23.4197C62.1161 26.4671 63.8184 30.6004 63.8184 34.9102V34.9102Z" fill="white"/>
</g>
<defs>
<clipPath id="clip0_20_4817">
<rect width="64" height="64" fill="white"/>
</clipPath>
</defs>
</svg>
