<svg width="65" height="64" viewBox="0 0 65 64" fill="none" xmlns="http://www.w3.org/2000/svg">
<g clip-path="url(#clip0_20_4392)">
<path opacity="0.15" d="M54.3183 58.7154C52.6357 57.017 51.6928 54.7223 51.6952 52.3316C51.6794 51.5389 51.8528 50.754 52.2011 50.0418L61.4625 47.5863C60.5792 46.6784 59.5226 45.9571 58.3554 45.465C57.1883 44.9729 55.9342 44.72 54.6675 44.7214C52.9585 44.6777 51.2684 45.0884 49.7701 45.9116C48.2717 46.7347 47.0186 47.9409 46.1389 49.4068L18.087 49.3904C17.1265 47.7624 15.7018 46.4582 13.9955 45.645C12.2891 44.8317 10.3788 44.5463 8.50928 44.8254C6.63975 45.1046 4.89612 45.9355 3.50175 47.2117C2.10737 48.4879 1.12574 50.1514 0.682617 51.9889L10.047 49.5061C11.7296 51.2045 12.6724 53.4991 12.67 55.8898C12.6858 56.6824 12.5124 57.4673 12.1641 58.1795L2.90271 60.6352C3.78609 61.543 4.84266 62.2643 6.00985 62.7564C7.17704 63.2485 8.43111 63.5014 9.6978 63.5001C11.4068 63.5437 13.0968 63.133 14.5952 62.3098C16.0936 61.4867 17.3466 60.2806 18.2264 58.8147L46.2778 58.8304C47.2383 60.4585 48.6629 61.7629 50.3693 62.5763C52.0757 63.3897 53.986 63.6751 55.8556 63.3961C57.7252 63.117 59.4689 62.2861 60.8634 61.0098C62.2578 59.7336 63.2395 58.07 63.6826 56.2324L54.3183 58.7154Z" fill="#183A9E"/>
<path opacity="0.15" d="M47.9326 16.1014C52.2408 16.1014 55.7333 12.6089 55.7333 8.3007C55.7333 3.99249 52.2408 0.5 47.9326 0.5C43.6244 0.5 40.1319 3.99249 40.1319 8.3007C40.1319 12.6089 43.6244 16.1014 47.9326 16.1014Z" fill="#183A9E"/>
<path opacity="0.15" d="M47.9326 19.1597C43.7554 19.1597 39.7494 20.8191 36.7957 23.7728C33.842 26.7265 32.1827 30.7326 32.1827 34.9097H63.6827C63.6827 32.8414 63.2753 30.7933 62.4838 28.8824C61.6922 26.9715 60.5321 25.2353 59.0696 23.7727C57.6071 22.3102 55.8708 21.1501 53.9599 20.3586C52.049 19.567 50.0009 19.1597 47.9326 19.1597V19.1597Z" fill="#183A9E"/>
<path d="M54.4512 63.9999C52.7632 63.9941 51.1039 63.5633 49.6263 62.7471C48.1488 61.9309 46.9006 60.7557 45.9971 59.33L18.5156 59.3143C17.5738 60.7885 16.2672 61.9945 14.7224 62.8154C13.1777 63.6363 11.447 64.0443 9.69824 63.9999C8.36447 64.0038 7.0436 63.7388 5.81454 63.2207C4.58548 62.7027 3.47346 61.9422 2.54492 60.9847L1.94629 60.3715L11.8145 57.7548C12.0588 57.1637 12.1797 56.529 12.1699 55.8895C12.1784 53.728 11.361 51.6448 9.88477 50.0658L0 52.6869L0.19629 51.8714C0.656965 49.9609 1.67076 48.2287 3.11085 46.8914C4.55094 45.5541 6.35338 44.6711 8.29271 44.3529C10.232 44.0347 12.2221 44.2954 14.0141 45.1024C15.806 45.9094 17.3202 47.2269 18.3672 48.89L45.8496 48.9066C46.7915 47.4323 48.0983 46.2263 49.6433 45.4054C51.1882 44.5845 52.919 44.1765 54.668 44.2211C56.0017 44.217 57.3226 44.4819 58.5516 45.0002C59.7805 45.5184 60.8923 46.2793 61.8203 47.2372L62.419 47.85L52.5508 50.4657C52.3065 51.0569 52.1855 51.6918 52.1953 52.3314C52.1868 54.493 53.0042 56.5762 54.4805 58.1551L64.3653 55.5341L64.169 56.3495C63.6477 58.5329 62.4045 60.4763 60.6407 61.8649C58.8769 63.2534 56.6959 64.0057 54.4512 63.9999ZM17.9316 58.3143L46.5625 58.33L46.708 58.5751C47.5806 60.0545 48.8585 61.2531 50.3907 62.0292C51.9229 62.8053 53.6452 63.1265 55.3542 62.9547C57.0631 62.783 58.6871 62.1255 60.0343 61.0601C61.3814 59.9946 62.3953 58.5657 62.956 56.9423L54.1601 59.2743L53.956 59.0604C53.0762 58.1753 52.3794 57.1254 51.9057 55.9707C51.432 54.8161 51.1906 53.5794 51.1953 52.3314C51.1778 51.4572 51.3711 50.5917 51.7588 49.808L51.8613 49.6141L60.46 47.3349C58.8424 45.9635 56.7887 45.2141 54.668 45.2211C53.0472 45.1723 51.4428 45.5569 50.0203 46.3353C48.5979 47.1136 47.4089 48.2575 46.5762 49.6488L46.4336 49.9067L17.8018 49.8901L17.6563 49.6449C16.7836 48.1657 15.5057 46.9673 13.9735 46.1914C12.4414 45.4154 10.7191 45.0944 9.01028 45.2662C7.30146 45.438 5.67757 46.0955 4.33059 47.161C2.9836 48.2265 1.96985 49.6553 1.40918 51.2787L10.2051 48.9467L10.4092 49.1605C11.289 50.0457 11.9858 51.0956 12.4595 52.2502C12.9332 53.4048 13.1746 54.6415 13.1699 55.8895C13.1875 56.7636 12.9942 57.629 12.6065 58.4125L12.5039 58.6063L3.90527 60.8866C5.52362 62.2573 7.57742 63.0065 9.69824 62.9999C11.3188 63.0486 12.9231 62.6639 14.3454 61.8855C15.7677 61.1072 16.9565 59.9634 17.7891 58.5721L17.9316 58.3143Z" fill="#204ECF"/>
<path d="M16.4326 16.6016C14.7909 16.6016 13.186 16.1147 11.821 15.2026C10.4559 14.2905 9.39197 12.9941 8.7637 11.4774C8.13543 9.96059 7.97105 8.29158 8.29134 6.68138C8.61162 5.07119 9.4022 3.59213 10.5631 2.43125C11.724 1.27036 13.203 0.479788 14.8132 0.159501C16.4234 -0.160787 18.0924 0.0035966 19.6092 0.631863C21.126 1.26013 22.4224 2.32406 23.3345 3.68912C24.2466 5.05417 24.7334 6.65904 24.7334 8.30078C24.7309 10.5015 23.8556 12.6114 22.2994 14.1676C20.7433 15.7238 18.6334 16.5991 16.4326 16.6016V16.6016ZM16.4326 1C14.9887 1 13.5771 1.42819 12.3765 2.23041C11.1759 3.03263 10.2402 4.17285 9.68758 5.5069C9.135 6.84094 8.99042 8.30888 9.27212 9.7251C9.55382 11.1413 10.2492 12.4422 11.2702 13.4632C12.2912 14.4842 13.5921 15.1796 15.0083 15.4613C16.4245 15.743 17.8925 15.5984 19.2265 15.0458C20.5606 14.4932 21.7008 13.5575 22.503 12.3569C23.3052 11.1563 23.7334 9.74474 23.7334 8.30078C23.7312 6.36517 22.9613 4.50947 21.5926 3.14078C20.2239 1.7721 18.3682 1.0022 16.4326 1V1Z" fill="#204ECF"/>
<path d="M32.6826 34.9102H31.6826C31.6826 30.8656 30.0759 26.9867 27.216 24.1268C24.3561 21.2668 20.4772 19.6602 16.4326 19.6602C12.3881 19.6602 8.50917 21.2668 5.64924 24.1268C2.78931 26.9867 1.18262 30.8656 1.18262 34.9102H0.182617C0.182617 30.6004 1.89467 26.4671 4.94213 23.4197C7.9896 20.3722 12.1228 18.6602 16.4326 18.6602C20.7424 18.6602 24.8756 20.3722 27.9231 23.4197C30.9706 26.4671 32.6826 30.6004 32.6826 34.9102V34.9102Z" fill="#204ECF"/>
<path d="M47.9326 16.6016C46.2909 16.6016 44.686 16.1147 43.321 15.2026C41.9559 14.2905 40.892 12.9941 40.2637 11.4774C39.6354 9.96059 39.471 8.29158 39.7913 6.68138C40.1116 5.07119 40.9022 3.59213 42.0631 2.43125C43.224 1.27036 44.703 0.479788 46.3132 0.159501C47.9234 -0.160787 49.5924 0.0035966 51.1092 0.631863C52.626 1.26013 53.9224 2.32406 54.8345 3.68912C55.7466 5.05417 56.2334 6.65904 56.2334 8.30078C56.2309 10.5015 55.3556 12.6114 53.7994 14.1676C52.2433 15.7238 50.1334 16.5991 47.9326 16.6016V16.6016ZM47.9326 1C46.4887 1 45.0771 1.42819 43.8765 2.23041C42.6759 3.03263 41.7402 4.17285 41.1876 5.5069C40.635 6.84094 40.4904 8.30888 40.7721 9.7251C41.0538 11.1413 41.7492 12.4422 42.7702 13.4632C43.7912 14.4842 45.0921 15.1796 46.5083 15.4613C47.9245 15.743 49.3925 15.5984 50.7265 15.0458C52.0606 14.4932 53.2008 13.5575 54.003 12.3569C54.8052 11.1563 55.2334 9.74474 55.2334 8.30078C55.2312 6.36517 54.4613 4.50947 53.0926 3.14078C51.7239 1.7721 49.8682 1.0022 47.9326 1V1Z" fill="#204ECF"/>
<path d="M64.1826 34.9102H63.1826C63.1826 30.8656 61.5759 26.9867 58.716 24.1268C55.8561 21.2668 51.9772 19.6602 47.9326 19.6602C43.8881 19.6602 40.0092 21.2668 37.1492 24.1268C34.2893 26.9867 32.6826 30.8656 32.6826 34.9102H31.6826C31.6826 30.6004 33.3947 26.4671 36.4421 23.4197C39.4896 20.3722 43.6229 18.6602 47.9326 18.6602C52.2424 18.6602 56.3756 20.3722 59.4231 23.4197C62.4706 26.4671 64.1826 30.6004 64.1826 34.9102V34.9102Z" fill="#204ECF"/>
</g>
<defs>
<clipPath id="clip0_20_4392">
<rect width="64.3652" height="64" fill="white"/>
</clipPath>
</defs>
</svg>
