<svg width="64" height="64" viewBox="0 0 64 64" fill="none" xmlns="http://www.w3.org/2000/svg">
<g clip-path="url(#clip0_20_4428)">
<path opacity="0.15" d="M63.5 50.5166H0.5V58.069H63.5V50.5166Z" fill="#183A9E"/>
<path d="M64 58.5688H0V5.43115H64V58.5688ZM1 57.5688H63V6.43115H1V57.5688Z" fill="#204ECF"/>
<path d="M15.7749 31.79H13.2349C12.677 31.7894 12.1422 31.5674 11.7477 31.1729C11.3533 30.7783 11.1314 30.2434 11.1309 29.6855V21.9321C11.1316 21.3743 11.3534 20.8395 11.7479 20.4451C12.1423 20.0506 12.6771 19.8288 13.2349 19.8281H15.7749C16.3327 19.8288 16.8675 20.0506 17.262 20.4451C17.6564 20.8395 17.8783 21.3743 17.8789 21.9321V29.6855C17.8784 30.2434 17.6566 30.7783 17.2621 31.1729C16.8677 31.5674 16.3328 31.7894 15.7749 31.79V31.79ZM13.2349 20.8281C12.9422 20.8284 12.6616 20.9448 12.4546 21.1518C12.2476 21.3588 12.1312 21.6394 12.1309 21.9321V29.6855C12.1312 29.9783 12.2476 30.259 12.4545 30.4661C12.6615 30.6731 12.9422 30.7896 13.2349 30.79H15.7749C16.0677 30.7896 16.3483 30.6731 16.5553 30.4661C16.7623 30.259 16.8787 29.9783 16.8789 29.6855V21.9321C16.8786 21.6394 16.7622 21.3588 16.5552 21.1518C16.3483 20.9448 16.0676 20.8284 15.7749 20.8281H13.2349Z" fill="#204ECF"/>
<path d="M27.438 51.0166H24.8984C24.3405 51.0161 23.8056 50.7943 23.4111 50.3998C23.0166 50.0054 22.7946 49.4705 22.7939 48.9126V41.1592C22.7945 40.6012 23.0164 40.0662 23.4109 39.6717C23.8055 39.2771 24.3405 39.0552 24.8984 39.0547H27.438C27.996 39.0552 28.5309 39.2771 28.9255 39.6717C29.32 40.0662 29.5419 40.6012 29.5425 41.1592V48.9126C29.5418 49.4705 29.3199 50.0054 28.9253 50.3998C28.5308 50.7943 27.9959 51.0161 27.438 51.0166V51.0166ZM24.8984 40.0547C24.6056 40.0551 24.3249 40.1716 24.1179 40.3786C23.9109 40.5857 23.7944 40.8664 23.794 41.1592V48.9126C23.7944 49.2054 23.9109 49.486 24.118 49.693C24.325 49.9 24.6057 50.0163 24.8985 50.0166H27.438C27.7308 50.0163 28.0115 49.9 28.2185 49.693C28.4256 49.486 28.5421 49.2054 28.5425 48.9126V41.1592C28.5421 40.8664 28.4256 40.5857 28.2186 40.3786C28.0115 40.1716 27.7308 40.0551 27.438 40.0547H24.8984Z" fill="#204ECF"/>
<path d="M39.1016 51.0166H36.562C36.0041 51.0161 35.4692 50.7943 35.0747 50.3998C34.6801 50.0054 34.4582 49.4705 34.4575 48.9126V41.1592C34.4581 40.6012 34.68 40.0662 35.0745 39.6717C35.4691 39.2771 36.004 39.0552 36.562 39.0547H39.1016C39.6595 39.0552 40.1945 39.2771 40.589 39.6717C40.9836 40.0662 41.2055 40.6012 41.206 41.1592V48.9126C41.2054 49.4705 40.9834 50.0053 40.5889 50.3998C40.1944 50.7942 39.6595 51.0161 39.1016 51.0166V51.0166ZM36.562 40.0547C36.2692 40.0551 35.9885 40.1716 35.7814 40.3786C35.5744 40.5857 35.4579 40.8664 35.4575 41.1592V48.9126C35.4579 49.2054 35.5744 49.486 35.7815 49.693C35.9885 49.8999 36.2692 50.0163 36.562 50.0166H39.1016C39.3943 50.0163 39.675 49.9 39.8821 49.693C40.0891 49.486 40.2057 49.2054 40.206 48.9126V41.1592C40.2057 40.8664 40.0892 40.5857 39.8821 40.3786C39.6751 40.1716 39.3944 40.0551 39.1016 40.0547H36.562Z" fill="#204ECF"/>
<path d="M50.7652 31.79H48.2252C47.6673 31.7894 47.1324 31.5674 46.738 31.1729C46.3435 30.7783 46.1217 30.2434 46.1212 29.6855V21.9321C46.1218 21.3743 46.3437 20.8395 46.7381 20.4451C47.1325 20.0506 47.6673 19.8288 48.2252 19.8281H50.7652C51.323 19.8288 51.8578 20.0506 52.2522 20.4451C52.6467 20.8395 52.8685 21.3743 52.8692 21.9321V29.6855C52.8686 30.2434 52.6468 30.7783 52.2524 31.1729C51.8579 31.5674 51.3231 31.7894 50.7652 31.79V31.79ZM48.2252 20.8281C47.9324 20.8284 47.6518 20.9448 47.4448 21.1518C47.2378 21.3588 47.1214 21.6394 47.1212 21.9321V29.6855C47.1214 29.9783 47.2378 30.259 47.4448 30.4661C47.6517 30.6731 47.9324 30.7896 48.2252 30.79H50.7652C51.0579 30.7896 51.3386 30.6731 51.5455 30.4661C51.7525 30.259 51.8689 29.9783 51.8692 29.6855V21.9321C51.8689 21.6394 51.7525 21.3588 51.5455 21.1518C51.3385 20.9448 51.0579 20.8284 50.7652 20.8281H48.2252Z" fill="#204ECF"/>
<path d="M29.8442 30.79H22.4922V31.79H29.8442V30.79Z" fill="#204ECF"/>
<path d="M26.668 31.2901H25.668V20.8281H22.492V19.8281H26.668V31.2901Z" fill="#204ECF"/>
<path d="M18.1812 50.0166H10.8286V51.0166H18.1812V50.0166Z" fill="#204ECF"/>
<path d="M15.005 50.5172H14.005V40.0552H10.829V39.0552H15.005V50.5172Z" fill="#204ECF"/>
<path d="M53.1714 50.0166H45.8188V51.0166H53.1714V50.0166Z" fill="#204ECF"/>
<path d="M49.995 50.5172H48.995V40.0552H45.819V39.0552H49.995V50.5172Z" fill="#204ECF"/>
<path d="M41.5078 30.79H34.1558V31.79H41.5078V30.79Z" fill="#204ECF"/>
<path d="M38.332 31.2901H37.332V20.8281H34.156V19.8281H38.332V31.2901Z" fill="#204ECF"/>
<path d="M12.1573 13.6509C13.0893 13.6509 13.8448 12.8954 13.8448 11.9634C13.8448 11.0314 13.0893 10.2759 12.1573 10.2759C11.2254 10.2759 10.4698 11.0314 10.4698 11.9634C10.4698 12.8954 11.2254 13.6509 12.1573 13.6509Z" fill="#204ECF"/>
<path d="M6.53235 13.6509C7.46433 13.6509 8.21985 12.8954 8.21985 11.9634C8.21985 11.0314 7.46433 10.2759 6.53235 10.2759C5.60037 10.2759 4.84485 11.0314 4.84485 11.9634C4.84485 12.8954 5.60037 13.6509 6.53235 13.6509Z" fill="#204ECF"/>
<path d="M17.7823 13.6509C18.7143 13.6509 19.4698 12.8954 19.4698 11.9634C19.4698 11.0314 18.7143 10.2759 17.7823 10.2759C16.8504 10.2759 16.0948 11.0314 16.0948 11.9634C16.0948 12.8954 16.8504 13.6509 17.7823 13.6509Z" fill="#204ECF"/>
</g>
<defs>
<clipPath id="clip0_20_4428">
<rect width="64" height="64" fill="white"/>
</clipPath>
</defs>
</svg>
