<svg width="64" height="64" viewBox="0 0 64 64" fill="none" xmlns="http://www.w3.org/2000/svg">
<g clip-path="url(#clip0_20_4829)">
<path opacity="0.3" d="M55.7475 5.93115H8.25258C7.6369 5.93113 7.04643 6.17567 6.61106 6.611C6.17569 7.04632 5.93107 7.63677 5.93103 8.25244V55.7474C5.93104 56.3632 6.17564 56.9536 6.61101 57.389C7.04638 57.8244 7.63687 58.069 8.25258 58.069H55.7475C56.3632 58.069 56.9537 57.8244 57.389 57.389C57.8244 56.9536 58.069 56.3631 58.069 55.7474V8.25244C58.069 7.63676 57.8244 7.04631 57.389 6.61099C56.9536 6.17566 56.3631 5.93112 55.7475 5.93115ZM52.1596 38.9785L48.6205 42.519V50.9043H15.3795V42.519L11.8404 38.9785V26.6323L15.3795 23.0931V13.0957H48.6205V23.0931L52.1596 26.6323L52.1596 38.9785Z" fill="#231F20"/>
<path d="M55.7476 58.5688H8.25244C7.50445 58.568 6.78733 58.2705 6.25842 57.7416C5.72951 57.2127 5.432 56.4955 5.43115 55.7476V8.25244C5.432 7.50445 5.72951 6.78733 6.25842 6.25842C6.78733 5.72951 7.50445 5.432 8.25244 5.43115H55.7476C56.4956 5.432 57.2127 5.72951 57.7416 6.25842C58.2705 6.78733 58.568 7.50445 58.5689 8.25244V55.7476C58.568 56.4955 58.2705 57.2127 57.7416 57.7416C57.2127 58.2705 56.4956 58.568 55.7476 58.5688ZM8.25244 6.43115C7.76956 6.43165 7.3066 6.6237 6.96515 6.96515C6.6237 7.3066 6.43165 7.76956 6.43115 8.25244V55.7476C6.43165 56.2304 6.6237 56.6934 6.96515 57.0348C7.3066 57.3763 7.76956 57.5683 8.25244 57.5688H55.7476C56.2304 57.5683 56.6934 57.3763 57.0349 57.0348C57.3763 56.6934 57.5684 56.2304 57.5689 55.7476V8.25244C57.5684 7.76956 57.3763 7.3066 57.0349 6.96515C56.6934 6.6237 56.2304 6.43165 55.7476 6.43115H8.25244Z" fill="white"/>
<path d="M49.121 51.4042H14.879V42.7262L11.34 39.1862V26.4252L14.879 22.8862V13.0962H15.879V23.3002L12.34 26.8392V38.7722L15.879 42.3122V50.4042H48.121V42.3122L51.66 38.7722V26.8392L48.121 23.3002V13.0962H49.121V22.8862L52.66 26.4252V39.1862L49.121 42.7262V51.4042Z" fill="white"/>
<path d="M44.4482 44.4756H19.5518V19.5791H44.4482V44.4756ZM20.5518 43.4756H43.4482V20.5791H20.5518V43.4756Z" fill="white"/>
<path d="M63.5 18.4653H58.0688V19.4653H63.5V18.4653Z" fill="white"/>
<path d="M63.5 27.1553H58.0688V28.1553H63.5V27.1553Z" fill="white"/>
<path d="M63.5 35.8447H58.0688V36.8447H63.5V35.8447Z" fill="white"/>
<path d="M63.5 44.5347H58.0688V45.5347H63.5V44.5347Z" fill="white"/>
<path d="M5.93115 18.4653H0.5V19.4653H5.93115V18.4653Z" fill="white"/>
<path d="M5.93115 27.1553H0.5V28.1553H5.93115V27.1553Z" fill="white"/>
<path d="M5.93115 35.8447H0.5V36.8447H5.93115V35.8447Z" fill="white"/>
<path d="M5.93115 44.5347H0.5V45.5347H5.93115V44.5347Z" fill="white"/>
<path d="M45.5347 58.0688H44.5347V63.5H45.5347V58.0688Z" fill="white"/>
<path d="M36.8447 58.0688H35.8447V63.5H36.8447V58.0688Z" fill="white"/>
<path d="M28.1553 58.0688H27.1553V63.5H28.1553V58.0688Z" fill="white"/>
<path d="M19.4653 58.0688H18.4653V63.5H19.4653V58.0688Z" fill="white"/>
<path d="M45.5347 0.5H44.5347V5.93115H45.5347V0.5Z" fill="white"/>
<path d="M36.8447 0.5H35.8447V5.93115H36.8447V0.5Z" fill="white"/>
<path d="M28.1553 0.5H27.1553V5.93115H28.1553V0.5Z" fill="white"/>
<path d="M19.4653 0.5H18.4653V5.93115H19.4653V0.5Z" fill="white"/>
</g>
<defs>
<clipPath id="clip0_20_4829">
<rect width="64" height="64" fill="white"/>
</clipPath>
</defs>
</svg>
