<svg width="65" height="64" viewBox="0 0 65 64" fill="none" xmlns="http://www.w3.org/2000/svg">
<g clip-path="url(#clip0_20_4449)">
<path opacity="0.15" d="M13.642 51.0649C18.1265 55.5494 24.2088 58.0687 30.5509 58.0687C36.8929 58.0687 42.9752 55.5494 47.4597 51.0649L43.0585 46.6636H10.1937C11.167 48.2605 12.3244 49.7377 13.642 51.0649V51.0649Z" fill="#183A9E"/>
<path opacity="0.15" d="M42.8908 27.0134C45.7611 27.0134 48.0879 24.6865 48.0879 21.8163C48.0879 18.946 45.7611 16.6191 42.8908 16.6191C40.0205 16.6191 37.6937 18.946 37.6937 21.8163C37.6937 24.6865 40.0205 27.0134 42.8908 27.0134Z" fill="#183A9E"/>
<g opacity="0.15">
<path opacity="0.15" d="M13.642 51.0649L1.20709 63.4999H27.0489V57.8119C21.9425 57.1537 17.2132 54.7737 13.642 51.0649V51.0649Z" fill="#204ECF"/>
</g>
<path d="M30.5508 58.5572C25.7223 58.5604 21.0015 57.1311 16.9858 54.4501C12.9701 51.7691 9.84001 47.957 7.99182 43.4963C6.14362 39.0356 5.66038 34.1269 6.60325 29.3914C7.54612 24.6559 9.87272 20.3066 13.2886 16.894L13.6421 16.5405L48.1665 51.065L47.813 51.4185C45.5476 53.6867 42.8565 55.485 39.8941 56.71C36.9317 57.9351 33.7565 58.5628 30.5508 58.5572V58.5572ZM13.646 17.9585C9.41009 22.3795 7.07458 28.2838 7.14 34.4062C7.20543 40.5285 9.66659 46.3817 13.996 50.7111C18.3254 55.0405 24.1785 57.5016 30.3009 57.567C36.4232 57.6325 42.3276 55.2969 46.7485 51.0611L13.646 17.9585Z" fill="#204ECF"/>
<path d="M42.8906 27.5131C41.7639 27.5131 40.6624 27.1789 39.7256 26.5529C38.7888 25.9268 38.0586 25.0371 37.6275 23.9961C37.1963 22.955 37.0836 21.8096 37.3034 20.7045C37.5233 19.5994 38.0659 18.5843 38.8627 17.7876C39.6595 16.9909 40.6746 16.4483 41.7797 16.2286C42.8848 16.0088 44.0303 16.1217 45.0713 16.5529C46.1122 16.9841 47.002 17.7144 47.6279 18.6512C48.2539 19.5881 48.588 20.6896 48.5879 21.8164C48.5862 23.3268 47.9854 24.7749 46.9173 25.8428C45.8492 26.9108 44.4011 27.5115 42.8906 27.5131V27.5131ZM42.8906 17.1191C41.9617 17.1192 41.0536 17.3947 40.2812 17.9108C39.5089 18.427 38.9069 19.1606 38.5514 20.0188C38.1959 20.8771 38.1029 21.8214 38.2842 22.7326C38.4654 23.6437 38.9128 24.4806 39.5696 25.1374C40.2265 25.7943 41.0634 26.2416 41.9745 26.4229C42.8856 26.6041 43.83 26.5111 44.6883 26.1557C45.5465 25.8002 46.2801 25.1982 46.7962 24.4258C47.3123 23.6534 47.5879 22.7454 47.5879 21.8164C47.5865 20.571 47.0912 19.3771 46.2106 18.4964C45.33 17.6158 44.136 17.1205 42.8906 17.1191V17.1191Z" fill="#204ECF"/>
<path d="M63.9307 27.6201L62.9605 27.3774L63.082 26.892C63.9588 23.4009 63.9155 19.7422 62.9565 16.2728C61.9975 12.8034 60.1556 9.64186 57.6104 7.09664C55.0651 4.55141 51.9036 2.70944 48.4342 1.75046C44.9648 0.791481 41.306 0.74824 37.8149 1.62496L37.3296 1.74654L37.0869 0.776309L37.5718 0.655219C41.2305 -0.263569 45.0648 -0.21824 48.7008 0.786781C52.3367 1.7918 55.65 3.72219 58.3174 6.3896C60.9848 9.057 62.9152 12.3703 63.9202 16.0062C64.9252 19.6422 64.9706 23.4765 64.0518 27.1352L63.9307 27.6201Z" fill="#204ECF"/>
<path d="M56.5283 27.1572L55.5581 26.9145L55.6797 26.4292C56.2834 24.0248 56.2536 21.505 55.5931 19.1156C54.9326 16.7262 53.664 14.5488 51.9111 12.7959C50.1582 11.043 47.9808 9.77438 45.5914 9.1139C43.202 8.45341 40.6822 8.42358 38.2778 9.02733L37.7925 9.14891L37.5498 8.1787L38.0347 8.0576C40.6066 7.41178 43.3021 7.44369 45.858 8.15022C48.4139 8.85674 50.7431 10.2138 52.6182 12.0889C54.4933 13.964 55.8503 16.2931 56.5568 18.849C57.2633 21.405 57.2952 24.1004 56.6494 26.6724L56.5283 27.1572Z" fill="#204ECF"/>
<path d="M37.8478 23.1607L24.7405 28.0537L25.0901 28.9902L38.1974 24.0972L37.8478 23.1607Z" fill="#204ECF"/>
<path d="M40.6091 26.5109L35.7166 39.6167L36.6531 39.9663L41.5456 26.8605L40.6091 26.5109Z" fill="#204ECF"/>
<path d="M64.207 63.9999H0L13.289 50.7109L13.996 51.4179L2.414 62.9999H64.207V63.9999Z" fill="#204ECF"/>
<path d="M27.5488 57.812H26.5488V63.5H27.5488V57.812Z" fill="#204ECF"/>
</g>
<defs>
<clipPath id="clip0_20_4449">
<rect width="64.7071" height="64" fill="white"/>
</clipPath>
</defs>
</svg>
