<svg width="65" height="64" viewBox="0 0 65 64" fill="none" xmlns="http://www.w3.org/2000/svg">
<g clip-path="url(#clip0_20_4874)">
<path opacity="0.3" d="M13.7038 51.0649C18.2086 55.5494 24.3184 58.0687 30.6892 58.0687C37.0599 58.0687 43.1697 55.5494 47.6745 51.0649L43.2534 46.6636H10.2399C11.2176 48.2605 12.3802 49.7377 13.7038 51.0649V51.0649Z" fill="#231F20"/>
<path opacity="0.3" d="M43.085 27.0134C45.9682 27.0134 48.3056 24.6865 48.3056 21.8163C48.3056 18.946 45.9682 16.6191 43.085 16.6191C40.2017 16.6191 37.8643 18.946 37.8643 21.8163C37.8643 24.6865 40.2017 27.0134 43.085 27.0134Z" fill="#231F20"/>
<g opacity="0.15">
<path opacity="0.15" d="M13.7037 51.0649L1.21259 63.4999H27.1714V57.8119C22.0418 57.1537 17.2912 54.7737 13.7037 51.0649V51.0649Z" fill="white"/>
</g>
<path d="M30.6891 58.5572C25.8388 58.5604 21.0966 57.1311 17.0627 54.4501C13.0288 51.7691 9.88456 47.957 8.028 43.4963C6.17144 39.0356 5.68601 34.1269 6.63315 29.3914C7.58029 24.6559 9.91742 20.3066 13.3487 16.894L13.7038 16.5405L48.3845 51.065L48.0294 51.4185C45.7538 53.6867 43.0505 55.485 40.0747 56.71C37.0989 57.9351 33.9093 58.5628 30.6891 58.5572V58.5572ZM13.7078 17.9585C9.45269 22.3795 7.10661 28.2838 7.17233 34.4062C7.23805 40.5285 9.71035 46.3817 14.0594 50.7111C18.4084 55.0405 24.288 57.5016 30.438 57.567C36.5881 57.6325 42.5192 55.2969 46.9601 51.061L13.7078 17.9585Z" fill="white"/>
<path d="M43.0848 27.5131C41.9529 27.5131 40.8465 27.1789 39.9054 26.5529C38.9643 25.9268 38.2309 25.0371 37.7978 23.9961C37.3647 22.955 37.2514 21.8096 37.4723 20.7045C37.6931 19.5994 38.2382 18.5843 39.0386 17.7876C39.839 16.9909 40.8587 16.4483 41.9688 16.2286C43.0789 16.0088 44.2296 16.1217 45.2753 16.5529C46.3209 16.9841 47.2147 17.7144 47.8435 18.6512C48.4723 19.5881 48.8079 20.6896 48.8078 21.8164C48.8061 23.3268 48.2025 24.7749 47.1296 25.8428C46.0567 26.9108 44.602 27.5115 43.0848 27.5131V27.5131ZM43.0848 17.1191C42.1516 17.1192 41.2394 17.3947 40.4635 17.9108C39.6877 18.427 39.083 19.1606 38.7259 20.0188C38.3688 20.8771 38.2754 21.8214 38.4574 22.7326C38.6395 23.6437 39.0889 24.4806 39.7487 25.1374C40.4086 25.7943 41.2493 26.2416 42.1645 26.4229C43.0797 26.6041 44.0284 26.5111 44.8905 26.1557C45.7527 25.8002 46.4895 25.1982 47.008 24.4258C47.5265 23.6534 47.8032 22.7454 47.8033 21.8164C47.8019 20.571 47.3043 19.3771 46.4198 18.4964C45.5352 17.6158 44.3358 17.1205 43.0848 17.1191V17.1191Z" fill="white"/>
<path d="M64.22 27.6201L63.2454 27.3774L63.3675 26.892C64.2482 23.4009 64.2048 19.7422 63.2415 16.2728C62.2781 12.8034 60.4278 9.64186 57.8711 7.09664C55.3143 4.55141 52.1385 2.70944 48.6534 1.75046C45.1683 0.791481 41.493 0.74824 37.9861 1.62496L37.4985 1.74654L37.2548 0.776309L37.7418 0.655219C41.4171 -0.263569 45.2688 -0.21824 48.9212 0.786781C52.5736 1.7918 55.9019 3.72219 58.5814 6.3896C61.2608 9.057 63.1999 12.3703 64.2095 16.0062C65.2191 19.6422 65.2646 23.4765 64.3417 27.1352L64.22 27.6201Z" fill="white"/>
<path d="M56.7842 27.1572L55.8095 26.9145L55.9317 26.4292C56.5382 24.0248 56.5082 21.505 55.8447 19.1156C55.1812 16.7262 53.9069 14.5488 52.1461 12.7959C50.3852 11.043 48.198 9.77438 45.7977 9.1139C43.3975 8.45341 40.8663 8.42358 38.451 9.02733L37.9635 9.14891L37.7197 8.1787L38.2068 8.0576C40.7904 7.41178 43.498 7.44369 46.0655 8.15022C48.633 8.85674 50.9727 10.2138 52.8563 12.0889C54.7399 13.964 56.103 16.2931 56.8128 18.849C57.5225 21.405 57.5545 24.1004 56.9058 26.6724L56.7842 27.1572Z" fill="white"/>
<path d="M38.0191 23.1607L24.8525 28.0537L25.2037 28.9902L38.3703 24.0972L38.0191 23.1607Z" fill="white"/>
<path d="M40.7929 26.5109L35.8783 39.6167L36.8191 39.9663L41.7337 26.8605L40.7929 26.5109Z" fill="white"/>
<path d="M64.4976 63.9999H0L13.3491 50.7109L14.0593 51.4179L2.42493 62.9999H64.4976V63.9999Z" fill="white"/>
<path d="M27.6735 57.812H26.669V63.5H27.6735V57.812Z" fill="white"/>
</g>
<defs>
<clipPath id="clip0_20_4874">
<rect width="65" height="64" fill="white"/>
</clipPath>
</defs>
</svg>
