<svg width="64" height="64" viewBox="0 0 64 64" fill="none" xmlns="http://www.w3.org/2000/svg">
<g clip-path="url(#clip0_20_4890)">
<path opacity="0.3" fill-rule="evenodd" clip-rule="evenodd" d="M46.4964 28.1225L51.2462 26.7722C51.2369 24.8564 50.9015 22.9561 50.2544 21.1528L45.3293 21.5098C44.7229 20.2656 43.909 19.1337 42.9225 18.1628L44.8278 13.6072C43.3244 12.4198 41.6296 11.4973 39.8163 10.8792L37.0247 14.952C35.6737 14.6506 34.2813 14.5814 32.9071 14.7472L30.5337 10.417C28.6679 10.8523 26.8899 11.6021 25.2758 12.6342L26.7198 17.3562C25.6418 18.2245 24.7195 19.2699 23.9924 20.4477L19.1272 19.6036C18.3042 21.3337 17.7818 23.1913 17.5825 25.0967L22.1745 26.9122C22.1812 28.2963 22.4235 29.6692 22.8911 30.9719L19.1977 34.2495C20.0372 35.9716 21.1637 37.5381 22.529 38.882L26.8115 36.4237C27.8979 37.2814 29.1223 37.948 30.4324 38.3948L30.6923 43.326C32.5621 43.7432 34.4892 43.8391 36.3912 43.6095L37.1392 38.7287C38.4872 38.4142 39.7717 37.8724 40.9378 37.1267L44.9551 39.9982C46.4471 38.7964 47.7236 37.3495 48.7301 35.7194L45.3802 32.0914C45.975 30.8414 46.3524 29.4992 46.4964 28.1225V28.1225ZM38.3634 29.0281C37.9333 29.8183 37.2785 30.4631 36.4819 30.8811C35.6853 31.2992 34.7827 31.4716 33.8881 31.3766C32.9935 31.2816 32.1471 30.9234 31.4561 30.3474C30.7651 29.7714 30.2603 29.0034 30.0058 28.1406C29.7512 27.2777 29.7582 26.3588 30.0259 25.4999C30.2936 24.6411 30.81 23.8809 31.5098 23.3155C32.2095 22.7501 33.0612 22.4049 33.9572 22.3236C34.8531 22.2422 35.753 22.4284 36.5431 22.8585C37.6023 23.4357 38.3889 24.4097 38.7302 25.5666C39.0715 26.7235 38.9396 27.9685 38.3634 29.0281H38.3634Z" fill="#231F20"/>
<path d="M52.6137 64.0001H23.1596V57.6251H11.2314C10.2144 57.624 9.23932 57.2195 8.52018 56.5003C7.80105 55.7812 7.39655 54.8061 7.39545 53.7891V41.5704H2.7392L8.09077 21.169C9.37979 15.269 12.6155 9.9738 17.2777 6.13499C21.9399 2.29618 27.7576 0.136767 33.7954 0.00397847L33.8037 0.503978L33.7954 0.00397847C39.2205 -0.0893953 44.5467 1.46277 49.0723 4.456C53.5979 7.44924 57.1107 11.7432 59.1479 16.7721C61.1852 21.8011 61.6513 27.3292 60.4849 32.6283C59.3185 37.9274 56.5743 42.7488 52.6137 46.4576V64.0001ZM24.1596 63.0001H51.6137V46.0206L51.7748 45.8722C54.3993 43.4481 56.4946 40.5079 57.9294 37.236C59.3642 33.9642 60.1075 30.4311 60.1127 26.8585C60.1245 20.4792 57.7735 14.3215 53.5133 9.5733C49.253 4.82506 43.3854 1.82267 37.0421 1.14529C30.6989 0.467901 24.3295 2.16351 19.1627 5.90503C13.9958 9.64655 10.3975 15.1689 9.06196 21.4068L4.0351 40.5704H8.39545V53.7891C8.39621 54.541 8.69523 55.2619 9.22691 55.7936C9.75859 56.3253 10.4795 56.6243 11.2314 56.6251H24.1596V63.0001Z" fill="white"/>
<path d="M34.3603 31.9037C33.5916 31.9023 32.8333 31.7254 32.1434 31.3865C31.4534 31.0476 30.85 30.5557 30.379 29.9482C29.908 29.3407 29.582 28.6336 29.4257 27.881C29.2695 27.1283 29.2871 26.35 29.4774 25.6052C29.6676 24.8604 30.0254 24.1689 30.5234 23.5834C31.0215 22.9978 31.6466 22.5338 32.3512 22.2265C33.0559 21.9193 33.8213 21.777 34.5893 21.8105C35.3573 21.8439 36.1074 22.0523 36.7826 22.4198V22.4198C37.6595 22.8971 38.3752 23.6238 38.8391 24.5079C39.303 25.392 39.4943 26.3938 39.3887 27.3866C39.2832 28.3794 38.8856 29.3187 38.2462 30.0855C37.6069 30.8523 36.7544 31.4123 35.7968 31.6947C35.3304 31.8328 34.8466 31.9032 34.3603 31.9037V31.9037ZM34.3754 22.8036C33.9852 22.804 33.5972 22.8604 33.2231 22.971C32.3254 23.2362 31.5474 23.8045 31.0217 24.579C30.4959 25.3534 30.255 26.2862 30.3399 27.2184C30.4248 28.1506 30.8303 29.0245 31.4872 29.6913C32.1442 30.3581 33.012 30.7765 33.9428 30.8751C34.8737 30.9738 35.8099 30.7467 36.5921 30.2326C37.3743 29.7184 37.954 28.9489 38.2325 28.0552C38.511 27.1616 38.471 26.199 38.1193 25.3315C37.7677 24.464 37.1262 23.7452 36.3041 23.2977V23.2977C35.7127 22.974 35.0495 22.8041 34.3754 22.8036V22.8036Z" fill="white"/>
<path d="M34.3656 44.2319C33.0934 44.2317 31.825 44.0915 30.5834 43.8139L30.2128 43.7314L29.9506 38.7544C28.8134 38.3328 27.7427 37.7498 26.7714 37.0235L22.4491 39.5049L22.1786 39.2388C20.772 37.8557 19.6119 36.2425 18.7484 34.4688L18.5819 34.1275L22.3099 30.8194C21.9302 29.6674 21.7182 28.4668 21.6805 27.2544L17.0458 25.4224L17.0853 25.045C17.2896 23.083 17.8272 21.1703 18.6752 19.3892L18.8383 19.0465L23.7494 19.898C24.4135 18.8832 25.22 17.9691 26.144 17.1836L24.6865 12.4175L25.0063 12.2129C26.6679 11.1498 28.4987 10.3778 30.4199 9.93017L30.7895 9.84375L33.1855 14.2148C34.393 14.1015 35.6104 14.162 36.8007 14.3945L39.6186 10.2837L39.9775 10.4062C41.845 11.0419 43.5903 11.9918 45.1381 13.2148L45.436 13.4502L43.5121 18.0483C44.3541 18.9213 45.066 19.911 45.6259 20.9868L50.5966 20.6274L50.725 20.9844C51.3919 22.8408 51.7372 24.7974 51.746 26.77L51.748 27.1494L46.954 28.5122C46.796 29.7148 46.466 30.8884 45.974 31.9971L49.3548 35.6597L49.1551 35.9824C48.1197 37.6614 46.8053 39.1512 45.2684 40.3877L44.973 40.626L40.9183 37.7275C39.8796 38.3537 38.7563 38.8274 37.5829 39.1343L36.8275 44.0605L36.451 44.1064C35.759 44.1898 35.0626 44.2317 34.3656 44.2319ZM31.1713 42.9165C32.7455 43.2304 34.3574 43.3105 35.955 43.1543L36.6962 38.3188L37.0253 38.2422C38.3182 37.9409 39.5502 37.4212 40.6684 36.7056L40.9535 36.5234L44.9335 39.3682C46.1605 38.3333 47.2281 37.1232 48.102 35.7768L44.7836 32.1821L44.9286 31.8765C45.4995 30.6779 45.8617 29.3907 45.9994 28.0703L46.0346 27.7339L50.7396 26.3965C50.6958 24.7918 50.4153 23.2024 49.9071 21.6797L45.0282 22.0327L44.8802 21.729C44.299 20.5355 43.5182 19.4501 42.5716 18.5195L42.3304 18.2822L44.2186 13.7685C42.9366 12.8024 41.519 12.0309 40.0116 11.479L37.246 15.5137L36.9159 15.4399C35.6204 15.1503 34.285 15.0841 32.9672 15.2441L32.6312 15.2847L30.2797 10.9941C28.725 11.3944 27.2378 12.0216 25.8661 12.8555L27.2968 17.5337L27.0331 17.7461C25.9989 18.5782 25.1143 19.5807 24.4174 20.7105L24.2396 20.998L19.4198 20.1621C18.7634 21.627 18.3265 23.1806 18.1234 24.773L22.6727 26.5713L22.6742 26.9097C22.6799 28.2372 22.9124 29.554 23.3617 30.8032L23.476 31.1216L19.8168 34.3686C20.5525 35.7954 21.4948 37.1057 22.6132 38.2573L26.8558 35.8218L27.1215 36.0312C28.1629 36.8546 29.3373 37.494 30.5941 37.9219L30.9139 38.0308L31.1713 42.9165Z" fill="white"/>
</g>
<defs>
<clipPath id="clip0_20_4890">
<rect width="64" height="64" fill="white"/>
</clipPath>
</defs>
</svg>
