<svg width="64" height="64" viewBox="0 0 64 64" fill="none" xmlns="http://www.w3.org/2000/svg">
<g clip-path="url(#clip0_20_4904)">
<path opacity="0.3" d="M49.3978 57.701H29.7716C25.9286 57.7009 22.2195 56.2897 19.3483 53.7353L19.0563 53.4756C17.2643 51.8812 15.8301 49.9255 14.8481 47.7372C13.866 45.5488 13.3583 43.1774 13.3583 40.7788H0.5V55.5559H12.4981C14.3572 58.0253 16.765 60.0285 19.5314 61.4074C22.2977 62.7862 25.3468 63.5029 28.4377 63.5008H48.8603C50.1303 63.5008 51.3837 63.2117 52.5253 62.6554H52.5254C53.8783 61.9958 54.9267 60.8423 55.4545 59.4327C55.9823 58.0231 55.9494 56.4648 55.3624 55.0788L54.9331 54.0649C54.4657 55.1449 53.6926 56.0645 52.7091 56.7106C51.7256 57.3567 50.5745 57.701 49.3978 57.701V57.701Z" fill="#231F20"/>
<path d="M48.8604 64.0007H28.4375C25.3125 63.9965 22.2297 63.2785 19.4243 61.9016C16.619 60.5248 14.1651 58.5254 12.25 56.0559H0V25.7893H11.3125L22.3389 14.7141L28.4619 2.14236C28.6838 1.68652 28.9945 1.2796 29.3758 0.945454C29.7571 0.611311 30.2013 0.35668 30.6823 0.1965C31.1633 0.0363192 31.6715 -0.0261849 32.177 0.0126546C32.6825 0.051494 33.1751 0.190895 33.626 0.422678C35.3374 1.29595 36.7237 2.69481 37.5816 4.41393C38.4395 6.13305 38.7237 8.0819 38.3926 9.97444L36.2949 22.1775H56.5264C58.4161 22.1634 60.2402 22.87 61.6274 24.1534C63.0145 25.4368 63.8605 27.2005 63.9932 29.0857C64.0483 30.2462 63.8206 31.4028 63.3299 32.456C62.8391 33.5091 62.0999 34.4273 61.1758 35.1316C61.5679 35.6641 61.9105 36.2314 62.1992 36.8264C62.9286 38.345 63.0268 40.0907 62.4725 41.6816C61.9181 43.2725 60.7564 44.5791 59.2412 45.3157L59.1992 45.3367L59.3691 45.7263C59.7077 46.5007 59.8889 47.3347 59.9023 48.1797C59.9156 49.0248 59.7609 49.8641 59.447 50.6488C59.1332 51.4335 58.6665 52.148 58.0741 52.7508C57.4816 53.3535 56.7753 53.8325 55.9961 54.1599L55.5889 54.3313L55.8223 54.883C56.4602 56.3868 56.4966 58.0781 55.9238 59.6079C55.351 61.1377 54.2129 62.3892 52.7442 63.1042C51.5339 63.6926 50.2061 63.9991 48.8604 64.0007V64.0007ZM1 55.0559H12.748L12.8984 55.2556C14.7147 57.6587 17.0629 59.6085 19.7588 60.9522C22.4548 62.2959 25.4252 62.9971 28.4375 63.0007H48.8604C50.0544 62.9992 51.2326 62.7274 52.3066 62.2058C53.5447 61.6025 54.5041 60.5472 54.987 59.2575C55.47 57.9677 55.4397 56.5418 54.9023 55.2737L54.2763 53.7981L55.6093 53.2381C56.2662 52.9618 56.8616 52.5578 57.361 52.0495C57.8604 51.5412 58.2538 50.9387 58.5184 50.2771C58.783 49.6154 58.9134 48.9078 58.9022 48.1953C58.891 47.4828 58.7384 46.7797 58.4531 46.1267L57.8984 44.8572L58.8037 44.4167C60.0809 43.7963 61.0604 42.6953 61.528 41.3546C61.9955 40.0139 61.9132 38.5426 61.2988 37.2624C61.0273 36.7021 60.7029 36.1689 60.3301 35.6701L59.751 34.8952L60.1934 34.6032C61.0969 34.0141 61.8307 33.1989 62.3218 32.2385C62.813 31.2782 63.0444 30.2061 62.9932 29.1286C62.8743 27.5002 62.1394 25.9784 60.938 24.8727C59.7366 23.7671 58.159 23.1609 56.5264 23.1775H35.1074L37.4062 9.80495C37.7009 8.12233 37.4484 6.38958 36.6857 4.86105C35.9231 3.33252 34.6906 2.08873 33.169 1.31228C32.8365 1.14141 32.4731 1.03865 32.1004 1.01003C31.7276 0.981405 31.3528 1.0275 30.9981 1.14561C30.6434 1.26371 30.3158 1.45145 30.0346 1.69782C29.7533 1.94419 29.5241 2.24423 29.3604 2.58034L23.1065 15.3606L11.7285 26.7893H1V55.0559Z" fill="white"/>
</g>
<defs>
<clipPath id="clip0_20_4904">
<rect width="64.0002" height="64.0012" fill="white"/>
</clipPath>
</defs>
</svg>
