<svg width="64" height="64" viewBox="0 0 64 64" fill="none" xmlns="http://www.w3.org/2000/svg">
<g clip-path="url(#clip0_20_4910)">
<path opacity="0.3" d="M14.5625 23.2523C19.3617 23.2523 23.2522 19.3618 23.2522 14.5627C23.2522 9.76353 19.3617 5.87305 14.5625 5.87305C9.76336 5.87305 5.87287 9.76353 5.87287 14.5627C5.87287 19.3618 9.76336 23.2523 14.5625 23.2523Z" fill="#231F20"/>
<path opacity="0.3" d="M49.4375 23.2523C54.2366 23.2523 58.1271 19.3618 58.1271 14.5627C58.1271 9.76353 54.2366 5.87305 49.4375 5.87305C44.6383 5.87305 40.7478 9.76353 40.7478 14.5627C40.7478 19.3618 44.6383 23.2523 49.4375 23.2523Z" fill="#231F20"/>
<path opacity="0.3" d="M14.5625 58.1273C19.3617 58.1273 23.2522 54.2368 23.2522 49.4377C23.2522 44.6385 19.3617 40.748 14.5625 40.748C9.76336 40.748 5.87287 44.6385 5.87287 49.4377C5.87287 54.2368 9.76336 58.1273 14.5625 58.1273Z" fill="#231F20"/>
<path opacity="0.3" d="M49.4375 58.1273C54.2366 58.1273 58.1271 54.2368 58.1271 49.4377C58.1271 44.6385 54.2366 40.748 49.4375 40.748C44.6383 40.748 40.7478 44.6385 40.7478 49.4377C40.7478 54.2368 44.6383 58.1273 49.4375 58.1273Z" fill="#231F20"/>
<path d="M14.5625 29.125C11.6823 29.125 8.8668 28.2709 6.47201 26.6708C4.07722 25.0706 2.2107 22.7963 1.1085 20.1353C0.00630212 17.4744 -0.282084 14.5464 0.279813 11.7215C0.841711 8.89666 2.22865 6.30187 4.26526 4.26526C6.30186 2.22866 8.89665 0.841718 11.7215 0.279821C14.5463 -0.282076 17.4744 0.00630975 20.1353 1.10851C22.7963 2.21071 25.0706 4.07722 26.6708 6.47202C28.2709 8.86681 29.125 11.6823 29.125 14.5625C29.1206 18.4234 27.585 22.1249 24.8549 24.8549C22.1249 27.585 18.4234 29.1206 14.5625 29.125ZM14.5625 1.00001C11.8801 1.00001 9.25792 1.79543 7.02758 3.2857C4.79724 4.77597 3.0589 6.89414 2.03238 9.37236C1.00587 11.8506 0.737287 14.5776 1.2606 17.2084C1.78391 19.8393 3.07561 22.2559 4.97236 24.1526C6.86911 26.0494 9.28572 27.3411 11.9166 27.8644C14.5475 28.3877 17.2744 28.1191 19.7526 27.0926C22.2309 26.0661 24.349 24.3278 25.8393 22.0974C27.3296 19.8671 28.125 17.2449 28.125 14.5625C28.121 10.9667 26.6908 7.5194 24.1482 4.97681C21.6056 2.43422 18.1583 1.00403 14.5625 1.00001Z" fill="white"/>
<path d="M49.4375 29.125C46.5573 29.125 43.7418 28.2709 41.347 26.6708C38.9522 25.0706 37.0857 22.7963 35.9835 20.1353C34.8813 17.4744 34.5929 14.5464 35.1548 11.7215C35.7167 8.89666 37.1037 6.30187 39.1403 4.26526C41.1769 2.22866 43.7717 0.841718 46.5965 0.279821C49.4214 -0.282076 52.3494 0.00630975 55.0103 1.10851C57.6713 2.21071 59.9456 4.07722 61.5458 6.47202C63.1459 8.86681 64 11.6823 64 14.5625C63.9956 18.4234 62.46 22.1249 59.7299 24.8549C56.9999 27.585 53.2984 29.1206 49.4375 29.125ZM49.4375 1.00001C46.7551 1.00001 44.1329 1.79543 41.9026 3.2857C39.6722 4.77597 37.9339 6.89414 36.9074 9.37236C35.8809 11.8506 35.6123 14.5776 36.1356 17.2084C36.6589 19.8393 37.9506 22.2559 39.8474 24.1526C41.7441 26.0494 44.1607 27.3411 46.7916 27.8644C49.4225 28.3877 52.1494 28.1191 54.6276 27.0926C57.1059 26.0661 59.224 24.3278 60.7143 22.0974C62.2046 19.8671 63 17.2449 63 14.5625C62.996 10.9667 61.5658 7.5194 59.0232 4.97681C56.4806 2.43422 53.0333 1.00403 49.4375 1.00001Z" fill="white"/>
<path d="M14.5059 14.9834C14.4328 14.9833 14.3605 14.9689 14.293 14.9408C14.2256 14.9127 14.1643 14.8716 14.1128 14.8198L9.023 9.73L9.73 9.023L14.0625 13.3555V4.59961H15.0625V14.7607L14.7193 14.9404C14.6517 14.9687 14.5791 14.9833 14.5059 14.9834Z" fill="white"/>
<path d="M49.6509 15.0562L49.2808 14.9404C49.179 14.8986 49.092 14.8274 49.0309 14.7359C48.9698 14.6444 48.9372 14.5368 48.9375 14.4268V4.59961H49.9375V13.3555L54.27 9.023L54.977 9.73L49.6509 15.0562Z" fill="white"/>
<path d="M14.5625 64C11.6823 64 8.8668 63.1459 6.47201 61.5458C4.07722 59.9456 2.2107 57.6713 1.1085 55.0103C0.00630212 52.3494 -0.282084 49.4214 0.279813 46.5965C0.841711 43.7717 2.22865 41.1769 4.26526 39.1403C6.30186 37.1037 8.89665 35.7167 11.7215 35.1548C14.5463 34.5929 17.4744 34.8813 20.1353 35.9835C22.7963 37.0857 25.0706 38.9522 26.6708 41.347C28.2709 43.7418 29.125 46.5573 29.125 49.4375C29.1206 53.2984 27.585 56.9999 24.8549 59.7299C22.1249 62.46 18.4234 63.9956 14.5625 64ZM14.5625 35.875C11.8801 35.875 9.25792 36.6704 7.02758 38.1607C4.79724 39.651 3.0589 41.7691 2.03238 44.2474C1.00587 46.7256 0.737287 49.4526 1.2606 52.0834C1.78391 54.7143 3.07561 57.1309 4.97236 59.0276C6.86911 60.9244 9.28572 62.2161 11.9166 62.7394C14.5475 63.2627 17.2744 62.9941 19.7526 61.9676C22.2309 60.9411 24.349 59.2028 25.8393 56.9724C27.3296 54.7421 28.125 52.1199 28.125 49.4375C28.121 45.8417 26.6908 42.3944 24.1482 39.8518C21.6056 37.3092 18.1583 35.879 14.5625 35.875Z" fill="white"/>
<path d="M9.73 54.9771L9.023 54.2701L14.063 49.2301V39.4751H15.063V49.6451L9.73 54.9771Z" fill="white"/>
<path d="M49.4375 64C46.5573 64 43.7418 63.1459 41.347 61.5458C38.9522 59.9456 37.0857 57.6713 35.9835 55.0103C34.8813 52.3494 34.5929 49.4214 35.1548 46.5965C35.7167 43.7717 37.1037 41.1769 39.1403 39.1403C41.1769 37.1037 43.7717 35.7167 46.5965 35.1548C49.4214 34.5929 52.3494 34.8813 55.0103 35.9835C57.6713 37.0857 59.9456 38.9522 61.5458 41.347C63.1459 43.7418 64 46.5573 64 49.4375C63.9956 53.2984 62.46 56.9999 59.7299 59.7299C56.9999 62.46 53.2984 63.9956 49.4375 64ZM49.4375 35.875C46.7551 35.875 44.1329 36.6704 41.9026 38.1607C39.6722 39.651 37.9339 41.7691 36.9074 44.2474C35.8809 46.7256 35.6123 49.4526 36.1356 52.0834C36.6589 54.7143 37.9506 57.1309 39.8474 59.0276C41.7441 60.9244 44.1607 62.2161 46.7916 62.7394C49.4225 63.2627 52.1494 62.9941 54.6276 61.9676C57.1059 60.9411 59.224 59.2028 60.7143 56.9724C62.2046 54.7421 63 52.1199 63 49.4375C62.996 45.8417 61.5658 42.3944 59.0232 39.8518C56.4806 37.3092 53.0333 35.879 49.4375 35.875Z" fill="white"/>
<path d="M54.27 54.9771L48.938 49.6451V39.4751H49.938V49.2301L54.977 54.2701L54.27 54.9771Z" fill="white"/>
</g>
<defs>
<clipPath id="clip0_20_4910">
<rect width="64" height="64" fill="white"/>
</clipPath>
</defs>
</svg>
