<svg width="64" height="64" viewBox="0 0 64 64" fill="none" xmlns="http://www.w3.org/2000/svg">
<g clip-path="url(#clip0_20_4926)">
<path opacity="0.3" d="M57.7132 31.3812L56.2444 32.8479H49.4359L37.775 21.187L17.6988 21.1865L24.4323 27.9192V32.1303L21.8135 34.7416L18.8471 34.7408L16.6748 36.902V40.9027H19.7462L25.619 46.775H28.6137V51.7531L25.9089 54.4588V56.4326L20.7326 61.6056V63.5003H63.0581V31.3812H57.7132ZM52.3824 51.9714L46.8826 57.4713L42.2811 52.8688V46.6122H35.8212L32.2478 43.0422V37.6966L34.7283 35.2182L43.1679 35.1874L52.3846 44.4242L52.3824 51.9714Z" fill="#231F20"/>
<path opacity="0.3" d="M16.6747 50.5034H15.2397L12.3445 47.6084V43.721L10.0341 41.4107L7.98985 41.4096L0.504089 33.9229L0.504099 63.5002H19.6019L16.6797 60.5779C16.6782 57.0564 16.6765 52.6416 16.6747 50.5034Z" fill="#231F20"/>
<path d="M16.6749 17.6877C14.9232 17.6994 13.2075 17.1908 11.7454 16.2261C10.2832 15.2615 9.14044 13.8844 8.46197 12.2694C7.78349 10.6545 7.59989 8.8744 7.93442 7.15494C8.26896 5.43549 9.10657 3.85411 10.341 2.61133C11.5755 1.36855 13.1513 0.520359 14.8684 0.174303C16.5856 -0.171754 18.3669 -8.17776e-05 19.9863 0.667549C21.6058 1.33518 22.9905 2.4687 23.9649 3.92436C24.9394 5.38002 25.4595 7.09226 25.4595 8.84396C25.4647 11.1808 24.5427 13.4243 22.8958 15.0822C21.249 16.7402 19.0117 17.6772 16.6749 17.6877ZM16.6749 1.00021C15.121 0.98845 13.5986 1.43849 12.3009 2.29323C11.0032 3.14797 9.98857 4.36891 9.38578 5.80115C8.78298 7.23339 8.61917 8.8124 8.91511 10.3379C9.21106 11.8634 9.95344 13.2666 11.0481 14.3695C12.1427 15.4725 13.5402 16.2254 15.0634 16.5329C16.5867 16.8404 18.1669 16.6885 19.6036 16.0965C21.0404 15.5046 22.2689 14.4992 23.1335 13.208C23.998 11.9168 24.4595 10.3979 24.4595 8.84396C24.465 6.77221 23.6485 4.78289 22.1891 3.31241C20.7297 1.84193 18.7466 1.01039 16.6749 1.00021V1.00021Z" fill="white"/>
<path d="M17.1749 21.186H16.1749V51.6255H17.1749V21.186Z" fill="white"/>
<path d="M47.3824 21.186H46.3824V63.5H47.3824V21.186Z" fill="white"/>
<path d="M20.359 9.34423H16.175V3.28223H17.175V8.34423H20.359V9.34423Z" fill="white"/>
<path d="M46.8824 17.6877C45.1307 17.6994 43.4151 17.1908 41.9529 16.2261C40.4907 15.2615 39.348 13.8844 38.6695 12.2694C37.991 10.6545 37.8074 8.8744 38.1419 7.15494C38.4765 5.43549 39.3141 3.85411 40.5486 2.61133C41.783 1.36855 43.3588 0.520359 45.0759 0.174303C46.7931 -0.171754 48.5744 -8.17776e-05 50.1938 0.667549C51.8133 1.33518 53.1981 2.4687 54.1725 3.92436C55.1469 5.38002 55.6671 7.09226 55.6671 8.84396C55.6722 11.1808 54.7502 13.4243 53.1034 15.0822C51.4565 16.7402 49.2192 17.6772 46.8824 17.6877ZM46.8824 1.00021C45.3285 0.98845 43.8062 1.43849 42.5084 2.29323C41.2107 3.14797 40.1961 4.36891 39.5933 5.80115C38.9905 7.23339 38.8267 8.8124 39.1226 10.3379C39.4186 11.8634 40.161 13.2666 41.2556 14.3695C42.3502 15.4725 43.7478 16.2254 45.271 16.5329C46.7942 16.8404 48.3744 16.6885 49.8111 16.0965C51.2479 15.5046 52.4765 14.4992 53.341 13.208C54.2055 11.9168 54.6671 10.3979 54.6671 8.84396C54.6725 6.77221 53.856 4.78289 52.3966 3.31241C50.9372 1.84193 48.9541 1.01039 46.8824 1.00021V1.00021Z" fill="white"/>
<path d="M49.133 11.8202L46.382 9.05023V3.28223H47.382V8.63823L49.843 11.1162L49.133 11.8202Z" fill="white"/>
<path d="M21.232 64H19.395L16.18 60.785L16.175 51.003H15.033L11.845 47.815V43.928L9.82699 41.91H7.78299L0.149994 34.276L0.856994 33.569L8.19699 40.91H10.241L12.845 43.514V47.401L15.447 50.003H17.174L17.18 60.371L19.809 63H20.232V61.398L25.409 56.225V54.252L28.114 51.546V47.274H25.412L19.539 41.402H16.175V36.694L18.641 34.24L21.607 34.241L23.932 31.922V28.126L17.345 21.54L18.052 20.833L24.932 27.712V32.337L22.02 35.241L19.054 35.24L17.175 37.11V40.402H19.953L25.826 46.274H29.114V51.96L26.409 54.666V56.639L21.232 61.813V64Z" fill="white"/>
<path d="M63.5582 64H0.0039978V20.6865H63.5582L63.5582 64ZM1.00397 63H62.5582V21.6865H1.004L1.00397 63Z" fill="white"/>
<path d="M56.451 33.348H49.229L37.421 21.54L38.128 20.833L49.643 32.348H56.037L57.506 30.881H62.429V31.881H57.92L56.451 33.348Z" fill="white"/>
<path d="M46.8824 58.1777L41.7813 53.0752V47.1118H35.6143L31.7476 43.2485V37.4893L34.5523 34.687H43.3756L52.8848 44.2173L52.8824 52.1782L46.8824 58.1777ZM42.7813 52.6611L46.8824 56.7637L51.8824 51.7642L51.8848 44.6304L42.9605 35.687H34.9664L32.7476 37.9033V42.8345L36.0284 46.1118H42.7813V52.6611Z" fill="white"/>
</g>
<defs>
<clipPath id="clip0_20_4926">
<rect width="64" height="64.0001" fill="white"/>
</clipPath>
</defs>
</svg>
