<svg width="65" height="65" viewBox="0 0 65 65" fill="none" xmlns="http://www.w3.org/2000/svg">
<g clip-path="url(#clip0_20_4517)">
<path opacity="0.15" d="M54.6513 39.8765C51.2708 45.4723 45.9078 49.5908 39.6291 51.4128L48.916 63.5L53.0796 53.6568L63.9077 51.9239L54.6513 39.8765Z" fill="#183A9E"/>
<path opacity="0.15" d="M10.1641 39.8765C13.5447 45.4723 18.9076 49.5908 25.1863 51.4128L15.8994 63.5L11.7358 53.6568L0.907715 51.9239L10.1641 39.8765Z" fill="#183A9E"/>
<path opacity="0.15" d="M32.4072 9.08984C28.97 9.09002 25.6099 10.1094 22.7521 12.0192C19.8942 13.9289 17.6668 16.6433 16.3515 19.8189C15.0362 22.9946 14.6922 26.4889 15.3628 29.8601C16.0335 33.2313 17.6888 36.3279 20.1193 38.7584C22.5499 41.1888 25.6465 42.844 29.0178 43.5145C32.389 44.185 35.8833 43.8408 39.0589 42.5254C42.2345 41.2101 44.9487 38.9825 46.8584 36.1246C48.768 33.2666 49.7873 29.9066 49.7874 26.4693C49.7873 24.187 49.3377 21.927 48.4643 19.8184C47.5908 17.7098 46.3106 15.7938 44.6967 14.18C43.0828 12.5662 41.1668 11.286 39.0582 10.4127C36.9496 9.53928 34.6896 9.08979 32.4072 9.08984V9.08984Z" fill="#183A9E"/>
<path d="M49.042 64.4848L39.232 51.7168L40.025 51.1078L48.79 62.5148L52.727 53.2068L63 51.5628L54.255 40.1808L55.048 39.5718L64.815 52.2848L53.432 54.1058L49.042 64.4848Z" fill="#204ECF"/>
<path d="M15.773 64.4848L11.383 54.1058L0 52.2848L9.768 39.5718L10.561 40.1808L1.815 51.5628L12.088 53.2068L16.026 62.5148L24.79 51.1078L25.583 51.7168L15.773 64.4848Z" fill="#204ECF"/>
<path d="M32.4072 44.3482C28.8711 44.3479 25.4145 43.2991 22.4744 41.3344C19.5344 39.3696 17.2429 36.5772 15.8899 33.3102C14.5369 30.0431 14.183 26.4483 14.873 22.9801C15.563 19.512 17.266 16.3263 19.7665 13.826C22.267 11.3257 25.4528 9.62302 28.921 8.93327C32.3892 8.24353 35.9841 8.5977 39.251 9.95101C42.5179 11.3043 45.3101 13.596 47.2746 16.5362C49.2391 19.4764 50.2877 22.9331 50.2876 26.4693C50.2821 31.2096 48.3964 35.7542 45.0444 39.1059C41.6923 42.4577 37.1476 44.343 32.4072 44.3482V44.3482ZM32.4072 9.58985C29.0689 9.59009 25.8056 10.5802 23.03 12.4351C20.2544 14.2899 18.0912 16.9262 16.8138 20.0104C15.5365 23.0947 15.2024 26.4885 15.8538 29.7626C16.5052 33.0368 18.1128 36.0442 20.4734 38.4047C22.8341 40.7652 25.8416 42.3727 29.1158 43.0239C32.39 43.6751 35.7837 43.3408 38.8679 42.0633C41.9521 40.7857 44.5882 38.6223 46.4429 35.8466C48.2976 33.0709 49.2876 29.8076 49.2876 26.4693C49.2824 21.994 47.5023 17.7035 44.3377 14.5391C41.1731 11.3747 36.8825 9.59478 32.4072 9.58985V9.58985Z" fill="#204ECF"/>
<path d="M32.4073 52.938C27.1722 52.9378 22.0548 51.3852 17.7022 48.4766C13.3495 45.568 9.95711 41.434 7.95393 36.5974C5.95074 31.7608 5.42676 26.4387 6.44822 21.3043C7.46969 16.1699 9.99074 11.4537 13.6926 7.75209C17.3944 4.05046 22.1107 1.52968 27.2452 0.508489C32.3797 -0.512699 37.7017 0.0115809 42.5382 2.01503C47.3747 4.01848 51.5085 7.41111 54.4168 11.7639C57.3252 16.1167 58.8775 21.2342 58.8775 26.4693C58.8693 33.4869 56.0778 40.2149 51.1154 45.177C46.153 50.1391 39.425 52.9302 32.4073 52.938V52.938ZM32.4073 1.00001C27.37 1.00025 22.446 2.49418 18.2578 5.29288C14.0696 8.09159 10.8054 12.0694 8.87785 16.7232C6.95034 21.3771 6.44613 26.498 7.42897 31.4384C8.41182 36.3788 10.8376 40.9169 14.3995 44.4787C17.9614 48.0404 22.4996 50.466 27.44 51.4487C32.3805 52.4313 37.5014 51.9269 42.1551 49.9993C46.8089 48.0716 50.7866 44.8072 53.5851 40.6189C56.3837 36.4306 57.8774 31.5065 57.8775 26.4693C57.8697 19.7166 55.1838 13.2427 50.4088 8.46796C45.6339 3.6932 39.1599 1.00747 32.4073 1.00001V1.00001Z" fill="#204ECF"/>
</g>
<defs>
<clipPath id="clip0_20_4517">
<rect width="64.8154" height="64.4849" fill="white"/>
</clipPath>
</defs>
</svg>
