<svg width="64" height="64" viewBox="0 0 64 64" fill="none" xmlns="http://www.w3.org/2000/svg">
<g clip-path="url(#clip0_20_4528)">
<path opacity="0.15" fill-rule="evenodd" clip-rule="evenodd" d="M46.6923 29.1579L28.7601 11.1875L24.5907 15.3416L30.688 21.4541L17.3077 34.7885L35.3011 52.8125L39.4169 48.712L33.2661 42.5459L46.6923 29.1579ZM29.5328 37.9863C29.4134 38.0246 29.285 38.0246 29.1656 37.9863C28.9918 37.9241 28.8384 37.8157 28.7218 37.6727L26.2967 35.2399C26.1547 35.1224 26.0464 34.9693 25.9831 34.7962C25.9448 34.6768 25.9448 34.5484 25.9831 34.429C26.0452 34.2553 26.1537 34.1018 26.2967 33.9853L33.9393 26.358C34.0541 26.2147 34.2084 26.1083 34.383 26.052C34.5024 26.0137 34.6308 26.0137 34.7502 26.052C34.924 26.1141 35.0774 26.2226 35.194 26.3656L37.6191 28.7984C37.7623 28.9132 37.8687 29.0675 37.9251 29.2421C37.9633 29.3615 37.9633 29.4899 37.9251 29.6093C37.8629 29.783 37.7544 29.9365 37.6114 30.053L29.9688 37.6803C29.8556 37.8217 29.7043 37.9279 29.5328 37.9863V37.9863Z" fill="#183A9E"/>
<path d="M35.3003 53.519L16.6001 34.7876L29.9805 21.4531L23.8833 15.3408L28.7612 10.4805L47.3994 29.1587L33.9731 42.5469L40.1245 48.7129L35.3003 53.519ZM18.0151 34.7896L35.3022 52.106L38.7095 48.711L32.5591 42.545L45.9853 29.1567L28.7593 11.8945L25.2983 15.3428L31.395 21.4551L18.0151 34.7896Z" fill="#204ECF"/>
<path d="M29.3491 38.5151C29.2365 38.5148 29.1246 38.4975 29.0171 38.4638C28.7659 38.3785 28.542 38.2276 28.3687 38.0268L25.9429 35.5927C25.7437 35.4192 25.5932 35.1967 25.5064 34.9472C25.4372 34.7303 25.4368 34.4973 25.5054 34.2802C25.592 34.0291 25.7432 33.8053 25.9438 33.6313L33.5864 26.0038C33.7639 25.7957 33.9982 25.6438 34.2607 25.5668C34.4693 25.5046 34.6918 25.5072 34.8989 25.5742C35.15 25.6608 35.3738 25.812 35.5478 26.0126L37.9731 28.4453C38.1803 28.624 38.3319 28.8584 38.4101 29.1206C38.4723 29.3288 38.4698 29.551 38.4028 29.7578C38.3172 30.0092 38.166 30.2332 37.9648 30.4067L30.3217 38.0341C30.1516 38.2334 29.93 38.382 29.6811 38.4638C29.5737 38.4975 29.4617 38.5148 29.3491 38.5151V38.5151ZM34.5996 26.5283C34.48 26.5532 34.3722 26.6175 34.2934 26.7109L26.6499 34.3393C26.4829 34.5058 26.4702 34.5468 26.4599 34.579C26.4682 34.6733 26.4829 34.7187 26.6499 34.8857L29.0757 37.3198C29.2431 37.4868 29.2822 37.499 29.3139 37.5088H29.3843C29.4214 37.4975 29.4629 37.4844 29.6089 37.333L37.2583 29.6992C37.4253 29.5317 37.438 29.4917 37.4482 29.4595C37.4237 29.3393 37.3593 29.2309 37.2656 29.1518L34.8398 26.7187C34.6728 26.5517 34.6323 26.539 34.5996 26.5283V26.5283Z" fill="#204ECF"/>
<path d="M32 64C25.671 64 19.4841 62.1232 14.2218 58.607C8.95939 55.0908 4.85787 50.0931 2.43587 44.2459C0.013865 38.3987 -0.619842 31.9645 0.614885 25.7571C1.84961 19.5497 4.89732 13.8479 9.3726 9.3726C13.8479 4.89732 19.5497 1.84961 25.7571 0.614885C31.9645 -0.619842 38.3986 0.0138652 44.2459 2.43587C50.0931 4.85787 55.0908 8.95939 58.607 14.2218C62.1232 19.4841 64 25.671 64 32C63.9905 40.484 60.616 48.6178 54.6169 54.6169C48.6178 60.616 40.484 63.9905 32 64ZM32 1.00001C25.8688 1.00001 19.8753 2.81813 14.7773 6.22446C9.67941 9.63078 5.70607 14.4723 3.35975 20.1368C1.01343 25.8013 0.399529 32.0344 1.59567 38.0478C2.79181 44.0612 5.74428 49.5849 10.0797 53.9203C14.4151 58.2558 19.9388 61.2082 25.9522 62.4044C31.9656 63.6005 38.1987 62.9866 43.8632 60.6403C49.5277 58.294 54.3693 54.3206 57.7756 49.2227C61.1819 44.1248 63 38.1312 63 32C62.9907 23.7812 59.7216 15.9016 53.91 10.09C48.0984 4.27844 40.2189 1.00937 32 1.00001V1.00001Z" fill="#204ECF"/>
</g>
<defs>
<clipPath id="clip0_20_4528">
<rect width="64.0001" height="64.0001" fill="white"/>
</clipPath>
</defs>
</svg>
