<svg width="64" height="65" viewBox="0 0 64 64" fill="none" xmlns="http://www.w3.org/2000/svg">
<g clip-path="url(#clip0_20_4953)">
<path opacity="0.3" fill-rule="evenodd" clip-rule="evenodd" d="M46.6923 29.6428L28.7601 11.6724L24.5907 15.8265L30.688 21.939L17.3077 35.2734L35.3011 53.2974L39.4169 49.1968L33.2661 43.0308L46.6923 29.6428ZM29.5328 38.4712C29.4134 38.5094 29.285 38.5094 29.1656 38.4712C28.9918 38.409 28.8384 38.3005 28.7218 38.1575L26.2967 35.7248C26.1547 35.6073 26.0464 35.4541 25.9831 35.281C25.9448 35.1616 25.9448 35.0332 25.9831 34.9138C26.0452 34.7401 26.1537 34.5867 26.2967 34.4701L33.9393 26.8428C34.0541 26.6996 34.2084 26.5932 34.383 26.5368C34.5024 26.4986 34.6308 26.4986 34.7502 26.5368C34.924 26.599 35.0774 26.7075 35.194 26.8505L37.6191 29.2833C37.7623 29.398 37.8687 29.5523 37.9251 29.727C37.9633 29.8464 37.9633 29.9748 37.9251 30.0942C37.8629 30.2679 37.7544 30.4213 37.6114 30.5379L29.9688 38.1652C29.8556 38.3066 29.7043 38.4127 29.5328 38.4712V38.4712Z" fill="#231F20"/>
<path d="M35.3003 54.0039L16.6001 35.2725L29.9805 21.938L23.8833 15.8257L28.7612 10.9653L47.3994 29.6436L33.9731 43.0318L40.1245 49.1978L35.3003 54.0039ZM18.0151 35.2744L35.3022 52.5908L38.7095 49.1958L32.5591 43.0298L45.9853 29.6416L28.7593 12.3794L25.2983 15.8276L31.395 21.9399L18.0151 35.2744Z" fill="white"/>
<path d="M29.3491 38.9999C29.2365 38.9997 29.1246 38.9824 29.0171 38.9487C28.7659 38.8634 28.542 38.7125 28.3687 38.5117L25.9429 36.0776C25.7437 35.9041 25.5932 35.6816 25.5064 35.4321C25.4372 35.2152 25.4368 34.9822 25.5054 34.7651C25.592 34.514 25.7432 34.2902 25.9438 34.1161L33.5864 26.4887C33.7639 26.2806 33.9982 26.1287 34.2607 26.0517C34.4693 25.9895 34.6918 25.992 34.8989 26.059C35.15 26.1456 35.3738 26.2969 35.5478 26.4975L37.9731 28.9301C38.1803 29.1089 38.3319 29.3432 38.4101 29.6054C38.4723 29.8136 38.4698 30.0359 38.4028 30.2426C38.3172 30.4941 38.166 30.7181 37.9648 30.8915L30.3217 38.519C30.1516 38.7182 29.93 38.8669 29.6811 38.9487C29.5737 38.9824 29.4617 38.9997 29.3491 38.9999V38.9999ZM34.5996 27.0131C34.48 27.0381 34.3722 27.1024 34.2934 27.1957L26.6499 34.8242C26.4829 34.9907 26.4702 35.0317 26.4599 35.0639C26.4682 35.1581 26.4829 35.2036 26.6499 35.3705L29.0757 37.8046C29.2431 37.9716 29.2822 37.9838 29.3139 37.9936H29.3843C29.4214 37.9824 29.4629 37.9692 29.6089 37.8178L37.2583 30.1841C37.4253 30.0166 37.438 29.9765 37.4482 29.9443C37.4237 29.8242 37.3593 29.7158 37.2656 29.6367L34.8398 27.2036C34.6728 27.0366 34.6323 27.0239 34.5996 27.0131V27.0131Z" fill="white"/>
<path d="M32 64.4849C25.671 64.4849 19.4841 62.6081 14.2218 59.0919C8.95939 55.5757 4.85787 50.578 2.43587 44.7308C0.013865 38.8835 -0.619842 32.4494 0.614885 26.242C1.84961 20.0346 4.89732 14.3327 9.3726 9.85746C13.8479 5.38218 19.5497 2.33448 25.7571 1.09975C31.9645 -0.134978 38.3986 0.498729 44.2459 2.92073C50.0931 5.34274 55.0908 9.44426 58.607 14.7066C62.1232 19.969 64 26.1559 64 32.4849C63.9905 40.9689 60.616 49.1027 54.6169 55.1018C48.6178 61.1009 40.484 64.4754 32 64.4849ZM32 1.48488C25.8688 1.48488 19.8753 3.303 14.7773 6.70932C9.67941 10.1156 5.70607 14.9572 3.35975 20.6217C1.01343 26.2862 0.399529 32.5193 1.59567 38.5327C2.79181 44.5461 5.74428 50.0698 10.0797 54.4052C14.4151 58.7406 19.9388 61.6931 25.9522 62.8892C31.9656 64.0854 38.1987 63.4715 43.8632 61.1251C49.5277 58.7788 54.3693 54.8055 57.7756 49.7076C61.1819 44.6096 63 38.6161 63 32.4849C62.9907 24.266 59.7216 16.3865 53.91 10.5749C48.0984 4.7633 40.2189 1.49424 32 1.48488V1.48488Z" fill="white"/>
</g>
<defs>
<clipPath id="clip0_20_4953">
<rect width="64.0001" height="64.0001" fill="white" transform="translate(0 0.484863)"/>
</clipPath>
</defs>
</svg>
