<svg width="65" height="65" viewBox="0 0 65 65" fill="none" xmlns="http://www.w3.org/2000/svg">
<g clip-path="url(#clip0_20_4942)">
<path opacity="0.3" d="M54.6513 40.3613C51.2708 45.9572 45.9078 50.0757 39.6291 51.8976L48.916 63.9849L53.0796 54.1416L63.9077 52.4087L54.6513 40.3613Z" fill="#231F20"/>
<path opacity="0.3" d="M10.1641 40.3613C13.5447 45.9572 18.9076 50.0757 25.1863 51.8976L15.8994 63.9849L11.7358 54.1416L0.907715 52.4087L10.1641 40.3613Z" fill="#231F20"/>
<path opacity="0.3" d="M32.4072 9.57471C28.97 9.57488 25.6099 10.5943 22.7521 12.5041C19.8942 14.4138 17.6668 17.1281 16.3515 20.3038C15.0362 23.4794 14.6922 26.9738 15.3628 30.345C16.0335 33.7162 17.6888 36.8128 20.1193 39.2432C22.5499 41.6737 25.6465 43.3288 29.0178 43.9994C32.389 44.6699 35.8833 44.3257 39.0589 43.0103C42.2345 41.6949 44.9487 39.4674 46.8584 36.6094C48.768 33.7515 49.7873 30.3914 49.7874 26.9542C49.7873 24.6718 49.3377 22.4118 48.4643 20.3032C47.5908 18.1946 46.3106 16.2787 44.6967 14.6649C43.0828 13.051 41.1668 11.7709 39.0582 10.8975C36.9496 10.0241 34.6896 9.57465 32.4072 9.57471V9.57471Z" fill="#231F20"/>
<path d="M49.042 64.9696L39.232 52.2016L40.025 51.5926L48.79 62.9996L52.727 53.6916L63 52.0476L54.255 40.6656L55.048 40.0566L64.815 52.7696L53.432 54.5906L49.042 64.9696Z" fill="white"/>
<path d="M15.773 64.9696L11.383 54.5906L0 52.7696L9.768 40.0566L10.561 40.6656L1.815 52.0476L12.088 53.6916L16.026 62.9996L24.79 51.5926L25.583 52.2016L15.773 64.9696Z" fill="white"/>
<path d="M32.4072 44.833C28.8711 44.8328 25.4145 43.784 22.4744 41.8192C19.5344 39.8545 17.2429 37.062 15.8899 33.795C14.5369 30.528 14.183 26.9331 14.873 23.465C15.563 19.9968 17.266 16.8112 19.7665 14.3109C22.267 11.8106 25.4528 10.1079 28.921 9.41814C32.3892 8.72839 35.9841 9.08257 39.251 10.4359C42.5179 11.7892 45.3101 14.0808 47.2746 17.021C49.2391 19.9613 50.2877 23.418 50.2876 26.9541C50.2821 31.6944 48.3964 36.239 45.0444 39.5908C41.6923 42.9426 37.1476 44.8279 32.4072 44.833V44.833ZM32.4072 10.0747C29.0689 10.075 25.8056 11.0651 23.03 12.9199C20.2544 14.7748 18.0912 17.411 16.8138 20.4953C15.5365 23.5796 15.2024 26.9733 15.8538 30.2475C16.5052 33.5216 18.1128 36.5291 20.4734 38.8896C22.8341 41.25 25.8416 42.8575 29.1158 43.5087C32.39 44.16 35.7837 43.8257 38.8679 42.5481C41.9521 41.2706 44.5882 39.1072 46.4429 36.3315C48.2976 33.5558 49.2876 30.2924 49.2876 26.9541C49.2824 22.4788 47.5023 18.1884 44.3377 15.024C41.1731 11.8596 36.8825 10.0796 32.4072 10.0747V10.0747Z" fill="white"/>
<path d="M32.4073 53.4229C27.1722 53.4226 22.0548 51.87 17.7022 48.9614C13.3495 46.0528 9.95711 41.9188 7.95393 37.0822C5.95074 32.2456 5.42676 26.9236 6.44822 21.7892C7.46969 16.6548 9.99074 11.9386 13.6926 8.23695C17.3944 4.53533 22.1107 2.01454 27.2452 0.993352C32.3797 -0.0278352 37.7017 0.496444 42.5382 2.49989C47.3747 4.50334 51.5085 7.89598 54.4168 12.2488C57.3252 16.6016 58.8775 21.7191 58.8775 26.9541C58.8693 33.9718 56.0778 40.6997 51.1154 45.6618C46.153 50.624 39.425 53.4151 32.4073 53.4229V53.4229ZM32.4073 1.48488C27.37 1.48511 22.446 2.97904 18.2578 5.77775C14.0696 8.57645 10.8054 12.5542 8.87785 17.2081C6.95034 21.862 6.44613 26.9829 7.42897 31.9233C8.41182 36.8637 10.8376 41.4017 14.3995 44.9635C17.9614 48.5253 22.4996 50.9509 27.44 51.9336C32.3805 52.9162 37.5014 52.4118 42.1551 50.4841C46.8089 48.5564 50.7866 45.292 53.5851 41.1037C56.3837 36.9154 57.8774 31.9913 57.8775 26.9541C57.8697 20.2015 55.1838 13.7276 50.4088 8.95282C45.6339 4.17806 39.1599 1.49234 32.4073 1.48488V1.48488Z" fill="white"/>
</g>
<defs>
<clipPath id="clip0_20_4942">
<rect width="64.8154" height="64.4849" fill="white" transform="translate(0 0.484863)"/>
</clipPath>
</defs>
</svg>
