<svg width="65" height="64" viewBox="0 0 65 64" fill="none" xmlns="http://www.w3.org/2000/svg">
<g clip-path="url(#clip0_20_4536)">
<path opacity="0.15" d="M53.8697 39.7544V34.6045H30.9806C32.2504 36.9036 32.9002 39.4935 32.8659 42.1197H47.7381C49.3958 40.5626 51.5957 39.7139 53.8697 39.7544V39.7544Z" fill="#183A9E"/>
<path opacity="0.15" d="M16.9707 32.7007C15.1077 32.7007 13.2866 33.2531 11.7376 34.2881C10.1886 35.3231 8.98128 36.7942 8.26835 38.5154C7.55542 40.2365 7.36888 42.1304 7.73232 43.9576C8.09576 45.7848 8.99287 47.4632 10.3102 48.7805C11.6275 50.0978 13.3059 50.9949 15.133 51.3584C16.9602 51.7218 18.8541 51.5353 20.5753 50.8223C22.2964 50.1094 23.7675 48.9021 24.8026 47.3531C25.8376 45.8041 26.39 43.983 26.39 42.12C26.39 40.883 26.1464 39.6582 25.673 38.5154C25.1996 37.3726 24.5058 36.3342 23.6312 35.4595C22.7565 34.5849 21.7181 33.8911 20.5753 33.4177C19.4325 32.9443 18.2077 32.7007 16.9707 32.7007V32.7007ZM16.9707 46.0716C16.1891 46.0716 15.4251 45.8399 14.7753 45.4057C14.1255 44.9714 13.619 44.3543 13.3199 43.6322C13.0208 42.9102 12.9425 42.1156 13.095 41.3491C13.2475 40.5825 13.6238 39.8784 14.1765 39.3258C14.7291 38.7731 15.4332 38.3968 16.1998 38.2443C16.9663 38.0918 17.7609 38.1701 18.4829 38.4692C19.205 38.7683 19.8221 39.2748 20.2564 39.9246C20.6906 40.5744 20.9223 41.3384 20.9223 42.12C20.9223 42.6389 20.8201 43.1528 20.6215 43.6322C20.423 44.1117 20.1319 44.5473 19.7649 44.9142C19.398 45.2812 18.9624 45.5723 18.4829 45.7708C18.0035 45.9694 17.4896 46.0716 16.9707 46.0716V46.0716Z" fill="#183A9E"/>
<path opacity="0.15" d="M53.8696 51.1725C55.1331 51.1725 56.1573 50.1483 56.1573 48.8848C56.1573 47.6214 55.1331 46.5972 53.8696 46.5972C52.6062 46.5972 51.582 47.6214 51.582 48.8848C51.582 50.1483 52.6062 51.1725 53.8696 51.1725Z" fill="#183A9E"/>
<path opacity="0.15" d="M36.556 22.3821H23.552V8.9751H32.675L36.556 22.3821Z" fill="#183A9E"/>
<path opacity="0.15" d="M21.1572 8.97461H15.9061V22.3816H21.1572V8.97461Z" fill="#183A9E"/>
<path d="M16.9707 58.5152C13.728 58.5152 10.5581 57.5537 7.86186 55.7522C5.16563 53.9507 3.06416 51.3901 1.82321 48.3942C0.582256 45.3984 0.257553 42.1018 0.890159 38.9214C1.52277 35.741 3.08427 32.8196 5.3772 30.5267C7.67014 28.2337 10.5915 26.6722 13.7719 26.0396C16.9523 25.407 20.2489 25.7317 23.2447 26.9727C26.2406 28.2136 28.8012 30.3151 30.6027 33.0113C32.4042 35.7076 33.3657 38.8775 33.3657 42.1202C33.3607 46.4669 31.6318 50.6341 28.5582 53.7077C25.4846 56.7812 21.3174 58.5102 16.9707 58.5152V58.5152ZM16.9707 26.7246C13.9258 26.7246 10.9492 27.6274 8.41748 29.3191C5.88571 31.0107 3.91242 33.4151 2.74715 36.2282C1.58187 39.0413 1.27695 42.1367 1.87093 45.1231C2.46492 48.1095 3.93114 50.8527 6.08417 53.0058C8.23721 55.1589 10.9804 56.6252 13.9667 57.2193C16.9531 57.8134 20.0486 57.5085 22.8617 56.3434C25.6749 55.1782 28.0793 53.2049 29.771 50.6732C31.4627 48.1415 32.3657 45.165 32.3657 42.1201C32.3612 38.0384 30.7377 34.1252 27.8516 31.239C24.9655 28.3528 21.0523 26.7293 16.9707 26.7246V26.7246Z" fill="#204ECF"/>
<path d="M16.9707 46.5718C16.0903 46.5718 15.2296 46.3107 14.4975 45.8215C13.7654 45.3324 13.1948 44.6371 12.8579 43.8237C12.521 43.0103 12.4328 42.1152 12.6046 41.2517C12.7763 40.3881 13.2003 39.5949 13.8229 38.9723C14.4455 38.3498 15.2387 37.9258 16.1022 37.754C16.9657 37.5822 17.8608 37.6704 18.6743 38.0073C19.4877 38.3442 20.1829 38.9148 20.6721 39.6469C21.1613 40.3789 21.4224 41.2396 21.4224 42.1201C21.421 43.3003 20.9516 44.4318 20.117 45.2664C19.2825 46.101 18.1509 46.5704 16.9707 46.5718V46.5718ZM16.9707 38.6685C16.288 38.6685 15.6207 38.8709 15.0531 39.2502C14.4854 39.6294 14.043 40.1685 13.7818 40.7992C13.5205 41.4299 13.4522 42.124 13.5854 42.7935C13.7186 43.4631 14.0473 44.0781 14.53 44.5608C15.0128 45.0435 15.6278 45.3723 16.2973 45.5055C16.9669 45.6386 17.6609 45.5703 18.2916 45.309C18.9223 45.0478 19.4614 44.6054 19.8407 44.0377C20.2199 43.4701 20.4224 42.8028 20.4224 42.1201C20.4213 41.205 20.0574 40.3276 19.4103 39.6805C18.7632 39.0334 17.8858 38.6695 16.9707 38.6685V38.6685Z" fill="#204ECF"/>
<path d="M53.8696 58.5151C51.965 58.5151 50.1031 57.9503 48.5195 56.8921C46.9359 55.8339 45.7016 54.3299 44.9728 52.5702C44.2439 50.8105 44.0532 48.8743 44.4248 47.0062C44.7964 45.1382 45.7136 43.4223 47.0604 42.0755C48.4071 40.7287 50.123 39.8115 51.9911 39.4399C53.8591 39.0684 55.7954 39.259 57.5551 39.9879C59.3147 40.7167 60.8187 41.951 61.8769 43.5347C62.9351 45.1183 63.5 46.9801 63.5 48.8848C63.4971 51.438 62.4815 53.8858 60.6761 55.6912C58.8707 57.4966 56.4229 58.5122 53.8696 58.5151V58.5151ZM53.8696 40.2549C52.1628 40.2549 50.4942 40.7611 49.075 41.7095C47.6558 42.6578 46.5497 44.0057 45.8966 45.5826C45.2434 47.1596 45.0726 48.8948 45.4056 50.5689C45.7387 52.243 46.5606 53.7807 47.7676 54.9876C48.9746 56.1945 50.5124 57.0164 52.1865 57.3494C53.8606 57.6823 55.5958 57.5114 57.1727 56.8581C58.7496 56.2049 60.0975 55.0987 61.0457 53.6795C61.994 52.2602 62.5001 50.5917 62.5 48.8848C62.4973 46.5967 61.5872 44.4032 59.9692 42.7853C58.3513 41.1675 56.1577 40.2575 53.8696 40.2549V40.2549Z" fill="#204ECF"/>
<path d="M53.8696 51.6724C53.3183 51.6724 52.7793 51.5089 52.3209 51.2026C51.8625 50.8963 51.5052 50.4609 51.2942 49.9515C51.0832 49.4422 51.028 48.8817 51.1356 48.3409C51.2432 47.8002 51.5086 47.3035 51.8985 46.9136C52.2884 46.5238 52.7851 46.2583 53.3258 46.1507C53.8665 46.0432 54.427 46.0984 54.9364 46.3094C55.4458 46.5203 55.8811 46.8776 56.1874 47.3361C56.4937 47.7945 56.6572 48.3334 56.6572 48.8848C56.6564 49.6238 56.3624 50.3324 55.8398 50.855C55.3173 51.3776 54.6087 51.6715 53.8696 51.6724V51.6724ZM53.8696 47.0972C53.5161 47.0972 53.1705 47.202 52.8765 47.3984C52.5825 47.5949 52.3534 47.874 52.2181 48.2007C52.0828 48.5273 52.0474 48.8868 52.1164 49.2335C52.1854 49.5803 52.3556 49.8988 52.6056 50.1488C52.8556 50.3988 53.1741 50.569 53.5209 50.638C53.8676 50.707 54.2271 50.6716 54.5537 50.5363C54.8804 50.401 55.1595 50.1719 55.356 49.8779C55.5524 49.5839 55.6572 49.2383 55.6572 48.8848C55.6567 48.4108 55.4683 47.9564 55.1331 47.6213C54.798 47.2861 54.3436 47.0977 53.8696 47.0972V47.0972Z" fill="#204ECF"/>
<path d="M47.7383 41.6201H32.8657V42.6201H47.7383V41.6201Z" fill="#204ECF"/>
<path d="M54.3696 39.7549H53.3696V25.7881C53.3688 25.0176 53.0623 24.2789 52.5175 23.734C51.9726 23.1892 51.2339 22.8827 50.4634 22.8819H39.4912L35.353 8.58304C35.1759 7.97922 34.8085 7.44876 34.3055 7.07068C33.8024 6.6926 33.1908 6.48714 32.5615 6.4849H13.5869C12.8164 6.48577 12.0777 6.79223 11.5329 7.33706C10.988 7.8819 10.6815 8.6206 10.6807 9.39111V27.7447H9.68066V9.39111C9.68187 8.35548 10.0938 7.36261 10.8261 6.63031C11.5584 5.89801 12.5513 5.48607 13.5869 5.48486H32.5615C33.4073 5.48782 34.2296 5.76393 34.9057 6.27205C35.5819 6.78017 36.0759 7.49313 36.314 8.30472L40.2432 21.8819H50.4634C51.499 21.8831 52.4919 22.295 53.2242 23.0273C53.9565 23.7596 54.3684 24.7525 54.3696 25.7881V39.7549Z" fill="#204ECF"/>
<path d="M49.6186 22.3818H48.6186V9.79007C48.6176 8.91373 48.2689 8.0736 47.6492 7.45398C47.0295 6.83435 46.1893 6.48583 45.313 6.48486V5.48486C46.4545 5.48609 47.5488 5.94005 48.356 6.74716C49.1632 7.55426 49.6173 8.6486 49.6186 9.79007V22.3818Z" fill="#204ECF"/>
<path d="M53.8696 31.0234H48.248V32.0234H53.8696V31.0234Z" fill="#204ECF"/>
<path d="M53.8696 57.5151H0V58.5151H53.8696V57.5151Z" fill="#204ECF"/>
</g>
<defs>
<clipPath id="clip0_20_4536">
<rect width="64.0331" height="64" fill="white"/>
</clipPath>
</defs>
</svg>
