<svg width="65" height="65" viewBox="0 0 65 65" fill="none" xmlns="http://www.w3.org/2000/svg">
<g clip-path="url(#clip0_20_4961)">
<path opacity="0.3" d="M53.8697 40.2392V35.0894H30.9806C32.2504 37.3884 32.9002 39.9784 32.8659 42.6046H47.7381C49.3958 41.0475 51.5957 40.1988 53.8697 40.2392V40.2392Z" fill="#231F20"/>
<path opacity="0.3" d="M16.9707 33.1855C15.1077 33.1855 13.2866 33.738 11.7376 34.773C10.1886 35.808 8.98128 37.2791 8.26835 39.0002C7.55542 40.7214 7.36888 42.6153 7.73232 44.4425C8.09576 46.2697 8.99287 47.948 10.3102 49.2653C11.6275 50.5827 13.3059 51.4798 15.133 51.8432C16.9602 52.2067 18.8541 52.0201 20.5753 51.3072C22.2964 50.5943 23.7675 49.387 24.8026 47.838C25.8376 46.289 26.39 44.4678 26.39 42.6049C26.39 41.3679 26.1464 40.1431 25.673 39.0003C25.1996 37.8574 24.5058 36.8191 23.6312 35.9444C22.7565 35.0697 21.7181 34.3759 20.5753 33.9025C19.4325 33.4292 18.2077 33.1855 16.9707 33.1855V33.1855ZM16.9707 46.5565C16.1891 46.5565 15.4251 46.3247 14.7753 45.8905C14.1255 45.4563 13.619 44.8392 13.3199 44.1171C13.0208 43.395 12.9425 42.6005 13.095 41.8339C13.2475 41.0674 13.6238 40.3633 14.1765 39.8106C14.7291 39.258 15.4332 38.8816 16.1998 38.7292C16.9663 38.5767 17.7609 38.655 18.4829 38.954C19.205 39.2531 19.8221 39.7596 20.2564 40.4095C20.6906 41.0593 20.9223 41.8233 20.9223 42.6049C20.9223 43.1238 20.8201 43.6377 20.6215 44.1171C20.423 44.5965 20.1319 45.0322 19.7649 45.3991C19.398 45.766 18.9624 46.0571 18.4829 46.2557C18.0035 46.4543 17.4896 46.5565 16.9707 46.5565V46.5565Z" fill="#231F20"/>
<path opacity="0.3" d="M53.8696 51.6574C55.1331 51.6574 56.1573 50.6331 56.1573 49.3697C56.1573 48.1063 55.1331 47.082 53.8696 47.082C52.6062 47.082 51.582 48.1063 51.582 49.3697C51.582 50.6331 52.6062 51.6574 53.8696 51.6574Z" fill="#231F20"/>
<path opacity="0.3" d="M36.556 22.867H23.552V9.45996H32.675L36.556 22.867Z" fill="#231F20"/>
<path opacity="0.3" d="M21.1572 9.45947H15.9061V22.8665H21.1572V9.45947Z" fill="#231F20"/>
<path d="M16.9707 59C13.728 59.0001 10.5581 58.0385 7.86186 56.237C5.16563 54.4355 3.06416 51.8749 1.82321 48.8791C0.582256 45.8832 0.257553 42.5867 0.890159 39.4063C1.52277 36.2259 3.08427 33.3045 5.3772 31.0115C7.67014 28.7186 10.5915 27.1571 13.7719 26.5245C16.9523 25.8919 20.2489 26.2166 23.2447 27.4575C26.2406 28.6985 28.8012 30.8 30.6027 33.4962C32.4042 36.1924 33.3657 39.3623 33.3657 42.605C33.3607 46.9517 31.6318 51.1189 28.5582 54.1925C25.4846 57.2661 21.3174 58.995 16.9707 59V59ZM16.9707 27.2095C13.9258 27.2094 10.9492 28.1123 8.41748 29.8039C5.88571 31.4955 3.91242 33.8999 2.74715 36.713C1.58187 39.5261 1.27695 42.6216 1.87093 45.608C2.46492 48.5944 3.93114 51.3376 6.08417 53.4907C8.23721 55.6438 10.9804 57.1101 13.9667 57.7042C16.9531 58.2982 20.0486 57.9934 22.8617 56.8282C25.6749 55.663 28.0793 53.6898 29.771 51.1581C31.4627 48.6264 32.3657 45.6499 32.3657 42.605C32.3612 38.5233 30.7377 34.6101 27.8516 31.7239C24.9655 28.8377 21.0523 27.2142 16.9707 27.2095V27.2095Z" fill="white"/>
<path d="M16.9707 47.0566C16.0903 47.0566 15.2296 46.7956 14.4975 46.3064C13.7654 45.8173 13.1948 45.122 12.8579 44.3086C12.521 43.4951 12.4328 42.6001 12.6046 41.7365C12.7763 40.873 13.2003 40.0798 13.8229 39.4572C14.4455 38.8346 15.2387 38.4106 16.1022 38.2389C16.9657 38.0671 17.8608 38.1552 18.6743 38.4922C19.4877 38.8291 20.1829 39.3997 20.6721 40.1317C21.1613 40.8638 21.4224 41.7245 21.4224 42.6049C21.421 43.7852 20.9516 44.9167 20.117 45.7513C19.2825 46.5858 18.1509 47.0553 16.9707 47.0566V47.0566ZM16.9707 39.1533C16.288 39.1533 15.6207 39.3558 15.0531 39.735C14.4854 40.1143 14.043 40.6534 13.7818 41.2841C13.5205 41.9148 13.4522 42.6088 13.5854 43.2784C13.7186 43.9479 14.0473 44.563 14.53 45.0457C15.0128 45.5284 15.6278 45.8571 16.2973 45.9903C16.9669 46.1235 17.6609 46.0551 18.2916 45.7939C18.9223 45.5326 19.4614 45.0902 19.8407 44.5226C20.2199 43.955 20.4224 43.2876 20.4224 42.6049C20.4213 41.6898 20.0574 40.8125 19.4103 40.1654C18.7632 39.5183 17.8858 39.1543 16.9707 39.1533V39.1533Z" fill="white"/>
<path d="M53.8696 59C51.965 59 50.1031 58.4351 48.5195 57.3769C46.9359 56.3187 45.7016 54.8147 44.9728 53.0551C44.2439 51.2954 44.0532 49.3591 44.4248 47.4911C44.7964 45.623 45.7136 43.9071 47.0604 42.5604C48.4071 41.2136 50.123 40.2964 51.9911 39.9248C53.8591 39.5532 55.7954 39.7439 57.5551 40.4728C59.3147 41.2016 60.8187 42.4359 61.8769 44.0195C62.9351 45.6031 63.5 47.465 63.5 49.3696C63.4971 51.9229 62.4815 54.3707 60.6761 56.1761C58.8707 57.9815 56.4229 58.9971 53.8696 59V59ZM53.8696 40.7398C52.1628 40.7398 50.4942 41.246 49.075 42.1943C47.6558 43.1427 46.5497 44.4905 45.8966 46.0675C45.2434 47.6445 45.0726 49.3797 45.4056 51.0538C45.7387 52.7279 46.5606 54.2656 47.7676 55.4725C48.9746 56.6794 50.5124 57.5013 52.1865 57.8342C53.8606 58.1672 55.5958 57.9962 57.1727 57.343C58.7496 56.6898 60.0975 55.5836 61.0457 54.1643C61.994 52.7451 62.5001 51.0765 62.5 49.3696C62.4973 47.0816 61.5872 44.888 59.9692 43.2702C58.3513 41.6524 56.1577 40.7423 53.8696 40.7398V40.7398Z" fill="white"/>
<path d="M53.8696 52.1572C53.3183 52.1572 52.7793 51.9937 52.3209 51.6874C51.8625 51.3811 51.5052 50.9458 51.2942 50.4364C51.0832 49.927 51.028 49.3665 51.1356 48.8258C51.2432 48.2851 51.5086 47.7884 51.8985 47.3985C52.2884 47.0086 52.7851 46.7432 53.3258 46.6356C53.8665 46.528 54.427 46.5832 54.9364 46.7942C55.4458 47.0052 55.8811 47.3625 56.1874 47.8209C56.4937 48.2793 56.6572 48.8183 56.6572 49.3696C56.6564 50.1087 56.3624 50.8172 55.8398 51.3398C55.3173 51.8624 54.6087 52.1564 53.8696 52.1572V52.1572ZM53.8696 47.582C53.5161 47.582 53.1705 47.6869 52.8765 47.8833C52.5825 48.0797 52.3534 48.3589 52.2181 48.6855C52.0828 49.0122 52.0474 49.3716 52.1164 49.7184C52.1854 50.0651 52.3556 50.3837 52.6056 50.6337C52.8556 50.8837 53.1741 51.0539 53.5209 51.1229C53.8676 51.1919 54.2271 51.1565 54.5537 51.0212C54.8804 50.8859 55.1595 50.6567 55.356 50.3628C55.5524 50.0688 55.6572 49.7232 55.6572 49.3696C55.6567 48.8957 55.4683 48.4413 55.1331 48.1061C54.798 47.771 54.3436 47.5825 53.8696 47.582V47.582Z" fill="white"/>
<path d="M47.7383 42.105H32.8657V43.105H47.7383V42.105Z" fill="white"/>
<path d="M54.3696 40.2398H53.3696V26.273C53.3688 25.5025 53.0623 24.7637 52.5175 24.2189C51.9726 23.6741 51.2339 23.3676 50.4634 23.3667H39.4912L35.353 9.06791C35.1759 8.46408 34.8085 7.93362 34.3055 7.55554C33.8024 7.17747 33.1908 6.97201 32.5615 6.96977H13.5869C12.8164 6.97063 12.0777 7.27709 11.5329 7.82193C10.988 8.36676 10.6815 9.10546 10.6807 9.87598V28.2295H9.68066V9.87598C9.68187 8.84035 10.0938 7.84748 10.8261 7.11517C11.5584 6.38287 12.5513 5.97093 13.5869 5.96973H32.5615C33.4073 5.97269 34.2296 6.24879 34.9057 6.75691C35.5819 7.26503 36.0759 7.97799 36.314 8.78959L40.2432 22.3667H50.4634C51.499 22.3679 52.4919 22.7799 53.2242 23.5122C53.9565 24.2445 54.3684 25.2373 54.3696 26.273V40.2398Z" fill="white"/>
<path d="M49.6186 22.8667H48.6186V10.2749C48.6176 9.3986 48.2689 8.55847 47.6492 7.93884C47.0295 7.31922 46.1893 6.97069 45.313 6.96973V5.96973C46.4545 5.97095 47.5488 6.42491 48.356 7.23202C49.1632 8.03913 49.6173 9.13346 49.6186 10.2749V22.8667Z" fill="white"/>
<path d="M53.8696 31.5083H48.248V32.5083H53.8696V31.5083Z" fill="white"/>
<path d="M53.8696 58H0V59H53.8696V58Z" fill="white"/>
</g>
<defs>
<clipPath id="clip0_20_4961">
<rect width="64.0331" height="64" fill="white" transform="translate(0 0.484863)"/>
</clipPath>
</defs>
</svg>
