<svg width="64" height="65" viewBox="0 0 64 64" fill="none" xmlns="http://www.w3.org/2000/svg">
<path opacity="0.3" d="M0.5 42.0186V52.7566H7.9404C7.9404 52.7566 8.58786 59.2739 14.6052 59.2739C20.6225 59.2739 21.1225 52.7566 21.1225 52.7566H45.7622C45.7622 52.7566 46.0417 59.2739 52.2773 59.2739C58.2944 59.2739 58.7944 52.7566 58.7944 52.7566H63.5V42.0186H57.3922L45.762 26.2271V42.0186H0.5Z" fill="#231F20"/>
<path d="M52.2774 59.7739C50.8894 59.774 49.5327 59.3625 48.3786 58.5914C47.2246 57.8203 46.3251 56.7244 45.794 55.4421C45.2628 54.1599 45.1238 52.7489 45.3946 51.3876C45.6654 50.0264 46.3337 48.776 47.3151 47.7946C48.2965 46.8132 49.5469 46.1448 50.9082 45.8741C52.2694 45.6033 53.6804 45.7423 54.9627 46.2735C56.2449 46.8046 57.3409 47.7041 58.1119 48.8582C58.883 50.0122 59.2945 51.369 59.2944 52.7569C59.2923 54.6173 58.5523 56.4008 57.2368 57.7163C55.9213 59.0318 54.1377 59.7718 52.2774 59.7739V59.7739ZM52.2774 46.7393C51.0872 46.7392 49.9238 47.0921 48.9343 47.7532C47.9447 48.4144 47.1734 49.3541 46.7179 50.4536C46.2624 51.5531 46.1432 52.763 46.3753 53.9303C46.6075 55.0975 47.1805 56.1697 48.022 57.0113C48.8635 57.8529 49.9357 58.426 51.1029 58.6583C52.2702 58.8905 53.48 58.7714 54.5796 58.316C55.6791 57.8606 56.619 57.0894 57.2802 56.0999C57.9414 55.1104 58.2944 53.947 58.2944 52.7569C58.2927 51.1615 57.6582 49.6321 56.5302 48.5039C55.4021 47.3758 53.8727 46.7412 52.2774 46.7393Z" fill="white"/>
<path d="M14.6055 59.7739C13.2176 59.774 11.8608 59.3625 10.7068 58.5914C9.55273 57.8203 8.65326 56.7244 8.1221 55.4421C7.59095 54.1599 7.45196 52.7489 7.72272 51.3876C7.99348 50.0264 8.66183 48.776 9.64324 47.7946C10.6247 46.8132 11.875 46.1448 13.2363 45.8741C14.5976 45.6033 16.0085 45.7423 17.2908 46.2735C18.5731 46.8046 19.669 47.7041 20.4401 48.8582C21.2111 50.0122 21.6226 51.369 21.6226 52.7569C21.6204 54.6173 20.8804 56.4008 19.5649 57.7163C18.2494 59.0318 16.4659 59.7718 14.6055 59.7739V59.7739ZM14.6055 46.7393C13.4154 46.7392 12.252 47.0921 11.2624 47.7532C10.2728 48.4144 9.50152 49.3541 9.04604 50.4536C8.59055 51.5531 8.47133 52.763 8.70346 53.9303C8.93559 55.0975 9.50864 56.1697 10.3501 57.0113C11.1916 57.8529 12.2638 58.426 13.431 58.6583C14.5983 58.8905 15.8082 58.7714 16.9077 58.316C18.0073 57.8606 18.9471 57.0894 19.6083 56.0999C20.2696 55.1104 20.6225 53.947 20.6226 52.7569C20.6207 51.1616 19.9862 49.6321 18.8582 48.504C17.7302 47.3759 16.2008 46.7413 14.6055 46.7393V46.7393Z" fill="white"/>
<path d="M45.7622 52.2568H21.1226V53.2568H45.7622V52.2568Z" fill="white"/>
<path d="M7.94 53.2568H0V5.1958H46.262V52.6088H45.262V6.1958H1V52.2568H7.94V53.2568Z" fill="white"/>
<path d="M64 53.257H58.794V52.257H63V37.3601L55.169 26.7271H45.762V25.7271H55.675L64 37.0321V53.257Z" fill="white"/>
<path d="M63.5 58.7739H0.5V59.7739H63.5V58.7739Z" fill="white"/>
</svg>
