<svg width="64" height="64" viewBox="0 0 64 64" fill="none" xmlns="http://www.w3.org/2000/svg">
<path opacity="0.15" d="M0.5 41.5338V52.2718H7.9404C7.9404 52.2718 8.58786 58.789 14.6052 58.789C20.6225 58.789 21.1225 52.2718 21.1225 52.2718H45.7622C45.7622 52.2718 46.0417 58.789 52.2773 58.789C58.2944 58.789 58.7944 52.2718 58.7944 52.2718H63.5V41.5338H57.3922L45.762 25.7422V41.5338H0.5Z" fill="#183A9E"/>
<path d="M52.2774 59.2891C50.8894 59.2891 49.5327 58.8776 48.3786 58.1065C47.2246 57.3355 46.3251 56.2395 45.794 54.9573C45.2628 53.675 45.1238 52.264 45.3946 50.9028C45.6654 49.5415 46.3337 48.2911 47.3151 47.3097C48.2965 46.3283 49.5469 45.66 50.9082 45.3892C52.2694 45.1185 53.6804 45.2575 54.9627 45.7886C56.2449 46.3198 57.3409 47.2193 58.1119 48.3733C58.883 49.5273 59.2945 50.8841 59.2944 52.272C59.2923 54.1324 58.5523 55.916 57.2368 57.2315C55.9213 58.547 54.1377 59.2869 52.2774 59.2891V59.2891ZM52.2774 46.2544C51.0872 46.2544 49.9238 46.6072 48.9343 47.2684C47.9447 47.9295 47.1734 48.8693 46.7179 49.9688C46.2624 51.0683 46.1432 52.2782 46.3753 53.4454C46.6075 54.6127 47.1805 55.6849 48.022 56.5265C48.8635 57.368 49.9357 57.9412 51.1029 58.1734C52.2702 58.4056 53.48 58.2865 54.5796 57.8312C55.6791 57.3758 56.619 56.6045 57.2802 55.615C57.9414 54.6255 58.2944 53.4621 58.2944 52.272C58.2927 50.6767 57.6582 49.1472 56.5302 48.0191C55.4021 46.8909 53.8727 46.2563 52.2774 46.2544Z" fill="#204ECF"/>
<path d="M14.6055 59.2891C13.2176 59.2891 11.8608 58.8776 10.7068 58.1065C9.55273 57.3355 8.65326 56.2395 8.1221 54.9573C7.59095 53.675 7.45196 52.264 7.72272 50.9028C7.99348 49.5415 8.66183 48.2911 9.64324 47.3097C10.6247 46.3283 11.875 45.66 13.2363 45.3892C14.5976 45.1185 16.0085 45.2575 17.2908 45.7886C18.5731 46.3198 19.669 47.2193 20.4401 48.3733C21.2111 49.5273 21.6226 50.8841 21.6226 52.272C21.6204 54.1324 20.8804 55.916 19.5649 57.2314C18.2494 58.5469 16.4659 59.2869 14.6055 59.2891V59.2891ZM14.6055 46.2544C13.4154 46.2544 12.252 46.6072 11.2624 47.2684C10.2728 47.9295 9.50152 48.8693 9.04604 49.9688C8.59055 51.0683 8.47133 52.2782 8.70346 53.4454C8.93559 54.6127 9.50864 55.6849 10.3501 56.5265C11.1916 57.368 12.2638 57.9412 13.431 58.1734C14.5983 58.4056 15.8082 58.2865 16.9077 57.8312C18.0073 57.3758 18.9471 56.6045 19.6083 55.615C20.2696 54.6255 20.6225 53.4621 20.6226 52.272C20.6207 50.6767 19.9862 49.1473 18.8582 48.0192C17.7302 46.8911 16.2008 46.2564 14.6055 46.2544V46.2544Z" fill="#204ECF"/>
<path d="M45.7622 51.772H21.1226V52.772H45.7622V51.772Z" fill="#204ECF"/>
<path d="M7.94 52.7719H0V4.71094H46.262V52.1239H45.262V5.71094H1V51.7719H7.94V52.7719Z" fill="#204ECF"/>
<path d="M64 52.7722H58.794V51.7722H63V36.8752L55.169 26.2422H45.762V25.2422H55.675L64 36.5472V52.7722Z" fill="#204ECF"/>
<path d="M63.5 58.2891H0.5V59.2891H63.5V58.2891Z" fill="#204ECF"/>
</svg>
