<svg width="64" height="64" viewBox="0 0 64 64" fill="none" xmlns="http://www.w3.org/2000/svg">
<g clip-path="url(#clip0_20_4990)">
<path opacity="0.3" d="M13.7116 17.8784H8.63835V51.5519H13.7116V17.8784Z" fill="#231F20"/>
<path opacity="0.3" d="M22.7185 17.8784H17.6453V51.5519H22.7185V17.8784Z" fill="#231F20"/>
<path opacity="0.3" d="M31.7255 17.8784H26.6522V51.5519H31.7255V17.8784Z" fill="#231F20"/>
<path opacity="0.3" d="M44.869 10.8369V17.8779H63.5L44.869 10.8369Z" fill="#231F20"/>
<path opacity="0.3" d="M49.2383 41.2322C52.8376 41.2322 55.7555 38.3143 55.7555 34.715C55.7555 31.1156 52.8376 28.1978 49.2383 28.1978C45.6389 28.1978 42.721 31.1156 42.721 34.715C42.721 38.3143 45.6389 41.2322 49.2383 41.2322Z" fill="#231F20"/>
<path d="M36.605 60.749H3.75879C2.76223 60.7479 1.80679 60.3516 1.10211 59.6469C0.397438 58.9422 0.00107732 57.9868 0 56.9902L0 12.4395C0.00117794 11.443 0.397586 10.4876 1.10225 9.78306C1.80692 9.07848 2.7623 8.6822 3.75879 8.68115H36.605C37.6015 8.6822 38.5569 9.07848 39.2615 9.78306C39.9662 10.4876 40.3626 11.443 40.3638 12.4395V17.8785H39.3638V12.4395C39.3629 11.7081 39.0719 11.007 38.5547 10.4899C38.0375 9.97278 37.3364 9.68194 36.605 9.68115H3.75879C3.02744 9.68194 2.32626 9.97278 1.80907 10.4899C1.29188 11.007 1.00092 11.7081 1 12.4395V56.9902C1.00089 57.7216 1.29184 58.4228 1.80902 58.94C2.3262 59.4572 3.02739 59.7481 3.75879 59.749H36.605C37.3364 59.7481 38.0376 59.4572 38.5548 58.94C39.072 58.4228 39.3629 57.7216 39.3638 56.9902V51.5518H40.3638V56.9902C40.3627 57.9868 39.9664 58.9422 39.2617 59.6469C38.557 60.3516 37.6016 60.7479 36.605 60.749V60.749Z" fill="white"/>
<path d="M8.63818 64C7.64369 63.9989 6.69024 63.6034 5.98703 62.9002C5.28382 62.197 4.88828 61.2435 4.88718 60.249H5.88718C5.88718 60.6103 5.95834 60.968 6.09659 61.3018C6.23484 61.6356 6.43748 61.9388 6.69293 62.1943C6.94838 62.4497 7.25165 62.6524 7.58542 62.7906C7.91918 62.9289 8.27691 63 8.63818 63C8.99945 63 9.35718 62.9289 9.69094 62.7906C10.0247 62.6524 10.328 62.4497 10.5834 62.1943C10.8389 61.9388 11.0415 61.6356 11.1798 61.3018C11.318 60.968 11.3892 60.6103 11.3892 60.249H12.3892C12.3881 61.2435 11.9925 62.197 11.2893 62.9002C10.5861 63.6034 9.63267 63.9989 8.63818 64V64Z" fill="white"/>
<path d="M31.7256 64C30.7311 63.9989 29.7777 63.6034 29.0744 62.9002C28.3712 62.197 27.9757 61.2435 27.9746 60.249H28.9746C28.9746 60.9786 29.2644 61.6784 29.7803 62.1943C30.2963 62.7102 30.996 63 31.7256 63C32.4552 63 33.1549 62.7102 33.6708 62.1943C34.1868 61.6784 34.4766 60.9786 34.4766 60.249H35.4766C35.4755 61.2435 35.0799 62.197 34.3767 62.9002C33.6735 63.6034 32.7201 63.9989 31.7256 64Z" fill="white"/>
<path d="M27.0083 9.18115H26.0083V3.31152C26.0076 2.6987 25.7638 2.11119 25.3304 1.67786C24.8971 1.24452 24.3096 1.00075 23.6968 1H16.6675C16.0546 1.00065 15.467 1.24438 15.0335 1.67772C14.6001 2.11106 14.3563 2.69862 14.3555 3.31152V9.18115H13.3555V3.31152C13.3565 2.43349 13.7058 1.59172 14.3267 0.970898C14.9476 0.350079 15.7894 0.000910409 16.6675 0H23.6968C24.5748 0.000921205 25.4165 0.350108 26.0374 0.970939C26.6582 1.59177 27.0074 2.43353 27.0083 3.31152V9.18115Z" fill="white"/>
<path d="M64 52.0518H34.4766V17.3784H44.3691V10.1133L64 17.5327V52.0518ZM35.4766 51.0518H63V18.3784H35.4766V51.0518ZM45.3691 17.3784H60.7627L45.3691 11.5605V17.3784Z" fill="white"/>
</g>
<defs>
<clipPath id="clip0_20_4990">
<rect width="64.0001" height="64.0001" fill="white"/>
</clipPath>
</defs>
</svg>
