<svg width="64" height="64" viewBox="0 0 64 64" fill="none" xmlns="http://www.w3.org/2000/svg">
<g clip-path="url(#clip0_20_5004)">
<path opacity="0.3" d="M32.0001 0.5V63.5C40.3544 63.5 48.3666 60.1813 54.274 54.2739C60.1814 48.3665 63.5001 40.3543 63.5001 32C63.5001 23.6457 60.1814 15.6335 54.274 9.72614C48.3666 3.81874 40.3544 0.5 32.0001 0.5V0.5Z" fill="#231F20"/>
<path d="M32.0001 64C25.6711 64 19.4842 62.1232 14.2219 58.607C8.95948 55.0908 4.85796 50.0931 2.43595 44.2459C0.0139492 38.3986 -0.619758 31.9645 0.614969 25.7571C1.8497 19.5497 4.8974 13.8479 9.37268 9.3726C13.848 4.89732 19.5498 1.84961 25.7572 0.614885C31.9646 -0.619842 38.3987 0.013865 44.246 2.43587C50.0932 4.85787 55.0909 8.95939 58.6071 14.2218C62.1233 19.4841 64.0001 25.671 64.0001 32C63.9906 40.484 60.6161 48.6178 54.617 54.6169C48.6179 60.616 40.4841 63.9905 32.0001 64ZM32.0001 1.00001C25.8689 1.00001 19.8753 2.81813 14.7774 6.22446C9.6795 9.63078 5.70615 14.4723 3.35983 20.1368C1.01352 25.8013 0.399613 32.0344 1.59575 38.0478C2.7919 44.0612 5.74436 49.5849 10.0798 53.9203C14.4152 58.2558 19.9389 61.2082 25.9523 62.4044C31.9657 63.6005 38.1988 62.9866 43.8633 60.6403C49.5278 58.294 54.3693 54.3206 57.7757 49.2227C61.182 44.1248 63.0001 38.1312 63.0001 32C62.9907 23.7812 59.7217 15.9016 53.9101 10.09C48.0985 4.27844 40.2189 1.00937 32.0001 1.00001V1.00001Z" fill="white"/>
<path d="M46.4762 18.0215H17.5216V19.0215H46.4762V18.0215Z" fill="white"/>
<path d="M46.1251 33.3532L32.0001 19.2288L17.8751 33.3532L17.1681 32.6462L31.527 18.2878C31.6544 18.1661 31.8239 18.0981 32.0001 18.0981C32.1764 18.0981 32.3459 18.1661 32.4733 18.2878L46.8321 32.6462L46.1251 33.3532Z" fill="white"/>
<path d="M32.5001 18.5215H31.5001V47.4775H32.5001V18.5215Z" fill="white"/>
</g>
<defs>
<clipPath id="clip0_20_5004">
<rect width="64.0001" height="64.0001" fill="white"/>
</clipPath>
</defs>
</svg>
