<svg width="64" height="64" viewBox="0 0 64 64" fill="none" xmlns="http://www.w3.org/2000/svg">
<g clip-path="url(#clip0_20_4588)">
<path opacity="0.15" d="M32.2968 15.1181C33.1257 15.1181 33.9361 14.8723 34.6254 14.4118C35.3147 13.9512 35.8519 13.2966 36.1691 12.5307C36.4864 11.7648 36.5694 10.9221 36.4077 10.109C36.246 9.29599 35.8468 8.54915 35.2606 7.96297C34.6744 7.3768 33.9276 6.97761 33.1145 6.81588C32.3015 6.65416 31.4587 6.73717 30.6928 7.05442C29.927 7.37167 29.2724 7.9089 28.8118 8.59818C28.3513 9.28746 28.1055 10.0978 28.1055 10.9268C28.1055 12.0384 28.5471 13.1044 29.3331 13.8905C30.1191 14.6765 31.1852 15.1181 32.2968 15.1181Z" fill="#183A9E"/>
<path opacity="0.15" d="M32.2969 15.1182C31.1856 15.1182 30.0851 15.3371 29.0584 15.7624C28.0317 16.1877 27.0988 16.811 26.3129 17.5969C25.5271 18.3827 24.9038 19.3156 24.4785 20.3424C24.0532 21.3691 23.8343 22.4695 23.8344 23.5809H40.7596C40.7596 22.4695 40.5407 21.3691 40.1154 20.3423C39.6901 19.3156 39.0668 18.3827 38.2809 17.5968C37.4951 16.811 36.5622 16.1876 35.5354 15.7623C34.5087 15.3371 33.4082 15.1182 32.2969 15.1182V15.1182Z" fill="#183A9E"/>
<path d="M32.2969 15.6182C31.369 15.6182 30.462 15.343 29.6905 14.8275C28.919 14.312 28.3177 13.5793 27.9626 12.7221C27.6075 11.8649 27.5146 10.9216 27.6956 10.0115C27.8766 9.10148 28.3234 8.26555 28.9795 7.60944C29.6357 6.95333 30.4716 6.50652 31.3816 6.3255C32.2917 6.14448 33.235 6.23738 34.0922 6.59246C34.9494 6.94755 35.6821 7.54886 36.1976 8.32035C36.7131 9.09185 36.9883 9.99889 36.9883 10.9268C36.9869 12.1706 36.4922 13.363 35.6127 14.2426C34.7332 15.1221 33.5407 15.6168 32.2969 15.6182V15.6182ZM32.2969 7.23536C31.5668 7.23536 30.8531 7.45186 30.246 7.85747C29.639 8.26309 29.1659 8.83961 28.8865 9.51413C28.6071 10.1886 28.534 10.9309 28.6764 11.6469C28.8188 12.363 29.1704 13.0207 29.6867 13.537C30.2029 14.0532 30.8607 14.4048 31.5767 14.5473C32.2928 14.6897 33.035 14.6166 33.7095 14.3372C34.384 14.0578 34.9606 13.5847 35.3662 12.9776C35.7718 12.3706 35.9883 11.6569 35.9883 10.9268C35.9873 9.94806 35.598 9.00975 34.906 8.3177C34.2139 7.62565 33.2756 7.2364 32.2969 7.23536V7.23536Z" fill="#204ECF"/>
<path d="M41.2593 23.5813H40.2593C40.2593 21.4695 39.4204 19.4441 37.9271 17.9509C36.4338 16.4576 34.4085 15.6187 32.2966 15.6187C30.1848 15.6187 28.1595 16.4576 26.6662 17.9509C25.1729 19.4441 24.334 21.4695 24.334 23.5813H23.334C23.334 21.2043 24.2783 18.9246 25.9591 17.2438C27.6399 15.5629 29.9196 14.6187 32.2966 14.6187C34.6737 14.6187 36.9534 15.5629 38.6342 17.2438C40.315 18.9246 41.2593 21.2043 41.2593 23.5813V23.5813Z" fill="#204ECF"/>
<path d="M32.2969 31.4136C29.1904 31.4135 26.1536 30.4923 23.5707 28.7664C20.9877 27.0405 18.9746 24.5874 17.7858 21.7173C16.5971 18.8473 16.2861 15.6891 16.8922 12.6423C17.4982 9.59552 18.9942 6.79686 21.1909 4.60026C23.3876 2.40365 26.1863 0.907768 29.2331 0.301763C32.2799 -0.304242 35.438 0.00685287 38.3081 1.19571C41.1781 2.38456 43.6311 4.39778 45.357 6.98078C47.0828 9.56377 48.0039 12.6005 48.0039 15.707C47.9992 19.8713 46.3428 23.8637 43.3982 26.8082C40.4535 29.7527 36.4611 31.409 32.2969 31.4136V31.4136ZM32.2969 1.00002C29.3882 1.00006 26.5448 1.86263 24.1263 3.47865C21.7078 5.09466 19.8229 7.39155 18.7098 10.0789C17.5967 12.7662 17.3054 15.7232 17.8729 18.576C18.4404 21.4288 19.8411 24.0493 21.8978 26.1061C23.9546 28.1628 26.5751 29.5635 29.4279 30.131C32.2807 30.6985 35.2377 30.4072 37.925 29.2942C40.6124 28.1811 42.9092 26.2961 44.5253 23.8776C46.1413 21.4591 47.0038 18.6157 47.0039 15.707C46.9994 11.8078 45.4485 8.06965 42.6914 5.31252C39.9343 2.55538 36.1961 1.00447 32.2969 1.00002V1.00002Z" fill="#204ECF"/>
<path d="M54.271 44.042H53.271V37.978H10.729V44.042H9.729V36.978H54.271V44.042Z" fill="#204ECF"/>
<path d="M32.7969 30.9136H31.7969V37.478H32.7969V30.9136Z" fill="#204ECF"/>
<path d="M20.458 64H0V43.542H20.458V64ZM1 63H19.458V44.542H1V63Z" fill="#204ECF"/>
<path d="M64 64H43.542V43.542H64V64ZM44.542 63H63V44.542H44.542V63Z" fill="#204ECF"/>
<path d="M9.482 56.8868L5.806 53.2108L6.513 52.5038L9.482 55.4728L13.945 51.0088L14.652 51.7158L9.482 56.8868Z" fill="#204ECF"/>
<path d="M57.0122 49.8228L49.8228 57.0122L50.5298 57.7192L57.7192 50.5298L57.0122 49.8228Z" fill="#204ECF"/>
<path d="M50.5298 49.8228L49.8228 50.5298L57.0122 57.7192L57.7192 57.0122L50.5298 49.8228Z" fill="#204ECF"/>
</g>
<defs>
<clipPath id="clip0_20_4588">
<rect width="64.0001" height="64.0001" fill="white"/>
</clipPath>
</defs>
</svg>
