<svg width="64" height="64" viewBox="0 0 64 64" fill="none" xmlns="http://www.w3.org/2000/svg">
<g clip-path="url(#clip0_389_234)">
<path opacity="0.15" d="M31.6 1.2002C24.9726 1.2002 19.6 6.57278 19.6 13.2002C19.6 19.8276 24.9726 25.2002 31.6 25.2002C38.2274 25.2002 43.6 19.8276 43.6 13.2002C43.6 6.5728 38.2274 1.2002 31.6 1.2002ZM26 18.8002C26 17.315 26.59 15.8906 27.6402 14.8404C28.6904 13.7902 30.1148 13.2002 31.6 13.2002C29.8327 13.2002 28.4 11.7675 28.4 10.0002C28.4 8.23288 29.8327 6.8002 31.6 6.8002C33.3673 6.8002 34.8 8.23288 34.8 10.0002C34.8 11.7675 33.3673 13.2002 31.6 13.2002C33.0852 13.2002 34.5096 13.7902 35.5598 14.8404C36.61 15.8906 37.2 17.315 37.2 18.8002L36.8 19.2002H26.4L26 18.8002Z" fill="#183A9E"/>
<path d="M31.6 25.5998C24.7517 25.5998 19.2 20.0481 19.2 13.1998C19.2 6.35147 24.7517 0.799805 31.6 0.799805C38.4483 0.799805 44 6.35147 44 13.1998C43.9923 20.045 38.4452 25.5921 31.6 25.5998ZM31.6 1.5998C25.1935 1.5998 20 6.7933 20 13.1998C20 19.6063 25.1935 24.7998 31.6 24.7998C38.0065 24.7998 43.2 19.6063 43.2 13.1998C43.1926 6.79635 38.0034 1.60716 31.6 1.5998Z" fill="#204ECF"/>
<path d="M31.6 13.5999C29.6118 13.5999 28 11.9881 28 9.9999C28 8.01168 29.6118 6.3999 31.6 6.3999C33.5882 6.3999 35.2 8.01168 35.2 9.9999C35.1978 11.9872 33.5873 13.5977 31.6 13.5999ZM31.6 7.1999C30.0536 7.1999 28.8 8.4535 28.8 9.9999C28.8 11.5463 30.0536 12.7999 31.6 12.7999C33.1464 12.7999 34.4 11.5463 34.4 9.9999C34.3981 8.45428 33.1456 7.20177 31.6 7.1999Z" fill="#204ECF"/>
<path d="M37.6 19.1998H36.8V18.7998C36.8 15.9279 34.4719 13.5998 31.6 13.5998C28.7281 13.5998 26.4 15.9279 26.4 18.7998V19.1998H25.6V18.7998C25.6 15.4861 28.2863 12.7998 31.6 12.7998C34.9137 12.7998 37.6 15.4861 37.6 18.7998V19.1998Z" fill="#204ECF"/>
<path d="M50.8 19.9998C48.8118 19.9998 47.2 18.388 47.2 16.3998C47.2 14.4116 48.8118 12.7998 50.8 12.7998C52.7882 12.7998 54.4 14.4116 54.4 16.3998C54.3978 18.3871 52.7873 19.9976 50.8 19.9998ZM50.8 13.5998C49.2536 13.5998 48 14.8534 48 16.3998C48 17.9462 49.2536 19.1998 50.8 19.1998C52.3464 19.1998 53.6 17.9462 53.6 16.3998C53.5981 14.8542 52.3456 13.6017 50.8 13.5998Z" fill="#204ECF"/>
<path d="M56.8 25.6002H56V25.2002C56 22.3283 53.6719 20.0002 50.8 20.0002C47.9281 20.0002 45.6 22.3283 45.6 25.2002V25.6002H44.8V25.2002C44.8 21.8865 47.4863 19.2002 50.8 19.2002C54.1137 19.2002 56.8 21.8865 56.8 25.2002V25.6002Z" fill="#204ECF"/>
<path d="M12.4 32.0003C5.55167 32.0003 0 26.4486 0 19.6003C0 12.752 5.55167 7.20024 12.4 7.20024C14.2606 7.19516 16.098 7.61297 17.7734 8.42216L17.4266 9.14247C15.8591 8.38609 14.1404 7.99555 12.4 8.00029C7.00638 8.00053 2.32453 11.7183 1.10228 16.9716C-0.119967 22.2249 2.4399 27.6276 7.27947 30.0087C12.119 32.3898 17.9613 31.1211 21.3773 26.9472C21.7726 26.4677 22.1228 25.9527 22.4234 25.4089L23.1266 25.7917C22.8011 26.3823 22.4207 26.941 21.9906 27.4604C19.6392 30.3391 16.1169 32.0064 12.4 32.0003Z" fill="#204ECF"/>
<path d="M12.4 19.9998C10.4118 19.9998 8.8 18.388 8.8 16.3998C8.8 14.4116 10.4118 12.7998 12.4 12.7998C14.3882 12.7998 16 14.4116 16 16.3998C15.9978 18.3871 14.3873 19.9976 12.4 19.9998ZM12.4 13.5998C10.8536 13.5998 9.6 14.8534 9.6 16.3998C9.6 17.9462 10.8536 19.1998 12.4 19.1998C13.9464 19.1998 15.2 17.9462 15.2 16.3998C15.1981 14.8542 13.9456 13.6017 12.4 13.5998Z" fill="#204ECF"/>
<path d="M18.4 25.6002H17.6V25.2002C17.6 22.3283 15.2719 20.0002 12.4 20.0002C9.52812 20.0002 7.2 22.3283 7.2 25.2002V25.6002H6.4V25.2002C6.4 21.8865 9.08629 19.2002 12.4 19.2002C15.7137 19.2002 18.4 21.8865 18.4 25.2002V25.6002Z" fill="#204ECF"/>
<path d="M30.4 58.1654L27.7168 55.483L28.2832 54.9166L30.4 57.0342L34.9168 52.5166L35.4832 53.083L30.4 58.1654Z" fill="#204ECF"/>
<path d="M31.6 64.0001C26.519 64.0001 22.4 59.8811 22.4 54.8001C22.4 49.7191 26.519 45.6001 31.6 45.6001C36.681 45.6001 40.8 49.7191 40.8 54.8001C40.7941 59.8787 36.6786 63.9942 31.6 64.0001ZM31.6 46.4001C26.9608 46.4001 23.2 50.1609 23.2 54.8001C23.2 59.4393 26.9608 63.2001 31.6 63.2001C36.2392 63.2001 40 59.4393 40 54.8001C39.9949 50.163 36.2371 46.4052 31.6 46.4001Z" fill="#204ECF"/>
<path d="M32 25.6001H31.2V43.2001H32V25.6001Z" fill="#204ECF"/>
<path d="M26.4 44H25.6V37.6H12V32H12.8V36.8H26.4V44Z" fill="#204ECF"/>
<path d="M37.6 44H36.8V36.8H50.4V32H51.2V37.6H37.6V44Z" fill="#204ECF"/>
<path d="M50.8 32.0003C47.0956 32.0049 43.5842 30.349 41.2312 27.4878C40.803 26.9698 40.4246 26.4127 40.1008 25.8237L40.8039 25.4425C41.1027 25.9836 41.4508 26.4959 41.8438 26.9729C45.6872 31.6355 52.4667 32.5654 57.4237 29.1099C62.3806 25.6544 63.8534 18.9718 60.8083 13.7527C57.7631 8.5336 51.2208 6.52748 45.7734 9.14247L45.4265 8.42216C47.102 7.61297 48.9394 7.19516 50.8 7.20024C57.6483 7.20024 63.2 12.752 63.2 19.6003C63.2 26.4486 57.6483 32.0003 50.8 32.0003Z" fill="#204ECF"/>
</g>
<defs>
<clipPath id="clip0_389_234">
<rect width="64" height="64" fill="white"/>
</clipPath>
</defs>
</svg>
