<svg width="64" height="64" viewBox="0 0 64 64" fill="none" xmlns="http://www.w3.org/2000/svg">
<g clip-path="url(#clip0_117_35)">
<g opacity="0.3">
<path d="M61.2413 35.3101C60.1218 35.3101 59.4421 36.2101 59.4421 37.2201C59.4421 41.5201 55.8538 46.0701 51.126 46.0701C42.3601 46.0701 43.8394 38.5001 31.985 38.5001C20.1306 38.5001 21.6099 46.0701 12.844 46.0701C8.10619 46.0701 4.52787 41.5201 4.52787 37.2201C4.52787 36.2201 3.84819 35.3101 2.72871 35.3101C1.38934 35.3101 0.8396 36.3601 0.8396 37.2201V37.6601C0.8396 45.8601 7.86631 51.2501 13.6636 51.2501C18.6812 51.2501 21.4999 48.4801 21.4999 48.4801V62.9901H42.4901V48.4801C42.4901 48.4801 45.3088 51.2501 50.3264 51.2501C56.1237 51.2501 63.1504 45.8601 63.1504 37.6601V37.2201C63.1504 36.3701 62.6007 35.3101 61.2613 35.3101H61.2413Z" fill="#231F20"/>
</g>
<g opacity="0.3">
<path d="M31.985 29C35.5732 29 38.4819 26.0899 38.4819 22.5C38.4819 18.9101 35.5732 16 31.985 16C28.3968 16 25.488 18.9101 25.488 22.5C25.488 26.0899 28.3968 29 31.985 29Z" fill="#231F20"/>
</g>
<path d="M31.985 31C26.4776 31 21.9897 26.51 21.9897 21C21.9897 15.49 26.4776 11 31.985 11C37.4924 11 41.9803 15.49 41.9803 21C41.9803 26.51 37.4924 31 31.985 31ZM31.985 12C27.0273 12 22.9892 16.04 22.9892 21C22.9892 25.96 27.0273 30 31.985 30C36.9427 30 40.9808 25.96 40.9808 21C40.9808 16.04 36.9427 12 31.985 12Z" fill="white"/>
<path d="M43.0098 63H42.0103V47.29L42.8599 48.12C42.8599 48.12 45.5886 50.75 50.3464 50.75C56.5635 50.75 63.0005 45.55 63.0005 36.85V36.43C63.0005 34.79 61.6711 33.46 60.0319 33.46C58.3926 33.46 57.0033 34.79 57.0033 36.43V37.2C57.0033 39.83 54.9742 42.59 52.5654 43.22C49.9566 43.91 47.3178 42.94 45.8485 40.76C45.3687 40.09 44.819 39.44 44.2293 38.85L44.9389 38.14C45.5686 38.77 46.1484 39.46 46.6681 40.19C47.9076 42.03 50.1265 42.84 52.3155 42.26C54.2846 41.74 56.0138 39.38 56.0138 37.2V36.43C56.0138 34.24 57.7929 32.46 59.9819 32.46C62.1709 32.46 64.01 34.24 64.01 36.43V36.85C64.01 46.18 57.0633 51.75 50.3564 51.75C46.7381 51.75 44.2393 50.39 43.0198 49.52V62.99L43.0098 63Z" fill="white"/>
<path d="M41.9603 36.98C39.1216 35.06 35.6733 34.04 31.985 34.04C28.2967 34.04 24.9183 35.06 22.0796 36.98L21.5199 36.15C24.5285 34.11 28.1468 33.04 31.985 33.04C35.8232 33.04 39.5115 34.12 42.5201 36.15L41.9603 36.98Z" fill="white"/>
<path d="M22.0197 63H21.0202V49.53C19.8007 50.39 17.3019 51.76 13.6836 51.76C6.97674 51.76 0.0299988 46.18 0.0299988 36.85V36.43C0.0299988 34.24 1.80916 32.46 3.99814 32.46C6.18711 32.46 8.02625 34.24 8.02625 36.43V37.2C8.02625 39.37 9.75544 41.74 11.7245 42.26C13.9135 42.84 16.1325 42.03 17.3619 40.21C17.8916 39.47 18.4714 38.78 19.1011 38.15L19.8107 38.86C19.221 39.45 18.6713 40.1 18.1815 40.78C16.7122 42.95 14.0734 43.91 11.4646 43.23C9.05577 42.59 7.02672 39.83 7.02672 37.21V36.44C7.02672 34.8 5.69734 33.47 4.05811 33.47C2.41888 33.47 1.02953 34.8 1.02953 36.44V36.86C1.02953 45.56 7.46651 50.76 13.6836 50.76C18.4614 50.76 21.1401 48.16 21.1701 48.13L22.0197 47.29V63V63Z" fill="white"/>
<path d="M60.0019 33H59.0023V3H5.02764V33H4.02811V2H60.0019V33Z" fill="white"/>
<path d="M56.3236 38H7.69638V39H56.3236V38Z" fill="white"/>
<path d="M35.5033 21.0001L29.9859 24.1901V17.8101L35.5033 21.0001Z" fill="white"/>
</g>
<defs>
<clipPath id="clip0_117_35">
<rect width="64" height="64" fill="white"/>
</clipPath>
</defs>
</svg>
