<svg width="64" height="64" viewBox="0 0 64 64" fill="none" xmlns="http://www.w3.org/2000/svg">
<path opacity="0.3" d="M33.5279 39.186C32.3136 41.129 30.6251 42.7312 28.6211 43.8419C26.6171 44.9526 24.3635 45.5354 22.0723 45.5354C19.781 45.5354 17.5275 44.9526 15.5235 43.8419C13.5195 42.7312 11.8309 41.129 10.6166 39.186H0.5V53.5719H43.6446V39.186H33.5279Z" fill="#231F20"/>
<path opacity="0.3" d="M63.5 39.711V53.047L49.156 42.813V35.562L63.5 39.711Z" fill="#231F20"/>
<path opacity="0.3" d="M27.931 31.9999L23.534 34.5389L19.137 37.0769V31.9999V26.9229L23.534 29.4609L27.931 31.9999Z" fill="#231F20"/>
<path d="M44.1445 54.0723H0V9.92773H44.1445V54.0723ZM1 53.0723H43.1445V10.9277H1V53.0723Z" fill="white"/>
<path d="M64 54.0186L48.6562 43.0698V20.9302L64 9.98145V54.0186ZM49.6562 42.5552L63 52.0762V11.9238L49.6562 21.4448V42.5552Z" fill="white"/>
<path d="M22.0723 46.0357C19.2963 46.0357 16.5826 45.2125 14.2745 43.6702C11.9663 42.128 10.1673 39.9359 9.105 37.3712C8.04267 34.8065 7.76472 31.9844 8.30629 29.2618C8.84785 26.5391 10.1846 24.0382 12.1475 22.0753C14.1105 20.1124 16.6114 18.7756 19.334 18.2341C22.0567 17.6925 24.8788 17.9704 27.4435 19.0328C30.0081 20.0951 32.2002 21.8941 33.7425 24.2022C35.2847 26.5104 36.1079 29.224 36.1079 32C36.1037 35.7212 34.6236 39.2888 31.9923 41.9201C29.361 44.5513 25.7934 46.0314 22.0723 46.0357V46.0357ZM22.0723 18.9644C19.494 18.9644 16.9737 19.7289 14.83 21.1613C12.6863 22.5936 11.0155 24.6295 10.0289 27.0115C9.04224 29.3934 8.78409 32.0145 9.28707 34.5431C9.79006 37.0718 11.0316 39.3945 12.8547 41.2176C14.6777 43.0407 17.0005 44.2822 19.5291 44.7852C22.0578 45.2882 24.6788 45.03 27.0608 44.0434C29.4427 43.0568 31.4786 41.3859 32.911 39.2422C34.3434 37.0985 35.1079 34.5782 35.1079 32C35.104 28.5439 33.7294 25.2305 31.2856 22.7867C28.8418 20.3429 25.5283 18.9682 22.0723 18.9644V18.9644Z" fill="white"/>
<path d="M18.6367 37.9438V26.0562L28.9311 32L18.6367 37.9438ZM19.6367 27.7886V36.2114L26.9311 32L19.6367 27.7886Z" fill="white"/>
</svg>
