<svg width="64" height="64" viewBox="0 0 64 64" fill="none" xmlns="http://www.w3.org/2000/svg">
<g clip-path="url(#clip0_117_50)">
<g opacity="0.15">
<path d="M32 31.5C37.799 31.5 42.5 26.799 42.5 21C42.5 15.201 37.799 10.5 32 10.5C26.201 10.5 21.5 15.201 21.5 21C21.5 26.799 26.201 31.5 32 31.5Z" fill="#183A9E"/>
</g>
<g opacity="0.15">
<path d="M32 35.5C23.15 35.5 15.54 40.85 12.25 48.5L19 49H22.5V48.5H26.5L29.22 46.12L30.26 42.19C30.37 41.79 30.73 41.5 31.15 41.5H31.36C32.54 41.5 33.5 42.46 33.5 43.65V48.5H39.76C40.3 48.5 40.8 48.69 41.2 49H45L51.75 48.5C48.46 40.85 40.85 35.5 32 35.5V35.5Z" fill="#183A9E"/>
</g>
<path d="M32 32C25.93 32 21 27.07 21 21C21 14.93 25.93 10 32 10C38.07 10 43 14.93 43 21C43 27.07 38.07 32 32 32ZM32 11C26.49 11 22 15.49 22 21C22 26.51 26.49 31 32 31C37.51 31 42 26.51 42 21C42 15.49 37.51 11 32 11Z" fill="#024FD6"/>
<path d="M51.3 48.7C47.98 40.99 40.4 36 32 36C23.6 36 16.03 40.98 12.7 48.7L11.78 48.3C15.26 40.22 23.2 35 31.99 35C40.78 35 48.72 40.22 52.2 48.3L51.28 48.7H51.3Z" fill="#024FD6"/>
<path d="M61.5 49H45V48H61.5C62.33 48 63 47.33 63 46.5V7.5C63 6.67 62.33 6 61.5 6H2.5C1.67 6 1 6.67 1 7.5V46.5C1 47.33 1.67 48 2.5 48H19V49H2.5C1.12 49 0 47.88 0 46.5V7.5C0 6.12 1.12 5 2.5 5H61.5C62.88 5 64 6.12 64 7.5V46.5C64 47.88 62.88 49 61.5 49Z" fill="#024FD6"/>
<path d="M36.65 20.9999L29.5 25.5599V16.4399L36.65 20.9999Z" fill="#024FD6"/>
<path d="M37.62 62L30.71 61.96C30.56 61.9 27.06 60.44 25.68 59H22V48H26.31L28.78 45.84L29.78 42.06C29.94 41.44 30.51 41 31.15 41H31.36C32.82 41 34 42.19 34 43.65V48H39.76C41.18 48 42.4 49.07 42.55 50.43C42.63 51.2 42.38 51.96 41.88 52.52C42.12 52.93 42.25 53.4 42.25 53.89C42.25 54.73 41.86 55.52 41.2 56.03C41.26 56.26 41.29 56.5 41.29 56.74C41.29 57.56 40.93 58.32 40.3 58.83C40.32 58.98 40.34 59.12 40.34 59.27C40.34 60.77 39.12 61.99 37.62 61.99V62ZM31 61H37.62C38.57 61 39.34 60.23 39.34 59.28C39.34 59.11 39.31 58.94 39.26 58.77L39.15 58.4L39.48 58.2C39.99 57.88 40.29 57.34 40.29 56.74C40.29 56.5 40.24 56.26 40.14 56.04L39.95 55.62L40.35 55.4C40.9 55.1 41.24 54.52 41.24 53.89C41.24 53.48 41.1 53.09 40.83 52.78L40.5 52.39L40.9 52.07C41.36 51.7 41.6 51.13 41.54 50.54C41.45 49.68 40.66 49.01 39.75 49.01H32.99V43.66C32.99 42.75 32.25 42.01 31.35 42.01H31.14C30.95 42.01 30.79 42.14 30.74 42.32L29.66 46.4L26.68 49.01H22.99V58.01H26.13L26.28 58.19C27.16 59.24 29.9 60.55 31 61.01V61Z" fill="#204ECF"/>
</g>
<defs>
<clipPath id="clip0_117_50">
<rect width="64" height="64" fill="white"/>
</clipPath>
</defs>
</svg>
