<svg width="64" height="64" viewBox="0 0 64 64" fill="none" xmlns="http://www.w3.org/2000/svg">
<g clip-path="url(#clip0_20_5040)">
<path opacity="0.3" d="M10.2191 53.7808C7.64135 53.7808 5.16922 54.8048 3.3465 56.6275C1.52379 58.4503 0.499804 60.9224 0.499817 63.5001H19.9384C19.9384 62.2238 19.6871 60.9599 19.1986 59.7807C18.7102 58.6015 17.9942 57.53 17.0917 56.6275C16.1892 55.725 15.1177 55.009 13.9385 54.5206C12.7593 54.0322 11.4954 53.7808 10.2191 53.7808V53.7808Z" fill="#231F20"/>
<path opacity="0.3" d="M10.2193 53.7805C12.8779 53.7805 15.0331 51.6252 15.0331 48.9666C15.0331 46.308 12.8779 44.1528 10.2193 44.1528C7.56073 44.1528 5.40552 46.308 5.40552 48.9666C5.40552 51.6252 7.56073 53.7805 10.2193 53.7805Z" fill="#231F20"/>
<path opacity="0.3" d="M53.7807 10.1276C56.4393 10.1276 58.5945 7.9724 58.5945 5.31381C58.5945 2.65522 56.4393 0.5 53.7807 0.5C51.1221 0.5 48.9669 2.65522 48.9669 5.31381C48.9669 7.9724 51.1221 10.1276 53.7807 10.1276Z" fill="#231F20"/>
<path opacity="0.3" d="M53.7807 10.1274C51.203 10.1275 48.7308 11.1515 46.9081 12.9742C45.0854 14.7969 44.0614 17.2691 44.0614 19.8468H63.5C63.5 18.5704 63.2486 17.3066 62.7602 16.1273C62.2717 14.9481 61.5558 13.8767 60.6533 12.9742C59.7508 12.0716 58.6793 11.3557 57.5001 10.8673C56.3209 10.3788 55.057 10.1274 53.7807 10.1274V10.1274Z" fill="#231F20"/>
<path d="M20.4385 63.5H19.4385C19.4385 61.0549 18.4672 58.71 16.7382 56.981C15.0093 55.2521 12.6643 54.2808 10.2192 54.2808C7.77415 54.2808 5.4292 55.2521 3.70025 56.981C1.97131 58.71 1 61.0549 1 63.5H0C4.03868e-08 60.7897 1.07667 58.1904 2.99315 56.2739C4.90963 54.3574 7.50893 53.2808 10.2192 53.2808C12.9296 53.2808 15.5289 54.3574 17.4453 56.2739C19.3618 58.1904 20.4385 60.7897 20.4385 63.5V63.5Z" fill="white"/>
<path d="M10.2192 54.2808C9.16821 54.2808 8.1408 53.9692 7.26691 53.3853C6.39303 52.8014 5.71192 51.9714 5.30972 51.0004C4.90751 50.0294 4.80228 48.9609 5.00732 47.9301C5.21236 46.8993 5.71847 45.9524 6.46165 45.2093C7.20483 44.4661 8.15169 43.96 9.18251 43.7549C10.2133 43.5499 11.2818 43.6551 12.2528 44.0573C13.2238 44.4595 14.0537 45.1407 14.6376 46.0145C15.2216 46.8884 15.5332 47.9158 15.5332 48.9668C15.5317 50.3757 14.9713 51.7265 13.9751 52.7227C12.9788 53.7189 11.6281 54.2793 10.2192 54.2808V54.2808ZM10.2192 44.6529C9.36599 44.6529 8.53192 44.9059 7.82248 45.3799C7.11305 45.854 6.56011 46.5277 6.2336 47.316C5.90708 48.1043 5.82165 48.9717 5.98811 49.8085C6.15456 50.6454 6.56543 51.414 7.16876 52.0174C7.77208 52.6207 8.54076 53.0316 9.3776 53.198C10.2144 53.3645 11.0818 53.279 11.8701 52.9525C12.6584 52.626 13.3321 52.0731 13.8062 51.3636C14.2802 50.6542 14.5332 49.8201 14.5332 48.9669C14.532 47.8231 14.0771 46.7265 13.2684 45.9178C12.4596 45.109 11.363 44.6541 10.2192 44.6529V44.6529Z" fill="white"/>
<path d="M53.7808 54.2808C52.7297 54.2809 51.7023 53.9694 50.8283 53.3855C49.9544 52.8017 49.2732 51.9718 48.8709 51.0008C48.4686 50.0298 48.3633 48.9613 48.5683 47.9304C48.7733 46.8996 49.2793 45.9527 50.0225 45.2095C50.7657 44.4662 51.7125 43.9601 52.7434 43.755C53.7742 43.5499 54.8427 43.6551 55.8137 44.0573C56.7847 44.4595 57.6147 45.1406 58.1986 46.0145C58.7826 46.8884 59.0942 47.9158 59.0942 48.9668C59.0927 50.3756 58.5324 51.7263 57.5363 52.7225C56.5402 53.7187 55.1896 54.2791 53.7808 54.2808V54.2808ZM53.7808 44.6529C52.9275 44.6528 52.0934 44.9057 51.3839 45.3797C50.6744 45.8537 50.1214 46.5274 49.7948 47.3156C49.4682 48.1039 49.3827 48.9713 49.5491 49.8082C49.7155 50.6451 50.1263 51.4138 50.7296 52.0172C51.3329 52.6206 52.1016 53.0315 52.9384 53.198C53.7753 53.3645 54.6427 53.2791 55.431 52.9526C56.2193 52.6261 56.8931 52.0731 57.3672 51.3637C57.8412 50.6542 58.0942 49.8202 58.0942 48.9669C58.093 47.8232 57.6382 46.7267 56.8295 45.918C56.0209 45.1092 54.9245 44.6543 53.7808 44.6529V44.6529Z" fill="white"/>
<path d="M64 63.5H63C63 61.0549 62.0287 58.71 60.2998 56.981C58.5708 55.2521 56.2259 54.2808 53.7808 54.2808C51.3357 54.2808 48.9907 55.2521 47.2618 56.981C45.5328 58.71 44.5615 61.0549 44.5615 63.5H43.5615C43.5615 60.7897 44.6382 58.1904 46.5547 56.2739C48.4711 54.3574 51.0705 53.2808 53.7808 53.2808C56.4911 53.2808 59.0904 54.3574 61.0069 56.2739C62.9233 58.1904 64 60.7897 64 63.5V63.5Z" fill="white"/>
<path d="M10.2192 10.6274C9.16829 10.6274 8.14095 10.3157 7.26714 9.73178C6.39332 9.14786 5.71229 8.31794 5.31015 7.34696C4.90801 6.37599 4.80283 5.30757 5.00792 4.27682C5.213 3.24606 5.71913 2.29927 6.4623 1.55617C7.20548 0.813069 8.15232 0.307032 9.18309 0.102052C10.2139 -0.102928 11.2823 0.00235569 12.2532 0.404589C13.2241 0.806821 14.054 1.48794 14.6378 2.36181C15.2217 3.23567 15.5333 4.26305 15.5332 5.314C15.5315 6.72279 14.9711 8.0734 13.9749 9.06952C12.9787 10.0656 11.628 10.6259 10.2192 10.6274V10.6274ZM10.2192 1C9.3661 1.00006 8.53212 1.25309 7.82278 1.72711C7.11343 2.20113 6.56057 2.87484 6.23411 3.66306C5.90765 4.45128 5.82225 5.3186 5.9887 6.15536C6.15516 6.99211 6.566 7.76072 7.16926 8.36398C7.77253 8.96725 8.54114 9.37809 9.37789 9.54454C10.2146 9.711 11.082 9.62559 11.8702 9.29913C12.6584 8.97267 13.3321 8.41982 13.8061 7.71047C14.2802 7.00113 14.5332 6.16715 14.5332 5.314C14.532 4.17023 14.0772 3.07364 13.2684 2.26487C12.4596 1.45609 11.363 1.0012 10.2192 1V1Z" fill="white"/>
<path d="M20.4385 19.8472H19.4385C19.4385 18.6365 19.2 17.4377 18.7367 16.3191C18.2734 15.2006 17.5943 14.1843 16.7382 13.3282C15.8821 12.4721 14.8658 11.793 13.7473 11.3297C12.6288 10.8664 11.4299 10.6279 10.2192 10.6279C9.00855 10.6279 7.80972 10.8664 6.69119 11.3297C5.57266 11.793 4.55634 12.4721 3.70025 13.3282C2.84417 14.1843 2.16508 15.2006 1.70177 16.3191C1.23846 17.4377 1 18.6365 1 19.8472H0C-1.99975e-08 18.5052 0.264328 17.1763 0.777893 15.9364C1.29146 14.6966 2.0442 13.57 2.99315 12.6211C3.94209 11.6721 5.06865 10.9194 6.30851 10.4058C7.54836 9.89226 8.87723 9.62793 10.2192 9.62793C11.5612 9.62793 12.8901 9.89226 14.13 10.4058C15.3698 10.9194 16.4964 11.6721 17.4453 12.6211C18.3943 13.57 19.147 14.6966 19.6606 15.9364C20.1742 17.1763 20.4385 18.5052 20.4385 19.8472V19.8472Z" fill="white"/>
<path d="M53.7808 10.6274C52.7298 10.6275 51.7024 10.3159 50.8285 9.73202C49.9546 9.14815 49.2735 8.31826 48.8713 7.3473C48.4691 6.37633 48.3639 5.3079 48.5689 4.27711C48.7739 3.24633 49.28 2.29949 50.0232 1.55634C50.7663 0.813191 51.7132 0.307106 52.7439 0.102087C53.7747 -0.102931 54.8432 0.0023239 55.8141 0.404543C56.7851 0.806761 57.615 1.48788 58.1988 2.36176C58.7827 3.23564 59.0943 4.26303 59.0942 5.314C59.0925 6.7227 58.5322 8.07322 57.5361 9.06932C56.54 10.0654 55.1895 10.6258 53.7808 10.6274V10.6274ZM53.7808 1C52.9276 0.999955 52.0936 1.2529 51.3841 1.72686C50.6747 2.20082 50.1218 2.87449 49.7953 3.6627C49.4687 4.45091 49.3832 5.31825 49.5496 6.15504C49.716 6.99183 50.1268 7.76048 50.7301 8.3638C51.3333 8.96712 52.1019 9.37801 52.9387 9.5445C53.7755 9.711 54.6428 9.62563 55.4311 9.29918C56.2193 8.97274 56.8931 8.41988 57.3671 7.71053C57.8411 7.00117 58.0942 6.16717 58.0942 5.314C58.093 4.17032 57.6382 3.07383 56.8295 2.26508C56.0209 1.45633 54.9244 1.00136 53.7808 1V1Z" fill="white"/>
<path d="M64 19.8472H63C63 17.4021 62.0287 15.0571 60.2998 13.3282C58.5708 11.5992 56.2259 10.6279 53.7808 10.6279C51.3357 10.6279 48.9907 11.5992 47.2618 13.3282C45.5328 15.0571 44.5615 17.4021 44.5615 19.8472H43.5615C43.5615 17.1369 44.6382 14.5376 46.5547 12.6211C48.4711 10.7046 51.0705 9.62793 53.7808 9.62793C56.4911 9.62793 59.0904 10.7046 61.0069 12.6211C62.9233 14.5376 64 17.1369 64 19.8472V19.8472Z" fill="white"/>
<path d="M25.8125 52.3828H21.6875V53.3828H25.8125V52.3828Z" fill="white"/>
<path d="M34.0625 52.3828H29.9375V53.3828H34.0625V52.3828Z" fill="white"/>
<path d="M42.3125 52.3828H38.1875V53.3828H42.3125V52.3828Z" fill="white"/>
<path d="M25.8125 10.6172H21.6875V11.6172H25.8125V10.6172Z" fill="white"/>
<path d="M34.0625 10.6172H29.9375V11.6172H34.0625V10.6172Z" fill="white"/>
<path d="M42.3125 10.6172H38.1875V11.6172H42.3125V10.6172Z" fill="white"/>
<path d="M10.7192 24.7261H9.71924V28.8511H10.7192V24.7261Z" fill="white"/>
<path d="M10.7192 32.9761H9.71924V37.1011H10.7192V32.9761Z" fill="white"/>
<path d="M54.2808 24.7261H53.2808V28.8511H54.2808V24.7261Z" fill="white"/>
<path d="M54.2808 32.9761H53.2808V37.1011H54.2808V32.9761Z" fill="white"/>
</g>
<defs>
<clipPath id="clip0_20_5040">
<rect width="64" height="64" fill="white"/>
</clipPath>
</defs>
</svg>
