<svg width="64" height="64" viewBox="0 0 64 64" fill="none" xmlns="http://www.w3.org/2000/svg">
<g clip-path="url(#clip0_20_4641)">
<path opacity="0.15" d="M21.0671 47.7126C21.848 47.7126 22.6113 47.481 23.2606 47.0472C23.9099 46.6134 24.4159 45.9968 24.7148 45.2754C25.0136 44.554 25.0918 43.7601 24.9394 42.9943C24.7871 42.2284 24.4111 41.5249 23.8589 40.9728C23.3068 40.4206 22.6033 40.0446 21.8374 39.8923C21.0716 39.7399 20.2777 39.8181 19.5563 40.117C18.8349 40.4158 18.2183 40.9218 17.7845 41.5711C17.3507 42.2204 17.1191 42.9837 17.1191 43.7646C17.1192 44.8116 17.5351 45.8158 18.2755 46.5562C19.0159 47.2966 20.0201 47.7125 21.0671 47.7126V47.7126Z" fill="#183A9E"/>
<path opacity="0.15" d="M21.0671 47.7124C20.0203 47.7124 18.9837 47.9186 18.0166 48.3192C17.0494 48.7198 16.1707 49.307 15.4305 50.0472C14.6903 50.7874 14.1031 51.6662 13.7025 52.6333C13.3019 53.6005 13.0958 54.6371 13.0958 55.6839H29.0385C29.0385 54.637 28.8324 53.6005 28.4318 52.6333C28.0312 51.6662 27.444 50.7874 26.7038 50.0472C25.9636 49.307 25.0848 48.7198 24.1177 48.3192C23.1505 47.9186 22.1139 47.7124 21.0671 47.7124V47.7124Z" fill="#183A9E"/>
<path opacity="0.15" d="M47.3159 6.46143H16.684C15.7889 6.46143 14.9305 6.817 14.2975 7.44994C13.6646 8.08288 13.309 8.94132 13.309 9.83643V22.6639C13.309 23.559 13.6646 24.4175 14.2975 25.0504C14.9305 25.6833 15.7889 26.0389 16.684 26.0389H47.3159C47.7591 26.0389 48.198 25.9517 48.6075 25.782C49.017 25.6124 49.389 25.3638 49.7024 25.0504C50.0158 24.737 50.2644 24.365 50.4341 23.9555C50.6037 23.546 50.6909 23.1071 50.6909 22.6639V9.83642C50.6909 9.3932 50.6037 8.95433 50.4341 8.54485C50.2644 8.13537 50.0158 7.76331 49.7024 7.44991C49.389 7.13651 49.017 6.88791 48.6075 6.7183C48.198 6.5487 47.7591 6.46141 47.3159 6.46143ZM44.4603 19.6785H35.3094V12.8219H44.4603V19.6785Z" fill="#183A9E"/>
<path d="M57.7266 32.5H6.27344V0H57.7266V32.5ZM7.27344 31.5H56.7266V1H7.27344V31.5Z" fill="#204ECF"/>
<path d="M57.727 64H6.27301V32H7.27301V63H56.727V32H57.727V64Z" fill="#204ECF"/>
<path d="M21.0674 48.2124C20.1877 48.2125 19.3277 47.9516 18.5962 47.4629C17.8647 46.9742 17.2945 46.2796 16.9578 45.4668C16.6211 44.6541 16.533 43.7597 16.7046 42.8969C16.8761 42.0341 17.2997 41.2415 17.9218 40.6194C18.5438 39.9973 19.3363 39.5736 20.1991 39.4019C21.062 39.2302 21.9563 39.3183 22.7691 39.6549C23.5819 39.9915 24.2766 40.5616 24.7654 41.293C25.2542 42.0245 25.5151 42.8844 25.5151 43.7642C25.5138 44.9434 25.0447 46.074 24.2109 46.9078C23.3771 47.7417 22.2466 48.2109 21.0674 48.2124V48.2124ZM21.0674 40.3164C20.3854 40.3164 19.7188 40.5185 19.1517 40.8974C18.5846 41.2762 18.1427 41.8148 17.8817 42.4448C17.6207 43.0749 17.5523 43.7681 17.6854 44.437C17.8184 45.1059 18.1468 45.7203 18.629 46.2025C19.1113 46.6847 19.7257 47.0131 20.3945 47.1462C21.0634 47.2792 21.7567 47.2109 22.3868 46.9499C23.0168 46.6889 23.5553 46.2469 23.9342 45.6799C24.313 45.1128 24.5152 44.4461 24.5151 43.7642C24.514 42.8501 24.1504 41.9738 23.5041 41.3275C22.8577 40.6812 21.9814 40.3175 21.0674 40.3164V40.3164Z" fill="#204ECF"/>
<path d="M29.5386 55.6839H28.5386C28.5363 53.7039 27.7481 51.8057 26.3472 50.4064C24.9463 49.0071 23.0472 48.2211 21.0671 48.2211C19.0871 48.2211 17.188 49.0071 15.7871 50.4064C14.3862 51.8057 13.598 53.7039 13.5957 55.6839H12.5957C12.5981 53.4387 13.4917 51.2864 15.0802 49.6997C16.6686 48.1129 18.822 47.2217 21.0671 47.2217C23.3123 47.2217 25.4657 48.1129 27.0541 49.6997C28.6425 51.2864 29.5361 53.4387 29.5386 55.6839V55.6839Z" fill="#204ECF"/>
<path d="M50.6909 40.4321H35.3608V41.4321H50.6909V40.4321Z" fill="#204ECF"/>
<path d="M50.6909 47.2891H35.3608V48.2891H50.6909V47.2891Z" fill="#204ECF"/>
<path d="M41.3965 54.0679H35.3608V55.0679H41.3965V54.0679Z" fill="#204ECF"/>
<path d="M28.6904 12.3218H18.4536V13.3218H28.6904V12.3218Z" fill="#204ECF"/>
<path d="M23.2598 19.1782H18.4536V20.1782H23.2598V19.1782Z" fill="#204ECF"/>
<path d="M44.9604 20.1782H34.8091V12.3218H44.9604V20.1782ZM35.8091 19.1782H43.9604V13.3218H35.8091V19.1782Z" fill="#204ECF"/>
</g>
<defs>
<clipPath id="clip0_20_4641">
<rect width="64" height="64.0001" fill="white"/>
</clipPath>
</defs>
</svg>
