<svg width="64" height="64" viewBox="0 0 64 64" fill="none" xmlns="http://www.w3.org/2000/svg">
<g clip-path="url(#clip0_1187_2152)">
<path opacity="0.15" d="M1.03003 52.8901V59.8901C1.03003 61.0501 1.97003 62.0001 3.14003 62.0001H62.03V56.0001H3.76003C2.25003 56.0001 1.03003 54.6101 1.03003 52.8901Z" fill="#183A9C"/>
<path opacity="0.15" d="M53.03 46.5C55.5153 46.5 57.53 44.4853 57.53 42C57.53 39.5147 55.5153 37.5 53.03 37.5C50.5447 37.5 48.53 39.5147 48.53 42C48.53 44.4853 50.5447 46.5 53.03 46.5Z" fill="#183A9C"/>
<path opacity="0.15" d="M46.03 0.819824L2.08004 16.8198C-0.449959 17.7498 0.220041 21.4998 2.91004 21.4998H46.03V0.819824Z" fill="#183A9C"/>
<path d="M53.03 46.5C55.5153 46.5 57.53 44.4853 57.53 42C57.53 39.5147 55.5153 37.5 53.03 37.5C50.5447 37.5 48.53 39.5147 48.53 42C48.53 44.4853 50.5447 46.5 53.03 46.5Z" stroke="#204ECD" stroke-miterlimit="10"/>
<path d="M45.53 17.9998V0.819824L2.08004 16.8198C-0.449959 17.7498 0.220041 21.4998 2.91004 21.4998H62.53V62.4998H3.25004C1.75004 62.4998 0.530041 61.2798 0.530041 59.7798V19.3198" stroke="#204ECD" stroke-miterlimit="10"/>
<path d="M45.53 10.6602L16.1 21.5002" stroke="#204ECD" stroke-miterlimit="10"/>
</g>
<defs>
<clipPath id="clip0_1187_2152">
<rect width="64" height="64" fill="white"/>
</clipPath>
</defs>
</svg>
