<svg width="64" height="64" viewBox="0 0 64 64" fill="none" xmlns="http://www.w3.org/2000/svg">
<g clip-path="url(#clip0_20_5091)">
<path opacity="0.3" d="M31.978 48.2932C40.9764 48.2932 48.2711 40.9985 48.2711 32.0001C48.2711 23.0017 40.9764 15.707 31.978 15.707C22.9796 15.707 15.6849 23.0017 15.6849 32.0001C15.6849 40.9985 22.9796 48.2932 31.978 48.2932Z" fill="#231F20"/>
<path d="M39.666 32.4998H31.771L20.113 20.8198L20.821 20.1138L32.186 31.4998H39.666V32.4998Z" fill="white"/>
<path d="M45.9517 55.2812H18.0044L11.6831 40.1665L11.687 40.1645C9.57829 34.9257 9.57829 29.0742 11.687 23.8354L11.6865 23.8349L11.874 23.3764L18.0044 8.71875H45.9517L52.273 23.8335L52.2691 23.8355C54.3785 29.0742 54.3785 34.9259 52.2691 40.1646L52.2696 40.1651L52.0821 40.6236L45.9517 55.2812ZM18.6704 54.2812H45.2856L50.9683 40.6948L50.9634 40.6928L51.1577 40.2314C52.2749 37.6309 52.8511 34.8303 52.8511 32C52.8511 29.1696 52.2749 26.369 51.1577 23.7685L50.96 23.3085L50.9683 23.3051L45.2856 9.71875H18.6704L12.9878 23.3052L12.9927 23.3072L12.7983 23.7686C11.6814 26.3692 11.1055 29.1698 11.1055 32C11.1055 34.8303 11.6814 37.6309 12.7983 40.2315L12.9961 40.6915L12.9878 40.6949L18.6704 54.2812Z" fill="white"/>
<path d="M46.119 9.219H45.119V1H18.837V9.219H17.837V0H46.119V9.219Z" fill="white"/>
<path d="M46.119 63.9998H17.837V54.7808H18.837V62.9998H45.119V54.7808H46.119V63.9998Z" fill="white"/>
<path d="M53.3496 36.3438H53.1855V35.3438H53.3496C54.2364 35.3438 55.0869 34.9915 55.714 34.3644C56.3411 33.7373 56.6934 32.8868 56.6934 32C56.6934 31.1132 56.3411 30.2627 55.714 29.6356C55.0869 29.0085 54.2364 28.6562 53.3496 28.6562H53.1855V27.6562H53.3496C54.5016 27.6563 55.6065 28.1139 56.4211 28.9285C57.2357 29.7431 57.6934 30.848 57.6934 32C57.6934 33.152 57.2357 34.2569 56.4211 35.0715C55.6065 35.8861 54.5016 36.3438 53.3496 36.3438Z" fill="white"/>
<path d="M18.1304 2.25H0V3.25H18.1304V2.25Z" fill="white"/>
<path d="M18.1304 60.75H0V61.75H18.1304V60.75Z" fill="white"/>
<path d="M64 2.25H45.8696V3.25H64V2.25Z" fill="white"/>
<path d="M64 60.75H45.8696V61.75H64V60.75Z" fill="white"/>
</g>
<defs>
<clipPath id="clip0_20_5091">
<rect width="64" height="64" fill="white"/>
</clipPath>
</defs>
</svg>
