<svg width="64" height="64" viewBox="0 0 64 64" fill="none" xmlns="http://www.w3.org/2000/svg">
<g clip-path="url(#clip0_1187_2160)">
<path opacity="0.3" d="M50 55H13V60H50V55Z" fill="black"/>
<path d="M62.5 3.5H0.5V54.5H62.5V3.5Z" stroke="white" stroke-miterlimit="10"/>
<path d="M19 23L10.5 31.5L19 40" stroke="white" stroke-miterlimit="10"/>
<path d="M44 40L52.5 31.5L44 23" stroke="white" stroke-miterlimit="10"/>
<path d="M24 46L39 17" stroke="white" stroke-miterlimit="10"/>
<path d="M13 60.5H50" stroke="white" stroke-miterlimit="10"/>
<path opacity="0.3" d="M1 4V11H62V4H1ZM4.5 9C3.67 9 3 8.33 3 7.5C3 6.67 3.67 6 4.5 6C5.33 6 6 6.67 6 7.5C6 8.33 5.33 9 4.5 9ZM9.5 9C8.67 9 8 8.33 8 7.5C8 6.67 8.67 6 9.5 6C10.33 6 11 6.67 11 7.5C11 8.33 10.33 9 9.5 9ZM14.5 9C13.67 9 13 8.33 13 7.5C13 6.67 13.67 6 14.5 6C15.33 6 16 6.67 16 7.5C16 8.33 15.33 9 14.5 9Z" fill="black"/>
</g>
<defs>
<clipPath id="clip0_1187_2160">
<rect width="64" height="64" fill="white"/>
</clipPath>
</defs>
</svg>
