<svg width="64" height="64" viewBox="0 0 64 64" fill="none" xmlns="http://www.w3.org/2000/svg">
<g clip-path="url(#clip0_1187_2163)">
<path opacity="0.3" d="M4.5 13C5.32843 13 6 12.3284 6 11.5C6 10.6716 5.32843 10 4.5 10C3.67157 10 3 10.6716 3 11.5C3 12.3284 3.67157 13 4.5 13Z" fill="black"/>
<path opacity="0.3" d="M9.5 13C10.3284 13 11 12.3284 11 11.5C11 10.6716 10.3284 10 9.5 10C8.67157 10 8 10.6716 8 11.5C8 12.3284 8.67157 13 9.5 13Z" fill="black"/>
<path opacity="0.3" d="M14.5 13C15.3284 13 16 12.3284 16 11.5C16 10.6716 15.3284 10 14.5 10C13.6716 10 13 10.6716 13 11.5C13 12.3284 13.6716 13 14.5 13Z" fill="black"/>
<path d="M60.5 7.5H3.5C1.84315 7.5 0.5 8.84315 0.5 10.5V53.5C0.5 55.1569 1.84315 56.5 3.5 56.5H60.5C62.1569 56.5 63.5 55.1569 63.5 53.5V10.5C63.5 8.84315 62.1569 7.5 60.5 7.5Z" stroke="white" stroke-miterlimit="10"/>
<path opacity="0.3" d="M16.3299 43.6602C15.7399 44.7002 16.4899 46.0002 17.6899 46.0002H45.9099C47.1099 46.0002 47.8599 44.7102 47.2699 43.6602L47.0099 43.2002H16.5899L16.3299 43.6602Z" fill="black"/>
<path d="M33.15 18.1298L47.45 44.5698C47.92 45.4398 47.29 46.4998 46.3 46.4998H17.69C16.7 46.4998 16.07 45.4398 16.54 44.5698L30.84 18.1298C31.33 17.2198 32.65 17.2198 33.14 18.1298H33.15Z" stroke="white" stroke-miterlimit="10"/>
<path opacity="0.3" d="M30.31 34.01L29.81 29.98C29.65 28.66 30.67 27.5 32 27.5C33.33 27.5 34.35 28.66 34.19 29.98L33.69 34.01C33.58 34.86 32.86 35.5 32 35.5C31.14 35.5 30.42 34.86 30.31 34.01Z" fill="black"/>
<path opacity="0.3" d="M32 43.5C33.3807 43.5 34.5 42.3807 34.5 41C34.5 39.6193 33.3807 38.5 32 38.5C30.6193 38.5 29.5 39.6193 29.5 41C29.5 42.3807 30.6193 43.5 32 43.5Z" fill="black"/>
<path d="M30.31 34.01L29.81 29.98C29.65 28.66 30.67 27.5 32 27.5C33.33 27.5 34.35 28.66 34.19 29.98L33.69 34.01C33.58 34.86 32.86 35.5 32 35.5C31.14 35.5 30.42 34.86 30.31 34.01Z" stroke="white" stroke-miterlimit="10"/>
<path d="M32 43.5C33.3807 43.5 34.5 42.3807 34.5 41C34.5 39.6193 33.3807 38.5 32 38.5C30.6193 38.5 29.5 39.6193 29.5 41C29.5 42.3807 30.6193 43.5 32 43.5Z" stroke="white" stroke-miterlimit="10"/>
</g>
<defs>
<clipPath id="clip0_1187_2163">
<rect width="64" height="64" fill="white"/>
</clipPath>
</defs>
</svg>
