<svg width="64" height="64" viewBox="0 0 64 64" fill="none" xmlns="http://www.w3.org/2000/svg">
<g clip-path="url(#clip0_1158_1504)">
<path opacity="0.3" d="M4.5 13C5.32843 13 6 12.3284 6 11.5C6 10.6716 5.32843 10 4.5 10C3.67157 10 3 10.6716 3 11.5C3 12.3284 3.67157 13 4.5 13Z" fill="black"/>
<path opacity="0.3" d="M9.5 13C10.3284 13 11 12.3284 11 11.5C11 10.6716 10.3284 10 9.5 10C8.67157 10 8 10.6716 8 11.5C8 12.3284 8.67157 13 9.5 13Z" fill="black"/>
<path opacity="0.3" d="M14.5 13C15.3284 13 16 12.3284 16 11.5C16 10.6716 15.3284 10 14.5 10C13.6716 10 13 10.6716 13 11.5C13 12.3284 13.6716 13 14.5 13Z" fill="black"/>
<path opacity="0.3" d="M58 31.5H52.22C51.08 26.35 46.49 22.5 41 22.5H38.5V27.5H41C43.7 27.5 46.02 29.15 47 31.5H44C42.62 31.5 41.5 32.62 41.5 34C41.5 35.38 42.62 36.5 44 36.5H47C46.02 38.85 43.7 40.5 41 40.5H23C20.3 40.5 17.98 38.85 17 36.5H20C21.38 36.5 22.5 35.38 22.5 34C22.5 32.62 21.38 31.5 20 31.5H17C17.98 29.15 20.3 27.5 23 27.5H25.5V22.5H23C17.51 22.5 12.92 26.35 11.78 31.5H6V36.5H11.78C12.92 41.65 17.51 45.5 23 45.5H41C46.49 45.5 51.08 41.65 52.22 36.5H58V31.5Z" fill="black"/>
<path opacity="0.3" d="M32 35.5C33.3807 35.5 34.5 34.3807 34.5 33C34.5 31.6193 33.3807 30.5 32 30.5C30.6193 30.5 29.5 31.6193 29.5 33C29.5 34.3807 30.6193 35.5 32 35.5Z" fill="black"/>
<path opacity="0.3" d="M32 27.4998C31.15 27.4998 30.45 26.8498 30.38 26.0098L29.71 17.9998C29.6 16.6598 30.66 15.5098 32 15.5098C33.35 15.5098 34.4 16.6598 34.29 17.9998L33.62 26.0098C33.55 26.8498 32.84 27.4998 32 27.4998Z" fill="black"/>
<path d="M60.5 7.5H3.5C1.84315 7.5 0.5 8.84315 0.5 10.5V53.5C0.5 55.1569 1.84315 56.5 3.5 56.5H60.5C62.1569 56.5 63.5 55.1569 63.5 53.5V10.5C63.5 8.84315 62.1569 7.5 60.5 7.5Z" stroke="white" stroke-miterlimit="10"/>
<path d="M47 36.5C46.02 38.85 43.7 40.5 41 40.5H23C20.31 40.5 18 38.86 17.01 36.53" stroke="white" stroke-miterlimit="10"/>
<path d="M52.22 31.46C51.06 26.33 46.48 22.5 41 22.5H38.5V27.5H41C43.66 27.5 45.96 29.1 46.96 31.4" stroke="white" stroke-miterlimit="10"/>
<path d="M11.77 36.5C12.91 41.65 17.5 45.5 23 45.5H41C46.49 45.5 51.09 41.65 52.23 36.5" stroke="white" stroke-miterlimit="10"/>
<path d="M17.01 31.48C17.99 29.14 20.31 27.5 23 27.5H25.5V22.5H23C17.51 22.5 12.91 26.35 11.77 31.5" stroke="white" stroke-miterlimit="10"/>
<path d="M58 36.5H44C42.62 36.5 41.5 35.38 41.5 34C41.5 32.62 42.62 31.5 44 31.5H58" stroke="white" stroke-miterlimit="10"/>
<path d="M6 36.5H20C21.38 36.5 22.5 35.38 22.5 34C22.5 32.62 21.38 31.5 20 31.5H6" stroke="white" stroke-miterlimit="10"/>
<path d="M32 35.5C33.3807 35.5 34.5 34.3807 34.5 33C34.5 31.6193 33.3807 30.5 32 30.5C30.6193 30.5 29.5 31.6193 29.5 33C29.5 34.3807 30.6193 35.5 32 35.5Z" stroke="white" stroke-miterlimit="10"/>
<path d="M32 27.4998C31.15 27.4998 30.45 26.8498 30.38 26.0098L29.71 17.9998C29.6 16.6598 30.66 15.5098 32 15.5098C33.35 15.5098 34.4 16.6598 34.29 17.9998L33.62 26.0098C33.55 26.8498 32.84 27.4998 32 27.4998Z" stroke="white" stroke-miterlimit="10"/>
</g>
<defs>
<clipPath id="clip0_1158_1504">
<rect width="64" height="64" fill="white"/>
</clipPath>
</defs>
</svg>
