<svg width="64" height="64" viewBox="0 0 64 64" fill="none" xmlns="http://www.w3.org/2000/svg">
<g clip-path="url(#clip0_20_4692)">
<path opacity="0.15" d="M32 0.5V35.2456C33.5616 35.2476 35.0585 35.8694 36.1619 36.9743C37.2654 38.0792 37.8852 39.5769 37.8852 41.1385C37.8852 42.7 37.2654 44.1977 36.1619 45.3026C35.0585 46.4075 33.5616 47.0293 32 47.0313V63.5C40.3543 63.5 48.3665 60.1813 54.2739 54.2739C60.1813 48.3665 63.5 40.3543 63.5 32C63.5 23.6457 60.1813 15.6335 54.2739 9.72614C48.3665 3.81874 40.3543 0.5 32 0.5V0.5Z" fill="#183A9E"/>
<path d="M32 47.5279C30.9489 47.5279 29.914 47.2686 28.987 46.7731C28.0599 46.2776 27.2695 45.5611 26.6855 44.687C26.1016 43.813 25.7423 42.8085 25.6393 41.7624C25.5364 40.7163 25.6931 39.661 26.0954 38.6899C26.4978 37.7188 27.1335 36.862 27.9461 36.1953C28.7588 35.5286 29.7233 35.0726 30.7543 34.8677C31.7852 34.6628 32.8508 34.7154 33.8566 35.0207C34.8625 35.3261 35.7774 35.8748 36.5205 36.6182V36.6182C37.415 37.5118 38.0243 38.6507 38.2712 39.8908C38.5181 41.1308 38.3915 42.4163 37.9075 43.5843C37.4235 44.7524 36.6038 45.7506 35.5522 46.4526C34.5006 47.1546 33.2644 47.5288 32 47.5279V47.5279ZM32 35.7486C30.7531 35.7496 29.5451 36.1829 28.5818 36.9746C27.6185 37.7664 26.9596 38.8677 26.7172 40.0908C26.4748 41.3139 26.664 42.5833 27.2526 43.6826C27.8411 44.7818 28.7926 45.643 29.9449 46.1195C31.0972 46.5959 32.3791 46.658 33.5721 46.2953C34.7651 45.9326 35.7954 45.1675 36.4876 44.1303C37.1797 43.0931 37.4908 41.848 37.3679 40.6072C37.245 39.3664 36.6957 38.2065 35.8135 37.3253C35.313 36.8243 34.7184 36.4271 34.064 36.1566C33.4096 35.886 32.7082 35.7474 32 35.7486V35.7486Z" fill="#204ECF"/>
<path d="M52.5723 29.4141L52.3154 28.9849C50.2133 25.4732 47.2368 22.5663 43.6762 20.548C40.1157 18.5297 36.0928 17.4688 32 17.4688C27.9072 17.4688 23.8843 18.5297 20.3238 20.548C16.7633 22.5663 13.7867 25.4732 11.6846 28.9849L11.4277 29.4141L10.5703 28.8999L10.8272 28.4712C13.018 24.8112 16.1201 21.7816 19.8309 19.6781C23.5417 17.5745 27.7344 16.4688 32 16.4688C36.2656 16.4688 40.4583 17.5745 44.1691 19.6781C47.8799 21.7816 50.9821 24.8112 53.1729 28.4712L53.4297 28.8999L52.5723 29.4141Z" fill="#204ECF"/>
<path d="M17.7334 34.9785L16.876 34.4644L17.1328 34.0352C18.6712 31.4653 20.8494 29.338 23.4551 27.861C26.0607 26.3839 29.0047 25.6075 31.9999 25.6074C34.995 25.6074 37.939 26.3837 40.5447 27.8607C43.1504 29.3377 45.3287 31.4648 46.8672 34.0347L47.124 34.4639L46.2666 34.978L46.0098 34.5493C44.5602 32.1275 42.5075 30.1228 40.0521 28.7309C37.5967 27.339 34.8224 26.6074 31.9999 26.6074C29.1774 26.6075 26.4031 27.3392 23.9477 28.7312C21.4923 30.1232 19.4397 32.1279 17.9902 34.5498L17.7334 34.9785Z" fill="#204ECF"/>
<path d="M32 64C25.671 64 19.4841 62.1232 14.2218 58.607C8.95938 55.0908 4.85786 50.0931 2.43585 44.2459C0.0138497 38.3986 -0.619857 31.9645 0.61487 25.7571C1.8496 19.5497 4.8973 13.8479 9.37258 9.3726C13.8479 4.89732 19.5497 1.84961 25.7571 0.614885C31.9645 -0.619842 38.3986 0.013865 44.2459 2.43587C50.0931 4.85787 55.0908 8.95939 58.607 14.2218C62.1232 19.4841 64 25.671 64 32C63.9904 40.484 60.6159 48.6177 54.6168 54.6168C48.6177 60.6159 40.484 63.9904 32 64ZM32 1.00001C25.8688 1.00001 19.8752 2.81813 14.7773 6.22446C9.6794 9.63078 5.70605 14.4723 3.35973 20.1368C1.01342 25.8013 0.399514 32.0344 1.59566 38.0478C2.7918 44.0612 5.74426 49.5849 10.0797 53.9203C14.4151 58.2558 19.9388 61.2082 25.9522 62.4044C31.9656 63.6005 38.1987 62.9866 43.8632 60.6403C49.5277 58.294 54.3692 54.3206 57.7756 49.2227C61.1819 44.1248 63 38.1312 63 32C62.9907 23.7811 59.7217 15.9016 53.9101 10.0899C48.0985 4.27831 40.2189 1.00928 32 1.00001V1.00001Z" fill="#204ECF"/>
</g>
<defs>
<clipPath id="clip0_20_4692">
<rect width="64" height="64" fill="white"/>
</clipPath>
</defs>
</svg>
