<svg width="64" height="64" viewBox="0 0 64 64" fill="none" xmlns="http://www.w3.org/2000/svg">
<g clip-path="url(#clip0_20_4701)">
<path opacity="0.15" d="M54.7454 60.0459H9.25465V63.5001H54.7454V60.0459Z" fill="#183A9E"/>
<path opacity="0.15" d="M48.125 53.1372H15.875V56.5914H48.125V53.1372Z" fill="#183A9E"/>
<path opacity="0.15" d="M32 42.7747V0.5H48.125V26.6497C48.125 30.9263 46.4261 35.0277 43.4021 38.0518C40.3781 41.0758 36.2766 42.7747 32 42.7747V42.7747Z" fill="#183A9E"/>
<path d="M32 43.2744C27.5924 43.2695 23.3666 41.5165 20.2499 38.3998C17.1332 35.2832 15.38 31.0575 15.375 26.6499V0H48.625V26.6499C48.62 31.0575 46.8668 35.2832 43.7501 38.3998C40.6334 41.5165 36.4076 43.2695 32 43.2744V43.2744ZM16.375 1V26.6499C16.375 30.7939 18.0212 34.7682 20.9515 37.6984C23.8817 40.6287 27.856 42.2749 32 42.2749C36.144 42.2749 40.1183 40.6287 43.0485 37.6984C45.9788 34.7682 47.625 30.7939 47.625 26.6499V1H16.375Z" fill="#204ECF"/>
<path d="M55.2451 64H8.75488V56.0913H55.2451V64ZM9.75488 63H54.2451V57.0913H9.75488V63Z" fill="#204ECF"/>
<path d="M48.625 57.0913H15.375V49.1831H48.625V57.0913ZM16.375 56.0913H47.625V50.1831H16.375V56.0913Z" fill="#204ECF"/>
<path d="M32.5 42.7744H31.5V49.6831H32.5V42.7744Z" fill="#204ECF"/>
<path d="M15.875 27.1499C11.6662 27.1451 7.63107 25.471 4.65497 22.4949C1.67886 19.5188 0.00478791 15.4837 0 11.2749L0 5.625H15.875V6.625H1V11.2749C1.00444 15.2186 2.57305 18.9996 5.36169 21.7882C8.15034 24.5768 11.9313 26.1455 15.875 26.1499V27.1499Z" fill="#204ECF"/>
<path d="M48.125 27.1499V26.1499C52.0687 26.1455 55.8497 24.5768 58.6383 21.7882C61.4269 18.9996 62.9956 15.2186 63 11.2749V6.625H48.125V5.625H64V11.2749C63.9952 15.4837 62.3211 19.5188 59.345 22.4949C56.3689 25.471 52.3338 27.1451 48.125 27.1499Z" fill="#204ECF"/>
</g>
<defs>
<clipPath id="clip0_20_4701">
<rect width="64" height="64" fill="white"/>
</clipPath>
</defs>
</svg>
