<?xml version="1.0" encoding="UTF-8"?>
<svg width="16px" height="16px" viewBox="0 0 16 16" version="1.1" xmlns="http://www.w3.org/2000/svg" xmlns:xlink="http://www.w3.org/1999/xlink">
    <!-- Generator: sketchtool 54.1 (76490) - https://sketchapp.com -->
    <title>61f9504d-2971-4a67-aaca-7a7e850b1b86@1.00x</title>
    <desc>Created with sketchtool.</desc>
    <defs>
        <path d="M7,1.0224215 L7,0 L8,0 L8,1.02242151 C10.80325,1.2750359 13,3.63097872 13,6.5 L13,10.0049438 C13,10.7251445 13.2757419,11 13.9998779,11 L13.9998779,12 L0.999145508,12 L0.999145508,11 C1.72400512,11 2,10.7250714 2,10.0049438 C2,9.2159904 2,9.2159904 1.99999903,6.50000097 C1.99999903,3.63097916 4.19674946,1.2750359 7,1.0224215 Z M5,13.5 L5,13 L6,13 L6,13.5 C6,14.3284271 6.67157288,15 7.5,15 C8.32842712,15 9,14.3284271 9,13.5 L9,13 L10,13 L10,13.5 C10,14.8807119 8.88071187,16 7.5,16 C6.11928813,16 5,14.8807119 5,13.5 Z M12,10.0049438 C12,8.25247192 12,8.25247192 12,6.5 C12,4.01471863 9.98528137,2 7.5,2 C5.01471809,2 2.99999903,4.01471906 2.99999903,6.50000074 L3,10.0049438 C3,10.3881224 2.93437982,10.7213547 2.80785088,11 L12.1920615,11 C12.0655892,10.7213496 12,10.3881152 12,10.0049438 Z" id="path-1"></path>
    </defs>
    <g id="Symbols" stroke="none" stroke-width="1" fill="none" fill-rule="evenodd">
        <g id="Icons-/-Notifications-/-16-/-Bell">
            <mask id="mask-2" fill="white">
                <use xlink:href="#path-1"></use>
            </mask>
            <use id="Combined-Shape" fill="#000000" fill-rule="nonzero" xlink:href="#path-1"></use>
            <g id="Colors-/-Black" mask="url(#mask-2)" fill="#000000">
                <rect id="Rectangle" x="0" y="0" width="16" height="16"></rect>
            </g>
        </g>
    </g>
</svg>