<?xml version="1.0" encoding="UTF-8"?>
<svg width="24px" height="24px" viewBox="0 0 24 24" version="1.1" xmlns="http://www.w3.org/2000/svg" xmlns:xlink="http://www.w3.org/1999/xlink">
    <!-- Generator: sketchtool 54.1 (76490) - https://sketchapp.com -->
    <title>15187bb7-2207-4db1-9089-9c5f857ad886@1.00x</title>
    <desc>Created with sketchtool.</desc>
    <defs>
        <path d="M22.1105873,14.469041 C23.5231747,16.641846 23.2356174,19.527484 21.372688,21.3816676 C19.4983566,23.2471996 16.5764232,23.5240505 14.3908346,22.0862603 C10.8845963,22.8930723 7.19766583,21.840437 4.65209007,19.2860444 C2.10723298,16.7323729 1.07865557,13.0546003 1.91551207,9.5707394 C0.473354724,7.39348343 0.752976089,4.48384797 2.62730019,2.61832316 C4.50122777,0.753193006 7.42230618,0.476059645 9.60774105,1.91280159 C13.1101262,1.09250446 16.8005337,2.13023192 19.3561294,4.67382995 C21.933694,7.23929387 22.9731531,10.9547948 22.1105873,14.469041 Z M21.1394136,14.230668 C21.9192974,11.0532831 20.977144,7.69813232 18.6506883,5.38259849 C16.3437882,3.08652854 13.0077801,2.14353629 9.83578101,2.88645336 L9.41743397,2.98443484 L9.05840321,2.74840194 C7.25945989,1.56574609 4.86349041,1.80352892 3.3327413,3.3270917 C1.80361,4.84904426 1.56429541,7.22962759 2.74921049,9.01851939 L2.98947463,9.38125132 L2.88785312,9.80430496 C2.13090422,12.9555079 3.06445243,16.276243 5.36041824,18.5801611 C7.65827875,20.8859805 10.9911201,21.8424271 14.1665873,21.111728 L14.5832415,21.0158527 L14.9404252,21.2508262 C16.7394629,22.4343237 19.1361396,22.1968183 20.6672469,20.6728991 C22.1862987,19.1609786 22.4333708,16.8001986 21.2721902,15.014101 L21.0362127,14.6511266 L21.1394136,14.230668 Z M7.55286148,15.2237569 L7.32910459,14.7766184 L8.22338163,14.3291046 L8.44713852,14.7762431 C8.97620488,15.8334885 10.0573898,16.5008863 11.2400002,16.499999 L13.4999996,16.5 C14.6045694,16.4999992 15.5,15.6045687 15.5,14.5 C15.5,13.3954304 14.6045696,12.5 13.5,12.5 L10.5,12.5 C9.70435055,12.5 8.94128883,12.1839295 8.37867969,11.6213205 C7.81607048,11.0587114 7.5,10.2956498 7.5,9.5 C7.5,7.84314668 8.84314554,6.50000123 10.5000002,6.5 L12.7596248,6.50000117 C14.3207811,6.49882957 15.7484996,7.38013689 16.4471385,8.77624311 L16.6708954,9.22338163 L15.7766184,9.67089541 L15.5528615,9.22375689 C15.0237951,8.16651148 13.9426102,7.49911366 12.7599998,7.50000103 L10.5000004,7.5 C9.39543056,7.50000082 8.5,8.39543132 8.5,9.5 C8.5,10.0304333 8.71071363,10.539141 9.0857864,10.9142137 C9.46085916,11.2892864 9.969567,11.5 10.5,11.5 L13.5,11.5 C15.1568543,11.5 16.5,12.8431456 16.5,14.5 C16.5,16.1568533 15.1568545,17.4999988 13.4999998,17.5 L11.2403752,17.4999988 C9.6792189,17.5011704 8.25150044,16.6198631 7.55286148,15.2237569 Z" id="path-1"></path>
    </defs>
    <g id="Symbols" stroke="none" stroke-width="1" fill="none" fill-rule="evenodd">
        <g id="Icons-/-Contact-Interview-/-24-/-Skype">
            <mask id="mask-2" fill="white">
                <use xlink:href="#path-1"></use>
            </mask>
            <use id="Combined-Shape" fill="#000000" fill-rule="nonzero" xlink:href="#path-1"></use>
            <g id="Colors-/-Black" mask="url(#mask-2)" fill="#000000">
                <rect id="Rectangle" x="0" y="0" width="24" height="24"></rect>
            </g>
        </g>
    </g>
</svg>