<?xml version="1.0" encoding="UTF-8"?>
<svg width="24px" height="24px" viewBox="0 0 24 24" version="1.1" xmlns="http://www.w3.org/2000/svg" xmlns:xlink="http://www.w3.org/1999/xlink">
    <!-- Generator: sketchtool 59.1 (101010) - https://sketch.com -->
    <title>a8a2365a-dbc4-4882-8497-0a0847201a3e@1.00x</title>
    <desc>Created with sketchtool.</desc>
    <defs>
        <path d="M12,0 C5.37096774,0 0,5.37096774 0,12 C0,18.6290323 5.37096774,24 12,24 C18.6290323,24 24,18.6290323 24,12 C24,5.37096774 18.6290323,0 12,0 Z M17.8935484,8.22096774 L15.9241935,17.5016129 C15.7790323,18.1596774 15.3870968,18.3193548 14.8403226,18.0096774 L11.8403226,15.7983871 L10.3935484,17.1919355 C10.233871,17.3516129 10.0983871,17.4870968 9.78870968,17.4870968 L10.0016129,14.433871 L15.5612903,9.41129032 C15.8032258,9.1983871 15.5080645,9.07741935 15.1887097,9.29032258 L8.31774194,13.616129 L5.35645161,12.6919355 C4.71290323,12.4887097 4.6983871,12.0483871 5.49193548,11.7387097 L17.0612903,7.27741935 C17.5983871,7.08387097 18.0677419,7.40806452 17.8935484,8.22096774 L17.8935484,8.22096774 Z" id="path-1"></path>
    </defs>
    <g id="Symbols" stroke="none" stroke-width="1" fill="none" fill-rule="evenodd">
        <g id="Icons-/-Social-Media-/-24-/-Telegram">
            <mask id="mask-2" fill="white">
                <use xlink:href="#path-1"></use>
            </mask>
            <use id="Shape" fill="#000000" fill-rule="nonzero" xlink:href="#path-1"></use>
            <g id="Colors-/-305-Dark-Grey" mask="url(#mask-2)" fill="#455065">
                <rect id="Rectangle" x="0" y="0" width="24" height="24"></rect>
            </g>
        </g>
    </g>
</svg>