<?xml version="1.0" encoding="UTF-8"?>
<svg width="16px" height="16px" viewBox="0 0 16 16" version="1.1" xmlns="http://www.w3.org/2000/svg" xmlns:xlink="http://www.w3.org/1999/xlink">
    <!-- Generator: sketchtool 54.1 (76490) - https://sketchapp.com -->
    <title>a9e4eca0-13b8-4e07-972a-16ad9bea43fc@1.00x</title>
    <desc>Created with sketchtool.</desc>
    <defs>
        <path d="M15.968668,2.54811093 C15.3786926,2.80735121 14.7487188,2.98395448 14.0854131,3.0645922 C14.7613849,2.65740503 15.2813633,2.01563541 15.527353,1.24991029 C14.8933794,1.61977752 14.1907421,1.8890142 13.4427732,2.03896037 C12.8454648,1.39985646 11.9941669,1 11.048873,1 C9.2376151,1 7.76900962,2.46813964 7.76900962,4.2768237 C7.76900962,4.5367304 7.79900837,4.78664069 7.85367276,5.02588814 C5.1271197,4.89726765 2.71055373,3.58840416 1.09328778,1.6097811 C0.808632974,2.09094171 0.649306279,2.65007433 0.649306279,3.25918901 C0.649306279,4.39877993 1.22928211,5.40042036 2.10791217,5.98887579 C1.56993459,5.97154867 1.06395567,5.82360178 0.622640723,5.57835649 L0.622640723,5.61900856 C0.622640723,7.208438 1.75126036,8.53396217 3.25319778,8.8358538 C2.97787592,8.90982724 2.68722137,8.94981289 2.38923378,8.94981289 C2.17990917,8.94981289 1.97925086,8.92982006 1.77859256,8.89250013 C2.1992417,10.1940329 3.40852464,11.1430256 4.84779801,11.1696827 C3.72784467,12.0487005 2.30857048,12.5725124 0.779967501,12.5725124 C0.519978334,12.5725124 0.260655806,12.5571846 0,12.5278618 C1.45927253,13.4568616 3.17853423,14 5.03779009,14 C11.0735386,14 14.3700679,9.00445994 14.3700679,4.67934588 C14.3700679,4.54006254 14.3700679,4.39944635 14.3600683,4.25949659 C15.0007083,3.80032809 15.5600183,3.21986979 16,2.56143948 L15.968668,2.54811093 Z" id="path-1"></path>
    </defs>
    <g id="Symbols" stroke="none" stroke-width="1" fill="none" fill-rule="evenodd">
        <g id="Icons-/-Social-Media-/-16-/-Twitter">
            <mask id="mask-2" fill="white">
                <use xlink:href="#path-1"></use>
            </mask>
            <use id="Path" fill="#000000" fill-rule="nonzero" xlink:href="#path-1"></use>
            <g id="Colors-/-Black" mask="url(#mask-2)" fill="#000000">
                <rect id="Rectangle" x="0" y="0" width="15.5145051" height="17.0659556"></rect>
            </g>
        </g>
    </g>
</svg>