<?xml version="1.0" encoding="UTF-8"?>
<svg width="24px" height="24px" viewBox="0 0 24 24" version="1.1" xmlns="http://www.w3.org/2000/svg" xmlns:xlink="http://www.w3.org/1999/xlink">
    <!-- Generator: sketchtool 54.1 (76490) - https://sketchapp.com -->
    <title>b55297ad-9e8f-40a8-82cf-5bbcb0af682f@1.00x</title>
    <desc>Created with sketchtool.</desc>
    <defs>
        <path d="M23.954,4.323 C23.069,4.712 22.124,4.977 21.129,5.098 C22.143,4.487 22.923,3.524 23.292,2.375 C22.341,2.93 21.287,3.334 20.165,3.559 C19.269,2.6 17.992,2 16.574,2 C13.857,2 11.654,4.203 11.654,6.917 C11.654,7.307 11.699,7.682 11.781,8.041 C7.691,7.848 4.066,5.884 1.64,2.915 C1.213,3.637 0.974,4.476 0.974,5.39 C0.974,7.1 1.844,8.603 3.162,9.486 C2.355,9.46 1.596,9.238 0.934,8.87 L0.934,8.931 C0.934,11.316 2.627,13.305 4.88,13.758 C4.467,13.869 4.031,13.929 3.584,13.929 C3.27,13.929 2.969,13.899 2.668,13.843 C3.299,15.796 5.113,17.22 7.272,17.26 C5.592,18.579 3.463,19.365 1.17,19.365 C0.78,19.365 0.391,19.342 0,19.298 C2.189,20.692 4.768,21.507 7.557,21.507 C16.611,21.507 21.556,14.011 21.556,7.521 C21.556,7.312 21.556,7.101 21.541,6.891 C22.502,6.202 23.341,5.331 24.001,4.343 L23.954,4.323 Z" id="path-1"></path>
    </defs>
    <g id="Symbols" stroke="none" stroke-width="1" fill="none" fill-rule="evenodd">
        <g id="Icons-/-Social-Media-/-24-/-Twitter">
            <mask id="mask-2" fill="white">
                <use xlink:href="#path-1"></use>
            </mask>
            <use id="Path" fill="#000000" fill-rule="nonzero" xlink:href="#path-1"></use>
            <g id="Colors-/-Black" mask="url(#mask-2)" fill="#000000">
                <rect id="Rectangle" x="0" y="0" width="24" height="24"></rect>
            </g>
        </g>
    </g>
</svg>