<svg width="24" height="24" viewBox="0 0 24 24" xmlns="http://www.w3.org/2000/svg"><title>  Combined Shape Copy</title><g fill="none"><path d="M12.3 0C21.7 0.1 24 2.5 24 12 24 21.6 21.6 24 12 24 2.4 24 0 21.6 0 12L0 11.7C0.1 2.3 2.5 0 12 0ZM11.8 9.7C10.1 9 8.1 9.4 6.8 10.7 5.5 12 5.1 14 5.8 15.7 6.5 17.4 8.2 18.6 10 18.6 12.6 18.6 14.6 16.5 14.6 14 14.6 12.1 13.5 10.4 11.8 9.7ZM18.4 5.6L5.6 5.6 5.6 7.9 16.1 7.9 16.1 18.4 18.4 18.4 18.4 5.6ZM10 11.6C11.3 11.6 12.4 12.7 12.4 14 12.4 15.3 11.3 16.3 10 16.3 8.7 16.3 7.7 15.3 7.7 14 7.7 12.7 8.7 11.6 10 11.6Z"/></g></svg>