<?xml version="1.0" encoding="UTF-8"?>
<svg width="24px" height="24px" viewBox="0 0 24 24" version="1.1" xmlns="http://www.w3.org/2000/svg" xmlns:xlink="http://www.w3.org/1999/xlink">
    <title>8506B2DE-22F1-453A-BD3C-C02A9F2088E2@1x</title>
    <defs>
        <path d="M19,1 L19,13 L18,13 L18,2 L2,2 L2,22 L13,22 L13,23 L1,23 L1,1 L19,1 Z M19,16 L19,19 L22,19 L22,20 L19,20 L19,23 L18,23 L18,20 L15,20 L15,19 L18,19 L18,16 L19,16 Z M9,13 L9,14 L4,14 L4,13 L9,13 Z M16,10 L16,11 L4,11 L4,10 L16,10 Z M16,7 L16,8 L4,8 L4,7 L16,7 Z" id="path-1"></path>
    </defs>
    <g id="Symbols" stroke="none" stroke-width="1" fill="none" fill-rule="evenodd">
        <g id="Icons-/-Documents-/-24-/-Add-Document">
            <mask id="mask-2" fill="white">
                <use xlink:href="#path-1"></use>
            </mask>
            <use id="Combined-Shape" fill="#000000" fill-rule="nonzero" xlink:href="#path-1"></use>
            <g id="Group" mask="url(#mask-2)" fill="#455065">
                <g id="Colors-/-307-Gray-Dark">
                    <rect id="Rectangle" x="0" y="0" width="24" height="24"></rect>
                </g>
            </g>
        </g>
    </g>
</svg>