<?xml version="1.0" encoding="UTF-8"?>
<svg width="16px" height="16px" viewBox="0 0 16 16" version="1.1" xmlns="http://www.w3.org/2000/svg" xmlns:xlink="http://www.w3.org/1999/xlink">
    <!-- Generator: sketchtool 54.1 (76490) - https://sketchapp.com -->
    <title>48ae7411-8631-4679-9c1f-2fe8f56320ac@1.00x</title>
    <desc>Created with sketchtool.</desc>
    <defs>
        <path d="M7.5,11 C5.56700338,11 4,9.43299662 4,7.5 C4,5.56700338 5.56700338,4 7.5,4 C9.43299662,4 11,5.56700338 11,7.5 C11,9.43299662 9.43299662,11 7.5,11 Z M7.5,10 C8.88071187,10 10,8.88071187 10,7.5 C10,6.11928813 8.88071187,5 7.5,5 C6.11928813,5 5,6.11928813 5,7.5 C5,8.88071187 6.11928813,10 7.5,10 Z M7,0 L8,0 L8,3 L7,3 L7,0 Z M12.4497475,1.84314575 L13.1568542,2.55025253 L11.0355339,4.67157288 L10.3284271,3.96446609 L12.4497475,1.84314575 Z M15,7 L15,8 L12,8 L12,7 L15,7 Z M13.1568542,12.4497475 L12.4497475,13.1568542 L10.3284271,11.0355339 L11.0355339,10.3284271 L13.1568542,12.4497475 Z M8,15 L7,15 L7,12 L8,12 L8,15 Z M2.55025253,13.1568542 L1.84314575,12.4497475 L3.96446609,10.3284271 L4.67157288,11.0355339 L2.55025253,13.1568542 Z M-2.22044605e-16,8 L-4.05741625e-16,7 L3,7 L3,8 L-2.22044605e-16,8 Z M1.84314575,2.55025253 L2.55025253,1.84314575 L4.67157288,3.96446609 L3.96446609,4.67157288 L1.84314575,2.55025253 Z" id="path-1"></path>
    </defs>
    <g id="Symbols" stroke="none" stroke-width="1" fill="none" fill-rule="evenodd">
        <g id="Icons-/-Top-Scheduler-/-16-/-Afternoon">
            <mask id="mask-2" fill="white">
                <use xlink:href="#path-1"></use>
            </mask>
            <use id="Combined-Shape" fill="#000000" fill-rule="nonzero" xlink:href="#path-1"></use>
            <g id="Colors-/-Black" mask="url(#mask-2)" fill="#000000">
                <rect id="Rectangle" x="0" y="0" width="16" height="16"></rect>
            </g>
        </g>
    </g>
</svg>