<svg width="24" height="24" viewBox="0 0 24 24" fill="none" xmlns="http://www.w3.org/2000/svg">
<g id="Size=24">
<path id="Combined-Shape" d="M12.5 2C18.299 2 23 6.70101 23 12.5C23 18.299 18.299 23 12.5 23C10.0703 23 7.83344 22.1748 6.05427 20.7893L6.6677 19.9995C8.27749 21.2532 10.3015 22 12.5 22C17.7467 22 22 17.7467 22 12.5C22 7.25329 17.7467 3 12.5 3C10.3015 3 8.27749 3.74678 6.6677 5.0005L6.05327 4.21147C7.8326 2.82554 10.0699 2 12.5 2ZM9.5 7.79289L14.2071 12.5L9.5 17.2071L8.79289 16.5L12.293 12.9999L1 13V12L12.293 11.9999L8.79289 8.5L9.5 7.79289Z" fill="#455065"/>
</g>
</svg>
