<svg width="16" height="16" viewBox="0 0 16 16" fill="none" xmlns="http://www.w3.org/2000/svg">
<g id="Size=16">
<path id="Combined-Shape" d="M8.5 1C12.6421 1 16 4.35786 16 8.5C16 12.6421 12.6421 16 8.5 16C6.87429 16 5.3694 15.4828 4.14091 14.6039L4.72259 13.7903C5.7872 14.5519 7.09126 15 8.5 15C12.0899 15 15 12.0899 15 8.5C15 4.91015 12.0899 2 8.5 2C7.09082 2 5.78637 2.44843 4.72158 3.21038L4.14091 2.39615C5.3694 1.51725 6.87429 1 8.5 1ZM6.5 4.79289L10.2071 8.5L6.5 12.2071L5.79289 11.5L8.292 8.99989L0 9V8L8.292 7.99989L5.79289 5.5L6.5 4.79289Z" fill="#455065"/>
</g>
</svg>
