<svg width="24" height="24" viewBox="0 0 24 24" fill="none" xmlns="http://www.w3.org/2000/svg"><path d="M10.780 2.026 C 8.179 2.237,5.874 3.288,4.081 5.081 C 2.447 6.715,1.460 8.696,1.093 11.080 C 0.994 11.726,0.994 13.274,1.093 13.920 C 1.460 16.304,2.447 18.285,4.081 19.919 C 5.714 21.552,7.695 22.539,10.080 22.907 C 10.703 23.003,12.304 23.004,12.932 22.907 C 14.616 22.650,16.125 22.063,17.440 21.154 C 17.868 20.859,17.920 20.818,17.920 20.781 C 17.920 20.758,17.498 20.190,17.362 20.030 C 17.348 20.014,17.212 20.093,17.058 20.205 C 15.887 21.062,14.407 21.663,12.868 21.907 C 12.239 22.007,10.758 22.006,10.140 21.906 C 8.092 21.574,6.359 20.726,4.946 19.361 C 3.342 17.813,2.381 15.911,2.075 13.680 C 2.007 13.190,2.007 11.810,2.075 11.320 C 2.234 10.155,2.533 9.199,3.058 8.167 C 4.936 4.482,9.023 2.442,13.120 3.144 C 14.597 3.397,15.914 3.969,17.274 4.949 C 17.333 4.991,17.379 4.949,17.631 4.621 C 17.790 4.414,17.920 4.230,17.919 4.212 C 17.919 4.195,17.761 4.070,17.569 3.936 C 15.982 2.827,14.271 2.207,12.340 2.042 C 11.893 2.004,11.152 1.996,10.780 2.026 M18.150 8.150 L 17.800 8.500 19.550 10.250 L 21.300 12.000 15.650 12.000 L 10.000 12.000 10.000 12.500 L 10.000 13.000 15.650 13.000 L 21.300 13.000 19.549 14.751 L 17.799 16.501 18.150 16.850 L 18.501 17.199 20.850 14.850 L 23.200 12.500 20.850 10.150 L 18.500 7.800 18.150 8.150 " fill="#455065" stroke="none" fill-rule="evenodd"></path></svg>