<svg width="16" height="16" viewBox="0 0 16 16" fill="none" xmlns="http://www.w3.org/2000/svg"><path d="M6.733 1.042 C 5.067 1.213,3.520 1.932,2.307 3.098 C 0.761 4.584,-0.063 6.610,0.009 8.747 C 0.083 10.928,1.076 12.931,2.769 14.315 C 3.817 15.170,5.045 15.710,6.427 15.924 C 6.982 16.010,8.028 16.010,8.573 15.925 C 9.696 15.750,10.680 15.377,11.621 14.767 L 11.868 14.607 11.806 14.523 C 11.772 14.478,11.639 14.294,11.512 14.116 L 11.281 13.792 11.047 13.946 C 10.256 14.468,9.317 14.814,8.331 14.948 C 7.901 15.006,7.101 15.006,6.680 14.948 C 5.454 14.778,4.356 14.308,3.415 13.552 C 2.089 12.487,1.212 10.868,1.039 9.164 C 0.998 8.762,1.020 7.870,1.080 7.493 C 1.303 6.086,1.987 4.784,3.020 3.798 C 3.791 3.062,4.816 2.483,5.802 2.227 C 7.080 1.895,8.418 1.941,9.615 2.357 C 10.151 2.544,10.488 2.707,11.008 3.033 C 11.160 3.128,11.287 3.201,11.291 3.196 C 11.450 2.983,11.840 2.419,11.840 2.402 C 11.840 2.372,11.421 2.101,11.102 1.925 C 10.270 1.464,9.340 1.168,8.359 1.054 C 7.989 1.010,7.105 1.004,6.733 1.042 M11.133 5.147 L 10.787 5.494 12.040 6.747 L 13.293 8.000 9.139 8.000 L 4.985 8.000 4.993 8.500 L 5.000 9.000 9.133 9.007 L 13.266 9.014 12.027 10.253 L 10.787 11.493 11.147 11.853 L 11.507 12.213 13.360 10.360 L 15.213 8.507 13.360 6.653 C 12.341 5.634,11.501 4.800,11.493 4.800 C 11.485 4.800,11.324 4.956,11.133 5.147 " fill="#455065" stroke="none" fill-rule="evenodd"></path></svg>