<svg width="16" height="16" viewBox="0 0 16 16" fill="none" xmlns="http://www.w3.org/2000/svg">
    <mask id="mask0" mask-type="alpha" maskUnits="userSpaceOnUse" x="0" y="0" width="16" height="16">
        <path
            d="M8.2963 5.33333C8.95086 4.67877 10.0121 4.67877 10.6667 5.33333C11.2915 5.95813 11.3199 6.9535 10.7519 7.61199L10.6667 7.7037L7.40741 10.963L6.81481 10.3704L10.0741 7.1111C10.4014 6.78382 10.4014 6.2532 10.0741 5.92592C9.77017 5.62202 9.29093 5.60031 8.96198 5.8608L8.88889 5.92592L4.44444 10.3704C3.62624 11.1886 3.62624 12.5151 4.44444 13.3333C5.22992 14.1188 6.4839 14.1502 7.30685 13.4276L7.40741 13.3333L12.4444 8.29629C13.7536 6.98717 13.7536 4.86467 12.4444 3.55555C11.175 2.2861 9.14071 2.24763 7.82491 3.44014L7.7037 3.55555L3.85185 7.4074L3.25926 6.81481L7.11111 2.96296C8.74751 1.32656 11.4006 1.32656 13.037 2.96296C14.6304 4.55629 14.6723 7.11355 13.1628 8.75762L13.037 8.88888L8 13.9259C6.85452 15.0714 4.99733 15.0714 3.85185 13.9259C2.74455 12.8186 2.70765 11.0463 3.74112 9.89464L3.85185 9.77777L8.2963 5.33333Z"
            fill="white" />
    </mask>
    <g mask="url(#mask0)">
        <path d="M14.7078 1.5085H1.29898V14.9173H14.7078V1.5085Z" fill="#455065" />
    </g>
</svg>