<svg width="16" height="16" viewBox="0 0 16 16" fill="none" xmlns="http://www.w3.org/2000/svg"><path d="M7.467 0.017 C 5.118 0.192,3.024 1.327,1.608 3.193 C 0.799 4.260,0.296 5.477,0.073 6.906 C -0.009 7.429,-0.009 8.571,0.073 9.094 C 0.415 11.288,1.476 13.089,3.195 14.393 C 4.257 15.199,5.481 15.705,6.906 15.927 C 7.429 16.009,8.571 16.009,9.094 15.927 C 11.038 15.624,12.690 14.748,13.930 13.362 C 15.030 12.133,15.665 10.775,15.927 9.094 C 16.009 8.571,16.009 7.429,15.927 6.906 C 15.705 5.481,15.199 4.257,14.393 3.195 C 13.070 1.452,11.180 0.355,9.000 0.066 C 8.688 0.025,7.760 -0.005,7.467 0.017 M9.040 1.078 C 10.092 1.243,11.091 1.636,11.938 2.218 C 12.265 2.443,12.559 2.674,12.559 2.707 C 12.560 2.742,2.742 12.560,2.707 12.559 C 2.674 12.559,2.443 12.265,2.218 11.938 C 1.630 11.083,1.241 10.088,1.074 9.013 C 1.038 8.776,1.027 8.546,1.027 8.000 C 1.027 7.193,1.059 6.916,1.227 6.253 C 1.847 3.807,3.806 1.848,6.253 1.227 C 6.473 1.171,6.797 1.106,6.973 1.083 C 7.149 1.059,7.329 1.035,7.373 1.029 C 7.576 1.001,8.774 1.037,9.040 1.078 M13.467 3.629 C 14.255 4.638,14.731 5.734,14.926 6.987 C 14.994 7.429,14.993 8.577,14.924 9.027 C 14.474 11.939,12.308 14.238,9.437 14.850 C 8.800 14.986,7.852 15.034,7.240 14.961 C 6.381 14.859,5.569 14.615,4.827 14.238 C 4.444 14.044,4.204 13.893,3.816 13.602 C 3.443 13.322,3.440 13.320,3.440 13.290 C 3.440 13.257,13.261 3.440,13.293 3.441 C 13.308 3.441,13.386 3.526,13.467 3.629 " fill="#455065" stroke="none" fill-rule="evenodd"></path></svg>