<svg width="24" height="24" viewBox="0 0 24 24" fill="none" xmlns="http://www.w3.org/2000/svg"><path d="M11.320 3.025 C 9.137 3.225,7.275 4.071,5.746 5.559 C 4.952 6.331,4.402 7.080,3.941 8.019 C 3.281 9.361,3.021 10.486,3.021 12.000 C 3.021 13.514,3.281 14.639,3.941 15.981 C 4.401 16.918,4.949 17.665,5.746 18.443 C 8.901 21.524,13.789 21.856,17.345 19.231 C 17.903 18.819,18.819 17.903,19.231 17.345 C 21.584 14.158,21.584 9.846,19.231 6.655 C 18.841 6.127,17.923 5.203,17.400 4.813 C 16.169 3.896,14.823 3.333,13.300 3.099 C 12.907 3.039,11.673 2.992,11.320 3.025 M13.229 4.100 C 14.608 4.312,16.125 5.003,17.112 5.869 L 17.284 6.020 11.646 11.655 L 6.009 17.291 5.758 16.975 C 3.465 14.099,3.420 10.096,5.648 7.147 C 5.784 6.967,6.103 6.611,6.358 6.356 C 7.673 5.037,9.329 4.246,11.200 4.042 C 11.656 3.992,12.725 4.023,13.229 4.100 M18.382 7.207 C 19.185 8.273,19.706 9.502,19.900 10.783 C 20.425 14.256,18.657 17.631,15.500 19.184 C 12.723 20.549,9.402 20.175,7.006 18.227 L 6.712 17.988 12.344 12.356 C 16.855 7.845,17.987 6.733,18.031 6.769 C 18.061 6.794,18.219 6.991,18.382 7.207 " fill="#475063" stroke="none" fill-rule="evenodd"></path></svg>