<svg width="24" height="24" viewBox="0 0 24 24" fill="none" xmlns="http://www.w3.org/2000/svg"><path d="M11.069 1.039 C 8.822 1.258,6.868 2.041,5.101 3.432 C 4.640 3.795,3.606 4.863,3.231 5.363 C 2.075 6.906,1.379 8.590,1.093 10.540 C 0.995 11.212,0.995 12.788,1.093 13.460 C 1.379 15.409,2.074 17.091,3.230 18.637 C 3.685 19.244,4.756 20.315,5.363 20.770 C 6.909 21.926,8.591 22.621,10.540 22.907 C 11.212 23.005,12.788 23.005,13.460 22.907 C 15.409 22.621,17.091 21.926,18.637 20.770 C 19.244 20.315,20.315 19.244,20.770 18.637 C 21.926 17.091,22.621 15.409,22.907 13.460 C 22.959 13.104,22.977 12.727,22.977 12.000 C 22.977 11.273,22.959 10.896,22.907 10.540 C 22.621 8.590,21.925 6.906,20.769 5.363 C 20.394 4.863,19.360 3.795,18.899 3.432 C 17.302 2.175,15.548 1.412,13.580 1.120 C 12.946 1.026,11.638 0.984,11.069 1.039 M12.840 2.041 C 14.574 2.196,16.135 2.745,17.560 3.701 C 18.048 4.029,18.641 4.500,18.667 4.580 C 18.674 4.602,15.508 7.792,11.630 11.668 L 4.580 18.715 4.300 18.375 C 1.438 14.896,1.236 9.950,3.806 6.280 C 5.855 3.354,9.321 1.728,12.840 2.041 M19.711 5.643 C 20.733 6.850,21.525 8.538,21.817 10.134 C 22.620 14.509,20.526 18.833,16.623 20.863 C 13.425 22.527,9.579 22.348,6.580 20.397 C 6.107 20.089,5.561 19.675,5.402 19.503 L 5.303 19.397 12.342 12.358 C 16.213 8.487,19.398 5.326,19.420 5.333 C 19.442 5.340,19.573 5.480,19.711 5.643 " fill="#455065" stroke="none" fill-rule="evenodd"></path></svg>