<svg width="16" height="16" viewBox="0 0 16 16" fill="none" xmlns="http://www.w3.org/2000/svg"><path d="M7.547 2.016 C 6.735 2.091,6.056 2.280,5.347 2.628 C 3.088 3.735,1.749 6.185,2.040 8.675 C 2.365 11.456,4.544 13.635,7.325 13.960 C 9.822 14.252,12.280 12.902,13.387 10.631 C 14.715 7.904,13.824 4.671,11.280 2.983 C 10.587 2.524,9.728 2.196,8.880 2.068 C 8.606 2.026,7.785 1.995,7.547 2.016 M8.975 3.103 C 9.393 3.192,9.778 3.327,10.162 3.518 C 10.445 3.658,10.893 3.939,11.073 4.088 L 11.146 4.148 7.645 7.648 L 4.145 11.148 4.008 10.967 C 3.567 10.385,3.259 9.704,3.100 8.962 C 3.034 8.653,3.028 8.578,3.028 8.000 C 3.027 7.449,3.034 7.336,3.089 7.067 C 3.521 4.924,5.204 3.338,7.360 3.041 C 7.455 3.028,7.785 3.021,8.093 3.026 C 8.571 3.034,8.701 3.045,8.975 3.103 M12.163 5.280 C 12.510 5.796,12.763 6.398,12.900 7.038 C 12.967 7.350,12.972 7.418,12.972 8.013 C 12.971 8.605,12.966 8.679,12.900 8.988 C 12.569 10.539,11.590 11.803,10.187 12.492 C 8.519 13.311,6.547 13.122,5.046 12.001 L 4.851 11.855 8.352 8.355 L 11.852 4.854 11.913 4.927 C 11.947 4.967,12.059 5.126,12.163 5.280 " fill="#475063" stroke="none" fill-rule="evenodd"></path></svg>