<svg width="24" height="24" viewBox="0 0 24 24" fill="none" xmlns="http://www.w3.org/2000/svg"><path d="M10.780 1.023 C 10.249 1.076,9.811 1.137,9.460 1.205 C 5.429 1.994,2.149 5.179,1.266 9.160 C 1.064 10.069,1.022 10.474,1.022 11.500 C 1.022 12.526,1.064 12.931,1.266 13.840 C 1.975 17.038,4.312 19.848,7.336 21.138 C 8.617 21.684,9.799 21.942,11.230 21.988 L 12.000 22.012 12.000 21.512 L 12.000 21.012 11.250 20.988 C 9.556 20.933,8.081 20.511,6.686 19.685 C 4.378 18.316,2.757 16.057,2.207 13.440 C 2.065 12.767,2.023 12.317,2.023 11.500 C 2.023 9.883,2.330 8.597,3.058 7.167 C 4.355 4.623,6.746 2.798,9.560 2.207 C 10.233 2.065,10.683 2.023,11.500 2.023 C 13.117 2.023,14.403 2.330,15.833 3.058 C 18.330 4.331,20.143 6.669,20.763 9.420 C 20.897 10.011,20.960 10.539,20.987 11.290 L 21.012 12.000 21.512 12.000 L 22.012 12.000 21.988 11.230 C 21.952 10.117,21.793 9.182,21.478 8.236 C 20.594 5.581,18.778 3.455,16.301 2.175 C 15.206 1.609,14.181 1.284,12.900 1.097 C 12.511 1.040,11.103 0.991,10.780 1.023 M11.000 7.500 L 11.000 11.000 8.500 11.000 L 6.000 11.000 6.000 11.500 L 6.000 12.000 9.000 12.000 L 12.000 12.000 12.000 8.000 L 12.000 4.000 11.500 4.000 L 11.000 4.000 11.000 7.500 M17.355 14.333 C 16.778 14.495,16.304 15.061,16.091 15.840 C 15.990 16.211,15.993 17.157,16.097 17.520 C 16.402 18.588,17.073 19.133,18.005 19.069 C 19.040 18.998,19.726 18.046,19.724 16.686 C 19.722 15.814,19.499 15.181,19.037 14.740 C 18.691 14.410,18.435 14.306,17.940 14.292 C 17.700 14.285,17.466 14.302,17.355 14.333 M12.804 15.810 L 11.837 17.300 11.849 17.620 L 11.860 17.940 12.970 17.951 L 14.080 17.961 14.080 18.481 L 14.080 19.000 14.480 19.000 L 14.880 19.000 14.880 18.480 L 14.880 17.960 15.200 17.960 L 15.520 17.960 15.520 17.602 L 15.520 17.243 15.210 17.232 L 14.900 17.220 14.890 15.770 L 14.879 14.320 14.325 14.320 L 13.770 14.320 12.804 15.810 M20.507 14.347 C 20.492 14.361,20.480 15.414,20.480 16.687 L 20.480 19.000 20.860 19.000 L 21.240 19.000 21.240 17.804 L 21.240 16.608 21.381 16.485 C 21.600 16.292,21.758 16.228,22.060 16.211 C 22.396 16.192,22.575 16.267,22.699 16.480 C 22.775 16.611,22.781 16.699,22.793 17.810 L 22.806 19.000 23.163 19.000 L 23.520 19.000 23.520 17.687 C 23.520 16.159,23.506 16.068,23.227 15.810 C 22.990 15.593,22.831 15.548,22.366 15.567 C 21.947 15.585,21.716 15.670,21.394 15.925 L 21.240 16.047 21.240 15.183 L 21.240 14.320 20.887 14.320 C 20.692 14.320,20.521 14.332,20.507 14.347 M18.359 15.139 C 18.569 15.285,18.739 15.577,18.819 15.928 C 18.891 16.245,18.900 17.059,18.835 17.368 C 18.697 18.025,18.284 18.407,17.773 18.349 C 17.209 18.286,16.895 17.778,16.851 16.860 C 16.806 15.919,17.032 15.297,17.500 15.074 C 17.747 14.956,18.138 14.986,18.359 15.139 M14.062 17.189 C 14.047 17.228,13.873 17.240,13.357 17.240 C 12.825 17.240,12.676 17.229,12.691 17.190 C 12.701 17.163,13.014 16.681,13.385 16.120 L 14.060 15.100 14.071 16.119 C 14.077 16.680,14.073 17.161,14.062 17.189 " fill="#455065" stroke="none" fill-rule="evenodd"></path></svg>