<svg width="16" height="16" viewBox="0 0 16 16" fill="none" xmlns="http://www.w3.org/2000/svg"><path d="M7.000 0.016 C 5.889 0.126,5.148 0.319,4.297 0.723 C 2.218 1.708,0.711 3.581,0.188 5.829 C 0.030 6.511,-0.036 7.426,0.024 8.105 C 0.298 11.184,2.311 13.704,5.253 14.652 C 6.013 14.897,7.078 15.042,7.767 14.995 L 8.000 14.979 8.000 14.483 L 8.000 13.987 7.447 13.985 C 6.395 13.982,5.590 13.792,4.627 13.321 C 3.580 12.810,2.743 12.071,2.081 11.076 C 1.569 10.306,1.226 9.425,1.080 8.507 C 1.020 8.130,0.998 7.238,1.039 6.836 C 1.165 5.598,1.663 4.389,2.450 3.414 C 3.523 2.083,5.131 1.212,6.836 1.039 C 7.238 0.998,8.130 1.020,8.507 1.080 C 9.425 1.226,10.306 1.569,11.076 2.081 C 11.867 2.607,12.509 3.261,13.005 4.048 C 13.190 4.342,13.488 4.950,13.611 5.284 C 13.873 5.999,14.026 6.958,13.993 7.687 L 13.978 8.000 14.479 8.000 L 14.979 8.000 14.995 7.767 C 15.015 7.478,14.977 6.805,14.920 6.413 C 14.732 5.138,14.229 3.960,13.416 2.894 C 13.158 2.554,12.519 1.909,12.170 1.634 C 11.086 0.779,9.834 0.250,8.464 0.066 C 8.162 0.025,7.227 -0.007,7.000 0.016 M6.987 4.507 L 6.987 7.013 5.493 7.013 L 4.000 7.013 4.000 7.507 L 4.000 8.000 6.000 8.000 L 8.000 8.000 8.000 5.000 L 8.000 2.000 7.493 2.000 L 6.987 2.000 6.987 4.507 M11.296 9.656 C 10.869 9.757,10.506 10.172,10.357 10.733 C 10.287 10.994,10.287 11.695,10.356 11.947 C 10.517 12.533,10.863 12.914,11.336 13.026 C 11.630 13.095,11.901 13.064,12.187 12.927 C 12.486 12.784,12.761 12.392,12.884 11.933 C 12.965 11.630,12.966 11.037,12.885 10.739 C 12.686 10.006,12.247 9.622,11.617 9.629 C 11.498 9.631,11.353 9.643,11.296 9.656 M7.993 10.737 L 7.307 11.794 7.307 12.017 L 7.307 12.240 8.106 12.240 L 8.905 12.240 8.913 12.620 L 8.920 13.000 9.207 13.008 L 9.493 13.015 9.493 12.628 L 9.493 12.240 9.720 12.240 L 9.947 12.240 9.947 11.987 L 9.947 11.733 9.720 11.733 L 9.493 11.733 9.493 10.707 L 9.493 9.680 9.086 9.680 L 8.679 9.680 7.993 10.737 M13.500 11.340 L 13.507 13.000 13.767 13.008 L 14.027 13.015 14.027 12.158 L 14.027 11.301 14.112 11.222 C 14.272 11.073,14.446 11.002,14.653 11.002 C 14.863 11.001,14.984 11.050,15.060 11.166 C 15.101 11.229,15.108 11.337,15.120 12.119 L 15.133 13.000 15.395 13.008 L 15.656 13.015 15.648 12.008 C 15.640 11.034,15.638 10.996,15.582 10.893 C 15.515 10.768,15.410 10.666,15.280 10.597 C 15.206 10.557,15.127 10.547,14.893 10.547 C 14.620 10.547,14.588 10.552,14.423 10.630 C 14.326 10.676,14.197 10.759,14.137 10.813 L 14.027 10.913 14.027 10.296 L 14.027 9.680 13.760 9.680 L 13.493 9.680 13.500 11.340 M11.924 10.217 C 12.197 10.368,12.321 10.672,12.340 11.235 C 12.364 11.931,12.196 12.364,11.852 12.495 C 11.703 12.552,11.463 12.537,11.319 12.463 C 11.021 12.309,10.849 11.793,10.890 11.173 C 10.926 10.610,11.112 10.261,11.430 10.159 C 11.555 10.119,11.799 10.148,11.924 10.217 M8.907 10.973 L 8.907 11.733 8.410 11.733 C 8.012 11.733,7.917 11.726,7.928 11.698 C 7.943 11.660,8.889 10.214,8.900 10.214 C 8.904 10.213,8.907 10.555,8.907 10.973 " fill="#455065" stroke="none" fill-rule="evenodd"></path></svg>