<svg width="24" height="24" viewBox="0 0 24 24" fill="none" xmlns="http://www.w3.org/2000/svg">
<g id="Size=24">
<path id="Vector" d="M12 12.5C13.933 12.5 15.5 10.933 15.5 9C15.5 7.067 13.933 5.5 12 5.5C10.067 5.5 8.5 7.067 8.5 9C8.5 10.933 10.067 12.5 12 12.5Z" stroke="#455065" stroke-linejoin="round"/>
<path id="Vector_2" d="M6.5 18C6.5 14.96 8.96 12.5 12 12.5C15.04 12.5 17.5 14.96 17.5 18" stroke="#455065" stroke-linejoin="round"/>
<path id="Vector_3" d="M12 23.5C18.3513 23.5 23.5 18.3513 23.5 12C23.5 5.64873 18.3513 0.5 12 0.5C5.64873 0.5 0.5 5.64873 0.5 12C0.5 18.3513 5.64873 23.5 12 23.5Z" stroke="#455065" stroke-linejoin="round"/>
</g>
</svg>
