<svg width="16" height="16" viewBox="0 0 16 16" fill="none" xmlns="http://www.w3.org/2000/svg">
<g id="Size=16">
<path id="Vector" d="M8 8.5C9.38071 8.5 10.5 7.38071 10.5 6C10.5 4.61929 9.38071 3.5 8 3.5C6.61929 3.5 5.5 4.61929 5.5 6C5.5 7.38071 6.61929 8.5 8 8.5Z" stroke="#455065" stroke-linejoin="round"/>
<path id="Vector_2" d="M4.5 12C4.5 10.07 6.07 8.5 8 8.5C9.93 8.5 11.5 10.07 11.5 12" stroke="#455065" stroke-linejoin="round"/>
<path id="Vector_3" d="M8 15.5C12.1421 15.5 15.5 12.1421 15.5 8C15.5 3.85786 12.1421 0.5 8 0.5C3.85786 0.5 0.5 3.85786 0.5 8C0.5 12.1421 3.85786 15.5 8 15.5Z" stroke="#455065" stroke-linejoin="round"/>
</g>
</svg>
