<svg width="16" height="16" viewBox="0 0 16 16" fill="none" xmlns="http://www.w3.org/2000/svg"><path d="M6.987 1.000 L 6.987 2.000 4.607 2.001 L 2.227 2.001 1.113 3.674 L -0.000 5.347 0.000 5.547 C 0.001 5.940,0.144 6.423,0.378 6.822 C 0.492 7.017,0.983 7.508,1.178 7.622 C 2.294 8.276,3.626 8.055,4.429 7.082 C 4.742 6.703,4.936 6.223,4.991 5.694 L 5.023 5.388 4.231 4.201 L 3.440 3.013 5.213 3.013 L 6.987 3.013 6.987 5.027 L 6.987 7.040 6.931 7.040 C 6.900 7.040,6.753 7.065,6.604 7.095 C 5.660 7.286,4.750 7.811,4.128 8.523 C 3.070 9.733,2.732 11.377,3.227 12.911 C 3.336 13.250,3.615 13.800,3.833 14.107 C 3.932 14.246,4.154 14.503,4.327 14.677 C 4.499 14.852,4.640 14.999,4.640 15.004 C 4.640 15.009,4.160 15.013,3.573 15.013 L 2.507 15.013 2.507 15.507 L 2.507 16.000 7.507 16.000 L 12.507 16.000 12.507 15.507 L 12.507 15.013 11.422 15.013 L 10.336 15.013 10.621 14.733 C 11.567 13.798,12.044 12.611,11.992 11.320 C 11.938 9.956,11.276 8.703,10.184 7.893 C 9.606 7.465,8.879 7.156,8.223 7.062 L 8.000 7.029 8.000 5.021 L 8.000 3.013 9.776 3.013 L 11.553 3.013 11.505 3.087 C 11.479 3.127,11.129 3.652,10.729 4.253 L 10.000 5.347 10.000 5.547 C 10.001 5.940,10.144 6.422,10.378 6.822 C 10.492 7.017,10.983 7.508,11.178 7.622 C 12.294 8.276,13.626 8.055,14.429 7.082 C 14.742 6.703,14.936 6.223,14.991 5.694 L 15.023 5.388 13.894 3.694 L 12.765 2.000 10.382 2.000 L 8.000 2.000 8.000 1.000 L 8.000 0.000 7.493 0.000 L 6.987 0.000 6.987 1.000 M3.015 4.175 C 3.294 4.595,3.530 4.955,3.538 4.975 C 3.550 5.008,3.398 5.013,2.496 5.013 C 1.915 5.013,1.440 5.007,1.440 5.000 C 1.440 4.983,2.486 3.413,2.497 3.413 C 2.502 3.413,2.735 3.756,3.015 4.175 M13.015 4.175 C 13.294 4.595,13.530 4.955,13.538 4.975 C 13.550 5.008,13.398 5.013,12.496 5.013 C 11.915 5.013,11.440 5.007,11.440 5.000 C 11.440 4.983,12.486 3.413,12.497 3.413 C 12.502 3.413,12.735 3.756,13.015 4.175 M3.822 6.193 C 3.561 6.691,3.047 6.998,2.479 6.995 C 2.085 6.993,1.706 6.825,1.427 6.530 C 1.287 6.382,1.093 6.082,1.093 6.014 C 1.093 6.006,1.730 6.000,2.508 6.000 L 3.923 6.000 3.822 6.193 M13.822 6.193 C 13.561 6.691,13.047 6.998,12.479 6.995 C 12.085 6.993,11.706 6.825,11.427 6.530 C 11.287 6.382,11.093 6.082,11.093 6.014 C 11.093 6.006,11.730 6.000,12.508 6.000 L 13.923 6.000 13.822 6.193 M8.267 8.090 C 8.940 8.245,9.474 8.540,9.962 9.026 C 10.494 9.556,10.828 10.201,10.948 10.929 C 11.014 11.329,10.991 11.965,10.897 12.337 C 10.647 13.330,9.967 14.177,9.053 14.633 C 7.671 15.324,5.988 15.014,4.934 13.874 C 4.499 13.404,4.220 12.862,4.077 12.211 C 3.998 11.852,3.990 11.205,4.062 10.848 C 4.199 10.160,4.524 9.541,5.006 9.052 C 5.558 8.490,6.267 8.136,7.053 8.028 C 7.359 7.987,7.945 8.017,8.267 8.090 M6.987 10.013 L 6.987 11.013 6.493 11.013 L 6.000 11.013 6.000 11.507 L 6.000 12.000 7.000 12.000 L 8.000 12.000 8.000 10.507 L 8.000 9.013 7.493 9.013 L 6.987 9.013 6.987 10.013 " fill="#455065" stroke="none" fill-rule="evenodd"></path></svg>