<svg width="24" height="24" viewBox="0 0 24 24" fill="none" xmlns="http://www.w3.org/2000/svg"><path d="M11.000 1.500 L 11.000 3.000 7.106 3.000 L 3.212 3.000 1.606 5.677 C 0.025 8.311,0.000 8.357,0.000 8.567 C 0.001 9.034,0.141 9.600,0.371 10.060 C 0.809 10.937,1.569 11.568,2.548 11.867 C 2.863 11.962,2.963 11.974,3.500 11.974 C 4.037 11.974,4.137 11.962,4.452 11.867 C 5.903 11.424,6.891 10.205,6.987 8.736 L 7.011 8.372 5.720 6.216 C 5.009 5.030,4.421 4.046,4.412 4.030 C 4.403 4.014,5.881 4.000,7.698 4.000 L 11.000 4.000 11.000 7.453 L 11.000 10.906 10.569 10.991 C 9.099 11.281,8.261 12.177,8.261 13.460 C 8.261 14.637,8.924 15.348,10.484 15.844 L 11.000 16.008 11.000 17.799 L 11.000 19.590 10.810 19.555 C 10.093 19.424,9.343 19.061,8.649 18.511 L 8.399 18.312 8.039 18.640 C 7.842 18.821,7.680 18.973,7.680 18.979 C 7.680 19.014,8.318 19.506,8.610 19.697 C 9.242 20.109,10.030 20.425,10.678 20.527 L 11.000 20.578 11.000 21.789 L 11.000 23.000 7.500 23.000 L 4.000 23.000 4.000 23.500 L 4.000 24.000 11.500 24.000 L 19.000 24.000 19.000 23.500 L 19.000 23.000 15.500 23.000 L 12.000 23.000 12.000 21.802 L 12.000 20.605 12.190 20.581 C 12.870 20.497,13.563 20.237,13.996 19.903 C 14.652 19.398,15.030 18.483,14.918 17.669 C 14.762 16.527,13.952 15.802,12.330 15.353 L 12.000 15.262 12.000 13.589 L 12.000 11.916 12.150 11.942 C 12.685 12.034,13.410 12.392,13.814 12.764 L 14.058 12.988 14.431 12.668 L 14.805 12.348 14.633 12.171 C 14.053 11.577,13.100 11.105,12.150 10.942 L 12.000 10.916 12.000 7.458 L 12.000 4.000 15.302 4.000 C 17.119 4.000,18.597 4.013,18.588 4.030 C 18.579 4.046,17.993 5.026,17.286 6.206 C 16.026 8.310,16.000 8.357,16.000 8.566 C 16.001 9.034,16.141 9.599,16.371 10.060 C 16.809 10.937,17.569 11.568,18.548 11.867 C 18.863 11.962,18.963 11.974,19.500 11.974 C 20.037 11.974,20.137 11.962,20.452 11.867 C 21.903 11.424,22.891 10.205,22.987 8.736 L 23.011 8.372 21.400 5.686 L 19.788 3.000 15.894 3.000 L 12.000 3.000 12.000 1.500 L 12.000 0.000 11.500 0.000 L 11.000 0.000 11.000 1.500 M4.556 6.240 L 5.600 7.980 4.563 7.991 C 3.992 7.997,3.047 7.997,2.463 7.991 L 1.400 7.980 2.449 6.232 C 3.025 5.271,3.501 4.488,3.505 4.492 C 3.509 4.496,3.982 5.283,4.556 6.240 M20.556 6.240 L 21.600 7.980 20.563 7.991 C 19.992 7.997,19.047 7.997,18.463 7.991 L 17.400 7.980 18.449 6.232 C 19.025 5.271,19.501 4.488,19.505 4.492 C 19.509 4.496,19.982 5.283,20.556 6.240 M5.894 9.210 C 5.650 10.040,4.955 10.701,4.096 10.921 C 2.826 11.246,1.477 10.473,1.106 9.210 L 1.044 9.000 3.500 9.000 L 5.956 9.000 5.894 9.210 M21.894 9.210 C 21.650 10.040,20.955 10.701,20.096 10.921 C 18.826 11.246,17.477 10.473,17.106 9.210 L 17.044 9.000 19.500 9.000 L 21.956 9.000 21.894 9.210 M11.000 13.443 L 11.000 14.966 10.870 14.938 C 10.622 14.885,10.030 14.627,9.795 14.470 C 9.362 14.181,9.215 13.880,9.251 13.358 C 9.297 12.678,9.740 12.207,10.528 12.001 C 10.688 11.959,10.861 11.923,10.910 11.922 L 11.000 11.920 11.000 13.443 M12.378 16.399 C 13.412 16.749,13.877 17.171,13.944 17.821 C 13.992 18.282,13.765 18.831,13.409 19.113 C 13.181 19.294,12.789 19.467,12.447 19.539 C 11.944 19.644,12.000 19.846,12.000 17.940 C 12.000 17.027,12.006 16.280,12.012 16.280 C 12.019 16.280,12.184 16.334,12.378 16.399 " fill="#455065" stroke="none" fill-rule="evenodd"></path></svg>