<svg width="24" height="24" viewBox="0 0 24 24" fill="none" xmlns="http://www.w3.org/2000/svg"><path d="M11.000 1.500 L 11.000 3.000 7.106 3.000 L 3.212 3.000 1.606 5.677 C 0.025 8.311,0.000 8.357,0.000 8.567 C 0.001 9.034,0.141 9.600,0.371 10.060 C 0.809 10.937,1.569 11.568,2.548 11.867 C 2.863 11.962,2.963 11.974,3.500 11.974 C 4.037 11.974,4.137 11.962,4.452 11.867 C 5.903 11.424,6.891 10.205,6.987 8.736 L 7.011 8.372 5.720 6.216 C 5.009 5.030,4.421 4.046,4.412 4.030 C 4.403 4.014,5.881 4.000,7.698 4.000 L 11.000 4.000 11.000 7.514 L 11.000 11.029 10.709 11.055 C 10.119 11.109,9.335 11.338,8.696 11.642 C 7.392 12.264,6.226 13.434,5.626 14.721 C 5.403 15.200,5.190 15.864,5.094 16.380 C 4.983 16.977,4.993 18.147,5.114 18.720 C 5.401 20.083,5.965 21.134,6.917 22.081 C 7.193 22.356,7.552 22.671,7.714 22.781 L 8.009 22.980 6.004 22.990 L 4.000 23.001 4.000 23.500 L 4.000 24.000 11.500 24.000 L 19.000 24.000 19.000 23.500 L 19.000 23.001 16.996 22.990 L 14.991 22.980 15.286 22.781 C 15.448 22.671,15.807 22.356,16.083 22.081 C 17.033 21.136,17.597 20.085,17.886 18.720 C 18.005 18.159,18.016 16.934,17.908 16.380 C 17.808 15.868,17.581 15.163,17.374 14.722 C 16.816 13.526,15.754 12.413,14.560 11.770 C 13.914 11.422,12.941 11.114,12.304 11.056 L 12.000 11.029 12.000 7.514 L 12.000 4.000 15.302 4.000 C 17.119 4.000,18.597 4.013,18.588 4.030 C 18.579 4.046,17.993 5.026,17.286 6.206 C 16.026 8.310,16.000 8.357,16.000 8.566 C 16.001 9.034,16.141 9.599,16.371 10.060 C 16.809 10.937,17.569 11.568,18.548 11.867 C 18.863 11.962,18.963 11.974,19.500 11.974 C 20.037 11.974,20.137 11.962,20.452 11.867 C 21.903 11.424,22.891 10.205,22.987 8.736 L 23.011 8.372 21.400 5.686 L 19.788 3.000 15.894 3.000 L 12.000 3.000 12.000 1.500 L 12.000 0.000 11.500 0.000 L 11.000 0.000 11.000 1.500 M4.556 6.240 L 5.600 7.980 4.563 7.991 C 3.992 7.997,3.047 7.997,2.463 7.991 L 1.400 7.980 2.449 6.232 C 3.025 5.271,3.501 4.488,3.505 4.492 C 3.509 4.496,3.982 5.283,4.556 6.240 M20.556 6.240 L 21.600 7.980 20.563 7.991 C 19.992 7.997,19.047 7.997,18.463 7.991 L 17.400 7.980 18.449 6.232 C 19.025 5.271,19.501 4.488,19.505 4.492 C 19.509 4.496,19.982 5.283,20.556 6.240 M5.894 9.210 C 5.650 10.040,4.955 10.701,4.096 10.921 C 2.826 11.246,1.477 10.473,1.106 9.210 L 1.044 9.000 3.500 9.000 L 5.956 9.000 5.894 9.210 M21.894 9.210 C 21.650 10.040,20.955 10.701,20.096 10.921 C 18.826 11.246,17.477 10.473,17.106 9.210 L 17.044 9.000 19.500 9.000 L 21.956 9.000 21.894 9.210 M12.517 12.100 C 13.624 12.315,14.591 12.828,15.382 13.618 C 16.177 14.414,16.682 15.371,16.905 16.505 C 17.002 16.997,17.003 18.012,16.906 18.495 C 16.679 19.635,16.176 20.587,15.382 21.381 C 14.600 22.163,13.648 22.673,12.540 22.904 C 12.035 23.009,10.965 23.009,10.460 22.904 C 9.352 22.673,8.400 22.163,7.618 21.381 C 6.824 20.587,6.320 19.634,6.094 18.495 C 5.997 18.007,5.997 16.993,6.094 16.505 C 6.320 15.366,6.824 14.413,7.618 13.618 C 8.519 12.717,9.613 12.196,10.960 12.025 C 11.236 11.990,12.186 12.036,12.517 12.100 M11.000 15.000 L 11.000 17.000 10.000 17.000 L 9.000 17.000 9.000 17.500 L 9.000 18.000 10.500 18.000 L 12.000 18.000 12.000 15.500 L 12.000 13.000 11.500 13.000 L 11.000 13.000 11.000 15.000 " fill="#455065" stroke="none" fill-rule="evenodd"></path></svg>