<svg width="16" height="16" viewBox="0 0 16 16" fill="none" xmlns="http://www.w3.org/2000/svg"><path d="M6.987 1.000 L 6.987 2.000 4.607 2.001 L 2.227 2.001 1.113 3.674 L -0.000 5.347 0.000 5.547 C 0.001 5.940,0.144 6.423,0.378 6.822 C 0.492 7.017,0.983 7.508,1.178 7.622 C 2.294 8.276,3.626 8.055,4.429 7.082 C 4.742 6.703,4.936 6.223,4.991 5.694 L 5.023 5.388 4.231 4.201 L 3.440 3.013 5.213 3.013 L 6.987 3.013 6.987 5.074 L 6.987 7.135 6.811 7.168 C 6.308 7.263,5.848 7.520,5.559 7.867 C 5.338 8.131,5.173 8.613,5.173 8.995 C 5.173 9.357,5.333 9.772,5.574 10.035 C 5.830 10.315,6.196 10.528,6.713 10.696 L 6.987 10.785 6.987 11.819 C 6.987 12.388,6.982 12.853,6.976 12.853 C 6.970 12.853,6.886 12.829,6.790 12.799 C 6.427 12.687,6.054 12.485,5.733 12.227 L 5.558 12.087 5.201 12.426 L 4.843 12.764 4.959 12.869 C 5.433 13.299,6.086 13.647,6.690 13.793 C 6.816 13.823,6.935 13.852,6.953 13.857 C 6.979 13.863,6.987 14.002,6.987 14.439 L 6.987 15.013 4.747 15.013 L 2.507 15.013 2.507 15.507 L 2.507 16.000 7.507 16.000 L 12.507 16.000 12.507 15.507 L 12.507 15.013 10.253 15.013 L 8.000 15.013 8.000 14.440 L 8.000 13.867 8.077 13.867 C 8.219 13.867,8.679 13.734,8.893 13.630 C 9.308 13.431,9.588 13.162,9.774 12.787 C 10.118 12.094,10.008 11.320,9.493 10.797 C 9.199 10.499,8.723 10.245,8.167 10.091 L 8.000 10.045 8.000 9.091 L 8.000 8.138 8.100 8.164 C 8.295 8.215,8.735 8.451,8.915 8.600 C 9.073 8.731,9.102 8.746,9.142 8.715 C 9.166 8.696,9.335 8.555,9.517 8.402 L 9.847 8.123 9.661 7.945 C 9.438 7.732,9.237 7.592,8.937 7.442 C 8.691 7.318,8.317 7.188,8.125 7.159 L 8.000 7.141 8.000 5.077 L 8.000 3.013 9.776 3.013 L 11.553 3.013 11.505 3.087 C 11.479 3.127,11.129 3.652,10.729 4.253 L 10.000 5.347 10.000 5.547 C 10.001 5.940,10.144 6.422,10.378 6.822 C 10.492 7.017,10.983 7.508,11.178 7.622 C 12.294 8.276,13.626 8.055,14.429 7.082 C 14.742 6.703,14.936 6.223,14.991 5.694 L 15.023 5.388 13.894 3.694 L 12.765 2.000 10.382 2.000 L 8.000 2.000 8.000 1.000 L 8.000 0.000 7.493 0.000 L 6.987 0.000 6.987 1.000 M3.015 4.175 C 3.294 4.595,3.530 4.955,3.538 4.975 C 3.550 5.008,3.398 5.013,2.496 5.013 C 1.915 5.013,1.440 5.007,1.440 5.000 C 1.440 4.983,2.486 3.413,2.497 3.413 C 2.502 3.413,2.735 3.756,3.015 4.175 M13.015 4.175 C 13.294 4.595,13.530 4.955,13.538 4.975 C 13.550 5.008,13.398 5.013,12.496 5.013 C 11.915 5.013,11.440 5.007,11.440 5.000 C 11.440 4.983,12.486 3.413,12.497 3.413 C 12.502 3.413,12.735 3.756,13.015 4.175 M3.822 6.193 C 3.561 6.691,3.047 6.998,2.479 6.995 C 2.085 6.993,1.706 6.825,1.427 6.530 C 1.287 6.382,1.093 6.082,1.093 6.014 C 1.093 6.006,1.730 6.000,2.508 6.000 L 3.923 6.000 3.822 6.193 M13.822 6.193 C 13.561 6.691,13.047 6.998,12.479 6.995 C 12.085 6.993,11.706 6.825,11.427 6.530 C 11.287 6.382,11.093 6.082,11.093 6.014 C 11.093 6.006,11.730 6.000,12.508 6.000 L 13.923 6.000 13.822 6.193 M6.987 8.933 C 6.987 9.464,6.977 9.733,6.959 9.733 C 6.902 9.733,6.594 9.590,6.459 9.501 C 6.373 9.443,6.291 9.359,6.246 9.284 C 6.184 9.178,6.174 9.131,6.175 8.960 C 6.178 8.578,6.373 8.342,6.812 8.185 C 6.886 8.159,6.956 8.136,6.967 8.135 C 6.978 8.134,6.987 8.493,6.987 8.933 M8.517 11.288 C 8.747 11.410,8.897 11.572,8.950 11.753 C 9.062 12.139,8.873 12.534,8.481 12.733 C 8.367 12.791,8.088 12.880,8.021 12.880 C 8.009 12.880,8.000 12.473,8.000 11.975 L 8.000 11.069 8.180 11.137 C 8.279 11.174,8.431 11.242,8.517 11.288 " fill="#455065" stroke="none" fill-rule="evenodd"></path></svg>