<?xml version="1.0" encoding="UTF-8"?>
<svg width="24px" height="24px" viewBox="0 0 24 24" version="1.1" xmlns="http://www.w3.org/2000/svg" xmlns:xlink="http://www.w3.org/1999/xlink">
    <!-- Generator: sketchtool 54.1 (76490) - https://sketchapp.com -->
    <title>7da1b870-0285-4d1a-8385-b9de0173e065@1.00x</title>
    <desc>Created with sketchtool.</desc>
    <defs>
        <path d="M6.938,5 C7.64,5 8.278,5.06 8.858,5.188 C9.435,5.318 9.928,5.518 10.343,5.798 C10.753,6.078 11.076,6.448 11.303,6.918 C11.528,7.388 11.643,7.968 11.643,8.648 C11.643,9.388 11.473,10.008 11.136,10.508 C10.798,11.008 10.299,11.408 9.634,11.728 C10.54,11.988 11.21,12.448 11.656,13.098 C12.104,13.758 12.321,14.548 12.321,15.458 C12.321,16.208 12.191,16.848 11.911,17.388 C11.631,17.938 11.241,18.388 10.751,18.738 C10.271,19.086 9.701,19.338 9.081,19.505 C8.471,19.67 7.829,19.759 7.171,19.759 L0,19.759 L0,5.007 L6.938,5.007 L6.938,5 Z M16.94,17.162 C17.38,17.59 18.013,17.805 18.834,17.805 C19.424,17.805 19.934,17.657 20.364,17.358 C20.788,17.068 21.044,16.748 21.144,16.418 L23.732,16.418 C23.329,17.698 22.684,18.618 21.832,19.168 C20.982,19.728 19.948,19.998 18.752,19.998 C17.915,19.998 17.168,19.868 16.48,19.598 C15.807,19.328 15.24,18.948 14.76,18.458 C14.296,17.968 13.937,17.378 13.683,16.688 C13.43,15.998 13.31,15.238 13.31,14.418 C13.31,13.615 13.445,12.878 13.713,12.188 C13.983,11.488 14.357,10.908 14.833,10.398 C15.328,9.888 15.896,9.503 16.569,9.204 C17.242,8.905 17.969,8.771 18.789,8.771 C19.699,8.771 20.479,8.935 21.169,9.294 C21.839,9.634 22.389,10.114 22.829,10.694 C23.269,11.28 23.579,11.954 23.769,12.714 C23.959,13.464 24.019,14.254 23.979,15.094 L16.289,15.094 C16.289,15.934 16.569,16.726 16.999,17.159 L16.919,17.189 L16.94,17.162 Z M6.7,17.212 C7.017,17.212 7.32,17.182 7.606,17.119 C7.896,17.059 8.154,16.954 8.369,16.819 C8.579,16.684 8.759,16.491 8.889,16.236 C9.019,15.996 9.079,15.666 9.079,15.276 C9.079,14.526 8.859,13.986 8.439,13.656 C8.009,13.336 7.449,13.176 6.749,13.176 L3.24,13.176 L3.24,17.226 L6.7,17.226 L6.7,17.196 L6.7,17.212 Z M20.307,11.562 C19.955,11.177 19.367,10.97 18.65,10.97 C18.182,10.97 17.795,11.044 17.484,11.208 C17.182,11.358 16.934,11.558 16.744,11.798 C16.554,12.038 16.427,12.278 16.352,12.548 C16.277,12.808 16.232,13.048 16.217,13.258 L20.979,13.258 C20.909,12.508 20.649,11.958 20.299,11.568 L20.299,11.578 L20.307,11.562 Z M6.52,10.947 C7.094,10.947 7.57,10.813 7.945,10.535 C8.319,10.265 8.499,9.815 8.499,9.197 C8.499,8.853 8.429,8.572 8.319,8.351 C8.189,8.131 8.019,7.961 7.819,7.839 C7.609,7.715 7.369,7.629 7.099,7.582 C6.829,7.529 6.539,7.508 6.259,7.508 L3.23,7.508 L3.23,10.948 L6.52,10.948 L6.52,10.947 Z M15.618,5.989 L21.586,5.989 L21.586,7.443 L15.618,7.443 L15.618,5.977 L15.618,5.987 L15.618,5.989 Z" id="path-1"></path>
    </defs>
    <g id="Symbols" stroke="none" stroke-width="1" fill="none" fill-rule="evenodd">
        <g id="Icons-/-Social-Media-/-24-/-Behance">
            <mask id="mask-2" fill="white">
                <use xlink:href="#path-1"></use>
            </mask>
            <use id="Shape" fill="#000000" fill-rule="nonzero" xlink:href="#path-1"></use>
            <g id="Colors-/-Black" mask="url(#mask-2)" fill="#000000">
                <rect id="Rectangle" x="0" y="0" width="24" height="24"></rect>
            </g>
        </g>
    </g>
</svg>