<?xml version="1.0" encoding="UTF-8"?>
<svg width="16px" height="16px" viewBox="0 0 16 16" version="1.1" xmlns="http://www.w3.org/2000/svg" xmlns:xlink="http://www.w3.org/1999/xlink">
    <!-- Generator: sketchtool 54.1 (76490) - https://sketchapp.com -->
    <title>83581e75-1847-438d-abfb-b2005a4e5b58@1.00x</title>
    <desc>Created with sketchtool.</desc>
    <defs>
        <path d="M4.62711281,3 C5.09529286,3 5.52078983,3.04001539 5.90760525,3.12538155 C6.29241991,3.21208156 6.62121302,3.34546619 6.89798613,3.53220467 C7.17142462,3.71894315 7.3868408,3.96570472 7.53823235,4.2791586 C7.68829006,4.59261248 7.76498622,4.97942791 7.76498622,5.43293565 C7.76498622,5.92645878 7.65160929,6.33995113 7.42685619,6.6734127 C7.20143616,7.00687428 6.86864151,7.27364354 6.42513762,7.48705895 C7.02936999,7.66045896 7.4762085,7.96724361 7.77365622,8.40074366 C8.07243779,8.84091294 8.21716012,9.36778222 8.21716012,9.97468229 C8.21716012,10.4748747 8.13046011,10.9017055 7.94372163,11.261844 C7.75698314,11.6286517 7.49688312,11.9287671 7.17009077,12.1621902 C6.84996766,12.3942795 6.46982147,12.5623441 6.05632911,12.6737203 C5.64950599,12.7837626 5.22134133,12.8431188 4.7825059,12.8431188 L0,12.8431188 L0,3.00466846 L4.62711281,3.00466846 L4.62711281,3 Z M11.2976781,11.1111193 C11.5911243,11.3965624 12.0132867,11.5399509 12.5608306,11.5399509 C12.9543152,11.5399509 13.294446,11.4412463 13.581223,11.2418363 C13.8639984,11.0484286 14.0347307,10.8350132 14.1014231,10.6149285 L15.8274202,10.6149285 C15.5586501,11.4685901 15.1284847,12.0821594 14.5602662,12.4489672 C13.9933815,12.8224441 13.303783,13.0025134 12.5061429,13.0025134 C11.9479282,13.0025134 11.4497366,12.9158134 10.9908935,12.7357441 C10.5420542,12.5556749 10.1639088,12.3022441 9.84378568,11.9754517 C9.53433334,11.6486594 9.29490792,11.2551747 9.12550945,10.7949978 C8.95677789,10.3348208 8.87674711,9.8279592 8.87674711,9.28108222 C8.87674711,8.74554293 8.96678174,8.25402057 9.14551714,7.79384359 C9.32558639,7.32699739 9.57501565,6.94018196 9.89247107,6.60005116 C10.222598,6.25992035 10.6014104,6.00315494 11.0502497,5.80374492 C11.4990889,5.6043349 11.9839421,5.51496719 12.530819,5.51496719 C13.1377191,5.51496719 13.6579192,5.62434259 14.1180961,5.863768 C14.5649346,6.09052187 14.9317424,6.41064498 15.2251886,6.79746041 C15.5186347,7.18827737 15.7253809,7.63778358 15.8520963,8.14464517 C15.9788117,8.64483753 16.0188271,9.17170682 15.9921502,9.73192226 L10.8635112,9.73192226 C10.8635112,10.2921377 11.0502497,10.8203408 11.3370266,11.1091186 L11.2836728,11.1291263 L11.2976781,11.1111193 Z M4.4683851,11.1444655 C4.67979974,11.1444655 4.88187745,11.1244578 5.07261747,11.0824416 C5.26602518,11.0424263 5.43809136,10.9723993 5.58147983,10.8823647 C5.72153369,10.7923301 5.84157986,10.6636139 5.92827987,10.4935485 C6.01497988,10.3334869 6.05499527,10.1134023 6.05499527,9.85330228 C6.05499527,9.35310992 5.90827218,8.99297142 5.62816445,8.77288678 C5.3413875,8.55947137 4.96791054,8.45276366 4.50106433,8.45276366 L2.160831,8.45276366 L2.160831,11.1538024 L4.4683851,11.1538024 L4.4683851,11.1337947 L4.4683851,11.1444655 Z M13.5432084,7.3763497 C13.3084514,7.11958429 12.9163006,6.9815312 12.4381167,6.9815312 C12.1259967,6.9815312 11.8678974,7.03088351 11.6604843,7.14025891 C11.4590735,7.24029738 11.2936766,7.37368201 11.1669612,7.53374357 C11.0402458,7.69380512 10.9555466,7.85386668 10.9055273,8.03393593 C10.8555081,8.20733595 10.8254966,8.3673975 10.8154927,8.50745136 L13.9913807,8.50745136 C13.9446961,8.007259 13.7712961,7.64045127 13.537873,7.38035124 L13.537873,7.38702047 L13.5432084,7.3763497 Z M4.34833893,6.96619197 C4.73115282,6.96619197 5.04860824,6.87682426 5.29870442,6.69141963 C5.54813367,6.51135038 5.66817984,6.21123496 5.66817984,5.79907646 C5.66817984,5.56965489 5.62149522,5.38224949 5.54813367,5.23485947 C5.46143367,5.08813638 5.34805673,4.97475944 5.2146721,4.89339482 C5.07461824,4.81069635 4.91455668,4.75334096 4.73448743,4.72199557 C4.55441818,4.68664864 4.36101047,4.67264326 4.17427199,4.67264326 L2.15416177,4.67264326 L2.15416177,6.96685889 L4.34833893,6.96685889 L4.34833893,6.96619197 Z M10.4160057,3.65958699 L14.3962031,3.65958699 L14.3962031,4.62929325 L10.4160057,4.62929325 L10.4160057,3.65158392 L10.4160057,3.65825315 L10.4160057,3.65958699 Z" id="path-1"></path>
    </defs>
    <g id="Symbols" stroke="none" stroke-width="1" fill="none" fill-rule="evenodd">
        <g id="Icons-/-Social-Media-/-16-/-Behance">
            <mask id="mask-2" fill="white">
                <use xlink:href="#path-1"></use>
            </mask>
            <use id="Shape" fill="#000000" fill-rule="nonzero" xlink:href="#path-1"></use>
            <g id="Colors-/-Black" mask="url(#mask-2)" fill="#000000">
                <rect id="Rectangle" x="0" y="0" width="16" height="16"></rect>
            </g>
        </g>
    </g>
</svg>