<?xml version="1.0" encoding="UTF-8"?>
<svg width="16px" height="16px" viewBox="0 0 16 16" version="1.1" xmlns="http://www.w3.org/2000/svg" xmlns:xlink="http://www.w3.org/1999/xlink">
    <title>80DC9BE0-C00C-46A2-BFFD-7140916268E7@1x</title>
    <defs>
        <path d="M6,13 L6,13.5 C6,14.3284271 6.67157288,15 7.5,15 C8.32842712,15 9,14.3284271 9,13.5 L9,13.5 L9,13 L10,13 L10,13.5 C10,14.8807119 8.88071187,16 7.5,16 C6.11928813,16 5,14.8807119 5,13.5 L5,13.5 L4.99989322,13.121 L5.12089322,13 L6,13 Z M14.5,0.792893219 L15.2071068,1.5 L1.5,15.2071068 L0.792893219,14.5 L14.5,0.792893219 Z M8,0 L8.00061211,1.0224767 C9.28990323,1.13880543 10.450867,1.70006128 11.3287735,2.55151445 L10.6215953,3.25875223 C9.81246809,2.47931171 8.71220867,2 7.5,2 C5.01471809,2 2.99999903,4.01471906 2.99999903,6.5 L3,10.0049438 C3,10.3881224 2.93437982,10.7213547 2.80785088,11 L2.87789322,11 L1.87789322,12 L0.999145508,12 L0.999145508,11 C1.72400512,11 2,10.7250714 2,10.0049438 L1.99999903,6.5 C1.99999903,3.63084497 4.19695487,1.2748156 7.00039319,1.02238609 L7,0 L8,0 Z M13,6.5 L13,10.0049438 C13,10.7251445 13.2757419,11 13.9998779,11 L13.9998779,12 L6.12089322,12 L7.12089322,11 L12.1920615,11 C12.0655892,10.7213496 12,10.3881152 12,10.0049438 L12,6.5 C12,6.3779338 11.9951398,6.25700276 11.9856024,6.13738984 L12.8601396,5.26213999 C12.9516489,5.66000512 13,6.07435606 13,6.5 Z" id="path-1"></path>
    </defs>
    <g id="Symbols" stroke="none" stroke-width="1" fill="none" fill-rule="evenodd">
        <g id="Icons-/-Date-and-Time-/-16-/-Bell-Off">
            <mask id="mask-2" fill="white">
                <use xlink:href="#path-1"></use>
            </mask>
            <use id="Combined-Shape" fill="#000000" fill-rule="nonzero" xlink:href="#path-1"></use>
            <g id="Group" mask="url(#mask-2)" fill="#000000">
                <g id="Colors-/-307-Gray-Dark">
                    <rect id="Rectangle" x="0" y="0" width="16" height="16"></rect>
                </g>
            </g>
        </g>
    </g>
</svg>
