<?xml version="1.0" encoding="UTF-8"?>
<svg width="24px" height="24px" viewBox="0 0 24 24" version="1.1" xmlns="http://www.w3.org/2000/svg" xmlns:xlink="http://www.w3.org/1999/xlink">
    <title>94679C2A-B591-4321-865F-8692A555EE43@1x</title>
    <defs>
        <path d="M10,21 L10,21.5 C10,22.3284271 10.6715729,23 11.5,23 C12.3284271,23 13,22.3284271 13,21.5 L13,21.5 L13,21 L14,21 L14,21.5 C14,22.8807119 12.8807119,24 11.5,24 C10.1192881,24 9,22.8807119 9,21.5 L9,21.5 L9,21 L10,21 Z M21.5,1.79289322 L22.2071068,2.5 L2.5,22.2071068 L1.79289322,21.5 L21.5,1.79289322 Z M20,10.5 L20,18 C20,18.5522847 20.4477153,19 21,19 L21,20 L6.12089322,20 L7.12089322,19 L19.2675644,19 C19.0973943,18.7058266 19,18.3642871 19,18 L19,10.5 C19,9.5000949 18.8043265,8.5458918 18.4491823,7.67359359 L19.2085798,6.91359006 C19.7164159,8.00327076 20,9.21851807 20,10.5 Z M12,0 L12.0004728,2.01448923 C14.1178613,2.13742959 16.0272615,3.03542389 17.449173,4.42897149 L16.7420788,5.13617153 C15.3899578,3.81455206 13.5401033,3 11.5,3 C7.35786438,3 4,6.35786438 4,10.5 L3.99989322,17.878 L1.99989322,19.878 L2,19 C2.55228475,19 3,18.5522847 3,18 L3,10.5 C3,5.97324955 6.53858773,2.27298054 11.0005248,2.01443136 L11,0 L12,0 Z" id="path-1"></path>
    </defs>
    <g id="Symbols" stroke="none" stroke-width="1" fill="none" fill-rule="evenodd">
        <g id="Icons-/-Date-and-Time-/-24-/-Bell-Off">
            <mask id="mask-2" fill="white">
                <use xlink:href="#path-1"></use>
            </mask>
            <use id="Combined-Shape" fill="#000000" fill-rule="nonzero" xlink:href="#path-1"></use>
            <g id="Group" mask="url(#mask-2)" fill="#000000">
                <g id="Colors-/-307-Gray-Dark">
                    <rect id="Rectangle" x="0" y="0" width="24" height="24"></rect>
                </g>
            </g>
        </g>
    </g>
</svg>
