<svg width="16" height="16" viewBox="0 0 16 16" fill="none" xmlns="http://www.w3.org/2000/svg"><path d="M7.520 0.015 C 7.469 0.021,7.295 0.039,7.133 0.055 C 6.541 0.114,5.823 0.286,5.173 0.524 C 4.821 0.653,4.068 1.027,3.734 1.240 C 2.739 1.874,1.874 2.739,1.240 3.734 C 1.027 4.068,0.653 4.821,0.524 5.173 C 0.292 5.806,0.127 6.488,0.050 7.133 C 0.030 7.295,0.015 7.685,0.015 8.000 C 0.015 8.629,0.046 8.962,0.161 9.547 C 0.299 10.252,0.505 10.853,0.839 11.533 C 1.257 12.384,1.658 12.939,2.359 13.641 C 3.061 14.342,3.616 14.743,4.467 15.161 C 5.147 15.495,5.748 15.701,6.453 15.839 C 7.036 15.953,7.369 15.985,8.000 15.985 C 8.631 15.985,8.964 15.953,9.547 15.839 C 10.252 15.701,10.853 15.495,11.533 15.161 C 12.384 14.743,12.939 14.342,13.641 13.641 C 14.342 12.939,14.743 12.384,15.161 11.533 C 15.584 10.674,15.837 9.818,15.950 8.867 C 15.995 8.489,15.995 7.511,15.950 7.133 C 15.837 6.182,15.584 5.326,15.161 4.467 C 14.743 3.616,14.342 3.061,13.641 2.359 C 12.939 1.658,12.384 1.257,11.533 0.839 C 10.695 0.427,9.892 0.184,8.973 0.064 C 8.687 0.027,7.705 -0.006,7.520 0.015 M8.880 1.056 C 10.109 1.199,11.389 1.743,12.400 2.550 C 12.691 2.782,13.218 3.309,13.450 3.600 C 14.058 4.361,14.559 5.361,14.786 6.266 C 14.935 6.864,14.993 7.345,14.993 8.000 C 14.993 9.139,14.777 10.074,14.281 11.080 C 13.916 11.820,13.519 12.377,12.948 12.948 C 12.377 13.519,11.820 13.916,11.080 14.281 C 10.069 14.779,9.135 14.994,7.987 14.992 C 6.865 14.991,5.904 14.768,4.920 14.282 C 4.178 13.915,3.622 13.518,3.052 12.948 C 2.481 12.376,2.080 11.816,1.718 11.080 C 1.228 10.086,1.008 9.131,1.008 8.000 C 1.008 6.869,1.228 5.914,1.718 4.920 C 2.080 4.184,2.481 3.624,3.052 3.052 C 3.624 2.480,4.186 2.079,4.920 1.719 C 6.174 1.103,7.449 0.890,8.880 1.056 M5.647 4.633 C 4.360 5.920,3.307 6.982,3.307 6.993 C 3.307 7.004,3.913 7.013,4.653 7.013 L 6.000 7.013 6.000 8.013 L 6.000 9.013 4.647 9.013 L 3.293 9.013 5.647 11.367 L 8.000 13.720 10.353 11.367 L 12.707 9.013 11.353 9.013 L 10.000 9.013 10.000 8.013 L 10.000 7.013 11.347 7.013 C 12.087 7.013,12.693 7.004,12.693 6.993 C 12.693 6.971,8.022 2.293,8.000 2.293 C 7.993 2.293,6.934 3.346,5.647 4.633 M9.147 4.867 L 10.280 6.000 9.633 6.000 L 8.987 6.000 8.987 8.000 L 8.987 10.000 9.633 10.000 L 10.280 10.000 9.140 11.140 L 8.000 12.280 6.860 11.140 L 5.720 10.000 6.367 10.000 L 7.013 10.000 7.013 8.000 L 7.013 6.000 6.367 6.000 L 5.720 6.000 6.853 4.867 C 7.477 4.243,7.993 3.733,8.000 3.733 C 8.007 3.733,8.523 4.243,9.147 4.867 " fill="#455065" stroke="none" fill-rule="evenodd"></path></svg>