<svg width="24" height="24" viewBox="0 0 24 24" fill="none" xmlns="http://www.w3.org/2000/svg"><path d="M11.280 0.023 C 11.203 0.032,10.942 0.059,10.700 0.083 C 9.811 0.172,8.735 0.429,7.760 0.785 C 7.231 0.979,6.102 1.541,5.601 1.860 C 4.109 2.811,2.811 4.109,1.860 5.601 C 1.541 6.102,0.979 7.231,0.785 7.760 C 0.438 8.709,0.191 9.732,0.075 10.700 C 0.046 10.942,0.022 11.527,0.022 12.000 C 0.022 12.944,0.069 13.442,0.241 14.320 C 0.449 15.378,0.757 16.280,1.259 17.300 C 1.886 18.577,2.486 19.409,3.539 20.461 C 4.591 21.514,5.423 22.114,6.700 22.741 C 7.720 23.243,8.622 23.551,9.680 23.759 C 10.553 23.930,11.054 23.977,12.000 23.977 C 12.946 23.977,13.447 23.930,14.320 23.759 C 15.378 23.551,16.280 23.243,17.300 22.741 C 18.577 22.114,19.409 21.514,20.461 20.461 C 21.514 19.409,22.114 18.577,22.741 17.300 C 23.375 16.011,23.755 14.728,23.925 13.300 C 23.992 12.734,23.992 11.266,23.925 10.700 C 23.755 9.272,23.375 7.989,22.741 6.700 C 22.114 5.423,21.514 4.591,20.461 3.539 C 19.409 2.486,18.577 1.886,17.300 1.259 C 16.042 0.640,14.839 0.276,13.460 0.096 C 13.030 0.041,11.558 -0.009,11.280 0.023 M13.502 1.096 C 14.844 1.296,15.878 1.627,17.060 2.233 C 19.986 3.735,22.132 6.572,22.779 9.795 C 22.947 10.629,22.979 10.981,22.979 12.000 C 22.979 13.532,22.766 14.707,22.254 16.000 C 20.872 19.487,17.828 22.052,14.205 22.779 C 13.371 22.947,13.019 22.979,12.000 22.979 C 10.972 22.979,10.634 22.948,9.760 22.773 C 6.577 22.135,3.728 19.973,2.233 17.060 C 1.613 15.852,1.268 14.751,1.074 13.360 C 1.004 12.855,1.004 11.145,1.074 10.640 C 1.268 9.249,1.613 8.148,2.233 6.940 C 3.872 3.747,7.116 1.487,10.640 1.083 C 10.849 1.059,11.083 1.032,11.160 1.023 C 11.469 0.988,13.120 1.039,13.502 1.096 M8.552 7.172 L 5.124 9.980 7.062 9.990 L 9.000 10.001 9.000 12.000 L 9.000 13.999 7.062 14.010 L 5.124 14.020 8.562 16.833 L 12.000 19.645 15.438 16.833 L 18.876 14.020 16.938 14.010 L 15.000 13.999 15.000 12.000 L 15.000 10.001 16.938 9.990 L 18.876 9.980 15.454 7.180 C 13.572 5.640,12.021 4.376,12.006 4.372 C 11.992 4.368,10.437 5.628,8.552 7.172 M14.072 7.340 L 16.076 8.980 15.038 8.991 L 14.000 9.001 14.000 12.000 L 14.000 14.999 15.038 15.009 L 16.076 15.020 14.071 16.660 C 12.969 17.562,12.037 18.300,12.000 18.300 C 11.963 18.300,11.031 17.562,9.929 16.660 L 7.924 15.020 8.962 15.009 L 10.000 14.999 10.000 12.000 L 10.000 9.001 8.962 8.991 L 7.924 8.980 9.932 7.332 C 11.036 6.425,11.969 5.687,12.004 5.692 C 12.040 5.696,12.970 6.438,14.072 7.340 " fill="#455065" stroke="none" fill-rule="evenodd"></path></svg>