<?xml version="1.0" encoding="UTF-8"?>
<svg width="16px" height="16px" viewBox="0 0 16 16" version="1.1" xmlns="http://www.w3.org/2000/svg" xmlns:xlink="http://www.w3.org/1999/xlink">
    <!-- Generator: sketchtool 54.1 (76490) - https://sketchapp.com -->
    <title>bec9375e-1fab-4160-99a2-34aa457a286b@1.00x</title>
    <desc>Created with sketchtool.</desc>
    <defs>
        <path d="M11,0 L15,4 L15,16 L1,16 L1,0 L11,0 Z M10.5857864,1 L2,1 L2,15 L14,15 L14,4.41421356 L10.5857864,1 Z M4,5 L6,5 L6,6 L4,6 L4,5 Z M4,8 L6,8 L6,9 L4,9 L4,8 Z M8,5 L12,5 L12,6 L8,6 L8,5 Z M8,8 L12,8 L12,9 L8,9 L8,8 Z M8,11 L12,11 L12,12 L8,12 L8,11 Z" id="path-1"></path>
    </defs>
    <g id="Symbols" stroke="none" stroke-width="1" fill="none" fill-rule="evenodd">
        <g id="Icons-/-Navigation-/-16-/-Billing">
            <mask id="mask-2" fill="white">
                <use xlink:href="#path-1"></use>
            </mask>
            <use id="Combined-Shape" fill="#000000" fill-rule="nonzero" xlink:href="#path-1"></use>
            <g id="Colors-/-Black" mask="url(#mask-2)" fill="#000000">
                <rect id="Rectangle" x="0" y="0" width="16" height="16"></rect>
            </g>
        </g>
    </g>
</svg>