<?xml version="1.0" encoding="UTF-8"?>
<svg width="24px" height="24px" viewBox="0 0 24 24" version="1.1" xmlns="http://www.w3.org/2000/svg" xmlns:xlink="http://www.w3.org/1999/xlink">
    <!-- Generator: sketchtool 54.1 (76490) - https://sketchapp.com -->
    <title>c11145fb-e56f-40f0-8223-b7c8ac7c0881@1.00x</title>
    <desc>Created with sketchtool.</desc>
    <defs>
        <path d="M16,0 L22,6 L22,24 L2,24 L2,0 L16,0 Z M15.5857864,1 L3,1 L3,23 L21,23 L21,6.41421356 L15.5857864,1 Z M6,8 L9,8 L9,9 L6,9 L6,8 Z M6,12 L9,12 L9,13 L6,13 L6,12 Z M12,8 L18,8 L18,9 L12,9 L12,8 Z M12,12 L18,12 L18,13 L12,13 L12,12 Z M12,16 L18,16 L18,17 L12,17 L12,16 Z" id="path-1"></path>
    </defs>
    <g id="Symbols" stroke="none" stroke-width="1" fill="none" fill-rule="evenodd">
        <g id="Icons-/-Navigation-/-24-/-Billing">
            <mask id="mask-2" fill="white">
                <use xlink:href="#path-1"></use>
            </mask>
            <use id="Combined-Shape" fill="#000000" fill-rule="nonzero" xlink:href="#path-1"></use>
            <g id="Colors-/-Black" mask="url(#mask-2)" fill="#000000">
                <rect id="Rectangle" x="0" y="0" width="24" height="24"></rect>
            </g>
        </g>
    </g>
</svg>