<svg width="16" height="16" viewBox="0 0 16 16" fill="none" xmlns="http://www.w3.org/2000/svg"><path d="M0.000 8.000 L 0.000 14.000 8.000 14.000 L 16.000 14.000 16.000 11.000 L 16.000 8.000 15.493 8.000 L 14.987 8.000 14.987 10.507 L 14.987 13.013 8.000 13.013 L 1.013 13.013 1.013 8.013 L 1.013 3.013 5.507 3.013 L 10.000 3.013 10.000 2.507 L 10.000 2.000 5.000 2.000 L 0.000 2.000 0.000 8.000 M12.987 3.000 L 12.987 4.000 11.986 4.000 L 10.985 4.000 10.993 4.500 L 11.000 5.000 11.993 5.007 L 12.986 5.014 12.993 6.007 L 13.000 7.000 13.500 7.007 L 14.000 7.015 14.000 6.014 L 14.000 5.013 15.000 5.013 L 16.000 5.013 16.000 4.507 L 16.000 4.000 15.000 4.000 L 14.000 4.000 14.000 3.000 L 14.000 2.000 13.493 2.000 L 12.987 2.000 12.987 3.000 " fill="#455065" stroke="none" fill-rule="evenodd"></path></svg>