<svg width="24" height="24" viewBox="0 0 24 24" fill="none" xmlns="http://www.w3.org/2000/svg"><path d="M0.000 12.000 L 0.000 20.000 12.000 20.000 L 24.000 20.000 24.000 16.000 L 24.000 12.000 23.500 12.000 L 23.000 12.000 23.000 15.500 L 23.000 19.000 12.000 19.000 L 1.000 19.000 1.000 12.000 L 1.000 5.000 8.500 5.000 L 16.000 5.000 16.000 4.500 L 16.000 4.000 8.000 4.000 L 0.000 4.000 0.000 12.000 M20.000 5.500 L 20.000 7.000 18.500 7.000 L 17.000 7.000 17.000 7.500 L 17.000 8.000 18.500 8.000 L 20.000 8.000 20.000 9.500 L 20.000 11.000 20.500 11.000 L 21.000 11.000 21.000 9.500 L 21.000 8.000 22.500 8.000 L 24.000 8.000 24.000 7.500 L 24.000 7.000 22.500 7.000 L 21.000 7.000 21.000 5.500 L 21.000 4.000 20.500 4.000 L 20.000 4.000 20.000 5.500 " fill="#455065" stroke="none" fill-rule="evenodd"></path></svg>