<svg width="16" height="16" viewBox="0 0 16 16" fill="none" xmlns="http://www.w3.org/2000/svg"><path d="M2.000 8.000 L 2.000 16.000 5.000 14.000 L 8.000 12.000 11.000 14.000 L 14.000 16.000 14.000 8.000 L 14.000 0.000 8.000 0.000 L 2.000 0.000 2.000 8.000 M8.451 3.915 L 8.888 4.790 9.849 4.929 C 10.378 5.006,10.815 5.073,10.822 5.079 C 10.833 5.091,9.624 6.286,9.508 6.377 C 9.470 6.407,9.440 6.458,9.440 6.492 C 9.440 6.525,9.512 6.971,9.599 7.481 C 9.687 7.992,9.756 8.412,9.753 8.415 C 9.749 8.418,9.363 8.218,8.893 7.971 C 8.424 7.724,8.022 7.521,8.000 7.521 C 7.978 7.521,7.576 7.724,7.107 7.971 C 6.637 8.218,6.251 8.418,6.247 8.415 C 6.244 8.412,6.313 7.992,6.401 7.481 C 6.488 6.971,6.560 6.525,6.560 6.492 C 6.560 6.458,6.530 6.407,6.492 6.377 C 6.376 6.286,5.167 5.091,5.178 5.079 C 5.185 5.073,5.622 5.006,6.151 4.929 L 7.112 4.790 7.549 3.915 C 7.789 3.434,7.992 3.040,8.000 3.040 C 8.008 3.040,8.211 3.434,8.451 3.915 " fill="#455065" stroke="none" fill-rule="evenodd"></path></svg>