<svg width="16" height="16" viewBox="0 0 16 16" fill="none" xmlns="http://www.w3.org/2000/svg"><path d="M2.000 8.000 L 2.000 16.000 5.000 14.000 L 8.000 12.000 11.000 14.000 L 14.000 16.000 14.000 8.000 L 14.000 0.000 8.000 0.000 L 2.000 0.000 2.000 8.000 M12.987 7.560 C 12.987 11.161,12.980 14.107,12.971 14.107 C 12.963 14.107,11.841 13.361,10.478 12.449 L 8.000 10.791 5.522 12.449 C 4.159 13.361,3.037 14.107,3.029 14.107 C 3.020 14.107,3.013 11.161,3.013 7.560 L 3.013 1.013 8.000 1.013 L 12.987 1.013 12.987 7.560 M7.551 3.903 L 7.115 4.790 6.418 4.890 C 5.352 5.042,5.171 5.072,5.179 5.093 C 5.183 5.103,5.493 5.410,5.867 5.776 C 6.241 6.141,6.550 6.459,6.555 6.482 C 6.559 6.506,6.489 6.948,6.400 7.465 C 6.310 7.983,6.241 8.409,6.245 8.413 C 6.250 8.417,6.637 8.218,7.107 7.971 C 7.576 7.724,7.978 7.521,8.000 7.521 C 8.022 7.521,8.424 7.724,8.893 7.971 C 9.363 8.218,9.750 8.418,9.754 8.414 C 9.759 8.410,9.689 7.983,9.600 7.466 C 9.511 6.948,9.441 6.505,9.445 6.482 C 9.450 6.459,9.759 6.141,10.133 5.776 C 10.507 5.410,10.817 5.103,10.821 5.093 C 10.829 5.072,10.648 5.042,9.583 4.890 L 8.885 4.790 8.449 3.903 C 8.210 3.415,8.007 3.016,8.000 3.016 C 7.993 3.015,7.791 3.415,7.551 3.903 " fill="#455065" stroke="none" fill-rule="evenodd"></path></svg>