<svg width="24" height="24" viewBox="0 0 24 24" fill="none" xmlns="http://www.w3.org/2000/svg"><path d="M3.000 12.000 L 3.000 24.000 7.500 21.000 L 12.000 18.000 16.500 21.000 L 21.000 24.000 21.000 12.000 L 21.000 0.000 12.000 0.000 L 3.000 0.000 3.000 12.000 M20.000 11.562 C 20.000 20.001,19.990 22.119,19.950 22.095 C 19.922 22.079,18.122 20.880,15.950 19.430 L 12.000 16.793 8.050 19.430 C 5.877 20.880,4.077 22.079,4.050 22.096 C 4.010 22.119,4.000 20.001,4.000 11.562 L 4.000 1.000 12.000 1.000 L 20.000 1.000 20.000 11.562 M11.251 5.511 L 10.530 6.982 8.915 7.215 C 8.027 7.343,7.293 7.454,7.285 7.462 C 7.271 7.476,8.954 9.135,9.390 9.537 C 9.511 9.649,9.600 9.765,9.600 9.812 C 9.600 9.857,9.482 10.577,9.338 11.413 C 9.194 12.249,9.082 12.954,9.088 12.981 C 9.095 13.010,9.676 12.726,10.532 12.275 C 11.320 11.860,11.981 11.520,12.000 11.520 C 12.019 11.520,12.680 11.860,13.468 12.275 C 14.324 12.726,14.905 13.010,14.912 12.981 C 14.918 12.954,14.806 12.249,14.662 11.413 C 14.518 10.577,14.400 9.857,14.400 9.812 C 14.400 9.765,14.489 9.649,14.610 9.537 C 15.046 9.135,16.729 7.476,16.715 7.462 C 16.707 7.454,15.973 7.343,15.085 7.215 L 13.469 6.982 12.748 5.511 C 12.351 4.702,12.015 4.040,12.000 4.040 C 11.985 4.040,11.648 4.702,11.251 5.511 " fill="#455065" stroke="none" fill-rule="evenodd"></path></svg>