<svg width="24" height="24" viewBox="0 0 24 24" fill="none" xmlns="http://www.w3.org/2000/svg"><path d="M3.000 12.000 L 3.000 24.000 7.500 21.000 L 12.000 18.000 16.500 21.000 L 21.000 24.000 21.000 12.000 L 21.000 0.000 12.000 0.000 L 3.000 0.000 3.000 12.000 M20.000 11.562 C 20.000 20.001,19.990 22.119,19.950 22.095 C 19.922 22.079,18.122 20.880,15.950 19.430 L 12.000 16.793 8.050 19.430 C 5.877 20.880,4.077 22.079,4.050 22.096 C 4.010 22.119,4.000 20.001,4.000 11.562 L 4.000 1.000 12.000 1.000 L 20.000 1.000 20.000 11.562 " fill="#455065" stroke="none" fill-rule="evenodd"></path></svg>