<svg width="24" height="24" viewBox="0 0 24 24" fill="none" xmlns="http://www.w3.org/2000/svg"><path d="M3.000 12.000 L 3.000 24.000 7.500 21.000 L 12.000 18.000 16.500 21.000 L 21.000 24.000 21.000 12.000 L 21.000 0.000 12.000 0.000 L 3.000 0.000 3.000 12.000 M12.743 5.511 L 13.464 6.981 15.082 7.215 C 15.972 7.343,16.707 7.454,16.715 7.462 C 16.729 7.476,15.046 9.135,14.610 9.537 C 14.466 9.670,14.400 9.762,14.400 9.829 C 14.400 9.883,14.518 10.612,14.662 11.448 C 14.806 12.284,14.918 12.982,14.912 12.999 C 14.905 13.016,14.255 12.690,13.468 12.275 C 12.680 11.860,12.019 11.520,12.000 11.520 C 11.981 11.520,11.320 11.860,10.532 12.275 C 9.745 12.690,9.095 13.015,9.088 12.998 C 9.081 12.981,9.194 12.281,9.338 11.443 C 9.482 10.604,9.600 9.876,9.600 9.825 C 9.600 9.763,9.528 9.665,9.390 9.537 C 8.954 9.135,7.271 7.476,7.285 7.462 C 7.293 7.454,8.028 7.343,8.918 7.215 L 10.536 6.981 11.256 5.511 C 11.653 4.702,11.987 4.040,12.000 4.040 C 12.012 4.040,12.346 4.702,12.743 5.511 " fill="#455065" stroke="none" fill-rule="evenodd"></path></svg>