<svg width="16" height="16" viewBox="0 0 16 16" fill="none" xmlns="http://www.w3.org/2000/svg"><path d="M2.000 8.000 L 2.000 16.000 5.000 14.000 L 8.000 12.000 11.000 14.000 L 14.000 16.000 14.000 8.000 L 14.000 0.000 8.000 0.000 L 2.000 0.000 2.000 8.000 M12.987 7.560 C 12.987 11.161,12.980 14.107,12.971 14.107 C 12.963 14.107,11.841 13.361,10.478 12.449 L 8.000 10.791 5.522 12.449 C 4.159 13.361,3.037 14.107,3.029 14.107 C 3.020 14.107,3.013 11.161,3.013 7.560 L 3.013 1.013 8.000 1.013 L 12.987 1.013 12.987 7.560 " fill="#455065" stroke="none" fill-rule="evenodd"></path></svg>