<svg width="16" height="16" viewBox="0 0 16 16" fill="none" xmlns="http://www.w3.org/2000/svg"><path d="M7.560 0.016 C 6.684 0.107,6.060 0.276,5.373 0.612 C 3.525 1.514,2.280 3.275,2.040 5.328 C 1.781 7.540,2.826 9.782,4.678 10.988 L 4.983 11.187 4.991 13.093 L 5.000 15.000 5.507 15.007 L 6.015 15.014 6.507 15.507 L 6.999 16.000 8.000 16.000 L 9.001 16.000 9.493 15.507 L 9.985 15.014 10.493 15.007 L 11.000 15.000 11.009 13.093 L 11.017 11.187 11.322 10.988 C 12.975 9.911,14.000 7.999,14.000 5.990 C 14.000 4.424,13.358 2.880,12.244 1.765 C 11.771 1.292,11.236 0.911,10.629 0.615 C 10.044 0.329,9.513 0.163,8.880 0.067 C 8.608 0.026,7.775 -0.006,7.560 0.016 M8.947 1.092 C 10.969 1.498,12.500 3.032,12.911 5.067 C 12.966 5.338,12.973 5.446,12.972 6.013 C 12.971 6.604,12.966 6.679,12.900 6.987 C 12.734 7.762,12.445 8.402,11.983 9.014 C 11.538 9.606,11.029 10.036,10.260 10.472 L 10.000 10.619 10.000 10.816 L 10.000 11.013 9.798 11.013 L 9.596 11.013 9.611 10.940 C 9.660 10.703,10.587 5.567,10.587 5.534 C 10.587 5.498,10.301 5.493,8.000 5.493 C 5.699 5.493,5.413 5.498,5.413 5.534 C 5.413 5.567,6.340 10.703,6.389 10.940 L 6.404 11.013 6.202 11.013 L 6.000 11.013 6.000 10.816 L 6.000 10.619 5.738 10.471 C 4.677 9.870,4.020 9.201,3.535 8.227 C 3.309 7.773,3.204 7.477,3.100 6.991 C 3.033 6.678,3.028 6.607,3.027 6.013 C 3.027 5.448,3.034 5.338,3.089 5.067 C 3.527 2.896,5.250 1.298,7.440 1.030 C 7.491 1.024,7.785 1.022,8.093 1.026 C 8.543 1.032,8.711 1.045,8.947 1.092 M9.387 6.540 C 9.387 6.602,8.589 10.962,8.573 10.988 C 8.554 11.018,7.413 11.024,7.413 10.993 C 7.413 10.982,7.233 9.983,7.013 8.773 C 6.793 7.564,6.613 6.559,6.613 6.540 C 6.613 6.514,6.904 6.507,8.000 6.507 C 9.096 6.507,9.387 6.514,9.387 6.540 M10.000 13.000 L 10.000 14.000 9.793 14.000 L 9.586 14.000 9.080 14.507 L 8.574 15.013 8.000 15.013 L 7.426 15.013 6.920 14.507 L 6.414 14.000 6.207 14.000 L 6.000 14.000 6.000 13.000 L 6.000 12.000 8.000 12.000 L 10.000 12.000 10.000 13.000 " fill="#455065" stroke="none" fill-rule="evenodd"></path></svg>