<svg width="24" height="24" viewBox="0 0 24 24" fill="none" xmlns="http://www.w3.org/2000/svg"><path d="M11.340 0.024 C 10.026 0.160,9.091 0.415,8.060 0.918 C 5.287 2.272,3.420 4.913,3.059 7.992 C 2.669 11.332,4.224 14.646,7.060 16.517 C 7.280 16.663,7.581 16.844,7.730 16.921 L 8.000 17.060 8.000 19.730 L 8.000 22.400 8.670 22.401 L 9.340 22.402 10.000 23.200 L 10.660 23.998 12.000 23.998 L 13.340 23.998 14.000 23.200 L 14.660 22.402 15.330 22.401 L 16.000 22.400 16.000 19.730 L 16.000 17.060 16.270 16.921 C 16.945 16.572,17.742 15.976,18.359 15.359 C 21.078 12.640,21.771 8.503,20.083 5.060 C 19.190 3.237,17.762 1.810,15.944 0.923 C 15.066 0.494,14.269 0.244,13.320 0.101 C 12.911 0.039,11.662 -0.009,11.340 0.024 M12.740 1.041 C 15.525 1.302,17.953 2.983,19.182 5.500 C 20.706 8.619,20.043 12.349,17.536 14.761 C 16.892 15.381,16.326 15.778,15.490 16.196 L 15.000 16.441 15.000 16.980 L 15.000 17.520 14.580 17.520 C 14.349 17.520,14.160 17.507,14.161 17.490 C 14.161 17.473,14.608 15.786,15.154 13.740 L 16.147 10.020 14.073 10.010 C 12.933 10.004,11.067 10.004,9.927 10.010 L 7.853 10.020 8.846 13.740 C 9.392 15.786,9.839 17.473,9.839 17.490 C 9.840 17.507,9.651 17.520,9.420 17.520 L 9.000 17.520 9.000 16.980 L 9.000 16.441 8.510 16.196 C 7.674 15.778,7.108 15.381,6.464 14.761 C 3.287 11.704,3.177 6.671,6.217 3.489 C 7.919 1.708,10.304 0.813,12.740 1.041 M14.840 11.016 C 14.840 11.024,14.453 12.482,13.980 14.255 C 13.507 16.028,13.120 17.488,13.120 17.499 C 13.120 17.511,12.616 17.520,12.000 17.520 C 11.384 17.520,10.880 17.511,10.880 17.499 C 10.880 17.488,10.493 16.028,10.020 14.255 C 9.547 12.482,9.160 11.024,9.160 11.016 C 9.160 11.007,10.438 11.000,12.000 11.000 C 13.562 11.000,14.840 11.007,14.840 11.016 M15.000 19.960 L 15.000 21.400 14.601 21.400 L 14.201 21.400 13.534 22.200 L 12.867 23.000 12.000 23.000 L 11.133 23.000 10.466 22.200 L 9.799 21.400 9.399 21.400 L 9.000 21.400 9.000 19.960 L 9.000 18.520 12.000 18.520 L 15.000 18.520 15.000 19.960 " fill="#455065" stroke="none" fill-rule="evenodd"></path></svg>