<svg width="24" height="24" viewBox="0 0 24 24" fill="none" xmlns="http://www.w3.org/2000/svg"><path d="M3.000 4.500 L 3.000 6.000 3.500 6.000 L 4.000 6.000 4.000 5.000 L 4.000 4.000 12.500 4.000 L 21.000 4.000 21.000 12.500 L 21.000 21.000 12.500 21.000 L 4.000 21.000 4.000 20.000 L 4.000 19.000 3.500 19.000 L 3.000 19.000 3.000 20.500 L 3.000 22.000 12.500 22.000 L 22.000 22.000 22.000 12.500 L 22.000 3.000 12.500 3.000 L 3.000 3.000 3.000 4.500 M9.150 8.150 L 8.800 8.500 10.550 10.250 L 12.300 12.000 6.650 12.000 L 1.000 12.000 1.000 12.500 L 1.000 13.000 6.650 13.000 L 12.300 13.000 10.549 14.751 L 8.799 16.501 9.150 16.850 L 9.501 17.199 11.850 14.850 L 14.200 12.500 11.850 10.150 L 9.500 7.800 9.150 8.150 " fill="#455065" stroke="none" fill-rule="evenodd"></path></svg>