<svg width="24" height="24" viewBox="0 0 24 24" fill="none" xmlns="http://www.w3.org/2000/svg"><path d="M1.000 12.500 L 1.000 22.000 10.500 22.000 L 20.000 22.000 20.000 20.500 L 20.000 19.000 19.500 19.000 L 19.000 19.000 19.000 20.000 L 19.000 21.000 10.500 21.000 L 2.000 21.000 2.000 12.500 L 2.000 4.000 10.500 4.000 L 19.000 4.000 19.000 5.000 L 19.000 6.000 19.500 6.000 L 20.000 6.000 20.000 4.500 L 20.000 3.000 10.500 3.000 L 1.000 3.000 1.000 12.500 M17.150 8.150 L 16.800 8.500 18.550 10.250 L 20.300 12.000 14.650 12.000 L 9.000 12.000 9.000 12.500 L 9.000 13.000 14.650 13.000 L 20.300 13.000 18.549 14.751 L 16.799 16.501 17.150 16.850 L 17.501 17.199 19.850 14.850 L 22.200 12.500 19.850 10.150 L 17.500 7.800 17.150 8.150 " fill="#455065" stroke="none" fill-rule="evenodd"></path></svg>