<svg width="16" height="16" viewBox="0 0 16 16" fill="none" xmlns="http://www.w3.org/2000/svg"><path d="M0.993 8.500 L 1.000 15.000 7.500 15.007 L 14.000 15.013 14.000 14.013 L 14.000 13.013 13.493 13.013 L 12.987 13.013 12.987 13.507 L 12.987 14.000 7.493 14.000 L 2.000 14.000 2.000 8.507 L 2.000 3.013 7.493 3.013 L 12.987 3.013 12.987 3.507 L 12.987 4.000 13.493 4.000 L 14.000 4.000 14.000 3.000 L 14.000 2.000 7.493 2.000 L 0.987 2.000 0.993 8.500 M11.133 5.147 L 10.787 5.494 12.040 6.747 L 13.293 8.000 9.139 8.000 L 4.985 8.000 4.993 8.500 L 5.000 9.000 9.133 9.007 L 13.266 9.014 12.027 10.253 L 10.787 11.493 11.147 11.853 L 11.507 12.213 13.360 10.360 L 15.213 8.507 13.360 6.653 C 12.341 5.634,11.501 4.800,11.493 4.800 C 11.485 4.800,11.324 4.956,11.133 5.147 " fill="#455065" stroke="none" fill-rule="evenodd"></path></svg>