<svg width="16" height="16" viewBox="0 0 16 16" fill="none" xmlns="http://www.w3.org/2000/svg"><path d="M4.000 3.013 L 4.000 5.013 2.000 5.013 L 0.000 5.013 0.000 10.013 L 0.000 15.013 8.000 15.013 L 16.000 15.013 16.000 10.013 L 16.000 5.013 14.000 5.013 L 12.000 5.013 12.000 3.013 L 12.000 1.013 11.493 1.013 L 10.987 1.013 10.987 3.013 L 10.987 5.013 8.000 5.013 L 5.013 5.013 5.013 3.013 L 5.013 1.013 4.507 1.013 L 4.000 1.013 4.000 3.013 M14.987 6.928 L 14.987 7.857 14.687 8.106 C 13.945 8.724,13.346 8.988,12.680 8.991 C 11.989 8.994,11.397 8.737,10.640 8.104 C 10.486 7.975,10.350 7.868,10.337 7.865 C 10.325 7.862,10.193 7.962,10.044 8.087 C 9.282 8.724,8.683 8.989,8.000 8.991 C 7.323 8.993,6.681 8.707,5.933 8.072 C 5.709 7.881,5.660 7.850,5.627 7.879 C 5.605 7.897,5.468 8.012,5.323 8.133 C 3.922 9.301,2.690 9.284,1.273 8.077 L 1.013 7.855 1.013 6.928 L 1.013 6.000 8.000 6.000 L 14.987 6.000 14.987 6.928 M5.885 9.290 C 6.333 9.599,6.855 9.827,7.361 9.936 C 7.642 9.997,8.297 10.004,8.573 9.950 C 9.070 9.853,9.603 9.629,10.065 9.323 L 10.330 9.147 10.618 9.335 C 11.972 10.218,13.394 10.215,14.727 9.327 L 14.987 9.154 14.987 11.577 L 14.987 14.000 8.000 14.000 L 1.013 14.000 1.013 11.587 C 1.013 10.259,1.019 9.173,1.026 9.173 C 1.033 9.173,1.158 9.252,1.305 9.348 C 2.297 9.998,3.347 10.160,4.387 9.823 C 4.695 9.723,5.152 9.496,5.413 9.312 C 5.538 9.224,5.648 9.151,5.658 9.149 C 5.668 9.148,5.770 9.211,5.885 9.290 " fill="#455065" stroke="none" fill-rule="evenodd"></path></svg>