<svg width="24" height="24" viewBox="0 0 24 24" fill="none" xmlns="http://www.w3.org/2000/svg"><path d="M7.000 4.500 L 7.000 7.000 4.000 7.000 L 1.000 7.000 1.000 14.500 L 1.000 22.000 12.000 22.000 L 23.000 22.000 23.000 14.500 L 23.000 7.000 20.000 7.000 L 17.000 7.000 17.000 4.500 L 17.000 2.000 16.500 2.000 L 16.000 2.000 16.000 4.500 L 16.000 7.000 12.000 7.000 L 8.000 7.000 8.000 4.500 L 8.000 2.000 7.500 2.000 L 7.000 2.000 7.000 4.500 M22.000 9.957 L 22.000 11.914 21.770 12.053 C 21.112 12.449,20.340 12.759,19.640 12.907 C 19.117 13.018,18.149 13.008,17.600 12.886 C 16.932 12.738,16.279 12.474,15.593 12.075 L 15.326 11.920 15.013 12.106 C 14.380 12.482,13.633 12.774,12.963 12.909 C 12.483 13.006,11.464 13.003,11.001 12.904 C 10.344 12.763,9.586 12.463,8.985 12.105 L 8.670 11.918 8.365 12.097 C 7.713 12.479,7.002 12.760,6.310 12.908 C 5.849 13.007,4.829 13.007,4.360 12.907 C 3.660 12.759,2.888 12.449,2.230 12.053 L 2.000 11.914 2.000 9.957 L 2.000 8.000 12.000 8.000 L 22.000 8.000 22.000 9.957 M3.300 13.652 C 4.030 13.903,4.519 13.980,5.360 13.977 C 5.969 13.975,6.175 13.959,6.520 13.885 C 7.091 13.763,7.674 13.564,8.225 13.302 L 8.686 13.083 8.893 13.198 C 9.152 13.343,9.681 13.561,10.100 13.696 C 11.681 14.204,13.354 14.059,14.931 13.280 L 15.323 13.086 15.771 13.301 C 16.305 13.557,16.904 13.762,17.480 13.885 C 18.087 14.015,19.233 14.015,19.840 13.885 C 20.416 13.762,21.015 13.557,21.550 13.301 L 22.000 13.085 22.000 17.042 L 22.000 21.000 12.000 21.000 L 2.000 21.000 2.000 17.042 L 2.000 13.085 2.450 13.300 C 2.698 13.418,3.080 13.576,3.300 13.652 " fill="#455065" stroke="none" fill-rule="evenodd"></path></svg>