<?xml version="1.0" encoding="UTF-8"?>
<svg width="24px" height="24px" viewBox="0 0 24 24" version="1.1" xmlns="http://www.w3.org/2000/svg" xmlns:xlink="http://www.w3.org/1999/xlink">
    <!-- Generator: sketchtool 54.1 (76490) - https://sketchapp.com -->
    <title>fd9b44c0-0f27-49e7-ab0a-49b8b8ecbb59@1.00x</title>
    <desc>Created with sketchtool.</desc>
    <defs>
        <path d="M5,4 L5,2 L6,2 L6,4 L18,4 L18,2 L19,2 L19,4 L24,4 L24,22 L0,22 L0,4 L5,4 Z M5,5 L1,5 L1,9 L23,9 L23,5 L19,5 L19,7 L18,7 L18,5 L6,5 L6,7 L5,7 L5,5 Z M23,10 L1,10 L1,21 L23,21 L23,10 Z" id="path-1"></path>
    </defs>
    <g id="Symbols" stroke="none" stroke-width="1" fill="none" fill-rule="evenodd">
        <g id="Icons-/-Contact-Interview-/-24-/-Calendar">
            <mask id="mask-2" fill="white">
                <use xlink:href="#path-1"></use>
            </mask>
            <use id="Combined-Shape" fill="#000000" fill-rule="nonzero" xlink:href="#path-1"></use>
            <g id="Colors-/-Black" mask="url(#mask-2)" fill="#000000">
                <rect id="Rectangle" x="0" y="0" width="24" height="24"></rect>
            </g>
        </g>
    </g>
</svg>