<svg width="16" height="16" viewBox="0 0 16 16" fill="none" xmlns="http://www.w3.org/2000/svg"><path d="M5.640 0.296 C 4.192 0.472,2.859 1.128,1.832 2.169 C 0.882 3.133,0.279 4.347,0.062 5.735 C -0.004 6.161,-0.004 7.118,0.062 7.547 C 0.383 9.618,1.618 11.353,3.451 12.309 C 4.379 12.793,5.321 13.022,6.387 13.022 C 6.995 13.022,7.452 12.965,7.973 12.824 C 8.142 12.778,8.307 12.735,8.339 12.727 L 8.399 12.714 8.406 13.176 L 8.413 13.638 10.293 14.726 C 11.327 15.324,12.185 15.813,12.200 15.813 C 12.215 15.813,13.073 15.324,14.107 14.726 L 15.987 13.638 15.993 11.439 L 15.999 9.240 14.380 8.304 L 12.760 7.368 12.769 6.824 C 12.783 5.975,12.694 5.360,12.449 4.627 C 11.670 2.286,9.625 0.611,7.174 0.305 C 6.841 0.263,5.951 0.258,5.640 0.296 M6.928 1.281 C 8.768 1.477,10.357 2.566,11.192 4.203 C 11.448 4.703,11.631 5.279,11.721 5.867 C 11.767 6.165,11.785 7.024,11.749 7.213 L 11.729 7.320 10.065 8.280 L 8.401 9.240 8.400 10.442 L 8.400 11.645 8.153 11.729 C 7.144 12.072,6.098 12.120,5.090 11.867 C 2.920 11.325,1.317 9.509,1.041 7.281 C 1.005 6.990,1.005 6.290,1.041 5.999 C 1.192 4.782,1.725 3.691,2.595 2.821 C 3.721 1.695,5.357 1.113,6.928 1.281 M4.367 4.633 L 4.027 4.973 4.860 5.807 L 5.693 6.640 4.860 7.474 L 4.026 8.307 4.367 8.647 C 4.554 8.834,4.719 8.987,4.734 8.987 C 4.748 8.987,5.129 8.618,5.580 8.167 L 6.400 7.347 7.227 8.173 L 8.053 9.000 8.407 8.647 L 8.760 8.293 7.933 7.467 L 7.107 6.640 7.933 5.813 L 8.760 4.987 8.407 4.633 L 8.053 4.280 7.227 5.107 L 6.400 5.933 5.580 5.113 C 5.129 4.662,4.748 4.293,4.733 4.293 C 4.718 4.293,4.553 4.446,4.367 4.633 M13.342 8.860 C 13.956 9.216,14.458 9.518,14.459 9.532 C 14.459 9.546,14.326 9.634,14.164 9.727 L 13.868 9.897 12.721 9.236 C 12.090 8.873,11.583 8.567,11.593 8.557 C 11.630 8.521,12.173 8.215,12.200 8.214 C 12.215 8.214,12.729 8.505,13.342 8.860 M11.705 9.805 C 12.335 10.168,12.844 10.473,12.838 10.483 C 12.831 10.494,12.687 10.583,12.516 10.681 C 12.257 10.829,12.197 10.854,12.150 10.831 C 11.950 10.735,9.941 9.552,9.942 9.532 C 9.944 9.513,10.503 9.163,10.554 9.149 C 10.558 9.148,11.076 9.443,11.705 9.805 M10.573 11.077 L 11.693 11.727 11.700 13.050 C 11.704 13.778,11.701 14.373,11.694 14.373 C 11.687 14.373,11.171 14.078,10.547 13.717 L 9.413 13.061 9.413 11.744 C 9.413 11.019,9.422 10.427,9.433 10.427 C 9.444 10.427,9.957 10.720,10.573 11.077 M14.987 11.744 L 14.987 13.061 13.853 13.717 C 13.229 14.078,12.713 14.373,12.706 14.373 C 12.699 14.373,12.696 13.778,12.700 13.050 L 12.707 11.727 13.827 11.077 C 14.443 10.720,14.956 10.427,14.967 10.427 C 14.978 10.427,14.987 11.019,14.987 11.744 " fill="#455065" stroke="none" fill-rule="evenodd"></path></svg>