<?xml version="1.0" encoding="UTF-8"?>
<svg width="24px" height="24px" viewBox="0 0 24 24" version="1.1" xmlns="http://www.w3.org/2000/svg" xmlns:xlink="http://www.w3.org/1999/xlink">
    <!-- Generator: sketchtool 54.1 (76490) - https://sketchapp.com -->
    <title>2ad25f48-8df5-41d6-a5e8-9176fca173c0@1.00x</title>
    <desc>Created with sketchtool.</desc>
    <defs>
        <path d="M11,16 L12,16 L12,17 L19,17 L19,19.5857864 L21.5857864,17 L23,17 L23,9 L19,9 L19,8 L24,8 L24,18 L22,18 L18,22 L18,18 L11,18 L11,16 Z M0,2 L18,2 L18,15 L7,15 L7,19 L3,15 L0,15 L0,2 Z M1,3 L1,14 L3.41421356,14 L6,16.5857864 L6,14 L17,14 L17,3 L1,3 Z" id="path-1"></path>
    </defs>
    <g id="Symbols" stroke="none" stroke-width="1" fill="none" fill-rule="evenodd">
        <g id="Icons-/-Video-Call-/-24-/-Chat">
            <mask id="mask-2" fill="white">
                <use xlink:href="#path-1"></use>
            </mask>
            <use id="Combined-Shape" fill="#000000" fill-rule="nonzero" xlink:href="#path-1"></use>
            <g id="Colors-/-Black" mask="url(#mask-2)" fill="#000000">
                <rect id="Rectangle" x="0" y="0" width="24" height="24"></rect>
            </g>
        </g>
    </g>
</svg>