<?xml version="1.0" encoding="UTF-8"?>
<svg width="16px" height="16px" viewBox="0 0 16 16" version="1.1" xmlns="http://www.w3.org/2000/svg" xmlns:xlink="http://www.w3.org/1999/xlink">
    <!-- Generator: sketchtool 54.1 (76490) - https://sketchapp.com -->
    <title>db1a1043-22f4-4a32-9bae-cd03ddf4e398@1.00x</title>
    <desc>Created with sketchtool.</desc>
    <defs>
        <path d="M13,5 L16,5 L16,12 L15,12 L12,15 L12,12 L7,12 L7,10 L8,10 L8,11 L13,11 L13,12.5857864 L14.5857864,11 L15,11 L15,6 L13,6 L13,5 Z M0,1 L12,1 L12,9 L5,9 L5,12 L2,9 L0,9 L0,1 Z M1,2 L1,8 L2.41421356,8 L4,9.58578644 L4,8 L11,8 L11,2 L1,2 Z" id="path-1"></path>
    </defs>
    <g id="Symbols" stroke="none" stroke-width="1" fill="none" fill-rule="evenodd">
        <g id="Icons-/-Video-Call-/-16-/-Chat">
            <mask id="mask-2" fill="white">
                <use xlink:href="#path-1"></use>
            </mask>
            <use id="Combined-Shape" fill="#000000" fill-rule="nonzero" xlink:href="#path-1"></use>
            <g id="Colors-/-Black" mask="url(#mask-2)" fill="#000000">
                <rect id="Rectangle" x="0" y="0" width="16" height="16"></rect>
            </g>
        </g>
    </g>
</svg>