<svg width="16" height="16" viewBox="0 0 16 16" fill="none" xmlns="http://www.w3.org/2000/svg"><path d="M8.373 0.016 C 7.862 0.076,7.386 0.213,6.987 0.413 C 6.693 0.561,6.588 0.627,6.319 0.831 L 6.118 0.984 5.885 0.904 C 5.469 0.761,5.160 0.712,4.653 0.711 C 4.117 0.709,3.846 0.751,3.373 0.909 C 2.221 1.294,1.305 2.212,0.920 3.369 C 0.761 3.848,0.733 4.033,0.734 4.627 C 0.734 5.215,0.757 5.372,0.914 5.842 L 1.002 6.103 0.873 6.258 C 0.573 6.619,0.294 7.159,0.149 7.660 C -0.162 8.737,0.026 9.933,0.658 10.892 C 0.888 11.241,1.383 11.739,1.730 11.969 C 2.838 12.706,4.211 12.842,5.424 12.334 L 5.640 12.244 6.733 13.335 L 7.827 14.427 11.133 11.120 L 14.440 7.813 13.344 6.713 L 12.248 5.613 12.349 5.373 C 12.598 4.783,12.690 4.069,12.601 3.413 C 12.422 2.099,11.641 1.005,10.457 0.415 C 10.147 0.260,9.741 0.122,9.427 0.066 C 9.192 0.024,8.558 -0.006,8.373 0.016 M9.441 1.090 C 10.277 1.318,10.952 1.867,11.326 2.622 C 11.535 3.044,11.627 3.447,11.626 3.930 C 11.624 4.457,11.542 4.766,11.228 5.425 L 11.038 5.824 12.032 6.819 L 13.026 7.813 10.427 10.413 L 7.827 13.013 6.835 12.021 L 5.842 11.029 5.421 11.233 C 4.775 11.546,4.460 11.632,3.947 11.634 C 3.159 11.638,2.478 11.369,1.913 10.830 C 1.318 10.262,1.013 9.549,1.013 8.725 C 1.013 8.231,1.098 7.860,1.310 7.433 C 1.450 7.150,1.583 6.960,1.859 6.650 C 1.988 6.505,2.109 6.366,2.129 6.341 C 2.159 6.303,2.142 6.240,2.005 5.901 C 1.918 5.684,1.826 5.425,1.801 5.324 C 1.466 3.963,2.148 2.548,3.422 1.960 C 3.534 1.908,3.742 1.833,3.886 1.793 C 4.128 1.726,4.182 1.721,4.640 1.722 C 5.214 1.723,5.324 1.746,5.918 1.987 C 6.117 2.067,6.293 2.133,6.309 2.133 C 6.325 2.133,6.469 2.018,6.629 1.877 C 6.970 1.576,7.136 1.459,7.427 1.314 C 7.671 1.192,7.913 1.108,8.177 1.053 C 8.449 0.996,9.174 1.018,9.441 1.090 M11.966 11.967 L 8.666 15.267 9.020 15.620 L 9.374 15.973 12.680 12.667 L 15.986 9.360 15.640 9.014 C 15.450 8.823,15.288 8.667,15.280 8.667 C 15.273 8.667,13.782 10.152,11.966 11.967 " fill="#455065" stroke="none" fill-rule="evenodd"></path></svg>