<svg width="24" height="24" viewBox="0 0 24 24" fill="none" xmlns="http://www.w3.org/2000/svg"><path d="M12.780 1.025 C 11.725 1.139,10.636 1.602,9.849 2.269 C 9.712 2.385,9.613 2.441,9.569 2.427 C 9.531 2.415,9.344 2.351,9.154 2.284 C 8.580 2.085,8.178 2.023,7.440 2.022 C 6.961 2.022,6.687 2.041,6.440 2.093 C 4.436 2.511,2.937 3.829,2.299 5.736 C 2.109 6.303,2.029 6.803,2.031 7.420 C 2.032 8.056,2.114 8.551,2.317 9.153 L 2.470 9.605 2.292 9.813 C 1.082 11.220,0.690 13.234,1.279 15.005 C 1.460 15.550,1.609 15.859,1.901 16.301 C 2.678 17.476,3.889 18.302,5.304 18.621 C 5.677 18.705,6.777 18.743,7.160 18.684 C 7.586 18.619,8.161 18.453,8.580 18.274 L 8.940 18.120 10.480 19.658 L 12.020 21.195 16.633 16.608 L 21.245 12.020 19.687 10.465 L 18.130 8.910 18.290 8.527 C 18.378 8.316,18.504 7.936,18.571 7.682 C 18.686 7.248,18.694 7.174,18.697 6.460 C 18.700 5.802,18.687 5.643,18.607 5.280 C 18.366 4.199,17.863 3.301,17.065 2.529 C 16.077 1.573,14.838 1.054,13.460 1.021 C 13.174 1.014,12.868 1.016,12.780 1.025 M14.363 2.135 C 15.596 2.448,16.587 3.214,17.194 4.324 C 17.753 5.345,17.871 6.679,17.500 7.783 C 17.446 7.944,17.290 8.313,17.152 8.604 L 16.901 9.134 18.361 10.567 L 19.820 12.000 15.920 15.900 L 12.020 19.800 10.572 18.352 L 9.123 16.903 8.571 17.170 C 7.629 17.625,7.102 17.745,6.209 17.708 C 5.539 17.681,5.085 17.568,4.494 17.280 C 2.292 16.209,1.387 13.575,2.465 11.373 C 2.668 10.958,2.916 10.609,3.346 10.133 L 3.642 9.806 3.437 9.293 C 3.147 8.566,3.079 8.274,3.052 7.635 C 3.015 6.751,3.144 6.139,3.524 5.400 C 4.188 4.108,5.403 3.250,6.860 3.042 C 7.653 2.928,8.397 3.039,9.298 3.406 C 9.560 3.513,9.791 3.600,9.810 3.600 C 9.829 3.600,10.010 3.453,10.213 3.274 C 11.027 2.551,11.808 2.171,12.740 2.043 C 13.188 1.981,13.923 2.023,14.363 2.135 M17.650 17.650 L 13.159 22.141 13.510 22.490 L 13.861 22.839 18.360 18.340 L 22.859 13.841 22.520 13.500 C 22.334 13.313,22.172 13.160,22.161 13.160 C 22.149 13.160,20.119 15.181,17.650 17.650 " fill="#455065" stroke="none" fill-rule="evenodd"></path></svg>