<svg width="16" height="16" viewBox="0 0 16 16" fill="none" xmlns="http://www.w3.org/2000/svg"><path d="M1.133 1.147 L 0.787 1.494 3.787 4.494 L 6.787 7.493 3.787 10.493 L 0.787 13.493 1.147 13.853 L 1.506 14.214 4.860 10.860 L 8.213 7.507 4.860 4.153 C 3.016 2.309,1.501 0.800,1.493 0.800 C 1.485 0.800,1.324 0.956,1.133 1.147 M8.147 1.147 L 7.800 1.494 10.800 4.494 L 13.800 7.493 10.800 10.493 L 7.800 13.493 8.153 13.847 L 8.507 14.200 11.853 10.853 L 15.200 7.507 11.846 4.153 L 8.493 0.800 8.147 1.147 " fill="#455065" stroke="none" fill-rule="evenodd"></path></svg>