<svg fill="none" xmlns="http://www.w3.org/2000/svg" viewBox="0 0 24 24">
  <g clip-path="url(#a)">
    <path fill-rule="evenodd" clip-rule="evenodd" d="M23.5 3H16v1h7v16H1V10H0v11h24V3h-.5Zm-18.35355.14645-4.500003 4.5L.292893 8l.353554.35355L5.14645 12.8536l.7071-.7072L1.70711 8l4.14644-4.14645-.7071-.7071ZM16.264 7.99882l-4.1188-4.14645.7095-.70474 4.47 4.5.3512.35355-.3524.35237-4.5 4.50005-.7071-.7072 4.1476-4.14758ZM7.97434 12.6581l2.99996-8.99999-.9486-.31622-3.00004 9.00001.94868.3162Z" fill="#455065"/>
  </g>
  <defs>
    <clipPath id="a">
      <path fill="#fff" d="M0 0h24v24H0z"/>
    </clipPath>
  </defs>
</svg>
