<svg width="24" height="24" viewBox="0 0 24 24" fill="none" xmlns="http://www.w3.org/2000/svg"><path d="M1.750 1.750 L 1.400 2.100 4.850 5.550 L 8.300 9.000 5.650 9.000 L 3.000 9.000 3.000 9.500 L 3.000 10.000 6.500 10.000 L 10.000 10.000 10.000 6.500 L 10.000 3.000 9.500 3.000 L 9.000 3.000 9.000 5.650 L 9.000 8.300 5.550 4.850 L 2.100 1.400 1.750 1.750 M18.450 4.850 L 15.000 8.300 15.000 5.650 L 15.000 3.000 14.500 3.000 L 14.000 3.000 14.000 6.500 L 14.000 10.000 17.500 10.000 L 21.000 10.000 21.000 9.500 L 21.000 9.000 18.350 9.000 L 15.700 9.000 19.150 5.550 L 22.601 2.099 22.250 1.750 L 21.899 1.401 18.450 4.850 M3.000 14.500 L 3.000 15.000 5.650 15.000 L 8.300 15.000 4.850 18.450 L 1.400 21.900 1.750 22.250 L 2.100 22.600 5.550 19.150 L 9.000 15.700 9.000 18.350 L 9.000 21.000 9.500 21.000 L 10.000 21.000 10.000 17.500 L 10.000 14.000 6.500 14.000 L 3.000 14.000 3.000 14.500 M14.000 17.500 L 14.000 21.000 14.500 21.000 L 15.000 21.000 15.000 18.350 L 15.000 15.700 18.450 19.150 L 21.900 22.600 22.250 22.250 L 22.600 21.900 19.150 18.450 L 15.700 15.000 18.350 15.000 L 21.000 15.000 21.000 14.500 L 21.000 14.000 17.500 14.000 L 14.000 14.000 14.000 17.500 " stroke="none" fill-rule="evenodd" fill="black"></path></svg>