<svg width="16" height="16" viewBox="0 0 16 16" fill="none" xmlns="http://www.w3.org/2000/svg"><path d="M1.500 1.500 L 1.147 1.853 3.220 3.927 L 5.293 6.000 3.647 6.000 L 2.000 6.000 2.000 6.493 L 2.000 6.987 4.493 6.987 L 6.987 6.987 6.987 4.493 L 6.987 2.000 6.493 2.000 L 6.000 2.000 6.000 3.647 L 6.000 5.293 3.927 3.220 L 1.853 1.147 1.500 1.500 M12.073 3.220 L 10.000 5.293 10.000 3.647 L 10.000 2.000 9.507 2.000 L 9.013 2.000 9.013 4.493 L 9.013 6.987 11.507 6.987 L 14.000 6.987 14.000 6.493 L 14.000 6.000 12.353 6.000 L 10.707 6.000 12.780 3.926 L 14.854 1.853 14.500 1.500 L 14.146 1.147 12.073 3.220 M2.000 9.507 L 2.000 10.000 3.647 10.000 L 5.293 10.000 3.220 12.073 L 1.147 14.147 1.500 14.500 L 1.853 14.853 3.927 12.780 L 6.000 10.707 6.000 12.353 L 6.000 14.000 6.493 14.000 L 6.987 14.000 6.987 11.507 L 6.987 9.013 4.493 9.013 L 2.000 9.013 2.000 9.507 M9.013 11.507 L 9.013 14.000 9.507 14.000 L 10.000 14.000 10.000 12.353 L 10.000 10.707 12.073 12.780 L 14.147 14.853 14.500 14.500 L 14.853 14.147 12.780 12.073 L 10.707 10.000 12.353 10.000 L 14.000 10.000 14.000 9.507 L 14.000 9.013 11.507 9.013 L 9.013 9.013 9.013 11.507 " stroke="none" fill-rule="evenodd" fill="black"></path></svg>