<svg width="16" height="16" viewBox="0 0 16 16" fill="none" xmlns="http://www.w3.org/2000/svg"><path d="M3.003 1.055 C 2.061 1.266,1.360 1.931,1.088 2.869 C 1.035 3.050,1.027 3.141,1.027 3.507 C 1.027 3.926,1.028 3.938,1.126 4.240 C 1.371 4.999,1.910 5.566,2.646 5.839 C 3.001 5.971,3.086 5.980,4.073 5.993 L 5.013 6.005 5.013 8.000 L 5.013 9.995 4.073 10.007 C 3.083 10.020,3.002 10.028,2.640 10.163 C 2.001 10.400,1.424 10.954,1.195 11.551 C 1.051 11.928,1.029 12.048,1.028 12.493 C 1.027 12.861,1.035 12.949,1.088 13.131 C 1.299 13.861,1.758 14.417,2.413 14.734 C 2.820 14.932,3.011 14.973,3.507 14.973 C 3.926 14.973,3.938 14.972,4.240 14.874 C 4.999 14.629,5.566 14.090,5.839 13.354 C 5.971 12.999,5.980 12.914,5.993 11.927 L 6.005 10.987 8.000 10.987 L 9.995 10.987 10.007 11.927 C 10.020 12.914,10.029 12.999,10.161 13.354 C 10.434 14.090,11.001 14.629,11.760 14.874 C 12.062 14.972,12.073 14.973,12.493 14.973 C 12.990 14.972,13.183 14.930,13.587 14.734 C 14.242 14.417,14.702 13.860,14.912 13.131 C 14.964 12.951,14.973 12.857,14.973 12.493 C 14.973 12.073,14.972 12.062,14.874 11.760 C 14.629 11.001,14.090 10.434,13.354 10.161 C 12.999 10.029,12.914 10.020,11.927 10.007 L 10.987 9.995 10.987 8.000 L 10.987 6.005 11.927 5.993 C 12.914 5.980,12.999 5.971,13.354 5.839 C 14.090 5.566,14.629 4.999,14.874 4.240 C 14.972 3.938,14.973 3.927,14.973 3.507 C 14.973 3.143,14.964 3.049,14.912 2.869 C 14.702 2.140,14.242 1.583,13.587 1.266 C 13.179 1.068,12.989 1.026,12.493 1.028 C 12.048 1.029,11.928 1.051,11.551 1.195 C 10.954 1.424,10.400 2.001,10.163 2.640 C 10.028 3.002,10.020 3.083,10.007 4.073 L 9.995 5.013 8.000 5.013 L 6.005 5.013 5.993 4.073 C 5.980 3.086,5.971 3.001,5.839 2.646 C 5.568 1.915,4.999 1.372,4.253 1.130 C 3.983 1.042,3.929 1.034,3.573 1.024 C 3.290 1.017,3.138 1.025,3.003 1.055 M3.864 2.041 C 4.365 2.159,4.828 2.619,4.966 3.137 C 4.990 3.230,5.000 3.510,5.000 4.133 L 5.000 5.000 4.133 5.000 C 3.190 5.000,3.138 4.994,2.831 4.846 C 2.606 4.737,2.288 4.427,2.167 4.197 C 1.924 3.737,1.954 3.096,2.238 2.682 C 2.469 2.347,2.828 2.099,3.187 2.027 C 3.364 1.992,3.683 1.998,3.864 2.041 M13.020 2.089 C 13.310 2.199,13.575 2.412,13.762 2.682 C 14.046 3.096,14.076 3.737,13.833 4.197 C 13.712 4.427,13.394 4.737,13.169 4.846 C 12.862 4.994,12.810 5.000,11.867 5.000 L 11.000 5.000 11.000 4.133 C 11.000 3.510,11.010 3.230,11.034 3.137 C 11.170 2.627,11.628 2.166,12.124 2.041 C 12.365 1.979,12.792 2.002,13.020 2.089 M10.000 8.000 L 10.000 10.000 8.000 10.000 L 6.000 10.000 6.000 8.000 L 6.000 6.000 8.000 6.000 L 10.000 6.000 10.000 8.000 M5.000 11.867 C 5.000 12.810,4.994 12.862,4.846 13.169 C 4.737 13.394,4.427 13.712,4.197 13.833 C 3.737 14.076,3.096 14.046,2.682 13.762 C 2.533 13.659,2.341 13.467,2.238 13.318 C 1.956 12.907,1.924 12.260,2.164 11.810 C 2.385 11.396,2.833 11.071,3.263 11.015 C 3.353 11.003,3.781 10.995,4.213 10.997 L 5.000 11.000 5.000 11.867 M12.907 11.045 C 13.173 11.133,13.348 11.241,13.547 11.440 C 13.888 11.781,14.017 12.114,13.992 12.587 C 13.966 13.069,13.733 13.476,13.318 13.762 C 12.904 14.046,12.263 14.076,11.803 13.833 C 11.583 13.717,11.263 13.394,11.162 13.187 C 11.009 12.870,11.006 12.851,10.993 11.926 C 10.987 11.453,10.989 11.047,10.997 11.024 C 11.012 10.986,11.108 10.983,11.900 10.993 C 12.590 11.002,12.813 11.014,12.907 11.045 " stroke="none" fill-rule="evenodd" fill="black"></path></svg>