<svg width="24" height="24" viewBox="0 0 24 24" fill="none" xmlns="http://www.w3.org/2000/svg"><path d="M4.933 2.056 C 3.915 2.251,3.148 2.747,2.600 3.566 C 2.195 4.172,2.028 4.736,2.028 5.500 C 2.028 6.265,2.195 6.828,2.603 7.438 C 3.143 8.246,3.958 8.768,4.950 8.941 C 5.206 8.985,5.627 9.000,6.645 9.000 L 8.000 9.000 8.000 11.997 L 8.000 14.994 6.490 15.010 C 4.863 15.026,4.804 15.033,4.152 15.279 C 3.849 15.393,3.363 15.714,3.069 15.994 C 2.784 16.266,2.402 16.824,2.281 17.146 C 2.080 17.679,2.028 17.958,2.028 18.500 C 2.028 19.265,2.195 19.828,2.603 20.438 C 3.318 21.508,4.633 22.123,5.868 21.967 C 7.470 21.765,8.665 20.631,8.940 19.052 C 8.985 18.794,9.000 18.376,9.000 17.355 L 9.000 16.000 11.997 16.000 L 14.994 16.000 15.010 17.510 C 15.026 19.139,15.033 19.196,15.281 19.854 C 15.407 20.189,15.795 20.748,16.096 21.031 C 16.842 21.728,17.931 22.093,18.887 21.966 C 19.714 21.856,20.394 21.526,20.960 20.960 C 21.530 20.390,21.862 19.700,21.967 18.870 C 22.087 17.917,21.723 16.836,21.031 16.096 C 20.748 15.795,20.189 15.407,19.854 15.281 C 19.196 15.033,19.139 15.026,17.510 15.010 L 16.000 14.994 16.000 11.997 L 16.000 9.000 17.355 9.000 C 18.376 9.000,18.794 8.985,19.052 8.940 C 20.624 8.666,21.753 7.483,21.966 5.885 C 22.092 4.935,21.725 3.838,21.031 3.096 C 20.748 2.795,20.189 2.407,19.854 2.281 C 19.321 2.080,19.042 2.028,18.500 2.028 C 17.736 2.028,17.172 2.195,16.566 2.600 C 15.819 3.100,15.372 3.739,15.109 4.680 C 15.032 4.955,15.024 5.108,15.010 6.490 L 14.994 8.000 11.997 8.000 L 9.000 8.000 9.000 6.645 C 9.000 5.621,8.985 5.207,8.940 4.946 C 8.648 3.270,7.312 2.092,5.620 2.019 C 5.374 2.008,5.109 2.023,4.933 2.056 M6.136 3.079 C 6.580 3.192,6.894 3.374,7.244 3.720 C 7.602 4.074,7.808 4.420,7.920 4.860 C 7.993 5.144,8.000 5.304,8.000 6.586 L 8.000 8.000 6.586 8.000 C 5.310 8.000,5.143 7.992,4.864 7.921 C 4.407 7.804,4.107 7.628,3.739 7.261 C 3.372 6.893,3.196 6.593,3.079 6.136 C 2.926 5.539,3.006 4.844,3.288 4.307 C 3.461 3.981,3.981 3.461,4.308 3.288 C 4.845 3.005,5.538 2.926,6.136 3.079 M19.136 3.079 C 19.306 3.122,19.556 3.217,19.693 3.288 C 20.019 3.461,20.539 3.981,20.712 4.307 C 21.098 5.040,21.091 6.002,20.693 6.716 C 20.505 7.054,20.054 7.505,19.716 7.693 C 19.212 7.974,19.015 8.000,17.414 8.000 L 16.000 8.000 16.000 6.586 C 16.000 5.005,16.025 4.807,16.288 4.307 C 16.461 3.981,16.981 3.461,17.308 3.288 C 17.845 3.005,18.538 2.926,19.136 3.079 M15.000 12.000 L 15.000 15.000 12.000 15.000 L 9.000 15.000 9.000 12.000 L 9.000 9.000 12.000 9.000 L 15.000 9.000 15.000 12.000 M8.000 17.414 C 8.000 19.014,7.974 19.211,7.694 19.716 C 7.507 20.054,7.020 20.538,6.693 20.711 C 5.975 21.091,5.027 21.091,4.307 20.712 C 3.981 20.539,3.461 20.019,3.288 19.693 C 3.006 19.156,2.926 18.461,3.079 17.864 C 3.196 17.407,3.372 17.107,3.739 16.739 C 4.102 16.377,4.405 16.197,4.848 16.081 C 5.108 16.013,5.295 16.004,6.570 16.002 L 8.000 16.000 8.000 17.414 M19.136 16.079 C 19.306 16.122,19.556 16.217,19.693 16.288 C 20.019 16.461,20.539 16.981,20.712 17.307 C 21.098 18.040,21.091 19.000,20.694 19.716 C 20.507 20.054,20.020 20.538,19.693 20.711 C 18.975 21.091,18.027 21.091,17.307 20.712 C 16.981 20.539,16.461 20.019,16.288 19.693 C 16.025 19.193,16.000 18.995,16.000 17.414 L 16.000 16.000 17.414 16.000 C 18.690 16.000,18.857 16.008,19.136 16.079 " stroke="none" fill-rule="evenodd" fill="black"></path></svg>