<?xml version="1.0" encoding="UTF-8"?>
<svg width="16px" height="16px" viewBox="0 0 16 16" version="1.1" xmlns="http://www.w3.org/2000/svg" xmlns:xlink="http://www.w3.org/1999/xlink">
    <!-- Generator: sketchtool 59 (101010) - https://sketch.com -->
    <title>9d33a442-47d8-4969-99ae-610a886eca01@1.00x</title>
    <desc>Created with sketchtool.</desc>
    <defs>
        <path d="M8,0 L8,9 L16,9 L16,16 L0,16 L0,0 L8,0 Z M7,1 L1,1 L1,15 L7,15 L7,1 Z M15,10 L8,10 L8,15 L15,15 L15,10 Z M5,12 L5,13 L3,13 L3,12 L5,12 Z M13,12 L13,13 L10,13 L10,12 L13,12 Z M5,9 L5,10 L3,10 L3,9 L5,9 Z M5,6 L5,7 L3,7 L3,6 L5,6 Z M5,3 L5,4 L3,4 L3,3 L5,3 Z" id="path-1"></path>
    </defs>
    <g id="Symbols" stroke="none" stroke-width="1" fill="none" fill-rule="evenodd">
        <g id="Icons-/-General-/-16-/-Company">
            <mask id="mask-2" fill="white">
                <use xlink:href="#path-1"></use>
            </mask>
            <use id="Combined-Shape" fill="#455065" fill-rule="nonzero" xlink:href="#path-1"></use>
            <g id="Colors-/-305-Dark-Grey" mask="url(#mask-2)" fill="#455065">
                <rect id="Rectangle" x="0" y="0" width="16" height="16"></rect>
            </g>
        </g>
    </g>
</svg>