<svg width="24" height="24" viewBox="0 0 24 24" xmlns="http://www.w3.org/2000/svg"><title>  Combined Shape Copy</title><g fill="none"><path d="M0.9 17.6C5.2 10.5 10.9 10.3 17.6 13.5 17.9 13.6 18.1 13.7 18.3 13.8L19 14.1C20.4 14.8 21.8 15.5 22.6 15.9 22.9 16 23.1 16.5 22.9 16.9L22.9 16.9 20.6 22.2C20.4 22.6 20 22.7 19.6 22.6L19.6 22.6 14.6 20.2C11.1 18.5 9.1 18.2 7.1 21.4 6.8 21.9 6.6 22.3 6.4 22.6 6.2 23 5.7 23.1 5.3 22.9L5.3 22.9 0.4 19.8C0 19.6-0.1 19.2 0.1 18.8 0.3 18.4 0.6 18 0.9 17.6ZM17.6 0.4C17.8 0 18.3-0.1 18.7 0.1L18.7 0.1 23.6 3.2C24 3.4 24.1 3.8 23.9 4.2 23.7 4.6 23.4 5 23.1 5.4 18.8 12.5 13.1 12.7 6.4 9.5 4.5 8.6 2.5 7.6 1.4 7.1 1.1 7 0.9 6.5 1.1 6.1L1.1 6.1 3.4 0.8C3.6 0.4 4 0.3 4.4 0.4L4.4 0.4 9.4 2.8C12.9 4.5 14.9 4.8 16.9 1.6 17.2 1.1 17.4 0.7 17.6 0.4Z"/></g></svg>