<svg width="24" height="24" viewBox="0 0 24 24" fill="none" xmlns="http://www.w3.org/2000/svg"><path d="M11.002 0.045 C 6.966 0.377,3.318 2.780,1.401 6.371 C 0.596 7.879,0.097 9.701,0.015 11.425 L -0.012 12.000 0.488 12.000 L 0.988 12.000 1.016 11.490 C 1.204 7.985,2.952 4.865,5.820 2.912 C 8.178 1.307,11.038 0.684,13.853 1.163 C 16.109 1.546,18.115 2.590,19.762 4.238 C 20.301 4.776,20.995 5.611,21.159 5.918 C 21.203 6.000,21.200 6.000,20.101 6.000 L 19.000 6.000 19.000 6.500 L 19.000 7.000 21.000 7.000 L 23.000 7.000 23.000 5.000 L 23.000 3.000 22.501 3.000 L 22.001 3.000 21.991 4.169 L 21.980 5.338 21.783 5.059 C 20.398 3.099,18.331 1.529,16.060 0.712 C 14.475 0.141,12.694 -0.093,11.002 0.045 M10.000 6.000 L 10.000 7.000 8.500 7.000 L 7.000 7.000 7.000 8.500 L 7.000 10.000 6.000 10.000 L 5.000 10.000 5.000 10.500 L 5.000 11.000 6.000 11.000 L 7.000 11.000 7.000 12.000 L 7.000 13.000 6.000 13.000 L 5.000 13.000 5.000 13.500 L 5.000 14.000 6.000 14.000 L 7.000 14.000 7.000 15.500 L 7.000 17.000 8.500 17.000 L 10.000 17.000 10.000 18.000 L 10.000 19.000 10.500 19.000 L 11.000 19.000 11.000 18.000 L 11.000 17.000 12.000 17.000 L 13.000 17.000 13.000 18.000 L 13.000 19.000 13.500 19.000 L 14.000 19.000 14.000 18.000 L 14.000 17.000 15.500 17.000 L 17.000 17.000 17.000 15.500 L 17.000 14.000 18.000 14.000 L 19.000 14.000 19.000 13.500 L 19.000 13.000 18.000 13.000 L 17.000 13.000 17.000 12.000 L 17.000 11.000 18.000 11.000 L 19.000 11.000 19.000 10.500 L 19.000 10.000 18.000 10.000 L 17.000 10.000 17.000 8.500 L 17.000 7.000 15.500 7.000 L 14.000 7.000 14.000 6.000 L 14.000 5.000 13.500 5.000 L 13.000 5.000 13.000 6.000 L 13.000 7.000 12.000 7.000 L 11.000 7.000 11.000 6.000 L 11.000 5.000 10.500 5.000 L 10.000 5.000 10.000 6.000 M16.000 12.000 L 16.000 16.000 12.000 16.000 L 8.000 16.000 8.000 12.000 L 8.000 8.000 12.000 8.000 L 16.000 8.000 16.000 12.000 M22.984 12.510 C 22.830 15.389,21.666 17.942,19.600 19.933 C 17.606 21.853,15.085 22.905,12.280 22.986 C 9.989 23.052,7.816 22.424,5.900 21.140 C 5.199 20.671,4.672 20.228,4.074 19.608 C 3.667 19.186,2.970 18.323,2.841 18.082 C 2.797 18.000,2.800 18.000,3.899 18.000 L 5.000 18.000 5.000 17.500 L 5.000 17.000 3.000 17.000 L 1.000 17.000 1.000 19.000 L 1.000 21.000 1.500 21.000 L 2.000 21.000 2.000 19.814 L 2.000 18.627 2.207 18.924 C 2.543 19.406,3.051 20.005,3.523 20.477 C 5.374 22.329,7.667 23.479,10.320 23.886 C 10.807 23.961,11.071 23.975,11.960 23.977 C 13.066 23.979,13.365 23.953,14.284 23.776 C 17.512 23.156,20.382 21.192,22.153 18.394 C 23.240 16.674,23.889 14.617,23.985 12.575 L 24.012 12.000 23.512 12.000 L 23.012 12.000 22.984 12.510 " fill="#455065" stroke="none" fill-rule="evenodd"></path></svg>