<svg width="16" height="16" viewBox="0 0 16 16" fill="none" xmlns="http://www.w3.org/2000/svg"><path d="M6.733 1.042 C 5.506 1.168,4.352 1.587,3.320 2.280 C 1.343 3.609,0.123 5.770,0.009 8.143 L -0.008 8.508 0.496 8.501 L 1.000 8.493 1.017 8.143 C 1.164 5.176,3.366 2.661,6.293 2.118 C 8.187 1.766,10.091 2.249,11.587 3.460 C 11.733 3.578,11.925 3.748,12.012 3.838 L 12.172 4.000 11.579 4.000 L 10.985 4.000 10.993 4.500 L 11.000 5.000 12.500 5.007 L 14.000 5.014 14.000 3.507 L 14.000 2.000 13.493 2.000 L 12.987 2.000 12.987 2.700 L 12.987 3.399 12.713 3.131 C 12.127 2.556,11.571 2.160,10.830 1.788 C 10.011 1.379,9.179 1.138,8.240 1.041 C 7.944 1.010,7.041 1.011,6.733 1.042 M6.000 5.507 L 6.000 6.000 5.493 6.000 L 4.987 6.000 4.987 6.507 L 4.987 7.013 4.493 7.013 L 4.000 7.013 4.000 7.507 L 4.000 8.000 4.493 8.000 L 4.987 8.000 4.987 8.507 L 4.987 9.013 4.493 9.013 L 4.000 9.013 4.000 9.507 L 4.000 10.000 4.493 10.000 L 4.985 10.000 4.993 10.500 L 5.000 11.000 5.500 11.007 L 6.000 11.015 6.000 11.507 L 6.000 12.000 6.507 12.000 L 7.013 12.000 7.013 11.507 L 7.013 11.013 7.507 11.013 L 8.000 11.013 8.000 11.507 L 8.000 12.000 8.507 12.000 L 9.013 12.000 9.013 11.507 L 9.013 11.013 9.507 11.013 L 10.000 11.013 10.000 10.507 L 10.000 10.000 10.507 10.000 L 11.013 10.000 11.013 9.507 L 11.013 9.013 10.507 9.013 L 10.000 9.013 10.000 8.507 L 10.000 8.000 10.507 8.000 L 11.013 8.000 11.013 7.507 L 11.013 7.013 10.507 7.013 L 10.000 7.013 10.000 6.507 L 10.000 6.000 9.507 6.000 L 9.013 6.000 9.013 5.507 L 9.013 5.013 8.507 5.013 L 8.000 5.013 8.000 5.507 L 8.000 6.000 7.507 6.000 L 7.013 6.000 7.013 5.507 L 7.013 5.013 6.507 5.013 L 6.000 5.013 6.000 5.507 M8.987 8.507 L 8.987 10.000 7.493 10.000 L 6.000 10.000 6.000 8.507 L 6.000 7.013 7.493 7.013 L 8.987 7.013 8.987 8.507 M13.979 8.927 C 13.910 9.860,13.726 10.545,13.320 11.376 C 12.506 13.043,10.973 14.304,9.189 14.776 C 7.164 15.310,5.038 14.860,3.427 13.554 C 3.280 13.435,3.088 13.265,3.001 13.176 L 2.842 13.013 3.421 13.013 L 4.000 13.013 4.000 12.507 L 4.000 12.000 2.493 12.000 L 0.986 12.000 0.993 13.500 L 1.000 15.000 1.500 15.007 L 2.000 15.015 2.000 14.302 L 2.000 13.590 2.300 13.884 C 4.153 15.701,6.872 16.420,9.387 15.757 C 10.717 15.407,11.824 14.768,12.800 13.789 C 13.455 13.132,13.830 12.609,14.227 11.800 C 14.703 10.831,14.949 9.860,14.995 8.767 L 15.006 8.507 14.508 8.507 L 14.010 8.507 13.979 8.927 " fill="#455065" stroke="none" fill-rule="evenodd"></path></svg>