<svg width="24" height="24" fill="none" xmlns="http://www.w3.org/2000/svg">
  <g clip-path="url(#a)">
    <path fill-rule="evenodd" clip-rule="evenodd" d="M1.64 5.21436c-.35964 0-.64.28605-.64.62519v2.32286h22V5.83955c0-.33914-.2804-.62519-.64-.62519H1.64ZM1 18.3944V9.16241h22v9.23199c0 .3391-.2804.6252-.64.6252H1.64c-.35964 0-.64-.2861-.64-.6252Zm23 0V5.83955c0-.90371-.7404-1.62519-1.64-1.62519H1.64c-.899565 0-1.64.72148-1.64 1.62519V18.3944c0 .9037.740435 1.6252 1.64 1.6252h20.72c.8996 0 1.64-.7215 1.64-1.6252ZM3 13.1105h7v-1H3v1Zm4 2.961H3v-1h4v1Zm10-2.961h4v-1h-4v1Z" fill="#455065"/>
  </g>
  <defs>
    <clipPath id="a">
      <path fill="#fff" transform="translate(0 .272705)" d="M0 0h24v23.6883H0z"/>
    </clipPath>
  </defs>
</svg>