<svg width="24" height="24" viewBox="0 0 24 24" fill="none" xmlns="http://www.w3.org/2000/svg">
<g id="Size=24" clip-path="url(#clip0_4197_206)">
<path id="Vector" fill-rule="evenodd" clip-rule="evenodd" d="M22.1079 11.6486L12.3558 1.89645C12.1605 1.70118 11.8439 1.70118 11.6486 1.89645L1.89651 11.6486C1.70125 11.8438 1.70125 12.1604 1.89651 12.3557L11.6486 22.1078C11.8439 22.3031 12.1605 22.3031 12.3558 22.1078L22.1079 12.3557C22.3031 12.1604 22.3031 11.8438 22.1079 11.6486ZM13.0629 1.18934C12.4771 0.603554 11.5273 0.603553 10.9415 1.18934L1.1894 10.9415C0.603615 11.5273 0.603614 12.477 1.1894 13.0628L10.9415 22.8149C11.5273 23.4007 12.4771 23.4007 13.0629 22.8149L22.815 13.0628C23.4008 12.477 23.4008 11.5273 22.815 10.9415L13.0629 1.18934ZM11.5 6.7746H12.5V15.4365H11.5V6.7746ZM12.5 16.8802H11.5V17.8802H12.5V16.8802Z" fill="#455065"/>
</g>
<defs>
<clipPath id="clip0_4197_206">
<rect width="24" height="24" fill="white"/>
</clipPath>
</defs>
</svg>
