<svg width="16" height="16" viewBox="0 0 16 16" fill="none" xmlns="http://www.w3.org/2000/svg">
<g id="Size=16" clip-path="url(#clip0_4197_237)">
<path id="Vector" fill-rule="evenodd" clip-rule="evenodd" d="M8.70853 0.792893C8.31801 0.402369 7.68484 0.402369 7.29432 0.792893L0.792893 7.29432C0.402369 7.68484 0.402369 8.31801 0.792893 8.70853L7.29432 15.21C7.68484 15.6005 8.31801 15.6005 8.70853 15.21L15.21 8.70853C15.6005 8.31801 15.6005 7.68484 15.21 7.29432L8.70853 0.792893ZM7.24997 4.75904C7.24997 4.34482 7.58576 4.00903 7.99997 4.00903C8.41418 4.00903 8.74997 4.34482 8.74997 4.75903V9.08004C8.74997 9.49425 8.41418 9.83004 7.99997 9.83004C7.58576 9.83004 7.24997 9.49425 7.24997 9.08004V4.75904ZM8.74997 12.0882C8.74997 12.5039 8.41418 12.8409 7.99997 12.8409C7.58576 12.8409 7.24997 12.5039 7.24997 12.0882C7.24997 11.6725 7.58576 11.3355 7.99997 11.3355C8.41418 11.3355 8.74997 11.6725 8.74997 12.0882Z" fill="#455065"/>
</g>
<defs>
<clipPath id="clip0_4197_237">
<rect width="16" height="16" fill="white"/>
</clipPath>
</defs>
</svg>
