<svg width="16" height="16" viewBox="0 0 16 16" fill="none" xmlns="http://www.w3.org/2000/svg">
<g id="Size=16" clip-path="url(#clip0_4197_213)">
<path id="Vector" fill-rule="evenodd" clip-rule="evenodd" d="M14.5028 8.00142L8.00142 1.5L1.5 8.00142L8.00142 14.5028L14.5028 8.00142ZM8.70853 0.792893C8.31801 0.402369 7.68484 0.402369 7.29432 0.792893L0.792893 7.29432C0.402369 7.68484 0.402369 8.31801 0.792893 8.70853L7.29432 15.21C7.68484 15.6005 8.31801 15.6005 8.70853 15.21L15.21 8.70853C15.6005 8.31801 15.6005 7.68484 15.21 7.29432L8.70853 0.792893ZM7.5 4H8.5V10H7.5V4ZM8.5 11H7.5V12H8.5V11Z" fill="#455065"/>
</g>
<defs>
<clipPath id="clip0_4197_213">
<rect width="16" height="16" fill="white"/>
</clipPath>
</defs>
</svg>
