<svg width="24" height="24" viewBox="0 0 24 24" fill="none" xmlns="http://www.w3.org/2000/svg">
<g id="Size=24" clip-path="url(#clip0_4197_231)">
<path id="Vector" fill-rule="evenodd" clip-rule="evenodd" d="M13.0629 1.18934C12.4771 0.603554 11.5273 0.603553 10.9415 1.18934L1.1894 10.9415C0.603615 11.5273 0.603614 12.477 1.1894 13.0628L10.9415 22.8149C11.5273 23.4007 12.4771 23.4007 13.0629 22.8149L22.815 13.0628C23.4008 12.477 23.4008 11.5273 22.815 10.9415L13.0629 1.18934ZM11 7.01355C11 6.46127 11.4477 6.01355 12 6.01355C12.5523 6.01355 13 6.46127 13 7.01355V14.0135C13 14.5658 12.5523 15.0135 12 15.0135C11.4477 15.0135 11 14.5658 11 14.0135V7.01355ZM13 18.0032C13 18.5555 12.5523 19.0032 12 19.0032C11.4477 19.0032 11 18.5555 11 18.0032C11 17.451 11.4477 17.0032 12 17.0032C12.5523 17.0032 13 17.451 13 18.0032Z" fill="#455065"/>
</g>
<defs>
<clipPath id="clip0_4197_231">
<rect width="24" height="24" fill="white"/>
</clipPath>
</defs>
</svg>
