<svg width="24" height="24" viewBox="0 0 24 24" fill="none" xmlns="http://www.w3.org/2000/svg"><path d="M0.000 12.000 L 0.000 19.000 12.000 19.000 L 24.000 19.000 24.000 12.000 L 24.000 5.000 12.000 5.000 L 0.000 5.000 0.000 12.000 M4.000 6.116 C 4.000 6.425,3.868 6.917,3.680 7.305 C 3.354 7.976,2.735 8.553,2.075 8.798 C 1.798 8.901,1.351 8.998,1.150 8.999 L 1.000 9.000 1.000 7.500 L 1.000 6.000 2.500 6.000 L 4.000 6.000 4.000 6.116 M19.000 6.184 C 19.000 6.471,19.150 7.137,19.298 7.502 C 19.686 8.466,20.534 9.314,21.498 9.702 C 21.863 9.850,22.529 10.000,22.816 10.000 L 23.000 10.000 23.000 11.994 L 23.000 13.989 22.690 14.016 C 21.377 14.132,20.225 14.852,19.550 15.980 C 19.259 16.467,19.000 17.331,19.000 17.816 L 19.000 18.000 12.000 18.000 L 5.000 18.000 5.000 17.816 C 5.000 17.529,4.850 16.863,4.702 16.498 C 4.432 15.826,3.865 15.117,3.285 14.723 C 2.703 14.328,2.001 14.077,1.310 14.016 L 1.000 13.989 1.000 11.994 L 1.000 10.000 1.184 10.000 C 1.471 10.000,2.137 9.850,2.502 9.702 C 3.466 9.314,4.314 8.466,4.702 7.502 C 4.850 7.137,5.000 6.471,5.000 6.184 L 5.000 6.000 12.000 6.000 L 19.000 6.000 19.000 6.184 M23.000 7.500 L 23.000 9.000 22.858 9.000 C 22.634 9.000,22.145 8.887,21.850 8.767 C 21.205 8.504,20.636 7.960,20.321 7.303 C 20.112 6.867,20.059 6.686,20.017 6.270 L 19.989 6.000 21.494 6.000 L 23.000 6.000 23.000 7.500 M11.433 8.040 C 10.843 8.134,10.221 8.380,9.731 8.712 C 8.955 9.240,8.394 10.037,8.130 10.989 C 8.034 11.337,8.022 11.449,8.022 12.000 C 8.022 12.553,8.034 12.663,8.132 13.017 C 8.475 14.256,9.357 15.252,10.520 15.715 C 12.334 16.437,14.462 15.710,15.444 14.033 C 16.503 12.224,15.985 9.878,14.269 8.712 C 13.917 8.473,13.343 8.214,12.958 8.120 C 12.572 8.026,11.783 7.984,11.433 8.040 M12.756 9.097 C 13.093 9.189,13.595 9.447,13.873 9.671 C 14.554 10.219,15.000 11.140,15.000 12.000 C 15.000 12.781,14.641 13.603,14.052 14.173 C 12.969 15.220,11.223 15.275,10.080 14.297 C 9.624 13.907,9.214 13.247,9.075 12.680 C 9.006 12.398,9.005 11.605,9.074 11.320 C 9.153 10.994,9.488 10.330,9.695 10.088 C 10.164 9.543,10.818 9.164,11.503 9.040 C 11.770 8.991,12.491 9.024,12.756 9.097 M1.566 15.062 C 1.794 15.105,2.032 15.188,2.318 15.327 C 2.685 15.505,2.782 15.575,3.104 15.896 C 3.425 16.218,3.495 16.315,3.673 16.682 C 3.868 17.083,4.000 17.570,4.000 17.884 L 4.000 18.000 2.500 18.000 L 1.000 18.000 1.000 16.500 L 1.000 15.000 1.116 15.000 C 1.179 15.000,1.382 15.028,1.566 15.062 M23.000 16.500 L 23.000 18.000 21.494 18.000 L 19.989 18.000 20.017 17.730 C 20.059 17.311,20.112 17.133,20.329 16.682 C 20.506 16.312,20.572 16.221,20.895 15.900 C 21.171 15.625,21.338 15.497,21.580 15.372 C 22.048 15.131,22.441 15.018,22.850 15.005 L 23.000 15.000 23.000 16.500 " fill="#455065" stroke="none" fill-rule="evenodd"></path></svg>