<svg width="24" height="24" viewBox="0 0 24 24" fill="none" xmlns="http://www.w3.org/2000/svg"><path d="M11.069 1.039 C 8.822 1.258,6.868 2.041,5.101 3.432 C 4.640 3.795,3.606 4.863,3.231 5.363 C 2.075 6.906,1.379 8.590,1.093 10.540 C 0.995 11.212,0.995 12.788,1.093 13.460 C 1.379 15.409,2.074 17.091,3.230 18.637 C 3.685 19.244,4.756 20.315,5.363 20.770 C 6.909 21.926,8.591 22.621,10.540 22.907 C 11.212 23.005,12.788 23.005,13.460 22.907 C 15.409 22.621,17.091 21.926,18.637 20.770 C 19.244 20.315,20.315 19.244,20.770 18.637 C 21.926 17.091,22.621 15.409,22.907 13.460 C 22.959 13.104,22.977 12.727,22.977 12.000 C 22.977 11.273,22.959 10.896,22.907 10.540 C 22.621 8.590,21.925 6.906,20.769 5.363 C 20.394 4.863,19.360 3.795,18.899 3.432 C 17.302 2.175,15.548 1.412,13.580 1.120 C 12.946 1.026,11.638 0.984,11.069 1.039 M13.493 2.119 C 15.385 2.416,17.005 3.154,18.480 4.391 C 20.082 5.735,21.282 7.711,21.740 9.760 C 21.932 10.616,21.976 11.044,21.975 12.020 C 21.973 13.016,21.910 13.560,21.697 14.429 C 21.026 17.162,19.139 19.554,16.623 20.863 C 12.156 23.186,6.696 21.847,3.806 17.720 C 2.916 16.449,2.375 15.092,2.113 13.472 C 1.989 12.708,1.989 11.292,2.113 10.528 C 2.582 7.628,4.103 5.247,6.499 3.659 C 7.918 2.719,9.490 2.181,11.280 2.024 C 11.711 1.986,12.998 2.041,13.493 2.119 M11.480 6.160 L 11.480 6.800 11.382 6.800 C 11.221 6.800,10.761 6.918,10.435 7.044 C 9.637 7.352,9.062 7.938,8.813 8.697 C 8.723 8.973,8.707 9.090,8.707 9.500 C 8.706 10.017,8.775 10.306,8.985 10.665 C 9.325 11.245,10.020 11.705,11.070 12.044 L 11.480 12.177 11.480 14.184 L 11.480 16.191 11.310 16.154 C 10.550 15.989,9.675 15.546,9.002 14.984 L 8.783 14.802 8.442 15.131 C 8.254 15.312,8.095 15.472,8.088 15.486 C 8.067 15.530,8.603 15.963,9.007 16.228 C 9.670 16.663,10.434 16.989,11.156 17.144 L 11.478 17.213 11.489 17.857 L 11.500 18.500 12.000 18.500 L 12.500 18.500 12.511 17.876 L 12.522 17.252 12.871 17.227 C 13.359 17.192,13.947 17.034,14.393 16.817 C 14.709 16.663,14.830 16.575,15.120 16.286 C 15.704 15.705,15.949 15.079,15.911 14.265 C 15.849 12.936,14.954 12.104,12.998 11.555 L 12.520 11.420 12.520 9.585 L 12.520 7.750 12.767 7.778 C 13.444 7.854,14.351 8.287,14.850 8.772 L 15.034 8.951 15.419 8.626 L 15.804 8.300 15.545 8.053 C 15.080 7.610,14.469 7.245,13.793 7.007 C 13.427 6.878,12.884 6.760,12.656 6.760 L 12.520 6.760 12.520 6.140 L 12.520 5.520 12.000 5.520 L 11.480 5.520 11.480 6.160 M11.480 9.460 C 11.480 10.373,11.472 11.120,11.462 11.120 C 11.453 11.120,11.313 11.073,11.152 11.015 C 10.424 10.753,9.968 10.421,9.798 10.028 C 9.674 9.742,9.675 9.238,9.799 8.909 C 9.977 8.438,10.497 8.027,11.120 7.863 C 11.521 7.758,11.480 7.578,11.480 9.460 M13.131 12.643 C 14.042 12.948,14.548 13.286,14.782 13.746 C 14.890 13.961,14.900 14.014,14.900 14.400 C 14.900 14.790,14.891 14.840,14.772 15.091 C 14.466 15.737,13.754 16.153,12.830 16.227 L 12.520 16.252 12.520 14.366 C 12.520 12.707,12.527 12.480,12.581 12.480 C 12.614 12.480,12.862 12.554,13.131 12.643 " fill="#455065" stroke="none" fill-rule="evenodd"></path></svg>