<svg width="16" height="16" viewBox="0 0 16 16" fill="none" xmlns="http://www.w3.org/2000/svg"><path d="M7.467 0.017 C 5.118 0.192,3.024 1.327,1.608 3.193 C 0.799 4.260,0.296 5.477,0.073 6.906 C -0.009 7.429,-0.009 8.571,0.073 9.094 C 0.415 11.288,1.476 13.089,3.195 14.393 C 4.257 15.199,5.481 15.705,6.906 15.927 C 7.429 16.009,8.571 16.009,9.094 15.927 C 11.038 15.624,12.690 14.748,13.930 13.362 C 15.030 12.133,15.665 10.775,15.927 9.094 C 16.009 8.571,16.009 7.429,15.927 6.906 C 15.705 5.481,15.199 4.257,14.393 3.195 C 13.070 1.452,11.180 0.355,9.000 0.066 C 8.688 0.025,7.760 -0.005,7.467 0.017 M9.040 1.078 C 11.831 1.511,14.104 3.571,14.781 6.281 C 14.942 6.924,14.973 7.204,14.973 8.000 C 14.973 8.555,14.962 8.775,14.924 9.027 C 14.474 11.939,12.308 14.238,9.437 14.850 C 8.548 15.040,7.452 15.040,6.563 14.850 C 3.952 14.294,1.876 12.308,1.227 9.747 C 1.059 9.083,1.027 8.807,1.027 8.000 C 1.027 7.193,1.059 6.917,1.227 6.253 C 1.847 3.807,3.806 1.848,6.253 1.227 C 6.473 1.171,6.797 1.106,6.973 1.083 C 7.149 1.059,7.329 1.035,7.373 1.029 C 7.574 1.002,8.774 1.037,9.040 1.078 M7.707 3.918 C 7.707 4.395,7.727 4.353,7.480 4.387 C 7.277 4.415,6.943 4.527,6.718 4.643 C 6.050 4.989,5.680 5.590,5.680 6.329 C 5.680 6.800,5.818 7.168,6.116 7.486 C 6.397 7.786,6.754 7.986,7.368 8.188 L 7.707 8.299 7.707 9.459 L 7.707 10.619 7.607 10.601 C 7.186 10.524,6.608 10.233,6.179 9.883 L 6.024 9.757 5.925 9.837 C 5.871 9.880,5.709 10.034,5.566 10.179 L 5.306 10.442 5.406 10.536 C 5.928 11.028,6.829 11.484,7.513 11.602 L 7.707 11.635 7.707 12.071 L 7.707 12.507 8.200 12.507 L 8.693 12.507 8.693 12.081 C 8.693 11.660,8.694 11.654,8.753 11.643 C 9.595 11.490,10.072 11.246,10.416 10.792 C 11.052 9.953,10.938 8.825,10.152 8.186 C 9.938 8.012,9.431 7.761,9.027 7.629 L 8.707 7.525 8.700 6.454 L 8.693 5.382 8.780 5.401 C 9.087 5.466,9.533 5.703,9.783 5.934 L 9.940 6.080 10.310 5.770 C 10.514 5.599,10.683 5.451,10.688 5.440 C 10.692 5.429,10.594 5.326,10.470 5.210 C 10.071 4.838,9.568 4.570,9.000 4.426 L 8.707 4.352 8.699 3.923 L 8.692 3.493 8.199 3.493 L 7.707 3.493 7.707 3.918 M7.707 6.306 L 7.707 7.252 7.513 7.183 C 7.097 7.033,6.848 6.865,6.745 6.664 C 6.593 6.366,6.696 5.893,6.961 5.670 C 7.112 5.543,7.509 5.371,7.673 5.362 C 7.699 5.360,7.707 5.566,7.707 6.306 M8.987 8.680 C 9.430 8.858,9.634 9.008,9.748 9.241 C 9.814 9.375,9.819 9.407,9.808 9.633 C 9.796 9.891,9.753 10.014,9.608 10.204 C 9.474 10.381,9.119 10.563,8.793 10.624 L 8.693 10.642 8.693 9.615 C 8.693 8.870,8.702 8.587,8.723 8.587 C 8.740 8.587,8.858 8.629,8.987 8.680 " fill="#455065" stroke="none" fill-rule="evenodd"></path></svg>