<svg width="16" height="16" viewBox="0 0 16 16" fill="none" xmlns="http://www.w3.org/2000/svg"><path d="M0.000 8.013 L 0.000 13.013 8.000 13.013 L 16.000 13.013 16.000 8.013 L 16.000 3.013 8.000 3.013 L 0.000 3.013 0.000 8.013 M2.933 4.049 C 2.933 4.136,2.803 4.483,2.694 4.686 C 2.447 5.143,2.073 5.508,1.613 5.740 C 1.505 5.794,1.072 5.947,1.025 5.947 C 1.019 5.947,1.013 5.509,1.013 4.973 L 1.013 4.000 1.973 4.000 C 2.885 4.000,2.933 4.002,2.933 4.049 M12.081 4.240 C 12.288 5.243,13.009 6.172,13.942 6.639 C 14.146 6.741,14.592 6.891,14.820 6.935 L 14.987 6.967 14.987 8.002 L 14.987 9.038 14.887 9.054 C 14.706 9.084,14.319 9.199,14.125 9.282 C 13.099 9.716,12.304 10.681,12.081 11.760 L 12.034 11.987 8.000 11.987 L 3.966 11.987 3.919 11.760 C 3.696 10.681,2.901 9.716,1.875 9.282 C 1.681 9.199,1.294 9.084,1.113 9.054 L 1.013 9.038 1.013 8.002 L 1.013 6.967 1.180 6.935 C 1.408 6.891,1.854 6.741,2.058 6.639 C 2.515 6.410,2.981 6.019,3.295 5.602 C 3.585 5.217,3.845 4.650,3.920 4.237 C 3.937 4.143,3.956 4.052,3.962 4.033 C 3.970 4.007,4.791 4.001,8.003 4.007 L 12.034 4.013 12.081 4.240 M14.987 4.973 C 14.987 5.509,14.981 5.947,14.975 5.947 C 14.928 5.947,14.495 5.794,14.387 5.740 C 13.795 5.442,13.347 4.922,13.130 4.282 C 13.023 3.969,12.925 4.000,14.027 4.000 L 14.987 4.000 14.987 4.973 M7.449 5.053 C 6.886 5.155,6.292 5.469,5.877 5.885 C 4.713 7.048,4.715 8.953,5.881 10.119 C 6.921 11.159,8.593 11.290,9.763 10.423 C 10.959 9.536,11.334 7.979,10.674 6.643 C 10.276 5.837,9.432 5.209,8.537 5.052 C 8.266 5.005,7.711 5.005,7.449 5.053 M8.504 6.065 C 8.728 6.126,9.063 6.298,9.249 6.447 C 9.703 6.812,10.000 7.427,10.000 8.000 C 10.000 8.780,9.484 9.553,8.767 9.844 C 7.762 10.253,6.659 9.823,6.199 8.840 C 6.048 8.519,6.014 8.364,6.014 8.000 C 6.014 7.636,6.048 7.481,6.199 7.160 C 6.478 6.565,7.025 6.143,7.669 6.026 C 7.847 5.994,8.327 6.016,8.504 6.065 M1.376 10.165 C 2.059 10.409,2.624 10.994,2.867 11.708 C 2.977 12.033,3.077 12.000,1.973 12.000 L 1.013 12.000 1.013 11.026 L 1.013 10.052 1.087 10.070 C 1.127 10.080,1.257 10.122,1.376 10.165 M14.987 11.027 L 14.987 12.000 14.027 12.000 C 12.925 12.000,13.023 12.031,13.130 11.718 C 13.397 10.931,14.006 10.340,14.787 10.105 C 14.875 10.079,14.956 10.056,14.967 10.055 C 14.978 10.054,14.987 10.491,14.987 11.027 " fill="#455065" stroke="none" fill-rule="evenodd"></path></svg>