<?xml version="1.0" encoding="UTF-8"?>
<svg id="Layer_2" data-name="Layer 2" xmlns="http://www.w3.org/2000/svg" viewBox="0 0 24 24">
  <g id="Icons">
    <g>
      <path d="M21.5,3H2.5C1.12,3,0,4.12,0,5.5v13C0,19.88,1.12,21,2.5,21h19c1.38,0,2.5-1.12,2.5-2.5V5.5c0-1.38-1.12-2.5-2.5-2.5ZM2.5,4h4.5v4H1v-2.5c0-.83.67-1.5,1.5-1.5ZM2.5,20c-.83,0-1.5-.67-1.5-1.5v-9.5h6v11H2.5ZM23,18.5c0,.83-.67,1.5-1.5,1.5h-13.5V4h13.5c.83,0,1.5.67,1.5,1.5v13Z M10,12h11v-4h-11v4ZM11,9h9v2h-9v-2Z M10,18h11v-4h-11v4ZM11,15h9v2h-9v-2Z"/>
    </g>
  </g>
</svg>