<?xml version="1.0" encoding="UTF-8"?>
<svg id="Layer_2" data-name="Layer 2" xmlns="http://www.w3.org/2000/svg" viewBox="0 0 16 16">
  <g id="Icons">
    <g>
      <path d="M14.2,2H1.8C.81,2,0,2.81,0,3.8v8.4C0,13.19.81,14,1.8,14h12.4c.99,0,1.8-.81,1.8-1.8V3.8c0-.99-.81-1.8-1.8-1.8ZM1,3.8c0-.44.36-.8.8-.8h3.2v2H1v-1.2ZM1.8,13c-.44,0-.8-.36-.8-.8v-6.2h4v7H1.8ZM15,12.2c0,.44-.36.8-.8.8H6V3h8.2c.44,0,.8.36.8.8v8.4Z M7,8h7v-3h-7v3ZM8,6h5v1h-5v-1Z M7,12h7v-3h-7v3ZM8,10h5v1h-5v-1Z"/>
    </g>
  </g>
</svg>