<svg width="16" height="16" viewBox="0 0 16 16" fill="none" xmlns="http://www.w3.org/2000/svg">
<g clip-path="url(#clip0_2720_18)">
<path fill-rule="evenodd" clip-rule="evenodd" d="M7.924 1.23504L7.5 0.556641L7.076 1.23504L2.076 9.23504L1.86519 9.57234L2.14577 9.85292L2.14581 9.85295L2.14602 9.85316L2.14621 9.85336L2.14644 9.85359L2.14798 9.85517L2.16039 9.86806C2.17213 9.88038 2.19061 9.9001 2.21488 9.92698C2.26346 9.98075 2.33506 10.063 2.42206 10.1718C2.59632 10.3896 2.83091 10.7119 3.06588 11.1231C3.537 11.9476 4 13.1119 4 14.5V16H5V14.5C5 14.3303 4.99404 14.1635 4.98276 14H10.0172C10.006 14.1635 10 14.3303 10 14.5V16H11V14.5C11 13.1119 11.463 11.9476 11.9341 11.1231C12.1691 10.7119 12.4037 10.3896 12.5779 10.1718C12.6649 10.063 12.7365 9.98075 12.7851 9.92698C12.8094 9.9001 12.8279 9.88038 12.8396 9.86806L12.852 9.85517L12.8536 9.85359L12.8538 9.85336L12.854 9.85316L12.8542 9.85295L12.8542 9.85292L13.1348 9.57234L12.924 9.23504L7.924 1.23504ZM11.0659 10.627C10.7114 11.2472 10.3534 12.0517 10.1557 13H4.8443C4.64664 12.0517 4.28856 11.2472 3.93412 10.627C3.66909 10.1632 3.40367 9.79799 3.20293 9.54707C3.17471 9.51179 3.14773 9.47873 3.12219 9.44794L7 3.24344V8.08539C6.4174 8.29131 6 8.84693 6 9.50004C6 10.3285 6.67157 11 7.5 11C8.32843 11 9 10.3285 9 9.50004C9 8.84693 8.58259 8.29131 8 8.08539V3.24344L11.8778 9.44794C11.8523 9.47873 11.8253 9.51179 11.7971 9.54707C11.5963 9.79799 11.3309 10.1632 11.0659 10.627Z" fill="#455065"/>
</g>
<defs>
<clipPath id="clip0_2720_18">
<rect width="16" height="16" fill="white"/>
</clipPath>
</defs>
</svg>
