<svg width="24" height="24" viewBox="0 0 24 24" fill="none" xmlns="http://www.w3.org/2000/svg">
<g clip-path="url(#clip0_2720_19)">
<path fill-rule="evenodd" clip-rule="evenodd" d="M11.9218 1.23172L11.5 0.568848L11.0782 1.23172L4.07817 12.2317L3.86284 12.5701L4.14607 12.8533L4.14612 12.8534L4.14625 12.8535L4.14645 12.8537L4.14677 12.854L4.15131 12.8587L4.17254 12.8806C4.1919 12.9008 4.22143 12.9321 4.25967 12.974C4.33617 13.0578 4.44739 13.1838 4.58177 13.348C4.85087 13.6769 5.21107 14.1571 5.57126 14.7574C6.29467 15.9631 7 17.6231 7 19.5002V24.0002H8V20.0002H15V24.0002H16V19.5002C16 17.6231 16.7053 15.9631 17.4287 14.7574C17.7889 14.1571 18.1491 13.6769 18.4182 13.348C18.5526 13.1838 18.6638 13.0578 18.7403 12.974C18.7786 12.9321 18.8081 12.9008 18.8275 12.8806L18.8487 12.8587L18.8532 12.854L18.8536 12.8537L18.8538 12.8535L18.8539 12.8534L18.8539 12.8533L19.1372 12.5701L18.9218 12.2317L11.9218 1.23172ZM16.5713 14.2429C15.8563 15.4345 15.126 17.0886 15.0146 19.0002H7.98539C7.87397 17.0886 7.1437 15.4345 6.42875 14.2429C6.03894 13.5932 5.64914 13.0734 5.35573 12.7148C5.27112 12.6114 5.19438 12.5212 5.12778 12.445L11 3.21719V10.0502C9.85888 10.2818 9 11.2907 9 12.5002C9 13.8809 10.1193 15.0002 11.5 15.0002C12.8807 15.0002 14 13.8809 14 12.5002C14 11.2907 13.1411 10.2818 12 10.0502V3.21719L17.8722 12.445C17.8056 12.5212 17.7289 12.6114 17.6443 12.7148C17.3509 13.0734 16.9611 13.5932 16.5713 14.2429ZM11.5 11.0002C10.6716 11.0002 10 11.6717 10 12.5002C10 13.3286 10.6716 14.0002 11.5 14.0002C12.3284 14.0002 13 13.3286 13 12.5002C13 11.6717 12.3284 11.0002 11.5 11.0002Z" fill="#455065"/>
</g>
<defs>
<clipPath id="clip0_2720_19">
<rect width="24" height="24" fill="white"/>
</clipPath>
</defs>
</svg>
