<?xml version="1.0" encoding="UTF-8"?>
<svg width="16" height="16" viewBox="0 0 16 16" xmlns="http://www.w3.org/2000/svg" xmlns:xlink="http://www.w3.org/1999/xlink">
    <defs>
        <path d="M7.5 12a1.5 1.5 0 1 1 0 3 1.5 1.5 0 0 1 0-3Zm0 1a.5.5 0 1 0 0 1 .5.5 0 0 0 0-1Zm-5-5a1.5 1.5 0 1 1 0 3 1.5 1.5 0 0 1 0-3Zm5 0a1.5 1.5 0 1 1 0 3 1.5 1.5 0 0 1 0-3Zm5 0a1.5 1.5 0 1 1 0 3 1.5 1.5 0 0 1 0-3Zm-10 1a.5.5 0 1 0 0 1 .5.5 0 0 0 0-1Zm5 0a.5.5 0 1 0 0 1 .5.5 0 0 0 0-1Zm5 0a.5.5 0 1 0 0 1 .5.5 0 0 0 0-1Zm-10-5a1.5 1.5 0 1 1 0 3 1.5 1.5 0 0 1 0-3Zm5 0a1.5 1.5 0 1 1 0 3 1.5 1.5 0 0 1 0-3Zm5 0a1.5 1.5 0 1 1 0 3 1.5 1.5 0 0 1 0-3Zm-10 1a.5.5 0 1 0 0 1 .5.5 0 0 0 0-1Zm5 0a.5.5 0 1 0 0 1 .5.5 0 0 0 0-1Zm5 0a.5.5 0 1 0 0 1 .5.5 0 0 0 0-1Zm-10-5a1.5 1.5 0 1 1 0 3 1.5 1.5 0 0 1 0-3Zm5 0a1.5 1.5 0 1 1 0 3 1.5 1.5 0 0 1 0-3Zm5 0a1.5 1.5 0 1 1 0 3 1.5 1.5 0 0 1 0-3Zm-10 1a.5.5 0 1 0 0 1 .5.5 0 0 0 0-1Zm5 0a.5.5 0 1 0 0 1 .5.5 0 0 0 0-1Zm5 0a.5.5 0 1 0 0 1 .5.5 0 0 0 0-1Z" id="a"/>
    </defs>
    <g fill="none" fill-rule="evenodd">
        <mask id="b" fill="#fff">
            <use xlink:href="#a"/>
        </mask>
        <use fill="#979797" fill-rule="nonzero" xlink:href="#a"/>
        <g mask="url(#b)" fill="#455065">
            <path d="M0 0h16v16H0z"/>
        </g>
    </g>
</svg>