<?xml version="1.0" encoding="UTF-8"?>
<svg width="24px" height="24px" viewBox="0 0 24 24" version="1.1" xmlns="http://www.w3.org/2000/svg" xmlns:xlink="http://www.w3.org/1999/xlink">
    <title>f5a652ab-9525-4761-9ad6-4b3247050ca5@1.00x</title>
    <defs>
        <path d="M8.5,0.792893219 L15.2071068,7.5 L14.5,8.20710678 L13.9998932,7.70689322 L11.2068932,10.4998932 L12.3538932,11.6468932 L13,11 L23,21 L21,23 L11,13 L11.6468932,12.3538932 L10.4998932,11.2068932 L7.70689322,13.9998932 L8.20710678,14.5 L7.5,15.2071068 L0.792893219,8.5 L1.5,7.79289322 L1.99989322,8.29289322 L8.29289322,1.99989322 L7.79289322,1.5 L8.5,0.792893219 Z M13,12.415 L12.415,13 L21,21.585 L21.585,21 L13,12.415 Z M8.99989322,2.70689322 L2.70689322,8.99989322 L6.99989322,13.2928932 L13.2928932,6.99989322 L8.99989322,2.70689322 Z" id="path-1"></path>
    </defs>
    <g id="Symbols" stroke="none" stroke-width="1" fill="none" fill-rule="evenodd">
        <g id="Icons-/-Misc-/-24-/-Dispute">
            <mask id="mask-2" fill="white">
                <use xlink:href="#path-1"></use>
            </mask>
            <use id="Combined-Shape" fill="#979797" fill-rule="nonzero" xlink:href="#path-1"></use>
            <g id="Colors-/-305-Dark-Gray" mask="url(#mask-2)" fill="#455065">
                <rect id="Rectangle" x="0" y="0" width="24" height="24"></rect>
            </g>
        </g>
    </g>
</svg>