<svg width="24" height="24" viewBox="0 0 24 24" fill="none" xmlns="http://www.w3.org/2000/svg">
<g id="Size=24">
<path id="icon" fill-rule="evenodd" clip-rule="evenodd" d="M10.3333 2H11.1667V4.08339L12.8333 4.08339V2H13.6667V4.08366C15.9393 4.10453 18.0139 5.34627 19.0362 7.30747L19.2288 7.67695L18.4898 8.06215L18.2972 7.69267C17.4199 6.0097 15.6319 4.93793 13.6667 4.91704V11.5834H14.7604C17.1442 11.5834 19.0834 13.445 19.0834 15.7501C19.0834 18.0552 17.1442 19.9168 14.7604 19.9168H13.6667V22.0001H12.8333V19.9168H11.1667V22.0001H10.3333V19.9165C8.06073 19.8956 5.98615 18.6539 4.96384 16.6927L4.77124 16.3232L5.51021 15.938L5.70281 16.3075C6.58009 17.9905 8.36813 19.0622 10.3333 19.0831V12.4167H9.23958C8.09661 12.4167 6.99948 11.9805 6.18888 11.2023C5.37495 10.4209 4.91666 9.35877 4.91666 8.25007C4.91666 5.94498 6.85582 4.08339 9.23958 4.08339H10.3333V2ZM13.6667 19.0834H14.7604C16.6914 19.0834 18.25 17.5872 18.25 15.7501C18.25 13.913 16.6914 12.4167 14.7604 12.4167H13.6667V19.0834ZM12.8333 12.4167V19.0834H11.1667V12.4167H12.8333ZM12.8333 11.5834V4.91673H11.1667V11.5834H12.8333ZM9.23958 4.91673H10.3333V11.5834H9.23958C8.31055 11.5834 7.42053 11.2295 6.766 10.6011C6.1148 9.976 5.74999 9.1305 5.74999 8.25007C5.74999 6.41301 7.30862 4.91673 9.23958 4.91673Z" fill="#455065"/>
</g>
</svg>
