<svg width="16" height="16" viewBox="0 0 16 16" fill="none" xmlns="http://www.w3.org/2000/svg">
<g id="Size=16">
<path id="icon" fill-rule="evenodd" clip-rule="evenodd" d="M6.23773 0.950928H7.11887V2.27263L8.83676 2.27263C8.85157 2.27262 8.86636 2.27268 8.88114 2.27281V0.950928H9.76228V2.3661C11.0596 2.63232 12.1852 3.45178 12.7964 4.62428L13 5.01495L12.2187 5.42225L12.015 5.03157C11.5566 4.15219 10.7293 3.51899 9.76228 3.27021V7.56125C11.4717 7.61725 12.8462 8.97183 12.8462 10.6434C12.8462 12.315 11.4717 13.6696 9.76228 13.7256V15.0491H8.88114V13.7274H7.16324L7.11887 13.7272V15.0491H6.23773V13.6339C4.94038 13.3677 3.81484 12.5482 3.20365 11.3758L3 10.9851L3.78135 10.5778L3.985 10.9685C4.4434 11.8478 5.2707 12.481 6.23773 12.7298V8.43875C5.43424 8.41201 4.66849 8.09347 4.09571 7.5436C3.49328 6.96527 3.15376 6.17836 3.15376 5.35661C3.15376 3.68501 4.52831 2.33043 6.23773 2.27443V0.950928ZM9.76228 12.8438C10.9921 12.789 11.9651 11.821 11.9651 10.6434C11.9651 9.46589 10.9921 8.49785 9.76228 8.44303V12.8438ZM8.88114 8.44058V12.8463H7.16292L7.11887 12.846V8.44058H8.88114ZM8.88114 7.55945V3.154C8.86647 3.15383 8.85178 3.15376 8.83708 3.15377H7.11887V7.55945H8.88114ZM4.03489 5.35661C4.03489 4.17907 5.00791 3.21103 6.23773 3.15622V7.55695C5.66076 7.53077 5.11393 7.29964 4.70593 6.90796C4.27557 6.49482 4.03489 5.937 4.03489 5.35661Z" fill="#455065"/>
</g>
</svg>
