<?xml version="1.0" encoding="UTF-8"?>
<svg width="16px" height="16px" viewBox="0 0 16 16" version="1.1" xmlns="http://www.w3.org/2000/svg" xmlns:xlink="http://www.w3.org/1999/xlink">
    <!-- Generator: sketchtool 54.1 (76490) - https://sketchapp.com -->
    <title>7406c7db-b387-4598-876a-db85c03d69e2@1.00x</title>
    <desc>Created with sketchtool.</desc>
    <defs>
        <path d="M8,16 C3.59,16 0,12.41 0,8 C0,3.59 3.59,0 8,0 C12.41,0 16,3.59 16,8 C16,12.41 12.41,16 8,16 Z M14.7466667,9.09466667 C14.5133333,9.02133333 12.6333333,8.45933333 10.4906667,8.80266667 C11.384,11.2586667 11.7486667,13.2586667 11.8186667,13.6746667 C13.352,12.638 14.4426667,10.9946667 14.7486667,9.09466667 L14.7466667,9.09466667 Z M10.67,14.3 C10.568,13.7 10.17,11.612 9.21,9.12 L9.166,9.13333333 C5.306,10.4766667 3.926,13.15 3.806,13.4 C4.95933333,14.3053333 6.41933333,14.844 7.99933333,14.844 C8.946,14.844 9.846,14.6506667 10.666,14.3013333 L10.67,14.3 Z M2.92333333,12.58 C3.078,12.3133333 4.95333333,9.21 8.478,8.07 C8.568,8.04 8.658,8.014 8.748,7.99 C8.57466667,7.6 8.388,7.212 8.19333333,6.83 C4.78,7.85 1.47066667,7.80666667 1.17066667,7.8 L1.168,8.008 C1.168,9.76333333 1.83333333,11.366 2.924,12.578 L2.92333333,12.58 Z M1.31,6.61 C1.61666667,6.61533333 4.432,6.62733333 7.628,5.778 C6.496,3.766 5.27466667,2.07266667 5.09466667,1.826 C3.18266667,2.726 1.75466667,4.486 1.31066667,6.606 L1.31,6.61 Z M6.4,1.368 C6.588,1.62133333 7.83,3.31066667 8.948,5.368 C11.378,4.458 12.408,3.07466667 12.53,2.9 C11.3233333,1.82666667 9.73666667,1.176 8,1.176 C7.45,1.176 6.91333333,1.24266667 6.4,1.366 L6.4,1.368 Z M13.29,3.69 C13.1446667,3.88333333 12,5.352 9.474,6.38333333 C9.634,6.71 9.78733333,7.04 9.92733333,7.374 C9.98066667,7.494 10.0273333,7.614 10.074,7.72733333 C12.3473333,7.44066667 14.6073333,7.90066667 14.834,7.94733333 C14.8206667,6.334 14.2473333,4.854 13.294,3.694 L13.29,3.69 Z" id="path-1"></path>
    </defs>
    <g id="Symbols" stroke="none" stroke-width="1" fill="none" fill-rule="evenodd">
        <g id="Icons-/-Social-Media-/-16-/-Dribbble">
            <mask id="mask-2" fill="white">
                <use xlink:href="#path-1"></use>
            </mask>
            <use id="Shape" fill="#000000" fill-rule="nonzero" xlink:href="#path-1"></use>
            <g id="Colors-/-Black" mask="url(#mask-2)" fill="#000000">
                <rect id="Rectangle" x="0" y="0" width="16" height="16"></rect>
            </g>
        </g>
    </g>
</svg>