<?xml version="1.0" encoding="UTF-8"?>
<svg width="16px" height="16px" viewBox="0 0 16 16" version="1.1" xmlns="http://www.w3.org/2000/svg" xmlns:xlink="http://www.w3.org/1999/xlink">
    <!-- Generator: sketchtool 54.1 (76490) - https://sketchapp.com -->
    <title>6a7cf567-5695-433f-9175-34a9768e4619@1.00x</title>
    <desc>Created with sketchtool.</desc>
    <defs>
        <path d="M10.9962158,12.7939453 L13,16 L8,16 L9.99621582,12.8060547 L9.99621582,6.78274413 L7.31382363,5.16942605 L7.82923118,4.31248086 L10.9962158,6.21725587 L10.9962158,12.7939453 Z M12,11.5719394 L12,10.4557473 L13,9.95987955 L13,6.05837546 L12,6.55850978 L12,5.44041572 L13.8830849,4.49862033 L8.0169411,1.55898724 L2.11915067,4.49973843 L8,7.44095297 L9,6.94081866 L9,8.05891272 L8,8.55904703 L3,6.05837546 L3,9.95987955 L8,12.4392184 L9,11.9433506 L9,13.0595427 L8,13.5554105 L2,10.5802039 L2,5.55824115 L-0.119150672,4.49838118 L8.0180589,0.441012756 L16.1169151,4.49949928 L14,5.55824115 L14,10.5802039 L12,11.5719394 Z M9.80424764,15 L11.1957524,15 L10.5,13.8867962 L9.80424764,15 Z" id="path-1"></path>
    </defs>
    <g id="Symbols" stroke="none" stroke-width="1" fill="none" fill-rule="evenodd">
        <g id="Icons-/-Resume-Builder-/-16-/-Education">
            <mask id="mask-2" fill="white">
                <use xlink:href="#path-1"></use>
            </mask>
            <use id="Combined-Shape" fill="#000000" fill-rule="nonzero" xlink:href="#path-1"></use>
            <g id="Colors-/-Black" mask="url(#mask-2)" fill="#000000">
                <rect id="Rectangle" x="0" y="0" width="16" height="16"></rect>
            </g>
        </g>
    </g>
</svg>