<svg width="24" height="24" viewBox="0 0 24 24" fill="none" xmlns="http://www.w3.org/2000/svg">
<g clip-path="url(#clip0_2703_17)">
<path fill-rule="evenodd" clip-rule="evenodd" d="M12 1C10.3432 1 9.00002 2.34315 9.00002 4C9.00002 5.65685 10.3432 7 12 7C13.6569 7 15 5.65685 15 4C15 2.34315 13.6569 1 12 1ZM8.00002 4C8.00002 1.79086 9.79088 0 12 0C14.2092 0 16 1.79086 16 4C16 6.20914 14.2092 8 12 8C9.79088 8 8.00002 6.20914 8.00002 4ZM0.328003 15H1.00002H6.00002C6.00002 11.6839 8.68388 9 12 9C15.3162 9 18 11.6839 18 15H23H23.672L23.4789 15.6437L21.9789 20.6437L21.872 21H21.5H19V24H18V19H19V20H21.128L22.328 16H1.67203L2.87203 20H5.00002V19H6.00002V24H5.00002V21H2.50002H2.128L2.02111 20.6437L0.521105 15.6437L0.328003 15ZM17 15C17 12.2361 14.7639 10 12 10C9.23616 10 7.00002 12.2361 7.00002 15H17Z" fill="#455065"/>
</g>
<defs>
<clipPath id="clip0_2703_17">
<rect width="24" height="24" fill="white"/>
</clipPath>
</defs>
</svg>
