<svg width="16" height="16" viewBox="0 0 16 16" fill="none" xmlns="http://www.w3.org/2000/svg">
<g clip-path="url(#clip0_2703_16)">
<path fill-rule="evenodd" clip-rule="evenodd" d="M8.00002 1C6.89545 1 6.00002 1.89543 6.00002 3C6.00002 4.10457 6.89545 5 8.00002 5C9.10459 5 10 4.10457 10 3C10 1.89543 9.10459 1 8.00002 1ZM5.00002 3C5.00002 1.34315 6.34316 0 8.00002 0C9.65687 0 11 1.34315 11 3C11 4.65685 9.65687 6 8.00002 6C6.34316 6 5.00002 4.65685 5.00002 3ZM0.708008 11H1.38002H3.09957C3.56149 8.71481 5.57645 7 8.00002 7C10.4236 7 12.4385 8.71481 12.9005 11H14.58H15.252L15.0589 11.6437L14.1589 14.6437L14.052 15H13.68H13V16H12L12 14H13H13.308L13.908 12H13H12H4.00002H3.00002H2.05204L2.65204 14H3.00002H4.00002V15L4.00002 16H3.00002V15H2.28002H1.90801L1.80111 14.6437L0.90111 11.6437L0.708008 11ZM4.12534 11H11.8747C11.4322 9.27219 9.86841 8 8.00002 8C6.13163 8 4.56788 9.27219 4.12534 11Z" fill="#455065"/>
</g>
<defs>
<clipPath id="clip0_2703_16">
<rect width="16" height="16" fill="white"/>
</clipPath>
</defs>
</svg>
