<svg width="24" height="24" viewBox="0 0 24 24" fill="none" xmlns="http://www.w3.org/2000/svg"><path d="M13.000 2.500 L 13.000 3.000 17.500 3.000 L 22.000 3.000 22.000 12.500 L 22.000 22.000 17.500 22.000 L 13.000 22.000 13.000 22.500 L 13.000 23.000 18.000 23.000 L 23.000 23.000 23.000 12.500 L 23.000 2.000 18.000 2.000 L 13.000 2.000 13.000 2.500 M8.150 8.150 L 7.800 8.500 9.550 10.250 L 11.300 12.000 6.150 12.000 L 1.000 12.000 1.000 12.500 L 1.000 13.000 6.150 13.000 L 11.300 13.000 9.549 14.751 L 7.799 16.501 8.150 16.850 L 8.501 17.199 10.850 14.850 L 13.200 12.500 10.850 10.150 L 8.500 7.800 8.150 8.150 " fill="#455065" stroke="none" fill-rule="evenodd"></path></svg>