<svg width="16" height="16" viewBox="0 0 16 16" fill="none" xmlns="http://www.w3.org/2000/svg"><path d="M10.987 1.507 L 10.987 2.000 12.987 2.000 L 14.987 2.000 14.987 8.507 L 14.987 15.013 12.987 15.013 L 10.987 15.013 10.987 15.507 L 10.987 16.000 13.493 16.000 L 16.000 16.000 16.000 8.507 L 16.000 1.013 13.493 1.013 L 10.987 1.013 10.987 1.507 M6.140 5.153 L 5.787 5.506 7.033 6.753 L 8.280 8.000 4.140 8.000 L 0.000 8.000 0.000 8.507 L 0.000 9.013 4.140 9.013 L 8.280 9.013 7.033 10.260 L 5.786 11.507 6.140 11.860 L 6.494 12.213 8.354 10.353 L 10.213 8.493 8.367 6.647 C 7.351 5.631,6.514 4.800,6.506 4.800 C 6.499 4.800,6.334 4.959,6.140 5.153 " fill="#455065" stroke="none" fill-rule="evenodd"></path></svg>