<?xml version="1.0" encoding="UTF-8"?>
<svg width="24px" height="24px" viewBox="0 0 24 24" version="1.1" xmlns="http://www.w3.org/2000/svg" xmlns:xlink="http://www.w3.org/1999/xlink">
    <!-- Generator: sketchtool 54.1 (76490) - https://sketchapp.com -->
    <title>690e55b7-fb25-4e41-98f8-83349c96aa27@1.00x</title>
    <desc>Created with sketchtool.</desc>
    <defs>
        <path d="M19,16 L19,15 L20,15 L20,16 L21,16 L21,17 L20,17 L20,18 L19,18 L19,17 L18,17 L18,16 L19,16 Z M10,13 L10,12 L11,12 L11,13 L12,13 L12,14 L11,14 L11,15 L10,15 L10,14 L9,14 L9,13 L10,13 Z M17,9 L17,7 L18,7 L18,9 L20,9 L20,10 L18,10 L18,12 L17,12 L17,10 L15,10 L15,9 L17,9 Z M5,17 L5,15 L6,15 L6,17 L8,17 L8,18 L6,18 L6,20 L5,20 L5,18 L3,18 L3,17 L5,17 Z M9,6 L11,6 L11,7 L9,7 L9,9 L8,9 L8,7 L6,7 L6,6 L8,6 L8,4 L9,4 L9,6 Z" id="path-1"></path>
    </defs>
    <g id="Symbols" stroke="none" stroke-width="1" fill="none" fill-rule="evenodd">
        <g id="Icons-/-Top-Scheduler-/-24-/-Evening">
            <mask id="mask-2" fill="white">
                <use xlink:href="#path-1"></use>
            </mask>
            <use id="Combined-Shape" fill="#000000" xlink:href="#path-1"></use>
            <g id="Colors-/-Black" mask="url(#mask-2)" fill="#000000">
                <rect id="Rectangle" x="0" y="0" width="24" height="24"></rect>
            </g>
        </g>
    </g>
</svg>