<svg width="24" height="24" viewBox="0 0 24 24" fill="none" xmlns="http://www.w3.org/2000/svg"><path d="M1.000 12.500 L 1.000 23.000 6.000 23.000 L 11.000 23.000 11.000 22.500 L 11.000 22.000 6.500 22.000 L 2.000 22.000 2.000 12.500 L 2.000 3.000 6.500 3.000 L 11.000 3.000 11.000 2.500 L 11.000 2.000 6.000 2.000 L 1.000 2.000 1.000 12.500 M18.150 8.150 L 17.800 8.500 19.550 10.250 L 21.300 12.000 16.150 12.000 L 11.000 12.000 11.000 12.500 L 11.000 13.000 16.150 13.000 L 21.300 13.000 19.549 14.751 L 17.799 16.501 18.150 16.850 L 18.501 17.199 20.850 14.850 L 23.200 12.500 20.850 10.150 L 18.500 7.800 18.150 8.150 " fill="#455065" stroke="none" fill-rule="evenodd"></path></svg>