<svg width="24" height="24" viewBox="0 0 24 24" fill="none" xmlns="http://www.w3.org/2000/svg"><path d="M2.000 5.500 L 2.000 9.000 2.500 9.000 L 3.000 9.000 3.000 6.350 L 3.000 3.700 5.950 6.650 L 8.900 9.600 9.250 9.250 L 9.600 8.900 6.650 5.950 L 3.700 3.000 6.350 3.000 L 9.000 3.000 9.000 2.500 L 9.000 2.000 5.500 2.000 L 2.000 2.000 2.000 5.500 M15.000 2.500 L 15.000 3.000 17.650 3.000 L 20.300 3.000 17.350 5.950 L 14.400 8.900 14.750 9.250 L 15.100 9.600 18.050 6.650 L 21.000 3.700 21.000 6.350 L 21.000 9.000 21.500 9.000 L 22.000 9.000 22.000 5.500 L 22.000 2.000 18.500 2.000 L 15.000 2.000 15.000 2.500 M5.950 17.350 L 3.000 20.300 3.000 17.650 L 3.000 15.000 2.500 15.000 L 2.000 15.000 2.000 18.500 L 2.000 22.000 5.500 22.000 L 9.000 22.000 9.000 21.500 L 9.000 21.000 6.350 21.000 L 3.700 21.000 6.650 18.050 L 9.601 15.099 9.250 14.750 L 8.899 14.401 5.950 17.350 M14.750 14.750 L 14.400 15.100 17.350 18.050 L 20.300 21.000 17.650 21.000 L 15.000 21.000 15.000 21.500 L 15.000 22.000 18.500 22.000 L 22.000 22.000 22.000 18.500 L 22.000 15.000 21.500 15.000 L 21.000 15.000 21.000 17.650 L 21.000 20.300 18.050 17.350 L 15.100 14.400 14.750 14.750 " stroke="none" fill-rule="evenodd" fill="black"></path></svg>