<svg width="16" height="16" viewBox="0 0 16 16" fill="none" xmlns="http://www.w3.org/2000/svg"><path d="M1.013 3.507 L 1.013 6.000 1.507 6.000 L 2.000 6.000 2.000 4.353 L 2.000 2.707 4.073 4.780 L 6.147 6.853 6.500 6.500 L 6.853 6.147 4.780 4.073 L 2.707 2.000 4.353 2.000 L 6.000 2.000 6.000 1.507 L 6.000 1.013 3.507 1.013 L 1.013 1.013 1.013 3.507 M10.000 1.507 L 10.000 2.000 11.647 2.000 L 13.293 2.000 11.220 4.073 L 9.147 6.147 9.500 6.500 L 9.853 6.853 11.927 4.780 L 14.000 2.707 14.000 4.353 L 14.000 6.000 14.493 6.000 L 14.987 6.000 14.987 3.507 L 14.987 1.013 12.493 1.013 L 10.000 1.013 10.000 1.507 M4.073 11.220 L 2.000 13.293 2.000 11.647 L 2.000 10.000 1.507 10.000 L 1.013 10.000 1.013 12.493 L 1.013 14.987 3.507 14.987 L 6.000 14.987 6.000 14.493 L 6.000 14.000 4.353 14.000 L 2.707 14.000 4.780 11.926 L 6.854 9.853 6.500 9.500 L 6.146 9.147 4.073 11.220 M9.500 9.500 L 9.147 9.853 11.220 11.927 L 13.293 14.000 11.647 14.000 L 10.000 14.000 10.000 14.493 L 10.000 14.987 12.493 14.987 L 14.987 14.987 14.987 12.493 L 14.987 10.000 14.493 10.000 L 14.000 10.000 14.000 11.647 L 14.000 13.293 11.927 11.220 L 9.853 9.147 9.500 9.500 " stroke="none" fill-rule="evenodd" fill="black"></path></svg>