<svg width="16" height="16" viewBox="0 0 16 16" fill="none" xmlns="http://www.w3.org/2000/svg"><path d="M7.640 7.653 L 0.787 14.507 1.140 14.860 L 1.493 15.213 8.353 8.353 L 15.213 1.494 14.867 1.147 C 14.677 0.956,14.515 0.800,14.507 0.800 C 14.499 0.800,11.409 3.884,7.640 7.653 M7.101 3.055 C 5.593 3.238,4.162 3.871,2.802 4.958 C 1.979 5.615,1.039 6.609,0.271 7.633 L -0.004 7.999 0.190 8.259 C 0.900 9.218,1.825 10.226,2.576 10.859 L 2.818 11.063 3.174 10.706 C 3.370 10.509,3.525 10.344,3.519 10.339 C 3.512 10.334,3.357 10.204,3.173 10.049 C 2.640 9.598,1.941 8.866,1.402 8.193 L 1.247 8.000 1.402 7.807 C 2.234 6.765,3.218 5.832,4.107 5.241 C 5.775 4.131,7.591 3.761,9.414 4.159 L 9.666 4.214 10.059 3.821 C 10.275 3.605,10.444 3.420,10.433 3.409 C 10.398 3.376,9.880 3.232,9.541 3.162 C 9.360 3.125,9.056 3.076,8.866 3.054 C 8.440 3.004,7.519 3.005,7.101 3.055 M12.814 5.306 C 12.625 5.496,12.475 5.656,12.481 5.662 C 12.488 5.668,12.607 5.767,12.747 5.881 C 13.262 6.306,14.024 7.093,14.543 7.740 L 14.752 7.999 14.609 8.179 C 13.944 9.019,13.076 9.887,12.357 10.432 C 11.434 11.131,10.497 11.587,9.493 11.825 C 8.529 12.055,7.407 12.054,6.496 11.823 L 6.338 11.783 5.943 12.177 C 5.725 12.394,5.556 12.580,5.567 12.591 C 5.578 12.601,5.710 12.646,5.861 12.691 C 7.041 13.040,8.349 13.092,9.555 12.837 C 11.779 12.368,13.857 10.864,15.729 8.368 L 16.002 8.003 15.810 7.741 C 15.275 7.016,14.718 6.373,14.104 5.773 C 13.671 5.350,13.229 4.960,13.183 4.960 C 13.170 4.960,13.004 5.116,12.814 5.306 M7.449 5.051 C 6.880 5.159,6.291 5.470,5.884 5.878 C 5.162 6.599,4.854 7.641,5.068 8.637 L 5.099 8.780 5.550 8.330 C 5.924 7.957,6.002 7.865,6.014 7.787 C 6.126 7.065,6.480 6.547,7.071 6.239 C 7.305 6.118,7.451 6.069,7.706 6.029 L 7.878 6.001 8.326 5.554 L 8.774 5.107 8.647 5.071 C 8.460 5.019,7.686 5.006,7.449 5.051 M10.445 7.675 L 9.999 8.122 9.972 8.294 C 9.935 8.530,9.879 8.697,9.756 8.936 C 9.470 9.492,8.938 9.870,8.293 9.977 L 8.113 10.007 7.666 10.454 L 7.220 10.901 7.363 10.932 C 8.217 11.115,9.133 10.910,9.822 10.380 C 10.573 9.802,10.998 8.934,10.992 7.987 C 10.991 7.725,10.935 7.272,10.899 7.237 C 10.895 7.232,10.690 7.430,10.445 7.675 " fill="#455065" stroke="none" fill-rule="evenodd"></path></svg>