<?xml version="1.0" encoding="UTF-8"?>
<svg width="24px" height="24px" viewBox="0 0 24 24" version="1.1" xmlns="http://www.w3.org/2000/svg" xmlns:xlink="http://www.w3.org/1999/xlink">
    <title>09b15559-86b1-4eda-bd50-d32150ffa17d@1.00x</title>
    <defs>
        <path d="M21.5,1.79289322 L22.2071068,2.5 L2.5,22.2071068 L1.79289322,21.5 L21.5,1.79289322 Z M19.3574503,6.76392315 C20.9760414,8.05615736 22.523558,9.80151631 24,12 C20.418278,17.3333333 16.418278,20 12,20 C10.3531154,20 8.76434548,19.6294994 7.23369012,18.8884981 L7.98761449,18.1352652 C9.19464503,18.6719541 10.4334677,18.9574003 11.7048034,18.9955774 L12,19 C15.8451311,19 19.3946825,16.7586773 22.6683647,12.1673899 L22.785,12 L22.6683647,11.8326101 C21.3714402,10.013694 20.0312186,8.56360075 18.6464742,7.47557508 L19.3574503,6.76392315 Z M12,4 C13.6472438,4 15.2363477,4.37066232 16.7673116,5.11198695 L16.0123855,5.86473482 C14.805355,5.32804586 13.5665323,5.04259966 12.2951966,5.00442259 L12,5 C8.15486892,5 4.60531748,7.24132271 1.33163528,11.8326101 L1.214,12 L1.33163528,12.1673899 C2.62887175,13.9867435 3.96942624,15.4370969 5.35452518,16.5252101 L4.64355313,17.2368779 C3.02459817,15.944564 1.47674712,14.198938 0,12 C3.581722,6.66666667 7.581722,4 12,4 Z M16.4345882,9.68814352 C16.7957696,10.3795422 17,11.1659208 17,12 C17,14.7614237 14.7614237,17 12,17 C11.1659208,17 10.3795422,16.7957696 9.68814352,16.4345882 L10.4382431,15.6836362 C10.9180711,15.8873249 11.4458772,16 12,16 C14.209139,16 16,14.209139 16,12 C16,11.4462642 15.8874822,10.9188083 15.6840628,10.4392484 L16.4345882,9.68814352 Z M12,7 C12.8344829,7 13.621219,7.20442812 14.3128604,7.56593636 L13.5617569,8.31636375 C13.0819289,8.11267507 12.5541228,8 12,8 C9.790861,8 8,9.790861 8,12 C8,12.5541228 8.11267507,13.0819289 8.31636375,13.5617569 L7.56593636,14.3128604 C7.20442812,13.621219 7,12.8344829 7,12 C7,9.23857625 9.23857625,7 12,7 Z" id="path-1"></path>
    </defs>
    <g id="Symbols" stroke="none" stroke-width="1" fill="none" fill-rule="evenodd">
        <g id="Icons-/-Interface-Essential-/-24-/-Eye-Hide">
            <mask id="mask-2" fill="white">
                <use xlink:href="#path-1"></use>
            </mask>
            <use id="Combined-Shape" fill="#979797" fill-rule="nonzero" xlink:href="#path-1"></use>
            <g id="Colors-/-305-Dark-Gray" mask="url(#mask-2)" fill="#455065">
                <rect id="Rectangle" x="0" y="0" width="24" height="24"></rect>
            </g>
        </g>
    </g>
</svg>