<svg width="24" height="24" viewBox="0 0 24 24" fill="none" xmlns="http://www.w3.org/2000/svg"><path d="M11.649 11.651 L 1.799 21.501 2.150 21.850 L 2.501 22.199 12.351 12.349 L 22.201 2.499 21.850 2.150 L 21.499 1.801 11.649 11.651 M11.300 4.027 C 9.679 4.161,8.440 4.510,7.012 5.236 C 4.622 6.449,2.392 8.556,0.266 11.610 L -0.006 12.000 0.265 12.390 C 1.242 13.799,2.318 15.085,3.366 16.100 C 3.931 16.646,4.565 17.200,4.626 17.200 C 4.698 17.200,5.337 16.521,5.299 16.486 C 5.277 16.466,5.125 16.336,4.960 16.197 C 4.125 15.493,3.270 14.619,2.483 13.667 C 2.030 13.117,1.240 12.059,1.240 12.001 C 1.240 11.935,2.053 10.850,2.549 10.255 C 4.698 7.675,6.995 6.032,9.380 5.368 C 11.419 4.800,13.537 4.905,15.531 5.671 L 16.005 5.853 16.363 5.497 C 16.559 5.302,16.720 5.130,16.720 5.115 C 16.720 5.074,15.950 4.746,15.480 4.587 C 14.160 4.139,12.548 3.923,11.300 4.027 M19.001 7.139 C 18.792 7.349,18.678 7.492,18.701 7.514 C 18.723 7.534,18.875 7.664,19.040 7.803 C 19.875 8.507,20.730 9.381,21.517 10.333 C 21.970 10.883,22.760 11.941,22.760 11.999 C 22.760 12.065,21.947 13.150,21.455 13.740 C 18.612 17.150,15.617 18.874,12.340 18.987 C 10.967 19.035,9.655 18.803,8.327 18.278 L 7.995 18.147 7.620 18.520 L 7.245 18.893 7.453 18.991 C 8.800 19.624,10.473 19.996,11.980 19.999 C 16.283 20.006,20.195 17.474,23.734 12.390 L 24.006 12.000 23.735 11.610 C 22.758 10.201,21.682 8.915,20.634 7.900 C 20.069 7.354,19.435 6.800,19.374 6.800 C 19.354 6.800,19.186 6.953,19.001 7.139 M11.340 7.046 C 10.581 7.143,9.647 7.523,9.019 7.992 C 7.384 9.214,6.649 11.301,7.164 13.266 C 7.235 13.538,7.494 14.226,7.545 14.278 C 7.555 14.288,7.732 14.128,7.938 13.922 L 8.314 13.548 8.242 13.364 C 8.000 12.749,7.944 11.746,8.114 11.062 C 8.283 10.377,8.679 9.675,9.177 9.177 C 9.675 8.679,10.377 8.283,11.062 8.114 C 11.746 7.944,12.749 8.000,13.364 8.242 L 13.548 8.314 13.922 7.938 L 14.296 7.562 13.989 7.421 C 13.240 7.074,12.234 6.932,11.340 7.046 M16.052 10.090 L 15.685 10.460 15.745 10.600 C 15.992 11.174,16.058 12.250,15.887 12.938 C 15.731 13.563,15.362 14.249,14.919 14.734 C 14.025 15.711,12.545 16.191,11.247 15.922 C 11.019 15.876,10.747 15.804,10.641 15.764 L 10.448 15.691 10.076 16.064 C 9.871 16.269,9.712 16.445,9.722 16.455 C 9.732 16.465,9.894 16.536,10.082 16.614 C 11.205 17.078,12.447 17.122,13.594 16.737 C 14.295 16.501,14.895 16.135,15.450 15.605 C 16.751 14.363,17.275 12.568,16.854 10.800 C 16.786 10.515,16.484 9.720,16.444 9.720 C 16.430 9.720,16.253 9.886,16.052 10.090 " fill="#455065" stroke="none" fill-rule="evenodd"></path></svg>