<svg width="16" height="16" viewBox="0 0 16 16" fill="none" xmlns="http://www.w3.org/2000/svg"><path d="M6.600 0.591 C 6.362 0.636,6.084 0.791,5.893 0.984 C 5.733 1.147,5.512 1.521,2.923 6.011 C 1.102 9.169,0.107 10.919,0.074 11.024 C -0.177 11.818,0.294 12.659,1.106 12.866 C 1.244 12.901,1.738 12.907,4.952 12.907 L 8.640 12.907 8.640 13.154 L 8.640 13.401 10.459 14.453 C 11.460 15.031,12.297 15.505,12.320 15.505 C 12.343 15.505,13.180 15.031,14.181 14.453 L 16.000 13.400 16.000 11.276 L 16.000 9.153 14.174 8.096 C 13.169 7.515,12.334 7.040,12.318 7.040 C 12.302 7.040,12.167 7.111,12.018 7.198 C 11.869 7.285,11.732 7.360,11.714 7.365 C 11.695 7.370,10.943 6.093,9.899 4.280 C 8.231 1.384,8.105 1.175,7.932 0.997 C 7.578 0.635,7.115 0.494,6.600 0.591 M7.139 1.626 C 7.186 1.654,7.254 1.723,7.290 1.779 C 7.326 1.835,8.120 3.206,9.053 4.827 C 9.987 6.447,10.768 7.799,10.788 7.831 C 10.824 7.887,10.797 7.905,9.732 8.521 L 8.640 9.152 8.640 10.536 L 8.640 11.921 4.980 11.914 L 1.320 11.907 1.226 11.848 C 1.083 11.759,1.004 11.600,1.019 11.431 C 1.030 11.306,1.287 10.852,3.802 6.494 C 6.066 2.574,6.590 1.684,6.664 1.634 C 6.783 1.554,7.015 1.550,7.139 1.626 M6.400 6.453 L 6.400 8.640 6.907 8.640 L 7.413 8.640 7.413 6.453 L 7.413 4.267 6.907 4.267 L 6.400 4.267 6.400 6.453 M13.431 8.821 C 14.008 9.154,14.479 9.433,14.480 9.440 C 14.480 9.464,13.961 9.747,13.920 9.745 C 13.847 9.743,11.758 8.524,11.784 8.499 C 11.849 8.434,12.311 8.189,12.345 8.201 C 12.366 8.209,12.855 8.488,13.431 8.821 M11.838 9.720 C 12.425 10.057,12.906 10.339,12.906 10.347 C 12.906 10.354,12.774 10.435,12.613 10.527 L 12.320 10.694 11.240 10.074 C 10.646 9.733,10.161 9.447,10.161 9.440 C 10.161 9.420,10.730 9.094,10.752 9.101 C 10.762 9.104,11.250 9.383,11.838 9.720 M6.418 9.431 C 6.408 9.441,6.400 9.663,6.400 9.924 L 6.400 10.400 6.907 10.400 L 7.413 10.400 7.413 9.907 L 7.413 9.413 6.924 9.413 C 6.656 9.413,6.428 9.421,6.418 9.431 M10.820 10.986 L 11.813 11.556 11.813 12.819 L 11.813 14.082 11.700 14.016 C 11.638 13.979,11.155 13.699,10.627 13.394 L 9.667 12.838 9.660 11.576 L 9.653 10.314 9.740 10.365 C 9.788 10.393,10.274 10.672,10.820 10.986 M14.954 12.842 C 14.935 12.858,14.476 13.128,13.933 13.441 C 13.391 13.754,12.920 14.027,12.887 14.048 L 12.827 14.086 12.827 12.821 L 12.827 11.556 13.900 10.939 L 14.973 10.322 14.980 11.567 C 14.986 12.540,14.980 12.818,14.954 12.842 " fill="#455065" stroke="none" fill-rule="evenodd"></path></svg>