<svg width="24" height="24" viewBox="0 0 24 24" fill="none" xmlns="http://www.w3.org/2000/svg"><path d="M10.060 0.885 C 9.590 0.943,9.216 1.139,8.890 1.498 C 8.670 1.742,0.217 16.365,0.103 16.700 C 0.065 16.810,0.025 17.035,0.013 17.200 C -0.049 18.062,0.513 18.880,1.370 19.174 L 1.620 19.260 7.429 19.271 L 13.237 19.282 13.249 19.704 L 13.260 20.126 15.920 21.668 C 17.383 22.517,18.598 23.211,18.620 23.211 C 18.642 23.211,19.857 22.518,21.320 21.671 L 23.980 20.131 23.980 17.017 L 23.980 13.902 21.360 12.392 C 19.919 11.561,18.707 10.871,18.668 10.857 C 18.620 10.841,18.423 10.931,18.098 11.117 C 17.824 11.272,17.587 11.400,17.570 11.399 C 17.554 11.399,16.272 9.202,14.722 6.517 C 12.218 2.182,11.878 1.612,11.682 1.425 C 11.216 0.982,10.694 0.808,10.060 0.885 M10.756 1.974 C 10.852 2.021,10.981 2.123,11.043 2.200 C 11.225 2.430,16.699 11.934,16.658 11.949 C 16.637 11.957,15.864 12.401,14.940 12.936 L 13.260 13.907 13.250 16.094 L 13.239 18.280 7.625 18.280 C 4.025 18.280,1.934 18.266,1.795 18.240 C 1.521 18.188,1.294 18.030,1.141 17.782 C 0.982 17.524,0.972 17.158,1.117 16.880 C 1.240 16.644,9.419 2.466,9.544 2.270 C 9.793 1.884,10.314 1.756,10.756 1.974 M9.840 9.641 L 9.840 13.002 10.330 12.991 L 10.820 12.980 10.830 9.630 L 10.840 6.280 10.340 6.280 L 9.840 6.280 9.840 9.641 M20.620 13.120 C 21.588 13.675,22.401 14.150,22.428 14.175 C 22.464 14.209,22.310 14.315,21.799 14.610 C 21.427 14.825,21.105 15.000,21.085 15.000 C 21.018 15.000,17.269 12.821,17.271 12.783 C 17.272 12.763,17.576 12.571,17.946 12.357 L 18.620 11.967 18.740 12.039 C 18.806 12.078,19.652 12.565,20.620 13.120 M18.140 14.476 C 19.174 15.073,20.025 15.576,20.031 15.593 C 20.039 15.617,18.818 16.352,18.640 16.431 C 18.626 16.437,17.746 15.938,16.684 15.323 C 15.026 14.364,14.763 14.199,14.826 14.160 C 15.352 13.839,16.189 13.370,16.220 13.379 C 16.242 13.386,17.106 13.880,18.140 14.476 M9.840 14.940 L 9.840 15.680 10.340 15.680 L 10.840 15.680 10.840 14.940 L 10.840 14.200 10.340 14.200 L 9.840 14.200 9.840 14.940 M16.211 16.200 L 18.117 17.300 18.118 19.533 C 18.119 20.954,18.106 21.762,18.081 21.753 C 18.060 21.746,17.187 21.245,16.142 20.640 L 14.241 19.540 14.240 17.307 C 14.240 16.078,14.255 15.079,14.273 15.087 C 14.291 15.094,15.163 15.595,16.211 16.200 M23.000 17.311 L 23.000 19.543 21.082 20.651 C 20.027 21.261,19.154 21.760,19.142 21.760 C 19.130 21.760,19.121 20.757,19.122 19.530 L 19.123 17.300 21.052 16.190 C 22.112 15.580,22.984 15.080,22.990 15.080 C 22.996 15.080,23.000 16.084,23.000 17.311 " fill="#455065" stroke="none" fill-rule="evenodd"></path></svg>