<svg width="24" height="24" viewBox="0 0 24 24" fill="none" xmlns="http://www.w3.org/2000/svg"><path d="M2.000 13.000 L 2.000 24.000 2.500 24.000 L 3.000 24.000 3.000 20.000 L 3.000 16.000 7.000 16.000 L 11.000 16.000 11.000 17.000 L 11.000 18.000 16.000 18.000 L 21.000 18.000 21.000 12.000 L 21.000 6.000 16.500 6.000 L 12.000 6.000 12.000 5.000 L 12.000 4.000 7.500 4.000 L 3.000 4.000 3.000 3.000 L 3.000 2.000 2.500 2.000 L 2.000 2.000 2.000 13.000 M11.000 10.000 L 11.000 15.000 7.000 15.000 L 3.000 15.000 3.000 10.000 L 3.000 5.000 7.000 5.000 L 11.000 5.000 11.000 10.000 M20.000 12.000 L 20.000 17.000 16.000 17.000 L 12.000 17.000 12.000 12.000 L 12.000 7.000 16.000 7.000 L 20.000 7.000 20.000 12.000 " fill="#455065" stroke="none" fill-rule="evenodd"></path></svg>