<svg width="16" height="16" viewBox="0 0 16 16" fill="none" xmlns="http://www.w3.org/2000/svg"><path d="M0.987 9.000 L 0.987 16.000 1.493 16.000 L 2.000 16.000 2.000 13.507 L 2.000 11.013 4.493 11.013 L 6.987 11.013 6.987 11.507 L 6.987 12.000 10.493 12.000 L 14.000 12.000 14.000 8.000 L 14.000 4.000 11.000 4.000 L 8.000 4.000 8.000 3.507 L 8.000 3.013 5.000 3.013 L 2.000 3.013 2.000 2.507 L 2.000 2.000 1.493 2.000 L 0.987 2.000 0.987 9.000 M6.987 7.000 L 6.987 10.000 4.493 10.000 L 2.000 10.000 2.000 7.000 L 2.000 4.000 4.493 4.000 L 6.987 4.000 6.987 7.000 M12.987 8.013 L 12.987 11.013 10.493 11.013 L 8.000 11.013 8.000 8.013 L 8.000 5.013 10.493 5.013 L 12.987 5.013 12.987 8.013 " fill="#455065" stroke="none" fill-rule="evenodd"></path></svg>