<svg width="16" height="16" viewBox="0 0 16 16" fill="none" xmlns="http://www.w3.org/2000/svg"><path d="M7.606 0.029 C 7.309 0.067,7.007 0.159,6.707 0.304 C 4.772 1.233,4.409 3.792,6.008 5.239 L 6.209 5.422 5.972 5.562 C 5.662 5.745,5.449 5.910,5.184 6.173 C 4.971 6.383,4.699 6.727,4.586 6.929 L 4.528 7.032 4.147 7.019 C 3.533 6.998,3.135 7.082,2.636 7.337 C 1.624 7.855,1.004 8.868,1.005 10.000 C 1.007 10.902,1.397 11.733,2.091 12.312 L 2.222 12.421 2.104 12.481 C 1.664 12.706,1.120 13.179,0.773 13.640 C 0.594 13.878,0.272 14.506,0.191 14.774 C 0.099 15.081,0.028 15.456,0.010 15.732 L -0.008 16.000 0.503 16.000 L 1.013 16.000 1.013 15.843 C 1.013 15.182,1.357 14.411,1.888 13.884 C 2.473 13.303,3.175 13.013,4.000 13.013 C 4.650 13.013,5.186 13.180,5.722 13.550 C 5.946 13.705,6.322 14.084,6.472 14.307 C 6.787 14.775,6.987 15.372,6.987 15.843 L 6.987 16.000 8.000 16.000 L 9.013 16.000 9.013 15.843 C 9.013 15.757,9.031 15.586,9.052 15.463 C 9.263 14.260,10.260 13.263,11.463 13.052 C 11.750 13.002,12.250 13.002,12.537 13.052 C 12.945 13.124,13.351 13.294,13.722 13.550 C 13.946 13.705,14.322 14.084,14.472 14.307 C 14.787 14.775,14.987 15.372,14.987 15.843 L 14.987 16.000 15.497 16.000 L 16.008 16.000 15.990 15.732 C 15.972 15.456,15.901 15.081,15.809 14.774 C 15.726 14.499,15.404 13.876,15.216 13.626 C 14.899 13.204,14.303 12.687,13.896 12.481 L 13.780 12.422 13.923 12.299 C 14.310 11.966,14.600 11.570,14.773 11.137 C 15.365 9.661,14.751 8.036,13.333 7.321 C 12.860 7.082,12.453 6.999,11.855 7.019 L 11.477 7.032 11.414 6.923 C 11.222 6.586,10.845 6.158,10.504 5.889 C 10.318 5.742,9.899 5.467,9.805 5.431 C 9.786 5.424,9.799 5.400,9.840 5.371 C 9.877 5.344,9.983 5.250,10.076 5.161 C 10.861 4.415,11.175 3.280,10.893 2.217 C 10.511 0.782,9.090 -0.164,7.606 0.029 M8.559 1.080 C 9.228 1.289,9.736 1.805,9.924 2.468 C 10.009 2.766,10.009 3.233,9.925 3.528 C 9.609 4.637,8.474 5.246,7.373 4.896 C 6.881 4.739,6.448 4.362,6.204 3.875 C 5.947 3.364,5.947 2.636,6.204 2.125 C 6.299 1.936,6.478 1.689,6.618 1.556 C 6.860 1.326,7.233 1.125,7.554 1.052 C 7.777 1.001,8.359 1.017,8.559 1.080 M8.604 6.064 C 9.145 6.179,9.672 6.456,10.074 6.836 C 10.221 6.975,10.507 7.332,10.506 7.375 C 10.505 7.389,10.411 7.463,10.296 7.540 C 10.037 7.714,9.698 8.051,9.530 8.301 C 9.177 8.827,9.011 9.358,9.008 9.973 C 9.002 10.894,9.387 11.724,10.091 12.312 L 10.222 12.421 10.104 12.481 C 9.664 12.706,9.120 13.179,8.773 13.640 C 8.610 13.856,8.280 14.490,8.202 14.733 C 8.133 14.953,8.027 15.446,8.027 15.553 C 8.027 15.608,8.015 15.653,8.000 15.653 C 7.985 15.653,7.973 15.608,7.973 15.553 C 7.973 15.446,7.867 14.953,7.798 14.733 C 7.718 14.482,7.389 13.855,7.216 13.626 C 6.899 13.204,6.303 12.687,5.896 12.481 L 5.780 12.422 5.923 12.299 C 6.934 11.431,7.265 10.091,6.773 8.863 C 6.567 8.347,6.163 7.848,5.701 7.538 C 5.588 7.462,5.495 7.388,5.494 7.372 C 5.493 7.322,5.838 6.913,6.007 6.766 C 6.434 6.394,6.959 6.137,7.453 6.057 C 7.556 6.040,7.670 6.021,7.707 6.015 C 7.837 5.993,8.417 6.024,8.604 6.064 M4.504 8.065 C 4.728 8.126,5.063 8.298,5.249 8.447 C 5.703 8.812,6.000 9.427,6.000 10.000 C 6.000 10.521,5.761 11.069,5.368 11.448 C 4.646 12.147,3.482 12.183,2.720 11.531 C 2.416 11.271,2.143 10.832,2.050 10.453 C 2.004 10.264,2.004 9.736,2.050 9.547 C 2.105 9.321,2.296 8.938,2.447 8.751 C 2.744 8.383,3.202 8.111,3.669 8.026 C 3.847 7.994,4.327 8.016,4.504 8.065 M12.504 8.065 C 12.728 8.126,13.063 8.298,13.249 8.447 C 13.703 8.812,14.000 9.427,14.000 10.000 C 14.000 10.521,13.761 11.069,13.368 11.448 C 12.646 12.147,11.482 12.183,10.720 11.531 C 10.416 11.271,10.143 10.832,10.050 10.453 C 10.004 10.265,10.003 9.737,10.049 9.547 C 10.103 9.326,10.326 8.886,10.468 8.720 C 10.773 8.366,11.219 8.108,11.669 8.026 C 11.847 7.994,12.327 8.016,12.504 8.065 " fill="#455065" stroke="none" fill-rule="evenodd"></path></svg>