<svg width="24" height="24" viewBox="0 0 24 24" fill="none" xmlns="http://www.w3.org/2000/svg"><path d="M11.433 0.040 C 10.843 0.134,10.221 0.380,9.731 0.712 C 8.711 1.405,8.075 2.549,8.013 3.800 C 7.945 5.190,8.571 6.464,9.734 7.303 L 9.849 7.385 9.354 7.631 C 8.193 8.209,7.263 9.118,6.686 10.240 C 6.556 10.493,6.429 10.765,6.404 10.844 L 6.358 10.988 5.869 11.013 C 5.264 11.043,4.814 11.150,4.337 11.376 C 3.670 11.692,3.213 12.058,2.800 12.607 C 1.716 14.045,1.746 16.084,2.871 17.483 C 3.114 17.784,3.425 18.080,3.731 18.301 L 3.843 18.381 3.311 18.650 C 2.690 18.964,2.194 19.323,1.720 19.803 C 0.724 20.812,0.107 22.182,0.015 23.590 L -0.012 24.000 0.486 24.000 L 0.984 24.000 1.031 23.530 C 1.093 22.921,1.235 22.401,1.481 21.887 C 1.742 21.339,1.981 20.988,2.370 20.577 C 2.804 20.118,3.236 19.802,3.815 19.519 C 4.389 19.238,4.888 19.097,5.530 19.031 C 6.442 18.939,7.334 19.103,8.185 19.519 C 9.768 20.293,10.790 21.765,10.969 23.530 L 11.016 24.000 12.000 24.000 L 12.984 24.000 13.031 23.530 C 13.093 22.921,13.235 22.401,13.481 21.887 C 13.742 21.339,13.981 20.988,14.370 20.577 C 14.804 20.118,15.236 19.802,15.815 19.519 C 16.389 19.238,16.888 19.097,17.530 19.031 C 18.442 18.939,19.334 19.103,20.185 19.519 C 21.768 20.293,22.790 21.765,22.969 23.530 L 23.016 24.000 23.514 24.000 L 24.012 24.000 23.985 23.590 C 23.848 21.495,22.602 19.620,20.710 18.660 C 20.429 18.517,20.204 18.387,20.210 18.370 C 20.215 18.354,20.346 18.239,20.501 18.117 C 21.186 17.572,21.667 16.812,21.892 15.920 C 22.022 15.401,22.013 14.521,21.871 13.995 C 21.551 12.806,20.799 11.914,19.663 11.376 C 19.186 11.150,18.736 11.043,18.131 11.013 L 17.642 10.988 17.596 10.844 C 17.504 10.554,17.070 9.766,16.815 9.427 C 16.253 8.679,15.548 8.088,14.700 7.656 C 14.414 7.510,14.189 7.379,14.200 7.365 C 14.211 7.351,14.346 7.239,14.501 7.117 C 15.186 6.572,15.667 5.812,15.892 4.920 C 16.022 4.401,16.013 3.521,15.871 2.995 C 15.617 2.054,15.046 1.240,14.269 0.712 C 13.917 0.473,13.343 0.214,12.958 0.120 C 12.572 0.026,11.783 -0.016,11.433 0.040 M12.756 1.097 C 13.093 1.189,13.595 1.447,13.873 1.671 C 14.554 2.219,15.000 3.140,15.000 4.000 C 15.000 4.802,14.587 5.711,13.980 6.246 C 12.866 7.226,11.193 7.249,10.080 6.297 C 9.624 5.907,9.214 5.247,9.075 4.680 C 9.006 4.398,9.005 3.605,9.074 3.320 C 9.154 2.989,9.489 2.329,9.702 2.080 C 10.159 1.549,10.828 1.162,11.503 1.040 C 11.770 0.991,12.491 1.024,12.756 1.097 M13.052 8.120 C 14.566 8.450,15.840 9.460,16.502 10.854 L 16.674 11.216 16.321 11.384 C 15.607 11.723,15.071 12.184,14.664 12.809 C 13.472 14.637,13.932 17.004,15.731 18.301 L 15.843 18.381 15.311 18.650 C 14.242 19.190,13.392 19.988,12.791 21.015 C 12.446 21.605,12.113 22.597,12.054 23.210 C 12.040 23.358,12.016 23.480,12.000 23.480 C 11.984 23.480,11.960 23.358,11.946 23.210 C 11.932 23.062,11.874 22.760,11.818 22.540 C 11.382 20.833,10.275 19.453,8.700 18.655 C 8.414 18.510,8.175 18.387,8.169 18.382 C 8.163 18.376,8.284 18.279,8.437 18.165 C 9.138 17.644,9.661 16.836,9.891 15.920 C 10.013 15.436,10.013 14.562,9.891 14.080 C 9.706 13.349,9.333 12.683,8.824 12.177 C 8.483 11.838,8.153 11.609,7.679 11.384 L 7.327 11.216 7.484 10.882 C 8.223 9.310,9.706 8.250,11.480 8.025 C 11.804 7.984,12.670 8.036,13.052 8.120 M6.756 12.097 C 7.093 12.189,7.595 12.447,7.873 12.671 C 8.554 13.219,9.000 14.140,9.000 15.000 C 9.000 15.781,8.641 16.603,8.052 17.173 C 6.969 18.220,5.223 18.275,4.080 17.297 C 3.624 16.907,3.214 16.247,3.075 15.680 C 3.005 15.397,3.005 14.603,3.075 14.320 C 3.157 13.985,3.444 13.408,3.664 13.135 C 4.120 12.569,4.792 12.169,5.503 12.040 C 5.770 11.991,6.491 12.024,6.756 12.097 M18.756 12.097 C 19.093 12.189,19.595 12.447,19.873 12.671 C 20.554 13.219,21.000 14.140,21.000 15.000 C 21.000 15.781,20.641 16.603,20.052 17.173 C 18.969 18.220,17.223 18.275,16.080 17.297 C 15.624 16.907,15.214 16.247,15.075 15.680 C 15.006 15.398,15.005 14.605,15.074 14.320 C 15.153 13.994,15.488 13.330,15.695 13.088 C 16.164 12.543,16.818 12.164,17.503 12.040 C 17.770 11.991,18.491 12.024,18.756 12.097 " fill="#455065" stroke="none" fill-rule="evenodd"></path></svg>