<svg width="24" height="24" viewBox="0 0 24 24" fill="none" xmlns="http://www.w3.org/2000/svg"><path d="M1.505 2.063 C 0.818 2.230,0.243 2.802,0.061 3.502 C 0.007 3.709,0.000 4.709,0.000 12.000 C 0.000 21.094,-0.017 20.472,0.244 20.962 C 0.400 21.254,0.746 21.600,1.038 21.756 C 1.530 22.018,0.752 22.000,11.500 22.000 C 22.248 22.000,21.470 22.018,21.962 21.756 C 22.254 21.600,22.600 21.254,22.756 20.962 C 23.015 20.475,23.000 20.940,23.000 13.500 C 23.000 6.060,23.015 6.525,22.756 6.038 C 22.600 5.746,22.254 5.400,21.961 5.244 C 21.485 4.990,21.782 5.001,15.537 5.001 C 9.192 5.000,9.619 5.019,9.320 4.720 C 9.134 4.534,9.061 4.327,9.004 3.827 C 8.970 3.525,8.927 3.363,8.820 3.133 C 8.569 2.588,8.006 2.150,7.423 2.043 C 7.266 2.015,6.254 2.001,4.463 2.003 C 2.256 2.006,1.695 2.017,1.505 2.063 M7.353 3.058 C 7.789 3.211,7.946 3.456,8.020 4.095 C 8.062 4.458,8.101 4.610,8.210 4.845 C 8.441 5.342,8.824 5.695,9.346 5.892 L 9.580 5.980 15.440 6.000 L 21.300 6.020 21.460 6.106 C 21.647 6.207,21.801 6.364,21.905 6.560 C 21.977 6.695,21.980 6.942,21.980 13.500 L 21.980 20.300 21.894 20.460 C 21.781 20.669,21.622 20.816,21.400 20.917 C 21.220 20.998,21.193 20.998,11.500 20.998 C 1.807 20.998,1.780 20.998,1.600 20.917 C 1.378 20.816,1.219 20.669,1.106 20.460 L 1.020 20.300 1.020 12.000 C 1.020 3.978,1.023 3.695,1.095 3.560 C 1.235 3.297,1.445 3.121,1.720 3.037 C 1.775 3.021,3.028 3.005,4.505 3.003 C 6.748 3.001,7.217 3.009,7.353 3.058 M11.000 10.650 L 11.000 12.299 9.840 11.140 L 8.680 9.981 8.330 10.330 L 7.981 10.680 9.140 11.840 L 10.299 13.000 8.650 13.000 L 7.000 13.000 7.000 13.500 L 7.000 14.000 8.650 14.000 L 10.299 14.000 9.140 15.160 L 7.981 16.320 8.330 16.670 L 8.680 17.019 9.840 15.860 L 11.000 14.701 11.000 16.350 L 11.000 18.000 11.500 18.000 L 12.000 18.000 12.000 16.350 L 12.000 14.701 13.170 15.870 L 14.341 17.040 14.690 16.690 L 15.040 16.341 13.870 15.170 L 12.701 14.000 14.350 14.000 L 16.000 14.000 16.000 13.500 L 16.000 13.000 14.350 13.000 L 12.701 13.000 13.870 11.830 L 15.040 10.659 14.690 10.310 L 14.341 9.960 13.170 11.130 L 12.000 12.299 12.000 10.650 L 12.000 9.000 11.500 9.000 L 11.000 9.000 11.000 10.650 " fill="#455065" stroke="none" fill-rule="evenodd"></path></svg>