<svg width="16" height="16" viewBox="0 0 16 16" fill="none" xmlns="http://www.w3.org/2000/svg"><path d="M1.096 1.055 C 0.857 1.120,0.640 1.252,0.440 1.453 C 0.221 1.673,0.125 1.839,0.053 2.122 C 0.001 2.324,0.000 2.435,0.000 7.507 C 0.000 12.585,0.001 12.689,0.053 12.892 C 0.123 13.167,0.238 13.362,0.456 13.578 C 0.649 13.769,0.902 13.910,1.173 13.977 C 1.295 14.007,2.384 14.013,7.520 14.013 C 13.305 14.013,13.731 14.010,13.886 13.967 C 14.419 13.820,14.834 13.405,14.974 12.879 C 15.007 12.755,15.013 12.116,15.013 8.511 C 15.013 3.856,15.024 4.151,14.848 3.802 C 14.739 3.587,14.438 3.287,14.220 3.177 C 13.880 3.005,14.073 3.013,10.466 3.013 C 6.878 3.013,6.998 3.018,6.847 2.861 C 6.755 2.764,6.693 2.614,6.693 2.486 C 6.693 2.290,6.636 2.066,6.528 1.840 C 6.345 1.457,5.986 1.159,5.586 1.054 C 5.358 0.995,1.317 0.996,1.096 1.055 M5.380 2.041 C 5.583 2.126,5.664 2.263,5.691 2.565 C 5.725 2.953,5.853 3.256,6.093 3.515 C 6.267 3.703,6.442 3.821,6.689 3.917 L 6.867 3.987 10.267 4.000 C 13.412 4.012,13.673 4.017,13.750 4.059 C 13.854 4.116,13.967 4.247,13.993 4.342 C 14.019 4.435,14.019 12.578,13.993 12.671 C 13.963 12.778,13.842 12.908,13.721 12.963 C 13.618 13.010,13.374 13.012,7.507 13.012 C 1.599 13.012,1.396 13.011,1.290 12.962 C 1.230 12.935,1.146 12.867,1.104 12.812 L 1.027 12.711 1.027 7.507 L 1.027 2.303 1.104 2.202 C 1.146 2.146,1.230 2.078,1.290 2.051 C 1.394 2.004,1.503 2.001,3.341 2.001 C 5.028 2.000,5.295 2.005,5.380 2.041 M6.987 6.633 L 6.987 7.266 6.540 6.820 L 6.093 6.373 5.733 6.733 L 5.374 7.093 5.827 7.547 L 6.279 8.000 5.632 8.000 L 4.985 8.000 4.993 8.500 L 5.000 9.000 5.639 9.007 L 6.278 9.014 5.826 9.467 L 5.374 9.920 5.727 10.273 L 6.080 10.626 6.533 10.174 L 6.986 9.722 6.993 10.361 L 7.000 11.000 7.500 11.007 L 8.000 11.015 8.000 10.368 L 8.000 9.721 8.453 10.173 L 8.907 10.626 9.267 10.267 L 9.627 9.907 9.180 9.460 L 8.734 9.013 9.367 9.013 L 10.000 9.013 10.000 8.507 L 10.000 8.000 9.354 8.000 L 8.707 8.000 9.167 7.540 L 9.627 7.080 9.273 6.727 L 8.920 6.373 8.460 6.833 L 8.000 7.293 8.000 6.646 L 8.000 6.000 7.493 6.000 L 6.987 6.000 6.987 6.633 " fill="#455065" stroke="none" fill-rule="evenodd"></path></svg>