<svg width="24" height="24" viewBox="0 0 24 24" fill="none" xmlns="http://www.w3.org/2000/svg"><path d="M6.531 3.090 C 6.509 3.118,5.335 6.992,3.921 11.700 C 2.507 16.408,1.300 20.427,1.239 20.631 L 1.127 21.002 1.653 20.991 L 2.178 20.980 2.922 18.500 L 3.666 16.020 7.168 16.010 L 10.670 16.000 11.164 17.510 C 11.436 18.340,11.804 19.461,11.982 20.000 L 12.305 20.980 12.837 20.991 C 13.310 21.001,13.367 20.995,13.345 20.939 C 13.327 20.891,9.542 9.351,7.695 3.710 L 7.475 3.040 7.023 3.040 C 6.708 3.040,6.558 3.055,6.531 3.090 M8.658 9.860 C 9.552 12.588,10.294 14.861,10.306 14.910 L 10.329 15.000 7.160 15.000 L 3.991 15.000 4.009 14.910 C 4.035 14.780,7.014 4.880,7.024 4.891 C 7.028 4.896,7.763 7.132,8.658 9.860 M18.520 8.025 C 17.759 8.123,16.897 8.520,16.303 9.045 C 16.091 9.233,15.675 9.736,15.580 9.921 L 15.521 10.034 15.944 10.277 C 16.177 10.411,16.373 10.520,16.378 10.520 C 16.384 10.520,16.452 10.425,16.529 10.309 C 16.902 9.746,17.577 9.272,18.251 9.097 C 19.638 8.738,21.081 9.424,21.704 10.740 C 21.968 11.299,22.000 11.546,22.000 13.049 L 22.000 14.329 21.757 14.104 C 21.261 13.645,20.575 13.271,19.938 13.114 C 19.459 12.995,18.610 12.986,18.140 13.094 C 16.674 13.432,15.536 14.525,15.132 15.983 C 15.034 16.337,15.022 16.447,15.022 17.000 C 15.022 17.553,15.034 17.663,15.132 18.017 C 15.701 20.071,17.720 21.336,19.765 20.919 C 20.569 20.755,21.213 20.417,21.810 19.845 L 22.000 19.663 22.000 20.332 L 22.000 21.000 22.501 21.000 L 23.002 21.000 22.991 16.190 L 22.980 11.380 22.873 10.992 C 22.600 10.005,22.014 9.197,21.180 8.660 C 20.516 8.233,19.922 8.047,19.140 8.022 C 18.876 8.014,18.597 8.015,18.520 8.025 M19.472 14.042 C 20.447 14.200,21.272 14.828,21.704 15.740 C 22.086 16.548,22.091 17.436,21.716 18.238 C 20.853 20.082,18.536 20.580,17.020 19.246 C 16.613 18.887,16.206 18.213,16.075 17.680 C 16.004 17.393,16.005 16.602,16.076 16.320 C 16.314 15.380,16.973 14.609,17.862 14.232 C 18.071 14.143,18.203 14.107,18.620 14.025 C 18.782 13.993,19.227 14.002,19.472 14.042 " fill="#455065" stroke="none" fill-rule="evenodd"></path></svg>