<svg width="16" height="16" viewBox="0 0 16 16" fill="none" xmlns="http://www.w3.org/2000/svg"><path d="M4.018 2.073 C 4.008 2.091,0.585 12.612,0.266 13.607 L 0.140 14.000 0.664 14.000 L 1.188 14.000 1.672 12.513 L 2.155 11.027 4.498 11.020 L 6.841 11.013 7.324 12.500 L 7.807 13.987 8.334 13.994 C 8.826 14.001,8.859 13.998,8.847 13.954 C 8.840 13.928,7.966 11.240,6.906 7.980 L 4.978 2.053 4.504 2.053 C 4.243 2.053,4.025 2.062,4.018 2.073 M5.511 6.925 C 6.058 8.607,6.502 9.987,6.497 9.992 C 6.492 9.997,5.589 9.997,4.491 9.994 L 2.493 9.987 3.492 6.914 C 4.041 5.225,4.497 3.848,4.504 3.855 C 4.511 3.862,4.964 5.243,5.511 6.925 M12.461 5.051 C 11.894 5.159,11.354 5.434,10.936 5.828 C 10.743 6.009,10.533 6.269,10.429 6.454 L 10.373 6.554 10.700 6.734 C 10.880 6.833,11.076 6.943,11.137 6.978 L 11.247 7.042 11.322 6.914 C 11.422 6.743,11.765 6.408,11.953 6.297 C 12.319 6.082,12.705 5.986,13.107 6.011 C 13.885 6.058,14.525 6.506,14.837 7.220 C 14.956 7.493,14.986 7.696,14.986 8.245 L 14.987 8.744 14.793 8.598 C 14.548 8.413,14.134 8.208,13.832 8.121 C 12.792 7.824,11.658 8.112,10.897 8.866 C 9.709 10.042,9.703 11.937,10.883 13.117 C 11.939 14.174,13.609 14.293,14.801 13.396 L 14.987 13.256 14.987 13.628 L 14.987 14.000 15.494 14.000 L 16.002 14.000 15.994 10.767 L 15.986 7.533 15.916 7.280 C 15.665 6.377,15.112 5.699,14.306 5.304 C 13.895 5.103,13.597 5.035,13.080 5.024 C 12.796 5.018,12.589 5.027,12.461 5.051 M13.482 9.066 C 14.724 9.378,15.351 10.759,14.773 11.907 C 14.537 12.376,14.119 12.734,13.617 12.894 C 12.660 13.200,11.655 12.775,11.215 11.880 C 11.071 11.586,11.013 11.336,11.013 11.000 C 11.013 10.664,11.071 10.414,11.215 10.120 C 11.472 9.597,11.958 9.201,12.510 9.066 C 12.787 8.998,13.210 8.998,13.482 9.066 " fill="#455065" stroke="none" fill-rule="evenodd"></path></svg>