<?xml version="1.0" encoding="UTF-8"?>
<svg width="16px" height="16px" viewBox="0 0 16 16" version="1.1" xmlns="http://www.w3.org/2000/svg" xmlns:xlink="http://www.w3.org/1999/xlink">
    <!-- Generator: sketchtool 54.1 (76490) - https://sketchapp.com -->
    <title>ea8972d6-9b70-4d72-8682-a52839888e23@1.00x</title>
    <desc>Created with sketchtool.</desc>
    <defs>
        <path d="M8,0 C3.58,0 0,3.582 0,8 C0,11.5353333 2.292,14.5333333 5.47,15.59 C5.87,15.6653333 6.01666667,15.418 6.01666667,15.2053333 C6.01666667,15.0153333 6.01,14.512 6.00666667,13.8453333 C3.78133333,14.328 3.312,12.772 3.312,12.772 C2.948,11.8486667 2.422,11.602 2.422,11.602 C1.69733333,11.106 2.478,11.116 2.478,11.116 C3.28133333,11.172 3.70333333,11.94 3.70333333,11.94 C4.41666667,13.1633333 5.576,12.81 6.03333333,12.6053333 C6.10533333,12.088 6.31133333,11.7353333 6.54,11.5353333 C4.76333333,11.3353333 2.896,10.6473333 2.896,7.582 C2.896,6.70866667 3.206,5.99533333 3.71933333,5.43533333 C3.62933333,5.23333333 3.35933333,4.42 3.78933333,3.318 C3.78933333,3.318 4.45933333,3.10333333 5.98933333,4.138 C6.62933333,3.96 7.30933333,3.872 7.98933333,3.868 C8.66933333,3.872 9.34933333,3.96 9.98933333,4.138 C11.5093333,3.10333333 12.1793333,3.318 12.1793333,3.318 C12.6093333,4.42 12.3393333,5.23333333 12.2593333,5.43533333 C12.7693333,5.99533333 13.0793333,6.70866667 13.0793333,7.582 C13.0793333,10.6553333 11.2093333,11.332 9.42933333,11.5286667 C9.70933333,11.7686667 9.96933333,12.2593333 9.96933333,13.0086667 C9.96933333,14.0793333 9.95933333,14.9393333 9.95933333,15.1993333 C9.95933333,15.4093333 10.0993333,15.6593333 10.5093333,15.5793333 C13.71,14.53 16,11.53 16,8 C16,3.582 12.418,4.07081776e-16 8,0" id="path-1"></path>
    </defs>
    <g id="Symbols" stroke="none" stroke-width="1" fill="none" fill-rule="evenodd">
        <g id="Icons-/-Social-Media-/-16-/-Github">
            <mask id="mask-2" fill="white">
                <use xlink:href="#path-1"></use>
            </mask>
            <use id="Path" fill="#000000" fill-rule="nonzero" xlink:href="#path-1"></use>
            <g id="Colors-/-Black" mask="url(#mask-2)" fill="#000000">
                <rect id="Rectangle" x="0" y="0" width="16" height="16"></rect>
            </g>
        </g>
    </g>
</svg>