<svg width="16" height="16" viewBox="0 0 16 16" fill="none" xmlns="http://www.w3.org/2000/svg"><path d="M4.126 2.086 C 4.106 2.134,3.179 4.679,2.066 7.742 C 0.466 12.146,0.050 13.315,0.079 13.333 C 0.135 13.367,0.961 13.662,0.970 13.650 C 0.974 13.645,1.269 12.836,1.626 11.853 C 1.982 10.871,2.279 10.052,2.286 10.033 C 2.305 9.984,7.695 9.984,7.714 10.033 C 7.721 10.052,8.018 10.871,8.374 11.853 C 8.731 12.836,9.026 13.645,9.030 13.650 C 9.039 13.662,9.865 13.367,9.921 13.333 C 9.950 13.315,9.528 12.130,7.904 7.662 L 5.850 2.013 5.005 2.006 L 4.161 1.999 4.126 2.086 M13.080 4.213 L 11.507 5.787 10.687 4.967 L 9.867 4.147 9.507 4.507 L 9.147 4.867 10.320 6.040 L 11.493 7.213 13.427 5.280 L 15.360 3.346 15.007 2.993 L 14.653 2.640 13.080 4.213 M6.244 5.987 C 6.842 7.629,7.332 8.982,7.332 8.993 C 7.333 9.004,6.283 9.013,5.000 9.013 C 3.717 9.013,2.667 9.007,2.667 9.000 C 2.667 8.989,4.749 3.253,4.824 3.059 C 4.852 2.987,4.860 2.984,5.005 2.992 L 5.157 3.000 6.244 5.987 " fill="#455065" stroke="none" fill-rule="evenodd"></path></svg>