<svg width="24" height="24" viewBox="0 0 24 24" fill="none" xmlns="http://www.w3.org/2000/svg"><path d="M7.149 3.050 C 7.126 3.108,0.128 21.096,0.078 21.226 C 0.047 21.306,0.077 21.326,0.492 21.490 C 0.739 21.587,0.950 21.657,0.963 21.644 C 0.976 21.631,1.651 19.906,2.463 17.811 L 3.940 14.001 8.000 14.001 L 12.060 14.001 13.537 17.811 C 14.349 19.906,15.024 21.631,15.037 21.644 C 15.050 21.657,15.261 21.587,15.508 21.490 C 15.923 21.326,15.953 21.306,15.922 21.226 C 15.872 21.096,8.874 3.108,8.851 3.050 C 8.823 2.978,7.177 2.978,7.149 3.050 M20.080 6.220 L 17.500 8.800 16.420 7.720 L 15.339 6.639 14.990 6.990 L 14.641 7.341 16.070 8.770 L 17.500 10.200 20.431 7.269 L 23.361 4.339 23.010 3.990 L 22.659 3.641 20.080 6.220 M9.888 8.420 C 10.830 10.840,11.611 12.861,11.625 12.910 L 11.649 13.000 8.004 13.000 C 5.963 13.000,4.360 12.985,4.360 12.965 C 4.360 12.935,7.693 4.335,7.800 4.088 C 7.834 4.009,7.865 3.997,8.008 4.008 L 8.175 4.020 9.888 8.420 " fill="#455065" stroke="none" fill-rule="evenodd"></path></svg>