<svg width="16" height="16" viewBox="0 0 16 16" fill="none" xmlns="http://www.w3.org/2000/svg"><path d="M-0.000 3.507 L -0.000 7.014 3.500 7.007 L 7.000 7.000 7.007 3.500 L 7.014 -0.000 3.507 -0.000 L 0.000 0.000 -0.000 3.507 M8.993 3.500 L 9.000 7.000 12.500 7.007 L 16.000 7.014 16.000 3.507 L 16.000 0.000 12.493 -0.000 L 8.986 -0.000 8.993 3.500 M6.000 3.507 L 6.000 6.000 3.507 6.000 L 1.013 6.000 1.013 3.507 L 1.013 1.013 3.507 1.013 L 6.000 1.013 6.000 3.507 M14.987 3.507 L 14.987 6.000 12.493 6.000 L 10.000 6.000 10.000 3.507 L 10.000 1.013 12.493 1.013 L 14.987 1.013 14.987 3.507 M0.000 12.507 L 0.000 16.000 3.507 16.000 L 7.013 16.000 7.013 12.507 L 7.013 9.013 3.507 9.013 L 0.000 9.013 0.000 12.507 M8.987 12.507 L 8.987 16.000 12.493 16.000 L 16.000 16.000 16.000 12.507 L 16.000 9.013 12.493 9.013 L 8.987 9.013 8.987 12.507 M6.000 12.507 L 6.000 15.013 3.507 15.013 L 1.013 15.013 1.013 12.507 L 1.013 10.000 3.507 10.000 L 6.000 10.000 6.000 12.507 M14.987 12.507 L 14.987 15.013 12.493 15.013 L 10.000 15.013 10.000 12.507 L 10.000 10.000 12.493 10.000 L 14.987 10.000 14.987 12.507 " fill="#455065" stroke="none" fill-rule="evenodd"></path></svg>