<svg width="24" height="24" viewBox="0 0 24 24" fill="none" xmlns="http://www.w3.org/2000/svg"><path d="M1.000 5.500 L 1.000 10.000 5.500 10.000 L 10.000 10.000 10.000 5.500 L 10.000 1.000 5.500 1.000 L 1.000 1.000 1.000 5.500 M14.000 5.500 L 14.000 10.000 18.500 10.000 L 23.000 10.000 23.000 5.500 L 23.000 1.000 18.500 1.000 L 14.000 1.000 14.000 5.500 M9.000 5.500 L 9.000 9.000 5.500 9.000 L 2.000 9.000 2.000 5.500 L 2.000 2.000 5.500 2.000 L 9.000 2.000 9.000 5.500 M22.000 5.500 L 22.000 9.000 18.500 9.000 L 15.000 9.000 15.000 5.500 L 15.000 2.000 18.500 2.000 L 22.000 2.000 22.000 5.500 M1.000 18.500 L 1.000 23.000 5.500 23.000 L 10.000 23.000 10.000 18.500 L 10.000 14.000 5.500 14.000 L 1.000 14.000 1.000 18.500 M14.000 18.500 L 14.000 23.000 18.500 23.000 L 23.000 23.000 23.000 18.500 L 23.000 14.000 18.500 14.000 L 14.000 14.000 14.000 18.500 M9.000 18.500 L 9.000 22.000 5.500 22.000 L 2.000 22.000 2.000 18.500 L 2.000 15.000 5.500 15.000 L 9.000 15.000 9.000 18.500 M22.000 18.500 L 22.000 22.000 18.500 22.000 L 15.000 22.000 15.000 18.500 L 15.000 15.000 18.500 15.000 L 22.000 15.000 22.000 18.500 " fill="#455065" stroke="none" fill-rule="evenodd"></path></svg>