<?xml version="1.0" encoding="UTF-8"?>
<svg width="24px" height="24px" viewBox="0 0 24 24" version="1.1" xmlns="http://www.w3.org/2000/svg" xmlns:xlink="http://www.w3.org/1999/xlink">
    <!-- Generator: sketchtool 59.1 (101010) - https://sketch.com -->
    <title>b46469f6-5e69-440f-b4d9-52e52ecf546c@1.00x</title>
    <desc>Created with sketchtool.</desc>
    <g id="Symbols" stroke="none" stroke-width="1" fill="none" fill-rule="evenodd">
        <g id="Icons-/-Top-Team-/-24-/-Guests" fill="#455065" fill-rule="nonzero">
            <path d="M7,1 L7,2 L5,2 L5,23 L19,23 L19,2 L17,2 L17,1 L20,1 L20,24 L4,24 L4,1 L7,1 Z M15,18 L15,19 L9,19 L9,18 L15,18 Z M12,6 C13.6568542,6 15,7.34314575 15,9 C15,9.99194437 14.5185744,10.8714458 13.77663,11.4175975 C15.034676,12.0402534 15.916837,13.307103 15.9944342,14.7871595 L16,15 L15,15 C15,13.3431458 13.6568542,12 12,12 C10.4023191,12 9.09633912,13.24892 9.00509269,14.8237272 L9,15 L8,15 C8,13.4292161 8.90541707,12.0699037 10.2228289,11.4154851 C9.48142558,10.8714458 9,9.99194437 9,9 C9,7.34314575 10.3431458,6 12,6 Z M12,7 C10.8954305,7 10,7.8954305 10,9 C10,10.1045695 10.8954305,11 12,11 C13.1045695,11 14,10.1045695 14,9 C14,7.8954305 13.1045695,7 12,7 Z M16,0 L16,3 L8,3 L8,0 L16,0 Z M15,1 L9,1 L9,2 L15,2 L15,1 Z" id="Combined-Shape"></path>
        </g>
    </g>
</svg>