<svg width="16" height="16" viewBox="0 0 16 16" fill="none" xmlns="http://www.w3.org/2000/svg"><path d="M2.987 1.507 L 2.987 2.000 1.493 2.000 L 0.000 2.000 0.000 8.000 L 0.000 14.000 3.876 14.000 L 7.752 14.000 7.943 14.251 C 8.355 14.791,8.978 15.293,9.588 15.575 C 10.645 16.065,11.823 16.130,12.936 15.760 C 14.818 15.136,16.069 13.323,15.992 11.333 C 15.911 9.250,14.460 7.539,12.391 7.088 C 12.155 7.036,12.041 7.028,11.507 7.028 C 10.969 7.028,10.859 7.036,10.613 7.089 C 9.009 7.437,7.746 8.550,7.240 10.062 C 6.944 10.947,6.923 11.835,7.177 12.745 C 7.208 12.855,7.238 12.960,7.246 12.979 C 7.257 13.007,6.685 13.013,4.136 13.013 L 1.013 13.013 1.013 9.507 L 1.013 6.000 7.999 6.000 L 14.985 6.000 14.993 6.500 L 15.000 7.000 15.500 7.007 L 16.000 7.015 16.000 4.507 L 16.000 2.000 14.507 2.000 L 13.013 2.000 13.013 1.507 L 13.013 1.013 12.507 1.013 L 12.000 1.013 12.000 1.507 L 12.000 2.000 8.000 2.000 L 4.000 2.000 4.000 1.507 L 4.000 1.013 3.493 1.013 L 2.987 1.013 2.987 1.507 M2.987 3.507 L 2.987 4.000 3.493 4.000 L 4.000 4.000 4.000 3.507 L 4.000 3.013 8.000 3.013 L 12.000 3.013 12.000 3.507 L 12.000 4.000 12.507 4.000 L 13.013 4.000 13.013 3.507 L 13.013 3.013 14.000 3.013 L 14.987 3.013 14.987 4.013 L 14.987 5.013 8.000 5.013 L 1.013 5.013 1.013 4.013 L 1.013 3.013 2.000 3.013 L 2.987 3.013 2.987 3.507 M12.267 8.090 C 12.940 8.245,13.474 8.540,13.962 9.026 C 14.494 9.556,14.828 10.201,14.948 10.929 C 15.014 11.329,14.991 11.965,14.897 12.337 C 14.647 13.330,13.967 14.177,13.053 14.633 C 11.671 15.324,9.988 15.014,8.934 13.874 C 8.499 13.404,8.220 12.862,8.077 12.211 C 7.998 11.852,7.990 11.205,8.062 10.848 C 8.199 10.160,8.524 9.541,9.006 9.052 C 9.558 8.490,10.267 8.136,11.053 8.028 C 11.359 7.987,11.945 8.017,12.267 8.090 M10.987 10.013 L 10.987 11.013 10.493 11.013 L 10.000 11.013 10.000 11.507 L 10.000 12.000 11.000 12.000 L 12.000 12.000 12.000 10.507 L 12.000 9.013 11.493 9.013 L 10.987 9.013 10.987 10.013 " fill="#455065" stroke="none" fill-rule="evenodd"></path></svg>