<svg width="24" height="24" viewBox="0 0 24 24" fill="none" xmlns="http://www.w3.org/2000/svg"><path d="M5.000 2.000 L 5.000 3.000 2.500 3.000 L 0.000 3.000 0.000 12.000 L 0.000 21.000 6.013 21.000 L 12.026 21.000 12.222 21.290 C 12.330 21.449,12.644 21.807,12.919 22.083 C 13.864 23.033,14.917 23.598,16.280 23.886 C 16.852 24.007,18.023 24.017,18.620 23.906 C 19.968 23.655,21.112 23.053,22.082 22.082 C 22.866 21.299,23.362 20.491,23.691 19.460 C 23.917 18.752,23.980 18.325,23.980 17.500 C 23.980 16.448,23.805 15.646,23.374 14.721 C 22.782 13.451,21.611 12.269,20.340 11.659 C 19.285 11.153,18.089 10.930,16.974 11.033 C 16.346 11.091,15.986 11.164,15.446 11.343 C 14.463 11.670,13.680 12.157,12.917 12.918 C 12.135 13.697,11.639 14.506,11.309 15.540 C 11.081 16.255,11.020 16.673,11.021 17.520 C 11.022 18.365,11.096 18.835,11.339 19.558 C 11.417 19.788,11.480 19.981,11.480 19.988 C 11.480 19.995,9.122 20.000,6.240 20.000 L 1.000 20.000 1.000 14.000 L 1.000 8.000 12.000 8.000 L 23.000 8.000 23.000 9.500 L 23.000 11.000 23.500 11.000 L 24.000 11.000 24.000 7.000 L 24.000 3.000 21.500 3.000 L 19.000 3.000 19.000 2.000 L 19.000 1.000 18.500 1.000 L 18.000 1.000 18.000 2.000 L 18.000 3.000 12.000 3.000 L 6.000 3.000 6.000 2.000 L 6.000 1.000 5.500 1.000 L 5.000 1.000 5.000 2.000 M5.000 5.000 L 5.000 6.000 5.500 6.000 L 6.000 6.000 6.000 5.000 L 6.000 4.000 12.000 4.000 L 18.000 4.000 18.000 5.000 L 18.000 6.000 18.500 6.000 L 19.000 6.000 19.000 5.000 L 19.000 4.000 21.000 4.000 L 23.000 4.000 23.000 5.500 L 23.000 7.000 12.000 7.000 L 1.000 7.000 1.000 5.500 L 1.000 4.000 3.000 4.000 L 5.000 4.000 5.000 5.000 M18.517 12.100 C 19.624 12.315,20.591 12.828,21.382 13.618 C 22.177 14.414,22.682 15.371,22.905 16.505 C 23.002 16.997,23.003 18.012,22.906 18.495 C 22.679 19.635,22.176 20.587,21.382 21.381 C 20.600 22.163,19.648 22.673,18.540 22.904 C 18.035 23.009,16.965 23.009,16.460 22.904 C 15.352 22.673,14.400 22.163,13.618 21.381 C 12.824 20.587,12.320 19.634,12.094 18.495 C 11.997 18.007,11.997 16.993,12.094 16.505 C 12.320 15.366,12.824 14.413,13.618 13.618 C 14.519 12.717,15.613 12.196,16.960 12.025 C 17.236 11.990,18.186 12.036,18.517 12.100 M17.000 15.000 L 17.000 17.000 16.000 17.000 L 15.000 17.000 15.000 17.500 L 15.000 18.000 16.500 18.000 L 18.000 18.000 18.000 15.500 L 18.000 13.000 17.500 13.000 L 17.000 13.000 17.000 15.000 " fill="#455065" stroke="none" fill-rule="evenodd"></path></svg>