<svg width="24" height="24" viewBox="0 0 24 24" fill="none" xmlns="http://www.w3.org/2000/svg"><path d="M0.000 11.500 L 0.000 21.000 9.500 21.000 L 19.000 21.000 19.000 11.500 L 19.000 2.000 9.500 2.000 L 0.000 2.000 0.000 11.500 M18.000 5.922 C 18.000 8.250,17.990 8.839,17.950 8.814 C 17.922 8.798,17.364 8.355,16.709 7.830 C 16.053 7.306,15.495 6.868,15.468 6.858 C 15.432 6.844,9.052 13.963,7.499 15.750 L 7.378 15.889 5.419 14.910 L 3.460 13.931 2.300 14.708 C 1.662 15.135,1.109 15.502,1.070 15.524 C 1.003 15.561,1.000 15.252,1.000 9.281 L 1.000 3.000 9.500 3.000 L 18.000 3.000 18.000 5.922 M21.000 3.500 L 21.000 4.000 22.000 4.000 L 23.000 4.000 23.000 11.500 L 23.000 19.000 22.000 19.000 L 21.000 19.000 21.000 19.500 L 21.000 20.000 22.500 20.000 L 24.000 20.000 24.000 11.500 L 24.000 3.000 22.500 3.000 L 21.000 3.000 21.000 3.500 M5.503 6.040 C 4.828 6.162,4.156 6.550,3.703 7.080 C 2.987 7.917,2.806 9.100,3.234 10.151 C 3.521 10.857,4.143 11.479,4.849 11.766 C 5.989 12.230,7.251 11.978,8.115 11.115 C 9.238 9.992,9.295 8.212,8.246 7.020 C 7.897 6.624,7.276 6.239,6.756 6.097 C 6.491 6.024,5.770 5.991,5.503 6.040 M6.383 7.043 C 7.185 7.190,7.839 7.872,7.967 8.695 C 8.153 9.894,7.209 11.000,6.000 11.000 C 5.032 11.000,4.183 10.268,4.033 9.305 C 3.933 8.663,4.132 8.061,4.596 7.596 C 5.085 7.108,5.698 6.918,6.383 7.043 M16.784 9.170 L 17.999 10.140 17.999 15.070 L 18.000 20.000 9.500 20.000 L 1.000 20.000 1.000 18.386 L 1.000 16.773 2.266 15.929 L 3.532 15.086 5.575 16.107 L 7.617 17.129 7.739 16.986 C 8.018 16.658,15.541 8.202,15.555 8.201 C 15.563 8.200,16.116 8.636,16.784 9.170 " fill="#455065" stroke="none" fill-rule="evenodd"></path></svg>