<svg width="16" height="16" viewBox="0 0 16 16" fill="none" xmlns="http://www.w3.org/2000/svg"><path d="M0.000 8.000 L 0.000 14.000 6.507 14.000 L 13.013 14.000 13.013 8.000 L 13.013 2.000 6.507 2.000 L 0.000 2.000 0.000 8.000 M12.000 4.153 L 12.000 5.293 11.247 4.540 L 10.493 3.787 7.442 6.838 L 4.391 9.889 3.436 9.411 C 2.910 9.148,2.468 8.933,2.453 8.933 C 2.438 8.933,2.114 9.167,1.733 9.453 C 1.353 9.739,1.035 9.973,1.027 9.973 C 1.020 9.973,1.013 8.407,1.013 6.493 L 1.013 3.013 6.507 3.013 L 12.000 3.013 12.000 4.153 M14.000 3.507 L 14.000 4.000 14.493 4.000 L 14.987 4.000 14.987 8.000 L 14.987 12.000 14.493 12.000 L 14.000 12.000 14.000 12.507 L 14.000 13.013 15.000 13.013 L 16.000 13.013 16.000 8.013 L 16.000 3.013 15.000 3.013 L 14.000 3.013 14.000 3.507 M3.669 4.026 C 3.219 4.108,2.771 4.367,2.469 4.720 C 1.991 5.278,1.871 6.067,2.156 6.767 C 2.347 7.238,2.762 7.653,3.233 7.844 C 3.993 8.153,4.834 7.986,5.410 7.410 C 6.159 6.661,6.197 5.475,5.497 4.680 C 5.265 4.416,4.851 4.160,4.504 4.065 C 4.327 4.016,3.847 3.994,3.669 4.026 M4.431 5.101 C 4.608 5.188,4.833 5.417,4.915 5.593 C 4.963 5.698,4.973 5.768,4.973 6.000 C 4.973 6.251,4.966 6.295,4.901 6.428 C 4.707 6.821,4.268 7.054,3.848 6.986 C 3.533 6.935,3.241 6.717,3.101 6.430 C 3.009 6.243,2.986 5.920,3.050 5.701 C 3.130 5.427,3.385 5.160,3.662 5.061 C 3.873 4.986,4.234 5.005,4.431 5.101 M11.260 5.966 L 12.000 6.706 12.000 9.860 L 12.000 13.013 6.507 13.013 L 1.013 13.013 1.013 12.127 L 1.013 11.240 1.781 10.664 L 2.549 10.088 3.548 10.589 C 4.097 10.865,4.565 11.091,4.587 11.092 C 4.609 11.093,5.947 9.773,7.560 8.160 C 9.173 6.547,10.499 5.227,10.506 5.227 C 10.514 5.227,10.853 5.560,11.260 5.966 " fill="#455065" stroke="none" fill-rule="evenodd"></path></svg>