<svg width="16" height="16" viewBox="0 0 16 16" fill="none" xmlns="http://www.w3.org/2000/svg">
<g id="Size=16">
<path id="Combined Shape" fill-rule="evenodd" clip-rule="evenodd" d="M16 8C16 12.4183 12.4183 16 8 16C3.58172 16 0 12.4183 0 8C0 3.58172 3.58172 0 8 0C12.4183 0 16 3.58172 16 8ZM7 6H8C8.55229 6 9 6.44772 9 7V11C9.55229 11 10 11.4477 10 12C10 12.5523 9.55229 13 9 13H7C6.44772 13 6 12.5523 6 12C6 11.4477 6.44772 11 7 11V8C6.44772 8 6 7.55228 6 7C6 6.44772 6.44772 6 7 6ZM8 3C7.44772 3 7 3.44772 7 4C7 4.55228 7.44772 5 8 5C8.55229 5 9 4.55228 9 4C9 3.44772 8.55229 3 8 3Z" fill="#455065"/>
</g>
</svg>
