<svg width="16" height="16" viewBox="0 0 16 16" fill="none" xmlns="http://www.w3.org/2000/svg"><path d="M7.227 0.856 C 5.735 1.023,4.272 1.688,3.190 2.692 C 2.509 3.324,2.004 3.991,1.596 4.798 C 1.435 5.119,1.413 5.150,1.392 5.092 C 1.379 5.056,1.280 4.781,1.173 4.480 C 1.066 4.179,0.976 3.930,0.974 3.927 C 0.971 3.923,0.760 3.997,0.505 4.090 C 0.179 4.209,0.043 4.270,0.049 4.296 C 0.084 4.447,1.028 7.013,1.048 7.013 C 1.084 7.013,3.769 6.050,3.790 6.030 C 3.821 6.000,3.478 5.106,3.438 5.110 C 3.417 5.112,3.179 5.193,2.909 5.291 C 2.640 5.388,2.413 5.462,2.406 5.455 C 2.399 5.448,2.456 5.319,2.533 5.168 C 3.000 4.248,3.761 3.406,4.653 2.820 C 5.377 2.345,6.157 2.043,7.055 1.889 C 7.518 1.810,8.467 1.804,8.933 1.877 C 9.570 1.976,10.246 2.189,10.787 2.460 C 12.225 3.181,13.378 4.498,13.881 5.993 C 13.925 6.121,13.970 6.213,13.991 6.213 C 14.044 6.213,14.863 5.969,14.890 5.945 C 14.917 5.920,14.808 5.582,14.648 5.201 C 14.112 3.918,13.158 2.775,11.968 1.992 C 11.043 1.383,10.027 1.011,8.899 0.867 C 8.556 0.823,7.577 0.817,7.227 0.856 M6.073 4.646 L 4.133 5.766 4.140 8.005 L 4.147 10.244 6.083 11.362 L 8.020 12.479 9.950 11.365 L 11.880 10.252 11.880 8.001 L 11.880 5.751 10.040 4.688 C 9.028 4.103,8.158 3.603,8.107 3.576 L 8.013 3.527 6.073 4.646 M9.221 5.372 C 9.855 5.737,10.373 6.044,10.373 6.053 C 10.373 6.091,9.731 6.432,9.690 6.416 C 9.614 6.387,7.360 5.081,7.361 5.067 C 7.363 5.038,7.989 4.694,8.028 4.700 C 8.050 4.704,8.587 5.006,9.221 5.372 M7.537 6.337 L 8.722 7.020 8.381 7.216 C 8.193 7.324,8.031 7.413,8.021 7.413 C 7.995 7.413,5.730 6.109,5.688 6.070 C 5.663 6.047,5.736 5.994,5.994 5.847 C 6.181 5.741,6.337 5.654,6.343 5.654 C 6.348 5.653,6.885 5.961,7.537 6.337 M6.338 7.608 L 7.507 8.283 7.514 9.660 L 7.520 11.037 7.060 10.771 C 6.807 10.624,6.273 10.317,5.873 10.086 L 5.147 9.668 5.147 8.301 C 5.147 7.549,5.152 6.933,5.158 6.933 C 5.164 6.933,5.695 7.237,6.338 7.608 M10.900 8.300 L 10.893 9.666 9.733 10.338 C 9.095 10.707,8.564 11.011,8.553 11.012 C 8.542 11.013,8.533 10.398,8.534 9.647 L 8.534 8.280 9.700 7.607 C 10.342 7.237,10.876 6.934,10.887 6.934 C 10.898 6.934,10.904 7.548,10.900 8.300 M13.587 9.393 C 12.853 9.658,12.251 9.876,12.247 9.879 C 12.227 9.894,12.577 10.800,12.603 10.800 C 12.620 10.800,12.871 10.716,13.161 10.612 C 13.450 10.509,13.693 10.431,13.701 10.438 C 13.721 10.458,13.512 10.882,13.339 11.172 C 13.000 11.743,12.444 12.387,11.938 12.797 C 11.099 13.478,10.126 13.916,9.027 14.108 C 8.618 14.180,7.858 14.206,7.438 14.163 C 6.206 14.035,5.005 13.534,4.093 12.768 C 3.823 12.540,3.409 12.123,3.204 11.872 C 2.834 11.419,2.427 10.692,2.212 10.100 C 2.149 9.928,2.085 9.787,2.069 9.787 C 2.024 9.787,1.189 10.033,1.166 10.053 C 1.146 10.070,1.261 10.435,1.385 10.747 C 1.594 11.272,2.038 12.015,2.445 12.520 C 2.742 12.888,3.336 13.460,3.726 13.753 C 5.929 15.408,8.882 15.652,11.332 14.383 C 12.660 13.695,13.796 12.547,14.432 11.252 C 14.525 11.065,14.607 10.910,14.616 10.909 C 14.625 10.908,14.719 11.153,14.826 11.453 C 14.934 11.759,15.034 12.000,15.052 12.000 C 15.070 12.000,15.282 11.929,15.522 11.841 C 15.811 11.737,15.957 11.671,15.952 11.648 C 15.918 11.496,14.968 8.907,14.947 8.910 C 14.932 8.911,14.320 9.129,13.587 9.393 " fill="#455065" stroke="none" fill-rule="evenodd"></path></svg>