<svg width="24" height="24" viewBox="0 0 24 24" fill="none" xmlns="http://www.w3.org/2000/svg"><path d="M11.120 1.281 C 9.433 1.442,7.837 1.965,6.443 2.816 C 4.400 4.062,2.720 6.110,1.943 8.300 C 1.903 8.413,1.907 8.423,1.417 7.060 C 1.180 6.400,0.981 5.853,0.975 5.845 C 0.961 5.827,0.040 6.162,0.040 6.184 C 0.040 6.230,1.453 10.106,1.480 10.134 C 1.505 10.160,5.389 8.799,5.475 8.735 C 5.483 8.728,5.414 8.515,5.320 8.261 C 5.165 7.837,5.143 7.800,5.065 7.825 C 5.018 7.839,4.521 8.018,3.960 8.221 C 3.399 8.424,2.935 8.577,2.929 8.561 C 2.890 8.463,3.491 7.263,3.871 6.680 C 5.254 4.559,7.493 3.000,9.900 2.482 C 12.649 1.889,15.440 2.449,17.685 4.042 C 18.955 4.944,20.051 6.227,20.762 7.643 C 20.982 8.083,21.305 8.877,21.346 9.079 C 21.359 9.146,21.390 9.200,21.415 9.199 C 21.440 9.199,21.658 9.137,21.900 9.063 C 22.270 8.950,22.338 8.916,22.327 8.854 C 22.319 8.813,22.223 8.537,22.113 8.240 C 21.861 7.564,21.402 6.659,21.012 6.071 C 19.296 3.483,16.523 1.746,13.460 1.339 C 12.880 1.262,11.643 1.232,11.120 1.281 M9.200 7.076 L 6.380 8.706 6.380 12.002 L 6.380 15.298 9.210 16.929 L 12.040 18.560 14.870 16.926 L 17.700 15.291 17.700 12.002 L 17.700 8.712 14.866 7.076 C 13.308 6.176,12.030 5.442,12.026 5.444 C 12.023 5.446,10.751 6.180,9.200 7.076 M14.091 7.783 C 15.218 8.433,16.153 8.978,16.169 8.994 C 16.185 9.010,15.850 9.225,15.423 9.472 L 14.647 9.922 12.594 8.737 C 11.464 8.086,10.527 7.540,10.511 7.525 C 10.490 7.505,11.953 6.616,12.031 6.602 C 12.037 6.601,12.964 7.132,14.091 7.783 M11.640 9.340 C 12.663 9.930,13.530 10.433,13.568 10.458 C 13.625 10.497,13.518 10.572,12.860 10.952 C 12.433 11.198,12.064 11.400,12.040 11.400 C 11.949 11.400,7.878 9.026,7.912 8.992 C 7.931 8.973,8.287 8.761,8.703 8.521 L 9.460 8.085 9.620 8.177 C 9.708 8.227,10.617 8.751,11.640 9.340 M10.600 11.750 L 11.500 12.269 11.510 14.675 C 11.516 15.998,11.511 17.080,11.498 17.080 C 11.486 17.080,10.550 16.546,9.418 15.894 L 7.360 14.709 7.360 12.296 L 7.360 9.883 8.530 10.557 C 9.174 10.928,10.105 11.464,10.600 11.750 M16.720 12.291 L 16.720 14.703 14.662 15.891 C 13.530 16.545,12.594 17.080,12.582 17.080 C 12.569 17.080,12.564 15.997,12.570 14.674 L 12.580 12.268 14.640 11.076 C 15.773 10.420,16.704 9.883,16.710 9.882 C 16.715 9.881,16.720 10.965,16.720 12.291 M20.526 14.439 C 19.484 14.811,18.624 15.123,18.615 15.132 C 18.606 15.141,18.673 15.356,18.763 15.611 L 18.928 16.074 19.074 16.021 C 20.291 15.581,21.173 15.280,21.192 15.298 C 21.228 15.335,20.977 15.930,20.695 16.476 C 20.188 17.457,19.606 18.235,18.791 19.023 C 17.315 20.449,15.645 21.284,13.536 21.647 C 12.846 21.766,11.347 21.776,10.648 21.666 C 8.433 21.317,6.604 20.378,5.057 18.794 C 4.339 18.060,3.779 17.275,3.318 16.357 C 3.116 15.953,2.794 15.171,2.739 14.950 C 2.723 14.889,2.697 14.831,2.680 14.820 C 2.664 14.810,2.445 14.862,2.195 14.935 C 1.807 15.050,1.742 15.081,1.753 15.145 C 1.790 15.353,2.201 16.364,2.443 16.840 C 2.762 17.471,3.063 17.958,3.441 18.460 C 5.558 21.271,8.880 22.864,12.380 22.746 C 13.470 22.709,14.352 22.557,15.360 22.232 C 18.340 21.270,20.833 18.950,21.999 16.052 C 22.140 15.703,22.159 15.673,22.192 15.762 C 22.212 15.816,22.404 16.346,22.619 16.940 C 22.833 17.534,23.017 18.029,23.027 18.039 C 23.037 18.050,23.252 17.987,23.504 17.899 C 23.911 17.758,23.961 17.731,23.942 17.660 C 23.930 17.616,23.609 16.725,23.229 15.680 C 22.766 14.406,22.519 13.778,22.480 13.772 C 22.447 13.767,21.567 14.067,20.526 14.439 " fill="#455065" stroke="none" fill-rule="evenodd"></path></svg>