<?xml version="1.0" encoding="UTF-8"?>
<svg width="16px" height="16px" viewBox="0 0 16 16" version="1.1" xmlns="http://www.w3.org/2000/svg" xmlns:xlink="http://www.w3.org/1999/xlink">
    <!-- Generator: sketchtool 54.1 (76490) - https://sketchapp.com -->
    <title>09a777d9-f381-484a-b37d-8b11f5dbbbfd@1.00x</title>
    <desc>Created with sketchtool.</desc>
    <defs>
        <path d="M8,0 C5.82666667,0 5.55533333,0.01 4.702,0.048 C3.85,0.088 3.27,0.222 2.76,0.42 C2.234,0.624 1.78733333,0.898 1.34266667,1.34266667 C0.898,1.78733333 0.623333333,2.23333333 0.42,2.76 C0.222,3.27 0.0873333333,3.85 0.048,4.702 C0.008,5.55533333 0,5.82666667 0,8 C0,10.1733333 0.01,10.4446667 0.048,11.298 C0.088,12.1493333 0.222,12.73 0.42,13.24 C0.624,13.7653333 0.898,14.2126667 1.34266667,14.6573333 C1.78733333,15.1013333 2.23333333,15.3766667 2.76,15.58 C3.27066667,15.7773333 3.85066667,15.9126667 4.702,15.952 C5.55533333,15.992 5.82666667,16 8,16 C10.1733333,16 10.4446667,15.99 11.298,15.952 C12.1493333,15.912 12.73,15.7773333 13.24,15.58 C13.7653333,15.376 14.2126667,15.1013333 14.6573333,14.6573333 C15.1013333,14.2126667 15.3766667,13.7673333 15.58,13.24 C15.7773333,12.73 15.9126667,12.1493333 15.952,11.298 C15.992,10.4446667 16,10.1733333 16,8 C16,5.82666667 15.99,5.55533333 15.952,4.702 C15.912,3.85066667 15.7773333,3.26933333 15.58,2.76 C15.376,2.234 15.1013333,1.78733333 14.6573333,1.34266667 C14.2126667,0.898 13.7673333,0.623333333 13.24,0.42 C12.73,0.222 12.1493333,0.0873333333 11.298,0.048 C10.4446667,0.008 10.1733333,0 8,0 Z M8,1.44 C10.1353333,1.44 10.39,1.45066667 11.2333333,1.48733333 C12.0133333,1.524 12.4366667,1.65333333 12.718,1.764 C13.0926667,1.90866667 13.358,2.082 13.6393333,2.36133333 C13.9186667,2.64133333 14.092,2.90733333 14.2366667,3.282 C14.346,3.56333333 14.4766667,3.98666667 14.512,4.76666667 C14.55,5.61066667 14.5586667,5.864 14.5586667,8 C14.5586667,10.136 14.5486667,10.39 14.5093333,11.2333333 C14.4686667,12.0133333 14.3386667,12.4366667 14.2286667,12.718 C14.0793333,13.0926667 13.9093333,13.358 13.6293333,13.6393333 C13.35,13.9186667 13.08,14.092 12.7093333,14.2366667 C12.4293333,14.346 11.9993333,14.4766667 11.2193333,14.512 C10.37,14.55 10.12,14.5586667 7.98,14.5586667 C5.83933333,14.5586667 5.58933333,14.5486667 4.74066667,14.5093333 C3.96,14.4686667 3.53,14.3386667 3.25,14.2286667 C2.87066667,14.0793333 2.61,13.9093333 2.33066667,13.6293333 C2.05,13.35 1.87066667,13.08 1.73066667,12.7093333 C1.62066667,12.4293333 1.49133333,11.9993333 1.45066667,11.2193333 C1.42066667,10.3793333 1.41,10.12 1.41,7.99 C1.41,5.85933333 1.42066667,5.59933333 1.45066667,4.74933333 C1.49133333,3.96933333 1.62066667,3.54 1.73066667,3.26 C1.87066667,2.88 2.05,2.62 2.33066667,2.33933333 C2.61,2.06 2.87066667,1.88 3.25,1.74066667 C3.53,1.63 3.95066667,1.5 4.73066667,1.46 C5.58066667,1.43 5.83066667,1.42 7.97,1.42 L8,1.44 L8,1.44 Z M8,3.892 C5.73,3.892 3.892,5.732 3.892,8 C3.892,10.27 5.732,12.108 8,12.108 C10.27,12.108 12.108,10.268 12.108,8 C12.108,5.73 10.268,3.892 8,3.892 Z M8,10.6666667 C6.52666667,10.6666667 5.33333333,9.47333333 5.33333333,8 C5.33333333,6.52666667 6.52666667,5.33333333 8,5.33333333 C9.47333333,5.33333333 10.6666667,6.52666667 10.6666667,8 C10.6666667,9.47333333 9.47333333,10.6666667 8,10.6666667 Z M13.2306667,3.73 C13.2306667,4.26 12.8,4.69 12.2706667,4.69 C11.7406667,4.69 11.3106667,4.25933333 11.3106667,3.73 C11.3106667,3.20066667 11.7413333,2.77066667 12.2706667,2.77066667 C12.7993333,2.77 13.2306667,3.20066667 13.2306667,3.73 Z" id="path-1"></path>
    </defs>
    <g id="Symbols" stroke="none" stroke-width="1" fill="none" fill-rule="evenodd">
        <g id="Icons-/-Social-Media-/-16-/-Instagram">
            <mask id="mask-2" fill="white">
                <use xlink:href="#path-1"></use>
            </mask>
            <use id="Shape" fill="#000000" fill-rule="nonzero" xlink:href="#path-1"></use>
            <g id="Colors-/-Black" mask="url(#mask-2)" fill="#000000">
                <rect id="Rectangle" x="0" y="0" width="16" height="16"></rect>
            </g>
        </g>
    </g>
</svg>