<svg width="16" height="16" viewBox="0 0 16 16" fill="none" xmlns="http://www.w3.org/2000/svg"><path d="M0.000 7.267 L 0.000 12.560 1.107 12.560 C 2.155 12.560,2.213 12.563,2.213 12.608 C 2.213 12.690,2.420 13.089,2.550 13.257 C 3.111 13.987,4.160 14.215,4.982 13.787 C 5.234 13.656,5.479 13.454,5.641 13.242 C 5.763 13.083,5.927 12.770,5.961 12.633 L 5.979 12.560 8.318 12.560 L 10.656 12.560 10.743 12.773 C 10.966 13.318,11.399 13.724,11.960 13.913 C 12.153 13.979,12.210 13.986,12.560 13.986 C 12.910 13.986,12.967 13.979,13.160 13.913 C 13.443 13.818,13.678 13.677,13.898 13.470 C 14.118 13.264,14.261 13.057,14.377 12.773 L 14.464 12.560 15.232 12.560 L 16.000 12.560 16.000 10.377 L 16.000 8.194 14.970 6.244 L 13.940 4.293 12.010 4.293 L 10.080 4.293 10.080 3.133 L 10.080 1.973 5.040 1.973 L 0.000 1.973 0.000 7.267 M9.067 7.267 L 9.067 11.547 7.524 11.547 L 5.982 11.547 5.948 11.433 C 5.857 11.130,5.608 10.767,5.337 10.544 C 5.133 10.376,4.803 10.208,4.558 10.149 C 4.336 10.095,3.857 10.094,3.634 10.147 C 3.024 10.290,2.494 10.754,2.263 11.347 L 2.191 11.533 1.602 11.541 L 1.013 11.548 1.013 7.267 L 1.013 2.987 5.040 2.987 L 9.067 2.987 9.067 7.267 M5.800 5.333 L 5.454 5.680 6.000 6.227 L 6.546 6.773 4.433 6.773 L 2.320 6.773 2.320 7.280 L 2.320 7.787 4.433 7.787 L 6.546 7.787 6.006 8.327 L 5.467 8.867 5.820 9.220 L 6.174 9.573 7.320 8.427 L 8.466 7.280 7.320 6.133 C 6.689 5.503,6.167 4.987,6.160 4.987 C 6.152 4.987,5.990 5.143,5.800 5.333 M14.167 6.865 L 14.987 8.422 14.987 9.984 L 14.987 11.547 14.722 11.547 L 14.457 11.547 14.425 11.447 C 14.285 11.009,13.884 10.535,13.474 10.324 C 13.171 10.168,12.912 10.107,12.560 10.107 C 12.208 10.107,11.949 10.168,11.646 10.324 C 11.236 10.535,10.835 11.009,10.695 11.447 L 10.663 11.547 10.371 11.547 L 10.080 11.547 10.080 8.427 L 10.080 5.307 11.713 5.308 L 13.347 5.309 14.167 6.865 M4.490 11.182 C 4.806 11.326,5.016 11.640,5.035 11.995 C 5.049 12.238,5.008 12.389,4.875 12.587 C 4.465 13.202,3.543 13.125,3.227 12.450 C 3.079 12.134,3.118 11.757,3.327 11.480 C 3.444 11.326,3.632 11.190,3.810 11.133 C 3.992 11.075,4.305 11.097,4.490 11.182 M12.964 11.186 C 13.161 11.284,13.341 11.469,13.431 11.664 C 13.493 11.801,13.505 11.863,13.506 12.054 C 13.507 12.257,13.498 12.300,13.420 12.457 C 13.317 12.666,13.149 12.830,12.938 12.928 C 12.812 12.987,12.749 12.999,12.560 12.999 C 12.371 12.999,12.308 12.987,12.182 12.928 C 11.971 12.830,11.803 12.666,11.700 12.457 C 11.622 12.300,11.613 12.257,11.614 12.054 C 11.615 11.759,11.701 11.557,11.910 11.359 C 12.128 11.153,12.303 11.090,12.617 11.105 C 12.772 11.112,12.856 11.132,12.964 11.186 " fill="#455065" stroke="none" fill-rule="evenodd"></path></svg>