<svg width="24" height="24" viewBox="0 0 24 24" fill="none" xmlns="http://www.w3.org/2000/svg"><path d="M0.000 10.880 L 0.000 18.720 1.650 18.721 L 3.300 18.722 3.412 19.072 C 3.678 19.907,4.317 20.541,5.180 20.829 C 5.460 20.922,5.565 20.935,6.020 20.936 C 6.481 20.937,6.575 20.925,6.844 20.831 C 7.292 20.674,7.623 20.465,7.961 20.124 C 8.288 19.793,8.555 19.343,8.654 18.955 L 8.709 18.740 12.489 18.730 L 16.268 18.720 16.380 19.064 C 16.646 19.880,17.296 20.531,18.140 20.825 C 18.427 20.925,18.513 20.937,18.980 20.936 C 19.434 20.935,19.541 20.921,19.820 20.829 C 20.365 20.648,20.824 20.327,21.149 19.900 C 21.359 19.623,21.572 19.202,21.645 18.918 L 21.695 18.720 22.848 18.720 L 24.000 18.720 24.000 15.541 L 24.000 12.361 22.484 9.491 L 20.969 6.620 17.944 6.610 L 14.920 6.599 14.920 4.820 L 14.920 3.040 7.460 3.040 L 0.000 3.040 0.000 10.880 M13.880 10.880 L 13.880 17.720 11.306 17.720 L 8.732 17.720 8.620 17.378 C 8.267 16.290,7.294 15.551,6.140 15.492 C 5.630 15.467,5.253 15.543,4.809 15.761 C 4.077 16.123,3.546 16.762,3.358 17.510 L 3.305 17.720 2.152 17.720 L 1.000 17.720 1.000 10.880 L 1.000 4.040 7.440 4.040 L 13.880 4.040 13.880 10.880 M8.625 7.886 L 8.273 8.213 9.337 9.277 C 9.921 9.862,10.400 10.354,10.400 10.370 C 10.400 10.387,8.798 10.400,6.840 10.400 L 3.280 10.400 3.280 10.900 L 3.280 11.400 6.850 11.400 L 10.419 11.400 9.360 12.460 L 8.301 13.520 8.650 13.870 L 9.000 14.220 10.670 12.550 L 12.340 10.880 10.680 9.220 C 9.767 8.307,9.011 7.560,8.999 7.560 C 8.987 7.560,8.819 7.707,8.625 7.886 M21.676 10.110 L 23.000 12.620 23.000 15.170 L 23.000 17.720 22.350 17.719 L 21.700 17.719 21.589 17.362 C 21.377 16.676,20.895 16.119,20.220 15.779 C 19.751 15.542,19.385 15.466,18.860 15.493 C 18.106 15.531,17.582 15.769,17.039 16.316 C 16.676 16.682,16.474 17.022,16.340 17.490 L 16.274 17.720 15.597 17.720 L 14.920 17.720 14.920 12.660 L 14.920 7.600 17.636 7.600 L 20.352 7.600 21.676 10.110 M6.516 16.556 C 7.786 16.951,8.168 18.536,7.218 19.464 C 6.304 20.356,4.804 19.992,4.361 18.772 C 4.284 18.561,4.273 18.465,4.287 18.132 C 4.301 17.788,4.319 17.708,4.435 17.475 C 4.656 17.028,5.139 16.629,5.585 16.524 C 5.853 16.462,6.257 16.475,6.516 16.556 M19.731 16.652 C 20.191 16.879,20.503 17.236,20.659 17.714 C 20.771 18.057,20.733 18.583,20.570 18.930 C 20.124 19.884,18.979 20.242,18.085 19.708 C 16.997 19.058,16.972 17.445,18.040 16.760 C 18.372 16.547,18.643 16.477,19.071 16.494 C 19.400 16.507,19.475 16.525,19.731 16.652 " fill="#455065" stroke="none" fill-rule="evenodd"></path></svg>