<?xml version="1.0" encoding="UTF-8"?>
<svg width="24px" height="24px" viewBox="0 0 24 24" version="1.1" xmlns="http://www.w3.org/2000/svg" xmlns:xlink="http://www.w3.org/1999/xlink">
    <!-- Generator: sketchtool 54.1 (76490) - https://sketchapp.com -->
    <title>f71532ff-796b-4265-aa5b-384e61efb13e@1.00x</title>
    <desc>Created with sketchtool.</desc>
    <defs>
        <path d="M14,12 L14,13 L1,13 L1,18 L14,18 L14,19 L0,19 L0,6 L7,6 L7,3 L13,3 L13,6 L20,6 L20,11 L19,11 L19,7 L13,7 L7,7 L1,7 L1,12 L14,12 Z M8,6 L12,6 L12,4 L8,4 L8,6 Z M19.5,16.7928932 L21.5,14.7928932 L22.2071068,15.5 L20.2071068,17.5 L19.5,18.2071068 L17.7928932,16.5 L18.5,15.7928932 L19.5,16.7928932 Z M19.5,21 C17.0147186,21 15,18.9852814 15,16.5 C15,14.0147186 17.0147186,12 19.5,12 C21.9852814,12 24,14.0147186 24,16.5 C24,18.9852814 21.9852814,21 19.5,21 Z M19.5,20 C21.4329966,20 23,18.4329966 23,16.5 C23,14.5670034 21.4329966,13 19.5,13 C17.5670034,13 16,14.5670034 16,16.5 C16,18.4329966 17.5670034,20 19.5,20 Z" id="path-1"></path>
    </defs>
    <g id="Symbols" stroke="none" stroke-width="1" fill="none" fill-rule="evenodd">
        <g id="Icons-/-Notifications-/-24-/-Job-Change">
            <mask id="mask-2" fill="white">
                <use xlink:href="#path-1"></use>
            </mask>
            <use id="Combined-Shape" fill="#000000" fill-rule="nonzero" xlink:href="#path-1"></use>
            <g id="Colors-/-Black" mask="url(#mask-2)" fill="#000000">
                <rect id="Rectangle" x="0" y="0" width="24" height="24"></rect>
            </g>
        </g>
    </g>
</svg>