<svg width="16" height="16" viewBox="0 0 16 16" fill="none" xmlns="http://www.w3.org/2000/svg">
  <path d="M-0.000396729 3V13H16.0004L15 12.0002L1 12V3.9998L-0.000396729 3ZM-0.000396729 3H16.0004V13L15 12.0002V3.9998H1L-0.000396729 3ZM3.33311 5.33321H1.99971V6.66661H3.33311V5.33321ZM5.3332 5.33321H3.9998V6.66661H5.3332V5.33321ZM7.33331 5.33321H5.99991V6.66661H7.33331V5.33321ZM9.3334 5.33321H8V6.66661H9.3334V5.33321ZM11.3335 5.33321H10.0001V6.66661H11.3335V5.33321ZM14.0003 5.33321H12.0002V6.66661H14.0003V5.33321ZM5.9999 7.3333H4.6665V8.6667H5.9999V7.3333ZM3.99981 7.3333H1.99971V8.6667H3.99981V7.3333ZM8 7.3333H6.6666V8.6667H8V7.3333ZM10.0001 7.3333H8.6667V8.6667H10.0001V7.3333ZM12.0002 7.3333H10.6668V8.6667H12.0002V7.3333ZM14.0003 7.3333H12.6669V8.6667H14.0003V7.3333ZM3.33311 9.3334H1.99971V10.6668H3.33311V9.3334ZM9.3334 9.3334H3.9998V10.6668H9.3334V9.3334ZM11.3335 9.3334H10.0001V10.6668H11.3335V9.3334ZM14.0003 9.3334H12.0002V10.6668H14.0003V9.3334Z" fill="#455065"/>
</svg>
