<svg width="24" height="24" viewBox="0 0 24 24" fill="none" xmlns="http://www.w3.org/2000/svg">
<g clip-path="url(#clip0_2834_714)">
<path d="M20.5 2.5H5.5C3.84315 2.5 2.5 3.84315 2.5 5.5V19.5C2.5 21.1569 3.84315 22.5 5.5 22.5H20.5C22.1569 22.5 23.5 21.1569 23.5 19.5V5.5C23.5 3.84315 22.1569 2.5 20.5 2.5Z" stroke="#455065" stroke-miterlimit="10"/>
<path d="M18.5 2.5H7.5C6.39543 2.5 5.5 3.39543 5.5 4.5V15.5C5.5 16.6046 6.39543 17.5 7.5 17.5H18.5C19.6046 17.5 20.5 16.6046 20.5 15.5V4.5C20.5 3.39543 19.6046 2.5 18.5 2.5Z" stroke="#455065" stroke-miterlimit="10"/>
<path d="M12 6H9V9H12V6Z" fill="#455065"/>
<path d="M17 6H14V9H17V6Z" fill="#455065"/>
<path d="M12 11H9V14H12V11Z" fill="#455065"/>
<path d="M17 11H14V14H17V11Z" fill="#455065"/>
</g>
<defs>
<clipPath id="clip0_2834_714">
<rect width="24" height="24" fill="white"/>
</clipPath>
</defs>
</svg>
