<svg width="16" height="16" viewBox="0 0 16 16" fill="none" xmlns="http://www.w3.org/2000/svg"><path d="M2.167 0.039 C 1.912 0.097,1.638 0.252,1.440 0.452 C 1.143 0.752,1.006 1.086,1.007 1.506 C 1.010 2.331,1.669 2.990,2.494 2.993 C 2.921 2.994,3.250 2.857,3.560 2.547 C 3.872 2.235,4.019 1.847,3.991 1.413 C 3.959 0.920,3.718 0.512,3.295 0.236 C 2.994 0.039,2.526 -0.043,2.167 0.039 M7.182 0.040 C 6.030 0.290,5.608 1.716,6.440 2.547 C 6.750 2.857,7.079 2.994,7.506 2.993 C 8.331 2.990,8.990 2.331,8.993 1.506 C 8.994 1.086,8.857 0.752,8.560 0.452 C 8.192 0.082,7.686 -0.070,7.182 0.040 M12.167 0.039 C 11.912 0.097,11.638 0.252,11.440 0.452 C 11.143 0.752,11.006 1.086,11.007 1.506 C 11.010 2.331,11.669 2.990,12.494 2.993 C 12.921 2.994,13.250 2.857,13.560 2.547 C 13.872 2.235,14.019 1.847,13.991 1.413 C 13.959 0.920,13.718 0.512,13.295 0.236 C 12.994 0.039,12.526 -0.043,12.167 0.039 M2.701 1.050 C 2.880 1.127,2.987 1.298,2.987 1.509 C 2.987 2.040,2.271 2.181,2.050 1.694 C 1.903 1.370,2.130 1.017,2.488 1.014 C 2.558 1.014,2.654 1.030,2.701 1.050 M7.728 1.064 C 7.850 1.126,7.906 1.187,7.959 1.313 C 8.013 1.442,8.010 1.562,7.950 1.694 C 7.775 2.078,7.254 2.101,7.066 1.732 C 7.004 1.610,6.996 1.390,7.051 1.285 C 7.092 1.207,7.208 1.091,7.293 1.044 C 7.380 0.997,7.617 1.007,7.728 1.064 M12.701 1.050 C 12.880 1.127,12.987 1.298,12.987 1.509 C 12.987 2.040,12.271 2.181,12.050 1.694 C 11.903 1.370,12.130 1.017,12.488 1.014 C 12.558 1.014,12.654 1.030,12.701 1.050 M2.167 4.039 C 1.912 4.097,1.638 4.252,1.440 4.452 C 1.143 4.752,1.006 5.086,1.007 5.506 C 1.010 6.331,1.669 6.990,2.494 6.993 C 2.921 6.994,3.250 6.857,3.560 6.547 C 3.872 6.235,4.019 5.847,3.991 5.413 C 3.959 4.920,3.718 4.512,3.295 4.236 C 2.994 4.039,2.526 3.957,2.167 4.039 M7.182 4.040 C 6.030 4.290,5.608 5.716,6.440 6.547 C 6.750 6.857,7.079 6.994,7.506 6.993 C 8.635 6.989,9.347 5.791,8.818 4.787 C 8.771 4.699,8.655 4.548,8.560 4.452 C 8.192 4.082,7.686 3.930,7.182 4.040 M12.167 4.039 C 11.912 4.097,11.638 4.252,11.440 4.452 C 11.143 4.752,11.006 5.086,11.007 5.506 C 11.010 6.331,11.669 6.990,12.494 6.993 C 12.921 6.994,13.250 6.857,13.560 6.547 C 13.872 6.235,14.019 5.847,13.991 5.413 C 13.959 4.920,13.718 4.512,13.295 4.236 C 12.994 4.039,12.526 3.957,12.167 4.039 M2.701 5.050 C 2.880 5.127,2.987 5.298,2.987 5.509 C 2.987 6.040,2.271 6.181,2.050 5.694 C 1.903 5.370,2.130 5.017,2.488 5.014 C 2.558 5.014,2.654 5.030,2.701 5.050 M7.728 5.064 C 7.850 5.126,7.906 5.187,7.959 5.313 C 8.013 5.442,8.010 5.562,7.950 5.694 C 7.775 6.078,7.254 6.101,7.066 5.732 C 7.004 5.610,6.996 5.390,7.051 5.285 C 7.092 5.207,7.208 5.091,7.293 5.044 C 7.380 4.997,7.617 5.007,7.728 5.064 M12.701 5.050 C 12.880 5.127,12.987 5.298,12.987 5.509 C 12.987 6.040,12.271 6.181,12.050 5.694 C 11.903 5.370,12.130 5.017,12.488 5.014 C 12.558 5.014,12.654 5.030,12.701 5.050 M2.167 8.039 C 1.912 8.097,1.638 8.252,1.440 8.452 C 1.143 8.752,1.006 9.086,1.007 9.506 C 1.010 10.331,1.669 10.990,2.494 10.993 C 2.921 10.994,3.250 10.857,3.560 10.547 C 3.872 10.235,4.019 9.847,3.991 9.413 C 3.959 8.920,3.718 8.512,3.295 8.236 C 2.994 8.039,2.526 7.957,2.167 8.039 M7.182 8.040 C 6.030 8.290,5.608 9.716,6.440 10.547 C 6.750 10.857,7.079 10.994,7.506 10.993 C 8.635 10.989,9.347 9.791,8.818 8.787 C 8.771 8.699,8.655 8.548,8.560 8.452 C 8.192 8.082,7.686 7.930,7.182 8.040 M12.167 8.039 C 11.912 8.097,11.638 8.252,11.440 8.452 C 11.143 8.752,11.006 9.086,11.007 9.506 C 11.010 10.331,11.669 10.990,12.494 10.993 C 12.921 10.994,13.250 10.857,13.560 10.547 C 13.872 10.235,14.019 9.847,13.991 9.413 C 13.959 8.920,13.718 8.512,13.295 8.236 C 12.994 8.039,12.526 7.957,12.167 8.039 M2.701 9.050 C 2.880 9.127,2.987 9.298,2.987 9.509 C 2.987 10.040,2.271 10.181,2.050 9.694 C 1.903 9.370,2.130 9.017,2.488 9.014 C 2.558 9.014,2.654 9.030,2.701 9.050 M7.728 9.064 C 7.850 9.126,7.906 9.187,7.959 9.313 C 8.013 9.442,8.010 9.562,7.950 9.694 C 7.775 10.078,7.254 10.101,7.066 9.732 C 7.004 9.610,6.996 9.390,7.051 9.285 C 7.092 9.207,7.208 9.091,7.293 9.044 C 7.380 8.997,7.617 9.007,7.728 9.064 M12.701 9.050 C 12.880 9.127,12.987 9.298,12.987 9.509 C 12.987 10.040,12.271 10.181,12.050 9.694 C 11.903 9.370,12.130 9.017,12.488 9.014 C 12.558 9.014,12.654 9.030,12.701 9.050 M7.182 12.040 C 6.030 12.290,5.608 13.716,6.440 14.547 C 6.750 14.857,7.079 14.994,7.506 14.993 C 8.331 14.990,8.990 14.331,8.993 13.506 C 8.994 13.086,8.857 12.752,8.560 12.452 C 8.192 12.082,7.686 11.930,7.182 12.040 M7.728 13.064 C 7.850 13.126,7.906 13.187,7.959 13.313 C 8.013 13.442,8.010 13.562,7.950 13.694 C 7.775 14.078,7.254 14.101,7.066 13.732 C 7.004 13.610,6.996 13.390,7.051 13.285 C 7.092 13.207,7.208 13.091,7.293 13.044 C 7.380 12.997,7.617 13.007,7.728 13.064 " fill="#455065" stroke="none" fill-rule="evenodd"></path></svg>