<svg width="24" height="24" viewBox="0 0 24 24" fill="none" xmlns="http://www.w3.org/2000/svg"><path d="M4.580 1.047 C 3.859 1.185,3.199 1.848,3.044 2.592 C 2.905 3.257,3.105 3.912,3.596 4.404 C 4.393 5.200,5.607 5.200,6.404 4.404 C 7.200 3.607,7.200 2.393,6.404 1.596 C 5.913 1.106,5.277 0.914,4.580 1.047 M11.580 1.047 C 10.859 1.185,10.199 1.848,10.044 2.592 C 9.789 3.816,10.751 5.000,12.000 5.000 C 13.080 5.000,14.000 4.080,14.000 3.000 C 14.000 2.477,13.790 1.983,13.404 1.596 C 12.913 1.106,12.277 0.914,11.580 1.047 M18.580 1.047 C 17.859 1.185,17.199 1.848,17.044 2.592 C 16.789 3.816,17.751 5.000,19.000 5.000 C 20.080 5.000,21.000 4.080,21.000 3.000 C 21.000 2.477,20.790 1.983,20.404 1.596 C 19.913 1.106,19.277 0.914,18.580 1.047 M5.340 2.066 C 5.709 2.192,6.000 2.604,6.000 3.000 C 6.000 3.242,5.881 3.521,5.701 3.701 C 5.310 4.092,4.690 4.092,4.299 3.701 C 3.907 3.309,3.908 2.690,4.300 2.298 C 4.577 2.020,4.957 1.936,5.340 2.066 M12.340 2.066 C 12.709 2.192,13.000 2.604,13.000 3.000 C 13.000 3.527,12.527 4.000,12.000 4.000 C 11.758 4.000,11.479 3.881,11.299 3.701 C 10.907 3.309,10.908 2.690,11.300 2.298 C 11.577 2.020,11.957 1.936,12.340 2.066 M19.340 2.066 C 19.709 2.192,20.000 2.604,20.000 3.000 C 20.000 3.527,19.527 4.000,19.000 4.000 C 18.758 4.000,18.479 3.881,18.299 3.701 C 17.907 3.309,17.908 2.690,18.300 2.298 C 18.577 2.020,18.957 1.936,19.340 2.066 M4.580 7.047 C 4.236 7.113,3.883 7.310,3.596 7.596 C 2.800 8.393,2.800 9.607,3.596 10.404 C 4.393 11.200,5.607 11.200,6.404 10.404 C 7.200 9.607,7.200 8.393,6.404 7.596 C 5.913 7.106,5.277 6.914,4.580 7.047 M11.580 7.047 C 10.859 7.185,10.199 7.848,10.044 8.592 C 9.789 9.816,10.751 11.000,12.000 11.000 C 13.080 11.000,14.000 10.080,14.000 9.000 C 14.000 8.477,13.790 7.983,13.404 7.596 C 12.913 7.106,12.277 6.914,11.580 7.047 M18.580 7.047 C 17.859 7.185,17.199 7.848,17.044 8.592 C 16.789 9.816,17.751 11.000,19.000 11.000 C 20.080 11.000,21.000 10.080,21.000 9.000 C 21.000 8.477,20.790 7.983,20.404 7.596 C 19.913 7.106,19.277 6.914,18.580 7.047 M5.340 8.066 C 5.709 8.192,6.000 8.604,6.000 9.000 C 6.000 9.242,5.881 9.521,5.701 9.701 C 5.310 10.092,4.690 10.092,4.299 9.701 C 3.907 9.309,3.908 8.690,4.300 8.298 C 4.577 8.020,4.957 7.936,5.340 8.066 M12.340 8.066 C 12.709 8.192,13.000 8.604,13.000 9.000 C 13.000 9.527,12.527 10.000,12.000 10.000 C 11.758 10.000,11.479 9.881,11.299 9.701 C 10.907 9.309,10.908 8.690,11.300 8.298 C 11.577 8.020,11.957 7.936,12.340 8.066 M19.340 8.066 C 19.709 8.192,20.000 8.604,20.000 9.000 C 20.000 9.527,19.527 10.000,19.000 10.000 C 18.758 10.000,18.479 9.881,18.299 9.701 C 17.907 9.309,17.908 8.690,18.300 8.298 C 18.577 8.020,18.957 7.936,19.340 8.066 M4.580 13.047 C 4.236 13.113,3.883 13.310,3.596 13.596 C 2.800 14.393,2.800 15.607,3.596 16.404 C 4.393 17.200,5.607 17.200,6.404 16.404 C 7.200 15.607,7.200 14.393,6.404 13.596 C 5.913 13.106,5.277 12.914,4.580 13.047 M11.580 13.047 C 10.707 13.214,10.000 14.087,10.000 15.000 C 10.000 15.920,10.690 16.768,11.592 16.956 C 12.816 17.211,14.000 16.249,14.000 15.000 C 14.000 14.477,13.790 13.983,13.404 13.596 C 12.913 13.106,12.277 12.914,11.580 13.047 M18.580 13.047 C 17.707 13.214,17.000 14.087,17.000 15.000 C 17.000 15.920,17.690 16.768,18.592 16.956 C 19.816 17.211,21.000 16.249,21.000 15.000 C 21.000 14.477,20.790 13.983,20.404 13.596 C 19.913 13.106,19.277 12.914,18.580 13.047 M5.340 14.066 C 5.709 14.192,6.000 14.604,6.000 15.000 C 6.000 15.527,5.527 16.000,5.000 16.000 C 4.758 16.000,4.479 15.881,4.299 15.701 C 3.907 15.309,3.908 14.690,4.300 14.298 C 4.577 14.020,4.957 13.936,5.340 14.066 M12.340 14.066 C 12.709 14.192,13.000 14.604,13.000 15.000 C 13.000 15.527,12.527 16.000,12.000 16.000 C 11.758 16.000,11.479 15.881,11.299 15.701 C 10.907 15.309,10.908 14.690,11.300 14.298 C 11.577 14.020,11.957 13.936,12.340 14.066 M19.340 14.066 C 19.709 14.192,20.000 14.604,20.000 15.000 C 20.000 15.527,19.527 16.000,19.000 16.000 C 18.758 16.000,18.479 15.881,18.299 15.701 C 17.907 15.309,17.908 14.690,18.300 14.298 C 18.577 14.020,18.957 13.936,19.340 14.066 M11.580 19.047 C 10.859 19.185,10.199 19.848,10.044 20.592 C 9.789 21.816,10.751 23.000,12.000 23.000 C 13.080 23.000,14.000 22.080,14.000 21.000 C 14.000 20.477,13.790 19.983,13.404 19.596 C 12.913 19.106,12.277 18.914,11.580 19.047 M12.340 20.066 C 12.709 20.192,13.000 20.604,13.000 21.000 C 13.000 21.242,12.881 21.521,12.701 21.701 C 12.310 22.092,11.690 22.092,11.299 21.701 C 10.907 21.309,10.908 20.690,11.300 20.298 C 11.577 20.020,11.957 19.936,12.340 20.066 " fill="#455065" stroke="none" fill-rule="evenodd"></path></svg>