<svg width="17" height="17" viewBox="0 0 16 16" fill="none" xmlns="http://www.w3.org/2000/svg">
<path d="M17 0V4.32607H15.844C16.5504 5.56356 16.9565 6.9948 16.9565 8.52173C16.9565 13.2042 13.1607 17 8.47827 17C3.79585 17 0 13.2042 0 8.52173C0 3.83932 3.79585 0.0434677 8.47827 0.0434677C10.005 0.0434677 11.4365 0.448733 12.6739 1.155V0H17ZM8.47827 1.10325C4.38115 1.10325 1.05978 4.42462 1.05978 8.52173C1.05978 12.6188 4.38115 15.9402 8.47827 15.9402C12.5754 15.9402 15.8967 12.6188 15.8967 8.52173C15.8967 6.96426 15.4159 5.5195 14.5958 4.32607H13.4232L12.5808 5.16748C13.3286 6.08104 13.7772 7.24903 13.7772 8.52173C13.7772 11.4482 11.4048 13.8207 8.47827 13.8207C5.55176 13.8207 3.17935 11.4482 3.17935 8.52173C3.17935 5.59522 5.55176 3.22282 8.47827 3.22282C9.75045 3.22282 10.9181 3.67091 11.8315 4.41818L12.6739 3.57677V2.40314C11.4806 1.58327 10.0355 1.10325 8.47827 1.10325ZM8.47827 4.2826C6.13706 4.2826 4.23913 6.18053 4.23913 8.52173C4.23913 10.8629 6.13706 12.7609 8.47827 12.7609C10.8195 12.7609 12.7174 10.8629 12.7174 8.52173C12.7174 7.54192 12.3835 6.6409 11.8253 5.92299L10.3018 7.44643C10.4883 7.762 10.5978 8.12863 10.5978 8.52173C10.5978 9.69234 9.64887 10.6413 8.47827 10.6413C7.30766 10.6413 6.3587 9.69234 6.3587 8.52173C6.3587 7.35113 7.30766 6.40217 8.47827 6.40217C8.87086 6.40217 9.23724 6.51109 9.55254 6.69713L11.076 5.17369C10.3583 4.61601 9.45756 4.2826 8.47827 4.2826Z" fill="#455065"/>
</svg>
