<svg xmlns="http://www.w3.org/2000/svg" width="16" height="16" viewBox="0 0 16 16" fill="none">
  <g transform="scale(0.9411764705882353)">
    <path d="M16.041 0V4.08203H14.9502C15.6168 5.24971 16 6.60021 16 8.04102C16 12.4593 12.4183 16.041 8 16.041C3.58172 16.041 0 12.4593 0 8.04102C0 3.62274 3.58172 0.0410156 8 0.0410156C9.44063 0.0410156 10.7914 0.423419 11.959 1.08984V0H16.041ZM8 1.04102C4.13401 1.04102 1 4.17502 1 8.04102C1 11.907 4.13401 15.041 8 15.041C11.866 15.041 15 11.907 15 8.04102C15 6.5714 14.5463 5.20814 13.7725 4.08203H12.666L11.8711 4.87598C12.5767 5.738 13 6.84011 13 8.04102C13 10.8024 10.7614 13.041 8 13.041C5.23858 13.041 3 10.8024 3 8.04102C3 5.27959 5.23858 3.04102 8 3.04102C9.20041 3.04102 10.3022 3.46383 11.1641 4.16895L11.959 3.375V2.26758C10.833 1.49396 9.46942 1.04102 8 1.04102ZM8 4.04102C5.79086 4.04102 4 5.83188 4 8.04102C4 10.2502 5.79086 12.041 8 12.041C10.2091 12.041 12 10.2502 12 8.04102C12 7.11647 11.6849 6.26628 11.1582 5.58887L9.7207 7.02637C9.89667 7.32414 10 7.67009 10 8.04102C10 9.14559 9.10457 10.041 8 10.041C6.89543 10.041 6 9.14559 6 8.04102C6 6.93645 6.89543 6.04102 8 6.04102C8.37045 6.04102 8.71616 6.14379 9.01367 6.31934L10.4512 4.88184C9.77394 4.35562 8.92405 4.04102 8 4.04102Z" fill="#455065"/>
  </g>
</svg>
