<svg width="24" height="24" viewBox="0 0 24 24" fill="none" xmlns="http://www.w3.org/2000/svg"><path d="M18.960 2.221 L 18.960 3.482 18.650 3.246 C 17.859 2.643,16.748 2.027,15.867 1.702 C 12.489 0.454,8.770 0.903,5.821 2.912 C 5.142 3.375,4.869 3.604,4.199 4.277 C 2.919 5.562,2.068 6.955,1.523 8.661 C 1.151 9.825,1.023 10.678,1.023 12.000 C 1.023 13.322,1.151 14.175,1.523 15.339 C 2.075 17.068,2.920 18.443,4.239 19.761 C 5.557 21.080,6.932 21.925,8.661 22.477 C 9.825 22.849,10.678 22.977,12.000 22.977 C 13.322 22.977,14.175 22.849,15.339 22.477 C 17.068 21.925,18.443 21.080,19.761 19.761 C 20.662 18.861,21.295 17.998,21.821 16.956 C 23.694 13.245,23.299 8.732,20.814 5.430 L 20.520 5.040 21.780 5.040 L 23.040 5.040 23.040 3.000 L 23.040 0.960 21.000 0.960 L 18.960 0.960 18.960 2.221 M12.840 2.041 C 14.541 2.193,16.115 2.739,17.501 3.659 C 17.939 3.950,18.528 4.405,18.637 4.536 C 18.689 4.599,18.597 4.702,17.640 5.660 L 16.585 6.715 16.403 6.562 C 15.708 5.982,14.663 5.457,13.740 5.226 C 11.499 4.666,9.231 5.192,7.454 6.684 C 5.681 8.172,4.756 10.573,5.060 12.894 C 5.563 16.727,9.077 19.440,12.894 18.940 C 16.488 18.469,19.135 15.342,18.988 11.740 C 18.975 11.432,18.935 11.009,18.898 10.800 C 18.705 9.699,18.176 8.519,17.499 7.676 L 17.287 7.413 18.341 6.359 C 19.298 5.403,19.401 5.311,19.464 5.363 C 19.595 5.472,20.050 6.061,20.342 6.499 C 21.187 7.772,21.713 9.199,21.928 10.800 C 22.011 11.421,21.989 12.834,21.887 13.472 C 21.781 14.132,21.635 14.733,21.455 15.249 C 20.273 18.645,17.407 21.134,13.897 21.815 C 9.012 22.761,4.189 19.972,2.545 15.249 C 2.366 14.735,2.220 14.135,2.113 13.472 C 1.989 12.708,1.989 11.292,2.113 10.528 C 2.375 8.908,2.916 7.551,3.806 6.280 C 5.855 3.354,9.321 1.728,12.840 2.041 M13.160 6.119 C 14.100 6.311,14.908 6.679,15.691 7.273 L 15.882 7.418 14.818 8.482 L 13.755 9.545 13.339 9.337 C 12.827 9.080,12.338 8.976,11.823 9.012 C 11.362 9.044,11.157 9.101,10.700 9.321 C 10.277 9.525,9.993 9.742,9.696 10.088 C 8.987 10.917,8.808 12.105,9.234 13.151 C 9.521 13.857,10.143 14.479,10.849 14.766 C 12.610 15.483,14.554 14.445,14.938 12.581 C 15.086 11.868,14.942 11.059,14.560 10.448 L 14.442 10.260 15.510 9.191 L 16.578 8.121 16.668 8.231 C 17.039 8.680,17.487 9.496,17.679 10.072 C 17.901 10.738,17.972 11.189,17.974 11.960 C 17.977 12.992,17.825 13.705,17.423 14.545 C 16.584 16.296,15.102 17.462,13.174 17.887 C 12.603 18.013,11.397 18.013,10.826 17.887 C 8.341 17.339,6.548 15.496,6.090 13.020 C 6.000 12.531,6.000 11.469,6.090 10.980 C 6.394 9.335,7.309 7.928,8.660 7.025 C 9.443 6.501,10.246 6.196,11.200 6.058 C 11.727 5.981,12.620 6.009,13.160 6.119 " fill="#455065" stroke="none" fill-rule="evenodd"></path></svg>