<?xml version="1.0" encoding="UTF-8"?>
<svg width="24px" height="24px" viewBox="0 0 24 24" version="1.1" xmlns="http://www.w3.org/2000/svg" xmlns:xlink="http://www.w3.org/1999/xlink">
    <!-- Generator: sketchtool 55.2 (78181) - https://sketchapp.com -->
    <title>f1f8960e-9101-4d8e-93fd-c2b92995bd10@1.00x</title>
    <desc>Created with sketchtool.</desc>
    <defs>
        <path d="M8,18 L3,23 L3,18 L1,18 L1,1 L23,1 L23,18 L8,18 Z M4,20.5857864 L7.58578644,17 L22,17 L22,2 L2,2 L2,17 L4,17 L4,20.5857864 Z M16.437,14 L15.202,14 L14.435,12.076 L10.119,12.076 L9.352,14 L8.117,14 L11.601,5.329 L12.94,5.329 L16.437,14 Z M14.11,11.114 L12.277,6.447 L10.431,11.114 L14.11,11.114 Z" id="path-1"></path>
    </defs>
    <g id="Symbols" stroke="none" stroke-width="1" fill="none" fill-rule="evenodd">
        <g id="Icons-/-General-/-24-/-Language">
            <mask id="mask-2" fill="white">
                <use xlink:href="#path-1"></use>
            </mask>
            <use id="Combined-Shape" fill="#000000" fill-rule="nonzero" xlink:href="#path-1"></use>
            <g id="Colors-/-Black" mask="url(#mask-2)" fill="#000000">
                <rect id="Rectangle" x="0" y="0" width="24" height="24"></rect>
            </g>
        </g>
    </g>
</svg>