<svg width="24" height="24" viewBox="0 0 24 24" fill="none" xmlns="http://www.w3.org/2000/svg"><path d="M6.020 3.873 L 1.060 6.741 1.051 12.501 L 1.043 18.260 6.021 21.131 L 11.000 24.002 14.550 21.954 C 16.503 20.828,18.107 19.900,18.116 19.894 C 18.140 19.875,17.590 19.080,17.553 19.080 C 17.536 19.080,16.054 19.927,14.261 20.963 L 11.000 22.846 6.530 20.266 L 2.060 17.685 2.050 12.507 L 2.040 7.329 6.520 4.743 L 11.001 2.157 14.258 4.039 C 16.050 5.073,17.531 5.920,17.548 5.919 C 17.566 5.919,17.702 5.744,17.850 5.531 C 18.062 5.226,18.109 5.133,18.070 5.097 C 18.022 5.053,11.007 0.997,10.989 1.003 C 10.984 1.004,8.748 2.296,6.020 3.873 M18.150 8.150 L 17.800 8.500 19.550 10.250 L 21.300 12.000 15.650 12.000 L 10.000 12.000 10.000 12.500 L 10.000 13.000 15.650 13.000 L 21.300 13.000 19.549 14.751 L 17.799 16.501 18.150 16.850 L 18.501 17.199 20.850 14.850 L 23.200 12.500 20.850 10.150 L 18.500 7.800 18.150 8.150 " fill="#455065" stroke="none" fill-rule="evenodd"></path></svg>