<svg width="16" height="16" viewBox="0 0 16 16" fill="none" xmlns="http://www.w3.org/2000/svg"><path d="M3.233 2.885 L 0.000 4.754 0.001 8.504 L 0.001 12.253 3.251 14.127 L 6.500 16.001 8.377 14.917 C 9.409 14.321,10.304 13.804,10.366 13.768 L 10.479 13.702 10.182 13.311 C 10.018 13.096,9.881 12.916,9.877 12.910 C 9.872 12.905,9.118 13.334,8.201 13.863 C 7.283 14.393,6.518 14.827,6.500 14.827 C 6.481 14.827,5.243 14.120,3.747 13.256 L 1.027 11.686 1.020 8.503 L 1.014 5.320 3.326 3.987 C 4.598 3.253,5.832 2.542,6.070 2.405 L 6.502 2.157 8.151 3.110 C 9.058 3.634,9.820 4.064,9.844 4.065 C 9.871 4.066,10.006 3.913,10.184 3.682 L 10.479 3.297 10.286 3.187 C 10.180 3.126,9.298 2.617,8.325 2.056 C 7.353 1.494,6.537 1.030,6.512 1.025 C 6.487 1.019,5.012 1.856,3.233 2.885 M11.133 5.147 L 10.787 5.494 12.040 6.747 L 13.293 8.000 9.139 8.000 L 4.985 8.000 4.993 8.500 L 5.000 9.000 9.133 9.007 L 13.266 9.014 12.027 10.253 L 10.787 11.493 11.147 11.853 L 11.507 12.213 13.360 10.360 L 15.213 8.507 13.360 6.653 C 12.341 5.634,11.501 4.800,11.493 4.800 C 11.485 4.800,11.324 4.956,11.133 5.147 " fill="#455065" stroke="none" fill-rule="evenodd"></path></svg>