<?xml version="1.0" encoding="UTF-8"?>
<svg width="24px" height="24px" viewBox="0 0 24 24" version="1.1" xmlns="http://www.w3.org/2000/svg" xmlns:xlink="http://www.w3.org/1999/xlink">
    <!-- Generator: sketchtool 57.1 (101010) - https://sketch.com -->
    <title>2c3e4781-afae-40aa-a951-a316f7d400da@1.00x</title>
    <desc>Created with sketchtool.</desc>
    <defs>
        <path d="M1,2 L1,22 L-2.27373675e-13,22 L-2.27373675e-13,2 L1,2 Z M24,2 L24,22 L23,22 L23,2 L24,2 Z M16.5,6.29 L21.5,11.29 L21.5,11.29 L22.2071068,11.9971068 L21.5,12.7042136 L16.5,17.7042136 L15.7928932,16.9971068 L20.792,11.997 L15.7928932,6.99710678 L16.5,6.29 Z M7.5,6.29 L8.20710678,6.99710678 L3.207,11.997 L8.20710678,16.9971068 L7.5,17.7042136 L1.79289322,11.9971068 L2.5,11.29 L7.5,6.29 Z" id="path-1"></path>
    </defs>
    <g id="Symbols" stroke="none" stroke-width="1" fill="none" fill-rule="evenodd">
        <g id="Icons-/-General-/-24-/-Length">
            <mask id="mask-2" fill="white">
                <use xlink:href="#path-1"></use>
            </mask>
            <use id="Combined-Shape" fill="#000000" xlink:href="#path-1"></use>
            <g id="Colors-/-305-Dark-Grey" mask="url(#mask-2)" fill="#455065">
                <rect id="Rectangle" x="0" y="0" width="24" height="24"></rect>
            </g>
        </g>
    </g>
</svg>