<?xml version="1.0" encoding="UTF-8"?>
<svg width="16px" height="16px" viewBox="0 0 16 16" version="1.1" xmlns="http://www.w3.org/2000/svg" xmlns:xlink="http://www.w3.org/1999/xlink">
    <!-- Generator: sketchtool 57.1 (101010) - https://sketch.com -->
    <title>b1c7dfac-a347-42e2-a8b1-1d5e2e59d166@1.00x</title>
    <desc>Created with sketchtool.</desc>
    <defs>
        <path d="M1,1 L1,15 L-2.27373675e-13,15 L-2.27373675e-13,1 L1,1 Z M16,1 L16,15 L15,15 L15,1 L16,1 Z M10.5,4.29 L13.5,7.29 L14.2071068,7.99710678 L10.5,11.7042136 L9.79289322,10.9971068 L12.792,7.997 L9.79289322,4.99710678 L10.5,4.29 Z M5.5,4.29 L6.20710678,4.99710678 L3.207,7.997 L6.20710678,10.9971068 L5.5,11.7042136 L1.79289322,7.99710678 L2.5,7.29 L5.5,4.29 Z" id="path-1"></path>
    </defs>
    <g id="Symbols" stroke="none" stroke-width="1" fill="none" fill-rule="evenodd">
        <g id="Icons-/-General-/-16-/-Length">
            <mask id="mask-2" fill="white">
                <use xlink:href="#path-1"></use>
            </mask>
            <use id="Combined-Shape" fill="#000000" xlink:href="#path-1"></use>
            <g id="Colors-/-305-Dark-Grey" mask="url(#mask-2)" fill="#455065">
                <rect id="Rectangle" x="0" y="0" width="16" height="16"></rect>
            </g>
        </g>
    </g>
</svg>