<svg width="24" height="24" viewBox="0 0 24 24" fill="none" xmlns="http://www.w3.org/2000/svg"><path d="M9.560 2.740 L 7.140 5.160 7.490 5.510 L 7.840 5.860 9.920 3.780 L 12.000 1.700 14.080 3.780 L 16.160 5.860 16.510 5.510 L 16.860 5.160 14.440 2.740 C 13.109 1.409,12.011 0.320,12.000 0.320 C 11.989 0.320,10.891 1.409,9.560 2.740 M3.000 9.500 L 3.000 10.000 12.000 10.000 L 21.000 10.000 21.000 9.500 L 21.000 9.000 12.000 9.000 L 3.000 9.000 3.000 9.500 M3.000 14.500 L 3.000 15.000 12.000 15.000 L 21.000 15.000 21.000 14.500 L 21.000 14.000 12.000 14.000 L 3.000 14.000 3.000 14.500 M7.510 18.510 L 7.161 18.861 9.580 21.280 L 12.000 23.700 14.420 21.280 L 16.839 18.861 16.490 18.510 L 16.141 18.159 14.070 20.230 L 12.000 22.300 9.930 20.230 L 7.859 18.159 7.510 18.510 " fill="#455065" stroke="none" fill-rule="evenodd"></path></svg>