<svg width="16" height="16" viewBox="0 0 16 16" fill="none" xmlns="http://www.w3.org/2000/svg"><path d="M6.573 1.733 L 5.160 3.146 5.507 3.493 L 5.853 3.840 6.926 2.767 L 8.000 1.694 9.074 2.767 L 10.147 3.840 10.493 3.493 L 10.840 3.146 9.427 1.733 C 8.649 0.956,8.007 0.320,8.000 0.320 C 7.993 0.320,7.351 0.956,6.573 1.733 M2.000 6.493 L 2.000 6.987 8.000 6.987 L 14.000 6.987 14.000 6.493 L 14.000 6.000 8.000 6.000 L 2.000 6.000 2.000 6.493 M2.000 9.507 L 2.000 10.000 8.000 10.000 L 14.000 10.000 14.000 9.507 L 14.000 9.013 8.000 9.013 L 2.000 9.013 2.000 9.507 M5.507 12.507 L 5.160 12.854 6.580 14.273 L 8.000 15.693 9.420 14.273 L 10.840 12.854 10.493 12.507 L 10.147 12.160 9.074 13.233 L 8.000 14.306 6.926 13.233 L 5.853 12.160 5.507 12.507 " fill="#455065" stroke="none" fill-rule="evenodd"></path></svg>