
<svg width="16px" height="16px" viewBox="0 0 16 16" version="1.1" xmlns="http://www.w3.org/2000/svg" xmlns:xlink="http://www.w3.org/1999/xlink">
    <defs>
        <path d="M3,10 C1.34314575,10 7.10542736e-15,8.65685425 7.10542736e-15,7 L7.10542736e-15,6 C7.10542736e-15,4.34314575 1.34314575,3 3,3 L8,3 C9.65685425,3 11,4.34314575 11,6 L13,6 C14.6568542,6 16,7.34314575 16,9 L16,10 C16,11.6568542 14.6568542,13 13,13 L8,13 C6.34314575,13 5,11.6568542 5,10 L3,10 Z M13,7 L11,7 C11,8.65685425 9.65685425,10 8,10 L6,10 C6,11.1045695 6.8954305,12 8,12 L13,12 C14.1045695,12 15,11.1045695 15,10 L15,9 C15,7.8954305 14.1045695,7 13,7 Z M8,4 L3,4 C1.8954305,4 1,4.8954305 1,6 L1,7 C1,8.1045695 1.8954305,9 3,9 L5,9 C5,7.34314575 6.34314575,6 8,6 L10,6 C10,4.8954305 9.1045695,4 8,4 Z M10,7 L8,7 C6.8954305,7 6,7.8954305 6,9 L8,9 C9.1045695,9 10,8.1045695 10,7 Z" id="path-1"></path>
    </defs>
    <g id="Skills-Connections" stroke="none" stroke-width="1" fill="none" fill-rule="evenodd">
        <g id="9.0-–-Skill-Connections-/-Business-rules-validation" transform="translate(-51.000000, -592.000000)">
            <rect fill="#FFFFFF" x="0" y="0" width="1440" height="1269"></rect>
            <g id="Icons-/-Interface-Essential-/-16-/-Link" transform="translate(51.000000, 589.000000)">
                <mask id="mask-2" fill="white">
                    <use xlink:href="#path-1"></use>
                </mask>
                <use id="Combined-Shape" fill="#000000" fill-rule="nonzero" xlink:href="#path-1"></use>
                <g id="Colors-/-305-Dark-Gray" mask="url(#mask-2)" fill="#455065" fill-rule="evenodd">
                    <rect id="Rectangle" x="0" y="0" width="16" height="16"></rect>
                </g>
            </g>
        </g>
    </g>
</svg>
