<svg width="24" height="24" viewBox="0 0 24 24" fill="none" xmlns="http://www.w3.org/2000/svg">
  <path d="M3.5 18C4.88071 18 6 19.1193 6 20.5S4.88071 23 3.5 23 1 21.8807 1 20.5 2.11929 18 3.5 18Zm0 1c-.82843 0-1.5.6716-1.5 1.5S2.67157 22 3.5 22 5 21.3284 5 20.5 4.32843 19 3.5 19ZM23 20v1H9v-1h14ZM3.5 10C4.88071 10 6 11.1193 6 12.5S4.88071 15 3.5 15 1 13.8807 1 12.5 2.11929 10 3.5 10Zm0 1c-.82843 0-1.5.6716-1.5 1.5S2.67157 14 3.5 14 5 13.3284 5 12.5 4.32843 11 3.5 11ZM23 12v1H9v-1h14ZM3.5 2C4.88071 2 6 3.11929 6 4.5S4.88071 7 3.5 7 1 5.88071 1 4.5 2.11929 2 3.5 2Zm0 1C2.67157 3 2 3.67157 2 4.5S2.67157 6 3.5 6 5 5.32843 5 4.5 4.32843 3 3.5 3ZM23 4v1H9V4h14Z" fill="#455065"/>
</svg>
