<svg width="24" height="24" viewBox="0 0 24 24" fill="none" xmlns="http://www.w3.org/2000/svg"><path d="M4.016 0.070 C 4.027 0.108,4.238 0.945,4.483 1.929 L 4.929 3.718 4.463 8.845 C 4.207 11.665,4.011 13.987,4.028 14.004 C 4.046 14.021,4.832 14.476,5.776 15.015 C 7.419 15.953,7.497 15.993,7.596 15.941 C 7.819 15.825,10.942 14.033,10.970 14.005 C 10.987 13.989,10.791 11.667,10.536 8.845 L 10.071 3.714 10.517 1.927 C 10.762 0.944,10.973 0.109,10.984 0.070 C 11.004 0.004,10.820 0.000,7.500 0.000 C 4.180 0.000,3.996 0.004,4.016 0.070 M14.925 0.468 C 14.900 0.640,14.869 0.864,14.855 0.967 L 14.830 1.154 14.985 1.181 C 15.355 1.244,16.155 1.455,16.583 1.603 C 18.222 2.168,19.673 3.096,20.901 4.365 C 21.606 5.094,22.201 5.897,22.661 6.740 L 22.845 7.078 23.283 6.859 C 23.523 6.738,23.720 6.625,23.720 6.607 C 23.720 6.549,23.156 5.589,22.918 5.240 C 22.071 4.004,20.910 2.857,19.664 2.026 C 18.285 1.106,16.901 0.547,15.095 0.181 L 14.970 0.156 14.925 0.468 M9.710 1.050 C 9.700 1.078,9.586 1.528,9.457 2.050 L 9.222 3.000 7.500 3.000 L 5.778 3.000 5.543 2.050 C 5.414 1.528,5.300 1.078,5.290 1.050 C 5.275 1.010,5.734 1.000,7.500 1.000 C 9.266 1.000,9.725 1.010,9.710 1.050 M9.099 4.210 C 9.148 4.631,9.920 13.219,9.920 13.342 C 9.920 13.467,9.898 13.482,8.712 14.159 L 7.504 14.849 7.382 14.783 C 7.315 14.746,6.765 14.433,6.160 14.087 C 5.089 13.473,5.060 13.454,5.070 13.338 C 5.141 12.492,5.885 4.295,5.902 4.170 L 5.925 4.000 7.500 4.000 L 9.074 4.000 9.099 4.210 M15.016 8.070 C 15.027 8.109,15.238 8.945,15.483 9.929 L 15.929 11.718 15.463 16.845 C 15.207 19.665,15.011 21.987,15.028 22.004 C 15.046 22.021,15.832 22.476,16.776 23.015 C 18.419 23.953,18.497 23.993,18.596 23.941 C 18.819 23.825,21.942 22.033,21.970 22.005 C 21.987 21.989,21.791 19.667,21.536 16.845 L 21.071 11.714 21.517 9.927 C 21.762 8.944,21.973 8.109,21.984 8.070 C 22.004 8.004,21.820 8.000,18.500 8.000 C 15.180 8.000,14.996 8.004,15.016 8.070 M20.710 9.050 C 20.700 9.078,20.586 9.527,20.457 10.050 L 20.222 11.000 18.500 11.000 L 16.778 11.000 16.543 10.050 C 16.414 9.527,16.300 9.078,16.290 9.050 C 16.275 9.010,16.734 9.000,18.500 9.000 C 20.266 9.000,20.725 9.010,20.710 9.050 M20.099 12.210 C 20.148 12.631,20.920 21.219,20.920 21.342 C 20.920 21.467,20.898 21.482,19.712 22.159 L 18.504 22.849 18.382 22.783 C 18.315 22.746,17.765 22.433,17.160 22.087 C 16.089 21.473,16.060 21.454,16.070 21.338 C 16.141 20.492,16.885 12.295,16.902 12.170 L 16.925 12.000 18.500 12.000 L 20.074 12.000 20.099 12.210 M3.140 17.967 C 2.920 18.078,2.733 18.176,2.724 18.184 C 2.716 18.191,2.845 18.401,3.012 18.649 C 4.713 21.179,7.268 22.965,10.180 23.659 C 10.488 23.732,10.805 23.803,10.884 23.817 L 11.028 23.841 11.097 23.411 C 11.134 23.174,11.174 22.951,11.184 22.915 C 11.198 22.863,11.162 22.843,11.011 22.821 C 10.360 22.725,9.088 22.315,8.323 21.955 C 6.564 21.127,4.992 19.780,3.897 18.161 C 3.747 17.940,3.606 17.761,3.583 17.762 C 3.559 17.763,3.360 17.855,3.140 17.967 " fill="#455065" stroke="none" fill-rule="evenodd"></path></svg>