<svg width="16" height="16" viewBox="0 0 16 16" fill="none" xmlns="http://www.w3.org/2000/svg"><path d="M2.011 0.047 C 2.020 0.072,2.222 0.680,2.461 1.397 L 2.896 2.701 2.449 5.824 C 2.203 7.541,2.001 8.959,2.001 8.975 C 2.000 8.990,2.563 9.228,3.250 9.503 L 4.500 10.003 5.743 9.505 C 6.843 9.065,6.987 9.001,6.987 8.951 C 6.987 8.919,6.787 7.499,6.544 5.795 L 6.101 2.696 6.544 1.368 C 6.787 0.638,6.987 0.031,6.987 0.020 C 6.987 0.009,5.864 0.000,4.492 0.000 C 2.127 0.000,1.997 0.002,2.011 0.047 M8.987 0.078 C 8.987 0.086,8.963 0.279,8.933 0.507 C 8.855 1.111,8.837 1.052,9.113 1.092 C 9.445 1.140,10.043 1.294,10.387 1.418 C 11.051 1.660,11.852 2.114,12.426 2.578 C 12.716 2.811,13.189 3.284,13.422 3.574 C 13.639 3.842,14.029 4.424,14.160 4.675 C 14.211 4.773,14.262 4.853,14.274 4.853 C 14.314 4.854,15.147 4.426,15.147 4.405 C 15.147 4.361,14.763 3.714,14.592 3.468 C 13.746 2.253,12.593 1.292,11.269 0.699 C 10.866 0.519,10.189 0.292,9.787 0.203 C 9.434 0.125,8.987 0.055,8.987 0.078 M5.593 1.047 C 5.587 1.065,5.512 1.287,5.428 1.540 L 5.276 2.000 4.497 2.000 L 3.719 2.000 3.555 1.507 L 3.391 1.013 4.498 1.013 C 5.373 1.013,5.603 1.020,5.593 1.047 M5.503 5.607 C 5.707 7.033,5.879 8.237,5.886 8.283 L 5.899 8.366 5.221 8.637 C 4.848 8.785,4.523 8.907,4.498 8.907 C 4.474 8.907,4.149 8.785,3.775 8.635 C 3.162 8.391,3.096 8.359,3.107 8.309 C 3.114 8.278,3.282 7.107,3.480 5.707 C 3.679 4.306,3.848 3.127,3.856 3.087 L 3.871 3.013 4.502 3.013 L 5.134 3.013 5.503 5.607 M9.013 6.020 C 9.013 6.031,9.213 6.638,9.456 7.368 L 9.899 8.696 9.456 11.795 C 9.213 13.499,9.013 14.919,9.013 14.951 C 9.013 15.001,9.157 15.065,10.257 15.505 L 11.500 16.003 12.743 15.506 C 13.427 15.232,13.990 15.006,13.993 15.002 C 13.997 14.999,13.797 13.577,13.549 11.843 L 13.099 8.691 13.547 7.345 L 13.996 6.000 11.505 6.000 C 10.134 6.000,9.013 6.009,9.013 6.020 M12.445 7.507 L 12.281 8.001 11.497 7.994 L 10.713 7.987 10.557 7.507 C 10.471 7.243,10.401 7.024,10.401 7.020 C 10.400 7.016,10.897 7.013,11.504 7.013 L 12.609 7.013 12.445 7.507 M12.134 9.033 C 12.135 9.044,12.306 10.249,12.516 11.711 L 12.897 14.368 12.215 14.638 C 11.840 14.786,11.515 14.908,11.493 14.907 C 11.471 14.907,11.149 14.785,10.777 14.636 L 10.101 14.365 10.114 14.283 C 10.121 14.237,10.293 13.033,10.497 11.607 L 10.866 9.013 11.500 9.013 C 11.848 9.013,12.134 9.022,12.134 9.033 M1.678 11.951 C 1.466 12.084,1.277 12.208,1.257 12.227 C 1.226 12.256,1.246 12.300,1.382 12.497 C 2.617 14.300,4.568 15.549,6.680 15.890 C 6.856 15.919,7.002 15.940,7.005 15.937 C 7.015 15.927,7.120 15.081,7.120 15.012 C 7.120 14.947,7.110 14.943,6.892 14.911 C 6.573 14.865,5.995 14.716,5.629 14.585 C 4.262 14.095,3.045 13.152,2.220 11.942 L 2.062 11.710 1.678 11.951 " fill="#455065" stroke="none" fill-rule="evenodd"></path></svg>