<svg width="24" height="24" viewBox="0 0 24 24" fill="none" xmlns="http://www.w3.org/2000/svg"><path d="M11.069 1.039 C 8.822 1.258,6.868 2.041,5.101 3.432 C 4.640 3.795,3.606 4.863,3.231 5.363 C 2.075 6.906,1.379 8.590,1.093 10.540 C 0.995 11.212,0.995 12.788,1.093 13.460 C 1.379 15.409,2.074 17.091,3.230 18.637 C 3.685 19.244,4.756 20.315,5.363 20.770 C 6.909 21.926,8.591 22.621,10.540 22.907 C 10.896 22.959,11.273 22.977,12.000 22.977 C 13.075 22.977,13.533 22.929,14.450 22.720 C 14.977 22.600,16.027 22.268,16.139 22.186 C 16.195 22.144,16.182 22.091,16.018 21.697 L 15.834 21.254 15.207 21.465 C 12.924 22.234,10.521 22.169,8.272 21.278 C 5.342 20.116,3.056 17.492,2.303 14.429 C 2.087 13.548,2.026 13.019,2.026 12.000 C 2.026 10.981,2.087 10.452,2.303 9.571 C 3.189 5.964,6.142 3.069,9.760 2.260 C 10.616 2.068,11.044 2.024,12.020 2.025 C 13.016 2.027,13.560 2.090,14.429 2.303 C 18.036 3.189,20.931 6.142,21.740 9.760 C 21.968 10.779,21.979 10.933,21.980 13.240 C 21.980 15.229,21.975 15.396,21.905 15.600 C 21.670 16.288,21.090 16.814,20.408 16.956 C 19.435 17.159,18.466 16.610,18.109 15.654 C 18.025 15.428,18.021 15.350,17.998 13.320 C 17.976 11.363,17.968 11.193,17.887 10.826 C 17.461 8.896,16.297 7.417,14.545 6.577 C 13.723 6.183,12.996 6.026,12.000 6.024 C 11.011 6.023,10.281 6.181,9.455 6.577 C 7.701 7.418,6.540 8.894,6.111 10.830 C 5.986 11.395,5.986 12.605,6.111 13.170 C 6.530 15.059,7.665 16.536,9.347 17.376 C 10.083 17.744,10.891 17.950,11.744 17.988 C 13.671 18.074,15.505 17.229,16.717 15.699 C 16.856 15.524,16.983 15.375,16.999 15.369 C 17.016 15.362,17.040 15.438,17.053 15.536 C 17.088 15.791,17.260 16.262,17.411 16.517 C 17.592 16.823,18.082 17.329,18.381 17.517 C 20.187 18.658,22.517 17.658,22.943 15.559 C 22.998 15.286,23.004 14.953,22.990 13.092 C 22.974 11.145,22.965 10.889,22.888 10.408 C 22.621 8.735,22.078 7.317,21.183 5.960 C 20.756 5.311,20.447 4.928,19.881 4.345 C 18.173 2.584,16.031 1.488,13.580 1.121 C 12.946 1.026,11.641 0.984,11.069 1.039 M12.601 7.042 C 13.369 7.136,14.154 7.432,14.824 7.881 C 14.998 7.997,15.313 8.265,15.524 8.476 C 17.687 10.640,17.425 14.175,14.964 16.022 C 14.405 16.441,13.631 16.780,12.900 16.925 C 12.532 16.998,11.468 16.998,11.100 16.925 C 10.425 16.791,9.678 16.478,9.155 16.111 C 8.462 15.624,7.901 14.963,7.517 14.180 C 6.982 13.089,6.864 11.865,7.180 10.680 C 7.309 10.196,7.683 9.433,7.994 9.016 C 9.061 7.588,10.840 6.826,12.601 7.042 " fill="#455065" stroke="none" fill-rule="evenodd"></path></svg>