<svg width="16" height="16" viewBox="0 0 16 16" fill="none" xmlns="http://www.w3.org/2000/svg"><path d="M7.467 0.019 C 7.197 0.035,6.683 0.108,6.347 0.177 C 3.324 0.796,0.878 3.204,0.200 6.228 C 0.047 6.910,0.017 7.206,0.017 8.000 C 0.017 8.794,0.047 9.090,0.200 9.772 C 0.610 11.600,1.671 13.237,3.195 14.393 C 4.257 15.199,5.481 15.705,6.906 15.927 C 7.440 16.010,8.568 16.009,9.120 15.924 C 9.730 15.830,10.513 15.621,10.977 15.427 L 11.062 15.391 10.873 14.934 C 10.725 14.576,10.675 14.479,10.642 14.489 C 10.619 14.497,10.462 14.551,10.293 14.610 C 8.735 15.158,6.985 15.123,5.440 14.514 C 3.358 13.694,1.773 11.900,1.227 9.747 C 1.059 9.083,1.027 8.807,1.027 8.000 C 1.027 7.193,1.059 6.917,1.227 6.253 C 1.847 3.807,3.807 1.847,6.253 1.227 C 6.917 1.059,7.193 1.027,8.000 1.027 C 8.807 1.027,9.083 1.059,9.747 1.227 C 12.207 1.851,14.177 3.832,14.784 6.295 C 14.957 6.998,14.967 7.113,14.980 8.459 C 14.987 9.299,14.982 9.723,14.961 9.822 C 14.888 10.173,14.617 10.560,14.302 10.763 C 13.856 11.051,13.270 11.072,12.787 10.818 C 12.474 10.653,12.166 10.271,12.052 9.907 C 12.029 9.832,12.013 9.448,12.000 8.640 C 11.984 7.592,11.976 7.455,11.924 7.218 C 11.643 5.934,10.865 4.945,9.697 4.385 C 9.149 4.122,8.664 4.017,8.000 4.016 C 7.341 4.015,6.854 4.121,6.303 4.385 C 5.134 4.945,4.360 5.929,4.074 7.220 C 3.990 7.597,3.990 8.403,4.074 8.780 C 4.273 9.677,4.714 10.438,5.363 11.005 C 6.734 12.200,8.724 12.329,10.226 11.320 C 10.503 11.134,10.792 10.881,10.991 10.650 C 11.078 10.549,11.159 10.463,11.170 10.459 C 11.181 10.456,11.225 10.527,11.268 10.618 C 11.527 11.167,12.084 11.657,12.680 11.861 C 14.116 12.351,15.642 11.477,15.950 9.987 C 15.993 9.777,15.999 9.616,16.000 8.693 C 16.000 7.594,15.981 7.245,15.891 6.700 C 15.532 4.523,14.287 2.585,12.467 1.368 C 10.981 0.374,9.258 -0.091,7.467 0.019 M8.537 5.052 C 9.742 5.264,10.736 6.258,10.948 7.463 C 11.028 7.922,10.985 8.535,10.845 8.947 C 10.424 10.179,9.294 10.992,8.000 10.995 C 6.713 10.997,5.576 10.178,5.155 8.947 C 4.964 8.387,4.965 7.612,5.157 7.049 C 5.300 6.630,5.574 6.187,5.881 5.881 C 6.292 5.469,6.888 5.155,7.449 5.053 C 7.711 5.005,8.266 5.005,8.537 5.052 " fill="#455065" stroke="none" fill-rule="evenodd"></path></svg>