<?xml version="1.0" encoding="UTF-8"?>
<svg width="16px" height="16px" viewBox="0 0 16 16" version="1.1" xmlns="http://www.w3.org/2000/svg" xmlns:xlink="http://www.w3.org/1999/xlink">
    <!-- Generator: sketchtool 54.1 (76490) - https://sketchapp.com -->
    <title>d6a6bbb8-0b03-4f20-8f63-3fe7795f2e7d@1.00x</title>
    <desc>Created with sketchtool.</desc>
    <defs>
        <path d="M5.49731144,12.6240089 L6.28676494,11.8345554 C6.67273294,11.9423611 7.07963532,12 7.5,12 C9.98528137,12 12,9.98528137 12,7.5 L13,7.5 C13,10.3690213 10.80325,12.7249641 8,12.9775785 L8,15 L11,15 L11,16 L4,16 L4,15 L7,15 L7,12.9775785 C6.47427573,12.9302029 5.96988305,12.8088499 5.49731144,12.6240089 Z M3.09063927,10.7880404 C2.40560197,9.87087143 2,8.73280242 2,7.5 L3,7.5 C3,8.4562594 3.29827353,9.34285329 3.80685929,10.0718204 L3.09063927,10.7880404 Z M10.9530923,2.92558735 L10,3.87867966 L10,3.5 C10,2.11928813 8.88071187,1 7.5,1 C6.11928813,1 5,2.11928813 5,3.5 L5,7.5 C5,7.90116707 5.09449011,8.2802648 5.2624284,8.61625126 L4.52846567,9.35021398 C4.1935311,8.81342935 4,8.17931548 4,7.5 L4,3.5 C4,1.56700338 5.56700338,3.55085719e-16 7.5,0 C9.23736183,-3.1914819e-16 10.6790644,1.26586762 10.9530923,2.92558735 Z M11,7.12132034 L11,7.5 C11,9.43299662 9.43299662,11 7.5,11 C7.37833193,11 7.25811385,10.9937919 7.13964525,10.9816751 L8.22939868,9.89192167 C9.02354464,9.65006045 9.65006045,9.02354464 9.89192167,8.22939868 L11,7.12132034 Z M1.5,15.2071068 L0.792893219,14.5 L14.5,0.792893219 L15.2071068,1.5 L1.5,15.2071068 Z" id="path-1"></path>
    </defs>
    <g id="Symbols" stroke="none" stroke-width="1" fill="none" fill-rule="evenodd">
        <g id="Icons-/-Video-Call-/-16-/-Microphone-Off">
            <mask id="mask-2" fill="white">
                <use xlink:href="#path-1"></use>
            </mask>
            <use id="Combined-Shape" fill="#000000" fill-rule="nonzero" xlink:href="#path-1"></use>
            <g id="Colors-/-Black" mask="url(#mask-2)" fill="#000000">
                <rect id="Rectangle" x="0" y="0" width="16" height="16"></rect>
            </g>
        </g>
    </g>
</svg>