<?xml version="1.0" encoding="UTF-8"?>
<svg width="24px" height="24px" viewBox="0 0 24 24" version="1.1" xmlns="http://www.w3.org/2000/svg" xmlns:xlink="http://www.w3.org/1999/xlink">
    <!-- Generator: sketchtool 54.1 (76490) - https://sketchapp.com -->
    <title>caa8b7c0-808e-4f01-b61e-e54a6d0b1278@1.00x</title>
    <desc>Created with sketchtool.</desc>
    <defs>
        <path d="M7.36391515,18.7574052 L8.08786697,18.0334534 C9.07963641,18.6463172 10.2485147,19 11.5,19 C15.0898509,19 18,16.0898509 18,12.5 L19,12.5 C19,16.4741213 15.9090159,19.7263047 12,19.9835977 L12,23 L17,23 L17,24 L6,24 L6,23 L11,23 L11,19.9835977 C9.66168075,19.895509 8.4192474,19.4563731 7.36391515,18.7574052 Z M5.24259481,16.6360848 C4.45731515,15.4504353 4,14.0286235 4,12.5 L5,12.5 C5,13.7514853 5.35368281,14.9203636 5.96654663,15.912133 L5.24259481,16.6360848 Z M16,5.87867966 L15,6.87867966 L15,4.5 C15,2.56700338 13.4329966,1 11.5,1 C9.56700338,1 8,2.56700338 8,4.5 L8,12.5 C8,12.9126223 8.07140244,13.3085676 8.20252549,13.6761542 L7.43855648,14.4401232 C7.15742823,13.8526703 7,13.1947198 7,12.5 L7,4.5 C7,2.01471863 9.01471863,4.56538782e-16 11.5,0 C13.9852814,-4.56538782e-16 16,2.01471863 16,4.5 L16,5.87867966 Z M16,10.1213203 L16,12.5 C16,14.9852814 13.9852814,17 11.5,17 C10.8052802,17 10.1473297,16.8425718 9.55987682,16.5614435 L10.3238458,15.7974745 C10.6914324,15.9285976 11.0873777,16 11.5,16 C13.4329966,16 15,14.4329966 15,12.5 L15,11.1213203 L16,10.1213203 Z M2.5,22.2071068 L1.79289322,21.5 L21.5,1.79289322 L22.2071068,2.5 L2.5,22.2071068 Z" id="path-1"></path>
    </defs>
    <g id="Symbols" stroke="none" stroke-width="1" fill="none" fill-rule="evenodd">
        <g id="Icons-/-Video-Call-/-24-/-Microphone-Off">
            <mask id="mask-2" fill="white">
                <use xlink:href="#path-1"></use>
            </mask>
            <use id="Combined-Shape" fill="#000000" fill-rule="nonzero" xlink:href="#path-1"></use>
            <g id="Colors-/-Black" mask="url(#mask-2)" fill="#000000">
                <rect id="Rectangle" x="0" y="0" width="24" height="24"></rect>
            </g>
        </g>
    </g>
</svg>