<?xml version="1.0" encoding="UTF-8"?>
<svg width="24px" height="24px" viewBox="0 0 24 24" version="1.1" xmlns="http://www.w3.org/2000/svg" xmlns:xlink="http://www.w3.org/1999/xlink">
    <!-- Generator: sketchtool 54.1 (76490) - https://sketchapp.com -->
    <title>bc0944f4-b799-4372-8138-244723528f8f@1.00x</title>
    <desc>Created with sketchtool.</desc>
    <defs>
        <path d="M6.20703249,18 C6.07216716,17.5231682 6,17.0200119 6,16.5 C6,13.4624339 8.46243388,11 11.5,11 C14.5375661,11 17,13.4624339 17,16.5 C17,17.0200119 16.9278328,17.5231682 16.7929675,18 L15.7439414,18 C15.9097687,17.5308316 16,17.0259531 16,16.5 C16,14.0147186 13.9852814,12 11.5,12 C9.01471863,12 7,14.0147186 7,16.5 C7,17.0259531 7.09023133,17.5308316 7.25605856,18 L6.20703249,18 Z M11,5 L12,5 L12,9 L11,9 L11,5 Z M19.2781746,8.01471863 L19.9852814,8.72182541 L17.1568542,11.5502525 L16.4497475,10.8431458 L19.2781746,8.01471863 Z M23,16 L23,17 L19,17 L19,16 L23,16 Z M-2.22044605e-16,17 L-4.05741625e-16,16 L4,16 L4,17 L-2.22044605e-16,17 Z M3.01471863,8.72182541 L3.72182541,8.01471863 L6.55025253,10.8431458 L5.84314575,11.5502525 L3.01471863,8.72182541 Z" id="path-1"></path>
    </defs>
    <g id="Symbols" stroke="none" stroke-width="1" fill="none" fill-rule="evenodd">
        <g id="Icons-/-Top-Scheduler-/-24-/-Morning">
            <mask id="mask-2" fill="white">
                <use xlink:href="#path-1"></use>
            </mask>
            <use id="Combined-Shape" fill="#000000" fill-rule="nonzero" xlink:href="#path-1"></use>
            <g id="Colors-/-Black" mask="url(#mask-2)" fill="#000000">
                <rect id="Rectangle" x="0" y="0" width="24" height="24"></rect>
            </g>
        </g>
    </g>
</svg>