<?xml version="1.0" encoding="UTF-8"?>
<svg width="16px" height="16px" viewBox="0 0 16 16" version="1.1" xmlns="http://www.w3.org/2000/svg" xmlns:xlink="http://www.w3.org/1999/xlink">
    <!-- Generator: sketchtool 54.1 (76490) - https://sketchapp.com -->
    <title>53b6fea3-2421-4adb-ab30-fc37c7555295@1.00x</title>
    <desc>Created with sketchtool.</desc>
    <defs>
        <path d="M13,3 L13,1 L14,1 L14,3 L16,3 L16,4 L14,4 L14,6 L13,6 L13,4 L11,4 L11,3 L13,3 Z M3.87270435,9.38804066 C2.74765126,8.68015004 2,7.42738667 2,6 C2,3.790861 3.790861,2 6,2 C8.209139,2 10,3.790861 10,6 C10,7.42738667 9.25234874,8.68015004 8.12729565,9.38804066 C10.3909466,10.2465753 12,12.4353804 12,15 L11,15 C11,12.2385763 8.76142375,10 6,10 C3.23857625,10 1,12.2385763 1,15 L0,15 C0,12.4353804 1.60905341,10.2465753 3.87270435,9.38804066 Z M6,9 C7.65685425,9 9,7.65685425 9,6 C9,4.34314575 7.65685425,3 6,3 C4.34314575,3 3,4.34314575 3,6 C3,7.65685425 4.34314575,9 6,9 Z" id="path-1"></path>
    </defs>
    <g id="Symbols" stroke="none" stroke-width="1" fill="none" fill-rule="evenodd">
        <g id="Icons-/-Notifications-/-16-/-New-Candidate">
            <mask id="mask-2" fill="white">
                <use xlink:href="#path-1"></use>
            </mask>
            <use id="Combined-Shape" fill="#000000" fill-rule="nonzero" xlink:href="#path-1"></use>
            <g id="Colors-/-Black" mask="url(#mask-2)" fill="#000000">
                <rect id="Rectangle" x="0" y="0" width="16" height="16"></rect>
            </g>
        </g>
    </g>
</svg>