<svg width="24" height="24" viewBox="0 0 24 24" fill="none" xmlns="http://www.w3.org/2000/svg"><path d="M8.600 0.427 C 6.835 0.608,5.215 1.245,3.760 2.330 C 3.255 2.706,2.292 3.676,1.897 4.206 C 0.946 5.483,0.343 6.937,0.093 8.560 C 0.006 9.128,-0.006 10.595,0.072 11.140 C 0.533 14.344,2.467 17.047,5.293 18.437 C 6.229 18.897,7.143 19.187,8.161 19.346 C 8.799 19.446,10.235 19.447,10.880 19.347 C 11.548 19.245,12.331 19.047,12.809 18.859 C 12.873 18.834,12.879 18.894,12.889 19.665 L 12.900 20.497 15.653 22.089 C 17.167 22.964,18.421 23.680,18.440 23.680 C 18.459 23.680,19.713 22.963,21.227 22.086 L 23.980 20.492 23.990 17.276 L 23.999 14.060 21.499 12.620 L 18.999 11.180 19.028 10.800 C 19.253 7.907,18.272 5.192,16.281 3.199 C 15.473 2.390,14.763 1.882,13.714 1.361 C 12.730 0.873,11.645 0.557,10.552 0.441 C 10.192 0.403,8.923 0.394,8.600 0.427 M11.020 1.514 C 12.493 1.795,13.717 2.349,14.840 3.242 C 16.267 4.378,17.350 6.039,17.778 7.748 C 17.994 8.613,18.018 8.832,18.019 9.974 C 18.020 11.029,18.019 11.048,17.933 11.118 C 17.885 11.157,16.728 11.834,15.363 12.622 L 12.881 14.056 12.870 15.914 L 12.860 17.772 12.500 17.907 C 9.970 18.851,7.057 18.514,4.820 17.019 C 1.923 15.082,0.486 11.605,1.177 8.206 C 1.633 5.963,2.971 4.013,4.941 2.721 C 5.876 2.108,7.186 1.627,8.380 1.460 C 8.987 1.375,10.446 1.405,11.020 1.514 M7.330 9.910 L 7.340 13.620 7.830 13.631 L 8.320 13.642 8.320 9.921 L 8.320 6.200 7.820 6.200 L 7.320 6.200 7.330 9.910 M10.730 9.910 L 10.740 13.620 11.230 13.631 L 11.720 13.642 11.720 9.921 L 11.720 6.200 11.220 6.200 L 10.720 6.200 10.730 9.910 M20.460 13.169 C 21.569 13.813,22.463 14.353,22.445 14.371 C 22.368 14.448,21.020 15.202,20.977 15.191 C 20.879 15.168,16.962 12.899,16.971 12.871 C 16.978 12.848,18.384 12.012,18.431 12.002 C 18.437 12.001,19.350 12.526,20.460 13.169 M17.967 14.627 C 19.063 15.258,19.960 15.785,19.960 15.797 C 19.960 15.821,18.534 16.652,18.460 16.671 C 18.417 16.683,14.545 14.473,14.448 14.382 C 14.407 14.344,14.546 14.248,15.128 13.909 C 15.531 13.676,15.885 13.484,15.917 13.482 C 15.948 13.481,16.870 13.996,17.967 14.627 M15.933 16.400 L 17.917 17.540 17.918 19.894 L 17.920 22.248 17.770 22.159 C 17.688 22.111,16.779 21.584,15.750 20.990 L 13.880 19.909 13.880 17.571 C 13.880 16.285,13.895 15.239,13.914 15.247 C 13.933 15.254,14.842 15.773,15.933 16.400 M23.000 17.572 L 23.000 19.904 21.070 21.020 C 20.008 21.633,19.100 22.161,19.050 22.192 L 18.960 22.249 18.962 19.895 L 18.963 17.540 20.952 16.393 C 22.045 15.762,22.953 15.244,22.970 15.243 C 22.987 15.241,23.000 16.289,23.000 17.572 " fill="#455065" stroke="none" fill-rule="evenodd"></path></svg>