<?xml version="1.0" encoding="UTF-8"?>
<svg width="24px" height="24px" viewBox="0 0 24 24" version="1.1" xmlns="http://www.w3.org/2000/svg" xmlns:xlink="http://www.w3.org/1999/xlink">
    <title>Icons / People / 24 / Owner Default</title>
    <defs>
        <path d="M13,9 C15.209139,9 17,10.790861 17,13 L20,13 C22.209139,13 24,14.790861 24,17 L24,19 C24,21.209139 22.209139,23 20,23 L11,23 C8.790861,23 7,21.209139 7,19 L4,19 C1.790861,19 0,17.209139 0,15 L0,13 C0,10.790861 1.790861,9 4,9 L13,9 Z M20,14 L17,14 L17,15 C17,17.209139 15.209139,19 13,19 L8,19 C8,20.6568542 9.34314575,22 11,22 L20,22 C21.6568542,22 23,20.6568542 23,19 L23,17 C23,15.3431458 21.6568542,14 20,14 Z M13,10 L4,10 C2.34314575,10 1,11.3431458 1,13 L1,15 C1,16.6568542 2.34314575,18 4,18 L7,18 L7,17 C7,14.790861 8.790861,13 11,13 L16,13 C16,11.3431458 14.6568542,10 13,10 Z M16,14 L11,14 C9.34314575,14 8,15.3431458 8,17 L8,18 L13,18 C14.6568542,18 16,16.6568542 16,15 L16,14 Z M21,1 L21,4 L24,4 L24,5 L21,5 L21,8 L20,8 L20,5 L17,5 L17,4 L20,4 L20,1 L21,1 Z" id="path-1"></path>
    </defs>
    <g id="Icons-/-People-/-24-/-Owner-Default" stroke="none" stroke-width="1" fill="none" fill-rule="evenodd">
        <mask id="mask-2" fill="white">
            <use xlink:href="#path-1"></use>
        </mask>
        <use id="Combined-Shape" fill="#000000" fill-rule="nonzero" xlink:href="#path-1"></use>
        <g id="Colors-/-305-Dark-Gray" mask="url(#mask-2)" fill="#455065">
            <rect id="Rectangle" x="0" y="0" width="24" height="24"></rect>
        </g>
    </g>
</svg>