<?xml version="1.0" encoding="UTF-8"?>
<svg width="16px" height="16px" viewBox="0 0 16 16" version="1.1" xmlns="http://www.w3.org/2000/svg" xmlns:xlink="http://www.w3.org/1999/xlink">
    <title>Icons / People / 16 / Owner Default</title>
    <defs>
        <path d="M8,6 C9.65685425,6 11,7.34314575 11,9 L13,9 C14.6568542,9 16,10.3431458 16,12 L16,13 C16,14.6568542 14.6568542,16 13,16 L8,16 C6.34314575,16 5,14.6568542 5,13 L3,13 C1.34314575,13 0,11.6568542 0,10 L0,9 C0,7.34314575 1.34314575,6 3,6 L8,6 Z M13,10 L11,10 C11,11.6568542 9.65685425,13 8,13 L6,13 C6,14.1045695 6.8954305,15 8,15 L13,15 C14.1045695,15 15,14.1045695 15,13 L15,12 C15,10.8954305 14.1045695,10 13,10 Z M8,7 L3,7 C1.8954305,7 1,7.8954305 1,9 L1,10 C1,11.1045695 1.8954305,12 3,12 L5,12 C5,10.3431458 6.34314575,9 8,9 L10,9 C10,7.8954305 9.1045695,7 8,7 Z M10,10 L8,10 C6.8954305,10 6,10.8954305 6,12 L8,12 C9.1045695,12 10,11.1045695 10,10 Z M14,1 L14,3 L16,3 L16,4 L14,4 L14,6 L13,6 L13,4 L11,4 L11,3 L13,3 L13,1 L14,1 Z" id="path-1"></path>
    </defs>
    <g id="Icons-/-People-/-16-/-Owner-Default" stroke="none" stroke-width="1" fill="none" fill-rule="evenodd">
        <mask id="mask-2" fill="white">
            <use xlink:href="#path-1"></use>
        </mask>
        <use id="Combined-Shape" fill="#000000" fill-rule="nonzero" xlink:href="#path-1"></use>
        <g id="Colors-/-305-Dark-Gray" mask="url(#mask-2)" fill="#455065">
            <rect id="Rectangle" x="0" y="0" width="16" height="16"></rect>
        </g>
    </g>
</svg>