<svg width="16" height="16" viewBox="0 0 16 16" fill="none" xmlns="http://www.w3.org/2000/svg"><path d="M13.120 0.029 C 12.858 0.069,12.452 0.218,12.208 0.363 C 11.973 0.504,11.584 0.864,11.445 1.070 C 11.318 1.259,11.186 1.537,11.112 1.773 C 11.045 1.987,10.975 2.440,11.002 2.483 C 11.010 2.496,11.235 2.507,11.503 2.507 L 11.989 2.507 12.021 2.287 C 12.104 1.704,12.551 1.200,13.111 1.056 C 13.317 1.002,13.676 1.001,13.875 1.053 C 14.384 1.186,14.814 1.614,14.946 2.121 C 14.997 2.319,14.998 2.689,14.947 2.880 C 14.806 3.410,14.369 3.834,13.833 3.960 C 13.733 3.984,13.531 3.999,13.327 4.000 L 12.987 4.000 12.987 5.000 L 12.987 6.000 13.493 6.000 L 13.999 6.000 14.006 5.478 L 14.013 4.956 14.240 4.882 C 15.258 4.552,15.935 3.684,15.992 2.635 C 16.057 1.448,15.270 0.377,14.114 0.078 C 13.870 0.015,13.375 -0.009,13.120 0.029 M2.528 6.041 C 1.259 6.239,0.255 7.242,0.040 8.526 C 0.002 8.751,-0.003 8.932,0.006 9.631 C 0.017 10.425,0.021 10.479,0.086 10.720 C 0.427 11.982,1.437 12.851,2.720 12.986 C 2.859 13.000,3.426 13.013,3.978 13.013 L 4.983 13.013 4.997 13.127 C 5.005 13.189,5.019 13.309,5.028 13.393 C 5.074 13.832,5.310 14.410,5.598 14.792 C 6.015 15.347,6.573 15.719,7.280 15.916 L 7.533 15.986 10.373 15.994 C 12.909 16.002,13.242 15.998,13.478 15.959 C 14.758 15.747,15.745 14.759,15.960 13.474 C 15.998 13.249,16.003 13.068,15.994 12.369 C 15.983 11.575,15.979 11.521,15.914 11.280 C 15.621 10.197,14.824 9.387,13.765 9.099 L 13.507 9.029 12.260 9.020 C 11.574 9.015,11.013 9.002,11.013 8.992 C 11.009 8.827,10.944 8.411,10.893 8.217 C 10.584 7.058,9.578 6.183,8.373 6.028 C 8.255 6.012,7.072 6.002,5.467 6.003 C 3.327 6.005,2.711 6.013,2.528 6.041 M8.559 7.076 C 9.377 7.353,9.907 8.001,9.989 8.827 L 10.007 9.013 8.847 9.013 C 7.946 9.013,7.637 9.022,7.463 9.052 C 6.553 9.212,5.716 9.841,5.314 10.669 C 5.137 11.034,5.054 11.346,4.999 11.848 L 4.982 12.003 3.805 11.994 C 2.659 11.985,2.622 11.983,2.440 11.923 C 1.772 11.703,1.296 11.226,1.078 10.559 C 1.037 10.435,1.029 10.288,1.020 9.580 C 1.010 8.809,1.013 8.731,1.064 8.527 C 1.242 7.813,1.797 7.251,2.507 7.067 C 2.699 7.017,2.811 7.016,5.560 7.021 C 8.251 7.027,8.422 7.030,8.559 7.076 M12.987 7.507 L 12.987 8.000 13.493 8.000 L 14.000 8.000 14.000 7.507 L 14.000 7.013 13.493 7.013 L 12.987 7.013 12.987 7.507 M10.000 10.077 C 10.000 10.257,9.910 10.613,9.811 10.825 C 9.528 11.429,9.034 11.822,8.385 11.960 C 8.239 11.991,7.965 11.999,7.096 12.000 L 5.993 12.000 6.011 11.820 C 6.038 11.553,6.074 11.426,6.199 11.160 C 6.438 10.649,6.868 10.268,7.402 10.094 C 7.646 10.015,7.788 10.006,8.900 10.003 L 10.000 10.000 10.000 10.077 M13.546 10.077 C 14.107 10.246,14.533 10.608,14.790 11.133 C 14.967 11.497,14.986 11.625,14.986 12.509 C 14.987 13.182,14.980 13.296,14.934 13.482 C 14.790 14.053,14.404 14.532,13.880 14.785 C 13.415 15.011,13.622 14.997,10.693 15.007 C 7.942 15.017,7.732 15.010,7.375 14.896 C 6.636 14.662,6.098 13.988,6.013 13.192 L 5.994 13.018 7.177 13.006 C 8.427 12.992,8.525 12.983,8.933 12.850 C 9.842 12.554,10.574 11.810,10.862 10.892 C 10.922 10.700,10.953 10.530,11.002 10.125 L 11.017 9.996 12.182 10.007 C 13.299 10.016,13.355 10.019,13.546 10.077 " fill="#455065" stroke="none" fill-rule="evenodd"></path></svg>