<svg width="24" height="24" viewBox="0 0 24 24" fill="none" xmlns="http://www.w3.org/2000/svg"><path d="M20.503 1.040 C 19.471 1.227,18.556 1.976,18.202 2.925 C 18.099 3.201,18.002 3.648,18.001 3.850 L 18.000 4.000 18.495 4.000 L 18.991 4.000 19.019 3.777 C 19.190 2.406,20.630 1.614,21.875 2.207 C 22.229 2.375,22.624 2.769,22.791 3.120 C 23.344 4.283,22.715 5.617,21.462 5.939 C 21.298 5.981,21.030 6.000,20.612 6.000 L 20.000 6.000 20.000 7.000 L 20.000 8.000 20.500 8.000 L 21.000 8.000 21.000 7.506 L 21.000 7.011 21.270 6.986 C 21.747 6.941,22.267 6.759,22.646 6.504 C 24.169 5.478,24.448 3.386,23.246 2.020 C 22.897 1.624,22.276 1.239,21.756 1.097 C 21.491 1.024,20.770 0.991,20.503 1.040 M3.433 9.043 C 2.857 9.128,2.224 9.378,1.731 9.712 C 0.956 10.239,0.396 11.034,0.129 11.989 L 0.020 12.380 0.020 14.000 L 0.020 15.620 0.131 16.017 C 0.552 17.526,1.707 18.608,3.226 18.917 C 3.599 18.993,3.772 19.000,5.310 19.000 L 6.988 19.000 7.014 19.330 C 7.072 20.078,7.396 20.891,7.870 21.481 C 8.487 22.249,9.261 22.721,10.226 22.917 C 10.624 22.998,10.737 23.000,15.500 23.000 C 20.263 23.000,20.376 22.998,20.774 22.917 C 22.291 22.608,23.459 21.512,23.871 20.012 L 23.979 19.620 23.979 18.000 L 23.979 16.380 23.873 15.995 C 23.544 14.798,22.797 13.914,21.663 13.376 C 20.952 13.039,20.868 13.029,18.816 13.010 L 17.011 12.994 16.987 12.687 C 16.895 11.503,16.242 10.373,15.269 9.712 C 14.928 9.481,14.352 9.218,13.958 9.113 L 13.620 9.023 8.640 9.016 C 5.901 9.012,3.558 9.024,3.433 9.043 M20.000 9.500 L 20.000 10.000 20.500 10.000 L 21.000 10.000 21.000 9.500 L 21.000 9.000 20.500 9.000 L 20.000 9.000 20.000 9.500 M13.756 10.089 C 14.373 10.280,14.957 10.665,15.330 11.127 C 15.695 11.580,16.000 12.379,16.000 12.882 L 16.000 12.996 13.190 13.010 C 10.434 13.024,10.373 13.026,10.042 13.114 C 8.618 13.489,7.532 14.555,7.135 15.968 C 7.042 16.298,7.028 16.433,7.011 17.170 L 6.991 18.000 5.345 17.999 C 3.604 17.999,3.422 17.983,2.925 17.798 C 2.219 17.535,1.638 16.985,1.298 16.260 C 1.025 15.679,1.020 15.637,1.020 14.000 C 1.020 12.363,1.025 12.321,1.298 11.740 C 1.718 10.844,2.549 10.204,3.503 10.042 C 3.611 10.023,5.914 10.012,8.620 10.015 C 13.090 10.022,13.560 10.029,13.756 10.089 M16.000 14.616 C 16.000 15.378,15.930 15.781,15.716 16.238 C 15.292 17.144,14.552 17.733,13.578 17.940 C 13.349 17.988,12.829 17.999,10.645 17.999 L 7.991 18.000 8.011 17.230 C 8.034 16.373,8.065 16.217,8.312 15.704 C 8.729 14.836,9.570 14.199,10.503 14.042 C 10.611 14.024,11.893 14.007,13.350 14.005 L 16.000 14.000 16.000 14.616 M20.756 14.091 C 21.635 14.355,22.325 14.939,22.704 15.740 C 22.966 16.295,23.000 16.551,23.000 18.000 C 23.000 19.429,22.965 19.705,22.716 20.238 C 22.292 21.144,21.552 21.733,20.578 21.940 C 20.165 22.027,10.838 22.028,10.425 21.940 C 9.448 21.733,8.717 21.156,8.298 20.260 C 8.112 19.861,8.057 19.670,8.017 19.270 L 7.989 19.000 10.678 19.000 C 13.239 19.000,13.387 18.996,13.774 18.917 C 15.292 18.608,16.472 17.500,16.868 16.012 C 16.960 15.668,16.974 15.521,16.990 14.807 L 17.008 13.995 18.774 14.010 C 20.257 14.024,20.575 14.036,20.756 14.091 " fill="#455065" stroke="none" fill-rule="evenodd"></path></svg>