<?xml version="1.0" encoding="UTF-8"?>
<svg width="24px" height="24px" viewBox="0 0 24 24" version="1.1" xmlns="http://www.w3.org/2000/svg" xmlns:xlink="http://www.w3.org/1999/xlink">
    <title>Icons / Documents / 24 / Page</title>
    <defs>
        <path d="M22,0 L22,24 L2,24 L2,0 L22,0 Z M21,1 L3,1 L3,23 L21,23 L21,1 Z M10,18 L10,19 L6,19 L6,18 L10,18 Z M13,11 L13,12 L6,12 L6,11 L13,11 Z M18,8 L18,9 L6,9 L6,8 L18,8 Z M18,5 L18,6 L6,6 L6,5 L18,5 Z" id="path-1"></path>
    </defs>
    <g id="Icons-/-Documents-/-24-/-Page" stroke="none" stroke-width="1" fill="none" fill-rule="evenodd">
        <mask id="mask-2" fill="white">
            <use xlink:href="#path-1"></use>
        </mask>
        <use id="Combined-Shape" fill="#000000" fill-rule="nonzero" xlink:href="#path-1"></use>
        <g id="Colors-/-305-Dark-Gray" mask="url(#mask-2)" fill="#455065">
            <rect id="Rectangle" x="0" y="0" width="24" height="24"></rect>
        </g>
    </g>
</svg>