<?xml version="1.0" encoding="UTF-8"?>
<svg width="16px" height="16px" viewBox="0 0 16 16" version="1.1" xmlns="http://www.w3.org/2000/svg" xmlns:xlink="http://www.w3.org/1999/xlink">
    <title>Icons / Documents / 16 / Page</title>
    <defs>
        <path d="M15,0 L15,16 L1,16 L1,0 L15,0 Z M14,1 L2,1 L2,15 L14,15 L14,1 Z M7,12 L7,13 L4,13 L4,12 L7,12 Z M9,7 L9,8 L4,8 L4,7 L9,7 Z M12,5 L12,6 L4,6 L4,5 L12,5 Z M12,3 L12,4 L4,4 L4,3 L12,3 Z" id="path-1"></path>
    </defs>
    <g id="Icons-/-Documents-/-16-/-Page" stroke="none" stroke-width="1" fill="none" fill-rule="evenodd">
        <mask id="mask-2" fill="white">
            <use xlink:href="#path-1"></use>
        </mask>
        <use id="Combined-Shape" fill="#000000" fill-rule="nonzero" xlink:href="#path-1"></use>
        <g id="Colors-/-305-Dark-Gray" mask="url(#mask-2)" fill="#455065">
            <rect id="Rectangle" x="0" y="0" width="16" height="16"></rect>
        </g>
    </g>
</svg>