<?xml version="1.0" encoding="UTF-8"?>
<svg width="24px" height="24px" viewBox="0 0 24 24" version="1.1" xmlns="http://www.w3.org/2000/svg" xmlns:xlink="http://www.w3.org/1999/xlink">
    <!-- Generator: sketchtool 54.1 (76490) - https://sketchapp.com -->
    <title>b6076d68-7eb8-4762-aa80-fed82b2cc086@1.00x</title>
    <desc>Created with sketchtool.</desc>
    <defs>
        <path d="M16.9527618,16.4371115 C15.7832577,15.7390214 15,14.4609805 15,13 C15,10.790861 16.790861,9 19,9 C21.209139,9 23,10.790861 23,13 C23,14.4609266 22.2168002,15.738927 21.0473678,16.4370342 C22.7879341,17.2192193 24,18.9680631 24,21 L23,21 C23,18.790861 21.209139,17 19,17 C18.4672439,17 17.9498386,17.1039322 17.4690482,17.3032978 C17.2270237,17.4036562 16.99561,17.5276869 16.7779684,17.6733868 L16.2216686,16.8424052 C16.4535695,16.6871594 16.6980827,16.5515375 16.9527618,16.4371115 Z M5.42811724,13.4223861 C3.40126438,12.4593241 2,10.3933035 2,8 C2,4.6862915 4.6862915,2 8,2 C11.3137085,2 14,4.6862915 14,8 C14,10.3933035 12.5987356,12.4593241 10.5718828,13.4223861 C13.7284743,14.4934076 16,17.4814322 16,21 L15,21 C15,17.1340068 11.8659932,14 8,14 C4.13400675,14 1,17.1340068 1,21 L0,21 C0,17.4814322 2.27152567,14.4934076 5.42811724,13.4223861 Z M8,13 C10.7614237,13 13,10.7614237 13,8 C13,5.23857625 10.7614237,3 8,3 C5.23857625,3 3,5.23857625 3,8 C3,10.7614237 5.23857625,13 8,13 Z M19,16 C20.6568542,16 22,14.6568542 22,13 C22,11.3431458 20.6568542,10 19,10 C17.3431458,10 16,11.3431458 16,13 C16,14.6568542 17.3431458,16 19,16 Z" id="path-1"></path>
    </defs>
    <g id="Symbols" stroke="none" stroke-width="1" fill="none" fill-rule="evenodd">
        <g id="Icons-/-Video-Call-/-24-/-Participants">
            <mask id="mask-2" fill="white">
                <use xlink:href="#path-1"></use>
            </mask>
            <use id="Combined-Shape" fill="#000000" fill-rule="nonzero" xlink:href="#path-1"></use>
            <g id="Colors-/-Black" mask="url(#mask-2)" fill="#000000">
                <rect id="Rectangle" x="0" y="0" width="24" height="24"></rect>
            </g>
        </g>
    </g>
</svg>