<?xml version="1.0" encoding="UTF-8"?>
<svg width="16px" height="16px" viewBox="0 0 16 16" version="1.1" xmlns="http://www.w3.org/2000/svg" xmlns:xlink="http://www.w3.org/1999/xlink">
    <title>57817007-5cda-4182-b4c6-2803a4a0fb3c@1.00x</title>
    <defs>
        <path d="M8,0 C12.418278,0 16,3.581722 16,8 C16,12.418278 12.418278,16 8,16 C3.581722,16 0,12.418278 0,8 C0,3.581722 3.581722,0 8,0 Z M8,1 C4.13400675,1 1,4.13400675 1,8 C1,11.8659932 4.13400675,15 8,15 C11.8659932,15 15,11.8659932 15,8 C15,4.13400675 11.8659932,1 8,1 Z M7,5 L7,11 L6,11 L6,5 L7,5 Z M10,5 L10,11 L9,11 L9,5 L10,5 Z" id="path-1"></path>
    </defs>
    <g id="Symbols" stroke="none" stroke-width="1" fill="none" fill-rule="evenodd">
        <g id="Icons-/-Audio-and-Video-/-16-/-Pause">
            <mask id="mask-2" fill="white">
                <use xlink:href="#path-1"></use>
            </mask>
            <use id="Combined-Shape" fill="#979797" fill-rule="nonzero" xlink:href="#path-1"></use>
            <g id="Group" mask="url(#mask-2)" fill="#455065">
                <g id="Colors-/-305-Dark-Gray">
                    <rect id="Rectangle" x="0" y="0" width="16" height="16"></rect>
                </g>
            </g>
        </g>
    </g>
</svg>