<svg width="16" height="16" viewBox="0 0 16 16" fill="none" xmlns="http://www.w3.org/2000/svg"><path d="M6.320 0.136 C 4.646 0.304,3.006 1.196,1.938 2.520 C 0.912 3.792,0.386 5.449,0.505 7.034 C 0.627 8.667,1.264 10.068,2.399 11.201 C 3.027 11.828,3.738 12.309,4.487 12.614 C 4.571 12.648,4.640 12.683,4.640 12.692 C 4.639 12.700,4.304 12.815,3.894 12.947 C 3.483 13.079,3.148 13.199,3.147 13.214 C 3.147 13.247,3.433 14.109,3.451 14.127 C 3.466 14.141,6.615 13.121,6.650 13.091 C 6.671 13.072,5.669 9.934,5.626 9.885 C 5.615 9.872,5.397 9.931,5.141 10.014 L 4.675 10.165 4.940 10.978 C 5.085 11.425,5.199 11.797,5.192 11.803 C 5.172 11.823,4.780 11.659,4.476 11.504 C 2.482 10.484,1.299 8.312,1.521 6.076 C 1.695 4.315,2.676 2.778,4.209 1.864 C 5.688 0.982,7.573 0.863,9.176 1.552 C 9.786 1.814,10.328 2.177,10.823 2.653 C 11.961 3.749,12.564 5.254,12.497 6.827 C 12.483 7.175,12.441 7.541,12.413 7.569 C 12.407 7.575,12.244 7.489,12.051 7.377 L 11.700 7.174 9.817 8.257 C 8.781 8.853,7.918 9.352,7.900 9.367 C 7.874 9.387,7.867 9.861,7.867 11.575 L 7.867 13.756 7.940 13.808 C 8.004 13.853,11.491 15.862,11.646 15.944 C 11.700 15.972,11.890 15.868,13.613 14.875 L 15.520 13.774 15.519 11.574 L 15.518 9.373 14.451 8.760 C 13.863 8.423,13.372 8.140,13.358 8.132 C 13.343 8.123,13.354 8.014,13.385 7.865 C 13.473 7.437,13.503 7.100,13.501 6.560 C 13.497 5.547,13.291 4.670,12.840 3.747 C 11.851 1.724,9.850 0.338,7.627 0.135 C 7.274 0.103,6.650 0.103,6.320 0.136 M6.373 4.759 L 6.373 7.147 8.213 7.147 L 10.053 7.147 10.053 6.640 L 10.053 6.133 8.720 6.133 L 7.387 6.133 7.380 4.260 L 7.373 2.387 6.873 2.379 L 6.373 2.372 6.373 4.759 M12.840 8.986 C 13.456 9.341,13.969 9.640,13.980 9.650 C 13.991 9.661,13.857 9.751,13.683 9.850 L 13.365 10.029 12.214 9.364 L 11.063 8.698 11.325 8.546 C 11.469 8.462,11.611 8.379,11.640 8.360 C 11.669 8.341,11.699 8.329,11.707 8.333 C 11.714 8.337,12.224 8.631,12.840 8.986 M11.202 9.934 C 11.824 10.293,12.336 10.596,12.339 10.607 C 12.342 10.618,12.200 10.709,12.022 10.810 C 11.711 10.988,11.697 10.993,11.630 10.953 C 11.591 10.931,11.074 10.634,10.480 10.293 C 9.886 9.952,9.396 9.670,9.392 9.666 C 9.383 9.658,10.031 9.282,10.056 9.281 C 10.064 9.280,10.580 9.574,11.202 9.934 M10.221 11.293 L 11.198 11.853 11.199 13.195 L 11.200 14.537 11.060 14.457 C 10.983 14.413,10.464 14.114,9.907 13.793 L 8.893 13.210 8.886 11.870 L 8.880 10.529 9.061 10.631 C 9.161 10.687,9.683 10.985,10.221 11.293 M14.484 13.207 C 14.470 13.220,13.954 13.523,13.337 13.880 L 12.213 14.529 12.213 13.190 L 12.213 11.852 13.353 11.194 L 14.493 10.537 14.500 11.860 C 14.504 12.605,14.497 13.194,14.484 13.207 " fill="#455065" stroke="none" fill-rule="evenodd"></path></svg>