<svg width="24" height="24" viewBox="0 0 24 24" fill="none" xmlns="http://www.w3.org/2000/svg"><path d="M9.560 0.043 C 6.564 0.327,3.905 1.916,2.235 4.418 C 1.447 5.598,0.899 7.061,0.674 8.580 C 0.603 9.061,0.603 10.626,0.674 11.100 C 0.939 12.875,1.579 14.423,2.612 15.794 C 3.159 16.518,4.051 17.373,4.840 17.929 C 5.505 18.397,6.518 18.900,7.360 19.182 L 7.700 19.295 6.145 19.806 C 5.290 20.087,4.580 20.327,4.567 20.340 C 4.525 20.381,4.844 21.287,4.894 21.269 C 4.919 21.259,5.975 20.914,7.240 20.502 C 8.505 20.090,9.552 19.741,9.566 19.726 C 9.585 19.708,8.298 15.677,8.061 15.012 C 8.049 14.979,7.917 15.007,7.612 15.107 C 7.374 15.186,7.164 15.265,7.144 15.283 C 7.123 15.302,7.313 15.947,7.598 16.821 C 7.868 17.648,8.081 18.332,8.073 18.341 C 8.031 18.382,7.038 18.007,6.540 17.761 C 5.439 17.217,4.462 16.457,3.714 15.564 C 1.019 12.345,0.897 7.839,3.413 4.483 C 3.974 3.735,4.894 2.897,5.760 2.344 C 6.232 2.043,7.051 1.659,7.640 1.463 C 9.836 0.733,12.243 0.890,14.300 1.898 C 15.239 2.358,15.939 2.859,16.680 3.600 C 18.172 5.092,19.052 6.980,19.243 9.100 C 19.312 9.861,19.249 10.913,19.091 11.646 L 19.060 11.793 18.410 11.415 C 17.828 11.077,17.750 11.042,17.670 11.085 C 17.455 11.200,12.365 14.137,12.230 14.224 L 12.080 14.321 12.090 17.571 L 12.100 20.820 14.856 22.410 C 17.031 23.665,17.641 24.000,17.750 24.000 C 17.859 24.000,18.469 23.665,20.644 22.410 L 23.400 20.820 23.400 17.556 L 23.400 14.293 21.687 13.305 L 19.973 12.318 20.045 11.989 C 20.222 11.180,20.259 10.806,20.257 9.820 C 20.255 9.018,20.240 8.775,20.166 8.340 C 19.877 6.646,19.276 5.232,18.275 3.892 C 17.899 3.390,16.893 2.382,16.392 2.008 C 14.405 0.523,11.948 -0.183,9.560 0.043 M9.730 6.830 L 9.740 10.380 12.470 10.390 L 15.200 10.401 15.200 9.900 L 15.200 9.400 12.980 9.400 L 10.760 9.400 10.760 6.340 L 10.760 3.280 10.240 3.280 L 9.720 3.280 9.730 6.830 M19.794 13.366 C 20.908 14.007,21.835 14.544,21.853 14.560 C 21.886 14.589,20.426 15.453,20.344 15.453 C 20.291 15.453,16.240 13.111,16.240 13.080 C 16.240 13.056,17.682 12.210,17.734 12.204 C 17.753 12.202,18.680 12.725,19.794 13.366 M17.251 14.843 C 18.356 15.482,19.275 16.020,19.292 16.037 C 19.310 16.054,18.971 16.271,18.539 16.519 C 17.860 16.910,17.743 16.964,17.667 16.927 C 17.313 16.753,13.669 14.612,13.672 14.580 C 13.678 14.535,15.112 13.688,15.191 13.683 C 15.220 13.681,16.147 14.203,17.251 14.843 M22.350 20.262 C 22.323 20.287,21.445 20.798,20.400 21.398 C 19.355 21.999,18.441 22.525,18.370 22.568 L 18.239 22.647 18.250 20.241 L 18.260 17.835 20.320 16.647 L 22.380 15.460 22.390 17.838 C 22.398 19.709,22.390 20.226,22.350 20.262 M15.220 16.668 L 17.220 17.824 17.230 20.212 C 17.236 21.525,17.229 22.600,17.214 22.600 C 17.200 22.600,16.273 22.073,15.155 21.430 L 13.121 20.260 13.121 17.866 C 13.120 15.966,13.130 15.476,13.170 15.492 C 13.197 15.503,14.120 16.033,15.220 16.668 " fill="#455065" stroke="none" fill-rule="evenodd"></path></svg>