<svg xmlns="http://www.w3.org/2000/svg" width="24px" height="24px" viewBox="0 0 24 24">
    <title>Icons / Misc / 24 / Component</title>
    <path fill="#455065" d="M15 19h3.98c-1.88 2.51-4.8 4-7.98 4-5.51 0-10-4.49-10-10 0-.8.1-1.61.29-2.38l-.97-.24C.11 11.23.01 12.11.01 13c0 6.07 4.93 11 11 11 3.63 0 6.94-1.76 9-4.71V24h1v-6h-6v1Z 
        M7 13c0-1.1-.9-2-2-2s-2 .9-2 2 .9 2 2 2 2-.9 2-2Zm-3 0c0-.55.45-1 1-1s1 .45 1 1-.45 1-1 1-1-.45-1-1Z 
        M13 13c0-1.1-.9-2-2-2s-2 .9-2 2 .9 2 2 2 2-.9 2-2Zm-3 0c0-.55.45-1 1-1s1 .45 1 1-.45 1-1 1-1-.45-1-1Z 
        M19 13c0-1.1-.9-2-2-2s-2 .9-2 2 .9 2 2 2 2-.9 2-2Zm-3 0c0-.55.45-1 1-1s1 .45 1 1-.45 1-1 1-1-.45-1-1Z 
        M11 2C7.94 2 5.08 3.26 3 5.47V1H2v6h6V6H3.86C5.73 4.08 8.28 3 11 3c5.51 0 10 4.49 10 10 0 .8-.1 1.61-.29 2.38l.97.24c.21-.85.31-1.73.31-2.62 0-6.07-4.93-11-11-11Z"/>
</svg>