<?xml version="1.0" encoding="UTF-8"?>
<svg width="16px" height="16px" viewBox="0 0 16 16" version="1.1" xmlns="http://www.w3.org/2000/svg" xmlns:xlink="http://www.w3.org/1999/xlink">
    <!-- Generator: sketchtool 54.1 (76490) - https://sketchapp.com -->
    <title>597bae75-26a8-4176-b2ba-21ace72ad7bd@1.00x</title>
    <desc>Created with sketchtool.</desc>
    <defs>
        <path d="M14.2752285,15.2773159 C13.5688416,15.9846362 12.5075131,16.195868 11.5838717,15.8079724 C6.4354565,13.6564416 2.34058053,9.56322236 0.191834576,4.42106846 C-0.195553106,3.49671209 0.015201313,2.43451318 0.721457164,1.72732413 L2.1070255,0.339924993 C2.55966074,-0.113308331 3.29227391,-0.113308331 3.74440763,0.339423523 L6.07398355,2.66547021 C6.5262544,3.11833866 6.5262544,3.85078095 6.07398355,4.3036494 L5.0695323,5.30942786 L5.22798879,5.52695543 C6.69012722,7.54814997 8.46085613,9.31958594 10.4753119,10.7742471 L10.6901776,10.9311797 L11.6938388,9.92619235 C12.1464741,9.47295903 12.8790872,9.47295903 13.3312209,9.92569088 L15.6607969,12.2517376 C16.1130677,12.704606 16.1130677,13.4370483 15.6607969,13.8899168 L14.2752285,15.2773159 Z M1.11431676,4.03502915 C3.1618727,8.93502505 7.06390819,12.8353976 11.9708034,14.8858638 C12.5189176,15.11618 13.1478181,14.9910678 13.567655,14.5706761 L14.9532234,13.183277 C15.0155922,13.1208258 15.0155922,13.0208286 14.9537249,12.9588788 L12.624149,10.6328321 C12.5621446,10.5707458 12.4634167,10.5707458 12.4014123,10.6328321 L11.0950193,11.9409513 C10.9208003,12.1154005 10.645424,12.1368176 10.4463279,11.9914027 L9.88769276,11.5833802 C7.78883071,10.0677778 5.94226045,8.22047016 4.41873461,6.11441177 L4.00966206,5.55284545 C3.86478506,5.35396132 3.88614312,5.0792325 4.06001707,4.90512881 L5.36641007,3.59700963 C5.42877889,3.5345584 5.42877889,3.43456121 5.36691159,3.37261145 L3.03733567,1.04656477 C2.97533125,0.984478411 2.87660341,0.984478411 2.81459898,1.04656477 L1.42903064,2.4339639 C1.00894649,2.85460313 0.883847581,3.48509962 1.11431676,4.03502915 Z" id="path-1"></path>
    </defs>
    <g id="Symbols" stroke="none" stroke-width="1" fill="none" fill-rule="evenodd">
        <g id="Icons-/-Contact-Interview-/-16-/-Phone">
            <mask id="mask-2" fill="white">
                <use xlink:href="#path-1"></use>
            </mask>
            <use id="Shape" fill="#000000" fill-rule="nonzero" xlink:href="#path-1"></use>
            <g id="Colors-/-Black" mask="url(#mask-2)" fill="#000000">
                <rect id="Rectangle" x="0" y="0" width="16" height="16"></rect>
            </g>
        </g>
    </g>
</svg>