<?xml version="1.0" encoding="UTF-8"?>
<svg width="24px" height="24px" viewBox="0 0 24 24" version="1.1" xmlns="http://www.w3.org/2000/svg" xmlns:xlink="http://www.w3.org/1999/xlink">
    <title>E3876810-4477-40F1-B3E7-84D717577FD2@1x</title>
    <defs>
        <path d="M12,2 L12,12 L22,12 L22,12.5 C22,18.2989899 17.2989899,23 11.5,23 C5.70101013,23 1,18.2989899 1,12.5 C1,6.79607553 5.54814202,2.15442656 11.2157049,2.00377424 L11.5,2 L12,2 Z M11,3.013 L10.6942805,3.03368651 C5.82467806,3.44265378 2,7.52467618 2,12.5 C2,17.7467051 6.25329488,22 11.5,22 C16.4753238,22 20.5573462,18.1753219 20.9663135,13.3057195 L20.9849614,13.0390853 L20.986,13 L11,13 L11,3.013 Z M13.5,1 C18.6562447,1 22.8530394,5.10789389 22.9962236,10.2295213 L23,10.5 L23,11 L13,11 L13,1 L13.5,1 Z M14,2.014 L14,10 L21.985,10 C21.7319793,5.70205766 18.2979423,2.26802066 14,2.014 Z" id="path-1"></path>
    </defs>
    <g id="Symbols" stroke="none" stroke-width="1" fill="none" fill-rule="evenodd">
        <g id="Icons-/-Documents-/-24-/-Pie-Chart">
            <mask id="mask-2" fill="white">
                <use xlink:href="#path-1"></use>
            </mask>
            <use id="Combined-Shape" fill="#979797" fill-rule="nonzero" xlink:href="#path-1"></use>
            <g id="Group" mask="url(#mask-2)" fill="#455065">
                <g id="Colors-/-307-Gray-Dark">
                    <rect id="Rectangle" x="0" y="0" width="24" height="24"></rect>
                </g>
            </g>
        </g>
    </g>
</svg>