<svg width="24" height="24" viewBox="0 0 24 24" fill="none" xmlns="http://www.w3.org/2000/svg"><path d="M1.000 0.500 L 1.000 1.000 0.500 1.000 L 0.000 1.000 0.000 3.000 L 0.000 5.000 0.500 5.000 L 1.000 5.000 1.000 3.000 L 1.000 1.000 3.000 1.000 L 5.000 1.000 5.000 0.500 L 5.000 0.000 3.000 0.000 L 1.000 0.000 1.000 0.500 M7.000 0.500 L 7.000 1.000 9.000 1.000 L 11.000 1.000 11.000 0.500 L 11.000 0.000 9.000 0.000 L 7.000 0.000 7.000 0.500 M13.000 0.500 L 13.000 1.000 15.000 1.000 L 17.000 1.000 17.000 0.500 L 17.000 0.000 15.000 0.000 L 13.000 0.000 13.000 0.500 M19.000 0.500 L 19.000 1.000 21.000 1.000 L 23.000 1.000 23.000 3.000 L 23.000 5.000 23.500 5.000 L 24.000 5.000 24.000 3.000 L 24.000 1.000 23.500 1.000 L 23.000 1.000 23.000 0.500 L 23.000 0.000 21.000 0.000 L 19.000 0.000 19.000 0.500 M0.000 9.000 L 0.000 11.000 0.500 11.000 L 1.000 11.000 1.000 9.000 L 1.000 7.000 0.500 7.000 L 0.000 7.000 0.000 9.000 M23.000 9.000 L 23.000 11.000 23.500 11.000 L 24.000 11.000 24.000 9.000 L 24.000 7.000 23.500 7.000 L 23.000 7.000 23.000 9.000 M7.786 7.924 C 7.121 8.021,6.399 8.326,5.905 8.718 C 5.570 8.985,5.456 9.126,5.507 9.211 C 5.525 9.242,5.702 9.449,5.900 9.672 L 6.260 10.076 6.460 9.882 C 6.745 9.605,7.123 9.376,7.497 9.253 C 7.776 9.162,7.890 9.147,8.340 9.145 C 8.798 9.142,8.888 9.153,9.099 9.237 C 9.440 9.373,9.733 9.675,9.822 9.982 C 9.989 10.554,9.720 11.275,9.079 11.975 C 8.667 12.424,7.140 13.705,5.928 14.617 L 5.560 14.895 5.560 15.447 L 5.560 16.000 8.460 16.000 L 11.360 16.000 11.360 15.380 L 11.360 14.760 9.578 14.760 L 7.797 14.760 8.308 14.353 C 10.153 12.888,11.004 11.876,11.224 10.890 C 11.312 10.492,11.283 9.887,11.157 9.524 C 10.762 8.382,9.324 7.699,7.786 7.924 M15.505 8.330 C 15.387 8.511,14.650 9.648,13.866 10.856 L 12.440 13.051 12.440 13.626 L 12.440 14.200 14.340 14.200 L 16.240 14.200 16.240 15.100 L 16.240 16.000 16.940 16.000 L 17.640 16.000 17.640 15.101 L 17.640 14.202 18.170 14.191 L 18.700 14.180 18.711 13.570 L 18.722 12.960 18.181 12.960 L 17.640 12.960 17.640 10.480 L 17.640 8.000 16.679 8.000 L 15.718 8.000 15.505 8.330 M16.226 12.947 C 16.219 12.955,15.670 12.956,15.008 12.951 L 13.804 12.940 15.012 11.108 L 16.220 9.276 16.230 11.104 C 16.236 12.110,16.234 12.939,16.226 12.947 M0.000 15.000 L 0.000 17.000 0.500 17.000 L 1.000 17.000 1.000 15.000 L 1.000 13.000 0.500 13.000 L 0.000 13.000 0.000 15.000 M23.000 15.000 L 23.000 17.000 23.500 17.000 L 24.000 17.000 24.000 15.000 L 24.000 13.000 23.500 13.000 L 23.000 13.000 23.000 15.000 M0.000 21.000 L 0.000 23.000 0.500 23.000 L 1.000 23.000 1.000 23.500 L 1.000 24.000 3.000 24.000 L 5.000 24.000 5.000 23.500 L 5.000 23.000 3.000 23.000 L 1.000 23.000 1.000 21.000 L 1.000 19.000 0.500 19.000 L 0.000 19.000 0.000 21.000 M23.000 21.000 L 23.000 23.000 21.000 23.000 L 19.000 23.000 19.000 23.500 L 19.000 24.000 21.000 24.000 L 23.000 24.000 23.000 23.500 L 23.000 23.000 23.500 23.000 L 24.000 23.000 24.000 21.000 L 24.000 19.000 23.500 19.000 L 23.000 19.000 23.000 21.000 M7.000 23.500 L 7.000 24.000 9.000 24.000 L 11.000 24.000 11.000 23.500 L 11.000 23.000 9.000 23.000 L 7.000 23.000 7.000 23.500 M13.000 23.500 L 13.000 24.000 15.000 24.000 L 17.000 24.000 17.000 23.500 L 17.000 23.000 15.000 23.000 L 13.000 23.000 13.000 23.500 " fill="#455065" stroke="none" fill-rule="evenodd"></path></svg>