<svg width="16" height="16" viewBox="0 0 16 16" fill="none" xmlns="http://www.w3.org/2000/svg"><path d="M0.987 0.507 L 0.987 1.013 0.493 1.013 L 0.000 1.013 -0.000 2.014 L -0.000 3.015 0.500 3.007 L 1.000 3.000 1.007 2.007 L 1.014 1.014 2.007 1.007 L 3.000 1.000 3.007 0.500 L 3.015 0.000 2.001 0.000 L 0.987 0.000 0.987 0.507 M5.013 0.493 L 5.013 0.987 6.000 0.987 L 6.987 0.987 6.987 0.493 L 6.987 0.000 6.000 0.000 L 5.013 0.000 5.013 0.493 M9.013 0.493 L 9.013 0.987 10.000 0.987 L 10.987 0.987 10.987 0.493 L 10.987 0.000 10.000 0.000 L 9.013 0.000 9.013 0.493 M13.013 0.493 L 13.013 0.987 14.000 0.987 L 14.987 0.987 14.987 0.493 L 14.987 0.000 14.000 0.000 L 13.013 0.000 13.013 0.493 M15.013 2.000 L 15.013 2.987 15.507 2.987 L 16.000 2.987 16.000 2.000 L 16.000 1.013 15.507 1.013 L 15.013 1.013 15.013 2.000 M9.613 4.937 C 8.968 5.019,8.412 5.332,8.046 5.821 C 7.796 6.155,7.634 6.489,7.520 6.907 C 7.416 7.286,7.400 7.445,7.401 8.053 C 7.403 8.566,7.411 8.692,7.461 8.922 C 7.674 9.909,8.086 10.534,8.731 10.851 C 9.070 11.018,9.288 11.069,9.733 11.085 C 10.533 11.115,11.067 10.918,11.535 10.420 C 11.911 10.020,12.074 9.553,12.046 8.961 C 12.001 8.038,11.456 7.402,10.553 7.215 C 10.267 7.156,9.845 7.161,9.594 7.225 C 9.231 7.318,8.845 7.549,8.593 7.825 C 8.518 7.907,8.450 7.973,8.442 7.973 C 8.384 7.973,8.469 7.262,8.557 7.007 C 8.768 6.399,9.215 5.961,9.718 5.869 C 10.204 5.780,10.719 5.914,11.107 6.230 C 11.189 6.297,11.260 6.348,11.265 6.343 C 11.305 6.298,11.714 5.613,11.717 5.586 C 11.722 5.534,11.404 5.289,11.191 5.182 C 10.731 4.950,10.182 4.865,9.613 4.937 M0.000 6.000 L 0.000 6.987 0.493 6.987 L 0.987 6.987 0.987 6.000 L 0.987 5.013 0.493 5.013 L 0.000 5.013 0.000 6.000 M4.575 5.883 L 3.723 6.747 4.015 7.047 C 4.175 7.212,4.314 7.350,4.323 7.354 C 4.332 7.359,4.557 7.138,4.823 6.865 L 5.307 6.367 5.307 8.677 L 5.307 10.987 5.840 10.987 L 6.373 10.987 6.373 8.000 L 6.373 5.013 5.900 5.017 L 5.427 5.020 4.575 5.883 M15.013 6.000 L 15.013 6.987 15.507 6.987 L 16.000 6.987 16.000 6.000 L 16.000 5.013 15.507 5.013 L 15.013 5.013 15.013 6.000 M10.095 8.082 C 10.474 8.151,10.818 8.408,10.933 8.707 C 11.019 8.933,11.022 9.293,10.938 9.478 C 10.710 9.985,10.223 10.231,9.592 10.159 C 9.359 10.133,9.149 10.049,8.980 9.915 C 8.752 9.734,8.515 9.261,8.465 8.888 C 8.448 8.762,8.451 8.755,8.574 8.618 C 8.969 8.178,9.534 7.980,10.095 8.082 M0.000 10.000 L 0.000 10.987 0.493 10.987 L 0.987 10.987 0.987 10.000 L 0.987 9.013 0.493 9.013 L 0.000 9.013 0.000 10.000 M15.013 10.000 L 15.013 10.987 15.507 10.987 L 16.000 10.987 16.000 10.000 L 16.000 9.013 15.507 9.013 L 15.013 9.013 15.013 10.000 M0.000 14.000 L 0.000 14.987 0.493 14.987 L 0.987 14.987 0.987 14.000 L 0.987 13.013 0.493 13.013 L 0.000 13.013 0.000 14.000 M15.013 14.000 L 15.013 14.987 15.507 14.987 L 16.000 14.987 16.000 14.000 L 16.000 13.013 15.507 13.013 L 15.013 13.013 15.013 14.000 M1.013 15.507 L 1.013 16.000 2.000 16.000 L 2.987 16.000 2.987 15.507 L 2.987 15.013 2.000 15.013 L 1.013 15.013 1.013 15.507 M5.013 15.507 L 5.013 16.000 6.000 16.000 L 6.987 16.000 6.987 15.507 L 6.987 15.013 6.000 15.013 L 5.013 15.013 5.013 15.507 M9.013 15.507 L 9.013 16.000 10.000 16.000 L 10.987 16.000 10.987 15.507 L 10.987 15.013 10.000 15.013 L 9.013 15.013 9.013 15.507 M13.013 15.507 L 13.013 16.000 14.000 16.000 L 14.987 16.000 14.987 15.507 L 14.987 15.013 14.000 15.013 L 13.013 15.013 13.013 15.507 " fill="#455065" stroke="none" fill-rule="evenodd"></path></svg>