<?xml version="1.0" encoding="UTF-8"?>
<svg width="16px" height="16px" viewBox="0 0 16 16" version="1.1" xmlns="http://www.w3.org/2000/svg" xmlns:xlink="http://www.w3.org/1999/xlink">
    <title>136ACBB8-EB12-4825-8138-A2FBAF3D8513@1x</title>
    <defs>
        <path d="M4,9 C5.65685425,9 7,10.3431458 7,12 C7,13.6568542 5.65685425,15 4,15 C2.34314575,15 1,13.6568542 1,12 C1,10.3431458 2.34314575,9 4,9 Z M12,9 C13.6568542,9 15,10.3431458 15,12 C15,13.6568542 13.6568542,15 12,15 C10.3431458,15 9,13.6568542 9,12 C9,10.3431458 10.3431458,9 12,9 Z M4,10 C2.8954305,10 2,10.8954305 2,12 C2,13.1045695 2.8954305,14 4,14 C5.1045695,14 6,13.1045695 6,12 C6,10.8954305 5.1045695,10 4,10 Z M12,10 C10.8954305,10 10,10.8954305 10,12 C10,13.1045695 10.8954305,14 12,14 C13.1045695,14 14,13.1045695 14,12 C14,10.8954305 13.1045695,10 12,10 Z M4,1 C5.65685425,1 7,2.34314575 7,4 C7,5.65685425 5.65685425,7 4,7 C2.34314575,7 1,5.65685425 1,4 C1,2.34314575 2.34314575,1 4,1 Z M12,1 C13.6568542,1 15,2.34314575 15,4 C15,5.65685425 13.6568542,7 12,7 C10.3431458,7 9,5.65685425 9,4 C9,2.34314575 10.3431458,1 12,1 Z M4,2 C2.8954305,2 2,2.8954305 2,4 C2,5.1045695 2.8954305,6 4,6 C5.1045695,6 6,5.1045695 6,4 C6,2.8954305 5.1045695,2 4,2 Z M12,2 C10.8954305,2 10,2.8954305 10,4 C10,5.1045695 10.8954305,6 12,6 C13.1045695,6 14,5.1045695 14,4 C14,2.8954305 13.1045695,2 12,2 Z" id="path-1"></path>
    </defs>
    <g id="Symbols" stroke="none" stroke-width="1" fill="none" fill-rule="evenodd">
        <g id="Icons-/-Misc-/-16-/-Pod">
            <mask id="mask-2" fill="white">
                <use xlink:href="#path-1"></use>
            </mask>
            <use id="Combined-Shape" fill="#262D3D" fill-rule="nonzero" xlink:href="#path-1"></use>
            <g id="Group" mask="url(#mask-2)" fill="#455065">
                <g id="Colors-/-307-Gray-Dark">
                    <rect id="Rectangle" x="0" y="0" width="16" height="16"></rect>
                </g>
            </g>
        </g>
    </g>
</svg>