<?xml version="1.0" encoding="UTF-8"?>
<svg width="24px" height="24px" viewBox="0 0 24 24" version="1.1" xmlns="http://www.w3.org/2000/svg" xmlns:xlink="http://www.w3.org/1999/xlink">
    <!-- Generator: sketchtool 55.2 (78181) - https://sketchapp.com -->
    <title>37d1a573-a948-459c-b23d-25465de907a5@1.00x</title>
    <desc>Created with sketchtool.</desc>
    <defs>
        <path d="M1,1 L10,1 L10,10 L1,10 L1,1 Z M2,2 L2,9 L9,9 L9,2 L2,2 Z M14,1 L23,1 L23,10 L14,10 L14,1 Z M15,2 L15,9 L22,9 L22,2 L15,2 Z M1,14 L10,14 L10,23 L1,23 L1,14 Z M2,22 L9,22 L9,15 L2,15 L2,22 Z M14,14 L23,14 L23,23 L14,23 L14,14 Z M15,22 L22,22 L22,15 L15,15 L15,22 Z" id="path-1"></path>
    </defs>
    <g id="Symbols" stroke="none" stroke-width="1" fill="none" fill-rule="evenodd">
        <g id="Icons-/-Resume-Builder-/-24-/-Portfolio-Designer">
            <mask id="mask-2" fill="white">
                <use xlink:href="#path-1"></use>
            </mask>
            <use id="Combined-Shape" fill="#000000" fill-rule="nonzero" xlink:href="#path-1"></use>
            <g id="Colors-/-Black" mask="url(#mask-2)" fill="#000000">
                <rect id="Rectangle" x="0" y="0" width="24" height="24"></rect>
            </g>
        </g>
    </g>
</svg>