<svg width="16" height="16" viewBox="0 0 16 16" fill="none" xmlns="http://www.w3.org/2000/svg"><path d="M0.000 8.507 L 0.000 15.013 8.000 15.013 L 16.000 15.013 16.000 8.507 L 16.000 2.000 8.000 2.000 L 0.000 2.000 0.000 8.507 M14.987 8.507 L 14.987 14.000 12.493 14.000 L 10.000 14.000 10.000 13.860 C 9.998 13.408,9.807 12.645,9.601 12.267 L 9.550 12.173 11.455 10.266 L 13.360 8.360 13.000 8.000 L 12.640 7.640 10.802 9.478 L 8.964 11.316 8.769 11.125 C 8.531 10.893,8.329 10.739,8.019 10.556 L 7.785 10.417 7.926 10.296 C 8.933 9.431,9.265 8.091,8.775 6.866 C 8.459 6.078,7.775 5.438,6.947 5.155 C 6.387 4.964,5.612 4.965,5.049 5.157 C 3.821 5.575,3.003 6.714,3.005 8.000 C 3.007 8.902,3.397 9.733,4.091 10.312 L 4.222 10.421 4.104 10.481 C 3.664 10.706,3.120 11.179,2.773 11.640 C 2.594 11.878,2.272 12.506,2.191 12.774 C 2.099 13.081,2.028 13.456,2.010 13.732 L 1.992 14.000 1.503 14.000 L 1.013 14.000 1.013 8.507 L 1.013 3.013 8.000 3.013 L 14.987 3.013 14.987 8.507 M6.504 6.065 C 6.728 6.126,7.063 6.298,7.249 6.447 C 7.703 6.812,8.000 7.427,8.000 8.000 C 8.000 8.780,7.484 9.553,6.767 9.844 C 5.762 10.253,4.659 9.823,4.199 8.840 C 4.048 8.519,4.014 8.364,4.014 8.000 C 4.014 7.636,4.048 7.481,4.199 7.160 C 4.478 6.565,5.025 6.143,5.669 6.026 C 5.847 5.994,6.327 6.016,6.504 6.065 M6.537 11.052 C 6.929 11.121,7.338 11.289,7.693 11.528 C 7.916 11.678,8.295 12.054,8.450 12.278 C 8.782 12.760,8.987 13.357,8.987 13.843 L 8.987 14.000 6.000 14.000 L 3.013 14.000 3.013 13.843 C 3.013 13.757,3.031 13.586,3.052 13.463 C 3.262 12.268,4.254 11.270,5.449 11.053 C 5.711 11.005,6.266 11.005,6.537 11.052 " fill="#455065" stroke="none" fill-rule="evenodd"></path></svg>