<svg width="24" height="24" viewBox="0 0 24 24" fill="none" xmlns="http://www.w3.org/2000/svg"><path d="M0.000 12.000 L 0.000 21.000 12.000 21.000 L 24.000 21.000 24.000 12.000 L 24.000 3.000 12.000 3.000 L 0.000 3.000 0.000 12.000 M23.000 12.000 L 23.000 20.000 18.006 20.000 L 13.012 20.000 12.987 19.647 C 12.957 19.222,12.878 18.832,12.734 18.397 L 12.627 18.073 15.494 15.206 L 18.361 12.339 18.010 11.990 L 17.659 11.641 14.900 14.402 L 12.140 17.163 12.000 16.992 C 11.515 16.395,10.924 15.893,10.378 15.613 C 10.214 15.529,10.080 15.450,10.080 15.437 C 10.080 15.424,10.174 15.353,10.290 15.278 C 10.759 14.977,11.324 14.312,11.598 13.740 C 12.451 11.962,11.881 9.807,10.269 8.712 C 9.913 8.471,9.341 8.214,8.938 8.113 C 8.429 7.987,7.571 7.987,7.062 8.113 C 6.659 8.214,6.087 8.471,5.731 8.712 C 4.117 9.808,3.548 11.961,4.402 13.740 C 4.676 14.312,5.241 14.977,5.710 15.278 C 5.825 15.353,5.920 15.425,5.920 15.438 C 5.920 15.452,5.817 15.514,5.690 15.576 C 4.729 16.047,3.836 17.008,3.393 18.050 C 3.219 18.460,3.046 19.177,3.015 19.621 L 2.988 20.000 1.994 20.000 L 1.000 20.000 1.000 12.000 L 1.000 4.000 12.000 4.000 L 23.000 4.000 23.000 12.000 M8.756 9.097 C 9.093 9.189,9.595 9.447,9.873 9.671 C 10.554 10.219,11.000 11.140,11.000 12.000 C 11.000 12.781,10.641 13.603,10.052 14.173 C 8.969 15.220,7.223 15.275,6.080 14.297 C 5.624 13.907,5.214 13.247,5.075 12.680 C 5.005 12.397,5.005 11.603,5.075 11.320 C 5.157 10.985,5.444 10.408,5.664 10.135 C 6.120 9.569,6.792 9.169,7.503 9.040 C 7.770 8.991,8.491 9.024,8.756 9.097 M8.949 16.118 C 10.628 16.528,11.827 17.940,11.983 19.690 L 12.011 20.000 8.000 20.000 L 3.990 20.000 4.018 19.671 C 4.102 18.711,4.499 17.858,5.179 17.179 C 5.799 16.558,6.545 16.180,7.423 16.041 C 7.779 15.985,8.568 16.025,8.949 16.118 " fill="#455065" stroke="none" fill-rule="evenodd"></path></svg>