<svg fill="none" xmlns="http://www.w3.org/2000/svg" viewBox="0 0 24 24">
  <path fill-rule="evenodd" clip-rule="evenodd" d="M.0786133 0H4.06551v1H1.07534v3H.0786133V0ZM19.0164 0h3.9869v4h-.9968V1h-2.9901V0ZM1.07534 19H.0786133v4H4.06551v-1H1.07534v-3Zm20.93116 3v-3h.9968v4h-3.9869v-1h2.9901ZM1.16927 11.5c.10354.1534.25673.3691.46031.6271.42674.5409 1.07251 1.2643 1.94381 1.9877C5.31396 15.56 7.94631 17 11.5409 17c3.5947 0 6.227-1.44 7.9676-2.8852.8713-.7234 1.517-1.4468 1.9438-1.9877.2036-.258.3568-.4737.4603-.6271-.1035-.1534-.2567-.3691-.4603-.6271-.4268-.5409-1.0725-1.26425-1.9438-1.9877C17.7679 7.43999 15.1356 6 11.5409 6 7.94631 6 5.31396 7.43999 3.57339 8.8852c-.8713.72345-1.51707 1.4468-1.94381 1.9877-.20358.258-.35677.4737-.46031.6271Zm21.33563 0c.4305-.2519.4304-.2522.4302-.2524l-.0003-.0006-.001-.0016-.0028-.0049-.0096-.0161c-.0082-.0135-.0198-.0326-.0349-.0568-.0302-.0484-.0743-.1176-.1326-.2045-.1164-.1737-.2895-.4186-.5201-.711-.461-.58414-1.1546-1.36075-2.0899-2.1373C18.2714 6.56001 15.4217 5 11.5409 5 7.66012 5 4.81048 6.56001 2.93791 8.1148c-.93525.77655-1.62883 1.55316-2.089805 2.1373-.230683.2924-.403713.5373-.520173.711-.058248.0869-.102398.1561-.132583.2045-.015095.0242-.026703.0433-.03484.0568l-.009609.0161-.002857.0049-.000943.0016-.00035.0006c-.000141.0002-.000269.0005.430206.2524l-.430475-.2519L0 11.5l.146481.2519.430475-.2519c-.430475.2519-.430347.2522-.430206.2524l.00035.0006.000943.0016.002857.0049.009609.0161c.008137.0135.019745.0326.03484.0568.030185.0484.074335.1176.132583.2045.11646.1737.28949.4186.520173.711.460975.5841 1.154555 1.3607 2.089805 2.1373C4.81048 16.44 7.66012 18 11.5409 18c3.8808 0 6.7305-1.56 8.603-3.1148.9353-.7766 1.6289-1.5532 2.0899-2.1373.2306-.2924.4037-.5373.5201-.711.0583-.0869.1024-.1561.1326-.2045.0151-.0242.0267-.0433.0349-.0568l.0096-.0161.0028-.0049.001-.0016.0003-.0006c.0002-.0002.0003-.0005-.4302-.2524Zm0 0 .4305.2519.1465-.2519-.1465-.2519-.4305.2519ZM11.5409 8c-1.92664 0-3.48851 1.567-3.48851 3.5S9.61426 15 11.5409 15c1.9267 0 3.4886-1.567 3.4886-3.5S13.4676 8 11.5409 8Zm-4.48524 3.5c0-2.48528 2.00813-4.5 4.48524-4.5 2.4772 0 4.4853 2.01472 4.4853 4.5 0 2.4853-2.0081 4.5-4.4853 4.5-2.47711 0-4.48524-2.0147-4.48524-4.5Z" fill="#455065"/>
</svg>
