
<?xml version="1.0" encoding="UTF-8"?>
<svg width="24px" height="24px" viewBox="0 0 24 24" version="1.1" xmlns="http://www.w3.org/2000/svg" xmlns:xlink="http://www.w3.org/1999/xlink">
    <!-- Generator: sketchtool 64 (101010) - https://sketch.com -->
    <title>1416420e-3f87-471a-aef6-3ca74fa17da4@1.00x</title>
    <desc>Created with sketchtool.</desc>
    <defs>
        <path d="M18.9514157,7.17092376 C18.9834994,7.44281681 19,7.71948144 19,8 C19,10.8847806 17.2549683,13.3619872 14.7629076,14.433617 C18.2975844,15.5709974 20.8776795,18.8365659 20.9957722,22.7214737 L21,23 L20,23 C20,18.581722 16.418278,15 12,15 C11.6843842,15 11.3730372,15.0182769 11.0669597,15.0538301 L12.1236797,13.997 L12.2249383,13.9958615 C15.3934402,13.8790823 17.9343706,11.30539 17.9987489,8.12376519 L18.9514157,7.17092376 Z M4.05371426,22.0679578 C4.02761798,22.2928667 4.01084985,22.5206199 4.00380682,22.7508207 L4,23 L3.12167966,23 L4.05371426,22.0679578 Z M21.5,1.79289322 L22.2071068,2.5 L2.5,22.2071068 L1.79289322,21.5 L21.5,1.79289322 Z M12,1 C14.4136194,1 16.5419279,2.22156148 17.8004048,4.08016392 L17.0777345,4.80219063 C16.0151254,3.11843576 14.138175,2 12,2 C8.6862915,2 6,4.6862915 6,8 C6,10.1383405 7.11860886,12.0154159 8.80258152,13.0779811 L8.08086116,13.7999089 C6.22184874,12.5424283 5,10.4139032 5,8 C5,4.13400675 8.13400675,1 12,1 Z" id="path-1"></path>
    </defs>
    <g id="Symbols" stroke="none" stroke-width="1" fill="none" fill-rule="evenodd">
        <g id="Icons-/-People-/-24-/-Removed-User">
            <mask id="mask-2" fill="white">
                <use xlink:href="#path-1"></use>
            </mask>
            <use id="Combined-Shape" fill="#000000" fill-rule="nonzero" xlink:href="#path-1"></use>
            <g id="Colors-/-305-Dark-Gray" mask="url(#mask-2)" fill="#455065">
                <rect id="Rectangle" x="0" y="0" width="24" height="24"></rect>
            </g>
        </g>
    </g>
</svg>
