<svg width="16" height="16" viewBox="0 0 16 16" fill="none" xmlns="http://www.w3.org/2000/svg">
<g id="Size=16">
<path id="Combined Shape" fill-rule="evenodd" clip-rule="evenodd" d="M16 0H3V16H16V0ZM4 15V1H15V15H4ZM0 2H1H2V3H1V13H2V14H1H0V13V3V2ZM6 10.5C6 9.15373 6.7601 7.98499 7.87457 7.39953C7.33924 6.94101 7 6.26012 7 5.5C7 4.11929 8.11929 3 9.5 3C10.8807 3 12 4.11929 12 5.5C12 6.26012 11.6608 6.94101 11.1254 7.39953C12.2399 7.98499 13 9.15373 13 10.5H12C12 9.11929 10.8807 8 9.5 8C8.11929 8 7 9.11929 7 10.5H6ZM8 5.5C8 6.32843 8.67157 7 9.5 7C10.3284 7 11 6.32843 11 5.5C11 4.67157 10.3284 4 9.5 4C8.67157 4 8 4.67157 8 5.5ZM13 13V12H6V13H13Z" fill="#455065"/>
</g>
</svg>
