<svg width="24" height="24" viewBox="0 0 24 24" fill="none" xmlns="http://www.w3.org/2000/svg">
<g id="Size=24">
<path id="Combined Shape" fill-rule="evenodd" clip-rule="evenodd" d="M23 1H5V23H23V1ZM6 22V2H22V22H6ZM1 3H2H4V4H2V20H4V21H2H1V20V4V3ZM17 8C17 8.99108 16.5194 9.86992 15.7786 10.4162C17.0952 11.0709 18 12.4298 18 14H17C17 12.3431 15.6569 11 14 11C12.3431 11 11 12.3431 11 14H10C10 12.4298 10.9048 11.0709 12.2214 10.4162C11.4806 9.86992 11 8.99108 11 8C11 6.34315 12.3431 5 14 5C15.6569 5 17 6.34315 17 8ZM12 8C12 9.10457 12.8954 10 14 10C15.1046 10 16 9.10457 16 8C16 6.89543 15.1046 6 14 6C12.8954 6 12 6.89543 12 8ZM10 17V16H18V17H10ZM14 18V19H10V18H14Z" fill="#455065"/>
</g>
</svg>
