<svg width="24" height="24" viewBox="0 0 24 24" fill="none" xmlns="http://www.w3.org/2000/svg">
<g id="Size=24">
<path id="Combined-Shape" d="M7 4C9.20914 4 11 5.79086 11 8L10.999 8.052L10.9972 8.37123C10.9173 11.9956 9.3139 15.6855 6.20743 19.437L5.88071 19.8253L5.12054 19.1755C7.50545 16.3853 9.01185 13.6595 9.64922 10.9964C8.94331 11.6213 8.01588 12 7 12C4.79086 12 3 10.2091 3 8C3 5.79086 4.79086 4 7 4ZM7 5C5.34315 5 4 6.34315 4 8C4 9.65685 5.34315 11 7 11C8.65685 11 10 9.65685 10 8C10 6.34315 8.65685 5 7 5ZM17 4C19.2091 4 21 5.79086 21 8L20.999 8.052L20.9972 8.37123C20.9173 11.9956 19.3139 15.6855 16.2074 19.437L15.8807 19.8253L15.1205 19.1755C17.5055 16.3853 19.0119 13.6595 19.6492 10.9964C18.9433 11.6213 18.0159 12 17 12C14.7909 12 13 10.2091 13 8C13 5.79086 14.7909 4 17 4ZM17 5C15.3431 5 14 6.34315 14 8C14 9.65685 15.3431 11 17 11C18.6569 11 20 9.65685 20 8C20 6.34315 18.6569 5 17 5Z" fill="#455065"/>
</g>
</svg>
