<svg width="16" height="16" viewBox="0 0 16 16" fill="none" xmlns="http://www.w3.org/2000/svg">
<g id="Size=16">
<path id="Combined-Shape" d="M4.5 3C5.88071 3 7 4.11929 7 5.5C7 5.55763 6.99805 5.6148 6.99421 5.67146L6.99723 5.50081C6.9934 7.8559 6.03581 10.1943 4.14386 12.5093L3.88008 12.8249L3.11992 12.1751C4.40261 10.6744 5.25315 9.18529 5.67812 7.7054C5.32677 7.89354 4.92582 8 4.5 8C3.11929 8 2 6.88071 2 5.5C2 4.11929 3.11929 3 4.5 3ZM4.5 4C3.67157 4 3 4.67157 3 5.5C3 6.32843 3.67157 7 4.5 7C5.28782 7 5.93378 6.39265 5.99522 5.62064L5.99723 5.49919L6 5.499L5.99313 5.35554C5.92045 4.59489 5.2797 4 4.5 4ZM11.5 3C12.8807 3 14 4.11929 14 5.5C14 5.55763 13.998 5.6148 13.9942 5.67146L13.9972 5.50081C13.9934 7.8559 13.0358 10.1943 11.1439 12.5093L10.8801 12.8249L10.1199 12.1751C11.4026 10.6744 12.2531 9.18529 12.6781 7.7054C12.3268 7.89354 11.9258 8 11.5 8C10.1193 8 9 6.88071 9 5.5C9 4.11929 10.1193 3 11.5 3ZM11.5 4C10.6716 4 10 4.67157 10 5.5C10 6.32843 10.6716 7 11.5 7C12.2878 7 12.9338 6.39265 12.9952 5.62064L12.9972 5.49919L13 5.499L12.9931 5.35554C12.9204 4.59489 12.2797 4 11.5 4Z" fill="#455065"/>
</g>
</svg>
