<svg width="24" height="24" viewBox="0 0 24 24" fill="none" xmlns="http://www.w3.org/2000/svg"><path d="M7.200 0.044 C 4.467 0.307,2.006 2.031,0.800 4.529 C -0.266 6.735,-0.265 9.267,0.803 11.480 C 1.242 12.389,1.816 13.158,2.603 13.892 L 2.980 14.244 3.000 19.118 L 3.020 23.992 5.510 22.498 L 8.000 21.004 10.490 22.498 L 12.980 23.992 13.000 19.118 L 13.020 14.244 13.397 13.892 C 15.079 12.323,15.999 10.238,15.999 8.000 C 15.999 4.917,14.217 2.108,11.412 0.773 C 10.124 0.159,8.651 -0.096,7.200 0.044 M8.686 1.042 C 10.238 1.199,11.639 1.834,12.793 2.902 C 13.782 3.817,14.558 5.192,14.841 6.529 C 15.093 7.723,15.019 9.072,14.639 10.211 C 14.054 11.963,12.783 13.427,11.125 14.258 C 7.887 15.881,3.938 14.752,2.039 11.660 C 0.538 9.217,0.688 6.083,2.416 3.787 C 3.877 1.846,6.272 0.797,8.686 1.042 M20.000 15.500 L 20.000 17.000 18.500 17.000 L 17.000 17.000 17.000 17.500 L 17.000 18.000 18.500 18.000 L 20.000 18.000 20.000 19.500 L 20.000 21.000 20.500 21.000 L 21.000 21.000 21.000 19.500 L 21.000 18.000 22.500 18.000 L 24.000 18.000 24.000 17.500 L 24.000 17.000 22.500 17.000 L 21.000 17.000 21.000 15.500 L 21.000 14.000 20.500 14.000 L 20.000 14.000 20.000 15.500 M4.525 15.198 C 5.612 15.722,6.814 15.999,8.000 15.999 C 9.186 15.999,10.388 15.722,11.475 15.198 C 11.747 15.067,11.976 14.960,11.985 14.960 C 11.993 14.960,12.000 16.597,12.000 18.598 L 12.000 22.236 10.000 21.036 L 8.000 19.836 6.000 21.036 L 4.000 22.236 4.000 18.598 C 4.000 16.597,4.007 14.960,4.015 14.960 C 4.024 14.960,4.253 15.067,4.525 15.198 " fill="#455065" stroke="none" fill-rule="evenodd"></path></svg>