<svg width="16" height="16" viewBox="0 0 16 16" fill="none" xmlns="http://www.w3.org/2000/svg"><path d="M4.467 0.031 C 3.128 0.166,1.823 0.905,1.014 1.987 C 0.676 2.438,0.462 2.840,0.281 3.360 C -0.350 5.173,0.108 7.173,1.465 8.529 C 1.607 8.671,1.785 8.834,1.861 8.892 L 2.000 8.998 2.000 12.499 L 2.000 16.000 3.486 15.009 C 4.304 14.464,4.985 14.018,5.000 14.018 C 5.015 14.018,5.696 14.464,6.514 15.009 L 8.000 16.000 8.000 12.499 L 8.000 8.998 8.139 8.892 C 8.215 8.834,8.393 8.671,8.535 8.529 C 9.472 7.593,9.999 6.321,10.000 4.995 C 10.000 4.121,9.739 3.177,9.293 2.440 C 8.276 0.759,6.422 -0.166,4.467 0.031 M5.842 1.089 C 6.193 1.171,6.465 1.268,6.787 1.429 C 7.878 1.972,8.654 2.983,8.924 4.213 C 8.995 4.539,8.995 5.461,8.924 5.787 C 8.638 7.092,7.775 8.157,6.588 8.669 C 6.069 8.893,5.579 8.993,5.000 8.993 C 3.904 8.993,2.926 8.584,2.158 7.804 C 1.613 7.251,1.248 6.570,1.076 5.787 C 1.005 5.461,1.005 4.539,1.076 4.213 C 1.326 3.072,2.012 2.117,2.997 1.540 C 3.388 1.311,3.953 1.112,4.413 1.041 C 4.692 0.998,5.580 1.028,5.842 1.089 M12.987 10.013 L 12.987 11.013 11.987 11.013 L 10.987 11.013 10.987 11.507 L 10.987 12.000 11.987 12.000 L 12.987 12.000 12.987 13.000 L 12.987 14.000 13.493 14.000 L 14.000 14.000 14.000 13.000 L 14.000 12.000 15.000 12.000 L 16.000 12.000 16.000 11.507 L 16.000 11.013 15.000 11.013 L 14.000 11.013 14.000 10.013 L 14.000 9.013 13.493 9.013 L 12.987 9.013 12.987 10.013 M3.373 9.723 C 4.423 10.090,5.577 10.090,6.627 9.723 C 6.773 9.672,6.914 9.622,6.940 9.612 C 6.984 9.595,6.987 9.713,6.987 11.850 C 6.987 13.091,6.981 14.107,6.973 14.107 C 6.966 14.107,6.525 13.817,5.993 13.462 C 5.462 13.108,5.015 12.818,5.000 12.818 C 4.985 12.818,4.538 13.108,4.007 13.462 C 3.475 13.817,3.034 14.107,3.027 14.107 C 3.019 14.107,3.013 13.091,3.013 11.850 C 3.013 9.713,3.016 9.595,3.060 9.612 C 3.086 9.622,3.227 9.672,3.373 9.723 " fill="#455065" stroke="none" fill-rule="evenodd"></path></svg>