<?xml version="1.0" encoding="UTF-8"?>
<svg width="24px" height="24px" viewBox="0 0 24 24" version="1.1" xmlns="http://www.w3.org/2000/svg" xmlns:xlink="http://www.w3.org/1999/xlink">
    <!-- Generator: sketchtool 54.1 (76490) - https://sketchapp.com -->
    <title>30e551d1-46fe-481c-bef6-ca1dbcaeccf4@1.00x</title>
    <desc>Created with sketchtool.</desc>
    <defs>
        <path d="M13,21.4999981 L11,21.499998 L11,24 L10,24 L10,21.499687 C7.27287895,21.4746279 4.78339291,19.984544 3.55662234,17.6311184 L3.32550278,17.1877408 L4.2122581,16.7255017 L4.44337766,17.1688793 C5.49611355,19.1884383 7.64175657,20.4745575 9.99999999,20.4996266 L10,12.5 L8.6875,12.5 C7.31593463,12.5 5.99938688,11.9764815 5.02667109,11.0426745 C4.04995126,10.1050236 3.5,8.83043183 3.5,7.5 C3.5,4.73390796 5.82698634,2.50000185 8.6875,2.50000185 L10,2.50000188 L10,0 L11,0 L11,2.5000019 L13,2.50000195 L13,0 L14,0 L14,2.50031295 C16.7271211,2.52537213 19.2166071,4.01545601 20.4433777,6.36888155 L20.6744972,6.81225921 L19.7877419,7.27449833 L19.5566223,6.83112066 C18.5038864,4.81156168 16.3582434,3.52544247 14,3.50037338 L14,11.5 L15.3125,11.5 C18.173014,11.5 20.5,13.7339064 20.5,16.5 C20.5,19.266092 18.1730137,21.4999982 15.3125,21.4999982 L14,21.4999981 L14,24 L13,24 L13,21.4999981 Z M13,11.5 L13,3.50000185 L11,3.50000185 L11,11.5 L13,11.5 Z M13,20.4999982 L13,12.5 L11,12.5 L11,20.4999982 L13,20.4999982 Z M14,20.4999982 L15.3125,20.4999982 C17.6296556,20.4999982 19.5,18.7044681 19.5,16.5 C19.5,14.2955303 17.6296558,12.5 15.3125,12.5 L14,12.5 L14,20.4999982 Z M10,3.50000185 L8.6875,3.50000185 C6.37034443,3.50000185 4.5,5.29553187 4.5,7.5 C4.5,8.55651769 4.93776894,9.5711107 5.71920284,10.3212871 C6.50464059,11.0753072 7.57266078,11.5 8.6875,11.5 L10,11.5 L10,3.50000185 Z" id="path-1"></path>
    </defs>
    <g id="Symbols" stroke="none" stroke-width="1" fill="none" fill-rule="evenodd">
        <g id="Icons-/-Notifications-/-24-/-Referral-Bonus">
            <mask id="mask-2" fill="white">
                <use xlink:href="#path-1"></use>
            </mask>
            <use id="Combined-Shape" fill="#000000" fill-rule="nonzero" xlink:href="#path-1"></use>
            <g id="Colors-/-Black" mask="url(#mask-2)" fill="#000000">
                <rect id="Rectangle" x="0" y="0" width="24" height="24"></rect>
            </g>
        </g>
    </g>
</svg>