<?xml version="1.0" encoding="UTF-8"?>
<svg width="24px" height="24px" viewBox="0 0 24 24" version="1.1" xmlns="http://www.w3.org/2000/svg" xmlns:xlink="http://www.w3.org/1999/xlink">
    <title>Icons / People / 16 / Referral</title>
    <defs>
        <path d="M6,10.5 C8.48528137,10.5 10.5,12.5147186 10.5,15 C10.5,16.4870983 9.77865566,17.8057176 8.66678069,18.6250442 C10.5583477,19.5640165 11.883145,21.4725326 11.992657,23.7005395 L12,24 L10.5,24 C10.5,21.5147186 8.48528137,19.5 6,19.5 C3.60347867,19.5 1.64450868,21.3733799 1.50763904,23.7355908 L1.5,24 L0,24 C0,21.6443338 1.35753815,19.6057376 3.3329611,18.6238648 C2.22134434,17.8057176 1.5,16.4870983 1.5,15 C1.5,12.5147186 3.51471863,10.5 6,10.5 Z M6,12 C4.34314575,12 3,13.3431458 3,15 C3,16.6568542 4.34314575,18 6,18 C7.65685425,18 9,16.6568542 9,15 C9,13.3431458 7.65685425,12 6,12 Z M18,0 L18,1.5 L18.75,1.5 C20.7382251,1.5 22.365058,3.0473039 22.4920235,5.00343647 L22.5,5.25 L21,5.25 C21,4.08045582 20.1076679,3.11932698 18.96669,3.01029987 L18.75,3 L18,3 L18,7.5 L18.75,7.5 C20.8210678,7.5 22.5,9.17893219 22.5,11.25 C22.5,13.2382251 20.9526961,14.865058 18.9965635,14.9920235 L18.75,15 L18,15 L18,16.5 L16.5,16.5 L16.5,15 L15.75,15 C13.7617749,15 12.134942,13.4526961 12.0079765,11.4965635 L12,11.25 L13.5,11.25 C13.5,12.4195442 14.3923321,13.380673 15.53331,13.4897001 L15.75,13.5 L16.5,13.5 L16.5,9 L15.75,9 C13.6789322,9 12,7.32106781 12,5.25 C12,3.2617749 13.5473039,1.63494199 15.5034365,1.50797652 L15.75,1.5 L16.5,1.5 L16.5,0 L18,0 Z M18.75,9 L18,9 L18,13.5 L18.75,13.5 C19.9926407,13.5 21,12.4926407 21,11.25 C21,10.0804558 20.1076679,9.11932698 18.96669,9.01029987 L18.75,9 Z M16.5,3 L15.75,3 C14.5073593,3 13.5,4.00735931 13.5,5.25 C13.5,6.41954418 14.3923321,7.38067302 15.53331,7.48970013 L15.75,7.5 L16.5,7.5 L16.5,3 Z" id="path-1"></path>
    </defs>
    <g id="Icons-/-People-/-16-/-Referral" stroke="none" stroke-width="1" fill="none" fill-rule="evenodd">
        <mask id="mask-2" fill="white">
            <use xlink:href="#path-1"></use>
        </mask>
        <use id="Combined-Shape" fill="#455065" xlink:href="#path-1"></use>
        <g id="Group" mask="url(#mask-2)" fill="#455065">
            <g id="Colors-/-307-Gray-Dark">
                <rect id="Rectangle" x="0" y="0" width="24" height="24"></rect>
            </g>
        </g>
    </g>
</svg>