<?xml version="1.0" encoding="UTF-8"?>
<svg width="16px" height="16px" viewBox="0 0 16 16" version="1.1" xmlns="http://www.w3.org/2000/svg" xmlns:xlink="http://www.w3.org/1999/xlink">
    <!-- Generator: sketchtool 54.1 (76490) - https://sketchapp.com -->
    <title>6abb85e1-7cbb-4457-8a94-166b7d90ae9e@1.00x</title>
    <desc>Created with sketchtool.</desc>
    <defs>
        <path d="M9,14.4999987 L7.05036022,14.4999986 C7.03356086,14.5000107 7.01677395,14.4999421 7,14.4997929 L7,16 L6,16 L6,14.3939271 C4.52763402,14.0917864 3.2502582,13.1617836 2.55662234,11.8311188 L2.32550278,11.3877412 L3.2122581,10.925502 L3.44337766,11.3688797 C3.96361022,12.3668891 4.90252211,13.0855099 6,13.367855 L6,8.49792576 C5.08812007,8.46757458 4.21907246,8.10605924 3.56902543,7.48201422 C2.88533123,6.82566792 2.5,5.93260691 2.5,5 C2.5,3.10291301 4.05998201,1.56560223 6,1.50204587 L6,0 L7,0 L7,1.50000127 L8.94963978,1.50000136 C8.96643914,1.49998926 8.98322605,1.50005794 9,1.50020711 L9,0 L10,0 L10,1.60607291 C11.472366,1.90821361 12.7497418,2.83821643 13.4433777,4.16888118 L13.6744972,4.61225884 L12.7877419,5.07449796 L12.5566223,4.63112029 C12.0363898,3.63311088 11.0974779,2.91449012 10,2.63214503 L10,7.50204464 C11.9400182,7.565601 13.5,9.10291202 13.5,11 C13.5,12.897087 11.940018,14.4343978 10,14.4979541 L10,16 L9,16 L9,14.4999987 Z M9,7.5 L9,2.50025397 C8.9833498,2.50007564 8.96668288,2.49998921 8.95,2.50000123 L7,2.50000123 L7,7.5 L9,7.5 Z M9,13.4999988 L9,8.5 L7,8.5 L7,13.499746 C7.0166502,13.4999244 7.03331712,13.5000108 7.05,13.4999988 L9,13.4999988 Z M10,13.4972191 C11.3957207,13.4350064 12.5,12.3363851 12.5,11 C12.5,9.66361389 11.3957208,8.5649924 10,8.50277962 L10,13.4972191 Z M6,2.50278085 C4.60427935,2.56499362 3.5,3.66361494 3.5,5 C3.5,5.65869277 3.7731489,6.29175497 4.26155719,6.76062683 C4.7245954,7.20514343 5.34518971,7.4674528 6,7.49716616 L6,2.50278085 Z" id="path-1"></path>
    </defs>
    <g id="Symbols" stroke="none" stroke-width="1" fill="none" fill-rule="evenodd">
        <g id="Icons-/-Notifications-/-16-/-Referral-Bonus">
            <mask id="mask-2" fill="white">
                <use xlink:href="#path-1"></use>
            </mask>
            <use id="Combined-Shape" fill="#000000" fill-rule="nonzero" xlink:href="#path-1"></use>
            <g id="Colors-/-Black" mask="url(#mask-2)" fill="#000000">
                <rect id="Rectangle" x="0" y="0" width="16" height="16"></rect>
            </g>
        </g>
    </g>
</svg>