<?xml version="1.0" encoding="UTF-8"?>
<svg width="16px" height="16px" viewBox="0 0 16 16" version="1.1" xmlns="http://www.w3.org/2000/svg" xmlns:xlink="http://www.w3.org/1999/xlink">
    <title>Icons / People / 16 / Referral</title>
    <defs>
        <path d="M4,7 C5.65685425,7 7,8.34314575 7,10 C7,10.9919444 6.51857442,11.8714458 5.77662998,12.4175975 C7.03837833,13.0419284 7.92207519,14.3145844 7.99510469,15.8003597 L8,16 L7,16 C7,14.3431458 5.65685425,13 4,13 C2.40231912,13 1.09633912,14.24892 1.00509269,15.8237272 L1,16 L0,16 C0,14.4292161 0.905417065,13.0699037 2.22282885,12.4154851 C1.48142558,11.8714458 1,10.9919444 1,10 C1,8.34314575 2.34314575,7 4,7 Z M4,8 C2.8954305,8 2,8.8954305 2,10 C2,11.1045695 2.8954305,12 4,12 C5.1045695,12 6,11.1045695 6,10 C6,8.8954305 5.1045695,8 4,8 Z M12,0 L12,1 L12.5,1 C13.8254834,1 14.9100387,2.03153594 14.9946823,3.33562431 L15,3.5 L14,3.5 C14,2.72030388 13.4051119,2.07955132 12.64446,2.00686658 L12.5,2 L12,2 L12,5 L12.5,5 C13.8807119,5 15,6.11928813 15,7.5 C15,8.8254834 13.9684641,9.91003867 12.6643757,9.99468232 L12.5,10 L12,10 L12,11 L11,11 L11,10 L10.5,10 C9.1745166,10 8.08996133,8.96846406 8.00531768,7.66437569 L8,7.5 L9,7.5 C9,8.27969612 9.59488808,8.92044868 10.35554,8.99313342 L10.5,9 L11,9 L11,6 L10.5,6 C9.11928813,6 8,4.88071187 8,3.5 C8,2.1745166 9.03153594,1.08996133 10.3356243,1.00531768 L10.5,1 L11,1 L11,0 L12,0 Z M12.5,6 L12,6 L12,9 L12.5,9 C13.3284271,9 14,8.32842712 14,7.5 C14,6.72030388 13.4051119,6.07955132 12.64446,6.00686658 L12.5,6 Z M11,2 L10.5,2 C9.67157288,2 9,2.67157288 9,3.5 C9,4.27969612 9.59488808,4.92044868 10.35554,4.99313342 L10.5,5 L11,5 L11,2 Z" id="path-1"></path>
    </defs>
    <g id="Icons-/-People-/-16-/-Referral" stroke="none" stroke-width="1" fill="none" fill-rule="evenodd">
        <mask id="mask-2" fill="white">
            <use xlink:href="#path-1"></use>
        </mask>
        <use id="Combined-Shape" fill="#455065" xlink:href="#path-1"></use>
        <g id="Group" mask="url(#mask-2)" fill="#455065">
            <g id="Colors-/-307-Gray-Dark">
                <rect id="Rectangle" x="0" y="0" width="16" height="16"></rect>
            </g>
        </g>
    </g>
</svg>