<svg xmlns="http://www.w3.org/2000/svg" width="16px" height="16px" viewBox="0 0 16 16"><g fill="#455065"><path d="M5.75 5.42C6.5 4.87 7 3.99 7 3c0-1.65-1.35-3-3-3S1 1.35 1 3c0 1 .49 1.88 1.25 2.42C.93 6.07 0 7.42 0 9h1c0-1.65 1.35-3 3-3s3 1.35 3 3h1c0-1.57-.92-2.92-2.25-3.58ZM4 5c-1.1 0-2-.9-2-2s.9-2 2-2 2 .9 2 2-.9 2-2 2ZM13.75 12.42C14.5 11.87 15 10.99 15 10c0-1.65-1.35-3-3-3s-3 1.35-3 3c0 1 .49 1.88 1.25 2.42C8.93 13.07 8 14.42 8 16h1c0-1.65 1.35-3 3-3s3 1.35 3 3h1c0-1.57-.92-2.92-2.25-3.58ZM12 12c-1.1 0-2-.9-2-2s.9-2 2-2 2 .9 2 2-.9 2-2 2ZM3 11H2v3h5v-1H3v-2zM13 5h1V2H9v1h4v2z"/></g></svg>