<svg width="24" height="24" viewBox="0 0 24 24" fill="none" xmlns="http://www.w3.org/2000/svg"><path d="M11.260 1.044 C 9.282 1.252,7.463 2.316,6.292 3.952 C 5.998 4.362,5.616 5.084,5.440 5.561 C 4.393 8.399,5.273 11.571,7.630 13.460 L 8.057 13.802 8.409 13.451 C 8.602 13.259,8.756 13.089,8.750 13.075 C 8.745 13.060,8.591 12.938,8.410 12.804 C 7.256 11.951,6.430 10.639,6.115 9.160 C 5.986 8.555,5.986 7.445,6.115 6.840 C 6.644 4.358,8.493 2.553,10.980 2.090 C 11.530 1.987,12.612 2.000,13.160 2.116 C 14.364 2.370,15.422 2.940,16.257 3.785 C 16.440 3.970,16.668 4.231,16.765 4.365 C 17.104 4.838,17.024 4.832,17.439 4.419 L 17.802 4.057 17.517 3.699 C 17.142 3.227,16.935 3.013,16.500 2.648 C 15.041 1.423,13.155 0.845,11.260 1.044 M11.649 11.651 L 1.799 21.501 2.150 21.850 L 2.501 22.199 12.351 12.349 L 22.201 2.499 21.850 2.150 L 21.499 1.801 11.649 11.651 M18.474 7.669 L 18.009 8.140 17.960 8.597 C 17.876 9.386,17.696 10.011,17.360 10.680 C 16.411 12.568,14.569 13.807,12.450 13.984 L 12.128 14.011 11.614 14.526 L 11.101 15.040 11.640 15.015 C 14.816 14.867,17.781 16.630,19.182 19.500 C 19.639 20.434,19.878 21.320,19.967 22.410 L 20.016 23.000 20.508 23.000 L 21.000 23.000 21.000 22.764 C 21.000 21.662,20.633 20.177,20.084 19.055 C 19.023 16.888,17.226 15.308,14.860 14.464 C 14.797 14.441,14.870 14.389,15.220 14.206 C 17.008 13.275,18.274 11.683,18.783 9.726 C 18.966 9.021,19.058 7.840,18.968 7.349 L 18.940 7.198 18.474 7.669 M3.579 22.561 L 3.141 23.000 3.565 23.000 L 3.988 23.000 4.016 22.575 C 4.031 22.341,4.037 22.144,4.030 22.136 C 4.022 22.129,3.819 22.320,3.579 22.561 " fill="#455065" stroke="none" fill-rule="evenodd"></path></svg>