<svg width="16" height="16" viewBox="0 0 16 16" fill="none" xmlns="http://www.w3.org/2000/svg"><path d="M7.470 0.030 C 5.772 0.208,4.252 1.276,3.503 2.817 C 2.554 4.773,2.981 7.120,4.560 8.622 C 4.955 8.998,4.878 9.002,5.289 8.590 L 5.640 8.238 5.520 8.140 C 4.345 7.176,3.810 5.753,4.068 4.281 C 4.348 2.690,5.596 1.423,7.227 1.075 C 7.550 1.006,8.450 1.006,8.773 1.075 C 9.688 1.270,10.517 1.765,11.080 2.453 L 11.236 2.644 11.590 2.290 L 11.944 1.937 11.887 1.858 C 11.687 1.577,11.180 1.118,10.760 0.838 C 9.797 0.197,8.626 -0.090,7.470 0.030 M7.640 7.653 L 0.787 14.507 1.140 14.860 L 1.493 15.213 8.353 8.353 L 15.213 1.494 14.867 1.147 C 14.677 0.956,14.515 0.800,14.507 0.800 C 14.499 0.800,11.409 3.884,7.640 7.653 M12.369 5.753 C 11.775 6.350,11.764 6.364,11.669 6.586 C 11.312 7.420,10.611 8.164,9.798 8.568 C 9.667 8.633,9.516 8.702,9.462 8.721 C 9.392 8.746,9.186 8.934,8.742 9.378 C 8.400 9.720,8.138 10.000,8.160 10.000 C 8.182 10.000,8.344 10.013,8.520 10.028 C 10.617 10.211,12.439 11.457,13.374 13.347 C 13.744 14.095,13.936 14.830,13.989 15.700 L 14.008 16.000 14.510 16.000 L 15.013 16.000 14.998 15.753 C 14.935 14.664,14.701 13.748,14.261 12.870 C 13.525 11.399,12.243 10.194,10.747 9.565 C 10.593 9.501,10.444 9.440,10.416 9.430 C 10.377 9.416,10.411 9.385,10.586 9.279 C 11.788 8.549,12.640 7.329,12.906 5.959 C 12.958 5.692,13.010 5.147,12.984 5.147 C 12.978 5.147,12.701 5.420,12.369 5.753 " fill="#455065" stroke="none" fill-rule="evenodd"></path></svg>