<svg width="16" height="16" viewBox="0 0 16 16" fill="none" xmlns="http://www.w3.org/2000/svg"><path d="M5.320 1.581 L 2.680 3.107 2.673 6.187 L 2.666 9.268 5.333 10.808 L 7.999 12.348 10.666 10.811 L 13.333 9.275 13.333 6.191 L 13.333 3.107 10.683 1.580 C 9.226 0.740,8.017 0.054,7.997 0.054 C 7.976 0.054,6.772 0.742,5.320 1.581 M9.905 2.287 C 10.941 2.884,11.792 3.385,11.795 3.398 C 11.802 3.434,10.450 4.213,10.394 4.206 C 10.346 4.200,6.615 2.022,6.615 2.000 C 6.614 1.982,7.953 1.205,7.990 1.202 C 8.007 1.201,8.868 1.689,9.905 2.287 M7.515 3.693 C 8.543 4.295,9.385 4.793,9.385 4.800 C 9.387 4.818,8.034 5.600,8.001 5.600 C 7.975 5.600,4.243 3.452,4.205 3.415 C 4.178 3.389,5.543 2.589,5.603 2.595 C 5.627 2.598,6.487 3.092,7.515 3.693 M12.347 6.478 L 12.347 8.689 10.913 9.515 C 10.125 9.969,9.261 10.467,8.993 10.622 L 8.506 10.903 8.513 8.686 L 8.520 6.468 10.427 5.368 C 11.475 4.763,12.336 4.268,12.340 4.267 C 12.344 4.267,12.347 5.262,12.347 6.478 M5.600 5.381 L 7.480 6.468 7.487 8.685 L 7.494 10.901 5.593 9.804 L 3.693 8.706 3.687 6.500 C 3.683 5.286,3.689 4.294,3.700 4.294 C 3.711 4.294,4.566 4.784,5.600 5.381 M3.513 12.767 L 2.453 13.827 3.528 14.902 L 4.604 15.977 4.946 15.613 L 5.289 15.250 4.825 14.785 L 4.361 14.320 8.594 14.320 L 12.827 14.320 12.827 13.827 L 12.827 13.333 8.594 13.333 L 4.361 13.333 4.834 12.860 L 5.307 12.386 4.966 12.046 C 4.779 11.860,4.614 11.707,4.600 11.707 C 4.585 11.707,4.096 12.184,3.513 12.767 " fill="#455065" stroke="none" fill-rule="evenodd"></path></svg>