<svg width="24" height="24" viewBox="0 0 24 24" fill="none" xmlns="http://www.w3.org/2000/svg"><path d="M8.046 2.329 L 4.080 4.615 4.090 9.177 L 4.100 13.740 8.020 16.009 C 10.500 17.445,11.971 18.274,12.023 18.266 C 12.069 18.259,13.865 17.238,16.014 15.997 L 19.920 13.741 19.910 9.166 L 19.900 4.592 16.120 2.414 C 14.041 1.216,12.266 0.192,12.176 0.140 L 12.012 0.044 8.046 2.329 M15.207 3.040 C 16.930 4.033,18.353 4.859,18.370 4.875 C 18.403 4.907,15.723 6.467,15.666 6.448 C 15.645 6.441,14.209 5.606,12.474 4.593 L 9.319 2.749 10.190 2.248 C 10.668 1.973,11.267 1.626,11.520 1.477 C 11.773 1.328,12.001 1.213,12.027 1.220 C 12.052 1.228,13.483 2.047,15.207 3.040 M11.468 5.162 C 13.202 6.176,14.632 7.017,14.647 7.032 C 14.661 7.048,14.158 7.357,13.528 7.720 C 12.898 8.083,12.299 8.428,12.197 8.488 L 12.011 8.595 8.837 6.762 C 7.091 5.753,5.658 4.913,5.653 4.894 C 5.647 4.871,8.127 3.404,8.308 3.324 C 8.312 3.322,9.734 4.149,11.468 5.162 M18.887 13.169 C 18.850 13.206,12.564 16.840,12.537 16.840 C 12.528 16.840,12.520 15.178,12.520 13.147 L 12.520 9.454 15.710 7.612 L 18.900 5.769 18.910 9.453 C 18.916 11.478,18.905 13.151,18.887 13.169 M8.345 7.630 L 11.518 9.460 11.519 13.150 C 11.520 15.180,11.508 16.840,11.493 16.840 C 11.478 16.840,10.038 16.017,8.294 15.010 L 5.122 13.180 5.121 9.490 C 5.120 7.460,5.132 5.800,5.146 5.800 C 5.160 5.800,6.600 6.623,8.345 7.630 M5.417 19.335 L 3.860 20.874 5.410 22.427 L 6.959 23.979 7.320 23.620 L 7.681 23.261 6.751 22.331 L 5.821 21.400 9.904 21.400 C 12.149 21.400,15.205 21.388,16.693 21.373 L 19.400 21.347 19.400 20.856 L 19.400 20.366 12.590 20.387 L 5.780 20.409 6.730 19.454 L 7.681 18.499 7.327 18.147 L 6.973 17.795 5.417 19.335 " fill="#455065" stroke="none" fill-rule="evenodd"></path></svg>