<?xml version="1.0" encoding="UTF-8"?>
<svg width="24px" height="24px" viewBox="0 0 24 24" version="1.1" xmlns="http://www.w3.org/2000/svg" xmlns:xlink="http://www.w3.org/1999/xlink">
    <title>31A03EC9-6EF5-4DEE-8823-1A8EF65B2B77@1x</title>
    <defs>
        <path d="M20,11 L20.0006185,12.7197286 C21.1586463,12.8134228 22.097766,13.2408436 22.818,14.002 L22.118,14.856 C21.5597491,14.2442182 20.8542617,13.8830708 20.001523,13.7725516 L19.9990339,16.8098467 C20.0857345,16.836679 20.1737232,16.8643967 20.263,16.893 C20.7436691,17.0470008 21.186998,17.2103325 21.593,17.383 C21.999002,17.5556675 22.3396653,17.8333314 22.615,18.216 C22.8903347,18.5986686 23.028,19.060664 23.028,19.602 C23.028,20.3673372 22.7456695,21.0159973 22.181,21.548 C21.6859309,22.0144287 20.9594993,22.2763857 20.0016878,22.3338763 L20,24 L19,24 L19.0004998,22.3200209 C17.7614148,22.2064414 16.761256,21.7204376 16,20.862 L16.686,19.98 C17.3331143,20.7032454 18.1044171,21.1315158 18.9999242,21.2648182 L19.0003547,17.8276931 C18.8210875,17.7752093 18.642303,17.7203117 18.464,17.663 C18.071998,17.5369994 17.7150016,17.3853342 17.393,17.208 C17.0709984,17.0306658 16.8073344,16.7786683 16.602,16.452 C16.3966656,16.1253317 16.294,15.7380022 16.294,15.29 C16.294,14.5246628 16.5973303,13.9016691 17.204,13.421 C17.69764,13.0298852 18.2963243,12.7978956 19.0000652,12.7250272 L19,11 L20,11 Z M20.0016168,18.1038084 L20.0017569,21.2954298 C20.568854,21.2492174 20.9989319,21.093075 21.292,20.827 C21.6466684,20.5049984 21.824,20.1293355 21.824,19.7 C21.824,19.3733317 21.7213344,19.0980011 21.516,18.874 C21.3106656,18.6499989 21.0470016,18.4750006 20.725,18.349 C20.5018075,18.2616638 20.260681,18.1799337 20.0016168,18.1038084 Z M6,1 L6,3 L18,3 L18,1 L19,1 L19,3 L24,3 L24,11 L23,11 L23,9 L1,9 L1,20 L14,20 L14,21 L0,21 L0,3 L5,3 L5,1 L6,1 Z M19.0004478,13.7637917 C18.6242679,13.8166873 18.3031205,13.9450895 18.037,14.149 C17.6776649,14.4243347 17.498,14.7813311 17.498,15.22 C17.498,15.5466683 17.6356653,15.8173323 17.911,16.032 C18.1863347,16.2466677 18.526998,16.4053328 18.933,16.508 L19,16.525 L19.0004478,13.7637917 Z M5,4 L1,4 L1,8 L23,8 L23,4 L19,4 L19,6 L18,6 L18,4 L6,4 L6,6 L5,6 L5,4 Z" id="path-1"></path>
    </defs>
    <g id="Symbols" stroke="none" stroke-width="1" fill="none" fill-rule="evenodd">
        <g id="Icons-/-Finance-/-24-/-Scheduled-Payment">
            <mask id="mask-2" fill="white">
                <use xlink:href="#path-1"></use>
            </mask>
            <use id="Combined-Shape" fill="#000000" fill-rule="nonzero" xlink:href="#path-1"></use>
            <g id="Group" mask="url(#mask-2)" fill="#455065">
                <g id="Colors-/-307-Gray-Dark">
                    <rect id="Rectangle" x="0" y="0" width="24" height="24"></rect>
                </g>
            </g>
        </g>
    </g>
</svg>
