<svg width="16" height="16" viewBox="0 0 16 16" fill="none" xmlns="http://www.w3.org/2000/svg"><path d="M7.467 0.017 C 5.118 0.192,3.024 1.327,1.608 3.193 C 0.799 4.260,0.296 5.477,0.073 6.906 C -0.009 7.429,-0.009 8.571,0.073 9.094 C 0.415 11.288,1.476 13.089,3.195 14.393 C 4.257 15.199,5.481 15.705,6.906 15.927 C 7.429 16.009,8.571 16.009,9.094 15.927 C 11.038 15.624,12.690 14.748,13.930 13.362 C 15.030 12.133,15.665 10.775,15.927 9.094 C 16.009 8.571,16.009 7.429,15.927 6.906 C 15.705 5.481,15.199 4.257,14.393 3.195 C 13.070 1.452,11.180 0.355,9.000 0.066 C 8.688 0.025,7.760 -0.005,7.467 0.017 M9.040 1.078 C 11.831 1.511,14.104 3.571,14.781 6.281 C 14.942 6.924,14.973 7.204,14.973 8.000 C 14.973 8.796,14.942 9.076,14.781 9.719 C 14.240 11.884,12.650 13.691,10.560 14.514 C 8.961 15.144,7.118 15.156,5.514 14.545 C 5.231 14.437,4.693 14.186,4.693 14.162 C 4.693 14.154,5.033 13.807,5.448 13.392 L 6.202 12.638 6.379 12.705 C 7.225 13.023,8.302 13.075,9.223 12.842 C 11.105 12.366,12.516 10.886,12.905 8.981 C 13.125 7.905,12.977 6.846,12.452 5.745 C 12.362 5.555,12.270 5.359,12.248 5.309 L 12.209 5.218 10.364 7.061 L 8.520 8.905 8.360 8.819 C 7.825 8.530,7.386 8.105,7.161 7.656 L 7.088 7.512 8.936 5.664 C 9.953 4.647,10.778 3.809,10.770 3.801 C 10.738 3.769,9.889 3.384,9.680 3.306 C 9.087 3.088,8.497 2.998,7.807 3.021 C 5.946 3.085,4.308 4.166,3.496 5.867 C 2.942 7.026,2.868 8.334,3.286 9.568 L 3.370 9.816 3.018 10.168 L 2.667 10.521 3.007 10.860 C 3.194 11.047,3.359 11.200,3.374 11.200 C 3.389 11.200,3.662 10.939,3.981 10.619 L 4.562 10.038 4.427 9.753 C 4.017 8.883,3.912 8.057,4.096 7.154 C 4.258 6.358,4.731 5.552,5.361 4.997 C 6.311 4.160,7.633 3.818,8.851 4.095 L 9.047 4.139 7.508 5.679 L 5.968 7.219 6.037 7.471 C 6.167 7.950,6.321 8.257,6.630 8.657 C 7.057 9.208,7.819 9.736,8.539 9.977 L 8.782 10.058 10.321 8.519 C 11.167 7.673,11.866 6.991,11.874 7.004 C 11.909 7.061,11.979 7.478,11.995 7.733 C 12.069 8.878,11.691 9.936,10.920 10.743 C 10.455 11.230,9.938 11.567,9.325 11.783 C 8.882 11.940,8.604 11.983,8.040 11.984 C 7.330 11.986,6.977 11.908,6.285 11.598 L 5.970 11.457 4.894 12.532 L 3.818 13.608 3.702 13.523 C 3.508 13.380,3.063 12.973,2.878 12.767 C 2.051 11.853,1.509 10.861,1.227 9.747 C 1.059 9.083,1.027 8.807,1.027 8.000 C 1.027 7.193,1.059 6.917,1.227 6.253 C 1.847 3.807,3.806 1.848,6.253 1.227 C 6.473 1.171,6.797 1.106,6.973 1.083 C 7.149 1.059,7.329 1.035,7.373 1.029 C 7.574 1.002,8.774 1.037,9.040 1.078 " fill="#455065" stroke="none" fill-rule="evenodd"></path></svg>