<svg width="24" height="24" viewBox="0 0 24 24" fill="none" xmlns="http://www.w3.org/2000/svg"><path d="M11.200 0.025 C 7.677 0.288,4.536 1.991,2.412 4.790 C 1.198 6.390,0.443 8.216,0.109 10.359 C -0.013 11.143,-0.013 12.857,0.109 13.641 C 0.622 16.932,2.214 19.633,4.793 21.590 C 6.386 22.799,8.222 23.558,10.359 23.891 C 11.143 24.013,12.857 24.013,13.641 23.891 C 16.557 23.436,19.036 22.122,20.896 20.043 C 22.545 18.200,23.498 16.163,23.891 13.641 C 24.013 12.857,24.013 11.143,23.891 10.359 C 23.558 8.222,22.799 6.386,21.590 4.793 C 19.606 2.178,16.770 0.532,13.500 0.099 C 13.032 0.037,11.640 -0.007,11.200 0.025 M13.580 1.120 C 15.548 1.412,17.308 2.178,18.899 3.433 C 19.262 3.719,20.281 4.738,20.567 5.101 C 21.825 6.696,22.577 8.428,22.885 10.440 C 22.959 10.920,22.974 11.189,22.974 12.000 C 22.974 12.811,22.959 13.080,22.885 13.560 C 22.577 15.572,21.828 17.298,20.568 18.899 C 20.205 19.360,19.137 20.394,18.637 20.769 C 17.094 21.925,15.410 22.621,13.460 22.907 C 12.788 23.005,11.212 23.005,10.540 22.907 C 9.220 22.713,7.981 22.316,6.881 21.735 C 6.649 21.613,6.452 21.504,6.442 21.495 C 6.432 21.485,7.096 20.805,7.917 19.983 L 9.411 18.489 9.755 18.607 C 11.249 19.120,12.799 19.116,14.309 18.595 C 17.203 17.597,19.118 14.791,18.987 11.740 C 18.944 10.735,18.772 10.036,18.311 8.986 L 18.068 8.432 15.524 10.975 L 12.980 13.518 12.601 13.317 C 11.708 12.844,11.013 12.160,10.634 11.381 L 10.479 11.062 13.029 8.510 C 15.044 6.494,15.567 5.950,15.520 5.920 C 15.362 5.821,14.301 5.393,13.994 5.305 C 13.104 5.048,12.306 4.962,11.490 5.033 C 9.761 5.184,8.351 5.821,7.146 6.996 C 6.528 7.599,6.133 8.134,5.766 8.867 C 4.926 10.543,4.794 12.537,5.407 14.273 L 5.527 14.613 4.683 15.457 L 3.840 16.301 4.190 16.650 L 4.541 16.999 5.611 15.929 C 6.199 15.341,6.680 14.840,6.680 14.815 C 6.680 14.791,6.619 14.638,6.544 14.476 C 6.181 13.685,6.025 12.943,6.024 12.000 C 6.023 10.955,6.185 10.254,6.640 9.340 C 7.317 7.981,8.399 6.981,9.794 6.422 C 10.989 5.944,12.421 5.870,13.635 6.223 L 13.854 6.286 11.609 8.533 L 9.364 10.780 9.495 11.180 C 9.665 11.696,9.892 12.142,10.190 12.543 C 10.856 13.441,11.948 14.229,12.994 14.567 L 13.250 14.650 15.483 12.417 C 16.712 11.188,17.724 10.192,17.734 10.202 C 17.772 10.243,17.921 10.911,17.964 11.234 C 18.024 11.679,17.987 12.798,17.900 13.200 C 17.506 15.016,16.318 16.560,14.700 17.360 C 14.159 17.628,13.779 17.762,13.211 17.888 C 12.676 18.005,11.433 18.016,10.920 17.908 C 10.426 17.804,9.963 17.657,9.549 17.475 L 9.185 17.315 7.377 19.123 L 5.569 20.931 5.214 20.658 C 4.799 20.337,3.751 19.303,3.433 18.899 C 2.174 17.303,1.423 15.572,1.115 13.560 C 0.987 12.726,0.987 11.274,1.115 10.440 C 1.423 8.428,2.175 6.696,3.433 5.101 C 3.719 4.738,4.738 3.719,5.101 3.433 C 6.861 2.044,8.821 1.258,11.069 1.039 C 11.638 0.984,12.946 1.026,13.580 1.120 " fill="#455065" stroke="none" fill-rule="evenodd"></path></svg>