<?xml version="1.0" encoding="UTF-8"?>
<svg width="16px" height="16px" viewBox="0 0 16 16" version="1.1" xmlns="http://www.w3.org/2000/svg" xmlns:xlink="http://www.w3.org/1999/xlink">
    <title>Colors / 305 Dark Gray</title>
    <defs>
        <path d="M10,3.26013522e-13 C10.8804464,3.26013522e-13 11.7166001,0.189640209 12.4698423,0.530302091 L9,4 L9.5,6.5 L12,7 L15.4701484,3.53115413 C15.810527,4.28413731 16,5.11994176 16,6 C16,9.3137085 13.3137085,12 10,12 C9.39420118,12 8.8093717,11.9102196 8.25809129,11.7432387 L4,16 L0,12 L4.25736926,7.74391443 C4.08999828,7.1920469 4,6.60653356 4,6 C4,2.6862915 6.6862915,3.26013522e-13 10,3.26013522e-13 Z M10,1 C7.23857625,1 5,3.23857625 5,6 C5,6.39914042 5.0465762,6.79130598 5.13768116,7.17117461 L5.21432703,7.45368725 L5.3883004,8.02732466 L1.415,12 L4,14.585 L7.97471152,10.6125372 L8.54798152,10.7861788 C9.01421254,10.9273986 9.50167059,11 10,11 C12.7614237,11 15,8.76142375 15,6 L14.9929185,5.73116549 L14.969,5.446 L12.3285563,8.08551517 L8.65016341,7.34983659 L7.91445853,3.67131216 L10.555,1.031 L10.5353279,1.02824196 C10.4470076,1.01886415 10.3581936,1.01180366 10.2689507,1.00708763 L10,1 Z" id="path-1"></path>
    </defs>
    <g id="Symbols" stroke="none" stroke-width="1" fill="none" fill-rule="evenodd">
        <g id="Icons-/-Misc-/-16-/-Services">
            <mask id="mask-2" fill="white">
                <use xlink:href="#path-1"></use>
            </mask>
            <use id="Combined-Shape" fill="#455065" fill-rule="nonzero" xlink:href="#path-1"></use>
            <g id="Group" mask="url(#mask-2)" fill="#455065">
                <g id="Colors-/-305-Dark-Gray">
                    <rect id="Rectangle" x="0" y="0" width="16" height="16"></rect>
                </g>
            </g>
        </g>
    </g>
</svg>