<?xml version="1.0" encoding="UTF-8"?>
<svg width="24px" height="24px" viewBox="0 0 24 24" version="1.1" xmlns="http://www.w3.org/2000/svg" xmlns:xlink="http://www.w3.org/1999/xlink">
    <title>Colors / 305 Dark Gray</title>
    <defs>
        <path d="M15,3.26013522e-13 C16.18588,3.26013522e-13 17.3181904,0.229358449 18.3549915,0.646135517 L14,5 L15,9 L19,10 L23.3546675,5.64700698 C23.7709362,6.68326456 24,7.81488192 24,9 C24,13.9705627 19.9705627,18 15,18 C14.0910382,18 13.2135486,17.8652513 12.3864173,17.61464 L6,24 L0,18 L6.38566471,11.6145881 C6.13485791,10.7871625 6,9.90933013 6,9 C6,4.02943725 10.0294373,3.26013522e-13 15,3.26013522e-13 Z M15,1 C10.581722,1 7,4.581722 7,9 C7,9.68338534 7.08547042,10.3544713 7.2524199,11.0024758 L7.34266608,11.3245047 L7.51649783,11.8979853 L1.414,17.999 L6,22.585 L12.1030303,16.4838836 L12.6763881,16.6576045 C13.4227984,16.8837583 14.2030358,17 15,17 C19.418278,17 23,13.418278 23,9 C23,8.53988322 22.961241,8.08547542 22.8850741,7.6401867 L22.867,7.548 L19.3066265,11.107433 L14.1753789,9.82462113 L12.8925154,4.69316738 L16.453,1.133 L16.3606582,1.1150705 C16.0264895,1.05787374 15.6871833,1.02174497 15.344181,1.00725537 L15,1 Z" id="path-1"></path>
    </defs>
    <g id="Symbols" stroke="none" stroke-width="1" fill="none" fill-rule="evenodd">
        <g id="Icons-/-Misc-/-24-/-Services">
            <mask id="mask-2" fill="white">
                <use xlink:href="#path-1"></use>
            </mask>
            <use id="Combined-Shape" fill="#455065" fill-rule="nonzero" xlink:href="#path-1"></use>
            <g id="Group" mask="url(#mask-2)" fill="#455065">
                <g id="Colors-/-305-Dark-Gray">
                    <rect id="Rectangle" x="0" y="0" width="24" height="24"></rect>
                </g>
            </g>
        </g>
    </g>
</svg>