<?xml version="1.0" encoding="UTF-8"?>
<svg width="24px" height="24px" viewBox="0 0 24 24" version="1.1" xmlns="http://www.w3.org/2000/svg" xmlns:xlink="http://www.w3.org/1999/xlink">
    <!-- Generator: sketchtool 54.1 (76490) - https://sketchapp.com -->
    <title>33638e0f-d39f-47c6-a36c-b06c7ee5297c@1.00x</title>
    <desc>Created with sketchtool.</desc>
    <defs>
        <path d="M7.20852293,19.6199042 L5.63603897,21.1923882 L2.80761184,18.363961 L4.3800958,16.7914771 C3.84706631,15.9455784 3.45099725,15.0047101 3.22301642,14 L1,14 L1,10 L3.22301642,10 C3.45099725,8.99528987 3.84706631,8.05442158 4.3800958,7.20852293 L2.80761184,5.63603897 L5.63603897,2.80761184 L7.20852293,4.3800958 C8.05442158,3.84706631 8.99528987,3.45099725 10,3.22301642 L10,1 L14,1 L14,3.22301642 C15.0047101,3.45099725 15.9455784,3.84706631 16.7914771,4.3800958 L18.363961,2.80761184 L21.1923882,5.63603897 L19.6199042,7.20852293 C20.1529337,8.05442158 20.5490027,8.99528987 20.7769836,10 L23,10 L23,14 L20.7769836,14 C20.5490027,15.0047101 20.1529337,15.9455784 19.6199042,16.7914771 L21.1923882,18.363961 L18.363961,21.1923882 L16.7914771,19.6199042 C15.9455784,20.1529337 15.0047101,20.5490027 14,20.7769836 L14,23 L10,23 L10,20.7769836 C8.99528987,20.5490027 8.05442158,20.1529337 7.20852293,19.6199042 Z M7.06605802,18.3481555 L7.74164174,18.7738638 C8.50274289,19.2534595 9.3396364,19.6017177 10.2212866,19.8017748 L11,19.9784742 L11,22 L13,22 L13,19.9784742 L13.7787134,19.8017748 C14.6603636,19.6017177 15.4972571,19.2534595 16.2583583,18.7738638 L16.933942,18.3481555 L18.363961,19.7781746 L19.7781746,18.363961 L18.3481555,16.933942 L18.7738638,16.2583583 C19.2534595,15.4972571 19.6017177,14.6603636 19.8017748,13.7787134 L19.9784742,13 L22,13 L22,11 L19.9784742,11 L19.8017748,10.2212866 C19.6017177,9.3396364 19.2534595,8.50274289 18.7738638,7.74164174 L18.3481555,7.06605802 L19.7781746,5.63603897 L18.363961,4.22182541 L16.933942,5.65184446 L16.2583583,5.22613619 C15.4972571,4.74654048 14.6603636,4.39828229 13.7787134,4.19822524 L13,4.0215258 L13,2 L11,2 L11,4.0215258 L10.2212866,4.19822524 C9.3396364,4.39828229 8.50274289,4.74654048 7.74164174,5.22613619 L7.06605802,5.65184446 L5.63603897,4.22182541 L4.22182541,5.63603897 L5.65184446,7.06605802 L5.22613619,7.74164174 C4.74654048,8.50274289 4.39828229,9.3396364 4.19822524,10.2212866 L4.0215258,11 L2,11 L2,13 L4.0215258,13 L4.19822524,13.7787134 C4.39828229,14.6603636 4.74654048,15.4972571 5.22613619,16.2583583 L5.65184446,16.933942 L4.22182541,18.363961 L5.63603897,19.7781746 L7.06605802,18.3481555 Z M12,17 C9.23857625,17 7,14.7614237 7,12 C7,9.23857625 9.23857625,7 12,7 C14.7614237,7 17,9.23857625 17,12 C17,14.7614237 14.7614237,17 12,17 Z M12,16 C14.209139,16 16,14.209139 16,12 C16,9.790861 14.209139,8 12,8 C9.790861,8 8,9.790861 8,12 C8,14.209139 9.790861,16 12,16 Z" id="path-1"></path>
    </defs>
    <g id="Symbols" stroke="none" stroke-width="1" fill="none" fill-rule="evenodd">
        <g id="Icons-/-Video-Call-/-24-/-Settings">
            <mask id="mask-2" fill="white">
                <use xlink:href="#path-1"></use>
            </mask>
            <use id="Combined-Shape" fill="#000000" fill-rule="nonzero" xlink:href="#path-1"></use>
            <g id="Colors-/-Black" mask="url(#mask-2)" fill="#000000">
                <rect id="Rectangle" x="0" y="0" width="24" height="24"></rect>
            </g>
        </g>
    </g>
</svg>