<?xml version="1.0" encoding="UTF-8"?>
<svg width="16px" height="16px" viewBox="0 0 16 16" version="1.1" xmlns="http://www.w3.org/2000/svg" xmlns:xlink="http://www.w3.org/1999/xlink">
    <!-- Generator: sketchtool 54.1 (76490) - https://sketchapp.com -->
    <title>4b6e8a26-f0a6-411a-ba6e-f25a4c73f86a@1.00x</title>
    <desc>Created with sketchtool.</desc>
    <defs>
        <path d="M6,2.34141142 L6,0 L10,0 L10,2.34141142 C10.7022289,2.58961373 11.3444577,2.96483234 11.899082,3.43946286 L13.9282032,2.26794919 L15.9282032,5.73205081 L13.8999565,6.90305963 C13.9656602,7.25870211 14,7.62534081 14,8 C14,8.37465919 13.9656602,8.74129789 13.8999565,9.09694037 L15.9282032,10.2679492 L13.9282032,13.7320508 L11.899082,12.5605371 C11.3444577,13.0351677 10.7022289,13.4103863 10,13.6585886 L10,16 L6,16 L6,13.6585886 C5.29777107,13.4103863 4.65554226,13.0351677 4.10091796,12.5605371 L2.07179677,13.7320508 L0.0717967697,10.2679492 L2.10004354,9.09694037 C2.03433976,8.74129789 2,8.37465919 2,8 C2,7.62534081 2.03433976,7.25870211 2.10004354,6.90305963 L0.0717967697,5.73205081 L2.07179677,2.26794919 L4.10091796,3.43946286 C4.65554226,2.96483234 5.29777107,2.58961373 6,2.34141142 Z M7,1 L7,3.04858761 L6.33324608,3.2842513 C5.75394971,3.48900319 5.21790627,3.79976279 4.7511076,4.19923483 L4.21359791,4.65921919 L2.43782217,3.6339746 L1.43782217,5.3660254 L3.21171801,6.39018464 L3.08340266,7.084732 C3.0280848,7.38415738 3,7.69003116 3,8 C3,8.30996884 3.0280848,8.61584262 3.08340266,8.915268 L3.21171801,9.60981536 L1.43782217,10.6339746 L2.43782217,12.3660254 L4.21359791,11.3407808 L4.7511076,11.8007652 C5.21790627,12.2002372 5.75394971,12.5109968 6.33324608,12.7157487 L7,12.9514124 L7,15 L9,15 L9,12.9514124 L9.66675392,12.7157487 C10.2460503,12.5109968 10.7820937,12.2002372 11.2488924,11.8007652 L11.7864021,11.3407808 L13.5621778,12.3660254 L14.5621778,10.6339746 L12.788282,9.60981536 L12.9165973,8.915268 C12.9719152,8.61584262 13,8.30996884 13,8 C13,7.69003116 12.9719152,7.38415738 12.9165973,7.084732 L12.788282,6.39018464 L14.5621778,5.3660254 L13.5621778,3.6339746 L11.7864021,4.65921919 L11.2488924,4.19923483 C10.7820937,3.79976279 10.2460503,3.48900319 9.66675392,3.2842513 L9,3.04858761 L9,1 L7,1 Z M8,11 C6.34314575,11 5,9.65685425 5,8 C5,6.34314575 6.34314575,5 8,5 C9.65685425,5 11,6.34314575 11,8 C11,9.65685425 9.65685425,11 8,11 Z M8,10 C9.1045695,10 10,9.1045695 10,8 C10,6.8954305 9.1045695,6 8,6 C6.8954305,6 6,6.8954305 6,8 C6,9.1045695 6.8954305,10 8,10 Z" id="path-1"></path>
    </defs>
    <g id="Symbols" stroke="none" stroke-width="1" fill="none" fill-rule="evenodd">
        <g id="Icons-/-Video-Call-/-16-/-Settings">
            <mask id="mask-2" fill="white">
                <use xlink:href="#path-1"></use>
            </mask>
            <use id="Combined-Shape" fill="#000000" fill-rule="nonzero" xlink:href="#path-1"></use>
            <g id="Colors-/-Black" mask="url(#mask-2)" fill="#000000">
                <rect id="Rectangle" x="0" y="0" width="16" height="16"></rect>
            </g>
        </g>
    </g>
</svg>