<svg width="16" height="16" viewBox="0 0 16 16" fill="none" xmlns="http://www.w3.org/2000/svg"><path d="M10.000 3.507 L 10.000 6.000 13.000 6.000 L 16.000 6.000 16.000 3.507 L 16.000 1.013 13.000 1.013 L 10.000 1.013 10.000 3.507 M14.987 3.507 L 14.987 5.013 13.000 5.013 L 11.013 5.013 11.013 3.507 L 11.013 2.000 13.000 2.000 L 14.987 2.000 14.987 3.507 M0.000 9.013 L 0.000 15.013 7.000 15.013 L 14.000 15.013 14.000 11.013 L 14.000 7.013 13.493 7.013 L 12.987 7.013 12.987 10.507 L 12.987 14.000 7.000 14.000 L 1.013 14.000 1.013 9.000 L 1.013 4.000 5.013 4.000 L 9.013 4.000 9.013 3.507 L 9.013 3.013 4.507 3.013 L 0.000 3.013 0.000 9.013 " fill="#455065" stroke="none" fill-rule="evenodd"></path></svg>