<svg width="24" height="24" viewBox="0 0 24 24" fill="none" xmlns="http://www.w3.org/2000/svg"><path d="M13.000 6.500 L 13.000 10.000 18.500 10.000 L 24.000 10.000 24.000 6.500 L 24.000 3.000 18.500 3.000 L 13.000 3.000 13.000 6.500 M23.000 6.500 L 23.000 9.000 18.500 9.000 L 14.000 9.000 14.000 6.500 L 14.000 4.000 18.500 4.000 L 23.000 4.000 23.000 6.500 M0.000 13.500 L 0.000 21.000 9.500 21.000 L 19.000 21.000 19.000 16.000 L 19.000 11.000 18.500 11.000 L 18.000 11.000 18.000 15.500 L 18.000 20.000 9.500 20.000 L 1.000 20.000 1.000 13.500 L 1.000 7.000 6.500 7.000 L 12.000 7.000 12.000 6.500 L 12.000 6.000 6.000 6.000 L 0.000 6.000 0.000 13.500 " fill="#455065" stroke="none" fill-rule="evenodd"></path></svg>