<svg width="24" height="24" viewBox="0 0 24 24" fill="none" xmlns="http://www.w3.org/2000/svg">
  <g clip-path="url(#clip0_2720_13)">
    <path fill-rule="evenodd" clip-rule="evenodd" d="M12.0324 0.070558L11.9309 0.0493164L11.8292 0.0702192L2.39925 2.01022L2 2.09235V2.49996V11.7C2 16.6531 5.08184 21.1272 9.82548 23.1306L9.82565 23.1306L11.7456 23.9406L11.8094 23.9675L11.878 23.9761L11.94 23.48C11.878 23.9761 11.878 23.9761 11.8781 23.9761L11.8782 23.9761L11.8783 23.9761L11.8787 23.9762L11.8796 23.9763L11.8817 23.9766L11.8873 23.9772L11.9042 23.979C11.9173 23.9803 11.936 23.9819 11.9575 23.983C11.9777 23.9841 12.0073 23.9851 12.0401 23.9838C12.0624 23.9829 12.1311 23.98 12.2081 23.9543L12.2265 23.9482L12.2444 23.9406L14.1644 23.1306L14.1645 23.1306C18.9079 21.1273 21.99 16.6634 21.99 11.7V2.55996V2.15374L21.5924 2.07056L12.0324 0.070558ZM13.7755 22.2094L11.995 22.9605L10.2145 22.2094C5.81816 20.3527 3 16.2268 3 11.7V2.90757L11.9291 1.07061L20.99 2.96618V11.7C20.99 16.2365 18.1721 20.3526 13.7755 22.2094ZM10.8536 14.8535L17.3536 8.35346L16.6465 7.64635L10.5 13.7928L7.38358 10.6764L6.67648 11.3835L10.1465 14.8535L10.5 15.207L10.8536 14.8535Z" fill="#455065"/>
  </g>
  <defs>
    <clipPath id="clip0_2720_13">
      <rect width="24" height="24" fill="white"/>
    </clipPath>
  </defs>
</svg>
