<svg width="17" height="16" viewBox="0 0 16 16" fill="none" xmlns="http://www.w3.org/2000/svg"><path d="M7.752 0.028 C 6.032 0.246,4.650 1.518,4.307 3.201 C 4.276 3.354,4.250 3.487,4.250 3.497 C 4.250 3.506,3.820 3.514,3.294 3.514 C 2.379 3.515,2.329 3.518,2.152 3.578 C 1.670 3.742,1.340 4.068,1.172 4.545 C 1.115 4.705,-0.000 13.278,0.000 13.551 C 0.000 14.637,0.791 15.643,1.868 15.925 C 2.074 15.979,2.218 15.980,8.230 15.980 C 14.347 15.980,14.381 15.980,14.590 15.922 C 14.706 15.890,14.893 15.821,15.006 15.769 C 15.864 15.372,16.435 14.483,16.436 13.543 C 16.436 13.320,16.298 12.189,15.881 8.996 C 15.577 6.658,15.307 4.676,15.283 4.591 C 15.155 4.146,14.824 3.786,14.365 3.594 C 14.215 3.531,14.173 3.528,13.205 3.514 L 12.202 3.499 12.138 3.202 C 11.931 2.226,11.410 1.402,10.627 0.811 C 10.327 0.586,9.851 0.330,9.520 0.218 C 9.020 0.047,8.252 -0.035,7.752 0.028 M8.821 1.067 C 9.717 1.239,10.519 1.864,10.923 2.705 C 11.045 2.960,11.163 3.325,11.163 3.449 L 11.163 3.513 8.217 3.513 C 6.083 3.513,5.270 3.505,5.270 3.482 C 5.270 3.318,5.458 2.801,5.623 2.512 C 6.261 1.391,7.529 0.818,8.821 1.067 M4.222 5.532 C 4.222 6.119,4.234 6.602,4.250 6.660 C 4.282 6.774,4.424 6.924,4.542 6.968 C 4.759 7.050,5.028 6.956,5.143 6.759 L 5.213 6.639 5.213 5.572 L 5.213 4.505 8.217 4.505 L 11.220 4.505 11.221 5.546 C 11.221 6.498,11.226 6.597,11.274 6.701 C 11.447 7.077,11.939 7.104,12.148 6.748 L 12.226 6.616 12.235 5.560 L 12.244 4.505 13.090 4.505 C 13.618 4.505,13.966 4.516,14.016 4.535 C 14.127 4.577,14.273 4.725,14.307 4.829 C 14.345 4.944,15.442 13.366,15.441 13.538 C 15.439 14.209,14.919 14.830,14.237 14.974 C 13.943 15.036,2.495 15.037,2.202 14.975 C 1.740 14.877,1.374 14.592,1.166 14.167 C 0.980 13.789,0.973 13.657,1.090 12.747 C 1.541 9.228,2.103 4.953,2.125 4.870 C 2.164 4.728,2.256 4.620,2.392 4.559 C 2.496 4.511,2.592 4.506,3.365 4.506 L 4.222 4.505 4.222 5.532 " fill="#455065" stroke="none" fill-rule="evenodd"></path></svg>