<svg width="25" height="24" viewBox="0 0 24 24" fill="none" xmlns="http://www.w3.org/2000/svg"><path d="M11.521 0.544 C 9.557 0.813,7.891 2.088,7.145 3.894 C 6.977 4.301,6.817 4.884,6.770 5.258 L 6.741 5.496 4.860 5.508 L 2.979 5.521 2.750 5.629 C 2.358 5.813,2.071 6.122,1.937 6.502 C 1.864 6.709,-0.000 20.962,-0.000 21.314 C 0.000 21.912,0.275 22.534,0.746 23.001 C 1.110 23.362,1.431 23.548,1.900 23.668 C 2.216 23.749,2.398 23.750,12.225 23.749 C 23.304 23.749,22.470 23.770,23.067 23.475 C 23.797 23.115,24.305 22.395,24.424 21.551 C 24.467 21.242,24.432 20.948,23.513 13.917 C 22.640 7.232,22.548 6.584,22.448 6.366 C 22.314 6.073,22.033 5.793,21.717 5.638 L 21.479 5.521 19.595 5.508 L 17.711 5.496 17.686 5.342 C 17.453 3.922,16.978 2.975,16.048 2.073 C 15.259 1.308,14.343 0.824,13.271 0.605 C 12.868 0.522,11.922 0.490,11.521 0.544 M13.150 1.600 C 14.930 1.979,16.302 3.386,16.638 5.177 L 16.698 5.500 12.224 5.500 L 7.749 5.500 7.776 5.323 C 8.067 3.415,9.591 1.873,11.493 1.561 C 11.927 1.490,12.722 1.509,13.150 1.600 M6.708 7.772 C 6.708 9.185,6.721 9.266,6.966 9.416 C 7.131 9.516,7.293 9.523,7.460 9.437 C 7.700 9.313,7.708 9.258,7.708 7.815 L 7.708 6.500 12.208 6.500 L 16.708 6.500 16.708 7.772 C 16.708 9.185,16.721 9.266,16.966 9.416 C 17.131 9.516,17.293 9.523,17.460 9.437 C 17.700 9.313,17.708 9.258,17.708 7.815 L 17.708 6.500 19.442 6.500 C 21.364 6.500,21.405 6.505,21.525 6.767 C 21.595 6.918,23.423 20.843,23.426 21.252 C 23.431 21.750,23.188 22.212,22.776 22.489 C 22.358 22.770,23.173 22.750,12.226 22.750 C 2.363 22.750,2.299 22.749,2.026 22.665 C 1.503 22.504,1.082 21.980,1.019 21.414 C 1.001 21.246,1.235 19.349,1.932 14.012 C 2.448 10.066,2.891 6.797,2.917 6.749 C 2.943 6.701,3.023 6.626,3.096 6.581 C 3.222 6.505,3.320 6.500,4.969 6.500 L 6.708 6.500 6.708 7.772 " fill="#455065" stroke="none" fill-rule="evenodd"></path></svg>