<svg width="16" height="16" viewBox="0 0 16 16" fill="none" xmlns="http://www.w3.org/2000/svg"><path d="M5.500 1.500 L 5.147 1.854 6.573 3.280 L 8.000 4.706 9.427 3.280 L 10.853 1.854 10.500 1.500 L 10.147 1.146 9.074 2.220 L 8.000 3.293 6.926 2.220 L 5.853 1.146 5.500 1.500 M2.000 6.493 L 2.000 6.987 8.000 6.987 L 14.000 6.987 14.000 6.493 L 14.000 6.000 8.000 6.000 L 2.000 6.000 2.000 6.493 M2.000 9.507 L 2.000 10.000 8.000 10.000 L 14.000 10.000 14.000 9.507 L 14.000 9.013 8.000 9.013 L 2.000 9.013 2.000 9.507 M6.567 12.727 L 5.147 14.147 5.500 14.500 L 5.853 14.853 6.927 13.780 L 8.000 12.707 9.074 13.780 L 10.147 14.854 10.500 14.500 L 10.853 14.146 9.433 12.726 C 8.652 11.946,8.007 11.307,8.000 11.307 C 7.992 11.307,7.348 11.946,6.567 12.727 " fill="#455065" stroke="none" fill-rule="evenodd"></path></svg>