<svg width="24" height="24" viewBox="0 0 24 24" fill="none" xmlns="http://www.w3.org/2000/svg"><path d="M7.510 1.510 L 7.161 1.861 9.580 4.280 L 12.000 6.700 14.420 4.280 L 16.839 1.861 16.490 1.510 L 16.141 1.159 14.070 3.230 L 12.000 5.300 9.930 3.230 L 7.859 1.159 7.510 1.510 M3.000 9.500 L 3.000 10.000 12.000 10.000 L 21.000 10.000 21.000 9.500 L 21.000 9.000 12.000 9.000 L 3.000 9.000 3.000 9.500 M3.000 14.500 L 3.000 15.000 12.000 15.000 L 21.000 15.000 21.000 14.500 L 21.000 14.000 12.000 14.000 L 3.000 14.000 3.000 14.500 M9.570 19.730 L 7.160 22.140 7.510 22.490 L 7.860 22.840 9.930 20.770 L 12.000 18.700 14.070 20.770 L 16.141 22.841 16.490 22.490 L 16.839 22.139 14.430 19.730 C 13.104 18.404,12.011 17.320,12.000 17.320 C 11.989 17.320,10.895 18.405,9.570 19.730 " fill="#455065" stroke="none" fill-rule="evenodd"></path></svg>