<?xml version="1.0" encoding="UTF-8"?>
<svg width="24px" height="24px" viewBox="0 0 24 24" version="1.1" xmlns="http://www.w3.org/2000/svg" xmlns:xlink="http://www.w3.org/1999/xlink">
    <!-- Generator: sketchtool 54.1 (76490) - https://sketchapp.com -->
    <title>8bfcb549-7c28-4cbd-9cd9-45fb40a3d9e3@1.00x</title>
    <desc>Created with sketchtool.</desc>
    <defs>
        <path d="M14.5,5.20710678 L2,17.7071068 L2,22 L6.29289322,22 L18.7928932,9.5 L14.5,5.20710678 Z M15.2071068,4.5 L19.5,8.79289322 L21.7928932,6.5 L17.5,2.20710678 L15.2071068,4.5 Z M3.5,7.79289322 L5.5,5.79289322 L6.20710678,6.5 L4.20710678,8.5 L5.5,9.79289322 L6.14644661,9.14644661 L6.85355339,9.85355339 L5.5,11.2071068 L0.792893219,6.5 L6.5,0.792893219 L10.8535534,5.14644661 L10.1464466,5.85355339 L6.5,2.20710678 L2.20710678,6.5 L3.5,7.79289322 Z M15.5,19.7928932 L17.5,17.7928932 L18.2071068,18.5 L16.2071068,20.5 L17.5,21.7928932 L21.7928932,17.5 L18.1464466,13.8535534 L18.8535534,13.1464466 L23.2071068,17.5 L17.5,23.2071068 L12.7928932,18.5 L14.1464466,17.1464466 L14.8535534,17.8535534 L14.2071068,18.5 L15.5,19.7928932 Z M1,17.2928932 L17.5,0.792893219 L23.2071068,6.5 L6.70710678,23 L1,23 L1,17.2928932 Z" id="path-1"></path>
    </defs>
    <g id="Symbols" stroke="none" stroke-width="1" fill="none" fill-rule="evenodd">
        <g id="Icons-/-Resume-Builder-/-24-/-Skills">
            <mask id="mask-2" fill="white">
                <use xlink:href="#path-1"></use>
            </mask>
            <use id="Combined-Shape" fill="#000000" fill-rule="nonzero" xlink:href="#path-1"></use>
            <g id="Colors-/-Black" mask="url(#mask-2)" fill="#000000">
                <rect id="Rectangle" x="0" y="0" width="24" height="24"></rect>
            </g>
        </g>
    </g>
</svg>