<?xml version="1.0" encoding="UTF-8"?>
<svg width="16px" height="16px" viewBox="0 0 16 16" version="1.1" xmlns="http://www.w3.org/2000/svg" xmlns:xlink="http://www.w3.org/1999/xlink">
    <!-- Generator: sketchtool 59.1 (101010) - https://sketch.com -->
    <title>27088537-b426-4ded-ad7c-d970a2e73f19@1.00x</title>
    <desc>Created with sketchtool.</desc>
    <defs>
        <path d="M3.36142857,10.1107143 C3.36142857,11.0357143 2.60571429,11.7914286 1.68071429,11.7914286 C0.755714286,11.7914286 0,11.0357143 0,10.1107143 C0,9.18571429 0.755714286,8.43 1.68071429,8.43 L3.36142857,8.43 L3.36142857,10.1107143 Z M4.20857143,10.1107143 C4.20857143,9.18571429 4.96428571,8.43 5.88928571,8.43 C6.81428571,8.43 7.57,9.18571429 7.57,10.1107143 L7.57,14.3192857 C7.57,15.2442857 6.81428571,16 5.88928571,16 C4.96428571,16 4.20857143,15.2442857 4.20857143,14.3192857 L4.20857143,10.1107143 Z M5.88928571,3.36142857 C4.96428571,3.36142857 4.20857143,2.60571429 4.20857143,1.68071429 C4.20857143,0.755714286 4.96428571,2.84217094e-14 5.88928571,2.84217094e-14 C6.81428571,2.84217094e-14 7.57,0.755714286 7.57,1.68071429 L7.57,3.36142857 L5.88928571,3.36142857 Z M5.88928571,4.20857143 C6.81428571,4.20857143 7.57,4.96428571 7.57,5.88928571 C7.57,6.81428571 6.81428571,7.57 5.88928571,7.57 L1.68071429,7.57 C0.755714286,7.57 0,6.81428571 0,5.88928571 C0,4.96428571 0.755714286,4.20857143 1.68071429,4.20857143 L5.88928571,4.20857143 Z M12.6385714,5.88928571 C12.6385714,4.96428571 13.3942857,4.20857143 14.3192857,4.20857143 C15.2442857,4.20857143 16,4.96428571 16,5.88928571 C16,6.81428571 15.2442857,7.57 14.3192857,7.57 L12.6385714,7.57 L12.6385714,5.88928571 Z M11.7914286,5.88928571 C11.7914286,6.81428571 11.0357143,7.57 10.1107143,7.57 C9.18571429,7.57 8.43,6.81428571 8.43,5.88928571 L8.43,1.68071429 C8.43,0.755714286 9.18571429,2.84217094e-14 10.1107143,2.84217094e-14 C11.0357143,2.84217094e-14 11.7914286,0.755714286 11.7914286,1.68071429 L11.7914286,5.88928571 Z M10.1107143,12.6385714 C11.0357143,12.6385714 11.7914286,13.3942857 11.7914286,14.3192857 C11.7914286,15.2442857 11.0357143,16 10.1107143,16 C9.18571429,16 8.43,15.2442857 8.43,14.3192857 L8.43,12.6385714 L10.1107143,12.6385714 Z M10.1107143,11.7914286 C9.18571429,11.7914286 8.43,11.0357143 8.43,10.1107143 C8.43,9.18571429 9.18571429,8.43 10.1107143,8.43 L14.3192857,8.43 C15.2442857,8.43 16,9.18571429 16,10.1107143 C16,11.0357143 15.2442857,11.7914286 14.3192857,11.7914286 L10.1107143,11.7914286 L10.1107143,11.7914286 Z" id="path-1"></path>
    </defs>
    <g id="Symbols" stroke="none" stroke-width="1" fill="none" fill-rule="evenodd">
        <g id="Icons-/-Social-Media-/-16-/-Slack">
            <mask id="mask-2" fill="white">
                <use xlink:href="#path-1"></use>
            </mask>
            <use id="Shape" fill="#000000" fill-rule="nonzero" xlink:href="#path-1"></use>
            <g id="Colors-/-305-Dark-Grey" mask="url(#mask-2)" fill="#455065">
                <rect id="Rectangle" x="0" y="0" width="16" height="16"></rect>
            </g>
        </g>
    </g>
</svg>