<svg width="24" height="24" viewBox="0 0 24 24" fill="none" xmlns="http://www.w3.org/2000/svg"><path d="M16.040 1.500 L 16.040 1.999 18.820 2.010 L 21.600 2.020 18.800 6.687 L 16.000 11.353 16.000 11.677 L 16.000 12.000 19.500 12.000 L 23.000 12.000 23.000 11.500 L 23.000 11.000 20.197 11.000 C 18.655 11.000,17.399 10.986,17.407 10.968 C 17.414 10.951,18.675 8.846,20.210 6.292 L 23.000 1.649 23.000 1.324 L 23.000 1.000 19.520 1.000 L 16.040 1.000 16.040 1.500 M8.040 9.500 L 8.040 10.000 10.318 10.000 L 12.595 10.000 10.298 13.676 L 8.000 17.352 8.000 17.676 L 8.000 18.000 11.000 18.000 L 14.000 18.000 14.000 17.500 L 14.000 17.000 11.702 17.000 L 9.405 17.000 11.702 13.324 L 14.000 9.648 14.000 9.324 L 14.000 9.000 11.020 9.000 L 8.040 9.000 8.040 9.500 M1.040 16.500 L 1.040 17.000 2.800 17.000 L 4.560 17.000 2.780 19.670 L 1.000 22.340 1.000 22.670 L 1.000 23.000 3.500 23.000 L 6.000 23.000 6.000 22.500 L 6.000 22.000 4.220 22.000 L 2.440 22.000 4.220 19.330 L 6.000 16.660 6.000 16.330 L 6.000 16.000 3.520 16.000 L 1.040 16.000 1.040 16.500 " fill="#455065" stroke="none" fill-rule="evenodd"></path></svg>