<svg width="16" height="16" viewBox="0 0 16 16" fill="none" xmlns="http://www.w3.org/2000/svg"><path d="M10.993 0.500 L 11.000 1.000 12.767 1.007 C 13.738 1.011,14.533 1.020,14.533 1.027 C 14.533 1.034,13.735 2.238,12.759 3.701 L 10.985 6.363 10.992 6.681 L 11.000 7.000 13.500 7.007 L 16.000 7.014 16.000 6.507 L 16.000 6.000 14.227 6.000 C 13.251 6.000,12.453 5.994,12.453 5.987 C 12.453 5.979,13.251 4.776,14.227 3.313 L 16.000 0.653 16.000 0.327 L 16.000 0.000 13.493 0.000 L 10.985 0.000 10.993 0.500 M4.993 6.500 L 5.000 7.000 6.300 7.013 L 7.600 7.027 6.293 9.204 L 4.987 11.382 4.987 11.691 L 4.987 12.000 7.000 12.000 L 9.013 12.000 9.013 11.507 L 9.013 11.013 7.704 11.013 C 6.516 11.013,6.396 11.009,6.411 10.971 C 6.420 10.947,7.009 9.958,7.720 8.773 L 9.013 6.618 9.013 6.309 L 9.013 6.000 6.999 6.000 L 4.985 6.000 4.993 6.500 M0.000 11.507 L 0.000 12.000 0.840 12.000 C 1.302 12.000,1.680 12.006,1.680 12.013 C 1.680 12.021,1.302 12.783,0.840 13.707 L 0.000 15.387 0.000 15.693 L 0.000 16.000 1.507 16.000 L 3.013 16.000 3.013 15.507 L 3.013 15.013 2.173 15.013 C 1.629 15.013,1.333 15.004,1.333 14.987 C 1.333 14.972,1.711 14.204,2.173 13.280 L 3.013 11.600 3.013 11.307 L 3.013 11.013 1.507 11.013 L 0.000 11.013 0.000 11.507 " fill="#455065" stroke="none" fill-rule="evenodd"></path></svg>