<svg width="24" height="24" viewBox="0 0 24 24" fill="none" xmlns="http://www.w3.org/2000/svg">
<g clip-path="url(#clip0_2453_14)">
<path d="M18 13C16.6549 11.6425 15.779 9.89058 15.5 8C15.2297 9.89332 14.3526 11.6479 13.0002 13.0002C11.6479 14.3526 9.89332 15.2297 8 15.5C9.89332 15.7703 11.6479 16.6474 13.0002 17.9998C14.3526 19.3521 15.2297 21.1067 15.5 23C15.7703 21.1067 16.6474 19.3521 17.9998 17.9998C19.3521 16.6474 21.1067 15.7703 23 15.5C21.1075 15.227 19.3539 14.3502 18 13Z" fill="#455065"/>
<path d="M5.33 7.67C4.61606 6.94262 4.15052 6.00803 4 5C3.84948 6.00803 3.38394 6.94262 2.67 7.67C1.94383 8.38564 1.00866 8.85148 0 9C1.00866 9.14852 1.94383 9.61436 2.67 10.33C3.38394 11.0574 3.84948 11.992 4 13C4.14206 11.9894 4.6092 11.0525 5.33084 10.3308C6.05248 9.6092 6.98939 9.14206 8 9C6.99134 8.85148 6.05617 8.38564 5.33 7.67Z" fill="#455065"/>
<path d="M21.6667 2.33333C21.0406 1.69863 20.6321 0.881651 20.5 0C20.3679 0.881651 19.9594 1.69863 19.3333 2.33333C18.702 2.9641 17.8834 3.37342 17 3.5C17.8834 3.62658 18.702 4.0359 19.3333 4.66667C19.9594 5.30137 20.3679 6.11835 20.5 7C20.6321 6.11835 21.0406 5.30137 21.6667 4.66667C22.298 4.0359 23.1166 3.62658 24 3.5C23.1166 3.37342 22.298 2.9641 21.6667 2.33333Z" fill="#455065"/>
</g>
<defs>
<clipPath id="clip0_2453_14">
<rect width="24" height="24" fill="white"/>
</clipPath>
</defs>
</svg>
