<svg width="16" height="16" viewBox="0 0 16 16" fill="none" xmlns="http://www.w3.org/2000/svg">
<g clip-path="url(#clip0_2453_15)">
<path d="M11.3333 8.66667C10.3457 7.67205 9.70312 6.38688 9.5 5C9.30229 6.38863 8.65919 7.67557 7.66738 8.66738C6.67557 9.65919 5.38863 10.3023 4 10.5C5.38863 10.6977 6.67557 11.3408 7.66738 12.3326C8.65919 13.3244 9.30229 14.6114 9.5 16C9.69771 14.6114 10.3408 13.3244 11.3326 12.3326C12.3244 11.3408 13.6114 10.6977 15 10.5C13.6131 10.2969 12.328 9.6543 11.3333 8.66667Z" fill="#455065"/>
<path d="M3.98491 4.00375C3.44211 3.46023 3.08896 2.75791 2.97736 2C2.86575 2.75791 2.5126 3.46023 1.96981 4.00375C1.43525 4.53504 0.746089 4.88556 0 5.00563C0.763258 5.10558 1.47179 5.45389 2.01509 5.99625C2.55789 6.53977 2.91104 7.24209 3.02264 8C3.1217 7.24754 3.45867 6.54586 3.98491 5.99625C4.5297 5.45596 5.23749 5.10801 6 5.00563C5.23853 4.89237 4.53291 4.54155 3.98491 4.00375Z" fill="#455065"/>
<path d="M13.996 1.992C13.4618 1.44997 13.1131 0.752585 13 0C12.8869 0.752585 12.5382 1.44997 12.004 1.992C11.4604 2.53286 10.7583 2.88601 10 3C10.7592 3.10317 11.4634 3.45315 12.004 3.996C12.5405 4.54123 12.8893 5.24315 13 6C13.1107 5.24315 13.4595 4.54123 13.996 3.996C14.5367 3.45315 15.2408 3.10317 16 3C15.2417 2.88601 14.5396 2.53286 13.996 1.992Z" fill="#455065"/>
</g>
<defs>
<clipPath id="clip0_2453_15">
<rect width="16" height="16" fill="white"/>
</clipPath>
</defs>
</svg>
