<svg width="16" height="16" viewBox="0 0 16 16" fill="none" xmlns="http://www.w3.org/2000/svg"><path d="M7.192 2.135 L 6.401 3.736 6.618 4.315 C 6.737 4.633,6.845 4.922,6.858 4.958 C 6.879 5.014,6.953 4.880,7.433 3.911 C 7.736 3.300,7.991 2.800,8.000 2.800 C 8.010 2.800,8.394 3.562,8.854 4.493 C 9.314 5.425,9.700 6.187,9.712 6.187 C 9.759 6.187,13.426 6.724,13.434 6.732 C 13.439 6.737,12.831 7.337,12.084 8.066 C 11.156 8.971,10.729 9.405,10.736 9.435 C 10.782 9.636,11.360 13.102,11.350 13.113 C 11.342 13.120,10.592 12.735,9.683 12.257 C 8.773 11.778,8.016 11.387,8.000 11.387 C 7.975 11.387,6.459 12.173,6.431 12.200 C 6.409 12.222,5.901 13.602,5.918 13.595 C 5.929 13.590,6.402 13.343,6.969 13.044 L 8.001 12.502 10.338 13.731 C 11.624 14.407,12.681 14.955,12.687 14.949 C 12.693 14.943,12.497 13.765,12.251 12.332 L 11.805 9.727 12.116 9.430 C 12.287 9.267,13.141 8.437,14.013 7.587 C 15.508 6.128,15.594 6.039,15.526 6.022 C 15.486 6.013,14.313 5.840,12.920 5.639 C 11.527 5.438,10.373 5.260,10.356 5.243 C 10.339 5.227,9.806 4.160,9.172 2.873 C 8.537 1.586,8.010 0.533,8.000 0.533 C 7.991 0.533,7.627 1.254,7.192 2.135 M5.133 5.147 L 4.787 5.494 6.040 6.747 L 7.293 8.000 3.647 8.000 L 0.000 8.000 0.000 8.507 L 0.000 9.013 3.633 9.013 L 7.266 9.013 6.027 10.253 L 4.787 11.493 5.147 11.853 L 5.507 12.213 7.360 10.360 L 9.213 8.507 7.360 6.653 C 6.341 5.634,5.501 4.800,5.493 4.800 C 5.485 4.800,5.324 4.956,5.133 5.147 " fill="#455065" stroke="none" fill-rule="evenodd"></path></svg>