<svg width="16" height="16" viewBox="0 0 16 16" fill="none" xmlns="http://www.w3.org/2000/svg"><path d="M6.828 2.873 C 6.194 4.160,5.661 5.227,5.644 5.243 C 5.627 5.260,4.473 5.438,3.080 5.639 C 1.687 5.840,0.514 6.013,0.474 6.022 C 0.406 6.039,0.492 6.128,1.987 7.587 C 2.859 8.437,3.713 9.267,3.884 9.430 L 4.195 9.727 3.749 12.332 C 3.503 13.765,3.307 14.943,3.313 14.949 C 3.319 14.955,4.376 14.407,5.662 13.731 L 8.000 12.502 9.030 13.044 C 9.597 13.343,10.070 13.590,10.081 13.595 C 10.099 13.602,9.592 12.222,9.569 12.201 C 9.537 12.172,8.025 11.387,8.001 11.387 C 7.985 11.387,7.227 11.778,6.317 12.256 C 5.408 12.735,4.657 13.119,4.649 13.112 C 4.638 13.101,5.217 9.638,5.264 9.435 C 5.271 9.405,4.845 8.972,3.915 8.066 C 3.168 7.337,2.561 6.737,2.566 6.732 C 2.574 6.723,6.241 6.187,6.289 6.187 C 6.300 6.187,6.686 5.425,7.146 4.493 C 7.606 3.562,7.990 2.800,8.000 2.800 C 8.009 2.800,8.265 3.301,8.567 3.912 C 9.050 4.890,9.120 5.017,9.141 4.959 C 9.155 4.923,9.263 4.633,9.382 4.315 L 9.599 3.736 8.808 2.135 C 8.373 1.254,8.009 0.533,8.000 0.533 C 7.990 0.533,7.463 1.586,6.828 2.873 M11.133 5.147 L 10.787 5.494 12.040 6.747 L 13.293 8.000 9.647 8.000 L 6.000 8.000 6.000 8.507 L 6.000 9.013 9.633 9.013 L 13.266 9.013 12.027 10.253 L 10.787 11.493 11.147 11.853 L 11.507 12.213 13.360 10.360 L 15.213 8.507 13.360 6.653 C 12.341 5.634,11.501 4.800,11.493 4.800 C 11.485 4.800,11.324 4.956,11.133 5.147 " fill="#455065" stroke="none" fill-rule="evenodd"></path></svg>