<svg width="24" height="24" viewBox="0 0 24 24" fill="none" xmlns="http://www.w3.org/2000/svg"><path d="M10.995 4.031 L 10.014 6.023 10.238 6.695 L 10.463 7.368 11.220 5.844 C 11.636 5.006,11.988 4.320,12.001 4.320 C 12.015 4.320,12.599 5.481,13.300 6.900 C 14.001 8.319,14.585 9.479,14.598 9.479 C 14.705 9.472,20.279 10.303,20.271 10.325 C 20.265 10.340,19.396 11.193,18.340 12.220 C 17.284 13.247,16.360 14.146,16.287 14.218 L 16.153 14.348 16.639 17.179 C 16.906 18.736,17.116 20.018,17.105 20.028 C 17.095 20.039,15.954 19.451,14.569 18.724 C 13.185 17.996,12.029 17.400,12.002 17.400 C 11.974 17.400,11.477 17.648,10.897 17.950 L 9.843 18.500 9.622 19.157 C 9.501 19.519,9.409 19.822,9.419 19.832 C 9.428 19.841,10.005 19.550,10.701 19.185 C 11.397 18.819,11.982 18.520,12.000 18.520 C 12.018 18.520,13.476 19.278,15.239 20.205 C 17.001 21.131,18.449 21.883,18.455 21.875 C 18.460 21.867,18.200 20.321,17.876 18.440 C 17.552 16.559,17.276 14.946,17.262 14.856 L 17.237 14.692 19.841 12.156 L 22.445 9.620 22.312 9.590 C 22.240 9.573,20.626 9.335,18.726 9.060 C 16.826 8.785,15.260 8.552,15.246 8.543 C 15.232 8.535,14.501 7.068,13.622 5.284 C 12.743 3.500,12.013 2.040,12.000 2.040 C 11.987 2.040,11.534 2.936,10.995 4.031 M9.150 8.150 L 8.800 8.500 10.550 10.250 L 12.300 12.000 6.650 12.000 L 1.000 12.000 1.000 12.500 L 1.000 13.000 6.650 13.000 L 12.300 13.000 10.549 14.751 L 8.799 16.501 9.150 16.850 L 9.501 17.199 11.850 14.850 L 14.200 12.500 11.850 10.150 L 9.500 7.800 9.150 8.150 " fill="#455065" stroke="none" fill-rule="evenodd"></path></svg>