<svg width="24" height="24" viewBox="0 0 24 24" fill="none" xmlns="http://www.w3.org/2000/svg"><path d="M10.384 5.270 C 9.509 7.047,8.781 8.513,8.766 8.529 C 8.751 8.545,7.182 8.783,5.279 9.059 C 3.377 9.334,1.760 9.573,1.687 9.590 L 1.555 9.620 4.157 12.155 C 5.589 13.549,6.759 14.710,6.758 14.735 C 6.757 14.760,6.481 16.373,6.145 18.320 C 5.809 20.267,5.539 21.867,5.545 21.875 C 5.551 21.883,6.999 21.131,8.761 20.205 C 10.524 19.278,11.982 18.520,12.000 18.520 C 12.018 18.520,12.603 18.819,13.299 19.185 C 13.995 19.550,14.572 19.841,14.581 19.832 C 14.591 19.822,14.499 19.519,14.378 19.157 L 14.157 18.500 13.103 17.950 C 12.523 17.648,12.026 17.400,11.998 17.400 C 11.971 17.400,10.815 17.996,9.431 18.724 C 8.046 19.451,6.905 20.038,6.895 20.028 C 6.884 20.017,7.094 18.735,7.361 17.178 L 7.847 14.348 7.713 14.218 C 7.640 14.146,6.716 13.247,5.660 12.220 C 4.604 11.193,3.735 10.340,3.729 10.325 C 3.721 10.303,9.295 9.472,9.402 9.479 C 9.415 9.479,9.999 8.319,10.700 6.900 C 11.401 5.481,11.986 4.320,12.000 4.320 C 12.014 4.320,12.365 5.007,12.780 5.847 L 13.535 7.374 13.760 6.699 L 13.986 6.023 13.005 4.031 C 12.466 2.936,12.013 2.040,12.000 2.040 C 11.986 2.040,11.259 3.493,10.384 5.270 M18.150 8.150 L 17.800 8.500 19.550 10.250 L 21.300 12.000 15.650 12.000 L 10.000 12.000 10.000 12.500 L 10.000 13.000 15.650 13.000 L 21.300 13.000 19.549 14.751 L 17.799 16.501 18.150 16.850 L 18.501 17.199 20.850 14.850 L 23.200 12.500 20.850 10.150 L 18.500 7.800 18.150 8.150 " fill="#455065" stroke="none" fill-rule="evenodd"></path></svg>