<svg width="24" height="24" viewBox="0 0 24 24" fill="none" xmlns="http://www.w3.org/2000/svg"><path d="M11.320 1.024 C 9.163 1.214,7.506 1.776,5.886 2.867 C 3.796 4.275,2.283 6.284,1.524 8.657 C 1.151 9.825,1.023 10.676,1.023 12.000 C 1.023 12.727,1.041 13.104,1.093 13.460 C 1.379 15.409,2.074 17.091,3.230 18.637 C 3.685 19.244,4.756 20.315,5.363 20.770 C 6.909 21.926,8.591 22.621,10.540 22.907 C 11.212 23.005,12.788 23.005,13.460 22.907 C 15.409 22.621,17.091 21.926,18.637 20.770 C 19.244 20.315,20.315 19.244,20.770 18.637 C 21.905 17.120,22.601 15.457,22.884 13.592 C 22.994 12.859,23.025 11.626,22.949 10.926 L 22.891 10.391 18.256 5.756 L 13.620 1.120 13.320 1.080 C 12.997 1.037,11.615 0.998,11.320 1.024 M12.000 2.230 C 12.001 2.937,12.183 4.075,12.422 4.865 C 12.918 6.499,13.728 7.850,14.939 9.061 C 16.150 10.272,17.501 11.082,19.135 11.578 C 19.928 11.818,21.063 11.999,21.776 12.000 L 22.011 12.000 21.984 12.490 C 21.781 16.076,19.762 19.230,16.623 20.863 C 12.156 23.186,6.696 21.847,3.806 17.720 C 2.916 16.449,2.375 15.092,2.113 13.472 C 1.989 12.708,1.989 11.292,2.113 10.528 C 2.375 8.908,2.916 7.551,3.806 6.280 C 5.629 3.677,8.573 2.089,11.730 2.007 L 12.000 2.000 12.000 2.230 M17.549 6.453 C 19.948 8.855,21.920 10.861,21.931 10.910 C 21.951 10.995,21.940 11.000,21.726 11.000 C 21.601 11.000,21.271 10.973,20.992 10.941 C 17.913 10.580,15.276 8.717,13.923 5.944 C 13.374 4.821,13.100 3.769,13.017 2.475 L 12.990 2.049 13.088 2.068 C 13.153 2.080,14.686 3.587,17.549 6.453 " fill="#455065" stroke="none" fill-rule="evenodd"></path></svg>