<svg width="16" height="16" viewBox="0 0 16 16" fill="none" xmlns="http://www.w3.org/2000/svg"><path d="M7.467 0.017 C 5.120 0.191,3.024 1.328,1.608 3.193 C 0.799 4.260,0.296 5.477,0.073 6.906 C -0.009 7.429,-0.009 8.571,0.073 9.094 C 0.415 11.288,1.476 13.089,3.195 14.393 C 4.257 15.199,5.481 15.705,6.906 15.927 C 7.429 16.009,8.571 16.009,9.094 15.927 C 11.038 15.624,12.690 14.748,13.930 13.362 C 15.060 12.100,15.714 10.666,15.950 8.933 C 15.997 8.589,15.997 7.457,15.950 7.077 L 15.914 6.780 12.564 3.433 L 9.213 0.086 8.933 0.055 C 8.641 0.022,7.719 -0.002,7.467 0.017 M8.121 1.373 C 8.691 4.681,11.320 7.313,14.621 7.879 L 14.973 7.939 14.971 8.323 C 14.958 10.049,14.084 11.927,12.714 13.171 C 11.404 14.360,9.768 14.992,8.000 14.992 C 7.086 14.992,6.262 14.838,5.440 14.514 C 3.358 13.694,1.773 11.900,1.227 9.747 C 1.059 9.083,1.027 8.807,1.027 8.000 C 1.027 7.193,1.059 6.917,1.227 6.253 C 1.720 4.306,3.087 2.622,4.893 1.733 C 5.700 1.336,6.329 1.158,7.373 1.030 C 7.417 1.025,7.590 1.022,7.757 1.024 L 8.062 1.027 8.121 1.373 M14.551 6.844 C 14.547 6.848,14.449 6.827,14.333 6.798 C 12.775 6.409,11.403 5.514,10.453 4.266 C 9.826 3.443,9.401 2.535,9.162 1.507 C 9.148 1.445,9.780 2.062,11.851 4.132 C 13.340 5.620,14.555 6.841,14.551 6.844 " fill="#455065" stroke="none" fill-rule="evenodd"></path></svg>