<svg width="16" height="16" viewBox="0 0 16 16" fill="none" xmlns="http://www.w3.org/2000/svg"><path d="M7.140 1.054 C 5.822 1.213,4.672 1.724,3.905 2.491 C 3.232 3.164,2.934 3.933,3.015 4.787 C 3.091 5.590,3.447 6.266,4.091 6.829 L 4.302 7.013 5.316 7.013 C 5.874 7.013,6.319 7.004,6.305 6.992 C 6.291 6.980,6.172 6.924,6.040 6.867 C 5.148 6.484,4.497 5.953,4.206 5.373 C 4.027 5.015,3.960 4.549,4.037 4.187 C 4.146 3.672,4.529 3.172,5.107 2.793 C 6.915 1.604,9.935 1.787,11.366 3.172 L 11.574 3.375 11.940 3.076 C 12.141 2.912,12.310 2.763,12.316 2.745 C 12.333 2.694,11.825 2.218,11.559 2.037 C 10.761 1.491,9.890 1.178,8.827 1.053 C 8.420 1.005,7.540 1.005,7.140 1.054 M2.000 8.507 L 2.000 9.013 5.835 9.013 L 9.671 9.013 9.840 9.082 C 10.774 9.462,11.496 10.032,11.794 10.627 C 12.031 11.101,12.059 11.670,11.863 12.082 C 11.421 13.017,10.149 13.709,8.427 13.951 C 8.042 14.005,6.897 13.997,6.493 13.938 C 5.311 13.764,4.351 13.377,3.691 12.806 L 3.502 12.643 3.153 12.968 C 2.962 13.147,2.804 13.307,2.802 13.324 C 2.798 13.374,3.217 13.723,3.534 13.935 C 5.051 14.948,7.487 15.277,9.557 14.748 C 10.689 14.459,11.574 13.984,12.202 13.329 C 12.462 13.058,12.609 12.846,12.763 12.522 C 13.049 11.918,13.074 11.213,12.835 10.507 C 12.667 10.010,12.294 9.487,11.842 9.111 L 11.724 9.013 12.862 9.013 L 14.000 9.013 14.000 8.507 L 14.000 8.000 8.000 8.000 L 2.000 8.000 2.000 8.507 " fill="#455065" stroke="none" fill-rule="evenodd"></path></svg>