<svg width="24" height="24" viewBox="0 0 24 24" fill="none" xmlns="http://www.w3.org/2000/svg"><path d="M11.080 2.044 C 8.484 2.284,6.206 3.613,5.378 5.372 C 5.304 5.531,5.194 5.822,5.135 6.020 C 5.037 6.344,5.026 6.443,5.024 7.020 C 5.021 7.693,5.052 7.913,5.226 8.460 C 5.516 9.371,6.202 10.247,7.089 10.839 L 7.329 11.000 8.535 10.998 L 9.740 10.996 9.380 10.864 C 7.802 10.286,6.861 9.571,6.357 8.565 C 6.111 8.071,6.025 7.681,6.025 7.040 C 6.024 6.554,6.035 6.468,6.134 6.180 C 6.321 5.639,6.535 5.305,7.000 4.836 C 7.452 4.379,7.830 4.104,8.389 3.823 C 9.524 3.254,10.568 3.023,12.000 3.024 C 12.880 3.024,13.373 3.080,14.080 3.258 C 15.279 3.562,16.209 4.056,16.968 4.792 L 17.357 5.169 17.708 4.898 C 17.902 4.749,18.076 4.613,18.096 4.595 C 18.148 4.550,17.737 4.094,17.369 3.788 C 16.301 2.898,14.954 2.333,13.340 2.097 C 12.829 2.022,11.623 1.994,11.080 2.044 M3.000 12.500 L 3.000 13.000 8.620 13.000 L 14.240 13.000 14.690 13.165 C 16.485 13.821,17.555 14.799,17.887 16.086 C 18.003 16.537,18.013 17.311,17.907 17.660 C 17.807 17.986,17.587 18.412,17.379 18.679 C 15.646 20.907,11.281 21.675,7.950 20.336 C 7.138 20.009,6.532 19.622,5.974 19.072 C 5.746 18.846,5.632 18.760,5.594 18.783 C 5.499 18.841,4.880 19.331,4.880 19.349 C 4.880 19.400,5.298 19.836,5.566 20.065 C 8.091 22.221,12.737 22.635,16.016 20.996 C 17.544 20.232,18.565 19.113,18.896 17.840 C 18.989 17.480,19.020 16.813,18.964 16.389 C 18.787 15.070,18.114 13.997,16.963 13.204 L 16.666 13.000 18.833 13.000 L 21.000 13.000 21.000 12.500 L 21.000 12.000 12.000 12.000 L 3.000 12.000 3.000 12.500 " fill="#455065" stroke="none" fill-rule="evenodd"></path></svg>