<svg width="24" height="24" viewBox="0 0 24 24" fill="none" xmlns="http://www.w3.org/2000/svg"><path d="M2.040 8.118 L 2.040 12.236 2.141 12.554 C 2.304 13.073,2.681 13.515,3.170 13.764 C 3.659 14.013,3.117 13.999,12.120 13.999 L 20.340 14.000 17.760 16.580 L 15.180 19.160 15.530 19.510 L 15.880 19.860 19.060 16.680 L 22.240 13.500 19.060 10.320 L 15.880 7.140 15.530 7.490 L 15.180 7.840 17.760 10.420 L 20.340 13.001 12.080 12.990 C 3.958 12.980,3.817 12.979,3.661 12.901 C 3.459 12.801,3.239 12.581,3.139 12.379 C 3.062 12.224,3.060 12.105,3.049 8.110 L 3.039 4.000 2.539 4.000 L 2.040 4.000 2.040 8.118 " fill="#455065" stroke="none" fill-rule="evenodd"></path></svg>