<svg width="16" height="16" viewBox="0 0 16 16" fill="none" xmlns="http://www.w3.org/2000/svg"><path d="M0.993 5.100 L 1.001 8.200 1.061 8.413 C 1.268 9.148,1.751 9.662,2.459 9.903 L 2.707 9.987 7.493 9.994 L 12.279 10.001 10.713 11.567 L 9.146 13.134 9.507 13.493 L 9.867 13.853 12.040 11.680 L 14.213 9.507 12.034 7.327 L 9.854 5.147 9.500 5.500 L 9.146 5.853 10.707 7.413 C 11.565 8.271,12.267 8.982,12.267 8.993 C 12.267 9.026,3.135 9.017,2.933 8.985 C 2.478 8.912,2.121 8.578,2.030 8.139 C 2.009 8.040,2.000 7.091,2.000 4.999 L 2.000 2.000 1.492 2.000 L 0.985 2.000 0.993 5.100 " fill="#455065" stroke="none" fill-rule="evenodd"></path></svg>