<?xml version="1.0" encoding="UTF-8"?>
<svg width="16px" height="16px" viewBox="0 0 16 16" version="1.1" xmlns="http://www.w3.org/2000/svg" xmlns:xlink="http://www.w3.org/1999/xlink">
    <!-- Generator: sketchtool 54.1 (76490) - https://sketchapp.com -->
    <title>1eb08e77-b2f6-4b68-8ac0-dbd7fc5d731b@1.00x</title>
    <desc>Created with sketchtool.</desc>
    <defs>
        <path d="M14.2752257,15.2773425 C13.5688376,15.9846612 12.5075074,16.1958924 11.5838645,15.8079977 C6.43544091,13.656472 2.34055825,9.56326247 0.191808802,4.42112072 C-0.195579512,3.49676653 0.0151752509,2.43457013 0.721432254,1.72738275 L2.10700285,0.339986899 C2.55963883,-0.113245353 3.29225319,-0.113245353 3.74438765,0.33948543 L6.07396737,2.66552662 C6.52623895,3.118394 6.52623895,3.85083456 6.07396737,4.30370194 L5.06951448,5.30947802 L5.22797122,5.52700507 C6.69011204,7.54819484 8.46084384,9.31962662 10.4753029,10.7742843 L10.690169,10.9312166 L11.6938318,9.9262316 C12.1464678,9.47299934 12.8790821,9.47299934 13.3312166,9.92573013 L15.6607963,12.2517713 C16.1130679,12.7046387 16.1130679,13.4370793 15.6607963,13.8899466 L14.2752257,15.2773425 Z M11.971067,14.886003 C12.518444,15.1158804 13.1473618,14.9915468 13.5676536,14.5707013 L14.9532242,13.1833055 C15.0155919,13.1208556 15.0155919,13.0208623 14.9542272,12.9594153 L12.623644,10.6323708 C12.5621296,10.5707753 12.4633988,10.5707962 12.4014039,10.6328728 L10.7922786,12.2441178 L10.1003612,11.7387602 L9.88987306,11.5850074 C7.78982579,10.0685457 5.94297795,8.22152749 4.41968654,6.11579694 L3.75805531,5.20751946 L5.3663953,3.59706075 C5.42876297,3.53461092 5.42876297,3.43461764 5.36739823,3.37317064 L3.03681503,1.04612606 C2.9753007,0.984530597 2.87656985,0.984551488 2.81457492,1.04662809 L1.42900432,2.43402394 C1.00841117,2.85517115 0.884097738,3.48581248 1.11449088,4.03555908 C3.16183643,8.93503258 7.06377446,12.8352443 11.971067,14.886003 Z M10.7071253,6 L13,6 L13,7 L9,7 L9,6 L9,3 L10,3 L10,5.29291172 L14.5001005,0.792983738 L15.2071987,1.50009912 L10.7071253,6 Z" id="path-1"></path>
    </defs>
    <g id="Symbols" stroke="none" stroke-width="1" fill="none" fill-rule="evenodd">
        <g id="Icons-/-Video-Call-/-16-/-Switch">
            <mask id="mask-2" fill="white">
                <use xlink:href="#path-1"></use>
            </mask>
            <use id="Combined-Shape" fill="#000000" fill-rule="nonzero" xlink:href="#path-1"></use>
            <g id="Colors-/-Black" mask="url(#mask-2)" fill="#000000">
                <rect id="Rectangle" x="0" y="0" width="16" height="16"></rect>
            </g>
        </g>
    </g>
</svg>