<?xml version="1.0" encoding="UTF-8"?>
<svg width="24px" height="24px" viewBox="0 0 24 24" version="1.1" xmlns="http://www.w3.org/2000/svg" xmlns:xlink="http://www.w3.org/1999/xlink">
    <!-- Generator: sketchtool 54.1 (76490) - https://sketchapp.com -->
    <title>d51f8100-0d09-470d-9596-b7166d25c93c@1.00x</title>
    <desc>Created with sketchtool.</desc>
    <defs>
        <path d="M20.6284354,22.0063459 C19.6571517,22.9789091 18.1978227,23.269352 16.9278137,22.7359968 C9.84873125,19.777649 4.2182676,14.1494859 1.2637371,7.07904099 C0.731078171,5.80805398 1.02086597,4.34753393 1.99196935,3.37515129 L3.89712892,1.46748199 C4.51950339,0.844287639 5.52684814,0.844287639 6.14853302,1.46679247 L9.35170513,4.6650991 C9.97357856,5.28779174 9.97357856,6.29489752 9.35170513,6.91759017 L7.97058241,8.30053228 L8.18846043,8.59963197 C10.1989041,11.3787679 12.6336603,13.8144866 15.4035415,15.8146409 L15.6989823,16.0304228 L17.0790187,14.6485684 C17.7013932,14.0253741 18.7087379,14.0253741 19.3304228,14.6478789 L22.5335949,17.8461856 C23.1554684,18.4688782 23.1554684,19.475984 22.5335949,20.0986766 L20.6284354,22.0063459 Z M17.3150162,21.8140021 C18.2083307,22.18916 19.2353464,21.9861247 19.9208633,21.2997047 L21.8260229,19.3920354 C22.0579924,19.1597603 22.0579924,18.7851018 21.8270258,18.5538296 L18.6228502,15.3545196 C18.3917564,15.123121 18.0182952,15.1232 17.7865908,15.3552096 L15.801092,17.343324 L15.1091745,16.8379665 L14.8181117,16.625364 C11.9630042,14.5636671 9.45203317,12.0524644 7.38017575,9.18842384 L6.65912324,8.19857372 L8.64413306,6.21094898 C8.87610258,5.97867388 8.87610258,5.60401539 8.64513599,5.37274312 L5.4409604,2.1734331 C5.20986662,1.94203453 4.83640538,1.94211355 4.60470099,2.17412317 L2.69954142,4.08179247 C2.01378132,4.76845594 1.81093041,5.79751746 2.18641918,6.69347935 C5.03956442,13.5213006 10.4771095,18.95644 17.3150162,21.8140021 Z M15.7071154,9 L21,9 L21,10 L14,10 L14,9 L14,3 L15,3 L15,8.29290182 L22.5001005,0.792983738 L23.2071987,1.50009912 L15.7071154,9 Z" id="path-1"></path>
    </defs>
    <g id="Symbols" stroke="none" stroke-width="1" fill="none" fill-rule="evenodd">
        <g id="Icons-/-Video-Call-/-24-/-Switch">
            <mask id="mask-2" fill="white">
                <use xlink:href="#path-1"></use>
            </mask>
            <use id="Combined-Shape" fill="#000000" fill-rule="nonzero" xlink:href="#path-1"></use>
            <g id="Colors-/-Black" mask="url(#mask-2)" fill="#000000">
                <rect id="Rectangle" x="0" y="0" width="24" height="24"></rect>
            </g>
        </g>
    </g>
</svg>