<svg width="16" height="16" viewBox="0 0 16 16" fill="none" xmlns="http://www.w3.org/2000/svg">
<g id="Size=16">
<path id="Combined Shape" fill-rule="evenodd" clip-rule="evenodd" d="M5 1.5H1H0V2.5V5.5V6.5V9.5V10.5V13.5V14.5H1H5H6H10H11H15H16V13.5V10.5V9.5V6.5V5.5V2.5V1.5H15H11H10H6H5ZM15 2.5H11V5.5H15V2.5ZM15 6.5H11V9.5H15V6.5ZM15 10.5H11V13.5H15V10.5ZM10 10.5V13.5H6V10.5H10ZM10 6.5V9.5H6V6.5H10ZM10 2.5V5.5H6V2.5H10ZM5 2.5H1V5.5H5V2.5ZM5 6.5H1V9.5H5V6.5ZM5 10.5H1V13.5H5V10.5Z" fill="#455065"/>
</g>
</svg>
