<?xml version="1.0" encoding="UTF-8"?>
<svg width="24px" height="24px" viewBox="0 0 24 24" version="1.1" xmlns="http://www.w3.org/2000/svg" xmlns:xlink="http://www.w3.org/1999/xlink">
    <!-- Generator: sketchtool 55.2 (78181) - https://sketchapp.com -->
    <title>6c9ca7f2-4b8a-4af8-b1ae-a8fe1f385ac7@1.00x</title>
    <desc>Created with sketchtool.</desc>
    <defs>
        <path d="M5.5,5.79289322 L10.5,0.792893219 L11.2071068,1.5 L6.20710678,6.5 L5.5,7.20710678 L2.79289322,4.5 L3.5,3.79289322 L5.5,5.79289322 Z M5,1 L5,2 L1,2 L1,9 L8,9 L8,7 L9,7 L9,10 L0,10 L0,1 L5,1 Z M0,13 L9,13 L9,22 L0,22 L0,13 Z M1,14 L1,21 L8,21 L8,14 L1,14 Z M12,5 L24,5 L24,6 L12,6 L12,5 Z M12,17 L24,17 L24,18 L12,18 L12,17 Z" id="path-1"></path>
    </defs>
    <g id="Symbols" stroke="none" stroke-width="1" fill="none" fill-rule="evenodd">
        <g id="Icons-/-General-/-24-/-Tasks">
            <mask id="mask-2" fill="white">
                <use xlink:href="#path-1"></use>
            </mask>
            <use id="Combined-Shape" fill="#000000" fill-rule="nonzero" xlink:href="#path-1"></use>
            <g id="Colors-/-Black" mask="url(#mask-2)" fill="#000000">
                <rect id="Rectangle" x="0" y="0" width="24" height="24"></rect>
            </g>
        </g>
    </g>
</svg>