<?xml version="1.0" encoding="UTF-8"?>
<svg width="16px" height="16px" viewBox="0 0 16 16" version="1.1" xmlns="http://www.w3.org/2000/svg" xmlns:xlink="http://www.w3.org/1999/xlink">
    <!-- Generator: sketchtool 57.1 (101010) - https://sketch.com -->
    <title>a3ab1670-156b-45d0-ab63-096dd8be2c1e@1.00x</title>
    <desc>Created with sketchtool.</desc>
    <defs>
        <path d="M8.77773427,0.259244757 L9.5,0.5 C10.3464126,0.782137547 10.8329071,1.6683715 10.6165175,2.53392998 L9.975,5.09480806 L11.7365637,4.77517023 C13.3666928,4.47878313 14.9284427,5.55999461 15.2248298,7.19012365 C15.2893501,7.54498563 15.2893501,7.9085743 15.2248298,8.26343628 L14.5971742,11.7155418 C14.2513628,13.6175045 12.5948392,15.0000075 10.6616946,15.0000075 L9,15.0000075 C7.33601888,15.0006488 5.66935221,14.6673155 4,14 L2,14 C1.44771525,14 1,13.5522847 1,13 L1,7 C1,6.44771525 1.44771525,6 2,6 L4.45,5.99980806 L7.59326336,0.711789116 C7.82976338,0.29791409 8.32551495,0.108504983 8.77773427,0.259244757 Z M8.4615065,1.20792805 L8.45286809,1.22274872 L5.0189396,6.99976349 L5,6.99880806 L5.00049709,13.3061357 C6.34109513,13.7700925 7.67295828,14.0005189 9,14.0000083 L10.6616946,14.0000083 C12.1115508,14.0000083 13.3539454,12.9631306 13.6133043,11.5366563 L14.2409599,8.08455084 C14.2839734,7.84797619 14.2839734,7.60558374 14.2409599,7.36900909 C14.0433685,6.28225639 13.0022019,5.56144874 11.9150996,5.75910363 L8.62828874,6.35549937 L9.00497329,4.85180972 L9.64637501,2.29139435 C9.73603096,1.93277055 9.53446341,1.56558036 9.18377223,1.4486833 L8.4615065,1.20792805 Z M4,12.9998081 L4,6.99880806 L2,7 L2,13 L4,12.9998081 Z" id="path-1"></path>
    </defs>
    <g id="Symbols" stroke="none" stroke-width="1" fill="none" fill-rule="evenodd">
        <g id="Icons-/-General-/-16-/-Thumbs-Up">
            <mask id="mask-2" fill="white">
                <use xlink:href="#path-1"></use>
            </mask>
            <use id="Combined-Shape" fill="#455065" fill-rule="nonzero" xlink:href="#path-1"></use>
            <g id="Colors-/-305-Dark-Grey" mask="url(#mask-2)" fill="#455065">
                <rect id="Rectangle" x="0" y="0" width="16" height="16"></rect>
            </g>
        </g>
    </g>
</svg>
