<?xml version="1.0" encoding="UTF-8"?>
<svg width="24px" height="24px" viewBox="0 0 24 24" version="1.1" xmlns="http://www.w3.org/2000/svg" xmlns:xlink="http://www.w3.org/1999/xlink">
    <!-- Generator: sketchtool 57.1 (101010) - https://sketch.com -->
    <title>b7837f45-7b1e-4bf0-a5ff-f515512c820e@1.00x</title>
    <desc>Created with sketchtool.</desc>
    <defs>
        <path d="M11.2297057,0.99999863 C13.6778992,0.999047564 15.1300438,1.49480436 17.5861396,2.48728288 L21.5287132,2.48728288 C22.3412825,2.48728288 23,3.15315651 23,3.97455326 L23,12.8981755 C23,13.7195723 22.3412825,14.3854459 21.5287132,14.3854459 L17.9240606,14.3857314 L13.2994188,22.2504453 C12.9514594,22.8659893 12.2220667,23.1476919 11.5567224,22.9235011 L10.4940623,22.565433 C9.24874661,22.1458181 8.5329737,20.8277486 8.85134489,19.5404292 L9.79520112,15.731711 L7.20343569,16.2070989 C4.80504838,16.6479067 2.50726639,15.0398529 2.07119596,12.6154102 C1.97626801,12.0876345 1.97626801,11.5468799 2.07119596,11.0191042 L2.99465727,5.88488996 C3.50344503,3.05615705 5.94066638,0.99999863 8.78487645,0.99999863 L11.2297057,0.99999863 Z M11.2297057,1.9999968 L8.78487645,1.9999968 C6.4265226,1.9999968 4.40229729,3.70772951 3.97886389,6.06191349 L3.05540258,11.1961277 C2.98153247,11.6068271 2.98153247,12.0276873 3.05540258,12.4383867 C3.39384315,14.3200318 5.17118143,15.5638641 7.02302306,15.2235079 L11.1384559,14.4686453 L10.7658407,15.9722498 L9.82209797,19.7805093 C9.62820908,20.5644902 10.0628667,21.3648964 10.8133769,21.6177842 L11.8760369,21.9758523 C12.0856726,22.04649 12.3163597,21.9573952 12.437405,21.7435604 L17,13.9819973 L17,3.32899726 L16.8590383,3.27305884 C14.3382121,2.2698323 13.1874499,1.9992383 11.2297057,1.9999968 Z M18,13.3849973 L21.5287132,13.3854459 C21.7865646,13.3854459 22,13.1696918 22,12.8981755 L22,3.97455326 C22,3.70303701 21.7865646,3.48728288 21.5287132,3.48728288 L18,3.48699726 L18,13.3849973 Z" id="path-1"></path>
    </defs>
    <g id="Symbols" stroke="none" stroke-width="1" fill="none" fill-rule="evenodd">
        <g id="Icons-/-General-/-24-/-Thumbs-Down">
            <mask id="mask-2" fill="white">
                <use xlink:href="#path-1"></use>
            </mask>
            <use id="Combined-Shape" fill="#455065" fill-rule="nonzero" xlink:href="#path-1"></use>
            <g id="Colors-/-305-Dark-Grey" mask="url(#mask-2)" fill="#455065">
                <rect id="Rectangle" x="0" y="0" width="24" height="24"></rect>
            </g>
        </g>
    </g>
</svg>