<?xml version="1.0" encoding="UTF-8"?>
<svg width="16px" height="16px" viewBox="0 0 16 16" version="1.1" xmlns="http://www.w3.org/2000/svg" xmlns:xlink="http://www.w3.org/1999/xlink">
    <title>Icons / Documents / 16 / Timesheet</title>
    <defs>
        <path d="M3,4 L3,5 L1,5 L1,15 L14,15 L14,5 L12,5 L12,4 L15,4 L15,16 L0,16 L0,4 L3,4 Z M9,12 L9,13 L3,13 L3,12 L9,12 Z M12,12 L12,13 L10,13 L10,12 L12,12 Z M9,9 L9,10 L3,10 L3,9 L9,9 Z M12,9 L12,10 L10,10 L10,9 L12,9 Z M7.5,0 C9.43299662,0 11,1.56700338 11,3.5 C11,5.43299662 9.43299662,7 7.5,7 C5.56700338,7 4,5.43299662 4,3.5 C4,1.56700338 5.56700338,0 7.5,0 Z M7.5,1 C6.11928813,1 5,2.11928813 5,3.5 C5,4.88071187 6.11928813,6 7.5,6 C8.88071187,6 10,4.88071187 10,3.5 C10,2.11928813 8.88071187,1 7.5,1 Z M8,2 L8,4 L6,4 L6,3 L7,3 L7,2 L8,2 Z" id="path-1"></path>
    </defs>
    <g id="Icons" stroke="none" stroke-width="1" fill="none" fill-rule="evenodd">
        <g transform="translate(-625.000000, -1087.000000)">
            <rect fill="#FFFFFF" x="0" y="0" width="2321" height="2687"></rect>
            <g id="Documents" transform="translate(100.000000, 1021.000000)">
                <g id="16" transform="translate(93.000000, 66.000000)">
                    <g id="Group" transform="translate(432.000000, 0.000000)">
                        <mask id="mask-2" fill="white">
                            <use xlink:href="#path-1"></use>
                        </mask>
                        <use id="Combined-Shape" fill="#000000" fill-rule="nonzero" xlink:href="#path-1"></use>
                        <g mask="url(#mask-2)" fill="#455065" id="Colors-/-307-Gray-Dark">
                            <g>
                                <rect id="Rectangle" x="0" y="0" width="16" height="16"></rect>
                            </g>
                        </g>
                    </g>
                </g>
            </g>
        </g>
    </g>
</svg>