<svg xmlns="http://www.w3.org/2000/svg" xmlns:xlink="http://www.w3.org/1999/xlink" viewBox="0 0 24 24">
  <defs>
    <path d="M24 18a6 6 0 01-11.001 3.316L13 24h-1v-4h4v1l-2 .002a5 5 0 008.995-2.785L23 18h1zM11.5 1c5.631 0 10.227 4.433 10.488 10h-1c-.26-5.014-4.409-9-9.488-9A9.5 9.5 0 002 11.5c0 5.08 3.986 9.227 9 9.487v1.001C5.433 21.728 1 17.131 1 11.5 1 5.701 5.701 1 11.5 1zM24 12v4h-4v-1h2a5 5 0 00-8.996 2.784L13 18h-1a6 6 0 0111.001-3.316L23 12h1zM12 4v8H6v-1h5V4h1z" id="a"/>
  </defs>
  <g fill="none" fill-rule="evenodd">
    <mask id="b" fill="#fff">
      <use xlink:href="#a"/>
    </mask>
    <use fill="#000" fill-rule="nonzero" xlink:href="#a"/>
    <g mask="url(#b)" fill="#455065">
      <path d="M0 0h24v24H0z"/>
    </g>
  </g>
</svg>
