<svg width="16" height="16" viewBox="0 0 16 16" fill="none" xmlns="http://www.w3.org/2000/svg"><path d="M7.493 1.480 L 7.493 2.960 7.987 2.960 L 8.480 2.960 8.480 1.480 L 8.480 0.000 7.987 0.000 L 7.493 0.000 7.493 1.480 M12.227 3.040 L 11.134 4.133 11.487 4.487 L 11.840 4.840 12.947 3.733 L 14.053 2.627 13.714 2.287 C 13.527 2.100,13.362 1.947,13.347 1.947 C 13.332 1.947,12.828 2.439,12.227 3.040 M2.333 2.347 L 1.987 2.694 3.080 3.787 L 4.173 4.880 4.520 4.533 L 4.867 4.187 3.773 3.093 L 2.680 2.000 2.333 2.347 M7.469 4.028 C 5.950 4.218,4.648 5.272,4.149 6.716 C 3.975 7.218,3.936 7.465,3.935 8.067 C 3.934 8.668,3.965 8.880,4.124 9.356 C 4.310 9.913,4.574 10.351,5.043 10.880 C 5.444 11.333,5.699 11.738,5.843 12.154 C 5.959 12.488,5.978 12.636,5.992 13.327 L 6.006 14.000 8.003 14.000 L 10.000 14.000 10.000 13.500 C 10.001 12.682,10.077 12.252,10.307 11.766 C 10.459 11.445,10.592 11.260,10.945 10.880 C 11.514 10.268,11.828 9.666,12.004 8.853 C 12.090 8.455,12.091 7.687,12.005 7.289 C 11.883 6.723,11.633 6.148,11.315 5.699 C 11.110 5.411,10.658 4.961,10.366 4.755 C 9.908 4.433,9.363 4.196,8.813 4.080 C 8.505 4.016,7.790 3.988,7.469 4.028 M8.587 5.059 C 9.178 5.168,9.728 5.462,10.173 5.907 C 10.561 6.295,10.837 6.771,10.980 7.299 C 11.044 7.539,11.050 7.602,11.050 8.080 C 11.050 8.531,11.042 8.628,10.992 8.809 C 10.838 9.366,10.607 9.773,10.189 10.222 C 10.037 10.386,9.841 10.615,9.755 10.732 C 9.361 11.266,9.071 12.065,9.022 12.747 L 9.005 12.987 8.012 12.987 C 6.897 12.987,6.987 13.005,6.987 12.774 C 6.987 12.607,6.921 12.257,6.838 11.981 C 6.652 11.361,6.328 10.813,5.800 10.227 C 5.335 9.709,5.084 9.234,4.974 8.663 C 4.919 8.378,4.919 7.823,4.974 7.508 C 5.079 6.905,5.369 6.347,5.803 5.909 C 6.536 5.172,7.537 4.866,8.587 5.059 M1.013 8.493 L 1.013 8.987 2.000 8.987 L 2.987 8.987 2.987 8.493 L 2.987 8.000 2.000 8.000 L 1.013 8.000 1.013 8.493 M13.013 8.493 L 13.013 8.987 14.000 8.987 L 14.987 8.987 14.987 8.493 L 14.987 8.000 14.000 8.000 L 13.013 8.000 13.013 8.493 M6.014 15.127 C 6.074 15.484,6.315 15.797,6.627 15.922 L 6.787 15.987 8.000 15.987 L 9.213 15.987 9.373 15.922 C 9.685 15.797,9.926 15.484,9.986 15.127 L 10.005 15.013 8.000 15.013 L 5.995 15.013 6.014 15.127 " fill="#455065" stroke="none" fill-rule="evenodd"></path></svg>