<svg width="24" height="24" viewBox="0 0 24 24" fill="none" xmlns="http://www.w3.org/2000/svg"><path d="M11.440 1.960 L 11.440 3.920 11.920 3.920 L 12.400 3.920 12.400 1.960 L 12.400 0.000 11.920 0.000 L 11.440 0.000 11.440 1.960 M18.429 4.791 L 17.119 6.101 17.470 6.450 L 17.821 6.799 19.131 5.489 L 20.441 4.179 20.090 3.830 L 19.739 3.481 18.429 4.791 M4.045 3.972 C 3.737 4.284,3.714 4.318,3.765 4.390 C 3.795 4.433,4.342 5.001,4.981 5.654 L 6.142 6.840 6.490 6.490 L 6.838 6.140 5.609 4.886 L 4.380 3.633 4.045 3.972 M11.160 5.057 C 9.707 5.268,8.382 5.929,7.267 7.000 C 6.749 7.497,6.467 7.834,6.103 8.389 C 5.056 9.988,4.741 11.894,5.221 13.739 C 5.576 15.105,6.240 16.185,7.394 17.271 C 8.024 17.865,8.256 18.162,8.540 18.740 C 8.904 19.479,8.997 19.980,8.999 21.210 L 9.000 22.000 11.995 22.000 L 14.990 22.000 15.012 20.990 C 15.035 19.881,15.070 19.638,15.298 19.030 C 15.557 18.337,15.888 17.899,16.696 17.180 C 19.018 15.113,19.664 11.680,18.258 8.875 C 17.246 6.856,15.366 5.473,13.120 5.095 C 12.619 5.010,11.616 4.991,11.160 5.057 M12.761 6.058 C 14.240 6.255,15.526 6.938,16.504 8.047 C 18.609 10.433,18.459 14.120,16.168 16.298 C 15.292 17.131,15.080 17.357,14.862 17.691 C 14.325 18.516,14.054 19.392,14.011 20.450 L 13.988 21.000 12.000 21.000 L 10.012 21.000 9.987 20.450 C 9.918 18.907,9.277 17.588,8.090 16.548 C 7.065 15.648,6.402 14.512,6.116 13.160 C 5.996 12.595,5.985 11.509,6.093 11.005 C 6.271 10.175,6.627 9.363,7.111 8.681 C 7.414 8.255,8.088 7.553,8.480 7.256 C 9.786 6.269,11.255 5.857,12.761 6.058 M1.000 12.500 L 1.000 13.000 2.500 13.000 L 4.000 13.000 4.000 12.500 L 4.000 12.000 2.500 12.000 L 1.000 12.000 1.000 12.500 M20.000 12.500 L 20.000 13.000 21.500 13.000 L 23.000 13.000 23.000 12.500 L 23.000 12.000 21.500 12.000 L 20.000 12.000 20.000 12.500 M9.019 23.148 C 9.078 23.464,9.281 23.734,9.579 23.894 C 9.738 23.979,9.764 23.980,12.000 23.980 C 14.236 23.980,14.262 23.979,14.421 23.894 C 14.719 23.734,14.922 23.464,14.981 23.148 L 15.009 23.000 12.000 23.000 L 8.991 23.000 9.019 23.148 " fill="#455065" stroke="none" fill-rule="evenodd"></path></svg>