<?xml version="1.0" encoding="UTF-8"?>
<svg width="24px" height="24px" viewBox="0 0 24 24" version="1.1" xmlns="http://www.w3.org/2000/svg" xmlns:xlink="http://www.w3.org/1999/xlink">
    <!-- Generator: sketchtool 54.1 (76490) - https://sketchapp.com -->
    <title>1c302f5a-b914-4cb1-ac7e-0c4f360b2cc8@1.00x</title>
    <desc>Created with sketchtool.</desc>
    <defs>
        <path d="M9,3 L9,0 L15,0 L15,3 L23,3 L23,4 L1,4 L1,3 L9,3 Z M10,3 L14,3 L14,1 L10,1 L10,3 Z M20,23 L20,5 L21,5 L21,23 L21,24 L3,24 L3,23 L3,5 L4,5 L4,23 L20,23 Z M9,10 L10,10 L10,18 L9,18 L9,10 Z M14,10 L15,10 L15,18 L14,18 L14,10 Z" id="path-1"></path>
    </defs>
    <g id="Symbols" stroke="none" stroke-width="1" fill="none" fill-rule="evenodd">
        <g id="Icons-/-General-/-24-/-Trash">
            <mask id="mask-2" fill="white">
                <use xlink:href="#path-1"></use>
            </mask>
            <use id="Combined-Shape" fill="#000000" xlink:href="#path-1"></use>
            <g id="Colors-/-Black" mask="url(#mask-2)" fill="#000000">
                <rect id="Rectangle" x="0" y="0" width="24" height="24"></rect>
            </g>
        </g>
    </g>
</svg>