<svg width="24" height="24" viewBox="0 0 24 24" fill="none" xmlns="http://www.w3.org/2000/svg"><path d="M11.080 2.547 C 7.113 2.954,3.832 5.745,2.819 9.575 C 2.402 11.151,2.401 12.855,2.818 14.420 C 3.266 16.100,4.051 17.457,5.297 18.703 C 6.123 19.528,6.839 20.045,7.820 20.521 C 9.208 21.195,10.474 21.488,12.000 21.488 C 14.142 21.488,16.058 20.835,17.820 19.507 C 18.232 19.196,19.196 18.232,19.507 17.820 C 20.540 16.451,21.158 14.989,21.403 13.340 C 21.506 12.649,21.516 11.486,21.426 10.819 C 21.192 9.093,20.489 7.415,19.452 6.108 C 19.153 5.732,18.448 5.007,18.126 4.746 L 17.873 4.540 19.686 4.520 L 21.500 4.500 21.511 4.010 L 21.522 3.520 19.001 3.520 L 16.479 3.520 16.490 6.010 L 16.500 8.500 17.000 8.500 L 17.500 8.500 17.520 7.024 L 17.540 5.549 17.853 5.841 C 18.902 6.821,19.755 8.227,20.166 9.656 C 20.547 10.978,20.584 12.659,20.260 13.988 C 19.673 16.405,18.059 18.448,15.851 19.572 C 14.020 20.503,11.914 20.739,9.922 20.237 C 6.551 19.387,4.021 16.543,3.581 13.108 C 3.461 12.177,3.520 10.948,3.727 10.060 C 4.572 6.431,7.807 3.704,11.470 3.532 L 12.000 3.508 12.000 3.014 L 12.000 2.520 11.610 2.526 C 11.396 2.530,11.157 2.539,11.080 2.547 " fill="#455065" stroke="none" fill-rule="evenodd"></path></svg>