<svg width="16" height="16" viewBox="0 0 16 16" fill="none" xmlns="http://www.w3.org/2000/svg"><path d="M7.560 1.521 C 6.314 1.597,5.100 2.052,4.056 2.835 C 3.722 3.085,3.077 3.730,2.830 4.062 C 2.157 4.962,1.748 5.930,1.568 7.048 C 1.493 7.518,1.487 8.394,1.556 8.867 C 1.721 10.003,2.143 11.020,2.830 11.938 C 3.081 12.275,3.725 12.919,4.062 13.170 C 4.980 13.857,6.000 14.280,7.133 14.444 C 7.355 14.476,7.621 14.490,8.000 14.490 C 9.037 14.490,9.930 14.286,10.840 13.841 C 11.541 13.498,12.020 13.155,12.587 12.587 C 13.155 12.020,13.498 11.541,13.841 10.840 C 14.719 9.044,14.719 6.956,13.841 5.160 C 13.562 4.589,13.276 4.158,12.875 3.703 L 12.690 3.493 13.599 3.493 L 14.507 3.493 14.507 3.000 L 14.507 2.507 12.507 2.507 L 10.507 2.507 10.507 4.507 L 10.507 6.507 11.000 6.507 L 11.493 6.507 11.500 5.129 L 11.507 3.752 11.793 4.025 C 12.663 4.856,13.220 5.912,13.431 7.133 C 13.496 7.508,13.496 8.492,13.431 8.867 C 13.220 10.090,12.648 11.170,11.775 11.994 C 10.741 12.971,9.427 13.492,8.000 13.492 C 6.559 13.492,5.240 12.964,4.199 11.968 C 3.337 11.145,2.778 10.080,2.569 8.867 C 2.503 8.485,2.502 7.533,2.568 7.144 C 2.664 6.572,2.834 6.040,3.073 5.561 C 3.964 3.780,5.715 2.624,7.687 2.516 L 8.000 2.498 8.000 1.996 L 8.000 1.493 7.940 1.497 C 7.907 1.500,7.736 1.510,7.560 1.521 " fill="#455065" stroke="none" fill-rule="evenodd"></path></svg>