<?xml version="1.0" encoding="UTF-8"?>
<svg width="24px" height="24px" viewBox="0 0 24 24" version="1.1" xmlns="http://www.w3.org/2000/svg" xmlns:xlink="http://www.w3.org/1999/xlink">
    <title>Icons / Interface Essential / 24 / Unlink</title>
    <defs>
        <path d="M21.5,1.79289322 L22.2071068,2.5 L2.5,22.2071068 L1.79289322,21.5 L21.5,1.79289322 Z M20,9 C22.209139,9 24,10.790861 24,13 L24,15 C24,17.209139 22.209139,19 20,19 L11,19 C9.92636656,19 8.95152722,18.5770122 8.23303893,17.8885935 L8.94062209,17.1815153 C9.47793316,17.6889253 10.2026389,18 11,18 L20,18 C21.6568542,18 23,16.6568542 23,15 L23,13 C23,11.3431458 21.6568542,10 20,10 L17,10 L17,11 C17,13.209139 15.209139,15 13,15 L11.121,15 L12.121,14 L13,14 C14.6568542,14 16,12.6568542 16,11 L16,10.121 L17.121,9 L20,9 Z M13,5 C14.0741406,5 15.0493937,5.42338752 15.7679791,6.11238221 L15.0603746,6.8194263 C14.5229632,6.31145953 13.7978542,6 13,6 L4,6 C2.34314575,6 1,7.34314575 1,9 L1,11 C1,12.6568542 2.34314575,14 4,14 L7,14 L7,13 C7,10.790861 8.790861,9 11,9 L12.878,9 L11.878,10 L11,10 C9.34314575,10 8,11.3431458 8,13 L8,13.878 L6.878,15 L4,15 C1.790861,15 0,13.209139 0,11 L0,9 C0,6.790861 1.790861,5 4,5 L13,5 Z" id="path-1"></path>
    </defs>
    <g id="Icons-/-Interface-Essential-/-24-/-Unlink" stroke="none" stroke-width="1" fill="none" fill-rule="evenodd">
        <mask id="mask-2" fill="white">
            <use xlink:href="#path-1"></use>
        </mask>
        <use id="Combined-Shape" fill="#000000" fill-rule="nonzero" xlink:href="#path-1"></use>
        <g id="Colors-/-305-Dark-Gray" mask="url(#mask-2)" fill="#455065">
            <rect id="Rectangle" x="0" y="0" width="24" height="24"></rect>
        </g>
    </g>
</svg>