<?xml version="1.0" encoding="UTF-8"?>
<svg width="16px" height="16px" viewBox="0 0 16 16" version="1.1" xmlns="http://www.w3.org/2000/svg" xmlns:xlink="http://www.w3.org/1999/xlink">
    <!-- Generator: sketchtool 54.1 (76490) - https://sketchapp.com -->
    <title>3f4a6c76-f640-4ef3-a6c3-5cd9fe6b569f@1.00x</title>
    <desc>Created with sketchtool.</desc>
    <defs>
        <path d="M3.5,12.7532442 L3.5,14.5 L2.5,14.5 L2.5,11.5 L2.5,10.5 L6.5,10.5 L6.5,11.5 L3.81626585,11.5 C3.91983361,11.6236552 4.02887364,11.7427658 4.14305392,11.8569461 C5.15973175,12.8736239 6.53318454,13.4545455 8,13.4545455 C11.0124623,13.4545455 13.4545455,11.0124623 13.4545455,8 L14.5454545,8 C14.5454545,11.6149547 11.6149547,14.5454545 8,14.5454545 C6.30186405,14.5454545 4.70542545,13.8951164 3.5,12.7532442 Z M12.5,3.24675575 L12.5,1.5 L13.5,1.5 L13.5,4.5 L13.5,5.5 L9.5,5.5 L9.5,4.5 L12.1837341,4.5 C12.0801664,4.37634479 11.9711264,4.25723421 11.8569461,4.14305392 C10.8402682,3.12637609 9.46681546,2.54545455 8,2.54545455 C4.98753773,2.54545455 2.54545455,4.98753773 2.54545455,8 L1.45454545,8 C1.45454545,4.38504527 4.38504527,1.45454545 8,1.45454545 C9.69813595,1.45454545 11.2945746,2.10488359 12.5,3.24675575 Z" id="path-1"></path>
    </defs>
    <g id="Symbols" stroke="none" stroke-width="1" fill="none" fill-rule="evenodd">
        <g id="Icons-/-Notifications-/-16-/-Update">
            <mask id="mask-2" fill="white">
                <use xlink:href="#path-1"></use>
            </mask>
            <use id="Combined-Shape" fill="#000000" fill-rule="nonzero" xlink:href="#path-1"></use>
            <g id="Colors-/-Black" mask="url(#mask-2)" fill="#000000">
                <rect id="Rectangle" x="0" y="0" width="16" height="16"></rect>
            </g>
        </g>
    </g>
</svg>