<?xml version="1.0" encoding="UTF-8"?>
<svg width="24px" height="24px" viewBox="0 0 24 24" version="1.1" xmlns="http://www.w3.org/2000/svg" xmlns:xlink="http://www.w3.org/1999/xlink">
    <!-- Generator: sketchtool 54.1 (76490) - https://sketchapp.com -->
    <title>8ad60e2d-a45c-4d9d-9480-c90bc3258350@1.00x</title>
    <desc>Created with sketchtool.</desc>
    <defs>
        <path d="M4.5,17.8316239 L4.5,20.5 L3.5,20.5 L3.5,17.5 L3.5,16.5 L7.5,16.5 L7.5,17.5 L5.51901901,17.5 C5.66882148,17.6763372 5.82581356,17.8466288 5.98959236,18.0104076 C7.57368825,19.5945035 9.71452236,20.5 12,20.5 C16.6944204,20.5 20.5,16.6944204 20.5,12 L21.5,12 C21.5,17.2467051 17.2467051,21.5 12,21.5 C9.44657981,21.5 7.05225875,20.4872876 5.28248558,18.7175144 C5.00350879,18.4385376 4.74215105,18.1426291 4.5,17.8316239 Z M19.5,6.16837606 L19.5,3.5 L20.5,3.5 L20.5,6.5 L20.5,7.5 L16.5,7.5 L16.5,6.5 L18.480981,6.5 C18.3311785,6.32366284 18.1741864,6.15337116 18.0104076,5.98959236 C16.4263118,4.40549647 14.2854776,3.5 12,3.5 C7.30557963,3.5 3.5,7.30557963 3.5,12 L2.5,12 C2.5,6.75329488 6.75329488,2.5 12,2.5 C14.5534202,2.5 16.9477413,3.51271241 18.7175144,5.28248558 C18.9964912,5.56146237 19.257849,5.85737093 19.5,6.16837606 Z" id="path-1"></path>
    </defs>
    <g id="Symbols" stroke="none" stroke-width="1" fill="none" fill-rule="evenodd">
        <g id="Icons-/-Notifications-/-24-/-Update">
            <mask id="mask-2" fill="white">
                <use xlink:href="#path-1"></use>
            </mask>
            <use id="Combined-Shape" fill="#000000" fill-rule="nonzero" xlink:href="#path-1"></use>
            <g id="Colors-/-Black" mask="url(#mask-2)" fill="#000000">
                <rect id="Rectangle" x="0" y="0" width="24" height="24"></rect>
            </g>
        </g>
    </g>
</svg>