<svg width="24" height="24" viewBox="0 0 24 24" fill="none" xmlns="http://www.w3.org/2000/svg"><path d="M11.260 1.044 C 9.587 1.220,7.957 2.043,6.834 3.281 C 5.591 4.651,4.937 6.437,5.012 8.260 C 5.055 9.324,5.267 10.150,5.740 11.100 C 6.124 11.870,6.462 12.342,7.060 12.940 C 7.609 13.489,8.075 13.833,8.748 14.188 C 9.117 14.382,9.201 14.441,9.139 14.463 C 6.836 15.258,4.973 16.896,3.916 19.055 C 3.367 20.177,3.000 21.662,3.000 22.764 L 3.000 23.000 3.492 23.000 L 3.985 23.000 4.032 22.410 C 4.195 20.383,5.035 18.606,6.489 17.217 C 9.572 14.270,14.428 14.270,17.511 17.217 C 18.966 18.607,19.799 20.370,19.967 22.410 L 20.016 23.000 20.508 23.000 L 21.000 23.000 21.000 22.764 C 21.000 21.662,20.633 20.177,20.084 19.055 C 19.023 16.888,17.226 15.308,14.860 14.464 C 14.797 14.441,14.870 14.389,15.220 14.206 C 15.748 13.931,16.048 13.731,16.511 13.344 C 18.322 11.830,19.248 9.453,18.940 7.106 C 18.445 3.333,15.043 0.647,11.260 1.044 M13.041 2.097 C 14.371 2.333,15.638 3.046,16.506 4.045 C 17.229 4.879,17.707 5.879,17.909 6.980 C 17.999 7.468,17.999 8.532,17.909 9.020 C 17.805 9.587,17.653 10.064,17.423 10.545 C 16.584 12.296,15.102 13.462,13.174 13.887 C 12.603 14.013,11.397 14.013,10.826 13.887 C 8.341 13.339,6.548 11.496,6.090 9.020 C 6.000 8.531,6.000 7.469,6.090 6.980 C 6.394 5.335,7.309 3.928,8.660 3.025 C 9.725 2.313,10.873 1.981,12.140 2.019 C 12.448 2.029,12.853 2.063,13.041 2.097 " fill="#455065" stroke="none" fill-rule="evenodd"></path></svg>