<svg width="16" height="16" viewBox="0 0 16 16" fill="none" xmlns="http://www.w3.org/2000/svg"><path d="M7.470 0.030 C 5.711 0.214,4.135 1.365,3.426 2.981 C 2.863 4.268,2.863 5.732,3.426 7.019 C 3.675 7.586,3.989 8.041,4.453 8.508 C 4.804 8.860,5.051 9.058,5.414 9.279 C 5.588 9.384,5.623 9.416,5.584 9.430 C 5.556 9.439,5.419 9.494,5.280 9.552 C 4.497 9.878,3.703 10.410,3.084 11.023 C 1.807 12.290,1.099 13.890,1.003 15.727 L 0.989 16.000 1.491 16.000 L 1.992 16.000 2.011 15.700 C 2.064 14.833,2.245 14.132,2.613 13.373 C 3.197 12.170,4.170 11.197,5.373 10.613 C 6.253 10.187,7.004 10.016,8.000 10.016 C 8.998 10.016,9.755 10.188,10.629 10.615 C 11.829 11.201,12.786 12.153,13.373 13.343 C 13.745 14.098,13.936 14.829,13.989 15.700 L 14.008 16.000 14.510 16.000 L 15.013 16.000 14.998 15.753 C 14.913 14.281,14.494 13.052,13.697 11.933 C 13.363 11.466,12.853 10.922,12.422 10.574 C 11.848 10.112,11.012 9.635,10.416 9.430 C 10.377 9.416,10.412 9.384,10.586 9.279 C 12.581 8.067,13.473 5.650,12.745 3.432 C 12.015 1.208,9.809 -0.214,7.470 0.030 M8.800 1.079 C 10.427 1.440,11.638 2.682,11.937 4.295 C 12.000 4.641,12.000 5.359,11.937 5.705 C 11.629 7.368,10.314 8.667,8.653 8.948 C 8.301 9.007,7.699 9.007,7.347 8.948 C 5.686 8.667,4.371 7.368,4.063 5.705 C 4.000 5.359,4.000 4.641,4.063 4.295 C 4.374 2.620,5.658 1.356,7.360 1.052 C 7.638 1.002,8.528 1.019,8.800 1.079 " fill="#455065" stroke="none" fill-rule="evenodd"></path></svg>