<svg width="16" height="16" viewBox="0 0 16 16" fill="none" xmlns="http://www.w3.org/2000/svg"><path d="M0.000 8.000 L 0.000 14.000 8.000 14.000 L 16.000 14.000 16.000 8.000 L 16.000 2.000 8.000 2.000 L 0.000 2.000 0.000 8.000 M14.987 8.013 L 14.987 13.013 8.000 13.013 L 1.013 13.013 1.013 8.013 L 1.013 3.013 8.000 3.013 L 14.987 3.013 14.987 8.013 M6.000 8.000 C 6.000 9.692,6.010 10.987,6.023 10.982 C 6.078 10.961,10.985 8.012,10.985 8.000 C 10.985 7.988,6.078 5.039,6.023 5.018 C 6.010 5.013,6.000 6.308,6.000 8.000 M9.039 8.000 C 9.040 8.008,8.630 8.260,8.129 8.560 C 7.628 8.861,7.172 9.134,7.116 9.168 L 7.013 9.230 7.013 8.003 L 7.013 6.776 8.026 7.381 C 8.583 7.714,9.039 7.993,9.039 8.000 " fill="#455065" stroke="none" fill-rule="evenodd"></path></svg>