<?xml version="1.0" encoding="UTF-8"?>
<svg id="Layer_2" data-name="Layer 2" xmlns="http://www.w3.org/2000/svg" viewBox="0 0 24 24">
  <g id="Icons">
    <g>
      <path d="M12,16c2.08,0,3.9,1.25,4.66,3.18l.93-.36c-.64-1.63-1.92-2.85-3.49-3.43,1.14-.71,1.9-1.96,1.9-3.39,0-2.21-1.79-4-4-4s-4,1.79-4,4c0,1.43.76,2.68,1.9,3.39-1.57.58-2.85,1.79-3.49,3.43l.93.36c.75-1.93,2.58-3.18,4.66-3.18ZM9,12c0-1.65,1.35-3,3-3s3,1.35,3,3-1.35,3-3,3-3-1.35-3-3Z M22.5,2H1.5c-.83,0-1.5.67-1.5,1.5v17c0,.83.67,1.5,1.5,1.5h21c.83,0,1.5-.67,1.5-1.5V3.5c0-.83-.67-1.5-1.5-1.5ZM23,20.5c0,.28-.22.5-.5.5H1.5c-.28,0-.5-.22-.5-.5V6h22v14.5ZM23,5H1v-1.5c0-.28.22-.5.5-.5h21c.28,0,.5.22.5.5v1.5Z"/>
    </g>
  </g>
</svg>