<svg width="24" height="24" viewBox="0 0 24 24" fill="none" xmlns="http://www.w3.org/2000/svg"><path d="M0.000 12.000 L 0.000 21.000 12.000 21.000 L 24.000 21.000 24.000 12.000 L 24.000 3.000 12.000 3.000 L 0.000 3.000 0.000 12.000 M23.000 12.000 L 23.000 20.000 12.000 20.000 L 1.000 20.000 1.000 12.000 L 1.000 4.000 12.000 4.000 L 23.000 4.000 23.000 12.000 M9.000 12.000 L 9.000 16.009 9.090 15.952 C 9.139 15.920,10.705 15.023,12.570 13.959 C 14.434 12.894,15.960 12.013,15.960 12.000 C 15.960 11.987,14.434 11.106,12.570 10.041 C 10.705 8.977,9.139 8.080,9.090 8.048 L 9.000 7.991 9.000 12.000 M13.958 12.000 C 13.959 12.011,13.163 12.475,12.190 13.030 C 11.216 13.586,10.325 14.095,10.210 14.161 L 10.000 14.282 10.000 12.004 L 10.000 9.726 11.979 10.853 C 13.067 11.473,13.958 11.989,13.958 12.000 " fill="#455065" stroke="none" fill-rule="evenodd"></path></svg>