<?xml version="1.0" encoding="UTF-8"?>
<svg id="Layer_2" data-name="Layer 2" xmlns="http://www.w3.org/2000/svg" viewBox="0 0 16 16">
  <g id="Icons">
    <g>
      <path d="M4.3,12.49l.93.38c.46-1.13,1.55-1.87,2.78-1.87s2.31.73,2.78,1.87l.93-.38c-.38-.93-1.08-1.65-1.94-2.08.74-.55,1.23-1.42,1.23-2.41,0-1.65-1.35-3-3-3s-3,1.35-3,3c0,.99.49,1.87,1.23,2.41-.86.42-1.56,1.15-1.94,2.08ZM6,8c0-1.1.9-2,2-2s2,.9,2,2-.9,2-2,2-2-.9-2-2Z M14.83,1H1.17c-.64,0-1.17.52-1.17,1.17v11.66c0,.64.52,1.17,1.17,1.17h13.66c.64,0,1.17-.52,1.17-1.17V2.17c0-.64-.52-1.17-1.17-1.17ZM15,13.83c0,.09-.08.17-.17.17H1.17c-.09,0-.17-.08-.17-.17V4h14v9.83ZM15,3H1v-.83c0-.09.08-.17.17-.17h13.66c.09,0,.17.08.17.17v.83Z"/>
    </g>
  </g>
</svg>