<svg width="24" height="24" viewBox="0 0 24 24" fill="none" xmlns="http://www.w3.org/2000/svg">
<g id="Size=24">
<path id="Vector" fill-rule="evenodd" clip-rule="evenodd" d="M13.3031 2.25782C12.7278 1.24739 11.2714 1.24739 10.6961 2.25782L0.449054 20.2551C-0.120298 21.2551 0.601879 22.4973 1.75258 22.4973H22.2467C23.3974 22.4973 24.1195 21.2551 23.5502 20.2551L13.3031 2.25782ZM11 7.01353C11 6.46125 11.4477 6.01353 12 6.01353C12.5523 6.01353 13 6.46125 13 7.01353V14.0135C13 14.5658 12.5523 15.0135 12 15.0135C11.4477 15.0135 11 14.5658 11 14.0135V7.01353ZM13 18.0032C13 18.5555 12.5523 19.0032 12 19.0032C11.4477 19.0032 11 18.5555 11 18.0032C11 17.4509 11.4477 17.0032 12 17.0032C12.5523 17.0032 13 17.4509 13 18.0032Z" fill="#455065"/>
</g>
</svg>
