<svg width="16" height="16" viewBox="0 0 16 16" fill="none" xmlns="http://www.w3.org/2000/svg">
<g id="Size=16">
<path id="Vector" fill-rule="evenodd" clip-rule="evenodd" d="M8.86878 1.50521C8.48525 0.831596 7.51429 0.831596 7.13075 1.50521L0.29939 13.5034C-0.080178 14.17 0.401273 14.9982 1.16841 14.9982H14.8311C15.5983 14.9982 16.0797 14.17 15.7001 13.5034L8.86878 1.50521ZM7.25 4.75904C7.25 4.34482 7.58579 4.00904 8 4.00904C8.41422 4.00904 8.75 4.34482 8.75 4.75904V9.08004C8.75 9.49425 8.41422 9.83004 8 9.83004C7.58579 9.83004 7.25 9.49425 7.25 9.08004V4.75904ZM8.75 12.0882C8.75 12.5039 8.41422 12.8409 8 12.8409C7.58579 12.8409 7.25 12.5039 7.25 12.0882C7.25 11.6725 7.58579 11.3355 8 11.3355C8.41422 11.3355 8.75 11.6725 8.75 12.0882Z" fill="#455065"/>
</g>
</svg>
