<svg width="24" height="24" viewBox="0 0 24 24" fill="none" xmlns="http://www.w3.org/2000/svg">
<g id="Size=24">
<path id="Vector" fill-rule="evenodd" clip-rule="evenodd" d="M10.3329 2.46462C11.0687 1.17846 12.9313 1.17846 13.6671 2.46462L23.4959 19.646C24.224 20.9188 23.3004 22.5 21.8288 22.5H2.1712C0.699555 22.5 -0.224047 20.9188 0.504105 19.646L10.3329 2.46462ZM12.8335 2.93697C12.4657 2.2939 11.5343 2.29389 11.1665 2.93697L1.33765 20.1183C0.973574 20.7547 1.43537 21.5453 2.1712 21.5453H21.8288C22.5646 21.5453 23.0264 20.7547 22.6624 20.1183L12.8335 2.93697ZM11.5 7H12.5V15.6619H11.5V7ZM12.5 17.1H11.5V18.1H12.5V17.1Z" fill="#455065"/>
</g>
</svg>
