<svg width="16" height="16" viewBox="0 0 16 16" fill="none" xmlns="http://www.w3.org/2000/svg">
<g id="Size=16">
<path id="Vector" fill-rule="evenodd" clip-rule="evenodd" d="M6.77945 1.70738C7.32033 0.764206 8.68963 0.764205 9.23052 1.70738L15.6532 12.907C16.1885 13.8405 15.5095 15 14.4276 15H1.58232C0.500466 15 -0.178506 13.8405 0.356784 12.907L6.77945 1.70738ZM8.41349 2.16924C8.2332 1.85485 7.77676 1.85485 7.59647 2.16924L1.17381 13.3689C0.995378 13.68 1.2217 14.0666 1.58232 14.0666H14.4276C14.7883 14.0666 15.0146 13.68 14.8362 13.3689L8.41349 2.16924ZM7.5 4.4H8.5V10.4H7.5V4.4ZM8.5 11.4H7.5V12.4H8.5V11.4Z" fill="#455065"/>
</g>
</svg>
