<svg width="24" height="24" viewBox="0 0 24 24" fill="none" xmlns="http://www.w3.org/2000/svg">
<g clip-path="url(#clip0_2828_141)">
<path d="M12 22.5C13.3807 22.5 14.5 21.3807 14.5 20C14.5 18.6193 13.3807 17.5 12 17.5C10.6193 17.5 9.5 18.6193 9.5 20C9.5 21.3807 10.6193 22.5 12 22.5Z" stroke="#455065" stroke-miterlimit="10"/>
<path d="M17.24 16.1499C17.05 15.8899 16.83 15.6399 16.6 15.4099C14.06 12.8699 9.95 12.8699 7.41 15.4099C7.17 15.6499 6.96 15.8899 6.77 16.1499" stroke="#455065" stroke-miterlimit="10"/>
<path d="M19.42 12.5799C15.32 8.47988 8.67001 8.47988 4.57001 12.5799" stroke="#455065" stroke-miterlimit="10"/>
<path d="M21.51 9.05012C16.07 4.31012 7.93001 4.31012 2.49001 9.05012" stroke="#455065" stroke-miterlimit="10"/>
<path d="M23.6 5.58994C16.85 0.139941 7.15 0.139941 0.389999 5.58994" stroke="#455065" stroke-miterlimit="10"/>
</g>
<defs>
<clipPath id="clip0_2828_141">
<rect width="24" height="24" fill="white"/>
</clipPath>
</defs>
</svg>
