<svg width="24" height="24" viewBox="0 0 24 24" fill="none" xmlns="http://www.w3.org/2000/svg">
  <path d="M11.200 1.023 C 9.592 1.131,8.619 1.273,7.400 1.578 C 4.887 2.208,2.612 3.291,0.570 4.831 C 0.323 5.017,0.120 5.187,0.120 5.208 C 0.120 5.240,0.499 5.734,0.661 5.913 C 0.700 5.956,0.787 5.906,1.124 5.648 C 3.686 3.690,6.709 2.493,10.100 2.094 C 10.947 1.995,13.052 1.995,13.900 2.094 C 17.312 2.495,20.409 3.733,22.952 5.711 C 23.134 5.853,23.290 5.963,23.298 5.955 C 23.411 5.839,23.879 5.219,23.871 5.196 C 23.850 5.138,23.063 4.555,22.502 4.182 C 19.895 2.449,16.935 1.399,13.811 1.100 C 13.191 1.040,11.632 0.995,11.200 1.023 M11.100 5.024 C 11.012 5.032,10.742 5.058,10.500 5.081 C 8.070 5.312,5.554 6.232,3.520 7.633 C 3.073 7.940,2.200 8.631,2.200 8.677 C 2.200 8.714,2.796 9.400,2.828 9.400 C 2.839 9.400,2.951 9.313,3.075 9.207 C 4.345 8.116,6.241 7.099,7.980 6.574 C 10.240 5.892,12.878 5.813,15.193 6.359 C 16.284 6.615,17.125 6.920,18.180 7.439 C 19.240 7.961,20.180 8.567,20.936 9.216 L 21.172 9.418 21.389 9.179 C 21.508 9.048,21.653 8.879,21.712 8.805 L 21.817 8.670 21.659 8.533 C 21.571 8.457,21.262 8.215,20.970 7.995 C 18.883 6.414,16.412 5.432,13.680 5.096 C 13.210 5.038,11.452 4.989,11.100 5.024 M11.164 9.040 C 8.654 9.250,6.278 10.292,4.515 11.956 L 4.220 12.235 4.567 12.584 L 4.914 12.933 5.247 12.622 C 6.518 11.437,8.254 10.550,9.980 10.204 C 10.740 10.052,11.087 10.021,12.020 10.022 C 12.697 10.023,13.061 10.042,13.400 10.094 C 15.429 10.407,17.227 11.250,18.700 12.581 L 19.068 12.914 19.418 12.562 L 19.767 12.211 19.414 11.895 C 17.883 10.525,16.200 9.663,14.240 9.246 C 13.351 9.056,12.029 8.968,11.164 9.040 M11.600 13.025 C 10.239 13.112,8.904 13.603,7.820 14.415 C 7.217 14.866,6.336 15.792,6.425 15.881 C 6.446 15.902,6.622 16.035,6.817 16.177 L 7.172 16.436 7.288 16.288 C 7.351 16.206,7.551 15.989,7.732 15.805 C 9.554 13.944,12.316 13.477,14.670 14.630 C 15.352 14.965,16.108 15.555,16.575 16.117 C 16.705 16.273,16.831 16.399,16.855 16.398 C 16.880 16.397,17.066 16.274,17.269 16.125 L 17.637 15.853 17.421 15.590 C 16.445 14.407,15.113 13.571,13.620 13.206 C 13.069 13.071,12.159 12.990,11.600 13.025 M11.490 17.042 C 10.879 17.152,10.369 17.425,9.897 17.897 C 9.378 18.417,9.118 18.941,9.028 19.650 C 8.852 21.039,9.711 22.382,11.071 22.842 C 11.435 22.966,11.495 22.974,12.000 22.974 C 12.505 22.974,12.565 22.966,12.929 22.842 C 13.410 22.679,13.819 22.417,14.166 22.049 C 14.501 21.694,14.685 21.388,14.845 20.918 C 14.966 20.565,14.975 20.504,14.975 20.000 C 14.975 19.496,14.966 19.435,14.845 19.082 C 14.685 18.613,14.501 18.306,14.168 17.953 C 13.766 17.527,13.309 17.253,12.740 17.095 C 12.483 17.024,11.761 16.993,11.490 17.042 M12.448 18.045 C 13.143 18.193,13.811 18.860,13.956 19.552 C 14.012 19.823,14.012 20.179,13.955 20.448 C 13.807 21.143,13.140 21.811,12.448 21.956 C 11.743 22.103,11.058 21.896,10.568 21.385 C 9.803 20.588,9.802 19.412,10.567 18.616 C 11.058 18.105,11.746 17.896,12.448 18.045 " stroke="none" fill-rule="evenodd" fill="black"/>
</svg>
