<svg xmlns="http://www.w3.org/2000/svg" width="16" height="16" viewBox="0 0 16 16" fill="none">
  <path d="M7.347 0.015 C 6.441 0.082,5.911 0.147,5.293 0.269 C 3.717 0.580,2.164 1.178,0.813 1.993 C 0.432 2.223,0.028 2.491,0.027 2.515 C 0.027 2.543,0.559 3.307,0.580 3.307 C 0.588 3.307,0.740 3.212,0.917 3.097 C 3.196 1.617,5.843 0.894,8.540 1.014 C 9.669 1.064,10.524 1.201,11.573 1.497 C 12.786 1.839,14.193 2.489,15.195 3.170 C 15.285 3.231,15.376 3.288,15.396 3.296 C 15.422 3.305,15.521 3.184,15.704 2.922 C 15.852 2.708,15.973 2.525,15.973 2.514 C 15.973 2.502,15.844 2.410,15.686 2.307 C 13.727 1.035,11.626 0.298,9.293 0.065 C 8.913 0.027,7.632 -0.005,7.347 0.015 M7.227 3.029 C 7.175 3.035,7.001 3.052,6.840 3.068 C 6.410 3.110,5.803 3.217,5.333 3.335 C 4.027 3.663,2.817 4.216,1.696 4.998 L 1.437 5.178 1.501 5.262 C 1.536 5.309,1.670 5.488,1.799 5.660 L 2.033 5.973 2.157 5.883 C 4.796 3.951,8.385 3.464,11.467 4.618 C 12.243 4.909,12.848 5.220,13.567 5.698 L 13.975 5.969 14.244 5.605 C 14.392 5.404,14.525 5.226,14.539 5.208 C 14.556 5.186,14.481 5.120,14.281 4.982 C 12.774 3.941,11.113 3.309,9.280 3.078 C 8.965 3.039,7.459 3.003,7.227 3.029 M7.533 6.015 C 7.475 6.021,7.295 6.039,7.133 6.055 C 6.251 6.141,5.256 6.435,4.404 6.859 C 3.875 7.122,2.893 7.780,2.893 7.871 C 2.893 7.904,3.473 8.610,3.501 8.612 C 3.513 8.613,3.603 8.549,3.701 8.470 C 3.800 8.391,4.028 8.229,4.210 8.111 C 6.475 6.632,9.525 6.632,11.790 8.111 C 11.972 8.229,12.200 8.391,12.299 8.470 C 12.397 8.549,12.487 8.613,12.499 8.612 C 12.527 8.610,13.107 7.905,13.107 7.872 C 13.107 7.806,12.417 7.316,11.940 7.042 C 11.072 6.544,10.024 6.198,8.983 6.066 C 8.664 6.026,7.751 5.994,7.533 6.015 M7.288 9.055 C 6.223 9.210,5.237 9.702,4.487 10.452 L 4.295 10.643 4.661 10.974 L 5.027 11.304 5.187 11.150 C 5.775 10.583,6.404 10.249,7.211 10.075 C 7.601 9.990,8.399 9.990,8.789 10.075 C 9.596 10.249,10.219 10.580,10.813 11.150 L 10.973 11.304 11.339 10.974 L 11.705 10.643 11.499 10.438 C 10.751 9.693,9.762 9.206,8.685 9.053 C 8.349 9.005,7.622 9.006,7.288 9.055 M7.660 12.028 C 7.253 12.101,6.913 12.284,6.598 12.598 C 6.252 12.945,6.078 13.294,6.019 13.767 C 5.902 14.693,6.474 15.588,7.381 15.895 C 7.623 15.977,7.663 15.983,8.000 15.983 C 8.337 15.983,8.377 15.977,8.619 15.895 C 8.940 15.786,9.212 15.611,9.444 15.366 C 9.667 15.129,9.790 14.925,9.897 14.612 C 9.977 14.377,9.983 14.336,9.983 14.000 C 9.983 13.664,9.977 13.623,9.897 13.388 C 9.790 13.075,9.667 12.871,9.445 12.635 C 9.178 12.352,8.873 12.168,8.493 12.063 C 8.322 12.016,7.841 11.995,7.660 12.028 M8.156 13.015 C 8.374 13.050,8.548 13.139,8.705 13.295 C 8.860 13.451,8.950 13.626,8.984 13.837 C 9.036 14.162,8.936 14.473,8.705 14.705 C 8.473 14.936,8.162 15.036,7.837 14.984 C 7.626 14.950,7.451 14.860,7.295 14.705 C 7.064 14.473,6.964 14.162,7.016 13.837 C 7.082 13.426,7.417 13.083,7.819 13.016 C 7.897 13.003,7.966 12.992,7.973 12.990 C 7.981 12.988,8.063 12.999,8.156 13.015 " stroke="none" fill-rule="evenodd" fill="black"/>
</svg>
