<?xml version="1.0" encoding="UTF-8"?>
<svg width="16px" height="16px" viewBox="0 0 16 16" version="1.1" xmlns="http://www.w3.org/2000/svg" xmlns:xlink="http://www.w3.org/1999/xlink">
    <!-- Generator: sketchtool 54.1 (76490) - https://sketchapp.com -->
    <title>8a28995e-c68c-4762-ac75-7681634881fe@1.00x</title>
    <desc>Created with sketchtool.</desc>
    <defs>
        <path d="M4,6 L4,7 L1,7 L1,10 L4,10 L4,11 L0,11 L0,2 L4,2 L4,-2.84217094e-14 L8,-2.84217094e-14 L8,2 L12,2 L12,5 L11,5 L11,3 L8,3 L4,3 L1,3 L1,6 L4,6 Z M5,2 L7,2 L7,1 L5,1 L5,2 Z M7,15 L14,15 L14,16 L7,16 L7,15 Z M5,6 L16,6 L16,14 L5,14 L5,6 Z M6,7 L6,13 L15,13 L15,7 L6,7 Z" id="path-1"></path>
    </defs>
    <g id="Symbols" stroke="none" stroke-width="1" fill="none" fill-rule="evenodd">
        <g id="Icons-/-Resume-Builder-/-16-/-Work-Experience">
            <mask id="mask-2" fill="white">
                <use xlink:href="#path-1"></use>
            </mask>
            <use id="Combined-Shape" fill="#000000" fill-rule="nonzero" xlink:href="#path-1"></use>
            <g id="Colors-/-Black" mask="url(#mask-2)" fill="#000000">
                <rect id="Rectangle" x="0" y="0" width="16" height="16"></rect>
            </g>
        </g>
    </g>
</svg>