<?xml version="1.0" encoding="UTF-8"?>
<svg width="24px" height="24px" viewBox="0 0 24 24" version="1.1" xmlns="http://www.w3.org/2000/svg" xmlns:xlink="http://www.w3.org/1999/xlink">
    <!-- Generator: sketchtool 54.1 (76490) - https://sketchapp.com -->
    <title>cbd2d8a8-9ade-4589-bbbd-cc140967b8d8@1.00x</title>
    <desc>Created with sketchtool.</desc>
    <defs>
        <path d="M7,10 L7,11 L1,11 L1,15 L7,15 L7,16 L0,16 L0,5 L6,5 L6,3 L10,3 L10,5 L16,5 L16,8 L15,8 L15,6 L10,6 L6,6 L1,6 L1,10 L7,10 Z M7,5 L9,5 L9,4 L7,4 L7,5 Z M8,9 L24,9 L24,19 L8,19 L8,9 Z M9,10 L9,18 L23,18 L23,10 L9,10 Z M10,20 L22,20 L22,21 L10,21 L10,20 Z" id="path-1"></path>
    </defs>
    <g id="Symbols" stroke="none" stroke-width="1" fill="none" fill-rule="evenodd">
        <g id="Icons-/-Resume-Builder-/-24-/-Work-Experience">
            <mask id="mask-2" fill="white">
                <use xlink:href="#path-1"></use>
            </mask>
            <use id="Combined-Shape" fill="#000000" fill-rule="nonzero" xlink:href="#path-1"></use>
            <g id="Colors-/-Black" mask="url(#mask-2)" fill="#000000">
                <rect id="Rectangle" x="0" y="0" width="24" height="24"></rect>
            </g>
        </g>
    </g>
</svg>