<svg width="24" height="24" viewBox="0 0 24 24" fill="none" xmlns="http://www.w3.org/2000/svg"><path d="M3.000 1.500 L 3.000 2.000 4.000 2.000 L 5.000 2.000 5.000 4.595 L 5.000 7.191 7.150 9.580 C 8.332 10.894,9.300 11.983,9.300 12.000 C 9.300 12.017,8.332 13.106,7.150 14.420 L 5.000 16.809 5.000 19.405 L 5.000 22.000 4.000 22.000 L 3.000 22.000 3.000 22.500 L 3.000 23.000 12.000 23.000 L 21.000 23.000 21.000 22.500 L 21.000 22.000 20.000 22.000 L 19.000 22.000 19.000 19.404 L 19.000 16.808 16.850 14.421 C 15.668 13.109,14.700 12.019,14.700 12.000 C 14.700 11.981,15.668 10.891,16.850 9.579 L 19.000 7.192 19.000 4.596 L 19.000 2.000 20.000 2.000 L 21.000 2.000 21.000 1.500 L 21.000 1.000 12.000 1.000 L 3.000 1.000 3.000 1.500 M18.000 4.403 L 18.000 6.805 15.680 9.382 C 14.404 10.799,13.360 11.977,13.360 12.000 C 13.360 12.023,14.404 13.201,15.680 14.618 L 18.000 17.195 18.000 19.597 L 18.000 22.000 12.000 22.000 L 6.000 22.000 6.002 19.590 L 6.004 17.180 8.322 14.611 C 9.597 13.198,10.640 12.023,10.640 12.000 C 10.640 11.977,9.597 10.802,8.322 9.389 L 6.004 6.820 6.002 4.410 L 6.000 2.000 12.000 2.000 L 18.000 2.000 18.000 4.403 " fill="#455065" stroke="none" fill-rule="evenodd"></path></svg>