<svg width="16" height="16" viewBox="0 0 16 16" fill="none" xmlns="http://www.w3.org/2000/svg"><path d="M2.000 0.507 L 2.000 1.013 2.493 1.013 L 2.987 1.013 2.987 3.100 L 2.987 5.186 4.393 6.593 L 5.800 8.000 4.393 9.407 L 2.987 10.814 2.987 12.913 L 2.987 15.013 2.493 15.013 L 2.000 15.013 2.000 15.507 L 2.000 16.000 8.000 16.000 L 14.000 16.000 14.000 15.507 L 14.000 15.013 13.507 15.013 L 13.013 15.013 13.013 12.913 L 13.013 10.814 11.607 9.407 L 10.200 8.000 11.607 6.593 L 13.013 5.186 13.013 3.100 L 13.013 1.013 13.507 1.013 L 14.000 1.013 14.000 0.507 L 14.000 0.000 8.000 0.000 L 2.000 0.000 2.000 0.507 M12.000 2.900 L 12.000 4.787 10.393 6.393 L 8.787 8.000 10.393 9.607 L 12.000 11.213 12.000 13.113 L 12.000 15.013 8.000 15.013 L 4.000 15.013 4.000 13.113 L 4.000 11.213 5.607 9.607 L 7.213 8.000 5.607 6.393 L 4.000 4.787 4.000 2.900 L 4.000 1.013 8.000 1.013 L 12.000 1.013 12.000 2.900 " fill="#455065" stroke="none" fill-rule="evenodd"></path></svg>